<svg id="Grupo_166865" data-name="Grupo 166865" xmlns="http://www.w3.org/2000/svg" width="87.48" height="88.938" viewBox="0 0 87.48 88.938">
  <ellipse id="Elipse_4869" data-name="Elipse 4869" cx="43.74" cy="44.469" rx="43.74" ry="44.469" transform="translate(0 0)" fill="#005acf"/>
  <g id="TZS91r.tif" transform="translate(16.038 15.306)">
    <g id="Grupo_166876" data-name="Grupo 166876">
      <path id="Trazado_197321" data-name="Trazado 197321" d="M-466.971,293.4a1.38,1.38,0,0,1-.616-1.342,4.918,4.918,0,0,0-.109-2.321c-.321-.59-1.225-.864-1.876-1.271-1.045-.655-2.085-1.318-3.143-1.952a1.287,1.287,0,0,1-.7-1.233c.023-1.76.006-3.521.01-5.282,0-.851.322-1.176,1.168-1.178q3.917-.006,7.834,0h.716v-.709q0-3.855,0-7.711a7.829,7.829,0,0,1,5.7-7.763c.114-.036.225-.084.4-.151a6.773,6.773,0,0,1-2.178-5.811,6.615,6.615,0,0,1,2.377-4.434,6.83,6.83,0,0,1,9.035.21,6.932,6.932,0,0,1-.035,10.092c2.136.746,3.262,2.575,4.573,4.206.773.961,1.552,1.918,2.319,2.883a1.155,1.155,0,0,0,1.043.461c1.011-.038,2.024-.02,3.036-.011a2.86,2.86,0,0,1,2.879,2.894,2.855,2.855,0,0,1-2.847,2.926c-2.348.014-4.7.007-7.044,0a5.367,5.367,0,0,1-.78-.117v3.042h.634q5.344,0,10.688-.006c1.021,0,1.3.275,1.3,1.287,0,1.781-.02,3.562.012,5.343a1.382,1.382,0,0,1-.78,1.372c-1.532.862-3.04,1.768-4.571,2.631a.8.8,0,0,0-.5.847c.042.584-.018,1.175.018,1.759a1.34,1.34,0,0,1-.618,1.34Zm28.551-5.924c1.306-.757,2.51-1.452,3.707-2.158a.4.4,0,0,0,.171-.283c.011-1.409.008-2.818.008-4.223h-36.929c0,.734-.005,1.42,0,2.107a4.772,4.772,0,0,0,.1,2.023c.276.513,1.06.755,1.625,1.109.693.434,1.39.859,2.16,1.334,0-.6,0-1.085,0-1.568.005-.739.338-1.145.942-1.159.637-.015.993.4,1,1.168q0,2.49,0,4.98v.619h25.255c.008-.149.02-.267.02-.384,0-1.761,0-3.522,0-5.283a.967.967,0,0,1,.948-1.1c.614-.014.979.391.989,1.113C-438.414,286.3-438.42,286.827-438.42,287.481Zm-8.746-8.671c0-1.216-.06-2.372.018-3.518a2.714,2.714,0,0,0-.958-2.5.951.951,0,0,1-.111-1.489,1,1,0,0,1,1.5.115c.775.741,1.528,1.507,2.317,2.232a1.2,1.2,0,0,0,.725.312c2,.025,4.007.018,6.011.012.775,0,1.2-.369,1.18-1-.016-.6-.42-.943-1.166-.948-1.052-.006-2.109-.056-3.156.022a2.113,2.113,0,0,1-1.993-.969c-1.4-1.8-2.867-3.56-4.318-5.326a4.075,4.075,0,0,0-3.417-1.511c-1.659.031-3.32,0-4.979.008a6,6,0,0,0-6.232,6.228q-.006,3.855,0,7.71c0,.2.019.391.029.6h2.885c0-1.9,0-3.764,0-5.624,0-.725.36-1.134.968-1.132s.968.415.97,1.135c.006,1.5,0,3,0,4.493v1.151Zm-5.848-26.219a4.871,4.871,0,0,0-4.84,4.886,4.881,4.881,0,0,0,4.847,4.824,4.881,4.881,0,0,0,4.869-4.861A4.867,4.867,0,0,0-453.015,252.591Z" transform="translate(483.128 -231.19)" fill="#fff"/>
      <path id="Trazado_197322" data-name="Trazado 197322" d="M-553.226,108.7a2.836,2.836,0,0,1,3.1-1.974c2.225.069,4.454.015,6.681.019.806,0,1.268.376,1.25.993-.018.59-.483.954-1.237.955q-3.493,0-6.985,0c-.7,0-.865.157-.865.846q0,4.98,0,9.959c0,.656.176.843.817.844q5.011.008,10.022,0c.647,0,.822-.186.826-.834.006-.87,0-1.741,0-2.611a1,1,0,0,1,.964-1.1.987.987,0,0,1,.969,1.086c.008.992.015,1.984,0,2.975a2.475,2.475,0,0,1-2.4,2.422c-3.583.023-7.167.031-10.75-.005a2.6,2.6,0,0,1-2.39-1.921Z" transform="translate(553.226 -104.783)" fill="#fff"/>
      <path id="Trazado_197323" data-name="Trazado 197323" d="M-553.226,268.391a2.84,2.84,0,0,1,3.1-1.974c2.264.068,4.532.011,6.8.022.9,0,1.4.751.995,1.445a1.115,1.115,0,0,1-1.09.507c-2.286-.01-4.573-.005-6.859,0-.9,0-1,.105-1,1.016q0,4.855,0,9.71c0,.773.154.932.91.933q4.917,0,9.833,0c.767,0,.921-.156.923-.918,0-.829,0-1.659,0-2.488.006-.7.394-1.137.985-1.127a.977.977,0,0,1,.949,1.1c.007.971.012,1.942,0,2.913a2.48,2.48,0,0,1-2.48,2.464q-5.28.017-10.561,0a2.633,2.633,0,0,1-2.5-1.935Z" transform="translate(553.226 -245.044)" fill="#fff"/>
      <path id="Trazado_197324" data-name="Trazado 197324" d="M-216.131,114.088c.548.192.947.429.925,1.037-.023.624-.437.86-.972,1.023,0,1.137-.061,2.273.014,3.4a3.159,3.159,0,0,1-2.933,3.383c0,.33.008.668,0,1.006a2.907,2.907,0,0,1-2.95,2.837,2.929,2.929,0,0,1-2.878-2.858,1.72,1.72,0,0,0-.125-.827,14.354,14.354,0,0,1-1.924-1.136,2.505,2.505,0,0,1-.873-2.051c.011-1.253,0-2.506,0-3.762-.527-.146-.926-.391-.965-.97s.345-.864.906-1.072a5.905,5.905,0,0,0-.44-.787c-1.032-1.322-2.127-2.6-3.115-3.952a11.749,11.749,0,0,1,7.439-18.379,11.6,11.6,0,0,1,13.554,9.934,11.587,11.587,0,0,1-2.718,9.306c-.841,1.009-1.657,2.039-2.471,3.07A7.419,7.419,0,0,0-216.131,114.088Zm-2.028.038a11.282,11.282,0,0,1,2.774-4.353c.067-.076.135-.15.2-.226a10.588,10.588,0,0,0,2.81-5.916,9.669,9.669,0,0,0-8.506-10.773,9.741,9.741,0,0,0-10.55,12.026,11.956,11.956,0,0,0,2.881,4.984,10.822,10.822,0,0,1,2.689,4.259Zm-7.739,1.985c0,1.306-.02,2.555.009,3.8a1.053,1.053,0,0,0,1.086,1.014q2.787.027,5.574,0a1.03,1.03,0,0,0,1.085-.939c.033-1.284.011-2.57.011-3.879Zm2.925,6.806c.022.68-.2,1.4.5,1.744a1.236,1.236,0,0,0,1.05-.081c.592-.4.364-1.066.347-1.662Z" transform="translate(272.555 -90.799)" fill="#fff"/>
      <path id="Trazado_197325" data-name="Trazado 197325" d="M-399.637,194.706h8.192a4.548,4.548,0,0,1,.606.016.89.89,0,0,1,.853.928.915.915,0,0,1-.794.988,2.408,2.408,0,0,1-.544.019h-16.747a2.386,2.386,0,0,1-.544-.02.918.918,0,0,1-.8-.989.892.892,0,0,1,.856-.927,4.718,4.718,0,0,1,.606-.016Z" transform="translate(426.914 -182.06)" fill="#fff"/>
      <path id="Trazado_197326" data-name="Trazado 197326" d="M-401.8,164.736c-2.041,0-4.083,0-6.124,0-.5,0-.935-.183-1.022-.666a1.621,1.621,0,0,1,.274-1.029.943.943,0,0,1,.7-.246q6.245-.021,12.49-.006a.937.937,0,0,1,1.033.942.953.953,0,0,1-1.047,1C-397.592,164.743-399.694,164.736-401.8,164.736Z" transform="translate(426.512 -154.027)" fill="#fff"/>
      <path id="Trazado_197327" data-name="Trazado 197327" d="M-517.433,135.227l3.84-3.847a3.435,3.435,0,0,1,.439-.418.929.929,0,0,1,1.271.067.918.918,0,0,1,.121,1.265,3.548,3.548,0,0,1-.5.531q-2.124,2.125-4.251,4.247c-.682.678-1.123.678-1.805,0q-1.293-1.282-2.576-2.575a1.009,1.009,0,0,1-.143-1.5,1.016,1.016,0,0,1,1.543.123C-518.818,133.8-518.161,134.482-517.433,135.227Z" transform="translate(525.189 -125.882)" fill="#fff"/>
      <path id="Trazado_197328" data-name="Trazado 197328" d="M-517.414,294.983l3.805-3.793a5.791,5.791,0,0,1,.437-.421.97.97,0,0,1,1.321.045.966.966,0,0,1,.06,1.32,6.4,6.4,0,0,1-.5.524q-2.1,2.1-4.209,4.206c-.658.655-1.115.659-1.762.019q-1.295-1.281-2.577-2.575c-.53-.535-.584-1.115-.159-1.542s1.014-.377,1.543.15C-518.787,293.585-518.125,294.264-517.414,294.983Z" transform="translate(525.173 -266.226)" fill="#fff"/>
      <path id="Trazado_197329" data-name="Trazado 197329" d="M-404.042,130.832c1.374,0,2.748-.005,4.122,0,.772,0,1.176.363,1.158,1-.017.6-.428.946-1.158.947q-4.183.006-8.366,0c-.729,0-1.145-.349-1.162-.947-.018-.632.393-1,1.161-1C-406.871,130.827-405.457,130.832-404.042,130.832Z" transform="translate(426.945 -125.959)" fill="#fff"/>
      <path id="Trazado_197330" data-name="Trazado 197330" d="M-165.6,183.245c1.552-1.379,3.072-2.735,4.6-4.082a1.678,1.678,0,0,1,.6-.39.892.892,0,0,1,1.093.431.946.946,0,0,1-.21,1.26c-.777.707-1.566,1.4-2.352,2.1q-1.45,1.288-2.9,2.573a1.029,1.029,0,0,1-1.645.015q-1.478-1.3-2.947-2.615c-.562-.5-.651-1.068-.25-1.529s.985-.437,1.547.054C-167.249,181.776-166.439,182.5-165.6,183.245Z" transform="translate(216.515 -168.028)" fill="#fff"/>
      <path id="Trazado_197331" data-name="Trazado 197331" d="M-171.031,123.779a.908.908,0,0,1-.854.992,4.853,4.853,0,0,0-4.168,2.5.939.939,0,0,1-1.336.281,1,1,0,0,1-.349-1.327,6.52,6.52,0,0,1,5.75-3.4A.94.94,0,0,1-171.031,123.779Z" transform="translate(223.533 -118.916)" fill="#fff"/>
      <path id="Trazado_197332" data-name="Trazado 197332" d="M-192.828,172.783a.976.976,0,0,1-.96-.972.95.95,0,0,1,1.015-.965.93.93,0,0,1,.921.99A.957.957,0,0,1-192.828,172.783Z" transform="translate(237.53 -161.104)" fill="#fff"/>
    </g>
  </g>
</svg>
