<svg xmlns="http://www.w3.org/2000/svg" width="252" height="72" viewBox="0 0 252 72">
  <g id="Grupo_973917" data-name="Grupo 973917" transform="translate(-866.692 -2232.842)">
    <path id="Trazado_705275" data-name="Trazado 705275" d="M10,0H242a10,10,0,0,1,10,10V62a10,10,0,0,1-10,10H10A10,10,0,0,1,0,62V10A10,10,0,0,1,10,0Z" transform="translate(866.692 2232.842)" fill="#ece3ff"/>
    <path id="Trazado_705276" data-name="Trazado 705276" d="M5.01-7.09l2.012-3.477H9.658L6.426-5.361,9.766,0H7.148L5.039-3.613,2.939,0H.3l3.34-5.361L.42-10.566H3.037Zm19.863-.527H16.455V-9.59h8.418Zm0,4.141H16.455V-5.439h8.418ZM38.7,0H36.338V-11.423l-3.486,1.189v-1.992L38.4-14.268h.3ZM48.809-5.781a14.881,14.881,0,0,1,.605-4.282,11.754,11.754,0,0,1,1.777-3.623,7.057,7.057,0,0,1,2.48-2.241l.469,1.387a7.249,7.249,0,0,0-2.231,3.188,14.28,14.28,0,0,0-.933,4.907l-.01.84A15.525,15.525,0,0,0,51.8-.327,7.779,7.779,0,0,0,54.141,3.2l-.469,1.318a7.069,7.069,0,0,1-2.485-2.251,11.752,11.752,0,0,1-1.777-3.623A15.468,15.468,0,0,1,48.809-5.781Zm17.041-3.3,2.988-5.137h2.852l-4.3,7.051L71.787,0H68.906L65.85-5.215,62.783,0H59.912l4.4-7.168L60.01-14.219h2.852ZM76.537,7H75.159V.337l-2.034.693V-.132L76.36-1.322h.177ZM90.478-7.822h3.711v2.168H90.478v4.229h-2.3V-5.654h-3.73V-7.822h3.73v-3.955h2.3Zm14.434.732,2.012-3.477h2.637l-3.232,5.205L109.668,0H107.05l-2.109-3.613L102.841,0H100.2l3.34-5.361-3.223-5.205h2.617ZM116.158,7h-5.577V6.049l2.763-3.013a6.88,6.88,0,0,0,.852-1.114,1.8,1.8,0,0,0,.253-.9,1.363,1.363,0,0,0-.333-.957,1.156,1.156,0,0,0-.9-.365,1.332,1.332,0,0,0-1.042.41,1.613,1.613,0,0,0-.37,1.122h-1.384a2.713,2.713,0,0,1,.345-1.364,2.373,2.373,0,0,1,.985-.943,3.137,3.137,0,0,1,1.478-.336,2.806,2.806,0,0,1,1.905.607,2.106,2.106,0,0,1,.7,1.678,2.847,2.847,0,0,1-.35,1.3,7.4,7.4,0,0,1-1.148,1.547l-2.028,2.17h3.851ZM128.271-7.822h3.711v2.168h-3.711v4.229h-2.3V-5.654h-3.73V-7.822h3.73v-3.955h2.3ZM140.419-2.5a1.356,1.356,0,0,1,1.025.376,1.306,1.306,0,0,1,.361.942,1.26,1.26,0,0,1-.361.923,1.376,1.376,0,0,1-1.025.366,1.38,1.38,0,0,1-1.006-.361,1.238,1.238,0,0,1-.371-.928,1.306,1.306,0,0,1,.361-.942A1.342,1.342,0,0,1,140.419-2.5Zm4.473,0a1.356,1.356,0,0,1,1.025.376,1.306,1.306,0,0,1,.361.942,1.26,1.26,0,0,1-.361.923,1.376,1.376,0,0,1-1.025.366,1.38,1.38,0,0,1-1.006-.361,1.238,1.238,0,0,1-.371-.928,1.306,1.306,0,0,1,.361-.942A1.342,1.342,0,0,1,144.892-2.5Zm4.307,0a1.356,1.356,0,0,1,1.025.376,1.306,1.306,0,0,1,.361.942,1.26,1.26,0,0,1-.361.923A1.376,1.376,0,0,1,149.2.107a1.38,1.38,0,0,1-1.006-.361,1.238,1.238,0,0,1-.371-.928,1.306,1.306,0,0,1,.361-.942A1.342,1.342,0,0,1,149.2-2.5Zm14.3-5.322h3.711v2.168H163.5v4.229h-2.3V-5.654h-3.73V-7.822h3.73v-3.955h2.3Zm15.762-1.26,2.988-5.137H185.1l-4.3,7.051L185.195,0h-2.881l-3.057-5.215L176.191,0H173.32l4.4-7.168-4.307-7.051h2.852ZM187.569.837l.04.712A2.216,2.216,0,0,1,189.4.723q1.925,0,1.96,2.2V7h-1.384V3.007a1.269,1.269,0,0,0-.253-.869,1.066,1.066,0,0,0-.829-.282,1.334,1.334,0,0,0-1.247.758V7h-1.384V.837ZM200.76-5.625a14.693,14.693,0,0,1-.6,4.185,11.856,11.856,0,0,1-1.807,3.672,7.075,7.075,0,0,1-2.529,2.29L195.359,3.2a7.5,7.5,0,0,0,2.319-3.462,15.378,15.378,0,0,0,.854-5.317V-5.8a15.6,15.6,0,0,0-.742-4.946,8.725,8.725,0,0,0-2.129-3.579l-.3-.273.469-1.328a7,7,0,0,1,2.422,2.148,11.657,11.657,0,0,1,1.8,3.452,14.379,14.379,0,0,1,.7,3.94Z" transform="translate(894.692 2271.62)" fill="#24065f"/>
    <path id="Trazado_177497" data-name="Trazado 177497" d="M-8349.55,7845h16.525" transform="translate(9273.652 -5568.113)" fill="none" stroke="#24065f" stroke-width="1"/>
    <path id="Trazado_705277" data-name="Trazado 705277" d="M3.418-10.566l.068,1.221a3.8,3.8,0,0,1,3.076-1.416q3.3,0,3.359,3.779V0H7.549V-6.846a2.176,2.176,0,0,0-.435-1.489,1.828,1.828,0,0,0-1.421-.483,2.287,2.287,0,0,0-2.139,1.3V0H1.182V-10.566Z" transform="translate(927.047 2292.42)" fill="#24065f"/>
    <path id="Trazado_177498" data-name="Trazado 177498" d="M-8374,7823h12.711" transform="translate(9268.692 -5568.068)" fill="none" stroke="#24065f" stroke-width="1"/>
  </g>
</svg>
