<svg xmlns="http://www.w3.org/2000/svg" width="124" height="72" viewBox="0 0 124 72">
  <g id="Grupo_973918" data-name="Grupo 973918" transform="translate(-410 -3582)">
    <path id="Trazado_705283" data-name="Trazado 705283" d="M10,0H114a10,10,0,0,1,10,10V62a10,10,0,0,1-10,10H10A10,10,0,0,1,0,62V10A10,10,0,0,1,10,0Z" transform="translate(410 3582)" fill="#ece3ff"/>
    <path id="Trazado_705284" data-name="Trazado 705284" d="M12.915-7.483A9.693,9.693,0,0,1,11.481-1.7,5.066,5.066,0,0,1,7.117.244a5.133,5.133,0,0,1-4.34-1.9,9.282,9.282,0,0,1-1.5-5.621v-3.076A9.547,9.547,0,0,1,2.716-16.1a5.113,5.113,0,0,1,4.376-1.917,5.141,5.141,0,0,1,4.352,1.868,9.255,9.255,0,0,1,1.471,5.591ZM9.949-10.8a7.52,7.52,0,0,0-.684-3.668,2.333,2.333,0,0,0-2.173-1.166,2.331,2.331,0,0,0-2.136,1.1,6.95,6.95,0,0,0-.72,3.448v4.028a7.715,7.715,0,0,0,.7,3.711A2.337,2.337,0,0,0,7.117-2.124,2.3,2.3,0,0,0,9.229-3.253a7.258,7.258,0,0,0,.72-3.534ZM17.862,2.831,19.329.3h1.922l-2.357,3.8L21.329,8H19.421L17.883,5.365,16.352,8H14.43l2.435-3.909L14.515.3h1.908Zm22.2-12.352H29.539v-2.466H40.061Zm0,5.176H29.539V-6.8H40.061Z" transform="translate(425 3624.305)" fill="#24065f"/>
    <path id="Trazado_705285" data-name="Trazado 705285" d="M15.991-8.423a10.9,10.9,0,0,1-.9,4.584A6.83,6.83,0,0,1,12.506-.812,7.1,7.1,0,0,1,8.643.244,7.118,7.118,0,0,1,4.791-.812,6.935,6.935,0,0,1,2.179-3.821a10.563,10.563,0,0,1-.934-4.5v-1a10.811,10.811,0,0,1,.922-4.59,6.927,6.927,0,0,1,2.6-3.046,7.079,7.079,0,0,1,3.851-1.056,7.141,7.141,0,0,1,3.851,1.044,6.839,6.839,0,0,1,2.594,3,10.788,10.788,0,0,1,.928,4.559ZM12.9-9.351a7.77,7.77,0,0,0-1.117-4.529,3.654,3.654,0,0,0-3.168-1.575,3.643,3.643,0,0,0-3.131,1.569A7.619,7.619,0,0,0,4.333-9.448v1.025A7.711,7.711,0,0,0,5.475-3.894a3.675,3.675,0,0,0,3.168,1.6A3.632,3.632,0,0,0,11.8-3.857a7.877,7.877,0,0,0,1.1-4.565Z" transform="translate(493.747 3612.847)" fill="#24065f"/>
    <path id="Trazado_177527" data-name="Trazado 177527" d="M-8315.883,8036h34.721" transform="translate(8802.635 -4418.509)" fill="#24065f" stroke="#23065b" stroke-width="1"/>
    <path id="Trazado_177528" data-name="Trazado 177528" d="M-8312.862,8042.441l7.32,13.011,4.655-17.788h22.427" transform="translate(8798.182 -4414.443)" fill="none" stroke="#23065b" stroke-linecap="round" stroke-width="1"/>
    <path id="Trazado_705286" data-name="Trazado 705286" d="M4.272-13.208l.085,1.526A4.749,4.749,0,0,1,8.2-13.452q4.126,0,4.2,4.724V0H9.436V-8.557a2.72,2.72,0,0,0-.543-1.862,2.285,2.285,0,0,0-1.776-.6A2.858,2.858,0,0,0,4.443-9.4V0H1.477V-13.208Z" transform="translate(502.34 3641.491)" fill="#24065f"/>
  </g>
</svg>
