<svg xmlns="http://www.w3.org/2000/svg" width="820" height="417" viewBox="0 0 820 417">
  <g id="Grupo_974128" data-name="Grupo 974128" transform="translate(-391 -22611)">
    <rect id="Rectángulo_50179" data-name="Rectángulo 50179" width="820" height="417" transform="translate(391 22611)" fill="#f6f6f6"/>
    <g id="Grupo_166784" data-name="Grupo 166784" transform="translate(4.117 5579.525)">
      <g id="Grupo_165792" data-name="Grupo 165792" transform="translate(27.883 5)">
        <path id="Trazado_177432" data-name="Trazado 177432" d="M-8238,5764.957s194.792-18.277,295-219.244,122.891,222.742,315,219.244" transform="translate(8685 11589.405)" fill="none" stroke="#7125c8" stroke-width="2"/>
        <path id="Trazado_177433" data-name="Trazado 177433" d="M-7828,5368.474v301.9" transform="translate(8625 11700)" fill="none" stroke="#000" stroke-width="2"/>
        <path id="Trazado_705259" data-name="Trazado 705259" d="M7.567-3.4a1.268,1.268,0,0,0-.479-1.055,5.954,5.954,0,0,0-1.683-.782,16.147,16.147,0,0,1-1.969-.782Q.949-7.242.949-9.378a3.011,3.011,0,0,1,.62-1.876A4.008,4.008,0,0,1,3.322-12.52a6.823,6.823,0,0,1,2.549-.453,5.969,5.969,0,0,1,2.474.492,3.917,3.917,0,0,1,1.7,1.4A3.661,3.661,0,0,1,10.652-9H7.576A1.547,1.547,0,0,0,7.1-10.213a1.867,1.867,0,0,0-1.3-.431,2.106,2.106,0,0,0-1.305.365,1.119,1.119,0,0,0-.479.927,1.127,1.127,0,0,0,.527.892A6.65,6.65,0,0,0,6.4-7.633a11.36,11.36,0,0,1,2.18.918,3.663,3.663,0,0,1,2.074,3.3A3.125,3.125,0,0,1,9.387-.782,5.629,5.629,0,0,1,5.915.176,6.888,6.888,0,0,1,3.1-.382,4.247,4.247,0,0,1,1.2-1.912,3.985,3.985,0,0,1,.563-4.148H3.656a1.963,1.963,0,0,0,.532,1.516,2.513,2.513,0,0,0,1.727.488,1.985,1.985,0,0,0,1.208-.33A1.088,1.088,0,0,0,7.567-3.4ZM15.223,0H12.252V-9.51h2.971ZM12.076-11.962A1.322,1.322,0,0,1,12.533-13a1.724,1.724,0,0,1,1.187-.4,1.724,1.724,0,0,1,1.187.4,1.322,1.322,0,0,1,.457,1.037,1.322,1.322,0,0,1-.457,1.037,1.724,1.724,0,0,1-1.187.4,1.724,1.724,0,0,1-1.187-.4A1.322,1.322,0,0,1,12.076-11.962Zm7.77,2.452.1,1.116a3.27,3.27,0,0,1,2.716-1.292,2.407,2.407,0,0,1,2.435,1.433,3.165,3.165,0,0,1,2.795-1.433q2.892,0,2.971,3.5V0H27.888V-6a1.813,1.813,0,0,0-.246-1.063,1.048,1.048,0,0,0-.9-.334,1.4,1.4,0,0,0-1.31.782l.009.123V0H22.474V-5.985a1.906,1.906,0,0,0-.237-1.081,1.045,1.045,0,0,0-.905-.334,1.42,1.42,0,0,0-1.3.782V0H17.068V-9.51ZM37.151.176a4.889,4.889,0,0,1-3.542-1.305,4.507,4.507,0,0,1-1.354-3.4v-.246A5.84,5.84,0,0,1,32.8-7.348a3.955,3.955,0,0,1,1.578-1.727,4.763,4.763,0,0,1,2.461-.611A4.117,4.117,0,0,1,40-8.442a4.887,4.887,0,0,1,1.16,3.467v1.151H35.271a2.135,2.135,0,0,0,.694,1.257,2.066,2.066,0,0,0,1.389.457,2.662,2.662,0,0,0,2.2-.984l1.354,1.6A3.784,3.784,0,0,1,39.335-.277,5.3,5.3,0,0,1,37.151.176ZM36.817-7.4q-1.3,0-1.547,1.723h2.988v-.229a1.467,1.467,0,0,0-.36-1.1A1.434,1.434,0,0,0,36.817-7.4Zm-.035-6.108h3.129l-2.443,2.76-2.417,0ZM45.8-11.874V-9.51h1.564v2.057H45.8V-3.1a1.111,1.111,0,0,0,.193.747,1.037,1.037,0,0,0,.765.211A4.345,4.345,0,0,0,47.5-2.2V-.079a5.466,5.466,0,0,1-1.67.255,3.1,3.1,0,0,1-2.259-.721,2.954,2.954,0,0,1-.729-2.188v-4.72H41.625V-9.51h1.213v-2.364Zm8.481,5.045-.976-.07a1.752,1.752,0,0,0-1.793.879V0H48.551V-9.51h2.777l.1,1.222a2.294,2.294,0,0,1,2.083-1.4,2.888,2.888,0,0,1,.826.105ZM58.474,0H55.5V-9.51h2.971ZM55.327-11.962A1.322,1.322,0,0,1,55.784-13a1.724,1.724,0,0,1,1.187-.4,1.724,1.724,0,0,1,1.187.4,1.322,1.322,0,0,1,.457,1.037,1.322,1.322,0,0,1-.457,1.037,1.724,1.724,0,0,1-1.187.4,1.724,1.724,0,0,1-1.187-.4A1.322,1.322,0,0,1,55.327-11.962Zm8.991,9.853a1.317,1.317,0,0,0,.967-.338,1.241,1.241,0,0,0,.334-.945H68.4A3.288,3.288,0,0,1,67.276-.826a4.168,4.168,0,0,1-2.887,1,4.22,4.22,0,0,1-3.27-1.3,5.125,5.125,0,0,1-1.2-3.6v-.123A5.792,5.792,0,0,1,60.456-7.4a3.872,3.872,0,0,1,1.534-1.7,4.573,4.573,0,0,1,2.373-.593,4.116,4.116,0,0,1,2.944,1.028A3.647,3.647,0,0,1,68.4-5.871H65.619A1.626,1.626,0,0,0,65.259-7a1.244,1.244,0,0,0-.967-.4q-1.151,0-1.345,1.468a10.357,10.357,0,0,0-.062,1.283,4.068,4.068,0,0,0,.343,1.986A1.187,1.187,0,0,0,64.318-2.109ZM75.006,0a3.344,3.344,0,0,1-.281-.853A2.754,2.754,0,0,1,72.439.176a3.374,3.374,0,0,1-2.285-.813,2.588,2.588,0,0,1-.94-2.043,2.66,2.66,0,0,1,1.143-2.338,5.821,5.821,0,0,1,3.322-.791h.914v-.5q0-1.316-1.134-1.316A.927.927,0,0,0,72.4-6.587H69.442a2.655,2.655,0,0,1,1.173-2.239,4.931,4.931,0,0,1,2.993-.86,4.323,4.323,0,0,1,2.874.888,3.086,3.086,0,0,1,1.081,2.435v4.21a4.311,4.311,0,0,0,.4,2V0ZM73.151-1.934a1.652,1.652,0,0,0,.918-.237,1.487,1.487,0,0,0,.523-.536V-4.228h-.861q-1.547,0-1.547,1.389a.848.848,0,0,0,.272.655A.986.986,0,0,0,73.151-1.934Z" transform="translate(600 17157)" fill="#12263f"/>
        <path id="Trazado_705260" data-name="Trazado 705260" d="M7.567-3.4a1.268,1.268,0,0,0-.479-1.055,5.954,5.954,0,0,0-1.683-.782,16.147,16.147,0,0,1-1.969-.782Q.949-7.242.949-9.378a3.011,3.011,0,0,1,.62-1.876A4.008,4.008,0,0,1,3.322-12.52a6.823,6.823,0,0,1,2.549-.453,5.969,5.969,0,0,1,2.474.492,3.917,3.917,0,0,1,1.7,1.4A3.661,3.661,0,0,1,10.652-9H7.576A1.547,1.547,0,0,0,7.1-10.213a1.867,1.867,0,0,0-1.3-.431,2.106,2.106,0,0,0-1.305.365,1.119,1.119,0,0,0-.479.927,1.127,1.127,0,0,0,.527.892A6.65,6.65,0,0,0,6.4-7.633a11.36,11.36,0,0,1,2.18.918,3.663,3.663,0,0,1,2.074,3.3A3.125,3.125,0,0,1,9.387-.782,5.629,5.629,0,0,1,5.915.176,6.888,6.888,0,0,1,3.1-.382,4.247,4.247,0,0,1,1.2-1.912,3.985,3.985,0,0,1,.563-4.148H3.656a1.963,1.963,0,0,0,.532,1.516,2.513,2.513,0,0,0,1.727.488,1.985,1.985,0,0,0,1.208-.33A1.088,1.088,0,0,0,7.567-3.4ZM15.223,0H12.252V-9.51h2.971ZM12.076-11.962A1.322,1.322,0,0,1,12.533-13a1.724,1.724,0,0,1,1.187-.4,1.724,1.724,0,0,1,1.187.4,1.322,1.322,0,0,1,.457,1.037,1.322,1.322,0,0,1-.457,1.037,1.724,1.724,0,0,1-1.187.4,1.724,1.724,0,0,1-1.187-.4A1.322,1.322,0,0,1,12.076-11.962Zm7.77,2.452.1,1.116a3.27,3.27,0,0,1,2.716-1.292,2.407,2.407,0,0,1,2.435,1.433,3.165,3.165,0,0,1,2.795-1.433q2.892,0,2.971,3.5V0H27.888V-6a1.813,1.813,0,0,0-.246-1.063,1.048,1.048,0,0,0-.9-.334,1.4,1.4,0,0,0-1.31.782l.009.123V0H22.474V-5.985a1.906,1.906,0,0,0-.237-1.081,1.045,1.045,0,0,0-.905-.334,1.42,1.42,0,0,0-1.3.782V0H17.068V-9.51ZM37.151.176a4.889,4.889,0,0,1-3.542-1.305,4.507,4.507,0,0,1-1.354-3.4v-.246A5.84,5.84,0,0,1,32.8-7.348a3.955,3.955,0,0,1,1.578-1.727,4.763,4.763,0,0,1,2.461-.611A4.117,4.117,0,0,1,40-8.442a4.887,4.887,0,0,1,1.16,3.467v1.151H35.271a2.135,2.135,0,0,0,.694,1.257,2.066,2.066,0,0,0,1.389.457,2.662,2.662,0,0,0,2.2-.984l1.354,1.6A3.784,3.784,0,0,1,39.335-.277,5.3,5.3,0,0,1,37.151.176ZM36.817-7.4q-1.3,0-1.547,1.723h2.988v-.229a1.467,1.467,0,0,0-.36-1.1A1.434,1.434,0,0,0,36.817-7.4Zm-.035-6.108h3.129l-2.443,2.76-2.417,0ZM45.8-11.874V-9.51h1.564v2.057H45.8V-3.1a1.111,1.111,0,0,0,.193.747,1.037,1.037,0,0,0,.765.211A4.345,4.345,0,0,0,47.5-2.2V-.079a5.466,5.466,0,0,1-1.67.255,3.1,3.1,0,0,1-2.259-.721,2.954,2.954,0,0,1-.729-2.188v-4.72H41.625V-9.51h1.213v-2.364Zm8.481,5.045-.976-.07a1.752,1.752,0,0,0-1.793.879V0H48.551V-9.51h2.777l.1,1.222a2.294,2.294,0,0,1,2.083-1.4,2.888,2.888,0,0,1,.826.105ZM58.474,0H55.5V-9.51h2.971ZM55.327-11.962A1.322,1.322,0,0,1,55.784-13a1.724,1.724,0,0,1,1.187-.4,1.724,1.724,0,0,1,1.187.4,1.322,1.322,0,0,1,.457,1.037,1.322,1.322,0,0,1-.457,1.037,1.724,1.724,0,0,1-1.187.4,1.724,1.724,0,0,1-1.187-.4A1.322,1.322,0,0,1,55.327-11.962Zm8.991,9.853a1.317,1.317,0,0,0,.967-.338,1.241,1.241,0,0,0,.334-.945H68.4A3.288,3.288,0,0,1,67.276-.826a4.168,4.168,0,0,1-2.887,1,4.22,4.22,0,0,1-3.27-1.3,5.125,5.125,0,0,1-1.2-3.6v-.123A5.792,5.792,0,0,1,60.456-7.4a3.872,3.872,0,0,1,1.534-1.7,4.573,4.573,0,0,1,2.373-.593,4.116,4.116,0,0,1,2.944,1.028A3.647,3.647,0,0,1,68.4-5.871H65.619A1.626,1.626,0,0,0,65.259-7a1.244,1.244,0,0,0-.967-.4q-1.151,0-1.345,1.468a10.357,10.357,0,0,0-.062,1.283,4.068,4.068,0,0,0,.343,1.986A1.187,1.187,0,0,0,64.318-2.109ZM75.006,0a3.344,3.344,0,0,1-.281-.853A2.754,2.754,0,0,1,72.439.176a3.374,3.374,0,0,1-2.285-.813,2.588,2.588,0,0,1-.94-2.043,2.66,2.66,0,0,1,1.143-2.338,5.821,5.821,0,0,1,3.322-.791h.914v-.5q0-1.316-1.134-1.316A.927.927,0,0,0,72.4-6.587H69.442a2.655,2.655,0,0,1,1.173-2.239,4.931,4.931,0,0,1,2.993-.86,4.323,4.323,0,0,1,2.874.888,3.086,3.086,0,0,1,1.081,2.435v4.21a4.311,4.311,0,0,0,.4,2V0ZM73.151-1.934a1.652,1.652,0,0,0,.918-.237,1.487,1.487,0,0,0,.523-.536V-4.228h-.861q-1.547,0-1.547,1.389a.848.848,0,0,0,.272.655A.986.986,0,0,0,73.151-1.934Z" transform="translate(922 17157)" fill="#12263f"/>
        <path id="Trazado_705261" data-name="Trazado 705261" d="M9.668-5.229a6.11,6.11,0,0,1-1.165,4A4.024,4.024,0,0,1,5.221.176a4.046,4.046,0,0,1-3.3-1.415A6.1,6.1,0,0,1,.747-5.229V-7.567a6.11,6.11,0,0,1,1.165-4A4.034,4.034,0,0,1,5.2-12.973a4.036,4.036,0,0,1,3.3,1.415,6.116,6.116,0,0,1,1.169,4ZM6.706-7.945a4.564,4.564,0,0,0-.36-2.061A1.2,1.2,0,0,0,5.2-10.687a1.176,1.176,0,0,0-1.112.633,4.3,4.3,0,0,0-.374,1.916v3.27a4.6,4.6,0,0,0,.36,2.1,1.209,1.209,0,0,0,1.143.664,1.193,1.193,0,0,0,1.116-.646,4.39,4.39,0,0,0,.369-2.026ZM12.3,3.445l-1.494-.7.3-.6a4.874,4.874,0,0,0,.642-2.18v-2.2h2.373L14.106-.325a4.767,4.767,0,0,1-.519,2.057A5.226,5.226,0,0,1,12.3,3.445Zm3.938-9.7.782-6.546H24.5v2.3H19.424l-.29,2.542a3.493,3.493,0,0,1,.831-.327,3.79,3.79,0,0,1,1.006-.141A3.754,3.754,0,0,1,23.9-7.291a4.549,4.549,0,0,1,1.024,3.168,4.541,4.541,0,0,1-.549,2.228A3.776,3.776,0,0,1,22.834-.36a4.87,4.87,0,0,1-2.347.536,5.24,5.24,0,0,1-2.259-.5,4.052,4.052,0,0,1-1.652-1.361,3.308,3.308,0,0,1-.589-1.954h2.971a1.68,1.68,0,0,0,.448,1.114,1.423,1.423,0,0,0,1.063.412q1.494,0,1.494-2.21,0-2.044-1.828-2.044a1.824,1.824,0,0,0-1.547.667Z" transform="translate(705 17286)" fill="#12263f"/>
        <path id="Trazado_705262" data-name="Trazado 705262" d="M9.668-5.229a6.11,6.11,0,0,1-1.165,4A4.024,4.024,0,0,1,5.221.176a4.046,4.046,0,0,1-3.3-1.415A6.1,6.1,0,0,1,.747-5.229V-7.567a6.11,6.11,0,0,1,1.165-4A4.034,4.034,0,0,1,5.2-12.973a4.036,4.036,0,0,1,3.3,1.415,6.116,6.116,0,0,1,1.169,4ZM6.706-7.945a4.564,4.564,0,0,0-.36-2.061A1.2,1.2,0,0,0,5.2-10.687a1.176,1.176,0,0,0-1.112.633,4.3,4.3,0,0,0-.374,1.916v3.27a4.6,4.6,0,0,0,.36,2.1,1.209,1.209,0,0,0,1.143.664,1.193,1.193,0,0,0,1.116-.646,4.39,4.39,0,0,0,.369-2.026ZM12.3,3.445l-1.494-.7.3-.6a4.874,4.874,0,0,0,.642-2.18v-2.2h2.373L14.106-.325a4.767,4.767,0,0,1-.519,2.057A5.226,5.226,0,0,1,12.3,3.445Zm3.938-9.7.782-6.546H24.5v2.3H19.424l-.29,2.542a3.493,3.493,0,0,1,.831-.327,3.79,3.79,0,0,1,1.006-.141A3.754,3.754,0,0,1,23.9-7.291a4.549,4.549,0,0,1,1.024,3.168,4.541,4.541,0,0,1-.549,2.228A3.776,3.776,0,0,1,22.834-.36a4.87,4.87,0,0,1-2.347.536,5.24,5.24,0,0,1-2.259-.5,4.052,4.052,0,0,1-1.652-1.361,3.308,3.308,0,0,1-.589-1.954h2.971a1.68,1.68,0,0,0,.448,1.114,1.423,1.423,0,0,0,1.063.412q1.494,0,1.494-2.21,0-2.044-1.828-2.044a1.824,1.824,0,0,0-1.547.667Z" transform="translate(845 17286)" fill="#12263f"/>
        <path id="Trazado_705263" data-name="Trazado 705263" d="M11.32-4.333a4.673,4.673,0,0,1-.721,2.36A4.35,4.35,0,0,1,8.75-.387a6.3,6.3,0,0,1-2.72.563A5.025,5.025,0,0,1,2.057-1.468,6.786,6.786,0,0,1,.606-6.108v-.633a7.746,7.746,0,0,1,.655-3.292,4.961,4.961,0,0,1,1.885-2.18,5.26,5.26,0,0,1,2.848-.769,5.516,5.516,0,0,1,3.744,1.226,4.844,4.844,0,0,1,1.608,3.379H8.271a2.292,2.292,0,0,0-.589-1.679,2.422,2.422,0,0,0-1.687-.51A1.843,1.843,0,0,0,4.307-9.7a5.536,5.536,0,0,0-.562,2.751v.905A6.125,6.125,0,0,0,4.258-3.12a1.882,1.882,0,0,0,1.771.879,2.369,2.369,0,0,0,1.626-.5,2.126,2.126,0,0,0,.6-1.591Zm.949-.51a5.613,5.613,0,0,1,.554-2.536,3.96,3.96,0,0,1,1.591-1.709,4.791,4.791,0,0,1,2.435-.6,4.373,4.373,0,0,1,3.366,1.323,5.076,5.076,0,0,1,1.23,3.6v.105A4.925,4.925,0,0,1,20.21-1.129,4.384,4.384,0,0,1,16.866.176a4.434,4.434,0,0,1-3.261-1.217,4.761,4.761,0,0,1-1.327-3.3Zm2.962.185a3.538,3.538,0,0,0,.413,1.934,1.376,1.376,0,0,0,1.222.615q1.582,0,1.617-2.435v-.3q0-2.558-1.635-2.558-1.485,0-1.608,2.206ZM25.875,0H22.9V-13.5h2.971Zm7.181,0a3.344,3.344,0,0,1-.281-.853A2.754,2.754,0,0,1,30.489.176,3.374,3.374,0,0,1,28.2-.637a2.588,2.588,0,0,1-.94-2.043,2.66,2.66,0,0,1,1.143-2.338,5.821,5.821,0,0,1,3.322-.791h.914v-.5q0-1.316-1.134-1.316a.927.927,0,0,0-1.055,1.042H27.492a2.655,2.655,0,0,1,1.173-2.239,4.931,4.931,0,0,1,2.993-.86,4.323,4.323,0,0,1,2.874.888,3.086,3.086,0,0,1,1.081,2.435v4.21a4.311,4.311,0,0,0,.4,2V0ZM31.2-1.934a1.652,1.652,0,0,0,.918-.237,1.487,1.487,0,0,0,.523-.536V-4.228h-.861q-1.547,0-1.547,1.389a.848.848,0,0,0,.272.655A.986.986,0,0,0,31.2-1.934Z" transform="translate(417 17385)" fill="#12263f"/>
        <path id="Trazado_705264" data-name="Trazado 705264" d="M11.32-4.333a4.673,4.673,0,0,1-.721,2.36A4.35,4.35,0,0,1,8.75-.387a6.3,6.3,0,0,1-2.72.563A5.025,5.025,0,0,1,2.057-1.468,6.786,6.786,0,0,1,.606-6.108v-.633a7.746,7.746,0,0,1,.655-3.292,4.961,4.961,0,0,1,1.885-2.18,5.26,5.26,0,0,1,2.848-.769,5.516,5.516,0,0,1,3.744,1.226,4.844,4.844,0,0,1,1.608,3.379H8.271a2.292,2.292,0,0,0-.589-1.679,2.422,2.422,0,0,0-1.687-.51A1.843,1.843,0,0,0,4.307-9.7a5.536,5.536,0,0,0-.562,2.751v.905A6.125,6.125,0,0,0,4.258-3.12a1.882,1.882,0,0,0,1.771.879,2.369,2.369,0,0,0,1.626-.5,2.126,2.126,0,0,0,.6-1.591Zm.949-.51a5.613,5.613,0,0,1,.554-2.536,3.96,3.96,0,0,1,1.591-1.709,4.791,4.791,0,0,1,2.435-.6,4.373,4.373,0,0,1,3.366,1.323,5.076,5.076,0,0,1,1.23,3.6v.105A4.925,4.925,0,0,1,20.21-1.129,4.384,4.384,0,0,1,16.866.176a4.434,4.434,0,0,1-3.261-1.217,4.761,4.761,0,0,1-1.327-3.3Zm2.962.185a3.538,3.538,0,0,0,.413,1.934,1.376,1.376,0,0,0,1.222.615q1.582,0,1.617-2.435v-.3q0-2.558-1.635-2.558-1.485,0-1.608,2.206ZM25.875,0H22.9V-13.5h2.971Zm7.181,0a3.344,3.344,0,0,1-.281-.853A2.754,2.754,0,0,1,30.489.176,3.374,3.374,0,0,1,28.2-.637a2.588,2.588,0,0,1-.94-2.043,2.66,2.66,0,0,1,1.143-2.338,5.821,5.821,0,0,1,3.322-.791h.914v-.5q0-1.316-1.134-1.316a.927.927,0,0,0-1.055,1.042H27.492a2.655,2.655,0,0,1,1.173-2.239,4.931,4.931,0,0,1,2.993-.86,4.323,4.323,0,0,1,2.874.888,3.086,3.086,0,0,1,1.081,2.435v4.21a4.311,4.311,0,0,0,.4,2V0ZM31.2-1.934a1.652,1.652,0,0,0,.918-.237,1.487,1.487,0,0,0,.523-.536V-4.228h-.861q-1.547,0-1.547,1.389a.848.848,0,0,0,.272.655A.986.986,0,0,0,31.2-1.934Z" transform="translate(1046 17385)" fill="#12263f"/>
        <path id="Trazado_705265" data-name="Trazado 705265" d="M5.019-12.8l2.856,8.9,2.848-8.9h4.061V0H11.689V-2.988l.3-6.117L8.895,0H6.855l-3.1-9.114.3,6.126V0H.967V-12.8ZM21.208.176a4.889,4.889,0,0,1-3.542-1.305,4.507,4.507,0,0,1-1.354-3.4v-.246a5.84,5.84,0,0,1,.541-2.575,3.955,3.955,0,0,1,1.578-1.727,4.763,4.763,0,0,1,2.461-.611,4.117,4.117,0,0,1,3.164,1.244,4.887,4.887,0,0,1,1.16,3.467v1.151H19.327a2.135,2.135,0,0,0,.694,1.257,2.066,2.066,0,0,0,1.389.457,2.662,2.662,0,0,0,2.2-.984l1.354,1.6A3.784,3.784,0,0,1,23.392-.277,5.3,5.3,0,0,1,21.208.176ZM20.874-7.4q-1.3,0-1.547,1.723h2.988v-.229a1.467,1.467,0,0,0-.36-1.1A1.434,1.434,0,0,0,20.874-7.4Zm5.159,2.575a5.809,5.809,0,0,1,.976-3.56,3.211,3.211,0,0,1,2.725-1.3,2.731,2.731,0,0,1,2.145,1V-13.5h2.971V0H32.186l-.149-1.02a2.8,2.8,0,0,1-2.32,1.2,3.205,3.205,0,0,1-2.689-1.3A5.993,5.993,0,0,1,26.033-4.825ZM29-4.641q0,2.531,1.477,2.531a1.458,1.458,0,0,0,1.406-.826V-6.557A1.419,1.419,0,0,0,30.489-7.4Q29.118-7.4,29-5.186ZM39.656,0H36.686V-9.51h2.971ZM36.51-11.962A1.322,1.322,0,0,1,36.967-13a1.724,1.724,0,0,1,1.187-.4,1.724,1.724,0,0,1,1.187.4,1.322,1.322,0,0,1,.457,1.037,1.322,1.322,0,0,1-.457,1.037,1.724,1.724,0,0,1-1.187.4,1.724,1.724,0,0,1-1.187-.4A1.322,1.322,0,0,1,36.51-11.962ZM46.837,0a3.344,3.344,0,0,1-.281-.853A2.754,2.754,0,0,1,44.271.176a3.374,3.374,0,0,1-2.285-.813,2.588,2.588,0,0,1-.94-2.043,2.66,2.66,0,0,1,1.143-2.338A5.821,5.821,0,0,1,45.51-5.81h.914v-.5q0-1.316-1.134-1.316a.927.927,0,0,0-1.055,1.042H41.273a2.655,2.655,0,0,1,1.173-2.239,4.931,4.931,0,0,1,2.993-.86,4.323,4.323,0,0,1,2.874.888,3.086,3.086,0,0,1,1.081,2.435v4.21a4.311,4.311,0,0,0,.4,2V0ZM44.982-1.934a1.652,1.652,0,0,0,.918-.237,1.487,1.487,0,0,0,.523-.536V-4.228h-.861q-1.547,0-1.547,1.389a.848.848,0,0,0,.272.655A.986.986,0,0,0,44.982-1.934ZM55.74-5.2a13.431,13.431,0,0,1,.571-3.99,9.629,9.629,0,0,1,1.578-3.129,5.6,5.6,0,0,1,2.237-1.793l.563,1.459a5.73,5.73,0,0,0-1.9,2.826,13.782,13.782,0,0,0-.681,4.5v.387a14.051,14.051,0,0,0,.672,4.588A5.706,5.706,0,0,0,60.688,2.5l-.562,1.459a5.547,5.547,0,0,1-2.237-1.8A9.484,9.484,0,0,1,56.312-.958a13.5,13.5,0,0,1-.571-3.85ZM72.018-1.028a3.054,3.054,0,0,1-2.54,1.2,3,3,0,0,1-2.369-.91,3.826,3.826,0,0,1-.8-2.615V-9.51h2.962v6.179a1.065,1.065,0,0,0,1.187,1.222,1.548,1.548,0,0,0,1.45-.729V-9.51h2.979V0H72.105ZM85.658-4.957a12.532,12.532,0,0,1-.606,3.92,10.008,10.008,0,0,1-1.674,3.186A5.574,5.574,0,0,1,81.07,3.955L80.508,2.5A5.787,5.787,0,0,0,82.4-.316a13.577,13.577,0,0,0,.694-4.368v-.536a14.051,14.051,0,0,0-.672-4.588,5.706,5.706,0,0,0-1.912-2.848l.563-1.459a5.676,5.676,0,0,1,2.29,1.789,9.885,9.885,0,0,1,1.67,3.138,12.426,12.426,0,0,1,.628,3.845Z" transform="translate(767 17397)" fill="#12263f"/>
        <path id="Trazado_705266" data-name="Trazado 705266" d="M9.192-6.079H1.855V-9.253H9.192Z" transform="translate(417 17341)" fill="#12263f"/>
        <path id="Trazado_705267" data-name="Trazado 705267" d="M8.569-10.083h4.163v3.528H8.569v4.773H4.724V-6.555H.549v-3.528H4.724v-4.639H8.569Z" transform="translate(1059 17341)" fill="#12263f"/>
        <path id="Trazado_177434" data-name="Trazado 177434" d="M-8258,5647h711" transform="translate(8672 11707)" fill="none" stroke="#707070" stroke-width="1"/>
        <path id="Trazado_177435" data-name="Trazado 177435" d="M-8153,5395.24v273.947" transform="translate(8628 11685.76)" fill="none" stroke="#707070" stroke-width="1"/>
        <path id="Trazado_177436" data-name="Trazado 177436" d="M-8153,5395.24v273.947" transform="translate(8733 11685.76)" fill="none" stroke="#707070" stroke-width="1"/>
        <path id="Trazado_177437" data-name="Trazado 177437" d="M-8153,5395.24v273.947" transform="translate(8838 11685.76)" fill="none" stroke="#707070" stroke-width="1"/>
        <path id="Trazado_177438" data-name="Trazado 177438" d="M-8153,5395.24v273.947" transform="translate(9048 11685.76)" fill="none" stroke="#707070" stroke-width="1"/>
        <path id="Trazado_177439" data-name="Trazado 177439" d="M-8153,5395.24v273.947" transform="translate(9153 11685.76)" fill="none" stroke="#707070" stroke-width="1"/>
        <path id="Trazado_177440" data-name="Trazado 177440" d="M-8153,5395.24v273.947" transform="translate(9258 11685.76)" fill="none" stroke="#707070" stroke-width="1"/>
        <path id="Trazado_177441" data-name="Trazado 177441" d="M-8258,5647h711" transform="translate(8672 11645)" fill="none" stroke="#707070" stroke-width="1"/>
        <path id="Trazado_177442" data-name="Trazado 177442" d="M-8258,5647h711" transform="translate(8672 11572)" fill="none" stroke="#707070" stroke-width="1"/>
        <path id="Trazado_177443" data-name="Trazado 177443" d="M-8258,5647h711" transform="translate(8672 11504)" fill="none" stroke="#707070" stroke-width="1"/>
        <path id="Trazado_177444" data-name="Trazado 177444" d="M-8258,5647h711" transform="translate(8672 11434)" fill="none" stroke="#707070" stroke-width="1"/>
      </g>
    </g>
  </g>
</svg>
