<svg id="Grupo_142438" data-name="Grupo 142438" xmlns="http://www.w3.org/2000/svg" width="91.987" height="93.52" viewBox="0 0 91.987 93.52">
  <ellipse id="Elipse_4775" data-name="Elipse 4775" cx="45.993" cy="46.76" rx="45.993" ry="46.76" transform="translate(0 0)" fill="#7125c8"/>
  <g id="bPkKrn.tif" transform="translate(15.615 15.435)">
    <g id="Grupo_154922" data-name="Grupo 154922">
      <path id="Trazado_195259" data-name="Trazado 195259" d="M-1566.629-607.335V-575.4a3.241,3.241,0,0,1-3.542,2.3c-4.34-.066-8.682-.021-13.022-.021h-.726c0,1.762-.009,3.44.007,5.118,0,.341-.086.49-.439.559-.613.119-1.212.307-1.853.475l1.144,1.932-5.167,5.187-1.93-1.145c-.057.162-.108.29-.146.421-.174.608-.165,1.457-.567,1.759s-1.227.094-1.865.1c-1.03.005-2.061,0-3.16,0,.839,2.886.422,5.749.543,8.605h-28.82c0-1.616-.018-3.193,0-4.77a13.993,13.993,0,0,1,6.168-11.78,36.356,36.356,0,0,1,3.783-2.091c-.022-.019-.1-.1-.2-.17a7.674,7.674,0,0,1-.5-11.855,1.324,1.324,0,0,0,.331-.875q.026-12.392.018-24.784a4.471,4.471,0,0,1,.088-1.008,3.04,3.04,0,0,1,2.187-2.171h45.38A3.339,3.339,0,0,1-1566.629-607.335Zm-5.8,28.455v-24.927h-38.378c0,6.95,0,13.851-.007,20.753,0,.355.166.41.461.467a7.446,7.446,0,0,1,4.891,3.182,1.065,1.065,0,0,0,1,.537q15.665-.021,31.331-.011Zm-40.295-26.849h42.224v28.769h-33.78c.088.667.168,1.273.254,1.921h34.094c1.082,0,1.387-.307,1.387-1.393q0-14.945,0-29.89c0-1.073-.31-1.376-1.4-1.376h-43.274c-1.131,0-1.426.292-1.426,1.413q0,11.7,0,23.407v.668a6.159,6.159,0,0,1,1.3-.343c.6-.02.635-.334.635-.809q-.016-10.8-.007-21.607Zm6.719,30.693a5.811,5.811,0,0,0-5.77-5.767,5.813,5.813,0,0,0-5.752,5.725,5.814,5.814,0,0,0,5.74,5.8A5.814,5.814,0,0,0-1606.008-575.036Zm16.092,1.934c.665,3.045-.106,5.565-2.6,7.368a6.228,6.228,0,0,1-7.013.462c-3.072-1.695-4.062-4.427-3.37-7.851a6.178,6.178,0,0,1-.755-.005c-.49-.064-.72.107-.88.608a7.3,7.3,0,0,1-2.488,3.522c-.132.106-.255.223-.412.362a14.61,14.61,0,0,1,8.728,7.666c.067.137.233.319.356.321,1.356.023,2.712.014,4.063.014.184-.715.345-1.372.527-2.025a.643.643,0,0,1,.231-.378c.545-.29,1.087-.582,1.688-.052a9.9,9.9,0,0,0,1.017.629.463.463,0,0,0,.712-.083c.472-.516.989-.991,1.477-1.492.388-.4,1.016-.783,1.068-1.228s-.473-.963-.756-1.442a1.212,1.212,0,0,1,.84-1.962c.538-.133,1.075-.27,1.607-.4v-4.03Zm-29.516,13.452v7.61h6.172l-5.618-13.066a12.644,12.644,0,0,0-4.508,5.687,17.543,17.543,0,0,0-.839,7.4h2.867v-7.65c.542,0,1.018,0,1.5,0C-1619.747-559.671-1619.631-559.66-1619.432-559.649Zm20.078,7.637c.5-5.305-.813-9.815-5.3-13.1l-5.624,13.083h6.221v-7.615h1.907v7.628Zm2.949-21.11c-1.32,0-2.641.014-3.96-.01-.351-.006-.551.118-.58.437a10.368,10.368,0,0,0-.132,2.359,4.729,4.729,0,0,0,5.862,3.776,4.806,4.806,0,0,0,3.364-6.142.527.527,0,0,0-.594-.43C-1593.764-573.108-1595.084-573.122-1596.4-573.122Zm-10.621,6.725c-.8,2.45-2.449,3.814-4.6,3.839-2.367.027-4-1.244-4.888-3.834l-.665.314,5.415,12.586,5.411-12.585Zm-7.5-.55a2.761,2.761,0,0,0,2.8,2.47,2.732,2.732,0,0,0,2.709-2.482A9.687,9.687,0,0,0-1614.527-566.947Z" transform="translate(1626.18 609.616)" fill="#fff"/>
      <path id="Trazado_195260" data-name="Trazado 195260" d="M-1247.112-272.162h-11.434v-1.866h11.434Z" transform="translate(1302.771 314.398)" fill="#fff"/>
      <path id="Trazado_195261" data-name="Trazado 195261" d="M-1258.624-240.242v-1.845h11.443v1.845Z" transform="translate(1302.839 286.299)" fill="#fff"/>
      <path id="Trazado_195262" data-name="Trazado 195262" d="M-1242.572-210.3h1.828v1.86h-1.828Z" transform="translate(1288.718 258.336)" fill="#fff"/>
      <path id="Trazado_195263" data-name="Trazado 195263" d="M-1208.758-208.2h-1.82v-1.863h1.82Z" transform="translate(1260.573 258.131)" fill="#fff"/>
      <path id="Trazado_195264" data-name="Trazado 195264" d="M-1176.823-209.986v1.821h-1.863v-1.821Z" transform="translate(1232.517 258.059)" fill="#fff"/>
      <path id="Trazado_195265" data-name="Trazado 195265" d="M-1466.748-539.692v3.752h-15.325v-9.519h15.3v3.771h3.852v-3.758h15.344v9.54h-6.642v1.931h6.65v9.565h-15.3v-9.527h6.647v-1.931h-6.652v-3.825Zm17.246,1.858v-5.692h-11.454v5.692Zm-11.475,11.515h11.475V-532h-11.475Zm-7.717-17.212h-11.454v5.692h11.454Z" transform="translate(1499.408 553.177)" fill="#fff"/>
      <path id="Trazado_195266" data-name="Trazado 195266" d="M-1468.662-415.783H-1482v-1.866h13.342Z" transform="translate(1499.348 440.742)" fill="#fff"/>
      <path id="Trazado_195267" data-name="Trazado 195267" d="M-1442.236-385.86h8.567V-384h-8.567Z" transform="translate(1464.363 412.777)" fill="#fff"/>
      <path id="Trazado_195268" data-name="Trazado 195268" d="M-1448.278-447.756h-1.841v-1.852h1.841Z" transform="translate(1471.298 468.856)" fill="#fff"/>
      <path id="Trazado_195269" data-name="Trazado 195269" d="M-1416.345-447.76h-1.843v-1.853h1.843Z" transform="translate(1443.208 468.861)" fill="#fff"/>
      <path id="Trazado_195270" data-name="Trazado 195270" d="M-1386.2-449.741h1.831v1.863h-1.831Z" transform="translate(1415.073 468.973)" fill="#fff"/>
      <path id="Trazado_195271" data-name="Trazado 195271" d="M-1258.441-513.693h3.74v1.864h-3.74Z" transform="translate(1302.678 525.232)" fill="#fff"/>
      <path id="Trazado_195272" data-name="Trazado 195272" d="M-1288.6-511.627h-1.841v-1.852h1.841Z" transform="translate(1330.829 525.044)" fill="#fff"/>
      <path id="Trazado_195273" data-name="Trazado 195273" d="M-1282.793-417.649v1.846h-7.6v-1.846Z" transform="translate(1330.788 440.742)" fill="#fff"/>
      <path id="Trazado_195274" data-name="Trazado 195274" d="M-1450.24-511.692v-1.845h8.562v1.845Z" transform="translate(1471.405 525.095)" fill="#fff"/>
    </g>
  </g>
</svg>
