<svg xmlns="http://www.w3.org/2000/svg" width="190" height="173.203" viewBox="0 0 190 173.203">
  <g id="Grupo_166689" data-name="Grupo 166689" transform="translate(-914.626 -8024.556)">
    <rect id="Rectángulo_49809" data-name="Rectángulo 49809" width="189.996" height="170.564" transform="translate(914.626 8024.556)" fill="#ece3ff"/>
    <g id="Grupo_165545" data-name="Grupo 165545" transform="translate(943.773 8037.51)">
      <path id="Trazado_177157" data-name="Trazado 177157" d="M-7608-3617.911v132.393h118.127" transform="translate(7613.225 3626.028)" fill="none" stroke="#000" stroke-width="1"/>
      <path id="Polígono_5" data-name="Polígono 5" d="M4.987,0,9.974,8.549H0Z"/>
      <path id="Polígono_6" data-name="Polígono 6" d="M4.987,0,9.974,8.549H0Z" transform="translate(131.901 135.523) rotate(90)"/>
      <path id="Trazado_177158" data-name="Trazado 177158" d="M-7608-3491.063l90.244-90.244" transform="translate(7613.225 3606.81)" fill="none" stroke="#7125c8" stroke-width="2"/>
      <circle id="Elipse_5072" data-name="Elipse 5072" cx="2.137" cy="2.137" r="2.137" transform="translate(9.974 121.118)" fill="#2e0877"/>
      <circle id="Elipse_5073" data-name="Elipse 5073" cx="2.137" cy="2.137" r="2.137" transform="translate(16.624 106.869)" fill="#2e0877"/>
      <circle id="Elipse_5074" data-name="Elipse 5074" cx="2.137" cy="2.137" r="2.137" transform="translate(32.298 102.594)" fill="#2e0877"/>
      <circle id="Elipse_5075" data-name="Elipse 5075" cx="2.137" cy="2.137" r="2.137" transform="translate(28.973 87.87)" fill="#2e0877"/>
      <circle id="Elipse_5076" data-name="Elipse 5076" cx="2.137" cy="2.137" r="2.137" transform="translate(41.323 83.595)" fill="#2e0877"/>
      <circle id="Elipse_5077" data-name="Elipse 5077" cx="2.137" cy="2.137" r="2.137" transform="translate(55.097 79.32)" fill="#2e0877"/>
      <circle id="Elipse_5078" data-name="Elipse 5078" cx="2.137" cy="2.137" r="2.137" transform="translate(68.396 56.522)" fill="#2e0877"/>
      <circle id="Elipse_5079" data-name="Elipse 5079" cx="2.137" cy="2.137" r="2.137" transform="translate(69.346 69.821)" fill="#2e0877"/>
      <circle id="Elipse_5080" data-name="Elipse 5080" cx="2.137" cy="2.137" r="2.137" transform="translate(12.349 87.87)" fill="#2e0877"/>
      <circle id="Elipse_5081" data-name="Elipse 5081" cx="2.137" cy="2.137" r="2.137" transform="translate(28.023 75.046)" fill="#2e0877"/>
      <circle id="Elipse_5082" data-name="Elipse 5082" cx="2.137" cy="2.137" r="2.137" transform="translate(35.148 60.796)" fill="#2e0877"/>
      <circle id="Elipse_5083" data-name="Elipse 5083" cx="2.137" cy="2.137" r="2.137" transform="translate(59.372 53.672)" fill="#2e0877"/>
      <circle id="Elipse_5084" data-name="Elipse 5084" cx="2.137" cy="2.137" r="2.137" transform="translate(77.895 51.772)" fill="#2e0877"/>
    </g>
    <rect id="Rectángulo_49810" data-name="Rectángulo 49810" width="189.996" height="3.239" transform="translate(914.63 8194.521)" fill="#7125c8"/>
  </g>
</svg>
