<svg xmlns="http://www.w3.org/2000/svg" width="409" height="78" viewBox="0 0 409 78">
  <g id="Grupo_161021" data-name="Grupo 161021" transform="translate(6209 10852.939)">
    <rect id="Rectángulo_49958" data-name="Rectángulo 49958" width="409" height="78" rx="10" transform="translate(-6209 -10852.939)" fill="#fff"/>
    <g id="Grupo_161020" data-name="Grupo 161020" transform="translate(0 -6)">
      <path id="Trazado_704803" data-name="Trazado 704803" d="M10.678-8.744h-8.7l.3-1.729h8.712ZM9.9-4.286H1.2L1.5-6h8.712Z" transform="translate(-5958.878 -10799.439)" fill="#12263f"/>
      <path id="Trazado_704804" data-name="Trazado 704804" d="M10.678-8.744h-8.7l.3-1.729h8.712ZM9.9-4.286H1.2L1.5-6h8.712Z" transform="translate(-5865.878 -10799.439)" fill="#12263f"/>
      <path id="Trazado_704805" data-name="Trazado 704805" d="M2.353-7.874,4.34-15.641h7.8l-.29,1.837H5.726l-1.2,4.275a4.786,4.786,0,0,1,2.557-.677,3.511,3.511,0,0,1,2.986,1.466,5.313,5.313,0,0,1,.849,3.679A5.876,5.876,0,0,1,9.206-1.192,5.02,5.02,0,0,1,5.457.226a4.091,4.091,0,0,1-3.019-1.2A4.547,4.547,0,0,1,1.225-4.125H3.04a3.116,3.116,0,0,0,.73,2,2.362,2.362,0,0,0,1.772.73,2.892,2.892,0,0,0,2.315-.978A4.513,4.513,0,0,0,8.97-5.049a3.436,3.436,0,0,0-.5-2.39,2.3,2.3,0,0,0-1.923-.983,3.3,3.3,0,0,0-1.391.236,5.167,5.167,0,0,0-1.208.741Z" transform="translate(-6095.08 -10782.939)" fill="#12263f"/>
      <path id="Trazado_704806" data-name="Trazado 704806" d="M2.353-7.874,4.34-15.641h7.8l-.29,1.837H5.726l-1.2,4.275a4.786,4.786,0,0,1,2.557-.677,3.511,3.511,0,0,1,2.986,1.466,5.313,5.313,0,0,1,.849,3.679A5.876,5.876,0,0,1,9.206-1.192,5.02,5.02,0,0,1,5.457.226a4.091,4.091,0,0,1-3.019-1.2A4.547,4.547,0,0,1,1.225-4.125H3.04a3.116,3.116,0,0,0,.73,2,2.362,2.362,0,0,0,1.772.73,2.892,2.892,0,0,0,2.315-.978A4.513,4.513,0,0,0,8.97-5.049a3.436,3.436,0,0,0-.5-2.39,2.3,2.3,0,0,0-1.923-.983,3.3,3.3,0,0,0-1.391.236,5.167,5.167,0,0,0-1.208.741Z" transform="translate(-5912.522 -10782.939)" fill="#12263f"/>
      <path id="Trazado_704807" data-name="Trazado 704807" d="M9.689-5.253h2.17v1.622H9.689V0h-2V-3.631H.569V-4.8l7-10.839H9.689Zm-6.864,0H7.691v-7.67l-.236.43ZM25-8.39h4.361v1.88H25v4.941H23V-6.51H18.638V-8.39H23v-4.565h2Zm14.91-.4H41.4a3.282,3.282,0,0,0,2.213-.741,2.476,2.476,0,0,0,.806-1.944,2.426,2.426,0,0,0-2.739-2.75,2.849,2.849,0,0,0-2.057.736,2.575,2.575,0,0,0-.768,1.95H36.867a3.99,3.99,0,0,1,1.359-3.088,4.95,4.95,0,0,1,3.454-1.23,4.892,4.892,0,0,1,3.47,1.171,4.23,4.23,0,0,1,1.257,3.255,3.433,3.433,0,0,1-.661,1.977,3.989,3.989,0,0,1-1.8,1.429,3.844,3.844,0,0,1,1.993,1.354,3.759,3.759,0,0,1,.7,2.31,4.267,4.267,0,0,1-1.375,3.341A5.149,5.149,0,0,1,41.69.215,5.285,5.285,0,0,1,38.108-.978a3.955,3.955,0,0,1-1.38-3.147h2a2.556,2.556,0,0,0,.806,1.977,3.064,3.064,0,0,0,2.159.741,3.007,3.007,0,0,0,2.2-.752,2.9,2.9,0,0,0,.763-2.159,2.63,2.63,0,0,0-.838-2.095A3.651,3.651,0,0,0,41.4-7.165H39.907ZM57.17-15.651v1.687H56.8a5.232,5.232,0,0,0-3.7,1.375,5.722,5.722,0,0,0-1.59,3.749,4.242,4.242,0,0,1,3.373-1.418,4.056,4.056,0,0,1,3.26,1.439A5.552,5.552,0,0,1,59.372-5.1a5.535,5.535,0,0,1-1.316,3.867A4.531,4.531,0,0,1,54.527.215a4.465,4.465,0,0,1-3.642-1.724,6.833,6.833,0,0,1-1.4-4.442v-.763q0-4.318,1.842-6.6a6.766,6.766,0,0,1,5.484-2.336ZM54.56-8.6a3.171,3.171,0,0,0-1.88.612,3.19,3.19,0,0,0-1.192,1.536v.73a5.131,5.131,0,0,0,.87,3.115,2.607,2.607,0,0,0,2.17,1.182,2.527,2.527,0,0,0,2.111-.988,4.1,4.1,0,0,0,.768-2.589,4.1,4.1,0,0,0-.779-2.6A2.5,2.5,0,0,0,54.56-8.6Zm18.509.215H77.43v1.88H73.068v4.941h-2V-6.51H66.709V-8.39H71.07v-4.565h2Zm20.41,3.137h2.17v1.622h-2.17V0h-2V-3.631H84.358V-4.8l7-10.839h2.116Zm-6.864,0H91.48v-7.67l-.236.43ZM98.355-7.842l.795-7.8h8.014V-13.8h-6.327l-.473,4.265a5.047,5.047,0,0,1,2.61-.677A4.315,4.315,0,0,1,106.369-8.8a5.536,5.536,0,0,1,1.257,3.819,5.344,5.344,0,0,1-1.305,3.808A4.757,4.757,0,0,1,102.674.215,4.944,4.944,0,0,1,99.29-.935,4.588,4.588,0,0,1,97.8-4.114h1.88a3.156,3.156,0,0,0,.956,2.025,2.973,2.973,0,0,0,2.041.682,2.682,2.682,0,0,0,2.175-.945,3.952,3.952,0,0,0,.79-2.61,3.627,3.627,0,0,0-.854-2.519,2.9,2.9,0,0,0-2.272-.951,3.276,3.276,0,0,0-2.041.569l-.526.43ZM121.14-8.39H125.5v1.88H121.14v4.941h-2V-6.51H114.78V-8.39h4.361v-4.565h2Zm12.934.548.795-7.8h8.014V-13.8h-6.327l-.473,4.265a5.047,5.047,0,0,1,2.61-.677A4.315,4.315,0,0,1,142.087-8.8a5.536,5.536,0,0,1,1.257,3.819,5.344,5.344,0,0,1-1.305,3.808A4.757,4.757,0,0,1,138.392.215a4.944,4.944,0,0,1-3.384-1.149,4.588,4.588,0,0,1-1.493-3.18h1.88a3.156,3.156,0,0,0,.956,2.025,2.973,2.973,0,0,0,2.041.682,2.682,2.682,0,0,0,2.175-.945,3.952,3.952,0,0,0,.79-2.61,3.627,3.627,0,0,0-.854-2.519,2.9,2.9,0,0,0-2.272-.951,3.276,3.276,0,0,0-2.041.569l-.526.43Zm21.248,1.171a9.089,9.089,0,0,1-1.192,5.188A4.241,4.241,0,0,1,150.4.215a4.272,4.272,0,0,1-3.706-1.66A8.627,8.627,0,0,1,145.449-6.4V-9.056a8.887,8.887,0,0,1,1.192-5.124,4.273,4.273,0,0,1,3.738-1.676,4.312,4.312,0,0,1,3.717,1.617,8.576,8.576,0,0,1,1.225,4.99Zm-1.987-2.718a7.282,7.282,0,0,0-.709-3.679,2.44,2.44,0,0,0-2.245-1.155,2.408,2.408,0,0,0-2.224,1.149,7.11,7.11,0,0,0-.72,3.534v3.18a7.4,7.4,0,0,0,.736,3.744A2.436,2.436,0,0,0,150.4-1.407a2.4,2.4,0,0,0,2.186-1.139,7.131,7.131,0,0,0,.747-3.588Zm15.877,1h4.361v1.88h-4.361v4.941h-2V-6.51h-4.361V-8.39h4.361v-4.565h2Zm22.118-6.134L184.852,0h-2.084l6.456-14.008h-8.465v-1.633h10.57ZM194.5-7.842l.795-7.8h8.014V-13.8h-6.327l-.473,4.265a5.047,5.047,0,0,1,2.61-.677A4.315,4.315,0,0,1,202.512-8.8a5.536,5.536,0,0,1,1.257,3.819,5.344,5.344,0,0,1-1.305,3.808A4.757,4.757,0,0,1,198.816.215a4.944,4.944,0,0,1-3.384-1.149,4.588,4.588,0,0,1-1.493-3.18h1.88a3.156,3.156,0,0,0,.956,2.025,2.973,2.973,0,0,0,2.041.682,2.682,2.682,0,0,0,2.175-.945,3.952,3.952,0,0,0,.79-2.61,3.627,3.627,0,0,0-.854-2.519,2.9,2.9,0,0,0-2.272-.951,3.276,3.276,0,0,0-2.041.569l-.526.43Z" transform="translate(-6175.123 -10813.939)" fill="#12263f"/>
      <path id="Trazado_704808" data-name="Trazado 704808" d="M11.548,0H1.3V-1.429L6.714-7.444a12.862,12.862,0,0,0,1.66-2.218A3.7,3.7,0,0,0,8.83-11.43a2.806,2.806,0,0,0-.741-2.009,2.592,2.592,0,0,0-1.977-.784,3.069,3.069,0,0,0-2.3.843,3.221,3.221,0,0,0-.822,2.347H1A4.613,4.613,0,0,1,2.39-14.523a5.157,5.157,0,0,1,3.722-1.332,4.955,4.955,0,0,1,3.448,1.144,3.9,3.9,0,0,1,1.268,3.045q0,2.31-2.943,5.5L3.7-1.622h7.853Zm8.637,0h-2V-13.245L14.18-11.773v-1.8l5.693-2.138h.312Zm15.63-6.671a9.089,9.089,0,0,1-1.192,5.188,4.241,4.241,0,0,1-3.728,1.7,4.272,4.272,0,0,1-3.706-1.66A8.627,8.627,0,0,1,25.942-6.4V-9.056a8.887,8.887,0,0,1,1.192-5.124,4.273,4.273,0,0,1,3.738-1.676,4.312,4.312,0,0,1,3.717,1.617,8.576,8.576,0,0,1,1.225,4.99ZM33.827-9.389a7.282,7.282,0,0,0-.709-3.679,2.44,2.44,0,0,0-2.245-1.155,2.408,2.408,0,0,0-2.224,1.149,7.11,7.11,0,0,0-.72,3.534v3.18a7.4,7.4,0,0,0,.736,3.744,2.436,2.436,0,0,0,2.229,1.208,2.4,2.4,0,0,0,2.186-1.139,7.131,7.131,0,0,0,.747-3.588Z" transform="translate(-5920.412 -10813.939)" fill="#12263f"/>
      <path id="Trazado_704809" data-name="Trazado 704809" d="M9.689-5.253h2.17v1.622H9.689V0h-2V-3.631H.569V-4.8l7-10.839H9.689Zm-6.864,0H7.691v-7.67l-.236.43ZM23.9,0H13.653V-1.429l5.414-6.016a12.862,12.862,0,0,0,1.66-2.218,3.7,3.7,0,0,0,.457-1.767,2.806,2.806,0,0,0-.741-2.009,2.592,2.592,0,0,0-1.977-.784,3.069,3.069,0,0,0-2.3.843,3.221,3.221,0,0,0-.822,2.347H13.353a4.613,4.613,0,0,1,1.391-3.491,5.157,5.157,0,0,1,3.722-1.332,4.955,4.955,0,0,1,3.448,1.144,3.9,3.9,0,0,1,1.268,3.045q0,2.31-2.943,5.5L16.049-1.622H23.9Z" transform="translate(-5848.878 -10802.439)" fill="#12263f"/>
      <path id="Trazado_184151" data-name="Trazado 184151" d="M-8279.633-10154h212.089" transform="translate(2100.877 -653.939)" fill="#12263f" stroke="#12263f" stroke-width="1"/>
      <path id="Trazado_614408" data-name="Trazado 614408" d="M-8279.633-10154h56.334" transform="translate(2346.299 -653.939)" fill="#12263f" stroke="#12263f" stroke-width="1"/>
    </g>
  </g>
</svg>
