<svg xmlns="http://www.w3.org/2000/svg" width="370.116" height="191.739" viewBox="0 0 370.116 191.739">
  <g id="Grupo_165607" data-name="Grupo 165607" transform="translate(6414.601 -8257.452)">
    <g id="persona" transform="translate(-6414.601 8257.452)">
      <path id="Trazado_177445" data-name="Trazado 177445" d="M251.064,414.5h-2.9v4.345l4.345,4.345h2.9Zm0,0" transform="translate(-224.208 -374.482)" fill="#adf5ff"/>
      <path id="Trazado_177446" data-name="Trazado 177446" d="M11.845,414.5,7.5,423.189H35.08L30.736,414.5Zm0,0" transform="translate(-6.776 -374.482)" fill="#acfcff"/>
      <path id="Trazado_177447" data-name="Trazado 177447" d="M191.064,127.5h-2.9l2.9,16.173a1.449,1.449,0,0,0,2.9,0V130.4A2.9,2.9,0,0,0,191.064,127.5Zm0,0" transform="translate(-170.001 -115.19)" fill="#f0f0f0"/>
      <path id="Trazado_177448" data-name="Trazado 177448" d="M85.4,127.5h2.9l-2.9,16.124a1.448,1.448,0,0,1-2.9,0V130.4A2.9,2.9,0,0,1,85.4,127.5Zm0,0" transform="translate(-74.535 -115.19)" fill="#f0f0f0"/>
      <path id="Trazado_177449" data-name="Trazado 177449" d="M122.7,130.4a2.9,2.9,0,0,0-2.9-2.9H115.4a2.9,2.9,0,0,0-2.9,2.9v27.331a1.826,1.826,0,0,0,3.653,0v-14.1h2.9v14.1a1.826,1.826,0,0,0,3.653,0Zm0,0" transform="translate(-101.639 -115.19)" fill="#c1c1c1"/>
      <path id="Trazado_177450" data-name="Trazado 177450" d="M165.664,7.5v8.689a4.345,4.345,0,1,0,0-8.689Zm0,0" transform="translate(-149.67 -6.776)" fill="#f0f0f0"/>
      <path id="Trazado_177451" data-name="Trazado 177451" d="M126.457,11.845c0-2.4-.649-4.345-1.448-4.345a4.345,4.345,0,1,0,0,8.689C125.808,16.189,126.457,14.244,126.457,11.845Zm0,0" transform="translate(-109.014 -6.776)" fill="#c1c1c1"/>
      <path id="Trazado_177452" data-name="Trazado 177452" d="M31.848,156.8,27.5,148.109a.724.724,0,0,0-.648-.4h-2.9a.724.724,0,1,0,0,1.448h2.449l3.62,7.241H1.9l3.62-7.241h4.621v1.794a2.551,2.551,0,0,0,5.1,0v-1.763h1.448v1.763a2.55,2.55,0,0,0,5.1,0V138.9a2.269,2.269,0,0,0,.724.117,2.126,2.126,0,0,0,2.172-2.124V123.62a3.624,3.624,0,0,0-3.62-3.62h-10.2a3.625,3.625,0,0,0-3.62,3.62v13.228a2.172,2.172,0,0,0,2.9,2.048v8.812H5.069a.724.724,0,0,0-.648.4L.077,156.8a.724.724,0,0,0,.648,1.048H31.2a.724.724,0,0,0,.648-1.048Zm-16.61-9.058V137.573h1.448V147.74ZM9.413,137.573a.725.725,0,0,1-.724-.724V123.62a2.175,2.175,0,0,1,2.172-2.172h10.2a2.175,2.175,0,0,1,2.172,2.172V136.9a.726.726,0,0,1-1.448,0V123.62a.724.724,0,0,0-1.448,0v27.331a1.1,1.1,0,0,1-2.2,0v-14.1a.724.724,0,0,0-.724-.724h-2.9a.724.724,0,0,0-.724.724v14.1a1.1,1.1,0,0,1-2.2,0V127.965a.724.724,0,0,0-1.448,0v8.883A.725.725,0,0,1,9.413,137.573Zm0,0" transform="translate(0 -108.414)"/>
      <path id="Trazado_177453" data-name="Trazado 177453" d="M105.724,152.9a.724.724,0,0,0,.724-.724v-1.448a.724.724,0,1,0-1.448,0v1.448A.724.724,0,0,0,105.724,152.9Zm0,0" transform="translate(-94.863 -135.518)"/>
      <path id="Trazado_177454" data-name="Trazado 177454" d="M118.233,10.137a5.069,5.069,0,1,0-5.069-5.069A5.075,5.075,0,0,0,118.233,10.137Zm0-8.689a3.62,3.62,0,1,1-3.62,3.62A3.625,3.625,0,0,1,118.233,1.448Zm0,0" transform="translate(-102.239)"/>
    </g>
    <g id="persona-2" data-name="persona" transform="translate(-6372.327 8257.452)">
      <path id="Trazado_177445-2" data-name="Trazado 177445" d="M251.064,414.5h-2.9v4.345l4.345,4.345h2.9Zm0,0" transform="translate(-224.208 -374.482)" fill="#adf5ff"/>
      <path id="Trazado_177446-2" data-name="Trazado 177446" d="M11.845,414.5,7.5,423.189H35.08L30.736,414.5Zm0,0" transform="translate(-6.776 -374.482)" fill="#acfcff"/>
      <path id="Trazado_177447-2" data-name="Trazado 177447" d="M191.064,127.5h-2.9l2.9,16.173a1.449,1.449,0,0,0,2.9,0V130.4A2.9,2.9,0,0,0,191.064,127.5Zm0,0" transform="translate(-170.001 -115.19)" fill="#f0f0f0"/>
      <path id="Trazado_177448-2" data-name="Trazado 177448" d="M85.4,127.5h2.9l-2.9,16.124a1.448,1.448,0,0,1-2.9,0V130.4A2.9,2.9,0,0,1,85.4,127.5Zm0,0" transform="translate(-74.535 -115.19)" fill="#f0f0f0"/>
      <path id="Trazado_177449-2" data-name="Trazado 177449" d="M122.7,130.4a2.9,2.9,0,0,0-2.9-2.9H115.4a2.9,2.9,0,0,0-2.9,2.9v27.331a1.826,1.826,0,0,0,3.653,0v-14.1h2.9v14.1a1.826,1.826,0,0,0,3.653,0Zm0,0" transform="translate(-101.639 -115.19)" fill="#c1c1c1"/>
      <path id="Trazado_177450-2" data-name="Trazado 177450" d="M165.664,7.5v8.689a4.345,4.345,0,1,0,0-8.689Zm0,0" transform="translate(-149.67 -6.776)" fill="#f0f0f0"/>
      <path id="Trazado_177451-2" data-name="Trazado 177451" d="M126.457,11.845c0-2.4-.649-4.345-1.448-4.345a4.345,4.345,0,1,0,0,8.689C125.808,16.189,126.457,14.244,126.457,11.845Zm0,0" transform="translate(-109.014 -6.776)" fill="#c1c1c1"/>
      <path id="Trazado_177452-2" data-name="Trazado 177452" d="M31.848,156.8,27.5,148.109a.724.724,0,0,0-.648-.4h-2.9a.724.724,0,1,0,0,1.448h2.449l3.62,7.241H1.9l3.62-7.241h4.621v1.794a2.551,2.551,0,0,0,5.1,0v-1.763h1.448v1.763a2.55,2.55,0,0,0,5.1,0V138.9a2.269,2.269,0,0,0,.724.117,2.126,2.126,0,0,0,2.172-2.124V123.62a3.624,3.624,0,0,0-3.62-3.62h-10.2a3.625,3.625,0,0,0-3.62,3.62v13.228a2.172,2.172,0,0,0,2.9,2.048v8.812H5.069a.724.724,0,0,0-.648.4L.077,156.8a.724.724,0,0,0,.648,1.048H31.2a.724.724,0,0,0,.648-1.048Zm-16.61-9.058V137.573h1.448V147.74ZM9.413,137.573a.725.725,0,0,1-.724-.724V123.62a2.175,2.175,0,0,1,2.172-2.172h10.2a2.175,2.175,0,0,1,2.172,2.172V136.9a.726.726,0,0,1-1.448,0V123.62a.724.724,0,0,0-1.448,0v27.331a1.1,1.1,0,0,1-2.2,0v-14.1a.724.724,0,0,0-.724-.724h-2.9a.724.724,0,0,0-.724.724v14.1a1.1,1.1,0,0,1-2.2,0V127.965a.724.724,0,0,0-1.448,0v8.883A.725.725,0,0,1,9.413,137.573Zm0,0" transform="translate(0 -108.414)"/>
      <path id="Trazado_177453-2" data-name="Trazado 177453" d="M105.724,152.9a.724.724,0,0,0,.724-.724v-1.448a.724.724,0,1,0-1.448,0v1.448A.724.724,0,0,0,105.724,152.9Zm0,0" transform="translate(-94.863 -135.518)"/>
      <path id="Trazado_177454-2" data-name="Trazado 177454" d="M118.233,10.137a5.069,5.069,0,1,0-5.069-5.069A5.075,5.075,0,0,0,118.233,10.137Zm0-8.689a3.62,3.62,0,1,1-3.62,3.62A3.625,3.625,0,0,1,118.233,1.448Zm0,0" transform="translate(-102.239)"/>
    </g>
    <g id="persona-3" data-name="persona" transform="translate(-6330.053 8257.452)">
      <path id="Trazado_177445-3" data-name="Trazado 177445" d="M251.064,414.5h-2.9v4.345l4.345,4.345h2.9Zm0,0" transform="translate(-224.208 -374.482)" fill="#adf5ff"/>
      <path id="Trazado_177446-3" data-name="Trazado 177446" d="M11.845,414.5,7.5,423.189H35.08L30.736,414.5Zm0,0" transform="translate(-6.776 -374.482)" fill="#acfcff"/>
      <path id="Trazado_177447-3" data-name="Trazado 177447" d="M191.064,127.5h-2.9l2.9,16.173a1.449,1.449,0,0,0,2.9,0V130.4A2.9,2.9,0,0,0,191.064,127.5Zm0,0" transform="translate(-170.001 -115.19)" fill="#f0f0f0"/>
      <path id="Trazado_177448-3" data-name="Trazado 177448" d="M85.4,127.5h2.9l-2.9,16.124a1.448,1.448,0,0,1-2.9,0V130.4A2.9,2.9,0,0,1,85.4,127.5Zm0,0" transform="translate(-74.535 -115.19)" fill="#f0f0f0"/>
      <path id="Trazado_177449-3" data-name="Trazado 177449" d="M122.7,130.4a2.9,2.9,0,0,0-2.9-2.9H115.4a2.9,2.9,0,0,0-2.9,2.9v27.331a1.826,1.826,0,0,0,3.653,0v-14.1h2.9v14.1a1.826,1.826,0,0,0,3.653,0Zm0,0" transform="translate(-101.639 -115.19)" fill="#c1c1c1"/>
      <path id="Trazado_177450-3" data-name="Trazado 177450" d="M165.664,7.5v8.689a4.345,4.345,0,1,0,0-8.689Zm0,0" transform="translate(-149.67 -6.776)" fill="#f0f0f0"/>
      <path id="Trazado_177451-3" data-name="Trazado 177451" d="M126.457,11.845c0-2.4-.649-4.345-1.448-4.345a4.345,4.345,0,1,0,0,8.689C125.808,16.189,126.457,14.244,126.457,11.845Zm0,0" transform="translate(-109.014 -6.776)" fill="#c1c1c1"/>
      <path id="Trazado_177452-3" data-name="Trazado 177452" d="M31.848,156.8,27.5,148.109a.724.724,0,0,0-.648-.4h-2.9a.724.724,0,1,0,0,1.448h2.449l3.62,7.241H1.9l3.62-7.241h4.621v1.794a2.551,2.551,0,0,0,5.1,0v-1.763h1.448v1.763a2.55,2.55,0,0,0,5.1,0V138.9a2.269,2.269,0,0,0,.724.117,2.126,2.126,0,0,0,2.172-2.124V123.62a3.624,3.624,0,0,0-3.62-3.62h-10.2a3.625,3.625,0,0,0-3.62,3.62v13.228a2.172,2.172,0,0,0,2.9,2.048v8.812H5.069a.724.724,0,0,0-.648.4L.077,156.8a.724.724,0,0,0,.648,1.048H31.2a.724.724,0,0,0,.648-1.048Zm-16.61-9.058V137.573h1.448V147.74ZM9.413,137.573a.725.725,0,0,1-.724-.724V123.62a2.175,2.175,0,0,1,2.172-2.172h10.2a2.175,2.175,0,0,1,2.172,2.172V136.9a.726.726,0,0,1-1.448,0V123.62a.724.724,0,0,0-1.448,0v27.331a1.1,1.1,0,0,1-2.2,0v-14.1a.724.724,0,0,0-.724-.724h-2.9a.724.724,0,0,0-.724.724v14.1a1.1,1.1,0,0,1-2.2,0V127.965a.724.724,0,0,0-1.448,0v8.883A.725.725,0,0,1,9.413,137.573Zm0,0" transform="translate(0 -108.414)"/>
      <path id="Trazado_177453-3" data-name="Trazado 177453" d="M105.724,152.9a.724.724,0,0,0,.724-.724v-1.448a.724.724,0,1,0-1.448,0v1.448A.724.724,0,0,0,105.724,152.9Zm0,0" transform="translate(-94.863 -135.518)"/>
      <path id="Trazado_177454-3" data-name="Trazado 177454" d="M118.233,10.137a5.069,5.069,0,1,0-5.069-5.069A5.075,5.075,0,0,0,118.233,10.137Zm0-8.689a3.62,3.62,0,1,1-3.62,3.62A3.625,3.625,0,0,1,118.233,1.448Zm0,0" transform="translate(-102.239)"/>
    </g>
    <g id="persona-4" data-name="persona" transform="translate(-6287.779 8257.452)">
      <path id="Trazado_177445-4" data-name="Trazado 177445" d="M251.064,414.5h-2.9v4.345l4.345,4.345h2.9Zm0,0" transform="translate(-224.208 -374.482)" fill="#adf5ff"/>
      <path id="Trazado_177446-4" data-name="Trazado 177446" d="M11.845,414.5,7.5,423.189H35.08L30.736,414.5Zm0,0" transform="translate(-6.776 -374.482)" fill="#acfcff"/>
      <path id="Trazado_177447-4" data-name="Trazado 177447" d="M191.064,127.5h-2.9l2.9,16.173a1.449,1.449,0,0,0,2.9,0V130.4A2.9,2.9,0,0,0,191.064,127.5Zm0,0" transform="translate(-170.001 -115.19)" fill="#f0f0f0"/>
      <path id="Trazado_177448-4" data-name="Trazado 177448" d="M85.4,127.5h2.9l-2.9,16.124a1.448,1.448,0,0,1-2.9,0V130.4A2.9,2.9,0,0,1,85.4,127.5Zm0,0" transform="translate(-74.535 -115.19)" fill="#f0f0f0"/>
      <path id="Trazado_177449-4" data-name="Trazado 177449" d="M122.7,130.4a2.9,2.9,0,0,0-2.9-2.9H115.4a2.9,2.9,0,0,0-2.9,2.9v27.331a1.826,1.826,0,0,0,3.653,0v-14.1h2.9v14.1a1.826,1.826,0,0,0,3.653,0Zm0,0" transform="translate(-101.639 -115.19)" fill="#c1c1c1"/>
      <path id="Trazado_177450-4" data-name="Trazado 177450" d="M165.664,7.5v8.689a4.345,4.345,0,1,0,0-8.689Zm0,0" transform="translate(-149.67 -6.776)" fill="#f0f0f0"/>
      <path id="Trazado_177451-4" data-name="Trazado 177451" d="M126.457,11.845c0-2.4-.649-4.345-1.448-4.345a4.345,4.345,0,1,0,0,8.689C125.808,16.189,126.457,14.244,126.457,11.845Zm0,0" transform="translate(-109.014 -6.776)" fill="#c1c1c1"/>
      <path id="Trazado_177452-4" data-name="Trazado 177452" d="M31.848,156.8,27.5,148.109a.724.724,0,0,0-.648-.4h-2.9a.724.724,0,1,0,0,1.448h2.449l3.62,7.241H1.9l3.62-7.241h4.621v1.794a2.551,2.551,0,0,0,5.1,0v-1.763h1.448v1.763a2.55,2.55,0,0,0,5.1,0V138.9a2.269,2.269,0,0,0,.724.117,2.126,2.126,0,0,0,2.172-2.124V123.62a3.624,3.624,0,0,0-3.62-3.62h-10.2a3.625,3.625,0,0,0-3.62,3.62v13.228a2.172,2.172,0,0,0,2.9,2.048v8.812H5.069a.724.724,0,0,0-.648.4L.077,156.8a.724.724,0,0,0,.648,1.048H31.2a.724.724,0,0,0,.648-1.048Zm-16.61-9.058V137.573h1.448V147.74ZM9.413,137.573a.725.725,0,0,1-.724-.724V123.62a2.175,2.175,0,0,1,2.172-2.172h10.2a2.175,2.175,0,0,1,2.172,2.172V136.9a.726.726,0,0,1-1.448,0V123.62a.724.724,0,0,0-1.448,0v27.331a1.1,1.1,0,0,1-2.2,0v-14.1a.724.724,0,0,0-.724-.724h-2.9a.724.724,0,0,0-.724.724v14.1a1.1,1.1,0,0,1-2.2,0V127.965a.724.724,0,0,0-1.448,0v8.883A.725.725,0,0,1,9.413,137.573Zm0,0" transform="translate(0 -108.414)"/>
      <path id="Trazado_177453-4" data-name="Trazado 177453" d="M105.724,152.9a.724.724,0,0,0,.724-.724v-1.448a.724.724,0,1,0-1.448,0v1.448A.724.724,0,0,0,105.724,152.9Zm0,0" transform="translate(-94.863 -135.518)"/>
      <path id="Trazado_177454-4" data-name="Trazado 177454" d="M118.233,10.137a5.069,5.069,0,1,0-5.069-5.069A5.075,5.075,0,0,0,118.233,10.137Zm0-8.689a3.62,3.62,0,1,1-3.62,3.62A3.625,3.625,0,0,1,118.233,1.448Zm0,0" transform="translate(-102.239)"/>
    </g>
    <g id="persona-5" data-name="persona" transform="translate(-6245.505 8257.452)">
      <path id="Trazado_177445-5" data-name="Trazado 177445" d="M251.064,414.5h-2.9v4.345l4.345,4.345h2.9Zm0,0" transform="translate(-224.208 -374.482)" fill="#adf5ff"/>
      <path id="Trazado_177446-5" data-name="Trazado 177446" d="M11.845,414.5,7.5,423.189H35.08L30.736,414.5Zm0,0" transform="translate(-6.776 -374.482)" fill="#acfcff"/>
      <path id="Trazado_177447-5" data-name="Trazado 177447" d="M191.064,127.5h-2.9l2.9,16.173a1.449,1.449,0,0,0,2.9,0V130.4A2.9,2.9,0,0,0,191.064,127.5Zm0,0" transform="translate(-170.001 -115.19)" fill="#f0f0f0"/>
      <path id="Trazado_177448-5" data-name="Trazado 177448" d="M85.4,127.5h2.9l-2.9,16.124a1.448,1.448,0,0,1-2.9,0V130.4A2.9,2.9,0,0,1,85.4,127.5Zm0,0" transform="translate(-74.535 -115.19)" fill="#f0f0f0"/>
      <path id="Trazado_177449-5" data-name="Trazado 177449" d="M122.7,130.4a2.9,2.9,0,0,0-2.9-2.9H115.4a2.9,2.9,0,0,0-2.9,2.9v27.331a1.826,1.826,0,0,0,3.653,0v-14.1h2.9v14.1a1.826,1.826,0,0,0,3.653,0Zm0,0" transform="translate(-101.639 -115.19)" fill="#c1c1c1"/>
      <path id="Trazado_177450-5" data-name="Trazado 177450" d="M165.664,7.5v8.689a4.345,4.345,0,1,0,0-8.689Zm0,0" transform="translate(-149.67 -6.776)" fill="#f0f0f0"/>
      <path id="Trazado_177451-5" data-name="Trazado 177451" d="M126.457,11.845c0-2.4-.649-4.345-1.448-4.345a4.345,4.345,0,1,0,0,8.689C125.808,16.189,126.457,14.244,126.457,11.845Zm0,0" transform="translate(-109.014 -6.776)" fill="#c1c1c1"/>
      <path id="Trazado_177452-5" data-name="Trazado 177452" d="M31.848,156.8,27.5,148.109a.724.724,0,0,0-.648-.4h-2.9a.724.724,0,1,0,0,1.448h2.449l3.62,7.241H1.9l3.62-7.241h4.621v1.794a2.551,2.551,0,0,0,5.1,0v-1.763h1.448v1.763a2.55,2.55,0,0,0,5.1,0V138.9a2.269,2.269,0,0,0,.724.117,2.126,2.126,0,0,0,2.172-2.124V123.62a3.624,3.624,0,0,0-3.62-3.62h-10.2a3.625,3.625,0,0,0-3.62,3.62v13.228a2.172,2.172,0,0,0,2.9,2.048v8.812H5.069a.724.724,0,0,0-.648.4L.077,156.8a.724.724,0,0,0,.648,1.048H31.2a.724.724,0,0,0,.648-1.048Zm-16.61-9.058V137.573h1.448V147.74ZM9.413,137.573a.725.725,0,0,1-.724-.724V123.62a2.175,2.175,0,0,1,2.172-2.172h10.2a2.175,2.175,0,0,1,2.172,2.172V136.9a.726.726,0,0,1-1.448,0V123.62a.724.724,0,0,0-1.448,0v27.331a1.1,1.1,0,0,1-2.2,0v-14.1a.724.724,0,0,0-.724-.724h-2.9a.724.724,0,0,0-.724.724v14.1a1.1,1.1,0,0,1-2.2,0V127.965a.724.724,0,0,0-1.448,0v8.883A.725.725,0,0,1,9.413,137.573Zm0,0" transform="translate(0 -108.414)"/>
      <path id="Trazado_177453-5" data-name="Trazado 177453" d="M105.724,152.9a.724.724,0,0,0,.724-.724v-1.448a.724.724,0,1,0-1.448,0v1.448A.724.724,0,0,0,105.724,152.9Zm0,0" transform="translate(-94.863 -135.518)"/>
      <path id="Trazado_177454-5" data-name="Trazado 177454" d="M118.233,10.137a5.069,5.069,0,1,0-5.069-5.069A5.075,5.075,0,0,0,118.233,10.137Zm0-8.689a3.62,3.62,0,1,1-3.62,3.62A3.625,3.625,0,0,1,118.233,1.448Zm0,0" transform="translate(-102.239)"/>
    </g>
    <g id="persona-6" data-name="persona" transform="translate(-6203.231 8257.452)">
      <path id="Trazado_177445-6" data-name="Trazado 177445" d="M251.064,414.5h-2.9v4.345l4.345,4.345h2.9Zm0,0" transform="translate(-224.208 -374.482)" fill="#adf5ff"/>
      <path id="Trazado_177446-6" data-name="Trazado 177446" d="M11.845,414.5,7.5,423.189H35.08L30.736,414.5Zm0,0" transform="translate(-6.776 -374.482)" fill="#acfcff"/>
      <path id="Trazado_177447-6" data-name="Trazado 177447" d="M191.064,127.5h-2.9l2.9,16.173a1.449,1.449,0,0,0,2.9,0V130.4A2.9,2.9,0,0,0,191.064,127.5Zm0,0" transform="translate(-170.001 -115.19)" fill="#f0f0f0"/>
      <path id="Trazado_177448-6" data-name="Trazado 177448" d="M85.4,127.5h2.9l-2.9,16.124a1.448,1.448,0,0,1-2.9,0V130.4A2.9,2.9,0,0,1,85.4,127.5Zm0,0" transform="translate(-74.535 -115.19)" fill="#f0f0f0"/>
      <path id="Trazado_177449-6" data-name="Trazado 177449" d="M122.7,130.4a2.9,2.9,0,0,0-2.9-2.9H115.4a2.9,2.9,0,0,0-2.9,2.9v27.331a1.826,1.826,0,0,0,3.653,0v-14.1h2.9v14.1a1.826,1.826,0,0,0,3.653,0Zm0,0" transform="translate(-101.639 -115.19)" fill="#c1c1c1"/>
      <path id="Trazado_177450-6" data-name="Trazado 177450" d="M165.664,7.5v8.689a4.345,4.345,0,1,0,0-8.689Zm0,0" transform="translate(-149.67 -6.776)" fill="#f0f0f0"/>
      <path id="Trazado_177451-6" data-name="Trazado 177451" d="M126.457,11.845c0-2.4-.649-4.345-1.448-4.345a4.345,4.345,0,1,0,0,8.689C125.808,16.189,126.457,14.244,126.457,11.845Zm0,0" transform="translate(-109.014 -6.776)" fill="#c1c1c1"/>
      <path id="Trazado_177452-6" data-name="Trazado 177452" d="M31.848,156.8,27.5,148.109a.724.724,0,0,0-.648-.4h-2.9a.724.724,0,1,0,0,1.448h2.449l3.62,7.241H1.9l3.62-7.241h4.621v1.794a2.551,2.551,0,0,0,5.1,0v-1.763h1.448v1.763a2.55,2.55,0,0,0,5.1,0V138.9a2.269,2.269,0,0,0,.724.117,2.126,2.126,0,0,0,2.172-2.124V123.62a3.624,3.624,0,0,0-3.62-3.62h-10.2a3.625,3.625,0,0,0-3.62,3.62v13.228a2.172,2.172,0,0,0,2.9,2.048v8.812H5.069a.724.724,0,0,0-.648.4L.077,156.8a.724.724,0,0,0,.648,1.048H31.2a.724.724,0,0,0,.648-1.048Zm-16.61-9.058V137.573h1.448V147.74ZM9.413,137.573a.725.725,0,0,1-.724-.724V123.62a2.175,2.175,0,0,1,2.172-2.172h10.2a2.175,2.175,0,0,1,2.172,2.172V136.9a.726.726,0,0,1-1.448,0V123.62a.724.724,0,0,0-1.448,0v27.331a1.1,1.1,0,0,1-2.2,0v-14.1a.724.724,0,0,0-.724-.724h-2.9a.724.724,0,0,0-.724.724v14.1a1.1,1.1,0,0,1-2.2,0V127.965a.724.724,0,0,0-1.448,0v8.883A.725.725,0,0,1,9.413,137.573Zm0,0" transform="translate(0 -108.414)"/>
      <path id="Trazado_177453-6" data-name="Trazado 177453" d="M105.724,152.9a.724.724,0,0,0,.724-.724v-1.448a.724.724,0,1,0-1.448,0v1.448A.724.724,0,0,0,105.724,152.9Zm0,0" transform="translate(-94.863 -135.518)"/>
      <path id="Trazado_177454-6" data-name="Trazado 177454" d="M118.233,10.137a5.069,5.069,0,1,0-5.069-5.069A5.075,5.075,0,0,0,118.233,10.137Zm0-8.689a3.62,3.62,0,1,1-3.62,3.62A3.625,3.625,0,0,1,118.233,1.448Zm0,0" transform="translate(-102.239)"/>
    </g>
    <g id="persona-7" data-name="persona" transform="translate(-6160.957 8257.452)">
      <path id="Trazado_177445-7" data-name="Trazado 177445" d="M251.064,414.5h-2.9v4.345l4.345,4.345h2.9Zm0,0" transform="translate(-224.208 -374.482)" fill="#adf5ff"/>
      <path id="Trazado_177446-7" data-name="Trazado 177446" d="M11.845,414.5,7.5,423.189H35.08L30.736,414.5Zm0,0" transform="translate(-6.776 -374.482)" fill="#acfcff"/>
      <path id="Trazado_177447-7" data-name="Trazado 177447" d="M191.064,127.5h-2.9l2.9,16.173a1.449,1.449,0,0,0,2.9,0V130.4A2.9,2.9,0,0,0,191.064,127.5Zm0,0" transform="translate(-170.001 -115.19)" fill="#f0f0f0"/>
      <path id="Trazado_177448-7" data-name="Trazado 177448" d="M85.4,127.5h2.9l-2.9,16.124a1.448,1.448,0,0,1-2.9,0V130.4A2.9,2.9,0,0,1,85.4,127.5Zm0,0" transform="translate(-74.535 -115.19)" fill="#f0f0f0"/>
      <path id="Trazado_177449-7" data-name="Trazado 177449" d="M122.7,130.4a2.9,2.9,0,0,0-2.9-2.9H115.4a2.9,2.9,0,0,0-2.9,2.9v27.331a1.826,1.826,0,0,0,3.653,0v-14.1h2.9v14.1a1.826,1.826,0,0,0,3.653,0Zm0,0" transform="translate(-101.639 -115.19)" fill="#c1c1c1"/>
      <path id="Trazado_177450-7" data-name="Trazado 177450" d="M165.664,7.5v8.689a4.345,4.345,0,1,0,0-8.689Zm0,0" transform="translate(-149.67 -6.776)" fill="#f0f0f0"/>
      <path id="Trazado_177451-7" data-name="Trazado 177451" d="M126.457,11.845c0-2.4-.649-4.345-1.448-4.345a4.345,4.345,0,1,0,0,8.689C125.808,16.189,126.457,14.244,126.457,11.845Zm0,0" transform="translate(-109.014 -6.776)" fill="#c1c1c1"/>
      <path id="Trazado_177452-7" data-name="Trazado 177452" d="M31.848,156.8,27.5,148.109a.724.724,0,0,0-.648-.4h-2.9a.724.724,0,1,0,0,1.448h2.449l3.62,7.241H1.9l3.62-7.241h4.621v1.794a2.551,2.551,0,0,0,5.1,0v-1.763h1.448v1.763a2.55,2.55,0,0,0,5.1,0V138.9a2.269,2.269,0,0,0,.724.117,2.126,2.126,0,0,0,2.172-2.124V123.62a3.624,3.624,0,0,0-3.62-3.62h-10.2a3.625,3.625,0,0,0-3.62,3.62v13.228a2.172,2.172,0,0,0,2.9,2.048v8.812H5.069a.724.724,0,0,0-.648.4L.077,156.8a.724.724,0,0,0,.648,1.048H31.2a.724.724,0,0,0,.648-1.048Zm-16.61-9.058V137.573h1.448V147.74ZM9.413,137.573a.725.725,0,0,1-.724-.724V123.62a2.175,2.175,0,0,1,2.172-2.172h10.2a2.175,2.175,0,0,1,2.172,2.172V136.9a.726.726,0,0,1-1.448,0V123.62a.724.724,0,0,0-1.448,0v27.331a1.1,1.1,0,0,1-2.2,0v-14.1a.724.724,0,0,0-.724-.724h-2.9a.724.724,0,0,0-.724.724v14.1a1.1,1.1,0,0,1-2.2,0V127.965a.724.724,0,0,0-1.448,0v8.883A.725.725,0,0,1,9.413,137.573Zm0,0" transform="translate(0 -108.414)"/>
      <path id="Trazado_177453-7" data-name="Trazado 177453" d="M105.724,152.9a.724.724,0,0,0,.724-.724v-1.448a.724.724,0,1,0-1.448,0v1.448A.724.724,0,0,0,105.724,152.9Zm0,0" transform="translate(-94.863 -135.518)"/>
      <path id="Trazado_177454-7" data-name="Trazado 177454" d="M118.233,10.137a5.069,5.069,0,1,0-5.069-5.069A5.075,5.075,0,0,0,118.233,10.137Zm0-8.689a3.62,3.62,0,1,1-3.62,3.62A3.625,3.625,0,0,1,118.233,1.448Zm0,0" transform="translate(-102.239)"/>
    </g>
    <g id="persona-8" data-name="persona" transform="translate(-6118.683 8257.452)">
      <path id="Trazado_177445-8" data-name="Trazado 177445" d="M251.064,414.5h-2.9v4.345l4.345,4.345h2.9Zm0,0" transform="translate(-224.208 -374.482)" fill="#adf5ff"/>
      <path id="Trazado_177446-8" data-name="Trazado 177446" d="M11.845,414.5,7.5,423.189H35.08L30.736,414.5Zm0,0" transform="translate(-6.776 -374.482)" fill="#acfcff"/>
      <path id="Trazado_177447-8" data-name="Trazado 177447" d="M191.064,127.5h-2.9l2.9,16.173a1.449,1.449,0,0,0,2.9,0V130.4A2.9,2.9,0,0,0,191.064,127.5Zm0,0" transform="translate(-170.001 -115.19)" fill="#f0f0f0"/>
      <path id="Trazado_177448-8" data-name="Trazado 177448" d="M85.4,127.5h2.9l-2.9,16.124a1.448,1.448,0,0,1-2.9,0V130.4A2.9,2.9,0,0,1,85.4,127.5Zm0,0" transform="translate(-74.535 -115.19)" fill="#f0f0f0"/>
      <path id="Trazado_177449-8" data-name="Trazado 177449" d="M122.7,130.4a2.9,2.9,0,0,0-2.9-2.9H115.4a2.9,2.9,0,0,0-2.9,2.9v27.331a1.826,1.826,0,0,0,3.653,0v-14.1h2.9v14.1a1.826,1.826,0,0,0,3.653,0Zm0,0" transform="translate(-101.639 -115.19)" fill="#c1c1c1"/>
      <path id="Trazado_177450-8" data-name="Trazado 177450" d="M165.664,7.5v8.689a4.345,4.345,0,1,0,0-8.689Zm0,0" transform="translate(-149.67 -6.776)" fill="#f0f0f0"/>
      <path id="Trazado_177451-8" data-name="Trazado 177451" d="M126.457,11.845c0-2.4-.649-4.345-1.448-4.345a4.345,4.345,0,1,0,0,8.689C125.808,16.189,126.457,14.244,126.457,11.845Zm0,0" transform="translate(-109.014 -6.776)" fill="#c1c1c1"/>
      <path id="Trazado_177452-8" data-name="Trazado 177452" d="M31.848,156.8,27.5,148.109a.724.724,0,0,0-.648-.4h-2.9a.724.724,0,1,0,0,1.448h2.449l3.62,7.241H1.9l3.62-7.241h4.621v1.794a2.551,2.551,0,0,0,5.1,0v-1.763h1.448v1.763a2.55,2.55,0,0,0,5.1,0V138.9a2.269,2.269,0,0,0,.724.117,2.126,2.126,0,0,0,2.172-2.124V123.62a3.624,3.624,0,0,0-3.62-3.62h-10.2a3.625,3.625,0,0,0-3.62,3.62v13.228a2.172,2.172,0,0,0,2.9,2.048v8.812H5.069a.724.724,0,0,0-.648.4L.077,156.8a.724.724,0,0,0,.648,1.048H31.2a.724.724,0,0,0,.648-1.048Zm-16.61-9.058V137.573h1.448V147.74ZM9.413,137.573a.725.725,0,0,1-.724-.724V123.62a2.175,2.175,0,0,1,2.172-2.172h10.2a2.175,2.175,0,0,1,2.172,2.172V136.9a.726.726,0,0,1-1.448,0V123.62a.724.724,0,0,0-1.448,0v27.331a1.1,1.1,0,0,1-2.2,0v-14.1a.724.724,0,0,0-.724-.724h-2.9a.724.724,0,0,0-.724.724v14.1a1.1,1.1,0,0,1-2.2,0V127.965a.724.724,0,0,0-1.448,0v8.883A.725.725,0,0,1,9.413,137.573Zm0,0" transform="translate(0 -108.414)"/>
      <path id="Trazado_177453-8" data-name="Trazado 177453" d="M105.724,152.9a.724.724,0,0,0,.724-.724v-1.448a.724.724,0,1,0-1.448,0v1.448A.724.724,0,0,0,105.724,152.9Zm0,0" transform="translate(-94.863 -135.518)"/>
      <path id="Trazado_177454-8" data-name="Trazado 177454" d="M118.233,10.137a5.069,5.069,0,1,0-5.069-5.069A5.075,5.075,0,0,0,118.233,10.137Zm0-8.689a3.62,3.62,0,1,1-3.62,3.62A3.625,3.625,0,0,1,118.233,1.448Zm0,0" transform="translate(-102.239)"/>
    </g>
    <g id="persona-9" data-name="persona" transform="translate(-6076.409 8257.452)">
      <path id="Trazado_177445-9" data-name="Trazado 177445" d="M251.064,414.5h-2.9v4.345l4.345,4.345h2.9Zm0,0" transform="translate(-224.208 -374.482)" fill="#adf5ff"/>
      <path id="Trazado_177446-9" data-name="Trazado 177446" d="M11.845,414.5,7.5,423.189H35.08L30.736,414.5Zm0,0" transform="translate(-6.776 -374.482)" fill="#acfcff"/>
      <path id="Trazado_177447-9" data-name="Trazado 177447" d="M191.064,127.5h-2.9l2.9,16.173a1.449,1.449,0,0,0,2.9,0V130.4A2.9,2.9,0,0,0,191.064,127.5Zm0,0" transform="translate(-170.001 -115.19)" fill="#f0f0f0"/>
      <path id="Trazado_177448-9" data-name="Trazado 177448" d="M85.4,127.5h2.9l-2.9,16.124a1.448,1.448,0,0,1-2.9,0V130.4A2.9,2.9,0,0,1,85.4,127.5Zm0,0" transform="translate(-74.535 -115.19)" fill="#f0f0f0"/>
      <path id="Trazado_177449-9" data-name="Trazado 177449" d="M122.7,130.4a2.9,2.9,0,0,0-2.9-2.9H115.4a2.9,2.9,0,0,0-2.9,2.9v27.331a1.826,1.826,0,0,0,3.653,0v-14.1h2.9v14.1a1.826,1.826,0,0,0,3.653,0Zm0,0" transform="translate(-101.639 -115.19)" fill="#c1c1c1"/>
      <path id="Trazado_177450-9" data-name="Trazado 177450" d="M165.664,7.5v8.689a4.345,4.345,0,1,0,0-8.689Zm0,0" transform="translate(-149.67 -6.776)" fill="#f0f0f0"/>
      <path id="Trazado_177451-9" data-name="Trazado 177451" d="M126.457,11.845c0-2.4-.649-4.345-1.448-4.345a4.345,4.345,0,1,0,0,8.689C125.808,16.189,126.457,14.244,126.457,11.845Zm0,0" transform="translate(-109.014 -6.776)" fill="#c1c1c1"/>
      <path id="Trazado_177452-9" data-name="Trazado 177452" d="M31.848,156.8,27.5,148.109a.724.724,0,0,0-.648-.4h-2.9a.724.724,0,1,0,0,1.448h2.449l3.62,7.241H1.9l3.62-7.241h4.621v1.794a2.551,2.551,0,0,0,5.1,0v-1.763h1.448v1.763a2.55,2.55,0,0,0,5.1,0V138.9a2.269,2.269,0,0,0,.724.117,2.126,2.126,0,0,0,2.172-2.124V123.62a3.624,3.624,0,0,0-3.62-3.62h-10.2a3.625,3.625,0,0,0-3.62,3.62v13.228a2.172,2.172,0,0,0,2.9,2.048v8.812H5.069a.724.724,0,0,0-.648.4L.077,156.8a.724.724,0,0,0,.648,1.048H31.2a.724.724,0,0,0,.648-1.048Zm-16.61-9.058V137.573h1.448V147.74ZM9.413,137.573a.725.725,0,0,1-.724-.724V123.62a2.175,2.175,0,0,1,2.172-2.172h10.2a2.175,2.175,0,0,1,2.172,2.172V136.9a.726.726,0,0,1-1.448,0V123.62a.724.724,0,0,0-1.448,0v27.331a1.1,1.1,0,0,1-2.2,0v-14.1a.724.724,0,0,0-.724-.724h-2.9a.724.724,0,0,0-.724.724v14.1a1.1,1.1,0,0,1-2.2,0V127.965a.724.724,0,0,0-1.448,0v8.883A.725.725,0,0,1,9.413,137.573Zm0,0" transform="translate(0 -108.414)"/>
      <path id="Trazado_177453-9" data-name="Trazado 177453" d="M105.724,152.9a.724.724,0,0,0,.724-.724v-1.448a.724.724,0,1,0-1.448,0v1.448A.724.724,0,0,0,105.724,152.9Zm0,0" transform="translate(-94.863 -135.518)"/>
      <path id="Trazado_177454-9" data-name="Trazado 177454" d="M118.233,10.137a5.069,5.069,0,1,0-5.069-5.069A5.075,5.075,0,0,0,118.233,10.137Zm0-8.689a3.62,3.62,0,1,1-3.62,3.62A3.625,3.625,0,0,1,118.233,1.448Zm0,0" transform="translate(-102.239)"/>
    </g>
    <g id="persona-10" data-name="persona" transform="translate(-6287.779 8370.183)">
      <path id="Trazado_177445-10" data-name="Trazado 177445" d="M251.064,414.5h-2.9v4.345l4.345,4.345h2.9Zm0,0" transform="translate(-224.208 -374.482)" fill="#adf5ff"/>
      <path id="Trazado_177446-10" data-name="Trazado 177446" d="M11.845,414.5,7.5,423.189H35.08L30.736,414.5Zm0,0" transform="translate(-6.776 -374.482)" fill="#acfcff"/>
      <path id="Trazado_177447-10" data-name="Trazado 177447" d="M191.064,127.5h-2.9l2.9,16.173a1.449,1.449,0,0,0,2.9,0V130.4A2.9,2.9,0,0,0,191.064,127.5Zm0,0" transform="translate(-170.001 -115.19)" fill="#f0f0f0"/>
      <path id="Trazado_177448-10" data-name="Trazado 177448" d="M85.4,127.5h2.9l-2.9,16.124a1.448,1.448,0,0,1-2.9,0V130.4A2.9,2.9,0,0,1,85.4,127.5Zm0,0" transform="translate(-74.535 -115.19)" fill="#f0f0f0"/>
      <path id="Trazado_177449-10" data-name="Trazado 177449" d="M122.7,130.4a2.9,2.9,0,0,0-2.9-2.9H115.4a2.9,2.9,0,0,0-2.9,2.9v27.331a1.826,1.826,0,0,0,3.653,0v-14.1h2.9v14.1a1.826,1.826,0,0,0,3.653,0Zm0,0" transform="translate(-101.639 -115.19)" fill="#c1c1c1"/>
      <path id="Trazado_177450-10" data-name="Trazado 177450" d="M165.664,7.5v8.689a4.345,4.345,0,1,0,0-8.689Zm0,0" transform="translate(-149.67 -6.776)" fill="#f0f0f0"/>
      <path id="Trazado_177451-10" data-name="Trazado 177451" d="M126.457,11.845c0-2.4-.649-4.345-1.448-4.345a4.345,4.345,0,1,0,0,8.689C125.808,16.189,126.457,14.244,126.457,11.845Zm0,0" transform="translate(-109.014 -6.776)" fill="#c1c1c1"/>
      <path id="Trazado_177452-10" data-name="Trazado 177452" d="M31.848,156.8,27.5,148.109a.724.724,0,0,0-.648-.4h-2.9a.724.724,0,1,0,0,1.448h2.449l3.62,7.241H1.9l3.62-7.241h4.621v1.794a2.551,2.551,0,0,0,5.1,0v-1.763h1.448v1.763a2.55,2.55,0,0,0,5.1,0V138.9a2.269,2.269,0,0,0,.724.117,2.126,2.126,0,0,0,2.172-2.124V123.62a3.624,3.624,0,0,0-3.62-3.62h-10.2a3.625,3.625,0,0,0-3.62,3.62v13.228a2.172,2.172,0,0,0,2.9,2.048v8.812H5.069a.724.724,0,0,0-.648.4L.077,156.8a.724.724,0,0,0,.648,1.048H31.2a.724.724,0,0,0,.648-1.048Zm-16.61-9.058V137.573h1.448V147.74ZM9.413,137.573a.725.725,0,0,1-.724-.724V123.62a2.175,2.175,0,0,1,2.172-2.172h10.2a2.175,2.175,0,0,1,2.172,2.172V136.9a.726.726,0,0,1-1.448,0V123.62a.724.724,0,0,0-1.448,0v27.331a1.1,1.1,0,0,1-2.2,0v-14.1a.724.724,0,0,0-.724-.724h-2.9a.724.724,0,0,0-.724.724v14.1a1.1,1.1,0,0,1-2.2,0V127.965a.724.724,0,0,0-1.448,0v8.883A.725.725,0,0,1,9.413,137.573Zm0,0" transform="translate(0 -108.414)"/>
      <path id="Trazado_177453-10" data-name="Trazado 177453" d="M105.724,152.9a.724.724,0,0,0,.724-.724v-1.448a.724.724,0,1,0-1.448,0v1.448A.724.724,0,0,0,105.724,152.9Zm0,0" transform="translate(-94.863 -135.518)"/>
      <path id="Trazado_177454-10" data-name="Trazado 177454" d="M118.233,10.137a5.069,5.069,0,1,0-5.069-5.069A5.075,5.075,0,0,0,118.233,10.137Zm0-8.689a3.62,3.62,0,1,1-3.62,3.62A3.625,3.625,0,0,1,118.233,1.448Zm0,0" transform="translate(-102.239)"/>
    </g>
    <g id="persona-11" data-name="persona" transform="translate(-6245.505 8370.183)">
      <path id="Trazado_177445-11" data-name="Trazado 177445" d="M251.064,414.5h-2.9v4.345l4.345,4.345h2.9Zm0,0" transform="translate(-224.208 -374.482)" fill="#adf5ff"/>
      <path id="Trazado_177446-11" data-name="Trazado 177446" d="M11.845,414.5,7.5,423.189H35.08L30.736,414.5Zm0,0" transform="translate(-6.776 -374.482)" fill="#acfcff"/>
      <path id="Trazado_177447-11" data-name="Trazado 177447" d="M191.064,127.5h-2.9l2.9,16.173a1.449,1.449,0,0,0,2.9,0V130.4A2.9,2.9,0,0,0,191.064,127.5Zm0,0" transform="translate(-170.001 -115.19)" fill="#f0f0f0"/>
      <path id="Trazado_177448-11" data-name="Trazado 177448" d="M85.4,127.5h2.9l-2.9,16.124a1.448,1.448,0,0,1-2.9,0V130.4A2.9,2.9,0,0,1,85.4,127.5Zm0,0" transform="translate(-74.535 -115.19)" fill="#f0f0f0"/>
      <path id="Trazado_177449-11" data-name="Trazado 177449" d="M122.7,130.4a2.9,2.9,0,0,0-2.9-2.9H115.4a2.9,2.9,0,0,0-2.9,2.9v27.331a1.826,1.826,0,0,0,3.653,0v-14.1h2.9v14.1a1.826,1.826,0,0,0,3.653,0Zm0,0" transform="translate(-101.639 -115.19)" fill="#c1c1c1"/>
      <path id="Trazado_177450-11" data-name="Trazado 177450" d="M165.664,7.5v8.689a4.345,4.345,0,1,0,0-8.689Zm0,0" transform="translate(-149.67 -6.776)" fill="#f0f0f0"/>
      <path id="Trazado_177451-11" data-name="Trazado 177451" d="M126.457,11.845c0-2.4-.649-4.345-1.448-4.345a4.345,4.345,0,1,0,0,8.689C125.808,16.189,126.457,14.244,126.457,11.845Zm0,0" transform="translate(-109.014 -6.776)" fill="#c1c1c1"/>
      <path id="Trazado_177452-11" data-name="Trazado 177452" d="M31.848,156.8,27.5,148.109a.724.724,0,0,0-.648-.4h-2.9a.724.724,0,1,0,0,1.448h2.449l3.62,7.241H1.9l3.62-7.241h4.621v1.794a2.551,2.551,0,0,0,5.1,0v-1.763h1.448v1.763a2.55,2.55,0,0,0,5.1,0V138.9a2.269,2.269,0,0,0,.724.117,2.126,2.126,0,0,0,2.172-2.124V123.62a3.624,3.624,0,0,0-3.62-3.62h-10.2a3.625,3.625,0,0,0-3.62,3.62v13.228a2.172,2.172,0,0,0,2.9,2.048v8.812H5.069a.724.724,0,0,0-.648.4L.077,156.8a.724.724,0,0,0,.648,1.048H31.2a.724.724,0,0,0,.648-1.048Zm-16.61-9.058V137.573h1.448V147.74ZM9.413,137.573a.725.725,0,0,1-.724-.724V123.62a2.175,2.175,0,0,1,2.172-2.172h10.2a2.175,2.175,0,0,1,2.172,2.172V136.9a.726.726,0,0,1-1.448,0V123.62a.724.724,0,0,0-1.448,0v27.331a1.1,1.1,0,0,1-2.2,0v-14.1a.724.724,0,0,0-.724-.724h-2.9a.724.724,0,0,0-.724.724v14.1a1.1,1.1,0,0,1-2.2,0V127.965a.724.724,0,0,0-1.448,0v8.883A.725.725,0,0,1,9.413,137.573Zm0,0" transform="translate(0 -108.414)"/>
      <path id="Trazado_177453-11" data-name="Trazado 177453" d="M105.724,152.9a.724.724,0,0,0,.724-.724v-1.448a.724.724,0,1,0-1.448,0v1.448A.724.724,0,0,0,105.724,152.9Zm0,0" transform="translate(-94.863 -135.518)"/>
      <path id="Trazado_177454-11" data-name="Trazado 177454" d="M118.233,10.137a5.069,5.069,0,1,0-5.069-5.069A5.075,5.075,0,0,0,118.233,10.137Zm0-8.689a3.62,3.62,0,1,1-3.62,3.62A3.625,3.625,0,0,1,118.233,1.448Zm0,0" transform="translate(-102.239)"/>
    </g>
    <g id="persona-12" data-name="persona" transform="translate(-6203.231 8370.183)">
      <path id="Trazado_177445-12" data-name="Trazado 177445" d="M251.064,414.5h-2.9v4.345l4.345,4.345h2.9Zm0,0" transform="translate(-224.208 -374.482)" fill="#adf5ff"/>
      <path id="Trazado_177446-12" data-name="Trazado 177446" d="M11.845,414.5,7.5,423.189H35.08L30.736,414.5Zm0,0" transform="translate(-6.776 -374.482)" fill="#acfcff"/>
      <path id="Trazado_177447-12" data-name="Trazado 177447" d="M191.064,127.5h-2.9l2.9,16.173a1.449,1.449,0,0,0,2.9,0V130.4A2.9,2.9,0,0,0,191.064,127.5Zm0,0" transform="translate(-170.001 -115.19)" fill="#f0f0f0"/>
      <path id="Trazado_177448-12" data-name="Trazado 177448" d="M85.4,127.5h2.9l-2.9,16.124a1.448,1.448,0,0,1-2.9,0V130.4A2.9,2.9,0,0,1,85.4,127.5Zm0,0" transform="translate(-74.535 -115.19)" fill="#f0f0f0"/>
      <path id="Trazado_177449-12" data-name="Trazado 177449" d="M122.7,130.4a2.9,2.9,0,0,0-2.9-2.9H115.4a2.9,2.9,0,0,0-2.9,2.9v27.331a1.826,1.826,0,0,0,3.653,0v-14.1h2.9v14.1a1.826,1.826,0,0,0,3.653,0Zm0,0" transform="translate(-101.639 -115.19)" fill="#c1c1c1"/>
      <path id="Trazado_177450-12" data-name="Trazado 177450" d="M165.664,7.5v8.689a4.345,4.345,0,1,0,0-8.689Zm0,0" transform="translate(-149.67 -6.776)" fill="#f0f0f0"/>
      <path id="Trazado_177451-12" data-name="Trazado 177451" d="M126.457,11.845c0-2.4-.649-4.345-1.448-4.345a4.345,4.345,0,1,0,0,8.689C125.808,16.189,126.457,14.244,126.457,11.845Zm0,0" transform="translate(-109.014 -6.776)" fill="#c1c1c1"/>
      <path id="Trazado_177452-12" data-name="Trazado 177452" d="M31.848,156.8,27.5,148.109a.724.724,0,0,0-.648-.4h-2.9a.724.724,0,1,0,0,1.448h2.449l3.62,7.241H1.9l3.62-7.241h4.621v1.794a2.551,2.551,0,0,0,5.1,0v-1.763h1.448v1.763a2.55,2.55,0,0,0,5.1,0V138.9a2.269,2.269,0,0,0,.724.117,2.126,2.126,0,0,0,2.172-2.124V123.62a3.624,3.624,0,0,0-3.62-3.62h-10.2a3.625,3.625,0,0,0-3.62,3.62v13.228a2.172,2.172,0,0,0,2.9,2.048v8.812H5.069a.724.724,0,0,0-.648.4L.077,156.8a.724.724,0,0,0,.648,1.048H31.2a.724.724,0,0,0,.648-1.048Zm-16.61-9.058V137.573h1.448V147.74ZM9.413,137.573a.725.725,0,0,1-.724-.724V123.62a2.175,2.175,0,0,1,2.172-2.172h10.2a2.175,2.175,0,0,1,2.172,2.172V136.9a.726.726,0,0,1-1.448,0V123.62a.724.724,0,0,0-1.448,0v27.331a1.1,1.1,0,0,1-2.2,0v-14.1a.724.724,0,0,0-.724-.724h-2.9a.724.724,0,0,0-.724.724v14.1a1.1,1.1,0,0,1-2.2,0V127.965a.724.724,0,0,0-1.448,0v8.883A.725.725,0,0,1,9.413,137.573Zm0,0" transform="translate(0 -108.414)"/>
      <path id="Trazado_177453-12" data-name="Trazado 177453" d="M105.724,152.9a.724.724,0,0,0,.724-.724v-1.448a.724.724,0,1,0-1.448,0v1.448A.724.724,0,0,0,105.724,152.9Zm0,0" transform="translate(-94.863 -135.518)"/>
      <path id="Trazado_177454-12" data-name="Trazado 177454" d="M118.233,10.137a5.069,5.069,0,1,0-5.069-5.069A5.075,5.075,0,0,0,118.233,10.137Zm0-8.689a3.62,3.62,0,1,1-3.62,3.62A3.625,3.625,0,0,1,118.233,1.448Zm0,0" transform="translate(-102.239)"/>
    </g>
    <g id="Elipse_5112" data-name="Elipse 5112" transform="translate(-6410.373 8322.681)" fill="#ad84ff" stroke="#121212" stroke-width="1.5">
      <circle cx="11.156" cy="11.156" r="11.156" stroke="none"/>
      <circle cx="11.156" cy="11.156" r="10.406" fill="none"/>
    </g>
    <text id="_1" data-name="1" transform="translate(-6404.501 8340.854)" fill="#12263f" font-size="18" font-family="Roboto-Medium, Roboto" font-weight="500"><tspan x="0" y="0">1</tspan></text>
    <g id="Elipse_5113" data-name="Elipse 5113" transform="translate(-6368.099 8322.681)" fill="#ad84ff" stroke="#121212" stroke-width="1.5">
      <circle cx="11.156" cy="11.156" r="11.156" stroke="none"/>
      <circle cx="11.156" cy="11.156" r="10.406" fill="none"/>
    </g>
    <text id="_2" data-name="2" transform="translate(-6362.227 8340.854)" fill="#12263f" font-size="18" font-family="Roboto-Medium, Roboto" font-weight="500"><tspan x="0" y="0">2</tspan></text>
    <g id="Elipse_5114" data-name="Elipse 5114" transform="translate(-6325.825 8322.681)" fill="#ad84ff" stroke="#121212" stroke-width="1.5">
      <circle cx="11.156" cy="11.156" r="11.156" stroke="none"/>
      <circle cx="11.156" cy="11.156" r="10.406" fill="none"/>
    </g>
    <text id="_3" data-name="3" transform="translate(-6319.953 8340.854)" fill="#12263f" font-size="18" font-family="Roboto-Medium, Roboto" font-weight="500"><tspan x="0" y="0">3</tspan></text>
    <g id="Elipse_5115" data-name="Elipse 5115" transform="translate(-6283.551 8322.681)" fill="#ad84ff" stroke="#121212" stroke-width="1.5">
      <circle cx="11.156" cy="11.156" r="11.156" stroke="none"/>
      <circle cx="11.156" cy="11.156" r="10.406" fill="none"/>
    </g>
    <text id="_4" data-name="4" transform="translate(-6277.679 8340.854)" fill="#12263f" font-size="18" font-family="Roboto-Medium, Roboto" font-weight="500"><tspan x="0" y="0">4</tspan></text>
    <g id="Elipse_5116" data-name="Elipse 5116" transform="translate(-6241.277 8322.681)" fill="#ad84ff" stroke="#121212" stroke-width="1.5">
      <circle cx="11.156" cy="11.156" r="11.156" stroke="none"/>
      <circle cx="11.156" cy="11.156" r="10.406" fill="none"/>
    </g>
    <text id="_5" data-name="5" transform="translate(-6235.405 8340.854)" fill="#12263f" font-size="18" font-family="Roboto-Medium, Roboto" font-weight="500"><tspan x="0" y="0">5</tspan></text>
    <g id="Elipse_5117" data-name="Elipse 5117" transform="translate(-6195.48 8322.681)" fill="#ad84ff" stroke="#121212" stroke-width="1.5">
      <circle cx="11.156" cy="11.156" r="11.156" stroke="none"/>
      <circle cx="11.156" cy="11.156" r="10.406" fill="none"/>
    </g>
    <text id="_6" data-name="6" transform="translate(-6189.609 8340.854)" fill="#12263f" font-size="18" font-family="Roboto-Medium, Roboto" font-weight="500"><tspan x="0" y="0">6</tspan></text>
    <g id="Elipse_5118" data-name="Elipse 5118" transform="translate(-6153.206 8322.681)" fill="#ad84ff" stroke="#121212" stroke-width="1.5">
      <circle cx="11.156" cy="11.156" r="11.156" stroke="none"/>
      <circle cx="11.156" cy="11.156" r="10.406" fill="none"/>
    </g>
    <text id="_7" data-name="7" transform="translate(-6147.335 8340.854)" fill="#12263f" font-size="18" font-family="Roboto-Medium, Roboto" font-weight="500"><tspan x="0" y="0">7</tspan></text>
    <g id="Elipse_5119" data-name="Elipse 5119" transform="translate(-6110.932 8322.681)" fill="#ad84ff" stroke="#121212" stroke-width="1.5">
      <circle cx="11.156" cy="11.156" r="11.156" stroke="none"/>
      <circle cx="11.156" cy="11.156" r="10.406" fill="none"/>
    </g>
    <text id="_8" data-name="8" transform="translate(-6105.061 8340.854)" fill="#12263f" font-size="18" font-family="Roboto-Medium, Roboto" font-weight="500"><tspan x="0" y="0">8</tspan></text>
    <g id="Elipse_5120" data-name="Elipse 5120" transform="translate(-6072.181 8322.681)" fill="#ad84ff" stroke="#121212" stroke-width="1.5">
      <circle cx="11.156" cy="11.156" r="11.156" stroke="none"/>
      <circle cx="11.156" cy="11.156" r="10.406" fill="none"/>
    </g>
    <text id="_9" data-name="9" transform="translate(-6066.31 8340.854)" fill="#12263f" font-size="18" font-family="Roboto-Medium, Roboto" font-weight="500"><tspan x="0" y="0">9</tspan></text>
    <g id="Elipse_5121" data-name="Elipse 5121" transform="translate(-6283.551 8426.017)" fill="#acfcff" stroke="#121212" stroke-width="1.5">
      <circle cx="11.156" cy="11.156" r="11.156" stroke="none"/>
      <circle cx="11.156" cy="11.156" r="10.406" fill="none"/>
    </g>
    <text id="_3-2" data-name="3" transform="translate(-6277.679 8444.191)" fill="#12263f" font-size="18" font-family="Roboto-Medium, Roboto" font-weight="500"><tspan x="0" y="0">3</tspan></text>
    <g id="Elipse_5122" data-name="Elipse 5122" transform="translate(-6240.103 8426.017)" fill="#acfcff" stroke="#121212" stroke-width="1.5">
      <circle cx="11.156" cy="11.156" r="11.156" stroke="none"/>
      <circle cx="11.156" cy="11.156" r="10.406" fill="none"/>
    </g>
    <text id="_6-2" data-name="6" transform="translate(-6234.231 8444.191)" fill="#12263f" font-size="18" font-family="Roboto-Medium, Roboto" font-weight="500"><tspan x="0" y="0">6</tspan></text>
    <g id="Elipse_5123" data-name="Elipse 5123" transform="translate(-6196.654 8426.017)" fill="#acfcff" stroke="#121212" stroke-width="1.5">
      <circle cx="11.156" cy="11.156" r="11.156" stroke="none"/>
      <circle cx="11.156" cy="11.156" r="10.406" fill="none"/>
    </g>
    <text id="_9-2" data-name="9" transform="translate(-6190.783 8444.191)" fill="#12263f" font-size="18" font-family="Roboto-Medium, Roboto" font-weight="500"><tspan x="0" y="0">9</tspan></text>
    <g id="Grupo_165604" data-name="Grupo 165604" transform="translate(-6319.953 8353.688)">
      <path id="Trazado_177495" data-name="Trazado 177495" d="M-6331.866,8341.406s-17.87,31.659,14.182,48.408" transform="translate(6336.833 -8341.406)" fill="none" stroke="#333131" stroke-width="1"/>
      <path id="Polígono_8" data-name="Polígono 8" d="M5.871,0l5.871,10.568H0Z" transform="matrix(-0.53, 0.848, -0.848, -0.53, 29.418, 48.426)" fill="#261f1f"/>
    </g>
    <g id="Grupo_165605" data-name="Grupo 165605" transform="translate(-6165.626 8391.811) rotate(29)">
      <path id="Trazado_177495-2" data-name="Trazado 177495" d="M0,0" transform="translate(10.269 5.583)" fill="none" stroke="#333131" stroke-width="1"/>
      <path id="Polígono_8-2" data-name="Polígono 8" d="M5.871,0l5.871,10.568H0Z" transform="matrix(-0.53, -0.848, 0.848, -0.53, 6.223, 15.559)" fill="#261f1f"/>
    </g>
    <path id="Trazado_177496" data-name="Trazado 177496" d="M-6195.639,8388.24s74.47-8.341,87.355-54.606" transform="translate(38.16 13.275)" fill="none" stroke="#2c2c2c" stroke-width="1"/>
    <g id="Grupo_165606" data-name="Grupo 165606" transform="translate(-6222.261 8347.497)">
      <path id="Trazado_177495-3" data-name="Trazado 177495" d="M-6308.7,8355.759s3.918,14.8-28.134,31.554" transform="translate(6347.103 -8355.759)" fill="none" stroke="#333131" stroke-width="1"/>
      <path id="Polígono_8-3" data-name="Polígono 8" d="M5.871,0l5.871,10.568H0Z" transform="matrix(-0.53, -0.848, 0.848, -0.53, 6.223, 41.53)" fill="#261f1f"/>
    </g>
  </g>
</svg>
