<svg xmlns="http://www.w3.org/2000/svg" xmlns:xlink="http://www.w3.org/1999/xlink" width="326" height="81" viewBox="0 0 326 81">
  <defs>
    <clipPath id="clip-path">
      <rect id="Rectángulo_51494" data-name="Rectángulo 51494" width="6.612" height="13.044" transform="translate(0 0)" fill="#12263f"/>
    </clipPath>
  </defs>
  <g id="Grupo_974104" data-name="Grupo 974104" transform="translate(-783 -22305)">
    <path id="Trazado_705245" data-name="Trazado 705245" d="M10,0H316a10,10,0,0,1,10,10V71a10,10,0,0,1-10,10H10A10,10,0,0,1,0,71V10A10,10,0,0,1,10,0Z" transform="translate(783 22305)" fill="#25ffff"/>
    <path id="Trazado_705246" data-name="Trazado 705246" d="M1.846,0V-7.928H.4V-9.51h1.45v-.87a3.266,3.266,0,0,1,.879-2.443,3.367,3.367,0,0,1,2.461-.861,4.936,4.936,0,0,1,1.2.158l-.053,1.67a4.207,4.207,0,0,0-.817-.07,1.371,1.371,0,0,0-1.529,1.573v.844H5.915v1.582H3.981V0ZM11.988-5.2a13.393,13.393,0,0,1,.545-3.854,10.578,10.578,0,0,1,1.6-3.261,6.351,6.351,0,0,1,2.232-2.017l.422,1.248a6.524,6.524,0,0,0-2.008,2.87A12.852,12.852,0,0,0,13.939-5.8l-.009.756a13.972,13.972,0,0,0,.751,4.75,7,7,0,0,0,2.1,3.177l-.422,1.187a6.362,6.362,0,0,1-2.237-2.026,10.577,10.577,0,0,1-1.6-3.261A13.921,13.921,0,0,1,11.988-5.2ZM26.13-6.381,27.94-9.51h2.373L27.4-4.825,30.41,0H28.055l-1.9-3.252L24.267,0H21.894L24.9-4.825,22-9.51h2.355ZM40.368-5.062A13.224,13.224,0,0,1,39.832-1.3a10.671,10.671,0,0,1-1.626,3.3A6.367,6.367,0,0,1,35.93,4.069l-.422-1.187A6.754,6.754,0,0,0,37.6-.233a13.84,13.84,0,0,0,.769-4.786v-.2A14.044,14.044,0,0,0,37.7-9.672a7.852,7.852,0,0,0-1.916-3.221l-.272-.246.422-1.2a6.3,6.3,0,0,1,2.18,1.934,10.491,10.491,0,0,1,1.617,3.107,12.941,12.941,0,0,1,.633,3.546ZM54.835-6.855H47.259V-8.631h7.576Zm0,3.727H47.259V-4.9h7.576Z" transform="translate(817 22351)" fill="#12263f"/>
    <path id="Trazado_705247" data-name="Trazado 705247" d="M6.75.225A5.646,5.646,0,0,1,2.544-1.409,5.928,5.928,0,0,1,.932-5.761V-6.1a7.291,7.291,0,0,1,.7-3.251A5.342,5.342,0,0,1,3.6-11.579a5.211,5.211,0,0,1,2.83-.8,4.769,4.769,0,0,1,3.835,1.583,6.7,6.7,0,0,1,1.353,4.481v1.1H3.684A3.649,3.649,0,0,0,4.689-2.83a3.018,3.018,0,0,0,2.218.876A3.7,3.7,0,0,0,9.961-3.47l1.471,1.4A4.913,4.913,0,0,1,9.484-.376,6.1,6.1,0,0,1,6.75.225ZM6.424-10.186A2.3,2.3,0,0,0,4.61-9.4a4.075,4.075,0,0,0-.882,2.19h5.2v-.2A3.317,3.317,0,0,0,8.2-9.484,2.281,2.281,0,0,0,6.424-10.186Z" transform="translate(966 22353)" fill="#12263f"/>
    <path id="Trazado_197279" data-name="Trazado 197279" d="M-8216.115,5100h73" transform="translate(9104 17252)" fill="none" stroke="#12263f" stroke-width="1"/>
    <path id="Trazado_705248" data-name="Trazado 705248" d="M6.741,0H4.614V-10.281L1.477-9.211V-11l4.992-1.837h.272Z" transform="translate(921 22344)" fill="#12263f"/>
    <path id="Trazado_197280" data-name="Trazado 197280" d="M-8299.416,5109.051l7.145,16.439,7.869-16.439h26.4" transform="translate(9214 17248)" fill="none" stroke="#12263f" stroke-width="1"/>
    <path id="Trazado_705249" data-name="Trazado 705249" d="M9.563,0H.958V-1.468L5.221-6.117A10.615,10.615,0,0,0,6.535-7.835,2.784,2.784,0,0,0,6.926-9.22,2.1,2.1,0,0,0,6.412-10.7a1.783,1.783,0,0,0-1.384-.562,2.056,2.056,0,0,0-1.608.633,2.489,2.489,0,0,0-.571,1.731H.712A4.186,4.186,0,0,1,1.244-11a3.662,3.662,0,0,1,1.521-1.455,4.84,4.84,0,0,1,2.281-.519,4.329,4.329,0,0,1,2.94.936A3.249,3.249,0,0,1,9.062-9.448,4.392,4.392,0,0,1,8.521-7.44,11.42,11.42,0,0,1,6.75-5.054L3.621-1.705H9.563ZM20.716-7.84h-1.4v5.15a1.169,1.169,0,0,0,.215.787,1,1,0,0,0,.769.242,3.622,3.622,0,0,0,.747-.088V-.1a4.715,4.715,0,0,1-1.406.2q-2.461,0-2.461-2.716V-7.84H14.265V0H12.129V-7.84h-1.5V-9.51h10.09Z" transform="translate(933 22374)" fill="#12263f"/>
    <path id="Trazado_705250" data-name="Trazado 705250" d="M5.243,0H3.589V-8l-2.44.832V-8.559L5.031-9.987h.212Z" transform="translate(1003 22328)" fill="#12263f"/>
    <path id="Trazado_205137" data-name="Trazado 205137" d="M-8216.117,5100h19.567" transform="translate(9214.139 17235.559)" fill="none" stroke="#12263f" stroke-width="1"/>
    <path id="Trazado_705251" data-name="Trazado 705251" d="M7.438,0H.745V-1.142L4.061-4.758A8.256,8.256,0,0,0,5.083-6.094a2.165,2.165,0,0,0,.3-1.077,1.636,1.636,0,0,0-.4-1.148A1.387,1.387,0,0,0,3.91-8.757a1.6,1.6,0,0,0-1.251.492,1.936,1.936,0,0,0-.444,1.347H.554A3.256,3.256,0,0,1,.967-8.555,2.848,2.848,0,0,1,2.15-9.687a3.764,3.764,0,0,1,1.774-.4,3.367,3.367,0,0,1,2.287.728,2.527,2.527,0,0,1,.837,2.013,3.416,3.416,0,0,1-.42,1.562A8.882,8.882,0,0,1,5.25-3.931l-2.434,2.6H7.438Z" transform="translate(1003 22349)" fill="#12263f"/>
    <path id="Trazado_705252" data-name="Trazado 705252" d="M10.479-4.963,11.888-7.4h1.846L11.471-3.753,13.809,0H11.977L10.5-2.529,9.03,0H7.185L9.522-3.753,7.267-7.4H9.1Zm11.095,1.4H17.985V-4.9h3.589Z" transform="translate(1024 22330)" fill="#12263f"/>
    <path id="Trazado_205138" data-name="Trazado 205138" d="M-8216.118,5100h29.165" transform="translate(9248.189 17235.559)" fill="none" stroke="#12263f" stroke-width="1"/>
    <path id="Trazado_705253" data-name="Trazado 705253" d="M4.958,5H.5V4.239l2.21-2.411A5.5,5.5,0,0,0,3.388.937a1.443,1.443,0,0,0,.2-.718,1.09,1.09,0,0,0-.267-.766.925.925,0,0,0-.718-.292,1.066,1.066,0,0,0-.834.328,1.29,1.29,0,0,0-.3.9H.369A2.17,2.17,0,0,1,.645-.7a1.9,1.9,0,0,1,.788-.754,2.509,2.509,0,0,1,1.183-.269,2.245,2.245,0,0,1,1.524.485A1.685,1.685,0,0,1,4.7.1a2.277,2.277,0,0,1-.28,1.041A5.921,5.921,0,0,1,3.5,2.38L1.877,4.116H4.958Z" transform="translate(1068 22310)" fill="#12263f"/>
    <path id="Trazado_705254" data-name="Trazado 705254" d="M4.074-3.562H.485V-4.9H4.074Z" transform="translate(984 22341)" fill="#12263f"/>
    <path id="Trazado_705255" data-name="Trazado 705255" d="M2.5-11.562a29.762,29.762,0,0,1,1.211-8.564,23.508,23.508,0,0,1,3.555-7.246,14.114,14.114,0,0,1,4.961-4.482l.938,2.773A14.5,14.5,0,0,0,8.7-22.705a28.561,28.561,0,0,0-1.865,9.814l-.02,1.68A31.049,31.049,0,0,0,8.486-.654a15.559,15.559,0,0,0,4.678,7.061l-.937,2.637a14.139,14.139,0,0,1-4.971-4.5A23.5,23.5,0,0,1,3.7-2.705,30.936,30.936,0,0,1,2.5-11.562Z" transform="translate(1017 22342)" fill="#12263f"/>
    <path id="Trazado_705256" data-name="Trazado 705256" d="M11.582-11.25a29.386,29.386,0,0,1-1.191,8.369A23.712,23.712,0,0,1,6.777,4.463a14.15,14.15,0,0,1-5.059,4.58L.781,6.406A15.01,15.01,0,0,0,5.42-.518,30.756,30.756,0,0,0,7.129-11.152V-11.6a31.209,31.209,0,0,0-1.484-9.893,17.45,17.45,0,0,0-4.258-7.158L.781-29.2l.938-2.656a14,14,0,0,1,4.844,4.3,23.314,23.314,0,0,1,3.594,6.9,28.759,28.759,0,0,1,1.406,7.881Z" transform="translate(1059 22342)" fill="#12263f"/>
    <path id="Trazado_705257" data-name="Trazado 705257" d="M10.107-7.787H7.761A4.2,4.2,0,0,1,9.4-4.3a4.9,4.9,0,0,1-.536,2.285A3.92,3.92,0,0,1,7.348-.4,4.344,4.344,0,0,1,5.1.176,4.086,4.086,0,0,1,1.916-1.143a5.152,5.152,0,0,1-1.2-3.595v-.105A4.779,4.779,0,0,1,1.9-8.213a4.114,4.114,0,0,1,3.138-1.3h5.071ZM2.856-4.658a3.933,3.933,0,0,0,.584,2.307A1.913,1.913,0,0,0,5.1-1.529a1.824,1.824,0,0,0,1.6-.826A4.423,4.423,0,0,0,7.26-4.843,3.587,3.587,0,0,0,6.684-7a1.875,1.875,0,0,0-1.6-.787,1.942,1.942,0,0,0-1.63.773A3.851,3.851,0,0,0,2.856-4.658Z" transform="translate(1039.021 22350)" fill="#12263f"/>
    <path id="Trazado_705258" data-name="Trazado 705258" d="M12.354-9.518H9.485a5.132,5.132,0,0,1,2,4.265,5.991,5.991,0,0,1-.655,2.793A4.791,4.791,0,0,1,8.98-.489a5.309,5.309,0,0,1-2.75.7A4.994,4.994,0,0,1,2.342-1.4,6.3,6.3,0,0,1,.881-5.79v-.129a5.841,5.841,0,0,1,1.439-4.12,5.028,5.028,0,0,1,3.835-1.584h6.2ZM3.491-5.693a4.807,4.807,0,0,0,.714,2.82,2.338,2.338,0,0,0,2.025,1,2.23,2.23,0,0,0,1.95-1.01,5.406,5.406,0,0,0,.693-3.04,4.384,4.384,0,0,0-.7-2.637,2.292,2.292,0,0,0-1.96-.961,2.373,2.373,0,0,0-1.993.945A4.707,4.707,0,0,0,3.491-5.693Z" transform="translate(898 22370)" fill="#12263f"/>
    <g id="Grupo_171238" data-name="Grupo 171238" transform="translate(1049.021 22318.479)">
      <g id="Grupo_171237" data-name="Grupo 171237" clip-path="url(#clip-path)">
        <text id="u" transform="matrix(-1, 0, 0, 1, 6.612, 10.044)" fill="#12263f" font-size="12" font-family="MyriadPro-Regular, Myriad Pro"><tspan x="0" y="0">u</tspan></text>
      </g>
    </g>
  </g>
</svg>
