<svg xmlns="http://www.w3.org/2000/svg" width="175" height="81" viewBox="0 0 175 81">
  <g id="Grupo_974131" data-name="Grupo 974131" transform="translate(-425 -4078.071)">
    <path id="Trazado_705287" data-name="Trazado 705287" d="M10,0H165a10,10,0,0,1,10,10V71a10,10,0,0,1-10,10H10A10,10,0,0,1,0,71V10A10,10,0,0,1,10,0Z" transform="translate(425 4078.071)" fill="#0b428a"/>
    <path id="Trazado_705290" data-name="Trazado 705290" d="M11.881-5.6H6.241V-7.7h5.64ZM26.555-1.139A4.048,4.048,0,0,1,23.289.215,3.608,3.608,0,0,1,20.426-.892a4.707,4.707,0,0,1-.972-3.2v-7.53h2.61v7.5q0,2.213,1.837,2.213a2.58,2.58,0,0,0,2.567-1.364v-8.347h2.61V0h-2.46Z" transform="translate(505.873 4110.618)" fill="#fff"/>
    <path id="Trazado_177529" data-name="Trazado 177529" d="M-8355.629,9500.428h73.708" transform="translate(8838 -5382.518)" fill="#fff" stroke="#fff" stroke-width="1"/>
    <path id="Trazado_705288" data-name="Trazado 705288" d="M.81-5.65a6.542,6.542,0,0,1,.646-2.938A4.718,4.718,0,0,1,3.271-10.6a5.114,5.114,0,0,1,2.687-.7A4.846,4.846,0,0,1,9.6-9.854a5.687,5.687,0,0,1,1.512,3.835l.01.584A6.6,6.6,0,0,1,10.495-2.5a4.661,4.661,0,0,1-1.8,2A5.151,5.151,0,0,1,5.978.205,4.813,4.813,0,0,1,2.22-1.359,5.989,5.989,0,0,1,.81-5.527ZM3.3-5.435a4.471,4.471,0,0,0,.708,2.681,2.3,2.3,0,0,0,1.969.969,2.275,2.275,0,0,0,1.964-.984,4.938,4.938,0,0,0,.7-2.881,4.413,4.413,0,0,0-.723-2.666A2.308,2.308,0,0,0,5.958-9.3a2.287,2.287,0,0,0-1.938.969A4.844,4.844,0,0,0,3.3-5.435Z" transform="translate(491.995 4139.896)" fill="#fff"/>
    <path id="Trazado_177530" data-name="Trazado 177530" d="M-8312.861,8041.873l6.447,11.46,4.1-15.669h19.756" transform="translate(8832.611 -3905.152)" fill="none" stroke="#fff" stroke-linecap="round" stroke-width="1"/>
    <path id="Trazado_705289" data-name="Trazado 705289" d="M3.76-11.623l.075,1.343a4.179,4.179,0,0,1,3.384-1.558q3.631,0,3.7,4.157V0H8.3V-7.53a2.394,2.394,0,0,0-.478-1.638A2.011,2.011,0,0,0,6.263-9.7,2.515,2.515,0,0,0,3.91-8.271V0H1.3V-11.623Z" transform="translate(534.742 4148.465)" fill="#fff"/>
    <path id="Trazado_177531" data-name="Trazado 177531" d="M-8343,9525.441l23.354-24.221" transform="translate(8845.088 -5377.264)" fill="#fff" stroke="#fff" stroke-width="1"/>
    <path id="Trazado_705291" data-name="Trazado 705291" d="M6.513-9.217l2.615-4.52h3.428L8.354-6.97,12.7,0h-3.4L6.551-4.7,3.821,0H.394L4.735-6.97.546-13.736h3.4Z" transform="translate(490.734 4111.98)" fill="#fff"/>
    <path id="Trazado_205140" data-name="Trazado 205140" d="M-3801-11801.768h17.009" transform="translate(4291.733 15893.227)" fill="none" stroke="#fff" stroke-width="1"/>
  </g>
</svg>
