<svg xmlns="http://www.w3.org/2000/svg" width="365" height="81" viewBox="0 0 365 81">
  <g id="Grupo_974141" data-name="Grupo 974141" transform="translate(-197.995 -3058.762)">
    <path id="Trazado_704718" data-name="Trazado 704718" d="M9.125,0h346.75C360.915,0,365,4.477,365,10V71c0,5.523-4.085,10-9.125,10H9.125C4.085,81,0,76.523,0,71V10C0,4.477,4.085,0,9.125,0Z" transform="translate(197.995 3058.762)" fill="#7125c8"/>
    <path id="Trazado_704719" data-name="Trazado 704719" d="M-7713,20303.5h237.31" transform="translate(7980.995 -17203.207)" fill="#fff" stroke="#fff" stroke-width="1"/>
    <path id="Trazado_704720" data-name="Trazado 704720" d="M11.32,0h-1.7L3.182-9.861V0h-1.7V-12.8h1.7l6.46,9.905V-12.8H11.32Zm6.813-9.184a4.338,4.338,0,0,1-.569,2.476,2.024,2.024,0,0,1-1.779.81,2.039,2.039,0,0,1-1.769-.792,4.117,4.117,0,0,1-.595-2.366v-1.266a4.241,4.241,0,0,1,.569-2.445,2.039,2.039,0,0,1,1.784-.8,2.058,2.058,0,0,1,1.774.772,4.093,4.093,0,0,1,.584,2.381Zm-.948-1.3a3.475,3.475,0,0,0-.338-1.756,1.165,1.165,0,0,0-1.071-.551,1.149,1.149,0,0,0-1.061.549,3.393,3.393,0,0,0-.343,1.687v1.517a3.531,3.531,0,0,0,.351,1.787,1.162,1.162,0,0,0,1.064.577,1.146,1.146,0,0,0,1.043-.543,3.4,3.4,0,0,0,.356-1.712Zm9.187,9.329a2.342,2.342,0,0,0,1.521-.527A1.855,1.855,0,0,0,28.613-3h1.538a2.949,2.949,0,0,1-.562,1.556A3.7,3.7,0,0,1,28.2-.264a3.994,3.994,0,0,1-1.833.439,3.918,3.918,0,0,1-3.089-1.3,5.163,5.163,0,0,1-1.147-3.546v-.272a5.725,5.725,0,0,1,.51-2.47,3.883,3.883,0,0,1,1.463-1.679,4.157,4.157,0,0,1,2.254-.6,3.814,3.814,0,0,1,2.659.958A3.424,3.424,0,0,1,30.151-6.24H28.613a2.241,2.241,0,0,0-.7-1.516,2.174,2.174,0,0,0-1.551-.593,2.276,2.276,0,0,0-1.92.892,4.19,4.19,0,0,0-.681,2.58v.308a4.106,4.106,0,0,0,.677,2.531A2.287,2.287,0,0,0,26.372-1.151ZM37.85,0a3.416,3.416,0,0,1-.229-1A3.628,3.628,0,0,1,34.915.176a3.357,3.357,0,0,1-2.307-.8,2.573,2.573,0,0,1-.9-2.017,2.688,2.688,0,0,1,1.129-2.307,5.325,5.325,0,0,1,3.177-.822H37.6v-.747a1.826,1.826,0,0,0-.51-1.358,2.049,2.049,0,0,0-1.5-.505,2.371,2.371,0,0,0-1.459.439,1.3,1.3,0,0,0-.589,1.063H31.9a2.244,2.244,0,0,1,.505-1.375A3.449,3.449,0,0,1,33.777-9.3a4.613,4.613,0,0,1,1.9-.387,3.759,3.759,0,0,1,2.575.822A2.964,2.964,0,0,1,39.221-6.6v4.377a5.351,5.351,0,0,0,.334,2.083V0Zm-2.7-1.239a2.858,2.858,0,0,0,1.45-.4A2.392,2.392,0,0,0,37.6-2.663V-4.614H36.321q-2.988,0-2.988,1.749a1.48,1.48,0,0,0,.51,1.2A1.959,1.959,0,0,0,35.152-1.239ZM47.307-2.522a1.2,1.2,0,0,0-.5-1.024,4.78,4.78,0,0,0-1.731-.628,8.186,8.186,0,0,1-1.96-.633,2.788,2.788,0,0,1-1.072-.879A2.1,2.1,0,0,1,41.7-6.9a2.467,2.467,0,0,1,.989-1.978,3.861,3.861,0,0,1,2.527-.809,3.974,3.974,0,0,1,2.624.835,2.652,2.652,0,0,1,1.006,2.136H47.211a1.468,1.468,0,0,0-.567-1.151,2.124,2.124,0,0,0-1.428-.483,2.223,2.223,0,0,0-1.389.387,1.217,1.217,0,0,0-.5,1.011.986.986,0,0,0,.466.888,5.731,5.731,0,0,0,1.683.571,8.77,8.77,0,0,1,1.973.65,2.878,2.878,0,0,1,1.121.91,2.237,2.237,0,0,1,.365,1.3,2.434,2.434,0,0,1-1.02,2.043,4.277,4.277,0,0,1-2.646.769,4.789,4.789,0,0,1-2.021-.4,3.288,3.288,0,0,1-1.375-1.129,2.722,2.722,0,0,1-.5-1.569H43a1.683,1.683,0,0,0,.655,1.3,2.54,2.54,0,0,0,1.613.479,2.622,2.622,0,0,0,1.481-.374A1.148,1.148,0,0,0,47.307-2.522Zm3.313-2.32a5.617,5.617,0,0,1,.549-2.514A4.1,4.1,0,0,1,52.7-9.079a4.163,4.163,0,0,1,2.237-.606,4.01,4.01,0,0,1,3.142,1.345,5.174,5.174,0,0,1,1.2,3.577v.114a5.666,5.666,0,0,1-.532,2.492A4.038,4.038,0,0,1,57.226-.439a4.211,4.211,0,0,1-2.272.615,4,4,0,0,1-3.133-1.345,5.147,5.147,0,0,1-1.2-3.56Zm1.635.193a4.068,4.068,0,0,0,.734,2.54,2.349,2.349,0,0,0,1.964.958,2.335,2.335,0,0,0,1.969-.971,4.449,4.449,0,0,0,.729-2.72,4.061,4.061,0,0,0-.743-2.536,2.361,2.361,0,0,0-1.973-.971,2.335,2.335,0,0,0-1.942.958A4.416,4.416,0,0,0,52.256-4.649Zm14.6,2.127a1.2,1.2,0,0,0-.5-1.024,4.78,4.78,0,0,0-1.731-.628,8.186,8.186,0,0,1-1.96-.633,2.788,2.788,0,0,1-1.072-.879A2.1,2.1,0,0,1,61.247-6.9a2.467,2.467,0,0,1,.989-1.978,3.861,3.861,0,0,1,2.527-.809,3.974,3.974,0,0,1,2.624.835,2.652,2.652,0,0,1,1.006,2.136H66.758a1.468,1.468,0,0,0-.567-1.151,2.124,2.124,0,0,0-1.428-.483,2.223,2.223,0,0,0-1.389.387,1.217,1.217,0,0,0-.5,1.011.986.986,0,0,0,.466.888,5.731,5.731,0,0,0,1.683.571,8.77,8.77,0,0,1,1.973.65,2.878,2.878,0,0,1,1.121.91,2.237,2.237,0,0,1,.365,1.3,2.434,2.434,0,0,1-1.02,2.043,4.277,4.277,0,0,1-2.646.769,4.789,4.789,0,0,1-2.021-.4,3.288,3.288,0,0,1-1.375-1.129,2.722,2.722,0,0,1-.5-1.569h1.626a1.683,1.683,0,0,0,.655,1.3,2.54,2.54,0,0,0,1.613.479A2.622,2.622,0,0,0,66.3-1.525,1.148,1.148,0,0,0,66.854-2.522Zm9,2.522V-8.253h-1.5V-9.51h1.5v-.976a3.238,3.238,0,0,1,.817-2.364,3.088,3.088,0,0,1,2.312-.835,4.267,4.267,0,0,1,1.116.149l-.088,1.318a4.67,4.67,0,0,0-.879-.079,1.589,1.589,0,0,0-1.222.461,1.868,1.868,0,0,0-.431,1.323v1h2.03v1.257H77.48V0Zm11.32,0a3.416,3.416,0,0,1-.229-1A3.628,3.628,0,0,1,84.239.176a3.357,3.357,0,0,1-2.307-.8,2.573,2.573,0,0,1-.9-2.017A2.688,2.688,0,0,1,82.16-4.944a5.325,5.325,0,0,1,3.177-.822H86.92v-.747a1.826,1.826,0,0,0-.51-1.358,2.049,2.049,0,0,0-1.5-.505,2.371,2.371,0,0,0-1.459.439,1.3,1.3,0,0,0-.589,1.063H81.224a2.244,2.244,0,0,1,.505-1.375A3.449,3.449,0,0,1,83.1-9.3,4.613,4.613,0,0,1,85-9.686a3.759,3.759,0,0,1,2.575.822A2.964,2.964,0,0,1,88.546-6.6v4.377A5.351,5.351,0,0,0,88.88-.141V0Zm-2.7-1.239a2.858,2.858,0,0,0,1.45-.4,2.392,2.392,0,0,0,.993-1.028V-4.614H85.645q-2.988,0-2.988,1.749a1.48,1.48,0,0,0,.51,1.2A1.959,1.959,0,0,0,84.476-1.239ZM94.1-2.206l2.355-7.3h1.661L94.707,0H93.468L90.022-9.51h1.661Zm5.019-2.637a5.617,5.617,0,0,1,.549-2.514A4.1,4.1,0,0,1,101.2-9.079a4.163,4.163,0,0,1,2.237-.606,4.01,4.01,0,0,1,3.142,1.345,5.174,5.174,0,0,1,1.2,3.577v.114a5.666,5.666,0,0,1-.532,2.492,4.038,4.038,0,0,1-1.521,1.718,4.211,4.211,0,0,1-2.272.615,4,4,0,0,1-3.133-1.345,5.147,5.147,0,0,1-1.2-3.56Zm1.635.193a4.068,4.068,0,0,0,.734,2.54,2.349,2.349,0,0,0,1.964.958,2.335,2.335,0,0,0,1.969-.971,4.449,4.449,0,0,0,.729-2.72,4.061,4.061,0,0,0-.743-2.536,2.361,2.361,0,0,0-1.973-.971,2.335,2.335,0,0,0-1.942.958A4.416,4.416,0,0,0,100.754-4.649Zm13.658-3.4a4.873,4.873,0,0,0-.8-.062,2.143,2.143,0,0,0-2.171,1.362V0h-1.626V-9.51H111.4l.026,1.1a2.532,2.532,0,0,1,2.268-1.274,1.661,1.661,0,0,1,.721.123ZM121.426,0a3.416,3.416,0,0,1-.229-1A3.628,3.628,0,0,1,118.49.176a3.357,3.357,0,0,1-2.307-.8,2.573,2.573,0,0,1-.9-2.017,2.688,2.688,0,0,1,1.129-2.307,5.325,5.325,0,0,1,3.177-.822h1.582v-.747a1.826,1.826,0,0,0-.51-1.358,2.049,2.049,0,0,0-1.5-.505,2.371,2.371,0,0,0-1.459.439,1.3,1.3,0,0,0-.589,1.063h-1.635a2.244,2.244,0,0,1,.505-1.375,3.449,3.449,0,0,1,1.371-1.05,4.613,4.613,0,0,1,1.9-.387,3.759,3.759,0,0,1,2.575.822A2.964,2.964,0,0,1,122.8-6.6v4.377a5.351,5.351,0,0,0,.334,2.083V0Zm-2.7-1.239a2.858,2.858,0,0,0,1.45-.4,2.392,2.392,0,0,0,.993-1.028V-4.614H119.9q-2.988,0-2.988,1.749a1.48,1.48,0,0,0,.51,1.2A1.959,1.959,0,0,0,118.727-1.239ZM133.4-4.649a5.654,5.654,0,0,1-1,3.5A3.2,3.2,0,0,1,129.7.176,3.315,3.315,0,0,1,126.919-1.1L126.84,0h-1.494V-13.5h1.626v5.036a3.3,3.3,0,0,1,2.716-1.222,3.221,3.221,0,0,1,2.72,1.31A5.824,5.824,0,0,1,133.4-4.79Zm-1.626-.185a4.394,4.394,0,0,0-.642-2.566,2.124,2.124,0,0,0-1.846-.905,2.387,2.387,0,0,0-2.312,1.494V-2.7A2.454,2.454,0,0,0,129.3-1.2a2.112,2.112,0,0,0,1.819-.905A4.672,4.672,0,0,0,131.77-4.834ZM137.211,0h-1.626V-13.5h1.626Zm6.548.176a4.155,4.155,0,0,1-3.146-1.27,4.714,4.714,0,0,1-1.213-3.4v-.3a5.707,5.707,0,0,1,.541-2.527,4.217,4.217,0,0,1,1.512-1.74,3.8,3.8,0,0,1,2.1-.628,3.562,3.562,0,0,1,2.883,1.222,5.289,5.289,0,0,1,1.028,3.5v.677h-6.442a3.38,3.38,0,0,0,.822,2.272,2.583,2.583,0,0,0,2,.866,2.832,2.832,0,0,0,1.459-.352,3.666,3.666,0,0,0,1.046-.932l.993.773A3.993,3.993,0,0,1,143.759.176Zm-.2-8.525a2.169,2.169,0,0,0-1.652.716,3.482,3.482,0,0,0-.826,2.008h4.764v-.123a3.1,3.1,0,0,0-.668-1.92A2.042,2.042,0,0,0,143.556-8.35Zm11.329,5.827a1.2,1.2,0,0,0-.5-1.024,4.78,4.78,0,0,0-1.731-.628,8.186,8.186,0,0,1-1.96-.633,2.788,2.788,0,0,1-1.072-.879,2.1,2.1,0,0,1-.347-1.213,2.467,2.467,0,0,1,.989-1.978,3.861,3.861,0,0,1,2.527-.809,3.974,3.974,0,0,1,2.624.835,2.652,2.652,0,0,1,1.006,2.136h-1.635a1.468,1.468,0,0,0-.567-1.151,2.124,2.124,0,0,0-1.428-.483,2.223,2.223,0,0,0-1.389.387,1.217,1.217,0,0,0-.5,1.011.986.986,0,0,0,.466.888,5.731,5.731,0,0,0,1.683.571,8.77,8.77,0,0,1,1.973.65,2.878,2.878,0,0,1,1.121.91,2.237,2.237,0,0,1,.365,1.3,2.434,2.434,0,0,1-1.02,2.043,4.277,4.277,0,0,1-2.646.769,4.789,4.789,0,0,1-2.021-.4,3.288,3.288,0,0,1-1.375-1.129,2.722,2.722,0,0,1-.5-1.569h1.626a1.683,1.683,0,0,0,.655,1.3,2.54,2.54,0,0,0,1.613.479,2.622,2.622,0,0,0,1.481-.374A1.148,1.148,0,0,0,154.885-2.522ZM168.957,0a3.416,3.416,0,0,1-.229-1A3.628,3.628,0,0,1,166.021.176a3.357,3.357,0,0,1-2.307-.8,2.573,2.573,0,0,1-.9-2.017,2.688,2.688,0,0,1,1.129-2.307,5.325,5.325,0,0,1,3.177-.822H168.7v-.747a1.826,1.826,0,0,0-.51-1.358,2.049,2.049,0,0,0-1.5-.505,2.371,2.371,0,0,0-1.459.439,1.3,1.3,0,0,0-.589,1.063h-1.635a2.244,2.244,0,0,1,.505-1.375,3.449,3.449,0,0,1,1.371-1.05,4.613,4.613,0,0,1,1.9-.387,3.759,3.759,0,0,1,2.575.822,2.964,2.964,0,0,1,.967,2.263v4.377a5.351,5.351,0,0,0,.334,2.083V0Zm-2.7-1.239a2.858,2.858,0,0,0,1.45-.4,2.392,2.392,0,0,0,.993-1.028V-4.614h-1.274q-2.988,0-2.988,1.749a1.48,1.48,0,0,0,.51,1.2A1.959,1.959,0,0,0,166.259-1.239Zm18.4-2.1h-5.361L178.089,0h-1.74l4.887-12.8h1.477l4.9,12.8h-1.731ZM179.8-4.729h4.351l-2.18-5.985Z" transform="translate(289.995 3090.792)" fill="#fff"/>
    <path id="Trazado_704721" data-name="Trazado 704721" d="M11.32,0h-1.7L3.182-9.861V0h-1.7V-12.8h1.7l6.46,9.905V-12.8H11.32Zm6.813-9.184a4.338,4.338,0,0,1-.569,2.476,2.024,2.024,0,0,1-1.779.81,2.039,2.039,0,0,1-1.769-.792,4.117,4.117,0,0,1-.595-2.366v-1.266a4.241,4.241,0,0,1,.569-2.445,2.039,2.039,0,0,1,1.784-.8,2.058,2.058,0,0,1,1.774.772,4.093,4.093,0,0,1,.584,2.381Zm-.948-1.3a3.475,3.475,0,0,0-.338-1.756,1.165,1.165,0,0,0-1.071-.551,1.149,1.149,0,0,0-1.061.549,3.393,3.393,0,0,0-.343,1.687v1.517a3.531,3.531,0,0,0,.351,1.787,1.162,1.162,0,0,0,1.064.577,1.146,1.146,0,0,0,1.043-.543,3.4,3.4,0,0,0,.356-1.712Zm9.187,9.329a2.342,2.342,0,0,0,1.521-.527A1.855,1.855,0,0,0,28.613-3h1.538a2.949,2.949,0,0,1-.562,1.556A3.7,3.7,0,0,1,28.2-.264a3.994,3.994,0,0,1-1.833.439,3.918,3.918,0,0,1-3.089-1.3,5.163,5.163,0,0,1-1.147-3.546v-.272a5.725,5.725,0,0,1,.51-2.47,3.883,3.883,0,0,1,1.463-1.679,4.157,4.157,0,0,1,2.254-.6,3.814,3.814,0,0,1,2.659.958A3.424,3.424,0,0,1,30.151-6.24H28.613a2.241,2.241,0,0,0-.7-1.516,2.174,2.174,0,0,0-1.551-.593,2.276,2.276,0,0,0-1.92.892,4.19,4.19,0,0,0-.681,2.58v.308a4.106,4.106,0,0,0,.677,2.531A2.287,2.287,0,0,0,26.372-1.151ZM37.85,0a3.416,3.416,0,0,1-.229-1A3.628,3.628,0,0,1,34.915.176a3.357,3.357,0,0,1-2.307-.8,2.573,2.573,0,0,1-.9-2.017,2.688,2.688,0,0,1,1.129-2.307,5.325,5.325,0,0,1,3.177-.822H37.6v-.747a1.826,1.826,0,0,0-.51-1.358,2.049,2.049,0,0,0-1.5-.505,2.371,2.371,0,0,0-1.459.439,1.3,1.3,0,0,0-.589,1.063H31.9a2.244,2.244,0,0,1,.505-1.375A3.449,3.449,0,0,1,33.777-9.3a4.613,4.613,0,0,1,1.9-.387,3.759,3.759,0,0,1,2.575.822A2.964,2.964,0,0,1,39.221-6.6v4.377a5.351,5.351,0,0,0,.334,2.083V0Zm-2.7-1.239a2.858,2.858,0,0,0,1.45-.4A2.392,2.392,0,0,0,37.6-2.663V-4.614H36.321q-2.988,0-2.988,1.749a1.48,1.48,0,0,0,.51,1.2A1.959,1.959,0,0,0,35.152-1.239ZM47.307-2.522a1.2,1.2,0,0,0-.5-1.024,4.78,4.78,0,0,0-1.731-.628,8.186,8.186,0,0,1-1.96-.633,2.788,2.788,0,0,1-1.072-.879A2.1,2.1,0,0,1,41.7-6.9a2.467,2.467,0,0,1,.989-1.978,3.861,3.861,0,0,1,2.527-.809,3.974,3.974,0,0,1,2.624.835,2.652,2.652,0,0,1,1.006,2.136H47.211a1.468,1.468,0,0,0-.567-1.151,2.124,2.124,0,0,0-1.428-.483,2.223,2.223,0,0,0-1.389.387,1.217,1.217,0,0,0-.5,1.011.986.986,0,0,0,.466.888,5.731,5.731,0,0,0,1.683.571,8.77,8.77,0,0,1,1.973.65,2.878,2.878,0,0,1,1.121.91,2.237,2.237,0,0,1,.365,1.3,2.434,2.434,0,0,1-1.02,2.043,4.277,4.277,0,0,1-2.646.769,4.789,4.789,0,0,1-2.021-.4,3.288,3.288,0,0,1-1.375-1.129,2.722,2.722,0,0,1-.5-1.569H43a1.683,1.683,0,0,0,.655,1.3,2.54,2.54,0,0,0,1.613.479,2.622,2.622,0,0,0,1.481-.374A1.148,1.148,0,0,0,47.307-2.522Zm3.313-2.32a5.617,5.617,0,0,1,.549-2.514A4.1,4.1,0,0,1,52.7-9.079a4.163,4.163,0,0,1,2.237-.606,4.01,4.01,0,0,1,3.142,1.345,5.174,5.174,0,0,1,1.2,3.577v.114a5.666,5.666,0,0,1-.532,2.492A4.038,4.038,0,0,1,57.226-.439a4.211,4.211,0,0,1-2.272.615,4,4,0,0,1-3.133-1.345,5.147,5.147,0,0,1-1.2-3.56Zm1.635.193a4.068,4.068,0,0,0,.734,2.54,2.349,2.349,0,0,0,1.964.958,2.335,2.335,0,0,0,1.969-.971,4.449,4.449,0,0,0,.729-2.72,4.061,4.061,0,0,0-.743-2.536,2.361,2.361,0,0,0-1.973-.971,2.335,2.335,0,0,0-1.942.958A4.416,4.416,0,0,0,52.256-4.649Zm14.6,2.127a1.2,1.2,0,0,0-.5-1.024,4.78,4.78,0,0,0-1.731-.628,8.186,8.186,0,0,1-1.96-.633,2.788,2.788,0,0,1-1.072-.879A2.1,2.1,0,0,1,61.247-6.9a2.467,2.467,0,0,1,.989-1.978,3.861,3.861,0,0,1,2.527-.809,3.974,3.974,0,0,1,2.624.835,2.652,2.652,0,0,1,1.006,2.136H66.758a1.468,1.468,0,0,0-.567-1.151,2.124,2.124,0,0,0-1.428-.483,2.223,2.223,0,0,0-1.389.387,1.217,1.217,0,0,0-.5,1.011.986.986,0,0,0,.466.888,5.731,5.731,0,0,0,1.683.571,8.77,8.77,0,0,1,1.973.65,2.878,2.878,0,0,1,1.121.91,2.237,2.237,0,0,1,.365,1.3,2.434,2.434,0,0,1-1.02,2.043,4.277,4.277,0,0,1-2.646.769,4.789,4.789,0,0,1-2.021-.4,3.288,3.288,0,0,1-1.375-1.129,2.722,2.722,0,0,1-.5-1.569h1.626a1.683,1.683,0,0,0,.655,1.3,2.54,2.54,0,0,0,1.613.479A2.622,2.622,0,0,0,66.3-1.525,1.148,1.148,0,0,0,66.854-2.522ZM83.088-4.649a5.694,5.694,0,0,1-.993,3.5A3.183,3.183,0,0,1,79.405.176a3.488,3.488,0,0,1-2.725-1.1V3.656H75.054V-9.51H76.54l.079,1.055a3.35,3.35,0,0,1,2.76-1.23A3.243,3.243,0,0,1,82.09-8.394a5.756,5.756,0,0,1,1,3.595Zm-1.626-.185a4.2,4.2,0,0,0-.686-2.54A2.208,2.208,0,0,0,78.9-8.306,2.39,2.39,0,0,0,76.68-7v4.544a2.4,2.4,0,0,0,2.232,1.3,2.2,2.2,0,0,0,1.859-.927A4.587,4.587,0,0,0,81.462-4.834Zm3.261-.009a5.617,5.617,0,0,1,.549-2.514A4.1,4.1,0,0,1,86.8-9.079a4.163,4.163,0,0,1,2.237-.606A4.01,4.01,0,0,1,92.18-8.341a5.174,5.174,0,0,1,1.2,3.577v.114a5.666,5.666,0,0,1-.532,2.492A4.038,4.038,0,0,1,91.327-.439a4.211,4.211,0,0,1-2.272.615,4,4,0,0,1-3.133-1.345,5.147,5.147,0,0,1-1.2-3.56Zm1.635.193a4.068,4.068,0,0,0,.734,2.54,2.349,2.349,0,0,0,1.964.958,2.335,2.335,0,0,0,1.969-.971,4.449,4.449,0,0,0,.729-2.72,4.061,4.061,0,0,0-.743-2.536,2.361,2.361,0,0,0-1.973-.971,2.335,2.335,0,0,0-1.942.958A4.416,4.416,0,0,0,86.357-4.649Zm14.6,2.127a1.2,1.2,0,0,0-.5-1.024,4.78,4.78,0,0,0-1.731-.628,8.186,8.186,0,0,1-1.96-.633A2.788,2.788,0,0,1,95.7-5.687,2.1,2.1,0,0,1,95.348-6.9a2.467,2.467,0,0,1,.989-1.978,3.861,3.861,0,0,1,2.527-.809,3.974,3.974,0,0,1,2.624.835,2.652,2.652,0,0,1,1.006,2.136h-1.635a1.468,1.468,0,0,0-.567-1.151,2.124,2.124,0,0,0-1.428-.483,2.223,2.223,0,0,0-1.389.387,1.217,1.217,0,0,0-.5,1.011.986.986,0,0,0,.466.888,5.731,5.731,0,0,0,1.683.571,8.77,8.77,0,0,1,1.973.65,2.878,2.878,0,0,1,1.121.91,2.237,2.237,0,0,1,.365,1.3,2.434,2.434,0,0,1-1.02,2.043,4.277,4.277,0,0,1-2.646.769,4.789,4.789,0,0,1-2.021-.4A3.288,3.288,0,0,1,95.52-1.358a2.722,2.722,0,0,1-.5-1.569h1.626a1.683,1.683,0,0,0,.655,1.3,2.54,2.54,0,0,0,1.613.479,2.622,2.622,0,0,0,1.481-.374A1.148,1.148,0,0,0,100.956-2.522ZM106.467,0h-1.626V-9.51h1.626Zm-1.758-12.032a.971.971,0,0,1,.242-.668.907.907,0,0,1,.716-.272.922.922,0,0,1,.721.272.96.96,0,0,1,.246.668.929.929,0,0,1-.246.659.938.938,0,0,1-.721.264.924.924,0,0,1-.716-.264A.938.938,0,0,1,104.709-12.032Zm12.41,7.383a5.654,5.654,0,0,1-1,3.5A3.2,3.2,0,0,1,113.427.176,3.315,3.315,0,0,1,110.641-1.1L110.562,0h-1.494V-13.5h1.626v5.036a3.3,3.3,0,0,1,2.716-1.222,3.221,3.221,0,0,1,2.72,1.31,5.824,5.824,0,0,1,.989,3.586Zm-1.626-.185a4.394,4.394,0,0,0-.642-2.566,2.124,2.124,0,0,0-1.846-.905,2.387,2.387,0,0,0-2.312,1.494V-2.7A2.454,2.454,0,0,0,113.023-1.2a2.112,2.112,0,0,0,1.819-.905A4.672,4.672,0,0,0,115.493-4.834ZM120.933,0h-1.626V-13.5h1.626Zm6.548.176a4.155,4.155,0,0,1-3.146-1.27,4.714,4.714,0,0,1-1.213-3.4v-.3a5.707,5.707,0,0,1,.541-2.527,4.217,4.217,0,0,1,1.512-1.74,3.8,3.8,0,0,1,2.1-.628,3.562,3.562,0,0,1,2.883,1.222,5.289,5.289,0,0,1,1.028,3.5v.677h-6.442a3.38,3.38,0,0,0,.822,2.272,2.583,2.583,0,0,0,2,.866,2.832,2.832,0,0,0,1.459-.352,3.666,3.666,0,0,0,1.046-.932l.993.773A3.993,3.993,0,0,1,127.481.176Zm-.2-8.525a2.169,2.169,0,0,0-1.652.716,3.482,3.482,0,0,0-.826,2.008h4.764v-.123a3.1,3.1,0,0,0-.668-1.92A2.042,2.042,0,0,0,127.279-8.35Z" transform="translate(320.995 3122.792)" fill="#fff"/>
  </g>
</svg>
