<svg xmlns="http://www.w3.org/2000/svg" width="265" height="131" viewBox="0 0 265 131">
  <g id="Grupo_974135" data-name="Grupo 974135" transform="translate(-682.671 -7420.851)">
    <rect id="Rectángulo_339710" data-name="Rectángulo 339710" width="265" height="131" rx="10" transform="translate(682.671 7420.851)" fill="#0b428a"/>
    <g id="Grupo_973926" data-name="Grupo 973926" transform="translate(705.117 7433.632)">
      <path id="Trazado_705310" data-name="Trazado 705310" d="M14.008,0H11.3V-6.939H4.308V0H1.59V-15.641H4.308v6.51H11.3v-6.51h2.707Zm8.251,3.159a4.975,4.975,0,0,1-.736,2.967,2.6,2.6,0,0,1-2.24,1,2.635,2.635,0,0,1-2.228-.974,4.764,4.764,0,0,1-.768-2.885V1.687a4.9,4.9,0,0,1,.736-2.951,2.624,2.624,0,0,1,2.246-.984A2.639,2.639,0,0,1,21.5-1.29a4.751,4.751,0,0,1,.755,2.87Zm-1.523-1.7a3.86,3.86,0,0,0-.351-1.883A1.341,1.341,0,0,0,18.174-.46a3.568,3.568,0,0,0-.37,1.77V3.378a3.96,3.96,0,0,0,.357,1.9,1.2,1.2,0,0,0,1.122.627,1.179,1.179,0,0,0,1.084-.58,3.726,3.726,0,0,0,.37-1.814Zm10.576-4.2a1.491,1.491,0,0,1,1.128.414,1.436,1.436,0,0,1,.4,1.037,1.386,1.386,0,0,1-.4,1.015,1.514,1.514,0,0,1-1.128.4,1.518,1.518,0,0,1-1.106-.4A1.362,1.362,0,0,1,29.8-1.3a1.436,1.436,0,0,1,.4-1.037A1.477,1.477,0,0,1,31.313-2.75Zm0-9.12a1.491,1.491,0,0,1,1.128.414,1.436,1.436,0,0,1,.4,1.037,1.386,1.386,0,0,1-.4,1.015,1.514,1.514,0,0,1-1.128.4,1.518,1.518,0,0,1-1.106-.4A1.362,1.362,0,0,1,29.8-10.42a1.436,1.436,0,0,1,.4-1.037A1.477,1.477,0,0,1,31.313-11.87ZM48.092-1.139A4.048,4.048,0,0,1,44.827.215,3.608,3.608,0,0,1,41.964-.892a4.707,4.707,0,0,1-.972-3.2v-7.53H43.6v7.5q0,2.213,1.837,2.213a2.58,2.58,0,0,0,2.567-1.364v-8.347h2.61V0h-2.46Zm20.142-7.24h-9.26v-2.17h9.26Zm0,4.555h-9.26V-5.983h9.26ZM83.585-1.139A4.048,4.048,0,0,1,80.319.215,3.608,3.608,0,0,1,77.456-.892a4.707,4.707,0,0,1-.972-3.2v-7.53h2.61v7.5q0,2.213,1.837,2.213A2.58,2.58,0,0,0,83.5-3.276v-8.347h2.61V0h-2.46Zm10.475,4.3a4.975,4.975,0,0,1-.736,2.967,2.6,2.6,0,0,1-2.24,1,2.635,2.635,0,0,1-2.228-.974,4.764,4.764,0,0,1-.768-2.885V1.687a4.9,4.9,0,0,1,.736-2.951,2.624,2.624,0,0,1,2.246-.984A2.639,2.639,0,0,1,93.3-1.29a4.751,4.751,0,0,1,.755,2.87Zm-1.523-1.7a3.86,3.86,0,0,0-.351-1.883A1.341,1.341,0,0,0,89.974-.46a3.568,3.568,0,0,0-.37,1.77V3.378a3.96,3.96,0,0,0,.357,1.9,1.2,1.2,0,0,0,1.122.627,1.179,1.179,0,0,0,1.084-.58,3.726,3.726,0,0,0,.37-1.814Z" transform="translate(52.606 26.236)" fill="#fff"/>
      <path id="Trazado_705311" data-name="Trazado 705311" d="M14.008,0H11.3V-6.939H4.308V0H1.59V-15.641H4.308v6.51H11.3v-6.51h2.707Zm9.861,0h-2.6V-12.565l-3.835,1.307v-2.191l6.1-2.245h.333ZM36.523-2.75a1.491,1.491,0,0,1,1.128.414,1.436,1.436,0,0,1,.4,1.037,1.386,1.386,0,0,1-.4,1.015,1.514,1.514,0,0,1-1.128.4,1.518,1.518,0,0,1-1.106-.4A1.362,1.362,0,0,1,35.009-1.3a1.436,1.436,0,0,1,.4-1.037A1.477,1.477,0,0,1,36.523-2.75Zm0-9.12a1.491,1.491,0,0,1,1.128.414,1.436,1.436,0,0,1,.4,1.037,1.386,1.386,0,0,1-.4,1.015,1.514,1.514,0,0,1-1.128.4,1.518,1.518,0,0,1-1.106-.4,1.362,1.362,0,0,1-.408-1.021,1.436,1.436,0,0,1,.4-1.037A1.477,1.477,0,0,1,36.523-11.87ZM53.3-1.139A4.048,4.048,0,0,1,50.037.215,3.608,3.608,0,0,1,47.174-.892a4.707,4.707,0,0,1-.972-3.2v-7.53h2.61v7.5q0,2.213,1.837,2.213a2.58,2.58,0,0,0,2.567-1.364v-8.347h2.61V0h-2.46Zm20.142-7.24h-9.26v-2.17h9.26Zm0,4.555h-9.26V-5.983h9.26ZM88.795-1.139A4.048,4.048,0,0,1,85.529.215,3.608,3.608,0,0,1,82.667-.892a4.707,4.707,0,0,1-.972-3.2v-7.53H84.3v7.5q0,2.213,1.837,2.213a2.58,2.58,0,0,0,2.567-1.364v-8.347h2.61V0h-2.46Zm10.475,4.3a4.975,4.975,0,0,1-.736,2.967,2.6,2.6,0,0,1-2.24,1,2.635,2.635,0,0,1-2.228-.974A4.764,4.764,0,0,1,93.3,3.266V1.687a4.9,4.9,0,0,1,.736-2.951,2.624,2.624,0,0,1,2.246-.984,2.639,2.639,0,0,1,2.234.959,4.751,4.751,0,0,1,.755,2.87Zm-1.523-1.7A3.86,3.86,0,0,0,97.4-.428,1.341,1.341,0,0,0,95.185-.46a3.568,3.568,0,0,0-.37,1.77V3.378a3.96,3.96,0,0,0,.357,1.9,1.2,1.2,0,0,0,1.122.627,1.179,1.179,0,0,0,1.084-.58,3.726,3.726,0,0,0,.37-1.814Z" transform="translate(54.969 69.661)" fill="#fff"/>
      <path id="Trazado_177707" data-name="Trazado 177707" d="M-8290.324,12981.612l8.484-19.258" transform="translate(8426.16 -12908.102)" fill="none" stroke="#fff" stroke-width="2"/>
      <path id="Trazado_705312" data-name="Trazado 705312" d="M14.008,0H11.3V-6.939H4.308V0H1.59V-15.641H4.308v6.51H11.3v-6.51h2.707Zm6.428,7H18.919V-.329L16.683.433V-.845l3.559-1.31h.194ZM39.219-8.379H29.96v-2.17h9.26Zm0,4.555H29.96V-5.983h9.26ZM60.2,0H57.492V-6.939H50.5V0H47.781V-15.641H50.5v6.51h6.993v-6.51H60.2Zm7.719,4.613H64.1L63.237,7H62L65.48-2.123h1.053L70.023,7H68.789Zm-3.459-.984h3.1L66.007-.638Z" transform="translate(65.341 101.072)" fill="#fff"/>
      <path id="Trazado_177708" data-name="Trazado 177708" d="M-8344.609,12911.264h-12.952v33.774l-5.439,4.462,5.439,4.463v34.087h12.952" transform="translate(8363.001 -12911.263)" fill="none" stroke="#fff" stroke-linecap="round" stroke-width="2"/>
      <path id="Trazado_177709" data-name="Trazado 177709" d="M-8363,12911.264h6.549v33.774l2.751,4.462-2.751,4.463v34.087H-8363" transform="translate(8560.947 -12911.263)" fill="none" stroke="#fff" stroke-linecap="round" stroke-width="2"/>
    </g>
  </g>
</svg>
