<svg xmlns="http://www.w3.org/2000/svg" width="339" height="399" viewBox="0 0 339 399">
  <g id="Grupo_974139" data-name="Grupo 974139" transform="translate(-295.995 -1768.441)">
    <g id="Trazado_705315" data-name="Trazado 705315" transform="translate(295.995 1768.441)" fill="#fff">
      <path d="M 83.5 166 C 77.90182495117188 166 72.30747985839844 165.4360656738281 66.87232971191406 164.3238677978516 C 61.5758056640625 163.2400360107422 56.36600112915039 161.6228485107422 51.38758850097656 159.5171508789062 C 46.49934768676758 157.4495849609375 41.78454208374023 154.8904724121094 37.37417221069336 151.910888671875 C 33.00543594360352 148.9594421386719 28.89723968505859 145.5698547363281 25.1636962890625 141.8363037109375 C 21.43015289306641 138.1027679443359 18.04056549072266 133.9945678710938 15.08910846710205 129.6258239746094 C 12.10952186584473 125.2154541015625 9.550413131713867 120.5006484985352 7.482847690582275 115.6124114990234 C 5.377151966094971 110.6340026855469 3.75995659828186 105.4241943359375 2.676130533218384 100.1276702880859 C 1.563934803009033 94.69252014160156 1 89.09817504882812 1 83.5 C 1 77.90182495117188 1.563934803009033 72.30747985839844 2.676130533218384 66.87232971191406 C 3.75995659828186 61.5758056640625 5.377151966094971 56.36600112915039 7.482847690582275 51.38758850097656 C 9.550413131713867 46.49934768676758 12.10952186584473 41.78454208374023 15.08910846710205 37.37417221069336 C 18.04056549072266 33.00543594360352 21.43015289306641 28.89723968505859 25.1636962890625 25.1636962890625 C 28.89723968505859 21.43015289306641 33.00543594360352 18.04056549072266 37.37417221069336 15.08910846710205 C 41.78454208374023 12.10952186584473 46.49934768676758 9.550413131713867 51.38758850097656 7.482847690582275 C 56.36600112915039 5.377151966094971 61.5758056640625 3.75995659828186 66.87232971191406 2.676130533218384 C 72.30747985839844 1.563934803009033 77.90182495117188 1 83.5 1 C 89.09817504882812 1 94.69252014160156 1.563934803009033 100.1276702880859 2.676130533218384 C 105.4241943359375 3.75995659828186 110.6340026855469 5.377151966094971 115.6124114990234 7.482847690582275 C 120.5006484985352 9.550413131713867 125.2154541015625 12.10952186584473 129.6258239746094 15.08910846710205 C 133.9945678710938 18.04056549072266 138.1027679443359 21.43015289306641 141.8363037109375 25.1636962890625 C 145.5698547363281 28.89723968505859 148.9594421386719 33.00543594360352 151.910888671875 37.37417221069336 C 154.8904724121094 41.78454208374023 157.4495849609375 46.49934768676758 159.5171508789062 51.38758850097656 C 161.6228485107422 56.36600112915039 163.2400360107422 61.5758056640625 164.3238677978516 66.87232971191406 C 165.4360656738281 72.30747985839844 166 77.90182495117188 166 83.5 C 166 89.09817504882812 165.4360656738281 94.69252014160156 164.3238677978516 100.1276702880859 C 163.2400360107422 105.4241943359375 161.6228485107422 110.6340026855469 159.5171508789062 115.6124114990234 C 157.4495849609375 120.5006484985352 154.8904724121094 125.2154541015625 151.910888671875 129.6258239746094 C 148.9594421386719 133.9945678710938 145.5698547363281 138.1027679443359 141.8363037109375 141.8363037109375 C 138.1027679443359 145.5698547363281 133.9945678710938 148.9594421386719 129.6258239746094 151.910888671875 C 125.2154541015625 154.8904724121094 120.5006484985352 157.4495849609375 115.6124114990234 159.5171508789062 C 110.6340026855469 161.6228485107422 105.4241943359375 163.2400360107422 100.1276702880859 164.3238677978516 C 94.69252014160156 165.4360656738281 89.09817504882812 166 83.5 166 Z" stroke="none"/>
      <path d="M 83.5 2 C 77.96902465820312 2 72.44211578369141 2.557098388671875 67.07279205322266 3.65582275390625 C 61.84095764160156 4.726409912109375 56.69474792480469 6.323883056640625 51.77713775634766 8.40386962890625 C 46.9483642578125 10.44624328613281 42.29084014892578 12.97428894042969 37.93397521972656 15.917724609375 C 33.61798095703125 18.83357238769531 29.55934143066406 22.1822509765625 25.87078857421875 25.87078857421875 C 22.1822509765625 29.55934143066406 18.83357238769531 33.61798095703125 15.917724609375 37.93397521972656 C 12.97428894042969 42.29084014892578 10.44624328613281 46.9483642578125 8.40386962890625 51.77713775634766 C 6.323883056640625 56.69474792480469 4.726409912109375 61.84095764160156 3.65582275390625 67.07279205322266 C 2.557098388671875 72.44211578369141 2 77.96902465820312 2 83.5 C 2 89.03097534179688 2.557098388671875 94.55788421630859 3.65582275390625 99.92720794677734 C 4.726409912109375 105.1590423583984 6.323883056640625 110.3052520751953 8.40386962890625 115.2228622436523 C 10.44624328613281 120.0516357421875 12.97428894042969 124.7091598510742 15.917724609375 129.0660247802734 C 18.83357238769531 133.3820190429688 22.1822509765625 137.4406585693359 25.87078857421875 141.1292114257812 C 29.55934143066406 144.8177490234375 33.61798095703125 148.1664276123047 37.93397521972656 151.082275390625 C 42.29084014892578 154.0257110595703 46.9483642578125 156.5537567138672 51.77713775634766 158.5961303710938 C 56.69474792480469 160.6761169433594 61.84095764160156 162.2735900878906 67.07279205322266 163.3441772460938 C 72.44211578369141 164.4429016113281 77.96902465820312 165 83.5 165 C 89.03097534179688 165 94.55788421630859 164.4429016113281 99.92720794677734 163.3441772460938 C 105.1590423583984 162.2735900878906 110.3052520751953 160.6761169433594 115.2228622436523 158.5961303710938 C 120.0516357421875 156.5537567138672 124.7091598510742 154.0257110595703 129.0660247802734 151.082275390625 C 133.3820190429688 148.1664276123047 137.4406585693359 144.8177490234375 141.1292114257812 141.1292114257812 C 144.8177490234375 137.4406585693359 148.1664276123047 133.3820190429688 151.082275390625 129.0660247802734 C 154.0257110595703 124.7091598510742 156.5537567138672 120.0516357421875 158.5961303710938 115.2228622436523 C 160.6761169433594 110.3052520751953 162.2735900878906 105.1590423583984 163.3441772460938 99.92720794677734 C 164.4429016113281 94.55788421630859 165 89.03097534179688 165 83.5 C 165 77.96902465820312 164.4429016113281 72.44211578369141 163.3441772460938 67.07279205322266 C 162.2735900878906 61.84095764160156 160.6761169433594 56.69474792480469 158.5961303710938 51.77713775634766 C 156.5537567138672 46.9483642578125 154.0257110595703 42.29084014892578 151.082275390625 37.93397521972656 C 148.1664276123047 33.61798095703125 144.8177490234375 29.55934143066406 141.1292114257812 25.87078857421875 C 137.4406585693359 22.1822509765625 133.3820190429688 18.83357238769531 129.0660247802734 15.917724609375 C 124.7091598510742 12.97428894042969 120.0516357421875 10.44624328613281 115.2228622436523 8.40386962890625 C 110.3052520751953 6.323883056640625 105.1590423583984 4.726409912109375 99.92720794677734 3.65582275390625 C 94.55788421630859 2.557098388671875 89.03097534179688 2 83.5 2 M 83.5 0 C 129.6157684326172 0 167 37.38423156738281 167 83.5 C 167 129.6157684326172 129.6157684326172 167 83.5 167 C 37.38423156738281 167 0 129.6157684326172 0 83.5 C 0 37.38423156738281 37.38423156738281 0 83.5 0 Z" stroke="none" fill="#000"/>
    </g>
    <path id="Trazado_705316" data-name="Trazado 705316" d="M14,0A14,14,0,1,1,0,14,14,14,0,0,1,14,0Z" transform="translate(371.995 1807.441)" fill="#7125c8"/>
    <path id="Trazado_705317" data-name="Trazado 705317" d="M7.273-4.055H8.688v1.523H7.273V0h-1.9V-2.531H.461L.406-3.687l4.906-7.687H7.273Zm-4.875,0H5.375V-8.8l-.141.25Z" transform="translate(380.995 1826.441)" fill="#fff"/>
    <path id="Trazado_705318" data-name="Trazado 705318" d="M14,0A14,14,0,1,1,0,14,14,14,0,0,1,14,0Z" transform="translate(409.995 1807.441)" fill="#7125c8"/>
    <path id="Trazado_705319" data-name="Trazado 705319" d="M5.992,0H4.1V-9.138l-2.789.951V-9.781L5.75-11.414h.242Zm11.6,0H9.945V-1.3l3.789-4.133A9.436,9.436,0,0,0,14.9-6.965,2.475,2.475,0,0,0,15.25-8.2a1.87,1.87,0,0,0-.457-1.312,1.585,1.585,0,0,0-1.23-.5,1.827,1.827,0,0,0-1.43.563,2.212,2.212,0,0,0-.508,1.539h-1.9A3.721,3.721,0,0,1,10.2-9.777a3.255,3.255,0,0,1,1.352-1.293,4.3,4.3,0,0,1,2.027-.461,3.848,3.848,0,0,1,2.613.832,2.888,2.888,0,0,1,.957,2.3,3.9,3.9,0,0,1-.48,1.785,10.151,10.151,0,0,1-1.574,2.121L12.313-1.516h5.281Z" transform="translate(415.995 1826.441)" fill="#fff"/>
    <path id="Trazado_705320" data-name="Trazado 705320" d="M14,0A14,14,0,1,1,0,14,14,14,0,0,1,14,0Z" transform="translate(371.995 1840.441)" fill="#7125c8"/>
    <path id="Trazado_705321" data-name="Trazado 705321" d="M8.422-10.32,3.875,0H1.883L6.422-9.852H.539v-1.523H8.422Z" transform="translate(380.995 1859.441)" fill="#fff"/>
    <path id="Trazado_705322" data-name="Trazado 705322" d="M14,0A14,14,0,1,1,0,14,14,14,0,0,1,14,0Z" transform="translate(409.995 1840.441)" fill="#7125c8"/>
    <path id="Trazado_705323" data-name="Trazado 705323" d="M5.992,0H4.1V-9.138l-2.789.951V-9.781L5.75-11.414h.242Zm4.461-5.641.617-5.734H17.18v1.641H12.648l-.312,2.719a3.512,3.512,0,0,1,1.781-.453A3.169,3.169,0,0,1,16.645-6.43a4.118,4.118,0,0,1,.9,2.8,3.79,3.79,0,0,1-1,2.762A3.65,3.65,0,0,1,13.8.156a3.822,3.822,0,0,1-2.59-.887A3.206,3.206,0,0,1,10.1-3.07h1.836a2,2,0,0,0,.594,1.27,1.806,1.806,0,0,0,1.266.441,1.632,1.632,0,0,0,1.363-.625,2.7,2.7,0,0,0,.488-1.7,2.384,2.384,0,0,0-.539-1.645,1.885,1.885,0,0,0-1.484-.605,2.469,2.469,0,0,0-.875.137,2.478,2.478,0,0,0-.781.535Z" transform="translate(415.995 1859.441)" fill="#fff"/>
    <path id="Trazado_705324" data-name="Trazado 705324" d="M7.523-2.648H3.117L2.2,0H.141l4.3-11.375H6.211L10.516,0H8.453ZM3.672-4.242h3.3L5.32-8.961Z" transform="translate(342.995 1805.441)" fill="#ff8578"/>
    <g id="Trazado_705325" data-name="Trazado 705325" transform="translate(467.995 1768.441)" fill="#fff">
      <path d="M 83.5 166 C 77.90182495117188 166 72.30747985839844 165.4360656738281 66.87232971191406 164.3238677978516 C 61.5758056640625 163.2400360107422 56.36600112915039 161.6228485107422 51.38758850097656 159.5171508789062 C 46.49934768676758 157.4495849609375 41.78454208374023 154.8904724121094 37.37417221069336 151.910888671875 C 33.00543594360352 148.9594421386719 28.89723968505859 145.5698547363281 25.1636962890625 141.8363037109375 C 21.43015289306641 138.1027679443359 18.04056549072266 133.9945678710938 15.08910846710205 129.6258239746094 C 12.10952186584473 125.2154541015625 9.550413131713867 120.5006484985352 7.482847690582275 115.6124114990234 C 5.377151966094971 110.6340026855469 3.75995659828186 105.4241943359375 2.676130533218384 100.1276702880859 C 1.563934803009033 94.69252014160156 1 89.09817504882812 1 83.5 C 1 77.90182495117188 1.563934803009033 72.30747985839844 2.676130533218384 66.87232971191406 C 3.75995659828186 61.5758056640625 5.377151966094971 56.36600112915039 7.482847690582275 51.38758850097656 C 9.550413131713867 46.49934768676758 12.10952186584473 41.78454208374023 15.08910846710205 37.37417221069336 C 18.04056549072266 33.00543594360352 21.43015289306641 28.89723968505859 25.1636962890625 25.1636962890625 C 28.89723968505859 21.43015289306641 33.00543594360352 18.04056549072266 37.37417221069336 15.08910846710205 C 41.78454208374023 12.10952186584473 46.49934768676758 9.550413131713867 51.38758850097656 7.482847690582275 C 56.36600112915039 5.377151966094971 61.5758056640625 3.75995659828186 66.87232971191406 2.676130533218384 C 72.30747985839844 1.563934803009033 77.90182495117188 1 83.5 1 C 89.09817504882812 1 94.69252014160156 1.563934803009033 100.1276702880859 2.676130533218384 C 105.4241943359375 3.75995659828186 110.6340026855469 5.377151966094971 115.6124114990234 7.482847690582275 C 120.5006484985352 9.550413131713867 125.2154541015625 12.10952186584473 129.6258239746094 15.08910846710205 C 133.9945678710938 18.04056549072266 138.1027679443359 21.43015289306641 141.8363037109375 25.1636962890625 C 145.5698547363281 28.89723968505859 148.9594421386719 33.00543594360352 151.910888671875 37.37417221069336 C 154.8904724121094 41.78454208374023 157.4495849609375 46.49934768676758 159.5171508789062 51.38758850097656 C 161.6228485107422 56.36600112915039 163.2400360107422 61.5758056640625 164.3238677978516 66.87232971191406 C 165.4360656738281 72.30747985839844 166 77.90182495117188 166 83.5 C 166 89.09817504882812 165.4360656738281 94.69252014160156 164.3238677978516 100.1276702880859 C 163.2400360107422 105.4241943359375 161.6228485107422 110.6340026855469 159.5171508789062 115.6124114990234 C 157.4495849609375 120.5006484985352 154.8904724121094 125.2154541015625 151.910888671875 129.6258239746094 C 148.9594421386719 133.9945678710938 145.5698547363281 138.1027679443359 141.8363037109375 141.8363037109375 C 138.1027679443359 145.5698547363281 133.9945678710938 148.9594421386719 129.6258239746094 151.910888671875 C 125.2154541015625 154.8904724121094 120.5006484985352 157.4495849609375 115.6124114990234 159.5171508789062 C 110.6340026855469 161.6228485107422 105.4241943359375 163.2400360107422 100.1276702880859 164.3238677978516 C 94.69252014160156 165.4360656738281 89.09817504882812 166 83.5 166 Z" stroke="none"/>
      <path d="M 83.5 2 C 77.96902465820312 2 72.44211578369141 2.557098388671875 67.07279205322266 3.65582275390625 C 61.84095764160156 4.726409912109375 56.69474792480469 6.323883056640625 51.77713775634766 8.40386962890625 C 46.9483642578125 10.44624328613281 42.29084014892578 12.97428894042969 37.93397521972656 15.917724609375 C 33.61798095703125 18.83357238769531 29.55934143066406 22.1822509765625 25.87078857421875 25.87078857421875 C 22.1822509765625 29.55934143066406 18.83357238769531 33.61798095703125 15.917724609375 37.93397521972656 C 12.97428894042969 42.29084014892578 10.44624328613281 46.9483642578125 8.40386962890625 51.77713775634766 C 6.323883056640625 56.69474792480469 4.726409912109375 61.84095764160156 3.65582275390625 67.07279205322266 C 2.557098388671875 72.44211578369141 2 77.96902465820312 2 83.5 C 2 89.03097534179688 2.557098388671875 94.55788421630859 3.65582275390625 99.92720794677734 C 4.726409912109375 105.1590423583984 6.323883056640625 110.3052520751953 8.40386962890625 115.2228622436523 C 10.44624328613281 120.0516357421875 12.97428894042969 124.7091598510742 15.917724609375 129.0660247802734 C 18.83357238769531 133.3820190429688 22.1822509765625 137.4406585693359 25.87078857421875 141.1292114257812 C 29.55934143066406 144.8177490234375 33.61798095703125 148.1664276123047 37.93397521972656 151.082275390625 C 42.29084014892578 154.0257110595703 46.9483642578125 156.5537567138672 51.77713775634766 158.5961303710938 C 56.69474792480469 160.6761169433594 61.84095764160156 162.2735900878906 67.07279205322266 163.3441772460938 C 72.44211578369141 164.4429016113281 77.96902465820312 165 83.5 165 C 89.03097534179688 165 94.55788421630859 164.4429016113281 99.92720794677734 163.3441772460938 C 105.1590423583984 162.2735900878906 110.3052520751953 160.6761169433594 115.2228622436523 158.5961303710938 C 120.0516357421875 156.5537567138672 124.7091598510742 154.0257110595703 129.0660247802734 151.082275390625 C 133.3820190429688 148.1664276123047 137.4406585693359 144.8177490234375 141.1292114257812 141.1292114257812 C 144.8177490234375 137.4406585693359 148.1664276123047 133.3820190429688 151.082275390625 129.0660247802734 C 154.0257110595703 124.7091598510742 156.5537567138672 120.0516357421875 158.5961303710938 115.2228622436523 C 160.6761169433594 110.3052520751953 162.2735900878906 105.1590423583984 163.3441772460938 99.92720794677734 C 164.4429016113281 94.55788421630859 165 89.03097534179688 165 83.5 C 165 77.96902465820312 164.4429016113281 72.44211578369141 163.3441772460938 67.07279205322266 C 162.2735900878906 61.84095764160156 160.6761169433594 56.69474792480469 158.5961303710938 51.77713775634766 C 156.5537567138672 46.9483642578125 154.0257110595703 42.29084014892578 151.082275390625 37.93397521972656 C 148.1664276123047 33.61798095703125 144.8177490234375 29.55934143066406 141.1292114257812 25.87078857421875 C 137.4406585693359 22.1822509765625 133.3820190429688 18.83357238769531 129.0660247802734 15.917724609375 C 124.7091598510742 12.97428894042969 120.0516357421875 10.44624328613281 115.2228622436523 8.40386962890625 C 110.3052520751953 6.323883056640625 105.1590423583984 4.726409912109375 99.92720794677734 3.65582275390625 C 94.55788421630859 2.557098388671875 89.03097534179688 2 83.5 2 M 83.5 0 C 129.6157684326172 0 167 37.38423156738281 167 83.5 C 167 129.6157684326172 129.6157684326172 167 83.5 167 C 37.38423156738281 167 0 129.6157684326172 0 83.5 C 0 37.38423156738281 37.38423156738281 0 83.5 0 Z" stroke="none" fill="#000"/>
    </g>
    <path id="Trazado_705326" data-name="Trazado 705326" d="M14,0A14,14,0,1,1,0,14,14,14,0,0,1,14,0Z" transform="translate(486.995 1828.441)" fill="#7125c8"/>
    <path id="Trazado_705327" data-name="Trazado 705327" d="M5.992,0H4.1V-9.138l-2.789.951V-9.781L5.75-11.414h.242Zm11.6,0H9.945V-1.3l3.789-4.133A9.436,9.436,0,0,0,14.9-6.965,2.475,2.475,0,0,0,15.25-8.2a1.87,1.87,0,0,0-.457-1.312,1.585,1.585,0,0,0-1.23-.5,1.827,1.827,0,0,0-1.43.563,2.212,2.212,0,0,0-.508,1.539h-1.9A3.721,3.721,0,0,1,10.2-9.777a3.255,3.255,0,0,1,1.352-1.293,4.3,4.3,0,0,1,2.027-.461,3.848,3.848,0,0,1,2.613.832,2.888,2.888,0,0,1,.957,2.3,3.9,3.9,0,0,1-.48,1.785,10.151,10.151,0,0,1-1.574,2.121L12.313-1.516h5.281Z" transform="translate(491.995 1847.441)" fill="#fff"/>
    <path id="Trazado_705328" data-name="Trazado 705328" d="M1.156,0V-11.375h3.9a4.76,4.76,0,0,1,2.938.773A2.724,2.724,0,0,1,9-8.3a2.456,2.456,0,0,1-.422,1.406,2.715,2.715,0,0,1-1.234.969A2.511,2.511,0,0,1,8.77-4.98a2.742,2.742,0,0,1,.5,1.66A3.028,3.028,0,0,1,8.246-.859,4.467,4.467,0,0,1,5.3,0ZM3.133-5.133v3.555h2.2a2.124,2.124,0,0,0,1.453-.461A1.618,1.618,0,0,0,7.3-3.32,1.623,1.623,0,0,0,5.492-5.133Zm0-1.453H5.07A2.241,2.241,0,0,0,6.512-7a1.432,1.432,0,0,0,.52-1.184,1.452,1.452,0,0,0-.48-1.219,2.426,2.426,0,0,0-1.5-.375H3.133Z" transform="translate(509.995 1805.441)" fill="#ff8578"/>
    <path id="Trazado_705329" data-name="Trazado 705329" d="M14,0A14,14,0,1,1,0,14,14,14,0,0,1,14,0Z" transform="translate(486.995 1859.441)" fill="#7125c8"/>
    <path id="Trazado_705330" data-name="Trazado 705330" d="M5.992,0H4.1V-9.138l-2.789.951V-9.781L5.75-11.414h.242Zm4.461-5.641.617-5.734H17.18v1.641H12.648l-.312,2.719a3.512,3.512,0,0,1,1.781-.453A3.169,3.169,0,0,1,16.645-6.43a4.118,4.118,0,0,1,.9,2.8,3.79,3.79,0,0,1-1,2.762A3.65,3.65,0,0,1,13.8.156a3.822,3.822,0,0,1-2.59-.887A3.206,3.206,0,0,1,10.1-3.07h1.836a2,2,0,0,0,.594,1.27,1.806,1.806,0,0,0,1.266.441,1.632,1.632,0,0,0,1.363-.625,2.7,2.7,0,0,0,.488-1.7,2.384,2.384,0,0,0-.539-1.645,1.885,1.885,0,0,0-1.484-.605,2.469,2.469,0,0,0-.875.137,2.478,2.478,0,0,0-.781.535Z" transform="translate(491.995 1878.441)" fill="#fff"/>
    <path id="Trazado_705331" data-name="Trazado 705331" d="M14,0A14,14,0,1,1,0,14,14,14,0,0,1,14,0Z" transform="translate(529.995 1890.441)" fill="#005acf"/>
    <path id="Trazado_705332" data-name="Trazado 705332" d="M5.992,0H4.1V-9.138l-2.789.951V-9.781L5.75-11.414h.242Zm9.094,0H13.2V-9.138l-2.789.951V-9.781l4.438-1.633h.242Z" transform="translate(534.995 1909.441)" fill="#fff"/>
    <path id="Trazado_705333" data-name="Trazado 705333" d="M14,0A14,14,0,1,1,0,14,14,14,0,0,1,14,0Z" transform="translate(543.995 1790.441)" fill="#3a3b3b"/>
    <path id="Trazado_705334" data-name="Trazado 705334" d="M8.016-8.375a2.644,2.644,0,0,1-.43,1.488A2.98,2.98,0,0,1,6.414-5.859,3.246,3.246,0,0,1,7.785-4.727,2.858,2.858,0,0,1,8.266-3.1,2.984,2.984,0,0,1,7.25-.723a3.986,3.986,0,0,1-2.7.879A4,4,0,0,1,1.832-.727,2.982,2.982,0,0,1,.813-3.1,2.891,2.891,0,0,1,1.3-4.742,3.112,3.112,0,0,1,2.656-5.859,2.964,2.964,0,0,1,1.5-6.887,2.662,2.662,0,0,1,1.07-8.375a2.959,2.959,0,0,1,.938-2.3,3.622,3.622,0,0,1,2.531-.852,3.633,3.633,0,0,1,2.539.852A2.959,2.959,0,0,1,8.016-8.375ZM6.367-3.2a1.875,1.875,0,0,0-.5-1.363,1.771,1.771,0,0,0-1.332-.52,1.752,1.752,0,0,0-1.324.516,1.889,1.889,0,0,0-.5,1.367A1.83,1.83,0,0,0,3.2-1.859a1.8,1.8,0,0,0,1.348.5,1.8,1.8,0,0,0,1.34-.484A1.836,1.836,0,0,0,6.367-3.2ZM6.125-8.3A1.765,1.765,0,0,0,5.7-9.527a1.474,1.474,0,0,0-1.156-.48,1.486,1.486,0,0,0-1.148.457A1.766,1.766,0,0,0,2.969-8.3a1.759,1.759,0,0,0,.426,1.242A1.492,1.492,0,0,0,4.547-6.6,1.492,1.492,0,0,0,5.7-7.062,1.759,1.759,0,0,0,6.125-8.3Z" transform="translate(553.995 1809.441)" fill="#fff"/>
    <path id="Trazado_705335" data-name="Trazado 705335" d="M14,0A14,14,0,1,1,0,14,14,14,0,0,1,14,0Z" transform="translate(549.995 1830.441)" fill="#3a3b3b"/>
    <path id="Trazado_705336" data-name="Trazado 705336" d="M5.992,0H4.1V-9.138l-2.789.951V-9.781L5.75-11.414h.242ZM17.359-4.789a6.2,6.2,0,0,1-.918,3.7A3.242,3.242,0,0,1,13.648.156a3.285,3.285,0,0,1-2.777-1.215,5.94,5.94,0,0,1-.957-3.6V-6.625a6.11,6.11,0,0,1,.918-3.68,3.272,3.272,0,0,1,2.8-1.227,3.291,3.291,0,0,1,2.785,1.2,5.924,5.924,0,0,1,.941,3.578Zm-1.9-2.125a4.813,4.813,0,0,0-.437-2.348,1.493,1.493,0,0,0-1.391-.746,1.492,1.492,0,0,0-1.367.707A4.448,4.448,0,0,0,11.8-7.094v2.578a4.937,4.937,0,0,0,.445,2.375,1.5,1.5,0,0,0,1.4.781A1.469,1.469,0,0,0,15-2.082a4.645,4.645,0,0,0,.461-2.262Z" transform="translate(554.995 1849.441)" fill="#fff"/>
    <path id="Trazado_705337" data-name="Trazado 705337" d="M14,0A14,14,0,1,1,0,14,14,14,0,0,1,14,0Z" transform="translate(577.995 1871.441)" fill="#3a3b3b"/>
    <path id="Trazado_705338" data-name="Trazado 705338" d="M5.992,0H4.1V-9.138l-2.789.951V-9.781L5.75-11.414h.242Zm6.148-6.555H13.3a2.069,2.069,0,0,0,1.387-.453A1.617,1.617,0,0,0,15.2-8.3a1.762,1.762,0,0,0-.426-1.262,1.714,1.714,0,0,0-1.3-.449,1.813,1.813,0,0,0-1.258.441,1.475,1.475,0,0,0-.492,1.152H9.82a2.874,2.874,0,0,1,.465-1.594,3.123,3.123,0,0,1,1.3-1.121,4.225,4.225,0,0,1,1.863-.4,3.912,3.912,0,0,1,2.676.855A3,3,0,0,1,17.094-8.3a2.417,2.417,0,0,1-.488,1.441,3.062,3.062,0,0,1-1.262,1.02A2.791,2.791,0,0,1,16.77-4.828a2.759,2.759,0,0,1,.488,1.641A3.055,3.055,0,0,1,16.207-.75a4.08,4.08,0,0,1-2.762.906,4.049,4.049,0,0,1-2.687-.875A2.882,2.882,0,0,1,9.711-3.047h1.9a1.588,1.588,0,0,0,.5,1.219,1.911,1.911,0,0,0,1.355.469,1.971,1.971,0,0,0,1.391-.469,1.758,1.758,0,0,0,.508-1.359,1.776,1.776,0,0,0-.531-1.383,2.271,2.271,0,0,0-1.578-.484H12.141Z" transform="translate(582.995 1890.441)" fill="#fff"/>
    <path id="Trazado_705339" data-name="Trazado 705339" d="M14,0A14,14,0,1,1,0,14,14,14,0,0,1,14,0Z" transform="translate(582.995 1802.441)" fill="#005acf"/>
    <path id="Trazado_705340" data-name="Trazado 705340" d="M6.234-4.758A2.973,2.973,0,0,1,4.008-3.75,2.974,2.974,0,0,1,1.617-4.8,4.126,4.126,0,0,1,.727-7.562,4.528,4.528,0,0,1,1.18-9.6a3.379,3.379,0,0,1,1.289-1.422,3.657,3.657,0,0,1,1.938-.508A3.286,3.286,0,0,1,7.133-10.25,5.4,5.4,0,0,1,8.141-6.82v.531a7.009,7.009,0,0,1-1.391,4.7A5.235,5.235,0,0,1,2.6.047H2.375v-1.57h.273a3.887,3.887,0,0,0,2.578-.809A3.371,3.371,0,0,0,6.234-4.758ZM4.406-5.234a1.916,1.916,0,0,0,1.07-.328,2.162,2.162,0,0,0,.773-.906v-.742a3.564,3.564,0,0,0-.516-2.023A1.553,1.553,0,0,0,4.4-10a1.535,1.535,0,0,0-1.309.676A2.841,2.841,0,0,0,2.6-7.617a2.806,2.806,0,0,0,.492,1.727A1.559,1.559,0,0,0,4.406-5.234Z" transform="translate(592.995 1821.441)" fill="#fff"/>
    <path id="Trazado_705341" data-name="Trazado 705341" d="M14,0A14,14,0,1,1,0,14,14,14,0,0,1,14,0Z" transform="translate(600.995 1838.441)" fill="#3a3b3b"/>
    <path id="Trazado_705342" data-name="Trazado 705342" d="M5.992,0H4.1V-9.138l-2.789.951V-9.781L5.75-11.414h.242ZM16.367-4.055h1.414v1.523H16.367V0h-1.9V-2.531H9.555L9.5-3.687l4.906-7.687h1.961Zm-4.875,0h2.977V-8.8l-.141.25Z" transform="translate(605.995 1857.441)" fill="#fff"/>
    <path id="Trazado_705343" data-name="Trazado 705343" d="M4.254,0H1.178V-12.8H4.254ZM8.982-9.51l.1,1.116a3.225,3.225,0,0,1,2.716-1.292,2.713,2.713,0,0,1,2.219.888,4.226,4.226,0,0,1,.76,2.672V0H11.8V-6a1.6,1.6,0,0,0-.29-1.059A1.342,1.342,0,0,0,10.459-7.4a1.413,1.413,0,0,0-1.292.686V0H6.205V-9.51Zm10.881-2.364V-9.51h1.564v2.057H19.863V-3.1a1.111,1.111,0,0,0,.193.747,1.037,1.037,0,0,0,.765.211A4.345,4.345,0,0,0,21.56-2.2V-.079a5.466,5.466,0,0,1-1.67.255,3.1,3.1,0,0,1-2.259-.721A2.954,2.954,0,0,1,16.9-2.733v-4.72H15.688V-9.51H16.9v-2.364ZM27.193.176a4.889,4.889,0,0,1-3.542-1.305,4.507,4.507,0,0,1-1.354-3.4v-.246a5.84,5.84,0,0,1,.541-2.575,3.955,3.955,0,0,1,1.578-1.727,4.763,4.763,0,0,1,2.461-.611,4.117,4.117,0,0,1,3.164,1.244A4.887,4.887,0,0,1,31.2-4.975v1.151H25.313a2.135,2.135,0,0,0,.694,1.257,2.066,2.066,0,0,0,1.389.457,2.662,2.662,0,0,0,2.2-.984l1.354,1.6A3.784,3.784,0,0,1,29.377-.277,5.3,5.3,0,0,1,27.193.176ZM26.859-7.4q-1.3,0-1.547,1.723H28.3v-.229a1.467,1.467,0,0,0-.36-1.1A1.434,1.434,0,0,0,26.859-7.4Zm11.285.571-.976-.07a1.752,1.752,0,0,0-1.793.879V0H32.414V-9.51h2.777l.1,1.222a2.294,2.294,0,0,1,2.083-1.4,2.888,2.888,0,0,1,.826.105Zm6.047,4.157a.684.684,0,0,0-.4-.606,6.016,6.016,0,0,0-1.5-.475A6.853,6.853,0,0,1,40.465-4.4a3.062,3.062,0,0,1-1.1-.971,2.319,2.319,0,0,1-.378-1.31,2.628,2.628,0,0,1,1.081-2.158,4.453,4.453,0,0,1,2.83-.848,4.934,4.934,0,0,1,3.023.853,2.666,2.666,0,0,1,1.143,2.241H44.095q0-1.143-1.2-1.143a1.194,1.194,0,0,0-.782.259.8.8,0,0,0-.316.646.737.737,0,0,0,.387.642,3.654,3.654,0,0,0,1.235.4,10.671,10.671,0,0,1,1.49.378A2.706,2.706,0,0,1,47.048-2.76,2.491,2.491,0,0,1,45.892-.642,5.068,5.068,0,0,1,42.9.176a5.172,5.172,0,0,1-2.18-.439,3.645,3.645,0,0,1-1.494-1.2,2.707,2.707,0,0,1-.536-1.591h2.769a1.145,1.145,0,0,0,.439.962,1.808,1.808,0,0,0,1.081.3,1.422,1.422,0,0,0,.91-.246A.787.787,0,0,0,44.191-2.672ZM53.033.176a4.889,4.889,0,0,1-3.542-1.305,4.507,4.507,0,0,1-1.354-3.4v-.246a5.84,5.84,0,0,1,.541-2.575,3.955,3.955,0,0,1,1.578-1.727,4.763,4.763,0,0,1,2.461-.611,4.117,4.117,0,0,1,3.164,1.244,4.887,4.887,0,0,1,1.16,3.467v1.151H51.152a2.135,2.135,0,0,0,.694,1.257,2.066,2.066,0,0,0,1.389.457,2.662,2.662,0,0,0,2.2-.984l1.354,1.6A3.784,3.784,0,0,1,55.217-.277,5.3,5.3,0,0,1,53.033.176ZM52.7-7.4q-1.3,0-1.547,1.723h2.988v-.229a1.467,1.467,0,0,0-.36-1.1A1.434,1.434,0,0,0,52.7-7.4Zm9.554,5.291a1.317,1.317,0,0,0,.967-.338,1.241,1.241,0,0,0,.334-.945h2.777A3.288,3.288,0,0,1,65.21-.826a4.168,4.168,0,0,1-2.887,1,4.22,4.22,0,0,1-3.27-1.3,5.125,5.125,0,0,1-1.2-3.6v-.123A5.792,5.792,0,0,1,58.39-7.4a3.872,3.872,0,0,1,1.534-1.7A4.573,4.573,0,0,1,62.3-9.686a4.116,4.116,0,0,1,2.944,1.028,3.647,3.647,0,0,1,1.09,2.786H63.554A1.626,1.626,0,0,0,63.193-7a1.244,1.244,0,0,0-.967-.4q-1.151,0-1.345,1.468a10.357,10.357,0,0,0-.062,1.283,4.068,4.068,0,0,0,.343,1.986A1.187,1.187,0,0,0,62.253-2.109Zm9.352,0a1.317,1.317,0,0,0,.967-.338,1.241,1.241,0,0,0,.334-.945h2.777A3.288,3.288,0,0,1,74.562-.826a4.168,4.168,0,0,1-2.887,1,4.22,4.22,0,0,1-3.27-1.3,5.125,5.125,0,0,1-1.2-3.6v-.123A5.792,5.792,0,0,1,67.742-7.4a3.872,3.872,0,0,1,1.534-1.7,4.573,4.573,0,0,1,2.373-.593,4.116,4.116,0,0,1,2.944,1.028,3.647,3.647,0,0,1,1.09,2.786H72.905A1.626,1.626,0,0,0,72.545-7a1.244,1.244,0,0,0-.967-.4q-1.151,0-1.345,1.468a10.357,10.357,0,0,0-.062,1.283,4.068,4.068,0,0,0,.343,1.986A1.187,1.187,0,0,0,71.6-2.109ZM80.06,0H77.089V-9.51H80.06ZM76.913-11.962A1.322,1.322,0,0,1,77.37-13a1.724,1.724,0,0,1,1.187-.4,1.724,1.724,0,0,1,1.187.4,1.322,1.322,0,0,1,.457,1.037,1.322,1.322,0,0,1-.457,1.037,1.724,1.724,0,0,1-1.187.4,1.724,1.724,0,0,1-1.187-.4A1.322,1.322,0,0,1,76.913-11.962Zm4.6,7.119a5.613,5.613,0,0,1,.554-2.536,3.96,3.96,0,0,1,1.591-1.709,4.791,4.791,0,0,1,2.435-.6,4.373,4.373,0,0,1,3.366,1.323,5.076,5.076,0,0,1,1.23,3.6v.105a4.925,4.925,0,0,1-1.235,3.529A4.384,4.384,0,0,1,86.106.176a4.434,4.434,0,0,1-3.261-1.217,4.761,4.761,0,0,1-1.327-3.3Zm2.962.185a3.538,3.538,0,0,0,.413,1.934,1.376,1.376,0,0,0,1.222.615q1.582,0,1.617-2.435v-.3q0-2.558-1.635-2.558Q84.6-7.4,84.48-5.194ZM86.493-13.5h3.129l-2.443,2.76-2.417,0Zm8.218,3.99.1,1.116a3.225,3.225,0,0,1,2.716-1.292,2.713,2.713,0,0,1,2.219.888,4.226,4.226,0,0,1,.76,2.672V0H97.532V-6a1.6,1.6,0,0,0-.29-1.059A1.342,1.342,0,0,0,96.188-7.4a1.413,1.413,0,0,0-1.292.686V0H91.934V-9.51Z" transform="translate(417.995 1955.441)" fill="#12263f"/>
    <path id="Trazado_705344" data-name="Trazado 705344" d="M8.367-2.637H3.744L2.865,0H.062L4.825-12.8H7.269L12.059,0h-2.8ZM4.456-4.772h3.2L6.047-9.562ZM29.013,0H26.174V-7.418q0-2.953-2.7-2.953-2.742,0-2.742,3.059V0H17.886V-7.277q0-5.546,5.484-5.546,5.643,0,5.643,5.678ZM35.93,0V-12.8h4.482a5.886,5.886,0,0,1,3.533.892,3.05,3.05,0,0,1,1.2,2.615,2.891,2.891,0,0,1-.483,1.657,2.792,2.792,0,0,1-1.345,1.05,2.7,2.7,0,0,1,1.551.993,2.936,2.936,0,0,1,.567,1.828A3.377,3.377,0,0,1,44.262-.967,5.3,5.3,0,0,1,40.9,0Zm2.637-5.572v3.454h2.259a2.18,2.18,0,0,0,1.455-.444A1.522,1.522,0,0,0,42.8-3.788a1.607,1.607,0,0,0-1.819-1.784Zm0-1.863h1.951q2-.035,2-1.591a1.47,1.47,0,0,0-.505-1.252,2.658,2.658,0,0,0-1.6-.382H38.566Z" transform="translate(444.995 1981.441)" fill="#12263f"/>
    <g id="Grupo_974001" data-name="Grupo 974001" transform="translate(-0.005 16.762)">
      <g id="Elipse_6074" data-name="Elipse 6074" transform="translate(330 1983.68)" fill="#fff" stroke="#000" stroke-width="2">
        <circle cx="83.5" cy="83.5" r="83.5" stroke="none"/>
        <circle cx="83.5" cy="83.5" r="82.5" fill="none"/>
      </g>
      <g id="Elipse_6075" data-name="Elipse 6075" transform="translate(439 1983.68)" fill="#fff" stroke="#000" stroke-width="2">
        <circle cx="83.5" cy="83.5" r="83.5" stroke="none"/>
        <circle cx="83.5" cy="83.5" r="82.5" fill="none"/>
      </g>
      <circle id="Elipse_6076" data-name="Elipse 6076" cx="14" cy="14" r="14" transform="translate(397 2031.68)" fill="#7125c8"/>
      <text id="_4" data-name="4" transform="translate(406 2050.68)" fill="#fff" font-size="16" font-family="Roboto-Medium, Roboto" font-weight="500"><tspan x="0" y="0">4</tspan></text>
      <circle id="Elipse_6077" data-name="Elipse 6077" cx="14" cy="14" r="14" transform="translate(397 2068.68)" fill="#7125c8"/>
      <text id="_7" data-name="7" transform="translate(406 2087.68)" fill="#fff" font-size="16" font-family="Roboto-Medium, Roboto" font-weight="500"><tspan x="0" y="0">7</tspan></text>
      <circle id="Elipse_6078" data-name="Elipse 6078" cx="14" cy="14" r="14" transform="translate(454 2031.68)" fill="#7125c8"/>
      <text id="_12" data-name="12" transform="translate(459 2050.68)" fill="#fff" font-size="16" font-family="Roboto-Medium, Roboto" font-weight="500"><tspan x="0" y="0">12</tspan></text>
      <circle id="Elipse_6079" data-name="Elipse 6079" cx="14" cy="14" r="14" transform="translate(454 2068.68)" fill="#7125c8"/>
      <text id="_15" data-name="15" transform="translate(459 2087.68)" fill="#fff" font-size="16" font-family="Roboto-Medium, Roboto" font-weight="500"><tspan x="0" y="0">15</tspan></text>
      <circle id="Elipse_6080" data-name="Elipse 6080" cx="14" cy="14" r="14" transform="translate(497 2103.68)" fill="#005acf"/>
      <text id="_11" data-name="11" transform="translate(502 2122.68)" fill="#fff" font-size="16" font-family="Roboto-Medium, Roboto" font-weight="500"><tspan x="0" y="0">11</tspan></text>
      <circle id="Elipse_6081" data-name="Elipse 6081" cx="14" cy="14" r="14" transform="translate(511 2003.68)" fill="#3a3b3b"/>
      <text id="_8" data-name="8" transform="translate(521 2022.68)" fill="#fff" font-size="16" font-family="Roboto-Medium, Roboto" font-weight="500"><tspan x="0" y="0">8</tspan></text>
      <circle id="Elipse_6082" data-name="Elipse 6082" cx="14" cy="14" r="14" transform="translate(517 2043.68)" fill="#3a3b3b"/>
      <text id="_10" data-name="10" transform="translate(522 2062.68)" fill="#fff" font-size="16" font-family="Roboto-Medium, Roboto" font-weight="500"><tspan x="0" y="0">10</tspan></text>
      <circle id="Elipse_6083" data-name="Elipse 6083" cx="14" cy="14" r="14" transform="translate(545 2084.68)" fill="#3a3b3b"/>
      <text id="_13" data-name="13" transform="translate(550 2103.68)" fill="#fff" font-size="16" font-family="Roboto-Medium, Roboto" font-weight="500"><tspan x="0" y="0">13</tspan></text>
      <circle id="Elipse_6084" data-name="Elipse 6084" cx="14" cy="14" r="14" transform="translate(550 2015.68)" fill="#005acf"/>
      <text id="_9" data-name="9" transform="translate(560 2034.68)" fill="#fff" font-size="16" font-family="Roboto-Medium, Roboto" font-weight="500"><tspan x="0" y="0">9</tspan></text>
      <circle id="Elipse_6085" data-name="Elipse 6085" cx="14" cy="14" r="14" transform="translate(568 2051.68)" fill="#3a3b3b"/>
      <text id="_14" data-name="14" transform="translate(573 2070.68)" fill="#fff" font-size="16" font-family="Roboto-Medium, Roboto" font-weight="500"><tspan x="0" y="0">14</tspan></text>
      <text id="A" transform="translate(358 2027.68)" font-size="16" font-family="Roboto-Medium, Roboto" font-weight="500"><tspan x="0" y="0">A</tspan></text>
      <text id="B" transform="translate(492 2011.68)" font-size="16" font-family="Roboto-Medium, Roboto" font-weight="500"><tspan x="0" y="0">B</tspan></text>
      <path id="Trazado_205141" data-name="Trazado 205141" d="M-832-12456.267s52.654-64.788,0-123.233" transform="translate(1300 14586)" fill="none" stroke="#000" stroke-width="2"/>
    </g>
  </g>
</svg>
