<svg xmlns="http://www.w3.org/2000/svg" width="505" height="328" viewBox="0 0 505 328">
  <g id="Grupo_166702" data-name="Grupo 166702" transform="translate(-810 -12298.999)">
    <path id="Trazado_704698" data-name="Trazado 704698" d="M0,0H505V328H0Z" transform="translate(810 12299)" fill="#ebf7ff"/>
    <path id="Trazado_705216" data-name="Trazado 705216" d="M0,0H505V5H0Z" transform="translate(810 12622)" fill="#2e0877"/>
    <path id="Trazado_177336" data-name="Trazado 177336" d="M-7417,801.807h-2V578.177h2Z" transform="translate(8470.5 11773.008)" fill="#005acf"/>
    <path id="Trazado_177337" data-name="Trazado 177337" d="M-7208,647h-400v-2h400Z" transform="translate(8470.5 11773.008)" fill="#005acf"/>
    <path id="Trazado_177384" data-name="Trazado 177384" d="M5.019-12.8l2.856,8.9,2.848-8.9h4.061V0H11.689V-2.988l.3-6.117L8.895,0H6.855l-3.1-9.114.3,6.126V0H.967V-12.8ZM22.271-1.028a3.054,3.054,0,0,1-2.54,1.2,3,3,0,0,1-2.369-.91,3.826,3.826,0,0,1-.8-2.615V-9.51h2.962v6.179a1.065,1.065,0,0,0,1.187,1.222,1.548,1.548,0,0,0,1.45-.729V-9.51h2.979V0H22.359Zm9.088,1.2a4.889,4.889,0,0,1-3.542-1.305,4.507,4.507,0,0,1-1.354-3.4v-.246A5.84,5.84,0,0,1,27-7.348a3.955,3.955,0,0,1,1.578-1.727,4.763,4.763,0,0,1,2.461-.611,4.117,4.117,0,0,1,3.164,1.244,4.887,4.887,0,0,1,1.16,3.467v1.151H29.479a2.135,2.135,0,0,0,.694,1.257,2.066,2.066,0,0,0,1.389.457,2.662,2.662,0,0,0,2.2-.984l1.354,1.6A3.784,3.784,0,0,1,33.543-.277,5.3,5.3,0,0,1,31.359.176ZM31.025-7.4q-1.3,0-1.547,1.723h2.988v-.229a1.467,1.467,0,0,0-.36-1.1A1.434,1.434,0,0,0,31.025-7.4ZM41.537-2.672a.684.684,0,0,0-.4-.606,6.016,6.016,0,0,0-1.5-.475A6.853,6.853,0,0,1,37.811-4.4a3.062,3.062,0,0,1-1.1-.971,2.319,2.319,0,0,1-.378-1.31,2.628,2.628,0,0,1,1.081-2.158,4.453,4.453,0,0,1,2.83-.848,4.934,4.934,0,0,1,3.023.853,2.666,2.666,0,0,1,1.143,2.241H41.44q0-1.143-1.2-1.143a1.194,1.194,0,0,0-.782.259.8.8,0,0,0-.316.646.737.737,0,0,0,.387.642,3.654,3.654,0,0,0,1.235.4,10.671,10.671,0,0,1,1.49.378A2.706,2.706,0,0,1,44.394-2.76,2.491,2.491,0,0,1,43.238-.642a5.068,5.068,0,0,1-2.993.817,5.172,5.172,0,0,1-2.18-.439,3.645,3.645,0,0,1-1.494-1.2,2.707,2.707,0,0,1-.536-1.591H38.8a1.145,1.145,0,0,0,.439.962,1.808,1.808,0,0,0,1.081.3,1.422,1.422,0,0,0,.91-.246A.787.787,0,0,0,41.537-2.672Zm7.69-9.2V-9.51h1.564v2.057H49.228V-3.1a1.111,1.111,0,0,0,.193.747,1.037,1.037,0,0,0,.765.211,4.345,4.345,0,0,0,.738-.053V-.079a5.466,5.466,0,0,1-1.67.255A3.1,3.1,0,0,1,47-.545a2.954,2.954,0,0,1-.729-2.188v-4.72H45.053V-9.51h1.213v-2.364Zm8.481,5.045-.976-.07a1.752,1.752,0,0,0-1.793.879V0H51.979V-9.51h2.777l.1,1.222a2.294,2.294,0,0,1,2.083-1.4,2.888,2.888,0,0,1,.826.105ZM63.87,0a3.344,3.344,0,0,1-.281-.853A2.754,2.754,0,0,1,61.3.176a3.374,3.374,0,0,1-2.285-.813,2.588,2.588,0,0,1-.94-2.043,2.66,2.66,0,0,1,1.143-2.338,5.821,5.821,0,0,1,3.322-.791h.914v-.5q0-1.31-1.134-1.31a.925.925,0,0,0-1.055,1.037H58.307A2.659,2.659,0,0,1,59.48-8.824a4.927,4.927,0,0,1,2.993-.861,4.323,4.323,0,0,1,2.874.888,3.086,3.086,0,0,1,1.081,2.435v4.21a4.311,4.311,0,0,0,.4,2V0ZM62.016-1.934a1.652,1.652,0,0,0,.918-.237,1.487,1.487,0,0,0,.523-.536V-4.228H62.6q-1.547,0-1.547,1.389a.848.848,0,0,0,.272.655A.986.986,0,0,0,62.016-1.934Z" transform="translate(929.5 12398.008)" fill="#12263f"/>
    <path id="Trazado_177400" data-name="Trazado 177400" d="M4.052-4.342V0H.967V-12.8H6.073a5.948,5.948,0,0,1,2.6.541,4.074,4.074,0,0,1,1.749,1.538,4.2,4.2,0,0,1,.62,2.263A3.7,3.7,0,0,1,9.7-5.462,5.561,5.561,0,0,1,6.021-4.342Zm0-2.382H6.073A1.906,1.906,0,0,0,7.44-7.172a1.665,1.665,0,0,0,.47-1.266A2.059,2.059,0,0,0,7.427-9.87a1.712,1.712,0,0,0-1.318-.545H4.052Zm8.007,1.881a5.613,5.613,0,0,1,.554-2.536A3.96,3.96,0,0,1,14.2-9.088a4.791,4.791,0,0,1,2.435-.6A4.373,4.373,0,0,1,20-8.363a5.076,5.076,0,0,1,1.23,3.6v.105A4.925,4.925,0,0,1,20-1.129,4.384,4.384,0,0,1,16.655.176a4.434,4.434,0,0,1-3.261-1.217,4.761,4.761,0,0,1-1.327-3.3Zm2.962.185a3.538,3.538,0,0,0,.413,1.934,1.376,1.376,0,0,0,1.222.615q1.582,0,1.617-2.435v-.3q0-2.558-1.635-2.558-1.485,0-1.608,2.206Zm16.348-.018A5.8,5.8,0,0,1,30.4-1.081,3.238,3.238,0,0,1,27.677.176,2.81,2.81,0,0,1,25.339-.976L25.216,0H22.562V-13.5h2.962v4.755a2.711,2.711,0,0,1,2.136-.94A3.239,3.239,0,0,1,30.4-8.411a5.826,5.826,0,0,1,.967,3.586ZM28.4-4.86a3.878,3.878,0,0,0-.365-1.956A1.229,1.229,0,0,0,26.912-7.4a1.418,1.418,0,0,0-1.389.765v3.779A1.426,1.426,0,0,0,26.93-2.1a1.258,1.258,0,0,0,1.327-1.02A7.333,7.333,0,0,0,28.4-4.86ZM35.8,0H32.827V-13.5H35.8Zm7.181,0A3.344,3.344,0,0,1,42.7-.853,2.754,2.754,0,0,1,40.412.176a3.374,3.374,0,0,1-2.285-.813,2.588,2.588,0,0,1-.94-2.043,2.66,2.66,0,0,1,1.143-2.338,5.821,5.821,0,0,1,3.322-.791h.914v-.5q0-1.31-1.134-1.31a.925.925,0,0,0-1.055,1.037H37.415a2.659,2.659,0,0,1,1.173-2.241,4.927,4.927,0,0,1,2.993-.861,4.323,4.323,0,0,1,2.874.888,3.086,3.086,0,0,1,1.081,2.435v4.21a4.311,4.311,0,0,0,.4,2V0ZM41.124-1.934a1.652,1.652,0,0,0,.918-.237,1.487,1.487,0,0,0,.523-.536V-4.228H41.7q-1.547,0-1.547,1.389a.848.848,0,0,0,.272.655A.986.986,0,0,0,41.124-1.934ZM51.2-2.109a1.317,1.317,0,0,0,.967-.338,1.241,1.241,0,0,0,.334-.945h2.777A3.288,3.288,0,0,1,54.154-.826a4.168,4.168,0,0,1-2.887,1A4.22,4.22,0,0,1,48-1.125a5.125,5.125,0,0,1-1.2-3.6v-.123A5.792,5.792,0,0,1,47.333-7.4a3.872,3.872,0,0,1,1.534-1.7,4.573,4.573,0,0,1,2.373-.593,4.116,4.116,0,0,1,2.944,1.028,3.647,3.647,0,0,1,1.09,2.786H52.5A1.626,1.626,0,0,0,52.137-7a1.244,1.244,0,0,0-.967-.4q-1.151,0-1.345,1.468a10.357,10.357,0,0,0-.062,1.283,4.068,4.068,0,0,0,.343,1.986A1.187,1.187,0,0,0,51.2-2.109ZM59.651,0H56.681V-9.51h2.971ZM56.5-11.962A1.322,1.322,0,0,1,56.962-13a1.724,1.724,0,0,1,1.187-.4,1.724,1.724,0,0,1,1.187.4,1.322,1.322,0,0,1,.457,1.037,1.322,1.322,0,0,1-.457,1.037,1.724,1.724,0,0,1-1.187.4,1.724,1.724,0,0,1-1.187-.4A1.322,1.322,0,0,1,56.5-11.962Zm4.6,7.119a5.613,5.613,0,0,1,.554-2.536,3.96,3.96,0,0,1,1.591-1.709,4.791,4.791,0,0,1,2.435-.6,4.373,4.373,0,0,1,3.366,1.323,5.076,5.076,0,0,1,1.23,3.6v.105a4.925,4.925,0,0,1-1.235,3.529A4.384,4.384,0,0,1,65.7.176a4.434,4.434,0,0,1-3.261-1.217,4.761,4.761,0,0,1-1.327-3.3Zm2.962.185a3.538,3.538,0,0,0,.413,1.934,1.376,1.376,0,0,0,1.222.615q1.582,0,1.617-2.435v-.3q0-2.558-1.635-2.558-1.485,0-1.608,2.206ZM66.085-13.5h3.129l-2.443,2.76H64.354ZM74.3-9.51l.1,1.116a3.225,3.225,0,0,1,2.716-1.292,2.713,2.713,0,0,1,2.219.888,4.226,4.226,0,0,1,.76,2.672V0H77.124V-6a1.6,1.6,0,0,0-.29-1.059A1.342,1.342,0,0,0,75.779-7.4a1.413,1.413,0,0,0-1.292.686V0H71.525V-9.51Z" transform="translate(1090.5 12398.008)" fill="#12263f"/>
    <path id="Trazado_177386" data-name="Trazado 177386" d="M5.086-7.453l2.133-3.922h2.7L6.6-5.734,10,0H7.273L5.086-3.984,2.9,0H.172l3.4-5.734L.258-11.375h2.7Z" transform="translate(947.5 12465.008)" fill="#005acf"/>
    <path id="Trazado_177387" data-name="Trazado 177387" d="M6.914-2.984A1.2,1.2,0,0,0,6.445-4a6.148,6.148,0,0,0-1.687-.75,11.963,11.963,0,0,1-1.93-.777A3.153,3.153,0,0,1,.891-8.352,2.747,2.747,0,0,1,1.41-10,3.389,3.389,0,0,1,2.9-11.125a5.616,5.616,0,0,1,2.184-.406,5.112,5.112,0,0,1,2.172.441,3.458,3.458,0,0,1,1.48,1.246,3.261,3.261,0,0,1,.527,1.828H6.922A1.534,1.534,0,0,0,6.43-9.23a2.023,2.023,0,0,0-1.383-.434A2.162,2.162,0,0,0,3.711-9.3a1.146,1.146,0,0,0-.477.957,1.1,1.1,0,0,0,.559.93,6.311,6.311,0,0,0,1.645.7A7.106,7.106,0,0,1,8.352-5.219,2.972,2.972,0,0,1,9.266-3,2.737,2.737,0,0,1,8.148-.684a4.891,4.891,0,0,1-3.008.84A5.808,5.808,0,0,1,2.75-.324,3.783,3.783,0,0,1,1.105-1.641,3.371,3.371,0,0,1,.539-3.578H2.891q0,1.883,2.25,1.883a2.189,2.189,0,0,0,1.3-.34A1.106,1.106,0,0,0,6.914-2.984Z" transform="translate(947.5 12515.008)" fill="#005acf"/>
    <path id="Trazado_177401" data-name="Trazado 177401" d="M10.539-11.375l-1.281,7.5A4.571,4.571,0,0,1,7.7-.9,4.7,4.7,0,0,1,4.477.164a4.335,4.335,0,0,1-2.09-.527A3.077,3.077,0,0,1,1.078-1.785,3.855,3.855,0,0,1,.789-3.867l1.273-7.508H4.352L3.078-3.859a3.339,3.339,0,0,0-.008.82A1.385,1.385,0,0,0,4.578-1.727a2.154,2.154,0,0,0,1.586-.531,2.721,2.721,0,0,0,.8-1.609l1.281-7.508Z" transform="translate(1108.5 12465.008)" fill="#005acf"/>
    <path id="Trazado_177402" data-name="Trazado 177402" d="M4.734.156a4.008,4.008,0,0,1-2-.535A3.612,3.612,0,0,1,1.371-1.855,5.468,5.468,0,0,1,.789-4.07,8.9,8.9,0,0,1,1.063-6.8,7.3,7.3,0,0,1,2.219-9.359,5.256,5.256,0,0,1,4.09-11.008a4.844,4.844,0,0,1,2.324-.523,3.966,3.966,0,0,1,2.008.543A3.587,3.587,0,0,1,9.773-9.5a5.532,5.532,0,0,1,.563,2.207,9.188,9.188,0,0,1-.3,2.828A7.177,7.177,0,0,1,8.875-1.945,5.216,5.216,0,0,1,7.027-.352,4.83,4.83,0,0,1,4.734.156ZM7.977-6l.063-.742a3.626,3.626,0,0,0-.371-2.109A1.567,1.567,0,0,0,6.3-9.6a2.473,2.473,0,0,0-2.27,1.266,7.455,7.455,0,0,0-.949,3.672,3.762,3.762,0,0,0,.367,2.129,1.563,1.563,0,0,0,1.383.777,2.345,2.345,0,0,0,2.031-.957A5.79,5.79,0,0,0,7.922-5.578Z" transform="translate(1108.5 12515.008)" fill="#5263e2"/>
  </g>
</svg>
