<svg xmlns="http://www.w3.org/2000/svg" width="469" height="81" viewBox="0 0 469 81">
  <g id="Grupo_974125" data-name="Grupo 974125" transform="translate(-866 -19976.324)">
    <rect id="Rectángulo_50170" data-name="Rectángulo 50170" width="469" height="81" rx="10" transform="translate(866 19976.324)" fill="#25ffff"/>
    <path id="Trazado_705242" data-name="Trazado 705242" d="M5.81,14.214,9.062,4.2H11.5L6.9,17H4.746L.158,4.2H2.593ZM17.253,11.8A13.393,13.393,0,0,1,17.8,7.943a10.578,10.578,0,0,1,1.6-3.261A6.351,6.351,0,0,1,21.63,2.665l.422,1.248a6.524,6.524,0,0,0-2.008,2.87A12.852,12.852,0,0,0,19.2,11.2l-.009.756a13.972,13.972,0,0,0,.751,4.75,7,7,0,0,0,2.1,3.177l-.422,1.187a6.362,6.362,0,0,1-2.237-2.026,10.577,10.577,0,0,1-1.6-3.261A13.921,13.921,0,0,1,17.253,11.8ZM28.107,8.826,30.8,4.2h2.566L29.5,10.549,33.451,17H30.858l-2.751-4.693L25.348,17H22.764l3.964-6.451L22.852,4.2h2.566Zm10.9,3.111A13.224,13.224,0,0,1,38.47,15.7a10.671,10.671,0,0,1-1.626,3.3,6.367,6.367,0,0,1-2.276,2.061l-.422-1.187a6.754,6.754,0,0,0,2.087-3.116A13.84,13.84,0,0,0,37,11.981v-.2a14.044,14.044,0,0,0-.668-4.452,7.852,7.852,0,0,0-1.916-3.221l-.272-.246.422-1.2A6.3,6.3,0,0,1,36.747,4.6a10.491,10.491,0,0,1,1.617,3.107A12.941,12.941,0,0,1,39,11.252Zm14.467-1.793H45.9V8.369h7.576Zm0,3.727H45.9V12.1h7.576Zm11.514.343L68.238,4.2h2.443L66.076,17H63.923L59.335,4.2H61.77ZM76.43,11.8a13.393,13.393,0,0,1,.545-3.854,10.578,10.578,0,0,1,1.6-3.261,6.351,6.351,0,0,1,2.232-2.017l.422,1.248a6.524,6.524,0,0,0-2.008,2.87,12.852,12.852,0,0,0-.839,4.417l-.009.756a13.972,13.972,0,0,0,.751,4.75,7,7,0,0,0,2.1,3.177l-.422,1.187a6.362,6.362,0,0,1-2.237-2.026,10.577,10.577,0,0,1-1.6-3.261A13.921,13.921,0,0,1,76.43,11.8ZM91.767,8.826,94.456,4.2h2.566l-3.867,6.346L97.11,17H94.518l-2.751-4.693L89.007,17H86.423l3.964-6.451L86.511,4.2h2.566ZM101.385,23h-1.241V17l-1.83.624V16.581l2.912-1.071h.159Zm11.73-11.062a13.224,13.224,0,0,1-.536,3.766,10.671,10.671,0,0,1-1.626,3.3,6.367,6.367,0,0,1-2.276,2.061l-.422-1.187a6.754,6.754,0,0,0,2.087-3.116,13.84,13.84,0,0,0,.769-4.786v-.2a14.044,14.044,0,0,0-.668-4.452,7.852,7.852,0,0,0-1.916-3.221l-.272-.246.422-1.2a6.3,6.3,0,0,1,2.18,1.934,10.491,10.491,0,0,1,1.617,3.107,12.941,12.941,0,0,1,.633,3.546ZM124.76,9.96h3.34v1.951h-3.34v3.806h-2.074V11.911h-3.357V9.96h3.357V6.4h2.074Zm14.291,4.254L142.3,4.2h2.443L140.141,17h-2.153L133.4,4.2h2.435ZM150.495,11.8a13.393,13.393,0,0,1,.545-3.854,10.578,10.578,0,0,1,1.6-3.261,6.351,6.351,0,0,1,2.232-2.017l.422,1.248a6.524,6.524,0,0,0-2.008,2.87,12.852,12.852,0,0,0-.839,4.417l-.009.756a13.972,13.972,0,0,0,.751,4.75,7,7,0,0,0,2.1,3.177l-.422,1.187a6.362,6.362,0,0,1-2.237-2.026,10.577,10.577,0,0,1-1.6-3.261A13.921,13.921,0,0,1,150.495,11.8Zm15.337-2.971L168.521,4.2h2.566l-3.867,6.346L171.175,17h-2.593l-2.751-4.693L163.072,17h-2.584l3.964-6.451L160.576,4.2h2.566ZM177.1,23h-5.019v-.856l2.486-2.712a6.191,6.191,0,0,0,.766-1,1.624,1.624,0,0,0,.228-.807,1.227,1.227,0,0,0-.3-.861,1.04,1.04,0,0,0-.807-.328,1.2,1.2,0,0,0-.938.369,1.452,1.452,0,0,0-.333,1.01h-1.246a2.442,2.442,0,0,1,.31-1.228,2.136,2.136,0,0,1,.887-.848,2.823,2.823,0,0,1,1.33-.3,2.525,2.525,0,0,1,1.715.546,1.9,1.9,0,0,1,.628,1.51,2.562,2.562,0,0,1-.315,1.171,6.661,6.661,0,0,1-1.033,1.392l-1.825,1.953H177.1ZM187.18,11.938a13.224,13.224,0,0,1-.536,3.766,10.671,10.671,0,0,1-1.626,3.3,6.367,6.367,0,0,1-2.276,2.061l-.422-1.187a6.754,6.754,0,0,0,2.087-3.116,13.84,13.84,0,0,0,.769-4.786v-.2a14.044,14.044,0,0,0-.668-4.452,7.852,7.852,0,0,0-1.916-3.221l-.272-.246.422-1.2a6.3,6.3,0,0,1,2.18,1.934,10.491,10.491,0,0,1,1.617,3.107,12.941,12.941,0,0,1,.633,3.546ZM198.826,9.96h3.34v1.951h-3.34v3.806h-2.074V11.911h-3.357V9.96h3.357V6.4h2.074Zm10.934,4.79a1.22,1.22,0,0,1,.923.338,1.175,1.175,0,0,1,.325.848,1.134,1.134,0,0,1-.325.831,1.44,1.44,0,0,1-1.828,0,1.115,1.115,0,0,1-.334-.835,1.175,1.175,0,0,1,.325-.848A1.208,1.208,0,0,1,209.759,14.75Zm4.025,0a1.22,1.22,0,0,1,.923.338,1.175,1.175,0,0,1,.325.848,1.134,1.134,0,0,1-.325.831,1.44,1.44,0,0,1-1.828,0,1.115,1.115,0,0,1-.334-.835,1.175,1.175,0,0,1,.325-.848A1.208,1.208,0,0,1,213.784,14.75Zm3.876,0a1.22,1.22,0,0,1,.923.338,1.175,1.175,0,0,1,.325.848,1.134,1.134,0,0,1-.325.831,1.44,1.44,0,0,1-1.828,0,1.115,1.115,0,0,1-.334-.835,1.175,1.175,0,0,1,.325-.848A1.208,1.208,0,0,1,217.66,14.75Zm12.867-4.79h3.34v1.951h-3.34v3.806h-2.074V11.911H225.1V9.96h3.357V6.4h2.074Zm14.291,4.254L248.071,4.2h2.443L245.909,17h-2.153L239.167,4.2H241.6ZM256.262,11.8a13.393,13.393,0,0,1,.545-3.854,10.578,10.578,0,0,1,1.6-3.261,6.351,6.351,0,0,1,2.232-2.017l.422,1.248a6.524,6.524,0,0,0-2.008,2.87,12.852,12.852,0,0,0-.839,4.417l-.009.756a13.972,13.972,0,0,0,.751,4.75,7,7,0,0,0,2.1,3.177l-.422,1.187a6.362,6.362,0,0,1-2.237-2.026,10.577,10.577,0,0,1-1.6-3.261A13.921,13.921,0,0,1,256.262,11.8ZM271.6,8.826,274.288,4.2h2.566l-3.867,6.346L276.943,17H274.35L271.6,12.307,268.839,17h-2.584l3.964-6.451L266.343,4.2h2.566Zm7.481,8.627.036.641a1.994,1.994,0,0,1,1.615-.743q1.733,0,1.764,1.984V23h-1.246V19.406a1.142,1.142,0,0,0-.228-.782.96.96,0,0,0-.746-.254,1.2,1.2,0,0,0-1.123.682V23h-1.246V17.453Zm13.739-5.515a13.224,13.224,0,0,1-.536,3.766,10.671,10.671,0,0,1-1.626,3.3,6.367,6.367,0,0,1-2.276,2.061l-.422-1.187a6.754,6.754,0,0,0,2.087-3.116,13.84,13.84,0,0,0,.769-4.786v-.2a14.044,14.044,0,0,0-.668-4.452,7.852,7.852,0,0,0-1.916-3.221l-.272-.246.422-1.2A6.3,6.3,0,0,1,290.56,4.6a10.491,10.491,0,0,1,1.617,3.107,12.941,12.941,0,0,1,.633,3.546Zm14.467-1.793H299.71V8.369h7.576Zm0,3.727H299.71V12.1h7.576Zm8.78-6.381.062,1.1A3.419,3.419,0,0,1,318.9,7.314q2.971,0,3.023,3.4V17h-2.136V10.839a1.958,1.958,0,0,0-.391-1.34,1.645,1.645,0,0,0-1.279-.435,2.058,2.058,0,0,0-1.925,1.169V17h-2.136V7.49Zm17.42,1.67h-1.4v5.15a1.169,1.169,0,0,0,.215.787,1,1,0,0,0,.769.242,3.622,3.622,0,0,0,.747-.088V16.9a4.715,4.715,0,0,1-1.406.2q-2.461,0-2.461-2.716V9.16h-2.918V17H324.9V9.16h-1.5V7.49h10.09Zm6.258,2.637a13.393,13.393,0,0,1,.545-3.854,10.578,10.578,0,0,1,1.6-3.261,6.351,6.351,0,0,1,2.232-2.017l.422,1.248a6.524,6.524,0,0,0-2.008,2.87A12.852,12.852,0,0,0,341.7,11.2l-.009.756a13.972,13.972,0,0,0,.751,4.75,7,7,0,0,0,2.1,3.177l-.422,1.187a6.362,6.362,0,0,1-2.237-2.026,10.577,10.577,0,0,1-1.6-3.261A13.921,13.921,0,0,1,339.744,11.8ZM356.118,17h-2.127V6.719l-3.138,1.07V6l4.992-1.837h.272Zm13.21-4.579h-4.614V10.7h4.614ZM384.964,9.16h-1.4v5.15a1.169,1.169,0,0,0,.215.787,1,1,0,0,0,.769.242,3.622,3.622,0,0,0,.747-.088V16.9a4.715,4.715,0,0,1-1.406.2q-2.461,0-2.461-2.716V9.16h-2.918V17h-2.136V9.16h-1.5V7.49h10.09Zm10.345,2.777a13.224,13.224,0,0,1-.536,3.766,10.671,10.671,0,0,1-1.626,3.3,6.367,6.367,0,0,1-2.276,2.061l-.422-1.187a6.754,6.754,0,0,0,2.087-3.116,13.84,13.84,0,0,0,.769-4.786v-.2a14.044,14.044,0,0,0-.668-4.452,7.852,7.852,0,0,0-1.916-3.221l-.272-.246.422-1.2A6.3,6.3,0,0,1,393.05,4.6a10.491,10.491,0,0,1,1.617,3.107,12.941,12.941,0,0,1,.633,3.546Z" transform="translate(891 20005.324)" fill="#12263f"/>
  </g>
</svg>
