<svg id="Grupo_142439" data-name="Grupo 142439" xmlns="http://www.w3.org/2000/svg" width="92.506" height="92.506" viewBox="0 0 92.506 92.506">
  <circle id="Elipse_4868" data-name="Elipse 4868" cx="46.253" cy="46.253" r="46.253" transform="translate(0 0)" fill="#2e0877"/>
  <g id="VIJ9vr.tif" transform="translate(11.962 16.951)">
    <g id="Grupo_154926" data-name="Grupo 154926" transform="translate(0 0)">
      <path id="Trazado_195291" data-name="Trazado 195291" d="M-3329.31-1017.836h40.3a1.015,1.015,0,0,0,.214.117,5.036,5.036,0,0,1,3.965,5.111q0,13.078,0,26.156a5.03,5.03,0,0,1-5.083,5.108c-2.132.008-4.264,0-6.4,0h-.65v4.034c.131.012.232.023.334.03a4.893,4.893,0,0,1,4.5,3.738,32,32,0,0,1,.272,4.364h-.9c-5.975,0-11.949-.007-17.924.014a3.32,3.32,0,0,0-1.373.327,16.657,16.657,0,0,1-6.563,1.679,16.116,16.116,0,0,1-9.327-2.475.591.591,0,0,0-.529-.039c-.7.627-1.377,1.29-2.2,2.075l1.646,1.392c-3.335,3.36-6.521,6.713-9.868,9.9a5.236,5.236,0,0,1-8.293-1.76c-.2-.434-.333-.9-.5-1.351v-1.774a8.151,8.151,0,0,1,2.6-3.937c2.714-2.661,5.383-5.368,8.071-8.055.157-.156.322-.3.585-.553.5.546.958,1.039,1.335,1.449l2.2-2.212s-.037-.073-.081-.145a16.042,16.042,0,0,1-.716-16.218,2.28,2.28,0,0,0,.194-.967q.015-10.453.01-20.905a5.035,5.035,0,0,1,3.357-4.813C-3329.858-1017.646-3329.583-1017.74-3329.31-1017.836Zm36.349,24.35h-13.659a15.994,15.994,0,0,1,2.849,5.507c.132.467.339.57.784.568,3.822-.016,7.645-.009,11.468-.009h.571v-24.291h-36.43v14.232q9.634-4.908,18.308,1.448c1.261-3.051,1.261-3.051,4.309-5.131a5.1,5.1,0,0,1,.14-7.1,5.077,5.077,0,0,1,6.7-.389,4.95,4.95,0,0,1,1.882,3.2,5.1,5.1,0,0,1-1.333,4.309A7.319,7.319,0,0,1-3292.961-993.486Zm-10.079,10.121h.537q6.177,0,12.355,0a3.081,3.081,0,0,0,3.291-3.287q.007-12.924,0-25.848a3.085,3.085,0,0,0-3.334-3.308q-18.975,0-37.949,0a3.085,3.085,0,0,0-3.326,3.315q-.007,8.869,0,17.739c0,.175.024.351.041.578.56-.533,1.039-1.04,1.573-1.478a1.115,1.115,0,0,0,.423-.977q-.016-7.476-.006-14.951a2.013,2.013,0,0,1,2.2-2.194q18.055,0,36.111,0a2.013,2.013,0,0,1,2.231,2.23q0,11.942,0,23.884a2.025,2.025,0,0,1-2.26,2.267q-5.671,0-11.341,0h-.7C-3303.14-984.7-3303.093-984.076-3303.04-983.365Zm-16.262,14.192a14.26,14.26,0,0,0,14.2-14.177,14.256,14.256,0,0,0-14.16-14.213,14.255,14.255,0,0,0-14.229,14.206A14.258,14.258,0,0,0-3319.3-969.172Zm-17.25-1.521c-2.774,2.762-5.564,5.491-8.291,8.28a2.948,2.948,0,0,0-.616,3.185,3.261,3.261,0,0,0,5.456,1.191c2.626-2.6,5.228-5.217,7.837-7.83a1.941,1.941,0,0,0,.192-.253Zm28.256-.559h14.343c0-.348.009-.644,0-.938a3.048,3.048,0,0,0-3.064-3.06c-2.618-.027-5.235-.014-7.851,0a.818.818,0,0,0-.559.283C-3306.406-973.727-3307.358-972.472-3308.3-971.252Zm13.156-24.3a4.784,4.784,0,0,0-3.906-3.9,15.651,15.651,0,0,0-3.463-.092,4.834,4.834,0,0,0-4.446,3.988Zm-2.871-9.116a3.086,3.086,0,0,0-3.038-3.028,3.088,3.088,0,0,0-3.043,3.084,3.09,3.09,0,0,0,3.068,3A3.089,3.089,0,0,0-3298.01-1004.67Zm-1.051,27.37v-4.008h-4.064c-.352,1.362-.693,2.677-1.037,4.008Zm-32.388,4.743-1.867,1.877,1.343,1.518,1.966-1.987Z" transform="translate(3347.685 1017.836)" fill="#fff"/>
      <path id="Trazado_195292" data-name="Trazado 195292" d="M-3154.489-919.705h-17.125v-1.97h17.125Z" transform="translate(3193.971 933.886)" fill="#fff"/>
      <path id="Trazado_195293" data-name="Trazado 195293" d="M-3126.733-953.6v1.947h-13.115V-953.6Z" transform="translate(3166.24 961.759)" fill="#fff"/>
      <path id="Trazado_195294" data-name="Trazado 195294" d="M-3169.719-951.644h-1.922v-1.967h1.922Z" transform="translate(3193.996 961.766)" fill="#fff"/>
      <path id="Trazado_195295" data-name="Trazado 195295" d="M-3207.787-817.844a12.149,12.149,0,0,1-12.135-12.223,12.145,12.145,0,0,1,12.191-12.1,12.144,12.144,0,0,1,12.135,12.222A12.151,12.151,0,0,1-3207.787-817.844Zm-10.112-12.183a10.2,10.2,0,0,0,10.087,10.159,10.2,10.2,0,0,0,10.19-10.121,10.194,10.194,0,0,0-10.089-10.158A10.194,10.194,0,0,0-3217.9-830.027Z" transform="translate(3236.146 864.476)" fill="#fff"/>
      <path id="Trazado_195296" data-name="Trazado 195296" d="M-3189.905-788.81l4.357-4.344,1.862,1.937,5.985-6,4.422,4.421-10.315,10.315Zm6.265,3.595,7.526-7.53-1.543-1.589-6.014,6.028-1.816-1.911-1.586,1.545Z" transform="translate(3209.94 825.231)" fill="#fff"/>
    </g>
  </g>
</svg>
