<svg xmlns="http://www.w3.org/2000/svg" width="190" height="81" viewBox="0 0 190 81">
  <g id="Grupo_974146" data-name="Grupo 974146" transform="translate(-379.995 -3653.762)">
    <path id="Trazado_705316" data-name="Trazado 705316" d="M10,0H180a10,10,0,0,1,10,10V71a10,10,0,0,1-10,10H10A10,10,0,0,1,0,71V10A10,10,0,0,1,10,0Z" transform="translate(379.995 3653.762)" fill="#7125c8"/>
    <path id="Trazado_705317" data-name="Trazado 705317" d="M3.524-4.746V0H1.3V-12.8H6.2A4.95,4.95,0,0,1,9.6-11.679a3.757,3.757,0,0,1,1.261,2.956,3.633,3.633,0,0,1-1.235,2.93A5.19,5.19,0,0,1,6.17-4.746Zm0-1.793H6.2A2.632,2.632,0,0,0,8.007-7.1,2.051,2.051,0,0,0,8.631-8.71,2.213,2.213,0,0,0,8-10.367,2.439,2.439,0,0,0,6.258-11H3.524ZM12.63-5.2a13.393,13.393,0,0,1,.545-3.854,10.578,10.578,0,0,1,1.6-3.261,6.351,6.351,0,0,1,2.232-2.017l.422,1.248a6.524,6.524,0,0,0-2.008,2.87A12.852,12.852,0,0,0,14.581-5.8l-.009.756a13.972,13.972,0,0,0,.751,4.75,7,7,0,0,0,2.1,3.177l-.422,1.187A6.362,6.362,0,0,1,14.77,2.043a10.577,10.577,0,0,1-1.6-3.261A13.921,13.921,0,0,1,12.63-5.2ZM19.081,0V-12.8h4.386a5.354,5.354,0,0,1,3.3.87,3.065,3.065,0,0,1,1.134,2.593,2.763,2.763,0,0,1-.475,1.582,3.055,3.055,0,0,1-1.389,1.09,2.825,2.825,0,0,1,1.6,1.059,3.085,3.085,0,0,1,.567,1.868A3.407,3.407,0,0,1,27.057-.967,5.025,5.025,0,0,1,23.748,0ZM21.3-5.774v4h2.47a2.39,2.39,0,0,0,1.635-.519A1.82,1.82,0,0,0,26-3.735a1.826,1.826,0,0,0-2.039-2.039Zm0-1.635h2.18a2.521,2.521,0,0,0,1.622-.47,1.611,1.611,0,0,0,.584-1.332,1.633,1.633,0,0,0-.541-1.371A2.73,2.73,0,0,0,23.467-11H21.3ZM34.348-5.062A13.224,13.224,0,0,1,33.812-1.3a10.671,10.671,0,0,1-1.626,3.3,6.367,6.367,0,0,1-2.276,2.061l-.422-1.187A6.754,6.754,0,0,0,31.575-.233a13.84,13.84,0,0,0,.769-4.786v-.2a14.044,14.044,0,0,0-.668-4.452,7.852,7.852,0,0,0-1.916-3.221l-.272-.246.422-1.2a6.3,6.3,0,0,1,2.18,1.934,10.491,10.491,0,0,1,1.617,3.107,12.941,12.941,0,0,1,.633,3.546ZM48.814-6.855H41.238V-8.631h7.576Zm0,3.727H41.238V-4.9h7.576Z" transform="translate(428.995 3700.762)" fill="#fff"/>
    <path id="Trazado_705318" data-name="Trazado 705318" d="M6.741,0H4.614V-10.281L1.477-9.211V-11l4.992-1.837h.272Z" transform="translate(502.995 3688.762)" fill="#fff"/>
    <path id="Trazado_704711" data-name="Trazado 704711" d="M-8334.53,21212.5h28.386" transform="translate(8827.995 -17518.238)" fill="#fff" stroke="#fff" stroke-width="1"/>
    <path id="Trazado_705319" data-name="Trazado 705319" d="M8.183-4.562H9.773v1.714H8.183V0H6.047V-2.848H.519l-.062-1.3L5.977-12.8H8.183Zm-5.484,0H6.047V-9.905l-.158.281Z" transform="translate(502.995 3712.762)" fill="#fff"/>
  </g>
</svg>
