<svg xmlns="http://www.w3.org/2000/svg" width="401.399" height="205.501" viewBox="0 0 401.399 205.501">
  <g id="Grupo_169197" data-name="Grupo 169197" transform="translate(6269.503 8358.847)">
    <g id="Trazado_705074" data-name="Trazado 705074" transform="translate(-6250.804 -8358.847)" fill="none">
      <path d="M0,0H382.7V187.307H0Z" stroke="none"/>
      <path d="M 0.999969482421875 1.000015258789062 L 0.999969482421875 186.3074035644531 L 381.7000122070312 186.3074035644531 L 381.7000122070312 1.000015258789062 L 0.999969482421875 1.000015258789062 M -3.0517578125e-05 1.52587890625e-05 L 382.7000122070312 1.52587890625e-05 L 382.7000122070312 187.3074035644531 L -3.0517578125e-05 187.3074035644531 L -3.0517578125e-05 1.52587890625e-05 Z" stroke="none" fill="#12263f"/>
    </g>
    <path id="Trazado_204666" data-name="Trazado 204666" d="M-6397.721-7912.052h-4.96" transform="translate(146.916 -419.915)" fill="none" stroke="#12263f" stroke-width="1"/>
    <path id="Trazado_204667" data-name="Trazado 204667" d="M-6397.721-7912.052h-4.96" transform="translate(146.916 -380.836)" fill="none" stroke="#12263f" stroke-width="1"/>
    <path id="Trazado_204668" data-name="Trazado 204668" d="M-6397.721-7912.052h-4.96" transform="translate(146.916 -343.105)" fill="none" stroke="#12263f" stroke-width="1"/>
    <path id="Trazado_204669" data-name="Trazado 204669" d="M-6397.721-7912.052h-4.96" transform="translate(146.916 -305.374)" fill="none" stroke="#12263f" stroke-width="1"/>
    <path id="Trazado_204670" data-name="Trazado 204670" d="M-6397.721-7912.052h-4.96" transform="translate(146.916 -268.991)" fill="none" stroke="#12263f" stroke-width="1"/>
    <path id="Trazado_204671" data-name="Trazado 204671" d="M4.961,0H0" transform="translate(-6235.766 -8167.782) rotate(-90)" fill="none" stroke="#12263f" stroke-width="1"/>
    <path id="Trazado_204672" data-name="Trazado 204672" d="M4.961,0H0" transform="translate(-6148.177 -8167.782) rotate(-90)" fill="none" stroke="#12263f" stroke-width="1"/>
    <path id="Trazado_204673" data-name="Trazado 204673" d="M4.961,0H0" transform="translate(-6059.454 -8167.782) rotate(-90)" fill="none" stroke="#12263f" stroke-width="1"/>
    <path id="Trazado_204674" data-name="Trazado 204674" d="M4.961,0H0" transform="translate(-5971.864 -8167.782) rotate(-90)" fill="none" stroke="#12263f" stroke-width="1"/>
    <path id="Trazado_204675" data-name="Trazado 204675" d="M4.961,0H0" transform="translate(-5882.927 -8167.782) rotate(-90)" fill="none" stroke="#12263f" stroke-width="1"/>
    <path id="Trazado_705075" data-name="Trazado 705075" d="M4.544-2.729A3.718,3.718,0,0,1,4.056-.606,1.735,1.735,0,0,1,2.531.088,1.747,1.747,0,0,1,1.015-.591a3.529,3.529,0,0,1-.51-2.028V-3.7A3.636,3.636,0,0,1,.993-5.8a1.748,1.748,0,0,1,1.529-.686,1.764,1.764,0,0,1,1.521.661,3.508,3.508,0,0,1,.5,2.041ZM3.731-3.841a2.979,2.979,0,0,0-.29-1.505,1,1,0,0,0-.918-.472.985.985,0,0,0-.91.47A2.909,2.909,0,0,0,1.318-3.9v1.3a3.027,3.027,0,0,0,.3,1.531,1,1,0,0,0,.912.494.983.983,0,0,0,.894-.466,2.917,2.917,0,0,0,.305-1.468ZM5.643,1.274,5.181.958A2.121,2.121,0,0,0,5.612-.229V-.962h.8v.637A2,2,0,0,1,6.19.563,2.078,2.078,0,0,1,5.643,1.274Zm5.142-3.423h.888v.664h-.888V0H9.967V-1.485H7.053v-.479L9.918-6.4h.866Zm-2.808,0H9.967V-5.287l-.1.176Z" transform="translate(-6263.017 -8326.506) rotate(-90)" fill="#12263f"/>
    <path id="Trazado_705076" data-name="Trazado 705076" d="M4.544-2.729A3.718,3.718,0,0,1,4.056-.606,1.735,1.735,0,0,1,2.531.088,1.747,1.747,0,0,1,1.015-.591a3.529,3.529,0,0,1-.51-2.028V-3.7A3.636,3.636,0,0,1,.993-5.8a1.748,1.748,0,0,1,1.529-.686,1.764,1.764,0,0,1,1.521.661,3.508,3.508,0,0,1,.5,2.041ZM3.731-3.841a2.979,2.979,0,0,0-.29-1.505,1,1,0,0,0-.918-.472.985.985,0,0,0-.91.47A2.909,2.909,0,0,0,1.318-3.9v1.3a3.027,3.027,0,0,0,.3,1.531,1,1,0,0,0,.912.494.983.983,0,0,0,.894-.466,2.917,2.917,0,0,0,.305-1.468ZM5.643,1.274,5.181.958A2.121,2.121,0,0,0,5.612-.229V-.962h.8v.637A2,2,0,0,1,6.19.563,2.078,2.078,0,0,1,5.643,1.274ZM8.534-3.595h.611a1.343,1.343,0,0,0,.905-.3,1.013,1.013,0,0,0,.33-.8A.992.992,0,0,0,9.259-5.818a1.166,1.166,0,0,0-.842.3,1.054,1.054,0,0,0-.314.8H7.291a1.632,1.632,0,0,1,.556-1.263,2.025,2.025,0,0,1,1.413-.5,2,2,0,0,1,1.419.479,1.73,1.73,0,0,1,.514,1.332,1.4,1.4,0,0,1-.27.809,1.632,1.632,0,0,1-.736.584A1.572,1.572,0,0,1,11-2.729a1.538,1.538,0,0,1,.288.945,1.745,1.745,0,0,1-.562,1.367A2.106,2.106,0,0,1,9.264.088,2.162,2.162,0,0,1,7.8-.4a1.618,1.618,0,0,1-.565-1.288h.817a1.046,1.046,0,0,0,.33.809,1.254,1.254,0,0,0,.883.3,1.23,1.23,0,0,0,.9-.308,1.186,1.186,0,0,0,.312-.883,1.076,1.076,0,0,0-.343-.857,1.493,1.493,0,0,0-.989-.308H8.534Z" transform="translate(-6263.017 -8287.428) rotate(-90)" fill="#12263f"/>
    <path id="Trazado_705077" data-name="Trazado 705077" d="M4.544-2.729A3.718,3.718,0,0,1,4.056-.606,1.735,1.735,0,0,1,2.531.088,1.747,1.747,0,0,1,1.015-.591a3.529,3.529,0,0,1-.51-2.028V-3.7A3.636,3.636,0,0,1,.993-5.8a1.748,1.748,0,0,1,1.529-.686,1.764,1.764,0,0,1,1.521.661,3.508,3.508,0,0,1,.5,2.041ZM3.731-3.841a2.979,2.979,0,0,0-.29-1.505,1,1,0,0,0-.918-.472.985.985,0,0,0-.91.47A2.909,2.909,0,0,0,1.318-3.9v1.3a3.027,3.027,0,0,0,.3,1.531,1,1,0,0,0,.912.494.983.983,0,0,0,.894-.466,2.917,2.917,0,0,0,.305-1.468ZM5.643,1.274,5.181.958A2.121,2.121,0,0,0,5.612-.229V-.962h.8v.637A2,2,0,0,1,6.19.563,2.078,2.078,0,0,1,5.643,1.274ZM11.544,0H7.352V-.584L9.567-3.045a5.262,5.262,0,0,0,.679-.907,1.515,1.515,0,0,0,.187-.723,1.148,1.148,0,0,0-.3-.822,1.06,1.06,0,0,0-.809-.321,1.256,1.256,0,0,0-.943.345,1.318,1.318,0,0,0-.336.96H7.229A1.887,1.887,0,0,1,7.8-5.941a2.11,2.11,0,0,1,1.523-.545,2.027,2.027,0,0,1,1.411.468,1.6,1.6,0,0,1,.519,1.246,3.66,3.66,0,0,1-1.2,2.25L8.332-.664h3.212Z" transform="translate(-6263.017 -8248.349) rotate(-90)" fill="#12263f"/>
    <path id="Trazado_705078" data-name="Trazado 705078" d="M4.544-2.729A3.718,3.718,0,0,1,4.056-.606,1.735,1.735,0,0,1,2.531.088,1.747,1.747,0,0,1,1.015-.591a3.529,3.529,0,0,1-.51-2.028V-3.7A3.636,3.636,0,0,1,.993-5.8a1.748,1.748,0,0,1,1.529-.686,1.764,1.764,0,0,1,1.521.661,3.508,3.508,0,0,1,.5,2.041ZM3.731-3.841a2.979,2.979,0,0,0-.29-1.505,1,1,0,0,0-.918-.472.985.985,0,0,0-.91.47A2.909,2.909,0,0,0,1.318-3.9v1.3a3.027,3.027,0,0,0,.3,1.531,1,1,0,0,0,.912.494.983.983,0,0,0,.894-.466,2.917,2.917,0,0,0,.305-1.468ZM5.643,1.274,5.181.958A2.121,2.121,0,0,0,5.612-.229V-.962h.8v.637A2,2,0,0,1,6.19.563,2.078,2.078,0,0,1,5.643,1.274ZM10.024,0H9.207V-5.418l-1.639.6v-.738L9.9-6.429h.127Z" transform="translate(-6263.017 -8211.966) rotate(-90)" fill="#12263f"/>
    <path id="Trazado_705079" data-name="Trazado 705079" d="M2.307-2.386H.163V-3.05H2.307Zm4.14.237h.888v.664H6.447V0H5.629V-1.485H2.716v-.479L5.581-6.4h.866Zm-2.808,0H5.629V-5.287l-.1.176Z" transform="translate(-6240.483 -8153.433)" fill="#12263f"/>
    <path id="Trazado_705080" data-name="Trazado 705080" d="M2.307-2.386H.163V-3.05H2.307ZM7.207,0H3.015V-.584L5.229-3.045a5.262,5.262,0,0,0,.679-.907A1.515,1.515,0,0,0,6.1-4.676a1.148,1.148,0,0,0-.3-.822,1.06,1.06,0,0,0-.809-.321,1.256,1.256,0,0,0-.943.345,1.318,1.318,0,0,0-.336.96H2.892a1.887,1.887,0,0,1,.569-1.428,2.11,2.11,0,0,1,1.523-.545,2.027,2.027,0,0,1,1.411.468,1.6,1.6,0,0,1,.519,1.246,3.66,3.66,0,0,1-1.2,2.25L3.995-.664H7.207Z" transform="translate(-6152.893 -8153.433)" fill="#12263f"/>
    <path id="Trazado_705081" data-name="Trazado 705081" d="M4.544-2.729A3.718,3.718,0,0,1,4.056-.606,1.735,1.735,0,0,1,2.531.088,1.747,1.747,0,0,1,1.015-.591a3.529,3.529,0,0,1-.51-2.028V-3.7A3.636,3.636,0,0,1,.993-5.8a1.748,1.748,0,0,1,1.529-.686,1.764,1.764,0,0,1,1.521.661,3.508,3.508,0,0,1,.5,2.041ZM3.731-3.841a2.979,2.979,0,0,0-.29-1.505,1,1,0,0,0-.918-.472.985.985,0,0,0-.91.47A2.909,2.909,0,0,0,1.318-3.9v1.3a3.027,3.027,0,0,0,.3,1.531,1,1,0,0,0,.912.494.983.983,0,0,0,.894-.466,2.917,2.917,0,0,0,.305-1.468Z" transform="translate(-6062.608 -8153.433)" fill="#12263f"/>
    <path id="Trazado_705082" data-name="Trazado 705082" d="M4.724,0H.532V-.584L2.747-3.045a5.262,5.262,0,0,0,.679-.907,1.515,1.515,0,0,0,.187-.723,1.148,1.148,0,0,0-.3-.822A1.06,1.06,0,0,0,2.5-5.818a1.256,1.256,0,0,0-.943.345,1.318,1.318,0,0,0-.336.96H.409A1.887,1.887,0,0,1,.978-5.941,2.11,2.11,0,0,1,2.5-6.486a2.027,2.027,0,0,1,1.411.468A1.6,1.6,0,0,1,4.43-4.772a3.66,3.66,0,0,1-1.2,2.25L1.512-.664H4.724Z" transform="translate(-5974.559 -8153.433)" fill="#12263f"/>
    <path id="Trazado_705083" data-name="Trazado 705083" d="M3.964-2.149h.888v.664H3.964V0H3.146V-1.485H.233v-.479L3.1-6.4h.866Zm-2.808,0H3.146V-5.287l-.1.176Z" transform="translate(-5886.51 -8153.433)" fill="#12263f"/>
    <path id="Trazado_705084" data-name="Trazado 705084" d="M4.544-2.729A3.718,3.718,0,0,1,4.056-.606,1.735,1.735,0,0,1,2.531.088,1.747,1.747,0,0,1,1.015-.591a3.529,3.529,0,0,1-.51-2.028V-3.7A3.636,3.636,0,0,1,.993-5.8a1.748,1.748,0,0,1,1.529-.686,1.764,1.764,0,0,1,1.521.661,3.508,3.508,0,0,1,.5,2.041ZM3.731-3.841a2.979,2.979,0,0,0-.29-1.505,1,1,0,0,0-.918-.472.985.985,0,0,0-.91.47A2.909,2.909,0,0,0,1.318-3.9v1.3a3.027,3.027,0,0,0,.3,1.531,1,1,0,0,0,.912.494.983.983,0,0,0,.894-.466,2.917,2.917,0,0,0,.305-1.468ZM5.643,1.274,5.181.958A2.121,2.121,0,0,0,5.612-.229V-.962h.8v.637A2,2,0,0,1,6.19.563,2.078,2.078,0,0,1,5.643,1.274Zm5.722-4a3.718,3.718,0,0,1-.488,2.123A1.735,1.735,0,0,1,9.352.088,1.747,1.747,0,0,1,7.835-.591a3.529,3.529,0,0,1-.51-2.028V-3.7a3.636,3.636,0,0,1,.488-2.1,1.748,1.748,0,0,1,1.529-.686,1.764,1.764,0,0,1,1.521.661,3.508,3.508,0,0,1,.5,2.041Zm-.813-1.112a2.979,2.979,0,0,0-.29-1.505,1,1,0,0,0-.918-.472.985.985,0,0,0-.91.47A2.909,2.909,0,0,0,8.139-3.9v1.3a3.027,3.027,0,0,0,.3,1.531,1,1,0,0,0,.912.494.983.983,0,0,0,.894-.466,2.917,2.917,0,0,0,.305-1.468Z" transform="translate(-6263.017 -8175.583) rotate(-90)" fill="#12263f"/>
    <path id="Trazado_204676" data-name="Trazado 204676" d="M-6387.841-7772.262s79,1.866,103.178-28.951,57.8-89.613,60.525-91.519,14.1-15.189,24.83,2.974,47.605,79.16,55.075,84.345,26.34,32.27,109.034,36.06" transform="translate(152.074 -415.448)" fill="none" stroke="#2e0877" stroke-width="4"/>
    <path id="Trazado_204677" data-name="Trazado 204677" d="M-6387.841-7760.931s64.654,6.087,84.018-15.629,46.393-71.569,59.892-100.241,24.14-39.773,36.749-34.583,20.537,22.5,20.537,22.5,39.118,80.5,42.147,82.526,10.6,30.973,45.185,39.8a199.432,199.432,0,0,0,63.9,5.633" transform="translate(152.074 -420.112)" fill="none" stroke="#cfb7ff" stroke-width="3"/>
  </g>
</svg>
