<svg xmlns="http://www.w3.org/2000/svg" width="440" height="245" viewBox="0 0 440 245">
  <g id="Grupo_165798" data-name="Grupo 165798" transform="translate(-580 -20243)">
    <path id="Trazado_178026" data-name="Trazado 178026" d="M0,0H440V245H0Z" transform="translate(580 20243)" fill="#f6f6f6"/>
    <path id="Trazado_177505" data-name="Trazado 177505" d="M95,0A95,95,0,1,1,0,95,95,95,0,0,1,95,0Z" transform="translate(600 20267)" fill="#2e0877"/>
    <path id="Trazado_177506" data-name="Trazado 177506" d="M3.258-11.375,6.977-2.094,10.7-11.375h1.945V0h-1.5V-4.43l.141-4.781L7.547,0H6.4L2.672-9.187,2.82-4.43V0H1.32V-11.375ZM20.281-.836A3.07,3.07,0,0,1,17.8.156a2.628,2.628,0,0,1-2.059-.785,3.4,3.4,0,0,1-.715-2.324v-5.5h1.445v5.461q0,1.922,1.563,1.922a2.163,2.163,0,0,0,2.2-1.234V-8.453h1.445V0H20.313Zm7.109.992a3.693,3.693,0,0,1-2.8-1.129,4.19,4.19,0,0,1-1.078-3.02v-.266A5.073,5.073,0,0,1,24-6.5,3.748,3.748,0,0,1,25.34-8.051a3.378,3.378,0,0,1,1.871-.559,3.166,3.166,0,0,1,2.563,1.086,4.7,4.7,0,0,1,.914,3.109v.6H24.961a3,3,0,0,0,.73,2.02,2.3,2.3,0,0,0,1.777.77,2.517,2.517,0,0,0,1.3-.312,3.259,3.259,0,0,0,.93-.828l.883.688A3.55,3.55,0,0,1,27.391.156Zm-.18-7.578a1.928,1.928,0,0,0-1.469.637A3.1,3.1,0,0,0,25.008-5h4.234v-.109a2.753,2.753,0,0,0-.594-1.707A1.815,1.815,0,0,0,27.211-7.422Zm10.07,5.18a1.064,1.064,0,0,0-.441-.91A4.249,4.249,0,0,0,35.3-3.711a7.277,7.277,0,0,1-1.742-.562,2.479,2.479,0,0,1-.953-.781A1.869,1.869,0,0,1,32.3-6.133a2.193,2.193,0,0,1,.879-1.758,3.432,3.432,0,0,1,2.246-.719,3.532,3.532,0,0,1,2.332.742,2.357,2.357,0,0,1,.895,1.9H37.2a1.3,1.3,0,0,0-.5-1.023,1.888,1.888,0,0,0-1.27-.43,1.976,1.976,0,0,0-1.234.344,1.082,1.082,0,0,0-.445.9.877.877,0,0,0,.414.789,5.1,5.1,0,0,0,1.5.508,7.8,7.8,0,0,1,1.754.578,2.558,2.558,0,0,1,1,.809,1.988,1.988,0,0,1,.324,1.152A2.163,2.163,0,0,1,37.82-.527a3.8,3.8,0,0,1-2.352.684,4.257,4.257,0,0,1-1.8-.359,2.922,2.922,0,0,1-1.223-1A2.42,2.42,0,0,1,32.008-2.6h1.445a1.5,1.5,0,0,0,.582,1.152,2.258,2.258,0,0,0,1.434.426,2.331,2.331,0,0,0,1.316-.332A1.02,1.02,0,0,0,37.281-2.242ZM42.57-10.5v2.047h1.578v1.117H42.57v5.242a1.171,1.171,0,0,0,.211.762.888.888,0,0,0,.719.254,3.5,3.5,0,0,0,.688-.094V0a4.19,4.19,0,0,1-1.109.156A1.8,1.8,0,0,1,41.617-.43a2.517,2.517,0,0,1-.492-1.664V-7.336H39.586V-8.453h1.539V-10.5Zm7.352,3.344a4.331,4.331,0,0,0-.711-.055A1.9,1.9,0,0,0,47.281-6V0H45.836V-8.453h1.406l.023.977a2.251,2.251,0,0,1,2.016-1.133,1.477,1.477,0,0,1,.641.109ZM56.156,0a3.036,3.036,0,0,1-.2-.891A3.225,3.225,0,0,1,53.547.156,2.984,2.984,0,0,1,51.5-.551a2.287,2.287,0,0,1-.8-1.793,2.39,2.39,0,0,1,1-2.051,4.733,4.733,0,0,1,2.824-.73H55.93v-.664A1.623,1.623,0,0,0,55.477-7a1.821,1.821,0,0,0-1.336-.449,2.107,2.107,0,0,0-1.3.391,1.151,1.151,0,0,0-.523.945H50.867a2,2,0,0,1,.449-1.223,3.066,3.066,0,0,1,1.219-.934,4.1,4.1,0,0,1,1.691-.344,3.342,3.342,0,0,1,2.289.73,2.635,2.635,0,0,1,.859,2.012v3.891a4.757,4.757,0,0,0,.3,1.852V0Zm-2.4-1.1a2.54,2.54,0,0,0,1.289-.352,2.127,2.127,0,0,0,.883-.914V-4.1H54.8q-2.656,0-2.656,1.555a1.316,1.316,0,0,0,.453,1.063A1.742,1.742,0,0,0,53.758-1.1ZM68.2,0H66.75V-9.633l-2.914,1.07V-9.875l4.141-1.555H68.2Z" transform="translate(658 20316)" fill="#fff"/>
    <path id="Trazado_177507" data-name="Trazado 177507" d="M3.258-11.375,6.977-2.094,10.7-11.375h1.945V0h-1.5V-4.43l.141-4.781L7.547,0H6.4L2.672-9.187,2.82-4.43V0H1.32V-11.375ZM20.281-.836A3.07,3.07,0,0,1,17.8.156a2.628,2.628,0,0,1-2.059-.785,3.4,3.4,0,0,1-.715-2.324v-5.5h1.445v5.461q0,1.922,1.563,1.922a2.163,2.163,0,0,0,2.2-1.234V-8.453h1.445V0H20.313Zm7.109.992a3.693,3.693,0,0,1-2.8-1.129,4.19,4.19,0,0,1-1.078-3.02v-.266A5.073,5.073,0,0,1,24-6.5,3.748,3.748,0,0,1,25.34-8.051a3.378,3.378,0,0,1,1.871-.559,3.166,3.166,0,0,1,2.563,1.086,4.7,4.7,0,0,1,.914,3.109v.6H24.961a3,3,0,0,0,.73,2.02,2.3,2.3,0,0,0,1.777.77,2.517,2.517,0,0,0,1.3-.312,3.259,3.259,0,0,0,.93-.828l.883.688A3.55,3.55,0,0,1,27.391.156Zm-.18-7.578a1.928,1.928,0,0,0-1.469.637A3.1,3.1,0,0,0,25.008-5h4.234v-.109a2.753,2.753,0,0,0-.594-1.707A1.815,1.815,0,0,0,27.211-7.422Zm10.07,5.18a1.064,1.064,0,0,0-.441-.91A4.249,4.249,0,0,0,35.3-3.711a7.277,7.277,0,0,1-1.742-.562,2.479,2.479,0,0,1-.953-.781A1.869,1.869,0,0,1,32.3-6.133a2.193,2.193,0,0,1,.879-1.758,3.432,3.432,0,0,1,2.246-.719,3.532,3.532,0,0,1,2.332.742,2.357,2.357,0,0,1,.895,1.9H37.2a1.3,1.3,0,0,0-.5-1.023,1.888,1.888,0,0,0-1.27-.43,1.976,1.976,0,0,0-1.234.344,1.082,1.082,0,0,0-.445.9.877.877,0,0,0,.414.789,5.1,5.1,0,0,0,1.5.508,7.8,7.8,0,0,1,1.754.578,2.558,2.558,0,0,1,1,.809,1.988,1.988,0,0,1,.324,1.152A2.163,2.163,0,0,1,37.82-.527a3.8,3.8,0,0,1-2.352.684,4.257,4.257,0,0,1-1.8-.359,2.922,2.922,0,0,1-1.223-1A2.42,2.42,0,0,1,32.008-2.6h1.445a1.5,1.5,0,0,0,.582,1.152,2.258,2.258,0,0,0,1.434.426,2.331,2.331,0,0,0,1.316-.332A1.02,1.02,0,0,0,37.281-2.242ZM42.57-10.5v2.047h1.578v1.117H42.57v5.242a1.171,1.171,0,0,0,.211.762.888.888,0,0,0,.719.254,3.5,3.5,0,0,0,.688-.094V0a4.19,4.19,0,0,1-1.109.156A1.8,1.8,0,0,1,41.617-.43a2.517,2.517,0,0,1-.492-1.664V-7.336H39.586V-8.453h1.539V-10.5Zm7.352,3.344a4.331,4.331,0,0,0-.711-.055A1.9,1.9,0,0,0,47.281-6V0H45.836V-8.453h1.406l.023.977a2.251,2.251,0,0,1,2.016-1.133,1.477,1.477,0,0,1,.641.109ZM56.156,0a3.036,3.036,0,0,1-.2-.891A3.225,3.225,0,0,1,53.547.156,2.984,2.984,0,0,1,51.5-.551a2.287,2.287,0,0,1-.8-1.793,2.39,2.39,0,0,1,1-2.051,4.733,4.733,0,0,1,2.824-.73H55.93v-.664A1.623,1.623,0,0,0,55.477-7a1.821,1.821,0,0,0-1.336-.449,2.107,2.107,0,0,0-1.3.391,1.151,1.151,0,0,0-.523.945H50.867a2,2,0,0,1,.449-1.223,3.066,3.066,0,0,1,1.219-.934,4.1,4.1,0,0,1,1.691-.344,3.342,3.342,0,0,1,2.289.73,2.635,2.635,0,0,1,.859,2.012v3.891a4.757,4.757,0,0,0,.3,1.852V0Zm-2.4-1.1a2.54,2.54,0,0,0,1.289-.352,2.127,2.127,0,0,0,.883-.914V-4.1H54.8q-2.656,0-2.656,1.555a1.316,1.316,0,0,0,.453,1.063A1.742,1.742,0,0,0,53.758-1.1ZM70.906,0H63.453V-1.039l3.938-4.375A9.354,9.354,0,0,0,68.6-7.027a2.693,2.693,0,0,0,.332-1.285,2.041,2.041,0,0,0-.539-1.461,1.885,1.885,0,0,0-1.437-.57,2.232,2.232,0,0,0-1.676.613,2.343,2.343,0,0,0-.6,1.707H63.234a3.355,3.355,0,0,1,1.012-2.539,3.751,3.751,0,0,1,2.707-.969,3.6,3.6,0,0,1,2.508.832,2.838,2.838,0,0,1,.922,2.215q0,1.68-2.141,4L65.2-1.18h5.711Z" transform="translate(658 20350)" fill="#fff"/>
    <path id="Trazado_177513" data-name="Trazado 177513" d="M3.258-11.375,6.977-2.094,10.7-11.375h1.945V0h-1.5V-4.43l.141-4.781L7.547,0H6.4L2.672-9.187,2.82-4.43V0H1.32V-11.375ZM20.281-.836A3.07,3.07,0,0,1,17.8.156a2.628,2.628,0,0,1-2.059-.785,3.4,3.4,0,0,1-.715-2.324v-5.5h1.445v5.461q0,1.922,1.563,1.922a2.163,2.163,0,0,0,2.2-1.234V-8.453h1.445V0H20.313Zm7.109.992a3.693,3.693,0,0,1-2.8-1.129,4.19,4.19,0,0,1-1.078-3.02v-.266A5.073,5.073,0,0,1,24-6.5,3.748,3.748,0,0,1,25.34-8.051a3.378,3.378,0,0,1,1.871-.559,3.166,3.166,0,0,1,2.563,1.086,4.7,4.7,0,0,1,.914,3.109v.6H24.961a3,3,0,0,0,.73,2.02,2.3,2.3,0,0,0,1.777.77,2.517,2.517,0,0,0,1.3-.312,3.259,3.259,0,0,0,.93-.828l.883.688A3.55,3.55,0,0,1,27.391.156Zm-.18-7.578a1.928,1.928,0,0,0-1.469.637A3.1,3.1,0,0,0,25.008-5h4.234v-.109a2.753,2.753,0,0,0-.594-1.707A1.815,1.815,0,0,0,27.211-7.422Zm10.07,5.18a1.064,1.064,0,0,0-.441-.91A4.249,4.249,0,0,0,35.3-3.711a7.277,7.277,0,0,1-1.742-.562,2.479,2.479,0,0,1-.953-.781A1.869,1.869,0,0,1,32.3-6.133a2.193,2.193,0,0,1,.879-1.758,3.432,3.432,0,0,1,2.246-.719,3.532,3.532,0,0,1,2.332.742,2.357,2.357,0,0,1,.895,1.9H37.2a1.3,1.3,0,0,0-.5-1.023,1.888,1.888,0,0,0-1.27-.43,1.976,1.976,0,0,0-1.234.344,1.082,1.082,0,0,0-.445.9.877.877,0,0,0,.414.789,5.1,5.1,0,0,0,1.5.508,7.8,7.8,0,0,1,1.754.578,2.558,2.558,0,0,1,1,.809,1.988,1.988,0,0,1,.324,1.152A2.163,2.163,0,0,1,37.82-.527a3.8,3.8,0,0,1-2.352.684,4.257,4.257,0,0,1-1.8-.359,2.922,2.922,0,0,1-1.223-1A2.42,2.42,0,0,1,32.008-2.6h1.445a1.5,1.5,0,0,0,.582,1.152,2.258,2.258,0,0,0,1.434.426,2.331,2.331,0,0,0,1.316-.332A1.02,1.02,0,0,0,37.281-2.242ZM42.57-10.5v2.047h1.578v1.117H42.57v5.242a1.171,1.171,0,0,0,.211.762.888.888,0,0,0,.719.254,3.5,3.5,0,0,0,.688-.094V0a4.19,4.19,0,0,1-1.109.156A1.8,1.8,0,0,1,41.617-.43a2.517,2.517,0,0,1-.492-1.664V-7.336H39.586V-8.453h1.539V-10.5Zm7.352,3.344a4.331,4.331,0,0,0-.711-.055A1.9,1.9,0,0,0,47.281-6V0H45.836V-8.453h1.406l.023.977a2.251,2.251,0,0,1,2.016-1.133,1.477,1.477,0,0,1,.641.109ZM56.156,0a3.036,3.036,0,0,1-.2-.891A3.225,3.225,0,0,1,53.547.156,2.984,2.984,0,0,1,51.5-.551a2.287,2.287,0,0,1-.8-1.793,2.39,2.39,0,0,1,1-2.051,4.733,4.733,0,0,1,2.824-.73H55.93v-.664A1.623,1.623,0,0,0,55.477-7a1.821,1.821,0,0,0-1.336-.449,2.107,2.107,0,0,0-1.3.391,1.151,1.151,0,0,0-.523.945H50.867a2,2,0,0,1,.449-1.223,3.066,3.066,0,0,1,1.219-.934,4.1,4.1,0,0,1,1.691-.344,3.342,3.342,0,0,1,2.289.73,2.635,2.635,0,0,1,.859,2.012v3.891a4.757,4.757,0,0,0,.3,1.852V0Zm-2.4-1.1a2.54,2.54,0,0,0,1.289-.352,2.127,2.127,0,0,0,.883-.914V-4.1H54.8q-2.656,0-2.656,1.555a1.316,1.316,0,0,0,.453,1.063A1.742,1.742,0,0,0,53.758-1.1Zm11.8-5.289h1.086A2.387,2.387,0,0,0,68.25-6.93a1.8,1.8,0,0,0,.586-1.414,1.764,1.764,0,0,0-1.992-2,2.072,2.072,0,0,0-1.5.535,1.873,1.873,0,0,0-.559,1.418H63.344a2.9,2.9,0,0,1,.988-2.246,3.6,3.6,0,0,1,2.512-.895,3.558,3.558,0,0,1,2.523.852,3.076,3.076,0,0,1,.914,2.367,2.5,2.5,0,0,1-.48,1.438,2.9,2.9,0,0,1-1.309,1.039,2.8,2.8,0,0,1,1.449.984,2.734,2.734,0,0,1,.512,1.68,3.1,3.1,0,0,1-1,2.43,3.745,3.745,0,0,1-2.6.9,3.844,3.844,0,0,1-2.605-.867,2.877,2.877,0,0,1-1-2.289H64.7a1.859,1.859,0,0,0,.586,1.438,2.229,2.229,0,0,0,1.57.539,2.187,2.187,0,0,0,1.6-.547,2.108,2.108,0,0,0,.555-1.57A1.912,1.912,0,0,0,68.4-4.664a2.655,2.655,0,0,0-1.758-.547H65.555Z" transform="translate(658 20385)" fill="#fff"/>
    <path id="Trazado_177521" data-name="Trazado 177521" d="M3.258-11.375,6.977-2.094,10.7-11.375h1.945V0h-1.5V-4.43l.141-4.781L7.547,0H6.4L2.672-9.187,2.82-4.43V0H1.32V-11.375ZM20.281-.836A3.07,3.07,0,0,1,17.8.156a2.628,2.628,0,0,1-2.059-.785,3.4,3.4,0,0,1-.715-2.324v-5.5h1.445v5.461q0,1.922,1.563,1.922a2.163,2.163,0,0,0,2.2-1.234V-8.453h1.445V0H20.313Zm7.109.992a3.693,3.693,0,0,1-2.8-1.129,4.19,4.19,0,0,1-1.078-3.02v-.266A5.073,5.073,0,0,1,24-6.5,3.748,3.748,0,0,1,25.34-8.051a3.378,3.378,0,0,1,1.871-.559,3.166,3.166,0,0,1,2.563,1.086,4.7,4.7,0,0,1,.914,3.109v.6H24.961a3,3,0,0,0,.73,2.02,2.3,2.3,0,0,0,1.777.77,2.517,2.517,0,0,0,1.3-.312,3.259,3.259,0,0,0,.93-.828l.883.688A3.55,3.55,0,0,1,27.391.156Zm-.18-7.578a1.928,1.928,0,0,0-1.469.637A3.1,3.1,0,0,0,25.008-5h4.234v-.109a2.753,2.753,0,0,0-.594-1.707A1.815,1.815,0,0,0,27.211-7.422Zm10.07,5.18a1.064,1.064,0,0,0-.441-.91A4.249,4.249,0,0,0,35.3-3.711a7.277,7.277,0,0,1-1.742-.562,2.479,2.479,0,0,1-.953-.781A1.869,1.869,0,0,1,32.3-6.133a2.193,2.193,0,0,1,.879-1.758,3.432,3.432,0,0,1,2.246-.719,3.532,3.532,0,0,1,2.332.742,2.357,2.357,0,0,1,.895,1.9H37.2a1.3,1.3,0,0,0-.5-1.023,1.888,1.888,0,0,0-1.27-.43,1.976,1.976,0,0,0-1.234.344,1.082,1.082,0,0,0-.445.9.877.877,0,0,0,.414.789,5.1,5.1,0,0,0,1.5.508,7.8,7.8,0,0,1,1.754.578,2.558,2.558,0,0,1,1,.809,1.988,1.988,0,0,1,.324,1.152A2.163,2.163,0,0,1,37.82-.527a3.8,3.8,0,0,1-2.352.684,4.257,4.257,0,0,1-1.8-.359,2.922,2.922,0,0,1-1.223-1A2.42,2.42,0,0,1,32.008-2.6h1.445a1.5,1.5,0,0,0,.582,1.152,2.258,2.258,0,0,0,1.434.426,2.331,2.331,0,0,0,1.316-.332A1.02,1.02,0,0,0,37.281-2.242ZM42.57-10.5v2.047h1.578v1.117H42.57v5.242a1.171,1.171,0,0,0,.211.762.888.888,0,0,0,.719.254,3.5,3.5,0,0,0,.688-.094V0a4.19,4.19,0,0,1-1.109.156A1.8,1.8,0,0,1,41.617-.43a2.517,2.517,0,0,1-.492-1.664V-7.336H39.586V-8.453h1.539V-10.5Zm7.352,3.344a4.331,4.331,0,0,0-.711-.055A1.9,1.9,0,0,0,47.281-6V0H45.836V-8.453h1.406l.023.977a2.251,2.251,0,0,1,2.016-1.133,1.477,1.477,0,0,1,.641.109ZM56.156,0a3.036,3.036,0,0,1-.2-.891A3.225,3.225,0,0,1,53.547.156,2.984,2.984,0,0,1,51.5-.551a2.287,2.287,0,0,1-.8-1.793,2.39,2.39,0,0,1,1-2.051,4.733,4.733,0,0,1,2.824-.73H55.93v-.664A1.623,1.623,0,0,0,55.477-7a1.821,1.821,0,0,0-1.336-.449,2.107,2.107,0,0,0-1.3.391,1.151,1.151,0,0,0-.523.945H50.867a2,2,0,0,1,.449-1.223,3.066,3.066,0,0,1,1.219-.934,4.1,4.1,0,0,1,1.691-.344,3.342,3.342,0,0,1,2.289.73,2.635,2.635,0,0,1,.859,2.012v3.891a4.757,4.757,0,0,0,.3,1.852V0Zm-2.4-1.1a2.54,2.54,0,0,0,1.289-.352,2.127,2.127,0,0,0,.883-.914V-4.1H54.8q-2.656,0-2.656,1.555a1.316,1.316,0,0,0,.453,1.063A1.742,1.742,0,0,0,53.758-1.1Zm12.2-2.812-.906.945V0H63.609V-12h1.445v7.258l.773-.93,2.633-2.781h1.758L66.93-4.922,70.6,0h-1.7Z" transform="translate(658 20422)" fill="#fff"/>
    <path id="Trazado_177501" data-name="Trazado 177501" d="M-8193.56,8464.5h89.695" transform="translate(8943 11846)" fill="none" stroke="#25ffff" stroke-width="2"/>
    <path id="Trazado_177508" data-name="Trazado 177508" d="M7.277,0l7.277,12.371H0Z" transform="translate(848.871 20303.223) rotate(90)" fill="#25ffff"/>
    <path id="Trazado_177502" data-name="Trazado 177502" d="M-8193.56,8464.5h89.695" transform="translate(8943 11877.777)" fill="none" stroke="#25ffff" stroke-width="2"/>
    <path id="Trazado_177509" data-name="Trazado 177509" d="M7.277,0l7.277,12.371H0Z" transform="translate(848.871 20335) rotate(90)" fill="#25ffff"/>
    <path id="Trazado_177503" data-name="Trazado 177503" d="M-8193.56,8464.5h89.695" transform="translate(8943 11912.777)" fill="none" stroke="#25ffff" stroke-width="2"/>
    <path id="Trazado_177514" data-name="Trazado 177514" d="M7.277,0l7.277,12.371H0Z" transform="translate(848.871 20370) rotate(90)" fill="#25ffff"/>
    <path id="Trazado_177504" data-name="Trazado 177504" d="M-8193.56,8464.5h89.695" transform="translate(8943 11949.777)" fill="none" stroke="#25ffff" stroke-width="2"/>
    <path id="Trazado_177522" data-name="Trazado 177522" d="M7.277,0l7.277,12.371H0Z" transform="translate(848.871 20407) rotate(90)" fill="#25ffff"/>
    <path id="Trazado_177510" data-name="Trazado 177510" d="M15.5,0A15.5,15.5,0,1,1,0,15.5,15.5,15.5,0,0,1,15.5,0Z" transform="translate(861 20292)" fill="#ad84ff"/>
    <path id="Trazado_177515" data-name="Trazado 177515" d="M5.031-7.016l2.727-4.359H9.523L5.93-5.734,9.609,0H7.828l-2.8-4.437L2.219,0H.445L4.133-5.734l-3.6-5.641H2.289ZM13.353,5h-.848V-.619l-1.7.624V-.76l2.415-.907h.132Z" transform="translate(868 20312)" fill="#12263f"/>
    <path id="Trazado_177511" data-name="Trazado 177511" d="M15.5,0A15.5,15.5,0,1,1,0,15.5,15.5,15.5,0,0,1,15.5,0Z" transform="translate(861 20327)" fill="#ad84ff"/>
    <path id="Trazado_177516" data-name="Trazado 177516" d="M5.031-7.016l2.727-4.359H9.523L5.93-5.734,9.609,0H7.828l-2.8-4.437L2.219,0H.445L4.133-5.734l-3.6-5.641H2.289ZM14.93,5H10.583V4.394l2.3-2.552a5.456,5.456,0,0,0,.7-.941,1.571,1.571,0,0,0,.194-.75A1.19,1.19,0,0,0,13.463-.7a1.1,1.1,0,0,0-.838-.333,1.3,1.3,0,0,0-.977.358,1.366,1.366,0,0,0-.349,1h-.843a1.957,1.957,0,0,1,.59-1.481,2.188,2.188,0,0,1,1.579-.565,2.1,2.1,0,0,1,1.463.485A1.655,1.655,0,0,1,14.625.051a3.8,3.8,0,0,1-1.249,2.333L11.6,4.312H14.93Z" transform="translate(868 20347)" fill="#12263f"/>
    <path id="Trazado_177512" data-name="Trazado 177512" d="M15.5,0A15.5,15.5,0,1,1,0,15.5,15.5,15.5,0,0,1,15.5,0Z" transform="translate(861 20362)" fill="#ad84ff"/>
    <path id="Trazado_177517" data-name="Trazado 177517" d="M5.031-7.016l2.727-4.359H9.523L5.93-5.734,9.609,0H7.828l-2.8-4.437L2.219,0H.445L4.133-5.734l-3.6-5.641H2.289Zm6.777,8.288h.633a1.392,1.392,0,0,0,.939-.314,1.051,1.051,0,0,0,.342-.825A1.029,1.029,0,0,0,12.56-1.034a1.209,1.209,0,0,0-.873.312,1.092,1.092,0,0,0-.326.827h-.843A1.693,1.693,0,0,1,11.1-1.2a2.1,2.1,0,0,1,1.465-.522,2.075,2.075,0,0,1,1.472.5A1.794,1.794,0,0,1,14.565.151a1.456,1.456,0,0,1-.28.838,1.692,1.692,0,0,1-.763.606,1.631,1.631,0,0,1,.845.574,1.6,1.6,0,0,1,.3.98,1.81,1.81,0,0,1-.583,1.417,2.184,2.184,0,0,1-1.517.524,2.242,2.242,0,0,1-1.52-.506A1.678,1.678,0,0,1,10.46,3.25h.848a1.084,1.084,0,0,0,.342.838,1.3,1.3,0,0,0,.916.314,1.276,1.276,0,0,0,.934-.319,1.229,1.229,0,0,0,.324-.916,1.116,1.116,0,0,0-.355-.889,1.549,1.549,0,0,0-1.025-.319h-.633Z" transform="translate(868 20382)" fill="#12263f"/>
    <path id="Trazado_177518" data-name="Trazado 177518" d="M15.5,0A15.5,15.5,0,1,1,0,15.5,15.5,15.5,0,0,1,15.5,0Z" transform="translate(861 20397)" fill="#ad84ff"/>
    <path id="Trazado_177520" data-name="Trazado 177520" d="M5.031-7.016l2.727-4.359H9.523L5.93-5.734,9.609,0H7.828l-2.8-4.437L2.219,0H.445L4.133-5.734l-3.6-5.641H2.289Zm7.014,9.733-.529.551V5h-.843V-2h.843V2.234l.451-.542L13.5.069h1.025l-1.919,2.06L14.752,5h-.989Z" transform="translate(868 20417)" fill="#12263f"/>
    <path id="Trazado_177519" data-name="Trazado 177519" d="M42.5,0A42.5,42.5,0,0,1,85,42.5v76a42.5,42.5,0,0,1-85,0v-76A42.5,42.5,0,0,1,42.5,0Z" transform="translate(915 20280)" fill="#2e0877"/>
    <path id="Trazado_177523" data-name="Trazado 177523" d="M5.031-7.016l2.727-4.359H9.523L5.93-5.734,9.609,0H7.828l-2.8-4.437L2.219,0H.445L4.133-5.734l-3.6-5.641H2.289ZM13.353,5h-.848V-.619l-1.7.624V-.76l2.415-.907h.132Z" transform="translate(950 20314)" fill="#fff"/>
    <path id="Trazado_177524" data-name="Trazado 177524" d="M5.031-7.016l2.727-4.359H9.523L5.93-5.734,9.609,0H7.828l-2.8-4.437L2.219,0H.445L4.133-5.734l-3.6-5.641H2.289ZM14.93,5H10.583V4.394l2.3-2.552a5.456,5.456,0,0,0,.7-.941,1.571,1.571,0,0,0,.194-.75A1.19,1.19,0,0,0,13.463-.7a1.1,1.1,0,0,0-.838-.333,1.3,1.3,0,0,0-.977.358,1.366,1.366,0,0,0-.349,1h-.843a1.957,1.957,0,0,1,.59-1.481,2.188,2.188,0,0,1,1.579-.565,2.1,2.1,0,0,1,1.463.485A1.655,1.655,0,0,1,14.625.051a3.8,3.8,0,0,1-1.249,2.333L11.6,4.312H14.93Z" transform="translate(950 20349)" fill="#fff"/>
    <path id="Trazado_177525" data-name="Trazado 177525" d="M5.031-7.016l2.727-4.359H9.523L5.93-5.734,9.609,0H7.828l-2.8-4.437L2.219,0H.445L4.133-5.734l-3.6-5.641H2.289Zm6.777,8.288h.633a1.392,1.392,0,0,0,.939-.314,1.051,1.051,0,0,0,.342-.825A1.029,1.029,0,0,0,12.56-1.034a1.209,1.209,0,0,0-.873.312,1.092,1.092,0,0,0-.326.827h-.843A1.693,1.693,0,0,1,11.1-1.2a2.1,2.1,0,0,1,1.465-.522,2.075,2.075,0,0,1,1.472.5A1.794,1.794,0,0,1,14.565.151a1.456,1.456,0,0,1-.28.838,1.692,1.692,0,0,1-.763.606,1.631,1.631,0,0,1,.845.574,1.6,1.6,0,0,1,.3.98,1.81,1.81,0,0,1-.583,1.417,2.184,2.184,0,0,1-1.517.524,2.242,2.242,0,0,1-1.52-.506A1.678,1.678,0,0,1,10.46,3.25h.848a1.084,1.084,0,0,0,.342.838,1.3,1.3,0,0,0,.916.314,1.276,1.276,0,0,0,.934-.319,1.229,1.229,0,0,0,.324-.916,1.116,1.116,0,0,0-.355-.889,1.549,1.549,0,0,0-1.025-.319h-.633Z" transform="translate(950 20384)" fill="#fff"/>
    <path id="Trazado_177526" data-name="Trazado 177526" d="M5.031-7.016l2.727-4.359H9.523L5.93-5.734,9.609,0H7.828l-2.8-4.437L2.219,0H.445L4.133-5.734l-3.6-5.641H2.289Zm7.014,9.733-.529.551V5h-.843V-2h.843V2.234l.451-.542L13.5.069h1.025l-1.919,2.06L14.752,5h-.989Z" transform="translate(950 20419)" fill="#fff"/>
    <path id="Trazado_178027" data-name="Trazado 178027" d="M0,0H440V5H0Z" transform="translate(580 20483)" fill="#a4a3ff"/>
  </g>
</svg>
