<svg xmlns="http://www.w3.org/2000/svg" width="283.814" height="156.252" viewBox="0 0 283.814 156.252">
  <g id="Grupo_90650" data-name="Grupo 90650" transform="translate(-1029.596 -1535.43)">
    <g id="Grupo_53286" data-name="Grupo 53286" transform="translate(1046.385 1535.48)">
      <path id="Trazado_99088" data-name="Trazado 99088" d="M1197.948,719.959Zm2.408-9.17a4.634,4.634,0,1,1-1.357,3.276,4.621,4.621,0,0,1,1.357-3.276Zm1-4.592a8.173,8.173,0,0,0-3.408,1.974.284.284,0,0,1-.34.041l-2.153-1.242-.012-.007a.538.538,0,0,0-.717.2l-.009.014L1193.2,709.8a.54.54,0,0,0,.2.73l.015.009,2.135,1.233a.282.282,0,0,1,.134.314h0a8.079,8.079,0,0,0-.181.979,8.207,8.207,0,0,0,.181,2.974.285.285,0,0,1-.15.323L1193.4,717.6h0a.538.538,0,0,0-.2.729l1.523,2.638h0a.536.536,0,0,0,.728.2l.017-.008,2.138-1.235a.287.287,0,0,1,.338.041,8.174,8.174,0,0,0,3.42,1.978.285.285,0,0,1,.207.273v2.484a.537.537,0,0,0,.533.533h3.047a.535.535,0,0,0,.532-.533v-2.484a.286.286,0,0,1,.22-.277,8.175,8.175,0,0,0,3.408-1.974.284.284,0,0,1,.354-.032l2.138,1.234a.537.537,0,0,0,.729-.2l.009-.014,1.515-2.625h0a.539.539,0,0,0-.194-.729l-2.151-1.242a.286.286,0,0,1-.135-.314h0a8.064,8.064,0,0,0,.18-.978,8.344,8.344,0,0,0,0-2,8.112,8.112,0,0,0-.18-.978.284.284,0,0,1,.151-.323l2.135-1.233a.539.539,0,0,0,.194-.729l-.008-.016-1.515-2.624h0a.537.537,0,0,0-.728-.2h0l-2.153,1.242a.285.285,0,0,1-.346-.047,8.247,8.247,0,0,0-1.587-1.195,8.16,8.16,0,0,0-1.827-.777.285.285,0,0,1-.208-.273v-2.483a.535.535,0,0,0-.532-.532h-3.047a.536.536,0,0,0-.533.532v2.483A.285.285,0,0,1,1201.357,706.2Z" transform="translate(-966.086 -630.008)" fill="#e8e8e8" fill-rule="evenodd"/>
      <path id="Trazado_99089" data-name="Trazado 99089" d="M1219.062,648.657a6.89,6.89,0,1,1-1.5,2.239,6.9,6.9,0,0,1,1.5-2.239Zm2.481-.907a6.292,6.292,0,1,0,2.393-.473,6.246,6.246,0,0,0-2.393.473Zm-.762-5.072a11.258,11.258,0,0,0-2.49,1.063,11.344,11.344,0,0,0-2.2,1.658.718.718,0,0,1-.861.1c-1.013-.585-2.077-1.163-3.068-1.771a.418.418,0,0,0-.148-.046.463.463,0,0,0-.169.013.448.448,0,0,0-.155.075.436.436,0,0,0-.112.127c-.739,1.117-1.479,2.559-2.162,3.743a.419.419,0,0,0-.054.159.436.436,0,0,0,.014.174.431.431,0,0,0,.075.155.426.426,0,0,0,.128.112c.91.6,2.083,1.2,3.048,1.762a.723.723,0,0,1,.35.492l.063.021-.071.284q-.082.336-.145.67t-.1.68c-.028.23-.05.459-.063.685s-.021.452-.021.693.007.472.021.692.034.456.063.686.063.463.1.68.09.446.145.67a.718.718,0,0,1-.372.814l-2.7,1.559h0l-.32.185a.426.426,0,0,0-.2.267.432.432,0,0,0-.014.174.419.419,0,0,0,.054.159l2,3.464h0l.162.28a.416.416,0,0,0,.112.127.446.446,0,0,0,.155.076.463.463,0,0,0,.174.013.435.435,0,0,0,.158-.054c.967-.608,2.058-1.187,3.056-1.764a.72.72,0,0,1,.859.1h0a11.207,11.207,0,0,0,1.05.9,11.194,11.194,0,0,0,3.67,1.832.722.722,0,0,1,.523.695v3.523a.432.432,0,0,0,.129.308.411.411,0,0,0,.142.1.435.435,0,0,0,.166.032h4.323a.437.437,0,0,0,.166-.032.429.429,0,0,0,.142-.1.461.461,0,0,0,.1-.143.434.434,0,0,0,.032-.166v-3.523a.72.72,0,0,1,.157-.447.728.728,0,0,1,.4-.257,10.811,10.811,0,0,0,1.27-.452,11.039,11.039,0,0,0,1.22-.61,11.387,11.387,0,0,0,2.2-1.657.723.723,0,0,1,.9-.082l3.016,1.741a.421.421,0,0,0,.16.054.456.456,0,0,0,.174-.013.448.448,0,0,0,.155-.076.431.431,0,0,0,.111-.127c.717-1.25,1.444-2.494,2.162-3.743a.423.423,0,0,0,.053-.159.449.449,0,0,0-.013-.173.437.437,0,0,0-.074-.156.411.411,0,0,0-.125-.111l-3.051-1.762a.708.708,0,0,1-.3-.341.6.6,0,0,1-.038-.116l-.08-.016.08-.324c.055-.223.1-.447.145-.67s.074-.443.1-.68.049-.461.062-.687.02-.452.02-.692-.006-.472-.02-.692-.034-.455-.062-.685-.064-.467-.1-.682-.09-.445-.145-.669a.72.72,0,0,1,.37-.814l3.022-1.745a.423.423,0,0,0,.127-.111.441.441,0,0,0,.074-.155.453.453,0,0,0,.013-.174.427.427,0,0,0-.053-.16c-.738-1.1-1.478-2.563-2.162-3.743a.45.45,0,0,0-.441-.215.424.424,0,0,0-.159.054l-3.053,1.762a.717.717,0,0,1-.458.091.729.729,0,0,1-.413-.2,11.257,11.257,0,0,0-2.19-1.649,11.112,11.112,0,0,0-2.52-1.07.724.724,0,0,1-.524-.7v-3.523a.435.435,0,0,0-.032-.165.442.442,0,0,0-.1-.143.432.432,0,0,0-.142-.1.438.438,0,0,0-.166-.033h-4.323a.439.439,0,0,0-.437.437v3.523a.723.723,0,0,1-.557.7Zm-1.52-.133a11.929,11.929,0,0,0-3.61,2.394.084.084,0,0,1-.049.022.085.085,0,0,1-.053-.01q-1.54-.889-3.08-1.779a1.047,1.047,0,0,0-.385-.12,1.074,1.074,0,0,0-1.057.53c-.744,1.205-1.45,2.51-2.163,3.742a1.084,1.084,0,0,0,.08,1.194,1.054,1.054,0,0,0,.315.276c.982.607,2.047,1.182,3.051,1.762a.088.088,0,0,1,.035.04.084.084,0,0,1,0,.053l-.07.285h0c-.031.138-.059.279-.086.422-.044.243-.081.484-.11.719s-.05.475-.065.723-.023.493-.023.73.007.481.023.73.037.49.065.724.066.476.111.72.1.478.151.708a.085.085,0,0,1,0,.056.09.09,0,0,1-.038.04c-1.122.6-2.26,1.3-3.368,1.944l.039.05-.034.042a1.081,1.081,0,0,0-.079,1.193l2.323,4.023.043-.026c.023.021.047.041.071.06a1.084,1.084,0,0,0,1.183.086c1.016-.539,2.062-1.19,3.064-1.77a.09.09,0,0,1,.052-.009.086.086,0,0,1,.049.023,11.876,11.876,0,0,0,4.986,2.881.085.085,0,0,1,.044.031.078.078,0,0,1,.017.051v3.523a1.083,1.083,0,0,0,.666.993,1.06,1.06,0,0,0,.41.082h4.323a1.066,1.066,0,0,0,.41-.082,1.117,1.117,0,0,0,.349-.233,1.094,1.094,0,0,0,.233-.349,1.069,1.069,0,0,0,.083-.41v-3.523a.088.088,0,0,1,.017-.053.085.085,0,0,1,.048-.029l.014,0a11.956,11.956,0,0,0,1.358-.483,11.961,11.961,0,0,0,3.611-2.394.086.086,0,0,1,.05-.024.091.091,0,0,1,.056.014l3.051,1.761a1.065,1.065,0,0,0,.4.134,1.106,1.106,0,0,0,.418-.028,1.079,1.079,0,0,0,.648-.491c.8-1.289,1.559-2.7,2.324-4.025l-.041-.024c.007-.034.014-.068.017-.1a1.07,1.07,0,0,0-.213-.794,1.063,1.063,0,0,0-.314-.276l-3.052-1.762a.087.087,0,0,1-.035-.039.1.1,0,0,1,0-.056l.079-.322h0c.027-.125.052-.253.076-.382q.067-.366.111-.721c.028-.234.051-.475.065-.724s.023-.492.023-.73-.008-.481-.023-.729-.037-.491-.065-.726-.066-.473-.111-.719-.1-.478-.152-.706a.089.089,0,0,1,.005-.056.091.091,0,0,1,.039-.04l3.048-1.76a1.052,1.052,0,0,0,.313-.276,1.072,1.072,0,0,0,.212-.794,1.042,1.042,0,0,0-.128-.389c-.726-1.346-1.559-2.7-2.327-4.033l-.044.026c-.023-.021-.047-.041-.072-.06a1.073,1.073,0,0,0-.376-.185,1.1,1.1,0,0,0-.418-.028,1.055,1.055,0,0,0-.4.132l-.226.13v0l-2.83,1.633a.086.086,0,0,1-.055.01.077.077,0,0,1-.047-.024l-.007-.007a12.02,12.02,0,0,0-2.313-1.741,11.812,11.812,0,0,0-2.666-1.132.09.09,0,0,1-.044-.03.081.081,0,0,1-.017-.052v-3.523a1.078,1.078,0,0,0-.317-.759,1.1,1.1,0,0,0-.348-.233,1.065,1.065,0,0,0-.41-.083h-4.323a1.059,1.059,0,0,0-.41.083,1.111,1.111,0,0,0-.35.233,1.072,1.072,0,0,0-.316.759v3.523a.092.092,0,0,1-.017.054.084.084,0,0,1-.048.029l-.013,0A11.952,11.952,0,0,0,1219.26,642.545Z" transform="translate(-972.139 -604.564)" fill="#e8e8e8" fill-rule="evenodd"/>
      <g id="Grupo_53268" data-name="Grupo 53268" transform="translate(80.385 47.64)">
        <path id="Rectángulo_5027" data-name="Rectángulo 5027" d="M1.013,0H2.088A1.013,1.013,0,0,1,3.1,1.013V2.088A1.014,1.014,0,0,1,2.088,3.1H1.014A1.014,1.014,0,0,1,0,2.088V1.013A1.013,1.013,0,0,1,1.013,0Z" fill="#12263f"/>
        <path id="Rectángulo_5028" data-name="Rectángulo 5028" d="M1.013,0H2.088A1.013,1.013,0,0,1,3.1,1.013V2.088A1.014,1.014,0,0,1,2.087,3.1H1.013A1.013,1.013,0,0,1,0,2.088V1.013A1.013,1.013,0,0,1,1.013,0Z" transform="translate(6.357)" fill="#12263f"/>
        <path id="Rectángulo_5029" data-name="Rectángulo 5029" d="M1.013,0H2.088A1.013,1.013,0,0,1,3.1,1.013V2.088A1.014,1.014,0,0,1,2.087,3.1H1.014A1.014,1.014,0,0,1,0,2.088V1.013A1.013,1.013,0,0,1,1.013,0Z" transform="translate(12.714)" fill="#12263f"/>
        <path id="Rectángulo_5030" data-name="Rectángulo 5030" d="M1.013,0H2.088A1.013,1.013,0,0,1,3.1,1.013V2.088A1.014,1.014,0,0,1,2.087,3.1H1.014A1.014,1.014,0,0,1,0,2.088V1.013A1.013,1.013,0,0,1,1.013,0Z" transform="translate(19.071)" fill="#12263f"/>
      </g>
      <path id="Trazado_99108" data-name="Trazado 99108" d="M870.86,616.109c-.235,0-.426-.272-.426-.607s.191-.607.426-.607h19.92c.235,0,.425.272.425.607s-.19.607-.425.607Zm-2.7-1.215c.235,0,.425.272.425.607s-.19.607-.425.607H866.5c-.235,0-.425-.272-.425-.607s.19-.607.425-.607Z" transform="translate(-839.086 -595.833)" fill="#12263f" fill-rule="evenodd"/>
      <path id="Trazado_99109" data-name="Trazado 99109" d="M911.181,654.088a.257.257,0,0,1,.514,0v1.156a.257.257,0,1,1-.514,0v-1.156Zm-1.751.938a.257.257,0,0,1,.363-.363l.817.817a.257.257,0,1,1-.364.363l-.817-.817Zm-.575,1.9a.257.257,0,0,1,0-.514h1.156a.257.257,0,0,1,0,.514Zm.938,1.751a.257.257,0,0,1-.363-.363l.817-.817a.257.257,0,0,1,.364.363l-.817.817Zm1.9.574a.257.257,0,1,1-.514,0V658.1a.257.257,0,0,1,.514,0v1.155Zm1.751-.938a.257.257,0,0,1-.363.363l-.816-.817a.257.257,0,0,1,.363-.363l.817.817Zm.575-1.9a.257.257,0,0,1,0,.514h-1.155a.257.257,0,1,1,0-.514Zm-.938-1.751a.257.257,0,0,1,.363.363l-.817.817a.257.257,0,0,1-.363-.363Z" transform="translate(-855.598 -610.953)" fill="#80bbe7" fill-rule="evenodd"/>
      <path id="Trazado_99110" data-name="Trazado 99110" d="M1158.5,603.662a.257.257,0,1,1,.514,0v1.156a.257.257,0,0,1-.514,0v-1.156Zm-1.751.938a.257.257,0,0,1,.364-.364l.817.817a.257.257,0,1,1-.364.363l-.817-.817Zm-.574,1.9a.257.257,0,1,1,0-.513h1.156a.257.257,0,1,1,0,.513Zm.938,1.751a.257.257,0,0,1-.364-.363l.817-.818a.257.257,0,0,1,.364.364l-.817.817Zm1.9.575a.257.257,0,0,1-.514,0v-1.156a.257.257,0,0,1,.514,0v1.156Zm1.751-.938a.257.257,0,1,1-.364.363l-.817-.817a.257.257,0,0,1,.364-.364l.817.818Zm.574-1.9a.257.257,0,1,1,0,.513h-1.156a.257.257,0,1,1,0-.513Zm-.938-1.751a.257.257,0,0,1,.364.364l-.817.817a.257.257,0,0,1-.364-.363Z" transform="translate(-951.636 -591.372)" fill="#80bbe7" fill-rule="evenodd"/>
      <path id="Trazado_99112" data-name="Trazado 99112" d="M829.852,728.817a.257.257,0,1,1,.514,0v1.155a.257.257,0,1,1-.514,0v-1.155Zm-1.751.938a.257.257,0,0,1,.363-.364l.817.817a.257.257,0,0,1-.363.363l-.817-.817Zm-.575,1.9a.257.257,0,0,1,0-.514h1.155a.257.257,0,1,1,0,.514Zm.938,1.751a.257.257,0,0,1-.363-.363l.817-.817a.257.257,0,0,1,.363.363l-.817.817Zm1.9.575a.257.257,0,0,1-.514,0v-1.156a.257.257,0,0,1,.514,0v1.156Zm1.751-.938a.257.257,0,1,1-.363.363l-.818-.817a.257.257,0,0,1,.363-.363l.817.817Zm.575-1.9a.257.257,0,0,1,0,.514h-1.155a.257.257,0,0,1,0-.514Zm-.938-1.751a.257.257,0,0,1,.363.364l-.817.817a.257.257,0,0,1-.363-.363Z" transform="translate(-824.018 -639.97)" fill="#80bbe7" fill-rule="evenodd"/>
      <g id="Grupo_53269" data-name="Grupo 53269" transform="translate(241.722 12.826)">
        <rect id="Rectángulo_5031" data-name="Rectángulo 5031" width="3.101" height="3.101" rx="1.013" fill="#a4a3ff"/>
        <rect id="Rectángulo_5032" data-name="Rectángulo 5032" width="3.101" height="3.101" rx="1.013" transform="translate(6.357)" fill="#a4a3ff"/>
        <rect id="Rectángulo_5033" data-name="Rectángulo 5033" width="3.101" height="3.101" rx="1.013" transform="translate(12.714)" fill="#a4a3ff"/>
        <rect id="Rectángulo_5034" data-name="Rectángulo 5034" width="3.101" height="3.101" rx="1.013" transform="translate(19.071)" fill="#a4a3ff"/>
      </g>
      <path id="Trazado_99114" data-name="Trazado 99114" d="M826.768,639.552Zm2.409-9.171a4.632,4.632,0,1,1-1.357,3.276,4.619,4.619,0,0,1,1.357-3.276Zm1-4.592a8.17,8.17,0,0,0-3.409,1.974.285.285,0,0,1-.34.042l-2.152-1.244-.012-.007a.538.538,0,0,0-.717.2l-.009.015-1.515,2.623a.538.538,0,0,0,.2.73l.015.009,2.135,1.233a.284.284,0,0,1,.134.314h0a8.077,8.077,0,0,0-.18.979,8.26,8.26,0,0,0,0,2,8.088,8.088,0,0,0,.18.978.285.285,0,0,1-.15.323l-2.135,1.233h0a.537.537,0,0,0-.2.729l1.523,2.638h0a.536.536,0,0,0,.729.2l.016-.009,2.138-1.234a.285.285,0,0,1,.338.041,8.241,8.241,0,0,0,1.593,1.2,8.151,8.151,0,0,0,1.828.776.285.285,0,0,1,.207.274v2.484a.536.536,0,0,0,.533.533h3.047a.537.537,0,0,0,.534-.533V641.8a.285.285,0,0,1,.218-.277,8.144,8.144,0,0,0,1.816-.773,8.229,8.229,0,0,0,1.593-1.2.285.285,0,0,1,.354-.032l2.139,1.234a.536.536,0,0,0,.728-.2l.009-.015,1.515-2.624h0a.537.537,0,0,0-.195-.729l-2.151-1.242a.283.283,0,0,1-.135-.313h0a8.075,8.075,0,0,0,.18-.979,8.244,8.244,0,0,0,0-2,8.03,8.03,0,0,0-.18-.979.286.286,0,0,1,.15-.323l2.135-1.232a.538.538,0,0,0,.195-.729l-.009-.016-1.515-2.623h0a.537.537,0,0,0-.728-.2h0l-2.153,1.244a.284.284,0,0,1-.345-.048,8.251,8.251,0,0,0-1.587-1.195,8.134,8.134,0,0,0-1.828-.776.285.285,0,0,1-.207-.274V623.03a.536.536,0,0,0-.534-.533h-3.047a.535.535,0,0,0-.533.533v2.483A.284.284,0,0,1,830.178,625.79Z" transform="translate(-821.954 -598.786)" fill="#e8e8e8" fill-rule="evenodd"/>
      <g id="Grupo_53270" data-name="Grupo 53270" transform="translate(132.761 0)">
        <path id="Trazado_99115" data-name="Trazado 99115" d="M1066.52,703.272c-2.705,2.464-3.128,2.758-3.128,2.758s-1.787,3.392-1.1,3.389a1.918,1.918,0,0,0,1.236-.623s.67.854,1.272.5a8.515,8.515,0,0,1,.919-.49s.69.685,1.26.238,3.29-3.382,3.29-3.382l3.594-2.356-1.433-1.291Z" transform="translate(-1047.979 -629.662)" fill="#e98daf" fill-rule="evenodd"/>
        <path id="Trazado_99116" data-name="Trazado 99116" d="M1135.812,821.607c-.055.379-.5,2.288-.491,2.336.078.563.216,1.689.216,1.689a4.882,4.882,0,0,1-2.121,1.449c-1.021.184-5.655.391-5.714.138a12.745,12.745,0,0,1,1.158-2.254,5.338,5.338,0,0,0,1.493-3.657C1130.53,818.755,1135.812,821.607,1135.812,821.607Z" transform="translate(-1073.439 -675.572)" fill="#f3c6d4" fill-rule="evenodd"/>
        <path id="Trazado_99117" data-name="Trazado 99117" d="M1129.57,827.713l.568-.2a3.932,3.932,0,0,0,2.9.125,3.471,3.471,0,0,0,2.056-1.461.306.306,0,0,1,.253-.184h.381a.818.818,0,0,1,.748.48,9.117,9.117,0,0,1,.042,4.344c-.5,1.4-1.193,1.217-1.193,1.217a9.206,9.206,0,0,0-4.63-.158c-1.865.658-3.573,1.343-3.573,1.343S1127.216,829.5,1129.57,827.713Z" transform="translate(-1073.216 -677.802)" fill="#0e0226" fill-rule="evenodd"/>
        <path id="Trazado_99118" data-name="Trazado 99118" d="M1110.41,832.794l-.2-.6v-.733c0-.275.114-1.1.912-1.1h3.056c.709,0,4.54-1.948,7.484-4.343a.405.405,0,0,1,.517-.066c.308.178,1.247.928,1.343,1.007a.6.6,0,0,1,.051.514c-.057.111-2.781,5.508-2.781,5.508S1112.763,834.03,1110.41,832.794Z" transform="translate(-1066.645 -677.761)" fill="#1a0f44" fill-rule="evenodd"/>
        <path id="Trazado_99119" data-name="Trazado 99119" d="M1110.09,835.294a.5.5,0,0,0-.181.316v.588a1.152,1.152,0,0,0,1.145.749h8.482a7.248,7.248,0,0,0,3.028-.66,17.51,17.51,0,0,1,2.184-.8s.2-.069.2.279v.674c0,.168-.1.626.589.626h4.126c.314,0,.674-.179.674-.821v-1.653c0-.4-.243-.716-.5-.716h-3.172a8.847,8.847,0,0,0-4.046,1.105,10.822,10.822,0,0,1-4.89,1.011h-4.746A5.384,5.384,0,0,1,1110.09,835.294Z" transform="translate(-1066.531 -680.865)" fill="#0e0226" fill-rule="evenodd"/>
        <path id="Trazado_99120" data-name="Trazado 99120" d="M1165.221,821.607c-.055.379-.5,2.288-.491,2.336.078.563.216,1.689.216,1.689a4.882,4.882,0,0,1-2.121,1.449c-1.021.184-5.655.391-5.714.138a12.713,12.713,0,0,1,1.158-2.254,5.339,5.339,0,0,0,1.493-3.657C1159.939,818.755,1165.221,821.607,1165.221,821.607Z" transform="translate(-1084.859 -675.572)" fill="#f3c6d4" fill-rule="evenodd"/>
        <path id="Trazado_99121" data-name="Trazado 99121" d="M1158.98,827.713l.568-.2a3.932,3.932,0,0,0,2.9.125,3.465,3.465,0,0,0,2.056-1.461.307.307,0,0,1,.253-.184h.382a.818.818,0,0,1,.748.48,9.111,9.111,0,0,1,.041,4.344c-.5,1.4-1.193,1.217-1.193,1.217a9.2,9.2,0,0,0-4.629-.158c-1.866.658-3.574,1.343-3.574,1.343S1156.626,829.5,1158.98,827.713Z" transform="translate(-1084.636 -677.802)" fill="#0e0226" fill-rule="evenodd"/>
        <path id="Trazado_99122" data-name="Trazado 99122" d="M1139.818,832.794l-.205-.6v-.733c0-.275.115-1.1.913-1.1h3.057c.708,0,4.539-1.948,7.483-4.343a.4.4,0,0,1,.516-.066c.309.178,1.248.928,1.343,1.007a.607.607,0,0,1,.051.514l-2.781,5.508S1142.172,834.03,1139.818,832.794Z" transform="translate(-1078.065 -677.761)" fill="#1a0f44" fill-rule="evenodd"/>
        <path id="Trazado_99123" data-name="Trazado 99123" d="M1139.5,835.294a.505.505,0,0,0-.179.316v.588a1.151,1.151,0,0,0,1.145.749h8.481a7.248,7.248,0,0,0,3.028-.66,17.554,17.554,0,0,1,2.184-.8s.2-.069.2.279v.674c0,.168-.1.626.588.626h4.126c.314,0,.673-.179.673-.821v-1.653c0-.4-.242-.716-.5-.716h-3.173a8.851,8.851,0,0,0-4.045,1.105,10.821,10.821,0,0,1-4.889,1.011h-4.747A5.389,5.389,0,0,1,1139.5,835.294Z" transform="translate(-1077.951 -680.865)" fill="#0e0226" fill-rule="evenodd"/>
        <path id="Trazado_99124" data-name="Trazado 99124" d="M1087.38,634.052s-1.912,3.208-.712,10.5,9.478,35.684,3.856,50.5a1.339,1.339,0,0,0,.619,1.575c.966.56,14.621,2.929,24.6-1.323S1108.2,636.216,1087.38,634.052Z" transform="translate(-1057.352 -603.272)" fill="#7125c8" fill-rule="evenodd"/>
        <path id="Trazado_99125" data-name="Trazado 99125" d="M1126.478,761.788a8.66,8.66,0,0,0,6.019.537,2,2,0,0,0,1.178-1.356c.214-1,7.283-60.5,8.138-71.059s-5.6-17.011-15.483-23.791-1.612-1.056-2.378-1.49a90.19,90.19,0,0,1-5.329,14.911l-.022,4.473a3.647,3.647,0,0,0,.226.886c3.013,11.975,3.368,21.53,3.821,33.575.018.352-.177-9.042.041,1.052s2.505,39.121,2.648,40.263S1125.978,761.68,1126.478,761.788Z" transform="translate(-1069.905 -614.428)" fill="#344154" fill-rule="evenodd"/>
        <path id="Trazado_99126" data-name="Trazado 99126" d="M1090.636,643.491l2.857,4.637s12.108,20.8,13.786,23.762,8.854,2.542,8.854,2.542l-15.328-44.552a66.859,66.859,0,0,0-7.43-.8c-2.077.044-3.41,3.222-3.41,3.222Z" transform="translate(-1058.786 -601.339)" fill="#344154" fill-rule="evenodd"/>
        <path id="Trazado_99127" data-name="Trazado 99127" d="M1087.38,634.052s-1.912,3.208-.712,10.5c.927,5.637,6.081,23.875,5.779,38.709h0c2.636-27-2.222-44.081-3.919-49.034C1088.149,634.156,1087.765,634.092,1087.38,634.052Z" transform="translate(-1057.352 -603.272)" fill="#cfb7ff" fill-rule="evenodd"/>
        <path id="Trazado_99128" data-name="Trazado 99128" d="M1146,761.374s2.077,1.162,5.859.341a2,2,0,0,0,1.178-1.355c.214-1,3.043-20.948,3.9-31.51s8.035-50.188-10.915-63.185-23.035,9.427-23.035,9.427,17.679,7.441,18.107,27.281,3.622,55.861,3.765,57S1145.5,761.267,1146,761.374Z" transform="translate(-1071.61 -613.974)" fill="#5d6776" fill-rule="evenodd"/>
        <path id="Trazado_99129" data-name="Trazado 99129" d="M1158.47,772.862a10.961,10.961,0,0,0,4.3-.146,2,2,0,0,0,1.178-1.355c.214-1,3.043-20.948,3.9-31.51.65-8.013,4.936-32.756-1.31-49.908-.086.06-9.84,6.9-15.454,16.486a31.02,31.02,0,0,1,.921,6.945c.072,3.348.225,7.157.426,11.182,2.408-2.584,5.609-6.063,7.233-8.013,2.808-3.369,5.966-2.176,7.089-.561s-3.159,42.254-3.72,47.448C1162.639,767.085,1160,770.915,1158.47,772.862Z" transform="translate(-1082.52 -624.975)" fill="#858d98" fill-rule="evenodd"/>
        <path id="Trazado_99130" data-name="Trazado 99130" d="M1069.814,611.038c.029,0,.113.347.461.935l-1.721,1.811a15.293,15.293,0,0,0,1.069,1.189,3.717,3.717,0,0,0-1.881,1.364s-1.847,5.689-1.31,6.241l-.058.07c-3.326,3.927-5.367,2.627-5.782,2.274s-2.459-2.225-2.68-2.269-1.009.888-1.541.437a55.652,55.652,0,0,1-5.927-8.048,12.533,12.533,0,0,1-1.225-9.553c6.855-5.565,12.551,4.916,13.241,3.156s2.656-1.921,3.747.031C1066.359,608.948,1069.774,610.746,1069.814,611.038Z" transform="translate(-1042.791 -591.542)" fill="#f3c6d4" fill-rule="evenodd"/>
        <path id="Trazado_99131" data-name="Trazado 99131" d="M1069.814,611.131c.029,0,.113.347.461.935l-1.721,1.81a15.277,15.277,0,0,0,1.069,1.189,4.272,4.272,0,0,0-.557.236,1.4,1.4,0,0,0-.174-.674c-.467-.539-1.4-1.7-1.4-1.7a1.036,1.036,0,0,1-1.549-.832c-.246-1.438-1.351-2.843-2.51-2.614s-.493,1.735-.493,1.735l2.739,3.95-.456,4.7s-4.282.772-3.4-1.052-1.37-3.23-3.967-6.177-4.036-2.632-4.7-2.176c-.416.285-2.348,1.58-3.742,2.514a12.652,12.652,0,0,1-.559-5.429,33.9,33.9,0,0,1,5.868-3.47c4.2.924,7.247,5.912,7.74,4.656.689-1.759,2.656-1.921,3.747.031C1066.359,609.04,1069.774,610.839,1069.814,611.131Z" transform="translate(-1042.791 -591.635)" fill="#e98daf" fill-rule="evenodd"/>
        <path id="Trazado_99132" data-name="Trazado 99132" d="M1081.734,615.595s1.335.089,2.351.133,1.852,5.976,1.852,5.976l-1.733,2.633-.4.614-1.312,1.994-.124-.615s-1.373-1.064-2.237.133-3.028-2.01-3.028-2.01S1076.707,617.423,1081.734,615.595Z" transform="translate(-1053.788 -596.105)" fill="#f3c6d4" fill-rule="evenodd"/>
        <path id="Trazado_99133" data-name="Trazado 99133" d="M1082.84,615.595s1.335.089,2.351.133,1.852,5.976,1.852,5.976l-1.732,2.633-.4.614-1.311,1.994-.124-.615s-1.373-1.064-2.237.133a.635.635,0,0,1-.833.193l.594-2.47s.467-4.55,0-5.089c-.284-.329-.741-.885-1.054-1.271A6.029,6.029,0,0,1,1082.84,615.595Z" transform="translate(-1054.894 -596.105)" fill="#e98daf" fill-rule="evenodd"/>
        <path id="Trazado_99134" data-name="Trazado 99134" d="M1056.279,603.208s-3.133,1.529-5.61-3.171c0,0-3.208,3.4-5.3,4.25a1.347,1.347,0,0,1-.13.044l.13-.044a4.725,4.725,0,0,1-1.873-.4,6.686,6.686,0,0,1-3.819-3.356c-1.825-3.65.351-5.51,2.317-5.264,0,0,2.948-6.423,4.6-8.318s5.51-1.088,5.51-1.088-.562-1.65.105-2.036,4.281.328,5.685,4.516c0,0,2.808-.459,4.284.971s4.745,13.845,4.763,13.911c.071.792-.243,1.59-1.041,1.619a4.078,4.078,0,0,1-3.453-1.613s-1.038-3.706-2.864-3.145c0,0-1.552.015-.826,2.623a8.1,8.1,0,0,0,1.49,1.883,14.849,14.849,0,0,1,4.862,6.152c1.64,3.832-1.825,6.255-2.777,7.378s-2.549,2-3.7,1.026-3.738-3.166-4.132-3.5-.484-.7-.388-.805c0,0,1.671-1.773,2.939-2.991s2.259-2.01,2.26-3.4a4.928,4.928,0,0,0-1.311-3.917A6.086,6.086,0,0,0,1056.279,603.208Z" transform="translate(-1038.993 -583.734)" fill="#344154" fill-rule="evenodd"/>
        <path id="Trazado_99135" data-name="Trazado 99135" d="M1050.669,600.037s-3.208,3.4-5.3,4.25a1.347,1.347,0,0,1-.13.044l.13-.044a4.725,4.725,0,0,1-1.873-.4,6.686,6.686,0,0,1-3.819-3.356c-1.825-3.65.351-5.51,2.317-5.264,0,0,2.948-6.423,4.6-8.318s5.51-1.088,5.51-1.088-.562-1.65.105-2.036,4.281.328,5.685,4.516C1057.893,588.341,1057.9,592.524,1050.669,600.037Z" transform="translate(-1038.993 -583.734)" fill="#27313f" fill-rule="evenodd"/>
        <path id="Trazado_99136" data-name="Trazado 99136" d="M1039.293,600.072c-1.06-3.045.909-4.577,2.7-4.352,0,0,11.371,2.678,12.916-10.818a6.277,6.277,0,0,1,.524.351C1055.586,590.836,1053.921,601.167,1039.293,600.072Z" transform="translate(-1038.994 -584.187)" fill="#344154" fill-rule="evenodd"/>
        <path id="Trazado_99137" data-name="Trazado 99137" d="M1060.045,625.63h0a.729.729,0,0,1,1.025.085l.612.724a.729.729,0,0,1-.086,1.025h0a.728.728,0,0,1-1.023-.086l-.612-.724A.728.728,0,0,1,1060.045,625.63Z" transform="translate(-1047.068 -599.935)" fill="#344154" fill-rule="evenodd"/>
        <path id="Trazado_99138" data-name="Trazado 99138" d="M1063.585,628.656a1.074,1.074,0,1,1-.126,1.514A1.074,1.074,0,0,1,1063.585,628.656Z" transform="translate(-1048.395 -601.078)" fill="#ed7792" fill-rule="evenodd"/>
        <path id="Trazado_99139" data-name="Trazado 99139" d="M1059.156,623.136a.22.22,0,1,0-.1-.429,2.732,2.732,0,0,0-1.921,1.573.221.221,0,0,0,.415.151A2.28,2.28,0,0,1,1059.156,623.136Z" transform="translate(-1046.035 -598.865)" fill="#344154" fill-rule="evenodd"/>
        <path id="Trazado_99140" data-name="Trazado 99140" d="M1088.089,696.437s-9.264,3.456-10.233,3.923-2.032-3.393-2.122-4.021.573-1.365,1.83-2.085,8.238-4.766,8.238-4.766Z" transform="translate(-1053.256 -624.799)" fill="#fff" fill-rule="evenodd"/>
        <path id="Trazado_99141" data-name="Trazado 99141" d="M1090.253,680.247c-3.389,1.272-9.262,3.49-10.1,3.893-1.184.571-2.482-4.143-2.592-4.91s.7-1.667,2.235-2.545c.868-.5,3.97-2.293,6.5-3.76a7.139,7.139,0,0,0,2.6-5.038c.339-3.466,1.532-19.368,1.532-19.368l9.281,4.128,1.646,2.427s-3.48,15.056-4.845,18.556S1093.257,679.116,1090.253,680.247Z" transform="translate(-1053.966 -608.89)" fill="#344154" fill-rule="evenodd"/>
        <path id="Trazado_99142" data-name="Trazado 99142" d="M1143.251,652.067s6.6,11.414,7.842,28.506a.807.807,0,0,1-.553.86c-.661.281-6.185.016-12.677,7.985s-16.867,15.13-22.816,14.2c0,0-.643,0-.723-1.045s-1.326-47.8-20.436-64.7a5.459,5.459,0,0,1-1.787-4.113C1092.171,631.164,1122.042,620.566,1143.251,652.067Z" transform="translate(-1059.615 -601.68)" fill="#cfb7ff" fill-rule="evenodd"/>
        <path id="Trazado_99143" data-name="Trazado 99143" d="M1151.813,670.069l-1.384,4.633s-2.948.144-10.592-15.194c0,0-3.042-5.909-11.824-7.715l3.911-5.566s16.693,2.948,16.607,4.373S1151.813,670.069,1151.813,670.069Z" transform="translate(-1073.56 -608)" fill="#2e0877" fill-rule="evenodd"/>
        <path id="Trazado_99144" data-name="Trazado 99144" d="M1102.783,662.769l5.51-3.7a1.457,1.457,0,0,1,1.829.233l9.629,10.641a1.027,1.027,0,0,1-.185,1.586l-5.51,3.7a1.456,1.456,0,0,1-1.829-.232l-9.629-10.641A1.026,1.026,0,0,1,1102.783,662.769Z" transform="translate(-1063.578 -612.9)" fill="#344154" fill-rule="evenodd"/>
        <path id="Trazado_99145" data-name="Trazado 99145" d="M1101.475,663.647l5.51-3.7a1.455,1.455,0,0,1,1.829.233l9.63,10.64a1.028,1.028,0,0,1-.185,1.586l-5.51,3.7a1.458,1.458,0,0,1-1.83-.232l-9.629-10.641A1.027,1.027,0,0,1,1101.475,663.647Z" transform="translate(-1063.071 -613.241)" fill="#1a212a" fill-rule="evenodd"/>
        <path id="Trazado_99146" data-name="Trazado 99146" d="M1103.011,667.864l.887-.6a.234.234,0,0,1,.294.038l2.384,2.633a.166.166,0,0,1-.029.256l-.887.6a.234.234,0,0,1-.295-.037l-2.384-2.633A.165.165,0,0,1,1103.011,667.864Z" transform="translate(-1063.822 -616.157)" fill="#674f9b" fill-rule="evenodd"/>
        <path id="Trazado_99147" data-name="Trazado 99147" d="M1104.151,668.209a.585.585,0,0,1,.754.106.444.444,0,0,1-.09.673.584.584,0,0,1-.753-.106A.443.443,0,0,1,1104.151,668.209Z" transform="translate(-1064.215 -616.5)" fill="#d3ebfa" fill-rule="evenodd"/>
        <path id="Trazado_99148" data-name="Trazado 99148" d="M1105.642,669.878a.585.585,0,0,1,.754.106.444.444,0,0,1-.09.673.585.585,0,0,1-.754-.106A.444.444,0,0,1,1105.642,669.878Z" transform="translate(-1064.793 -617.148)" fill="#d3ebfa" fill-rule="evenodd"/>
        <path id="Trazado_99149" data-name="Trazado 99149" d="M1105.932,670.18a.332.332,0,0,1,.428.06.252.252,0,0,1-.051.382.332.332,0,0,1-.427-.06A.253.253,0,0,1,1105.932,670.18Z" transform="translate(-1064.941 -617.281)" fill="#fff" fill-rule="evenodd"/>
        <path id="Trazado_99150" data-name="Trazado 99150" d="M1104.419,668.486a.354.354,0,0,1,.455.064.268.268,0,0,1-.054.406.353.353,0,0,1-.454-.064A.268.268,0,0,1,1104.419,668.486Z" transform="translate(-1064.351 -616.622)" fill="#fff" fill-rule="evenodd"/>
        <path id="Trazado_99151" data-name="Trazado 99151" d="M1107.116,671.493a.351.351,0,0,1,.453.064.267.267,0,0,1-.054.4.352.352,0,0,1-.454-.064A.268.268,0,0,1,1107.116,671.493Z" transform="translate(-1065.398 -617.789)" fill="#d3ebfa" fill-rule="evenodd"/>
        <path id="Trazado_99152" data-name="Trazado 99152" d="M1090.067,609.16c-.112.065-2.4.658-2.786.831s-.507.988-.592,2.377-1.213,11.687-1.267,12.274a.936.936,0,0,0,.664,1.113c.508.174,6.368,2.283,6.368,2.283Z" transform="translate(-1057.019 -593.607)" fill="#344154" fill-rule="evenodd"/>
        <path id="Trazado_99153" data-name="Trazado 99153" d="M1138.455,656.591s-8.854,5.867-9.873,6.414,1.664,3.909,2.154,4.384,1.549.364,2.968-.274,9.344-4.15,9.344-4.15Z" transform="translate(-1073.693 -612.024)" fill="#fff" fill-rule="evenodd"/>
        <path id="Trazado_99154" data-name="Trazado 99154" d="M1142.944,650.978s-11.579,7.674-12.912,8.389,2.177,5.112,2.817,5.734,2.025.475,3.881-.358,12.223-5.427,12.223-5.427Z" transform="translate(-1074.228 -609.845)" fill="#1a212a" fill-rule="evenodd"/>
        <path id="Trazado_99155" data-name="Trazado 99155" d="M1105.2,634.928a77.241,77.241,0,0,0,11.946,1.712c6.482.4,19.941,1.287,20.774,22.787,0,0,.1.114.448-.009s9.72-8.434,11.036-12.429-6.3-18.687-10.47-20.587-11.945-3.445-20.434-11.97-20.168-7.5-20.168-7.5l-2.541,9.409S1096.946,632.495,1105.2,634.928Z" transform="translate(-1061.046 -592.726)" fill="#cfb7ff" fill-rule="evenodd"/>
        <path id="Trazado_99156" data-name="Trazado 99156" d="M1144.088,652.028a33.085,33.085,0,0,1,2.363,11.86s.1.114.448-.009,9.72-8.434,11.036-12.429c.527-1.6-.378-4.914-1.919-8.435-.006,2.576-.345,5.429-1.632,6.85-1.806,1.993-7.071,2.223-10.3,2.162Zm4.07-20.754a4.335,4.335,0,0,0-.694-.411c-4.175-1.9-11.945-3.445-20.434-11.97-.176-.177-.353-.348-.531-.516.063.142,5.481,12.415-8.058,15.136,0,0-.877.175-.631.913S1142.7,627.8,1148.158,631.275Z" transform="translate(-1069.581 -597.186)" fill="#7125c8" fill-rule="evenodd"/>
        <path id="Trazado_99157" data-name="Trazado 99157" d="M1099.441,606.911c-.315.011-.487.026-.487.026l-1.552,5.747,2.252,15.711,1.978.814a10.083,10.083,0,0,1-.153-2.359c.176-.158,4.317-2.194,4.844-2.474a.75.75,0,0,0,.422-.789C1106.339,622.744,1100.687,609.772,1099.441,606.911Z" transform="translate(-1061.674 -592.733)" fill="#1b7fc2" fill-rule="evenodd"/>
        <path id="Trazado_99158" data-name="Trazado 99158" d="M1092.666,606.118a1.294,1.294,0,0,0-.694.833c-.162.616.072,13.482.127,14.915s5.829,8.757,7.263,10.453a7.424,7.424,0,0,0,4.331,2.266.083.083,0,0,0,.076-.072c.008-.066-2.25-1-2.937-2.042a35,35,0,0,1-2.019-6.165s3.969-1.912,4.653-2.3.793-.7.535-1.146-6.71-15.71-7.176-16.275S1094.668,605.883,1092.666,606.118Z" transform="translate(-1059.543 -592.383)" fill="#7125c8" fill-rule="evenodd"/>
        <path id="Trazado_99159" data-name="Trazado 99159" d="M1058.779,586.82a.2.2,0,1,1-.229.325,7.749,7.749,0,0,0-5.676-.914.2.2,0,0,1-.071-.39A8.172,8.172,0,0,1,1058.779,586.82Z" transform="translate(-1044.293 -584.488)" fill="#201049" fill-rule="evenodd"/>
        <path id="Trazado_99160" data-name="Trazado 99160" d="M1045.3,614.591a.2.2,0,0,1,.176.356c-.011.005-3.728,1.909-6.065-2.438a.2.2,0,0,1,.351-.188C1041.914,616.326,1045.29,614.6,1045.3,614.591Z" transform="translate(-1039.146 -594.793)" fill="#201049" fill-rule="evenodd"/>
        <path id="Trazado_99161" data-name="Trazado 99161" d="M1121.7,666.342c-.585-.209-1.8-.872-2.126-1.033-.363-.182-3.4-.862-3.4-.862l1.633,1.815a53.09,53.09,0,0,0-6.079,3.039c-1.089.862-.408,1.27.545,1.27h.952s-.182,1.633,1.044,1.679a6.549,6.549,0,0,0,1.315,0s.454,1.361,1.453,1.225a13.423,13.423,0,0,0,4.718-1.678,7.193,7.193,0,0,0,2.146-1.536C1123.236,669.517,1121.491,667.233,1121.7,666.342Z" transform="translate(-1067.017 -615.074)" fill="#f2bbc9" fill-rule="evenodd"/>
        <path id="Trazado_99162" data-name="Trazado 99162" d="M1121.7,667.378c-.166-.059-.381-.154-.612-.264-.1,1.8,1.289,3.226-.929,4.411-2.442,1.305-4.042.969-6.822-1.685-.129-.088-.254-.171-.377-.251a9.41,9.41,0,0,0-1.234.746c-1.089.862-.408,1.27.545,1.27h.952s-.182,1.633,1.044,1.678a6.549,6.549,0,0,0,1.315,0s.454,1.361,1.453,1.225a13.426,13.426,0,0,0,4.718-1.678,7.2,7.2,0,0,0,2.146-1.536C1123.236,670.554,1121.491,668.269,1121.7,667.378Z" transform="translate(-1067.017 -616.111)" fill="#e98daf" fill-rule="evenodd"/>
      </g>
      <g id="Grupo_53279" data-name="Grupo 53279" transform="translate(46.15 57.596)">
        <path id="Trazado_99163" data-name="Trazado 99163" d="M966.159,677.892H903.112c-3.141,0-5.711,2.149-5.711,4.776v93.713H971.87V682.668C971.87,680.041,969.3,677.892,966.159,677.892Z" transform="translate(-897.401 -677.892)" fill="#12263f" fill-rule="evenodd"/>
        <path id="Trazado_99164" data-name="Trazado 99164" d="M990.162,677.892H937.345c-2.632,0-4.785,1.8-4.785,4v94.488h62.387V681.893C994.947,679.692,992.794,677.892,990.162,677.892Z" transform="translate(-911.054 -677.892)" fill="#727997" fill-rule="evenodd"/>
        <path id="Trazado_99165" data-name="Trazado 99165" d="M992.534,681.921H939.717a.977.977,0,0,0-1.049.877v95.147h54.915V682.8A.977.977,0,0,0,992.534,681.921Z" transform="translate(-913.425 -679.456)" fill="#fff" fill-rule="evenodd"/>
        <path id="Trazado_99166" data-name="Trazado 99166" d="M971.01,681.921h14.4a1.138,1.138,0,0,1,1.222,1.021h0a1.138,1.138,0,0,1-1.222,1.022h-14.4a1.138,1.138,0,0,1-1.221-1.022h0A1.138,1.138,0,0,1,971.01,681.921Z" transform="translate(-925.509 -679.456)" fill="#1a212a" fill-rule="evenodd"/>
        <path id="Trazado_99167" data-name="Trazado 99167" d="M939.717,681.921h52.817a.977.977,0,0,1,1.049.877v.144H938.668V682.8A.977.977,0,0,1,939.717,681.921Z" transform="translate(-913.425 -679.456)" fill="#1a212a" fill-rule="evenodd"/>
        <path id="Trazado_99168" data-name="Trazado 99168" d="M971.01,800.846h14.4a1.138,1.138,0,0,1,1.222,1.021h0a1.138,1.138,0,0,1-1.222,1.021h-14.4a1.139,1.139,0,0,1-1.221-1.021h0A1.138,1.138,0,0,1,971.01,800.846Z" transform="translate(-925.509 -725.635)" fill="#1a212a" fill-rule="evenodd"/>
        <path id="Trazado_99169" data-name="Trazado 99169" d="M939.717,800.846h52.817a.977.977,0,0,1,1.049.876v.146H938.668v-.146A.978.978,0,0,1,939.717,800.846Z" transform="translate(-913.425 -725.635)" fill="#1a212a" fill-rule="evenodd"/>
        <g id="Grupo_53271" data-name="Grupo 53271" transform="translate(25.243 17.828)">
          <rect id="Rectángulo_5035" data-name="Rectángulo 5035" width="12.518" height="19.671" transform="translate(0)" fill="#f9b532"/>
          <rect id="Rectángulo_5036" data-name="Rectángulo 5036" width="12.518" height="16.759" transform="translate(0 2.911)" fill="#f59f3a"/>
          <rect id="Rectángulo_5037" data-name="Rectángulo 5037" width="12.518" height="14.986" transform="translate(0 4.685)" fill="#fff"/>
          <rect id="Rectángulo_5038" data-name="Rectángulo 5038" width="12.518" height="14.986" transform="translate(0 4.685)" fill="#fff2d1"/>
          <path id="Trazado_99170" data-name="Trazado 99170" d="M951.187,712.63h-9.265A3.689,3.689,0,0,0,938.668,715v13.88h12.519Z" transform="translate(-938.668 -709.209)" fill="#fcc749" fill-rule="evenodd"/>
        </g>
        <g id="Grupo_53272" data-name="Grupo 53272" transform="translate(29.199 17.828)">
          <rect id="Rectángulo_5039" data-name="Rectángulo 5039" width="8.562" height="17.389" fill="#f18d3d"/>
          <rect id="Rectángulo_5040" data-name="Rectángulo 5040" width="8.562" height="14.478" transform="translate(0 2.911)" fill="#ee7e40"/>
          <rect id="Rectángulo_5041" data-name="Rectángulo 5041" width="8.562" height="12.704" transform="translate(0 4.685)" fill="#f2bcc2"/>
          <rect id="Rectángulo_5042" data-name="Rectángulo 5042" width="8.562" height="12.704" transform="translate(0 4.685)" fill="#f2b2a5"/>
          <rect id="Rectángulo_5043" data-name="Rectángulo 5043" width="8.562" height="13.968" transform="translate(0 3.421)" fill="#f39a4c"/>
        </g>
        <g id="Grupo_53273" data-name="Grupo 53273" transform="translate(32.445 17.828)">
          <path id="Trazado_99171" data-name="Trazado 99171" d="M972.252,707.037H953.119a2.685,2.685,0,0,0-2.677,2.677v16.993h21.81Z" transform="translate(-950.442 -707.037)" fill="#f9b532" fill-rule="evenodd"/>
          <path id="Trazado_99172" data-name="Trazado 99172" d="M973.2,711.8H955.551a2.685,2.685,0,0,0-2.677,2.678v14.081H973.2Z" transform="translate(-951.386 -708.885)" fill="#f59f3a" fill-rule="evenodd"/>
          <path id="Trazado_99173" data-name="Trazado 99173" d="M954.738,729.681v-12.8a2.188,2.188,0,0,1,2.181-2.182h17v14.985Z" transform="translate(-952.11 -710.011)" fill="#fff" fill-rule="evenodd"/>
          <path id="Trazado_99174" data-name="Trazado 99174" d="M956.914,729.681l3.406-13.572a3.443,3.443,0,0,1,.762-1.414h13.684v14.985Z" transform="translate(-952.955 -710.011)" fill="#fff2d1" fill-rule="evenodd"/>
          <path id="Trazado_99175" data-name="Trazado 99175" d="M975.928,712.63h-9.264a3.677,3.677,0,0,0-3.35,2.677l-3.407,13.572h16.02Z" transform="translate(-954.118 -709.209)" fill="#fcc749" fill-rule="evenodd"/>
        </g>
        <g id="Grupo_53274" data-name="Grupo 53274" transform="translate(45.693 17.828)">
          <rect id="Rectángulo_5044" data-name="Rectángulo 5044" width="8.562" height="17.389" fill="#f18d3d"/>
          <rect id="Rectángulo_5045" data-name="Rectángulo 5045" width="8.562" height="14.478" transform="translate(0 2.911)" fill="#ee7e40"/>
          <rect id="Rectángulo_5046" data-name="Rectángulo 5046" width="8.562" height="12.704" transform="translate(0 4.685)" fill="#f2bcc2"/>
          <rect id="Rectángulo_5047" data-name="Rectángulo 5047" width="8.562" height="12.704" transform="translate(0 4.685)" fill="#f2b2a5"/>
          <rect id="Rectángulo_5048" data-name="Rectángulo 5048" width="8.562" height="13.968" transform="translate(0 3.421)" fill="#f39a4c"/>
        </g>
        <g id="Grupo_53275" data-name="Grupo 53275" transform="translate(48.938 17.828)">
          <path id="Trazado_99176" data-name="Trazado 99176" d="M999.217,707.037H980.083a2.685,2.685,0,0,0-2.677,2.677v16.993h21.811Z" transform="translate(-977.406 -707.037)" fill="#f9b532" fill-rule="evenodd"/>
          <path id="Trazado_99177" data-name="Trazado 99177" d="M1000.161,711.8H982.515a2.686,2.686,0,0,0-2.677,2.678v14.081h20.323Z" transform="translate(-978.35 -708.885)" fill="#f59f3a" fill-rule="evenodd"/>
          <path id="Trazado_99178" data-name="Trazado 99178" d="M981.7,729.681v-12.8a2.188,2.188,0,0,1,2.182-2.182h17v14.985Z" transform="translate(-979.074 -710.011)" fill="#fff" fill-rule="evenodd"/>
          <path id="Trazado_99179" data-name="Trazado 99179" d="M983.878,729.681l3.407-13.572a3.43,3.43,0,0,1,.761-1.414h13.685v14.985Z" transform="translate(-979.919 -710.011)" fill="#fff2d1" fill-rule="evenodd"/>
          <path id="Trazado_99180" data-name="Trazado 99180" d="M1002.893,712.63h-9.265a3.677,3.677,0,0,0-3.35,2.677l-3.406,13.572h16.02Z" transform="translate(-981.082 -709.209)" fill="#fcc749" fill-rule="evenodd"/>
        </g>
        <g id="Grupo_53276" data-name="Grupo 53276" transform="translate(62.187 17.828)">
          <rect id="Rectángulo_5049" data-name="Rectángulo 5049" width="8.562" height="17.389" fill="#f18d3d"/>
          <rect id="Rectángulo_5050" data-name="Rectángulo 5050" width="8.562" height="14.478" transform="translate(0 2.911)" fill="#ee7e40"/>
          <rect id="Rectángulo_5051" data-name="Rectángulo 5051" width="8.562" height="12.704" transform="translate(0 4.685)" fill="#f2bcc2"/>
          <rect id="Rectángulo_5052" data-name="Rectángulo 5052" width="8.562" height="12.704" transform="translate(0 4.685)" fill="#f2b2a5"/>
          <rect id="Rectángulo_5053" data-name="Rectángulo 5053" width="8.562" height="13.968" transform="translate(0 3.421)" fill="#f39a4c"/>
        </g>
        <g id="Grupo_53277" data-name="Grupo 53277" transform="translate(64.942 15.844)">
          <path id="Trazado_99181" data-name="Trazado 99181" d="M1006.247,735.679h32.331a2.686,2.686,0,0,0,2.677-2.678V708.455a2.685,2.685,0,0,0-2.677-2.677h-1.315v-1.247a.739.739,0,0,0-.737-.737h-9.768a.739.739,0,0,0-.737.737v1.247h-19.775a2.686,2.686,0,0,0-2.678,2.677V733A2.686,2.686,0,0,0,1006.247,735.679Z" transform="translate(-1003.569 -703.794)" fill="#f9b532" fill-rule="evenodd"/>
          <path id="Trazado_99182" data-name="Trazado 99182" d="M1007.191,737.527h32.331a2.686,2.686,0,0,0,2.677-2.678V710.818a2.654,2.654,0,0,0-1.19-.281H1039.7v-1.246a.739.739,0,0,0-.737-.737h-9.768a.739.739,0,0,0-.737.737v1.246h-19.775a2.686,2.686,0,0,0-2.678,2.678v24.031A2.652,2.652,0,0,0,1007.191,737.527Z" transform="translate(-1004.513 -705.642)" fill="#f59f3a" fill-rule="evenodd"/>
          <rect id="Rectángulo_5054" data-name="Rectángulo 5054" width="24.794" height="25.216" rx="3.567" transform="translate(2.628 6.669)" fill="#fff"/>
          <path id="Trazado_99183" data-name="Trazado 99183" d="M1030.478,739.912h-20.43a2.188,2.188,0,0,1-2.182-2.182v-2.745l4.737-18.875a3.427,3.427,0,0,1,.762-1.414h17.113a2.189,2.189,0,0,1,2.182,2.182V737.73A2.189,2.189,0,0,1,1030.478,739.912Z" transform="translate(-1005.238 -708.027)" fill="#fff2d1" fill-rule="evenodd"/>
          <path id="Trazado_99184" data-name="Trazado 99184" d="M1011.89,737.647h29.852a3.678,3.678,0,0,0,3.35-2.678l5.3-21.124a2.025,2.025,0,0,0-2.006-2.677h-1.569l.333-1.326a.739.739,0,0,0-.733-.978h-10.9a1.344,1.344,0,0,0-1.223.978l-.332,1.326h-15.432a3.679,3.679,0,0,0-3.35,2.677l-5.3,21.124A2.025,2.025,0,0,0,1011.89,737.647Z" transform="translate(-1005.989 -705.763)" fill="#fcc749" fill-rule="evenodd"/>
          <path id="Trazado_99185" data-name="Trazado 99185" d="M1043.676,715.012l-4.237,16.883a3.679,3.679,0,0,1-3.35,2.678h-26.1l-.1.4a2.025,2.025,0,0,0,2.006,2.678h29.852a3.678,3.678,0,0,0,3.35-2.678l5.3-21.124a2.024,2.024,0,0,0-2.006-2.677h-1.569l.333-1.326a.739.739,0,0,0-.733-.978h-2a2.2,2.2,0,0,1,.324,1.907Z" transform="translate(-1005.989 -705.763)" fill="#f9b532" fill-rule="evenodd"/>
        </g>
        <rect id="Rectángulo_5055" data-name="Rectángulo 5055" width="54.914" height="23.227" transform="translate(62.052 27.734)" fill="#e6e6e6"/>
        <g id="Grupo_53278" data-name="Grupo 53278" transform="translate(25.243 50.961)">
          <path id="Trazado_99186" data-name="Trazado 99186" d="M971.01,761.2h14.4a1.138,1.138,0,0,1,1.222,1.022h0a1.137,1.137,0,0,1-1.222,1.021h-14.4a1.138,1.138,0,0,1-1.221-1.021h0A1.139,1.139,0,0,1,971.01,761.2Z" transform="translate(-950.752 -761.203)" fill="#1a212a" fill-rule="evenodd"/>
          <path id="Trazado_99187" data-name="Trazado 99187" d="M939.717,761.2h52.817a.977.977,0,0,1,1.049.877v.146H938.668v-.146A.978.978,0,0,1,939.717,761.2Z" transform="translate(-938.668 -761.203)" fill="#1a212a" fill-rule="evenodd"/>
        </g>
        <path id="Trazado_99188" data-name="Trazado 99188" d="M999.893,721.562h52.817a.977.977,0,0,1,1.049.877v.145h-19.035a1.139,1.139,0,0,1-1.222,1.021h-14.4a1.138,1.138,0,0,1-1.221-1.021H998.844v-.145A.978.978,0,0,1,999.893,721.562Z" transform="translate(-936.792 -694.849)" fill="#1a212a" fill-rule="evenodd"/>
        <path id="Trazado_99189" data-name="Trazado 99189" d="M975.477,746.459V723.232H938.668v24.1a.978.978,0,0,1,1.049-.877h35.76Z" transform="translate(-913.425 -695.498)" fill="#afafaf" fill-rule="evenodd"/>
      </g>
      <path id="Trazado_99199" data-name="Trazado 99199" d="M1070.407,700.378c-.336.248-.519.41-.519.41s-2.949-.268-3.843.76-2.86,3.53-3.708,3.932.089,1.118,1.876.492a17.088,17.088,0,0,0,3.8-2.145,4.941,4.941,0,0,0,3.306-.432,14.141,14.141,0,0,1-.905-2.827A.8.8,0,0,1,1070.407,700.378Z" transform="translate(-915.174 -629.027)" fill="#f2bbc9" fill-rule="evenodd"/>
    </g>
    <g id="Grupo_84670" data-name="Grupo 84670" transform="translate(1029.596 1580.284)">
      <g id="Grupo_79085" data-name="Grupo 79085" transform="translate(0 0)">
        <rect id="Rectángulo_30234" data-name="Rectángulo 30234" width="89.934" height="86.589" rx="8.41" fill="#e6e6e6"/>
      </g>
      <g id="Grupo_79114" data-name="Grupo 79114" transform="translate(6.285 9.147)">
        <g id="Grupo_79108" data-name="Grupo 79108">
          <g id="Grupo_79086" data-name="Grupo 79086" transform="translate(0 50.172)">
            <rect id="Rectángulo_30235" data-name="Rectángulo 30235" width="2.952" height="0.85" fill="#263238"/>
          </g>
          <g id="Grupo_79087" data-name="Grupo 79087" transform="translate(6.677 54.719)">
            <rect id="Rectángulo_30236" data-name="Rectángulo 30236" width="3.775" height="0.851" fill="#263238"/>
          </g>
          <g id="Grupo_79088" data-name="Grupo 79088" transform="translate(19.817 54.719)">
            <rect id="Rectángulo_30237" data-name="Rectángulo 30237" width="3.775" height="0.851" fill="#263238"/>
          </g>
          <g id="Grupo_79089" data-name="Grupo 79089" transform="translate(32.957 54.719)">
            <rect id="Rectángulo_30238" data-name="Rectángulo 30238" width="3.775" height="0.851" fill="#263238"/>
          </g>
          <g id="Grupo_79090" data-name="Grupo 79090" transform="translate(46.097 54.719)">
            <rect id="Rectángulo_30239" data-name="Rectángulo 30239" width="3.775" height="0.851" fill="#263238"/>
          </g>
          <g id="Grupo_79091" data-name="Grupo 79091" transform="translate(59.237 54.719)">
            <rect id="Rectángulo_30240" data-name="Rectángulo 30240" width="3.775" height="0.851" fill="#263238"/>
          </g>
          <g id="Grupo_79092" data-name="Grupo 79092" transform="translate(72.377 54.719)">
            <rect id="Rectángulo_30241" data-name="Rectángulo 30241" width="3.775" height="0.851" fill="#263238"/>
          </g>
          <g id="Grupo_79093" data-name="Grupo 79093" transform="translate(0 38.812)">
            <rect id="Rectángulo_30242" data-name="Rectángulo 30242" width="2.952" height="0.851" fill="#263238"/>
          </g>
          <g id="Grupo_79094" data-name="Grupo 79094" transform="translate(0 17.432)">
            <rect id="Rectángulo_30243" data-name="Rectángulo 30243" width="2.952" height="0.851" fill="#263238"/>
          </g>
          <g id="Grupo_79095" data-name="Grupo 79095" transform="translate(0 6.687)">
            <rect id="Rectángulo_30244" data-name="Rectángulo 30244" width="2.952" height="0.85" fill="#263238"/>
          </g>
          <g id="Grupo_79096" data-name="Grupo 79096" transform="translate(0.15 28.122)">
            <rect id="Rectángulo_30245" data-name="Rectángulo 30245" width="2.952" height="0.85" fill="#263238"/>
          </g>
          <g id="Grupo_79098" data-name="Grupo 79098" transform="translate(4.353)">
            <g id="Grupo_79097" data-name="Grupo 79097">
              <path id="Trazado_138854" data-name="Trazado 138854" d="M440.777,317.751s-.107.01-.316.014l-.929.014-3.572.026-13.134.045-43.334.041-10.269,0h-.138v-.138c.019-14.491.035-27.242.047-36.383.018-4.558.032-8.215.041-10.744.01-1.251.018-2.222.024-2.892.005-.322.009-.57.012-.749s.013-.254.013-.254.009.086.013.254.007.427.012.749c.005.67.013,1.641.024,2.892.01,2.529.024,6.186.042,10.744.012,9.141.029,21.892.047,36.383l-.138-.138,10.269,0,43.334.041,13.134.045,3.572.026.929.013C440.67,317.742,440.777,317.751,440.777,317.751Z" transform="translate(-369.084 -266.729)" fill="#263238"/>
            </g>
          </g>
          <g id="Grupo_79100" data-name="Grupo 79100" transform="translate(7.346 28.407)">
            <g id="Grupo_79099" data-name="Grupo 79099">
              <path id="Trazado_138855" data-name="Trazado 138855" d="M444.186,319.743c0,.077-15.566.14-34.764.14s-34.767-.063-34.767-.14,15.563-.14,34.767-.14S444.186,319.665,444.186,319.743Z" transform="translate(-374.655 -319.603)" fill="#263238"/>
            </g>
          </g>
          <g id="Grupo_79102" data-name="Grupo 79102" transform="translate(7.346 17.717)">
            <g id="Grupo_79101" data-name="Grupo 79101">
              <path id="Trazado_138856" data-name="Trazado 138856" d="M444.186,299.845c0,.077-15.566.14-34.764.14s-34.767-.062-34.767-.14,15.563-.14,34.767-.14S444.186,299.768,444.186,299.845Z" transform="translate(-374.655 -299.705)" fill="#263238"/>
            </g>
          </g>
          <g id="Grupo_79104" data-name="Grupo 79104" transform="translate(7.346 6.973)">
            <g id="Grupo_79103" data-name="Grupo 79103">
              <path id="Trazado_138857" data-name="Trazado 138857" d="M444.186,279.847c0,.077-15.566.14-34.764.14s-34.767-.063-34.767-.14,15.563-.14,34.767-.14S444.186,279.77,444.186,279.847Z" transform="translate(-374.655 -279.707)" fill="#263238"/>
            </g>
          </g>
          <g id="Grupo_79106" data-name="Grupo 79106" transform="translate(7.346 39.097)">
            <g id="Grupo_79105" data-name="Grupo 79105">
              <path id="Trazado_138858" data-name="Trazado 138858" d="M444.186,339.64c0,.077-15.566.14-34.764.14s-34.767-.063-34.767-.14,15.563-.14,34.767-.14S444.186,339.563,444.186,339.64Z" transform="translate(-374.655 -339.5)" fill="#263238"/>
            </g>
          </g>
          <g id="Grupo_79107" data-name="Grupo 79107" transform="translate(8.063 0.788)">
            <path id="Trazado_138859" data-name="Trazado 138859" d="M375.989,316.13v-9.484l5.911-9.178,4.012,3.078,8.233-12.79,4.856,3.42,6.756-11.8,5.489,4.472,8.234-15.652,8.867,17.494,7.178-8.753,8.445-2.417V316.13Z" transform="translate(-375.989 -268.196)" fill="#25ffff"/>
          </g>
        </g>
        <g id="Grupo_79110" data-name="Grupo 79110" transform="translate(8.063 3.667)">
          <g id="Grupo_79109" data-name="Grupo 79109">
            <path id="Trazado_138860" data-name="Trazado 138860" d="M444.8,273.632a.732.732,0,0,1-.149.011l-.44.011-1.714.02-6.48.037.062-.03-6.944,9.077-.033.043h-.055l-17.386.024.116-.065-7.31,12.169c-2.49,4.139-4.9,8.145-7.177,11.928l-.1.175-.119-.165-9.418-12.95.188-.006-8.591,13.385-2.4,3.7-.636.966c-.145.217-.227.324-.227.324s.062-.119.2-.343l.608-.984,2.344-3.733,8.509-13.438.09-.141.1.135,9.451,12.926-.225.01,7.168-11.933,7.319-12.164.04-.066h.076l17.386.024-.088.043,7-9.037.024-.031h.038l6.48.037,1.714.02.44.01A.852.852,0,0,1,444.8,273.632Z" transform="translate(-375.989 -273.554)" fill="#263238"/>
          </g>
        </g>
        <g id="Grupo_79111" data-name="Grupo 79111" transform="translate(21.333 26.359)">
          <path id="Trazado_138861" data-name="Trazado 138861" d="M402.023,316.432a.668.668,0,1,1-.667-.642A.655.655,0,0,1,402.023,316.432Z" transform="translate(-400.689 -315.79)" fill="#263238"/>
        </g>
        <g id="Grupo_79112" data-name="Grupo 79112" transform="translate(41.387 14.96)">
          <path id="Trazado_138862" data-name="Trazado 138862" d="M439.35,295.216a.668.668,0,1,1-.667-.642A.655.655,0,0,1,439.35,295.216Z" transform="translate(-438.016 -294.574)" fill="#263238"/>
        </g>
        <g id="Grupo_79113" data-name="Grupo 79113" transform="translate(56.978 12.159)">
          <path id="Trazado_138863" data-name="Trazado 138863" d="M468.368,290a.667.667,0,1,1-.667-.643A.655.655,0,0,1,468.368,290Z" transform="translate(-467.034 -289.361)" fill="#263238"/>
        </g>
      </g>
      <g id="Grupo_79115" data-name="Grupo 79115" transform="translate(12.962 71.078)">
        <ellipse id="Elipse_4180" data-name="Elipse 4180" cx="4.314" cy="4.153" rx="4.314" ry="4.153" fill="#fff"/>
      </g>
      <g id="Grupo_79116" data-name="Grupo 79116" transform="translate(27.99 72.45)">
        <rect id="Rectángulo_30246" data-name="Rectángulo 30246" width="50.673" height="1.554" fill="#fff"/>
      </g>
      <g id="Grupo_79117" data-name="Grupo 79117" transform="translate(27.99 76.331)">
        <rect id="Rectángulo_30247" data-name="Rectángulo 30247" width="21.04" height="1.554" fill="#fff"/>
      </g>
    </g>
    <path id="Trazado_142639" data-name="Trazado 142639" d="M937.01,587.326h44.109a5.842,5.842,0,0,1,5.825,5.825v41.092a.65.65,0,0,1-1.11.46l-9.926-9.927h-38.9a5.842,5.842,0,0,1-5.826-5.825v-25.8A5.842,5.842,0,0,1,937.01,587.326Z" transform="translate(182.016 950.352)" fill="#f6f6f6" fill-rule="evenodd"/>
    <g id="Grupo_89125" data-name="Grupo 89125" transform="translate(1116.149 1535.431)">
      <path id="Trazado_99090" data-name="Trazado 99090" d="M941.829,583.653h44.11a5.842,5.842,0,0,1,5.825,5.826v41.092a.65.65,0,0,1-1.11.46l-9.926-9.927h-38.9A5.842,5.842,0,0,1,936,615.279v-25.8A5.843,5.843,0,0,1,941.829,583.653Z" transform="translate(-936.004 -583.653)" fill="#f2e9e4" fill-rule="evenodd"/>
      <g id="Grupo_53266" data-name="Grupo 53266" transform="translate(8.576 4.77)">
        <path id="Trazado_99091" data-name="Trazado 99091" d="M951.92,618.521H974.8a1.9,1.9,0,0,0,1.9-1.9V599.254a1.9,1.9,0,0,0-1.9-1.9h-.93v-.882a.523.523,0,0,0-.522-.522h-6.913a.523.523,0,0,0-.522.522v.882H951.92a1.9,1.9,0,0,0-1.9,1.9v17.372A1.9,1.9,0,0,0,951.92,618.521Z" transform="translate(-950.024 -593.2)" fill="#b2812a" fill-rule="evenodd"/>
        <path id="Rectángulo_5025" data-name="Rectángulo 5025" d="M2.525,0h12.5a2.525,2.525,0,0,1,2.525,2.525v12.8a2.524,2.524,0,0,1-2.524,2.524H2.524A2.524,2.524,0,0,1,0,15.322V2.525A2.525,2.525,0,0,1,2.525,0Z" transform="translate(1.86 7.475)" fill="#fff"/>
        <path id="Trazado_99092" data-name="Trazado 99092" d="M956.072,619.914H977.2a3.338,3.338,0,0,0,2.739-1.9l6.66-14.95c.464-1.042-.009-1.9-1.052-1.9h-1.11l.418-.938c.17-.381,0-.692-.383-.692H976.76a1.219,1.219,0,0,0-1,.692l-.418.938H964.42a3.339,3.339,0,0,0-2.74,1.9l-6.66,14.95C954.556,619.062,955.029,619.914,956.072,619.914Z" transform="translate(-951.895 -594.593)" fill="#fed981" fill-rule="evenodd"/>
        <g id="Grupo_53265" data-name="Grupo 53265" transform="translate(12.738 8.872)">
          <g id="Grupo_53264" data-name="Grupo 53264">
            <path id="Trazado_99093" data-name="Trazado 99093" d="M973,608.111a7.36,7.36,0,1,1-2.156,5.2,7.338,7.338,0,0,1,2.156-5.2Zm5.2-1.1a6.3,6.3,0,1,0,4.459,1.847A6.287,6.287,0,0,0,978.209,607.009Z" transform="translate(-970.849 -605.955)" fill="#344154" fill-rule="evenodd"/>
            <path id="Trazado_99094" data-name="Trazado 99094" d="M990.073,625.924a.527.527,0,0,1,.745-.745l1.742,1.742a.527.527,0,0,1-.746.746Z" transform="translate(-978.254 -613.36)" fill="#344154" fill-rule="evenodd"/>
            <path id="Trazado_99095" data-name="Trazado 99095" d="M992.939,629.535a1.054,1.054,0,0,1,1.491-1.491l5.614,5.615a1.054,1.054,0,0,1-1.491,1.491Z" transform="translate(-979.307 -614.412)" fill="#344154" fill-rule="evenodd"/>
          </g>
          <path id="Trazado_99096" data-name="Trazado 99096" d="M982.811,611.664a.348.348,0,0,1,.492-.492,5.824,5.824,0,0,1,1.708,4.13h0a5.86,5.86,0,0,1-.227,1.617.348.348,0,0,1-.67-.191,5.13,5.13,0,0,0,.2-1.426h0a5.122,5.122,0,0,0-1.508-3.637Zm.693,6.417a.347.347,0,1,1,.584.376,5.67,5.67,0,0,1-.366.506,5.808,5.808,0,0,1-.419.467.348.348,0,0,1-.492-.492,5.114,5.114,0,0,0,.37-.41,5.032,5.032,0,0,0,.323-.447Zm-7.967.858a.348.348,0,1,1-.492.492,5.832,5.832,0,0,1-1.71-4.129,5.861,5.861,0,0,1,.391-2.1.347.347,0,0,1,.647.248,5.183,5.183,0,0,0,.048,3.825,5.125,5.125,0,0,0,1.116,1.664ZM975,612.295a.347.347,0,1,1-.563-.4c.093-.129.19-.253.29-.371l.017-.018c.105-.122.206-.232.3-.329a.348.348,0,1,1,.492.492q-.154.154-.269.287l-.016.019C975.16,612.078,975.075,612.187,975,612.295Z" transform="translate(-971.814 -607.941)" fill="#fff" fill-rule="evenodd"/>
        </g>
        <path id="Trazado_99097" data-name="Trazado 99097" d="M988.981,591.451h16.636a.387.387,0,0,1,.386.386h0a.387.387,0,0,1-.386.386H988.981a.387.387,0,0,1-.386-.386h0A.387.387,0,0,1,988.981,591.451Z" transform="translate(-965.001 -591.451)" fill="#12263f" fill-rule="evenodd"/>
        <path id="Trazado_99098" data-name="Trazado 99098" d="M988.981,595.41h16.636a.387.387,0,0,1,.386.386h0a.387.387,0,0,1-.386.386H988.981a.387.387,0,0,1-.386-.386h0A.387.387,0,0,1,988.981,595.41Z" transform="translate(-965.001 -592.988)" fill="#12263f" fill-rule="evenodd"/>
        <path id="Trazado_99099" data-name="Trazado 99099" d="M1011.042,599.77h3.141a.387.387,0,0,1,.386.386h0a.387.387,0,0,1-.386.386h-3.141a.387.387,0,0,1-.386-.386h0A.387.387,0,0,1,1011.042,599.77Z" transform="translate(-973.568 -594.681)" fill="#12263f" fill-rule="evenodd"/>
        <path id="Trazado_99100" data-name="Trazado 99100" d="M1011.042,604.245h3.141a.387.387,0,0,1,.386.386h0a.387.387,0,0,1-.386.386h-3.141a.387.387,0,0,1-.386-.386h0A.387.387,0,0,1,1011.042,604.245Z" transform="translate(-973.568 -596.419)" fill="#12263f" fill-rule="evenodd"/>
        <path id="Trazado_99101" data-name="Trazado 99101" d="M1011.042,608.72h3.141a.387.387,0,0,1,.386.386h0a.387.387,0,0,1-.386.386h-3.141a.387.387,0,0,1-.386-.386h0A.387.387,0,0,1,1011.042,608.72Z" transform="translate(-973.568 -598.157)" fill="#12263f" fill-rule="evenodd"/>
        <path id="Trazado_99102" data-name="Trazado 99102" d="M1011.042,613.2h3.141a.388.388,0,0,1,.386.387h0a.386.386,0,0,1-.386.385h-3.141a.387.387,0,0,1-.386-.385h0A.388.388,0,0,1,1011.042,613.2Z" transform="translate(-973.568 -599.894)" fill="#12263f" fill-rule="evenodd"/>
        <path id="Trazado_99103" data-name="Trazado 99103" d="M1011.042,617.671h3.141a.387.387,0,0,1,.386.386h0a.386.386,0,0,1-.386.385h-3.141a.386.386,0,0,1-.386-.385h0A.387.387,0,0,1,1011.042,617.671Z" transform="translate(-973.568 -601.632)" fill="#12263f" fill-rule="evenodd"/>
        <path id="Trazado_99104" data-name="Trazado 99104" d="M1011.042,622.146h3.141a.387.387,0,0,1,.386.386h0a.387.387,0,0,1-.386.386h-3.141a.387.387,0,0,1-.386-.386h0A.387.387,0,0,1,1011.042,622.146Z" transform="translate(-973.568 -603.37)" fill="#12263f" fill-rule="evenodd"/>
        <rect id="Rectángulo_5026" data-name="Rectángulo 5026" width="8.739" height="0.772" rx="0.386" transform="translate(32.262 21.513)" fill="#12263f"/>
        <path id="Trazado_99105" data-name="Trazado 99105" d="M1004.443,622.146h2.351a.387.387,0,0,1,.387.386h0a.387.387,0,0,1-.387.386h-2.351a.387.387,0,0,1-.386-.386h0A.387.387,0,0,1,1004.443,622.146Z" transform="translate(-971.005 -603.37)" fill="#12263f" fill-rule="evenodd"/>
        <path id="Trazado_99106" data-name="Trazado 99106" d="M1006.165,617.671h1.185a.387.387,0,0,1,.386.386h0a.387.387,0,0,1-.386.385h-1.185a.387.387,0,0,1-.386-.385h0A.387.387,0,0,1,1006.165,617.671Z" transform="translate(-971.674 -601.632)" fill="#12263f" fill-rule="evenodd"/>
        <path id="Trazado_99107" data-name="Trazado 99107" d="M1007.515,613.2h.867a.388.388,0,0,1,.387.387h0a.387.387,0,0,1-.387.385h-.867a.386.386,0,0,1-.386-.385h0A.387.387,0,0,1,1007.515,613.2Z" transform="translate(-972.198 -599.894)" fill="#12263f" fill-rule="evenodd"/>
      </g>
    </g>
  </g>
</svg>
