<svg xmlns="http://www.w3.org/2000/svg" width="402" height="155" viewBox="0 0 402 155">
  <g id="Grupo_974112" data-name="Grupo 974112" transform="translate(8927.996 4779)">
    <rect id="Rectángulo_50149" data-name="Rectángulo 50149" width="402" height="155" rx="10" transform="translate(-8927.996 -4779)" fill="#a4a3ff"/>
    <path id="Trazado_705103" data-name="Trazado 705103" d="M13.647,0H1.536V-1.688L7.935-8.8A15.2,15.2,0,0,0,9.9-11.419a4.375,4.375,0,0,0,.54-2.088,3.317,3.317,0,0,0-.876-2.374,3.063,3.063,0,0,0-2.336-.927,3.627,3.627,0,0,0-2.723,1,3.807,3.807,0,0,0-.971,2.774H1.181a5.452,5.452,0,0,1,1.644-4.126,6.1,6.1,0,0,1,4.4-1.574A5.856,5.856,0,0,1,11.3-17.386a4.612,4.612,0,0,1,1.5,3.6q0,2.729-3.479,6.5L4.367-1.917h9.28Z" transform="translate(-8860.887 -4695.792)" fill="#fff"/>
    <path id="Trazado_705104" data-name="Trazado 705104" d="M22.628-18.681H3.488v-3.695h19.14Zm0,9.524H3.488v-3.672h19.14Z" transform="translate(-8833.89 -4673)" fill="#fff"/>
    <path id="Trazado_705105" data-name="Trazado 705105" d="M20.081-13.242,6.747,2.685H27.424V6.173H1.583V2.892L15.56-13.54,1.583-30.109v-3.3H25.657v3.488H6.724l13.356,16.11ZM42.2-13.563a35.481,35.481,0,0,1,1.388-9.96A28.933,28.933,0,0,1,47.734-32.2a17.622,17.622,0,0,1,5.714-5.508l.872,2.8a18.278,18.278,0,0,0-5.5,7.849,34.025,34.025,0,0,0-2.352,11.819l-.023,1.951A34.2,34.2,0,0,0,49.685,2.088a18.364,18.364,0,0,0,4.636,6.1l-.872,2.593A18.188,18.188,0,0,1,47.62,5.095Q42.2-2.708,42.2-13.563ZM70-20.608,78-33.414h5.187L72.634-16.845,83.443,0H78.211L70-13.035,61.733,0H56.524L67.356-16.845,56.776-33.414H61.94Zm25.68,8.147h-11.2v-3.465h11.2Z" transform="translate(-8751.89 -4709)" fill="#fff"/>
    <path id="Trazado_705106" data-name="Trazado 705106" d="M29.559,0H25.129L8.308-25.749V0H3.878V-33.414H8.308L25.175-7.55V-33.414h4.383Z" transform="translate(-8693.89 -4637)" fill="#fff"/>
    <path id="Trazado_705107" data-name="Trazado 705107" d="M13.012-13.333A35.5,35.5,0,0,1,11.67-3.523,29.01,29.01,0,0,1,7.562,5.141a18,18,0,0,1-5.795,5.646l-.9-2.593A18.45,18.45,0,0,0,6.552-.218,36.387,36.387,0,0,0,8.744-12.875v-.734a37.779,37.779,0,0,0-1.01-8.962,30.245,30.245,0,0,0-2.811-7.424A17.148,17.148,0,0,0,.872-35.112l.9-2.593a17.928,17.928,0,0,1,5.772,5.6,29.072,29.072,0,0,1,4.108,8.652A36.318,36.318,0,0,1,13.012-13.333Z" transform="translate(-8611.89 -4709)" fill="#fff"/>
    <path id="Trazado_705108" data-name="Trazado 705108" d="M13.586-7.71a9.474,9.474,0,0,0,7.55-3.236q2.8-3.236,3.052-9.065l.023-1.515q0-5.508-2.57-8.721a8.436,8.436,0,0,0-6.954-3.213A9.159,9.159,0,0,0,7.6-30.613V-42.547H3.328v22.857a14.518,14.518,0,0,0,1.3,6.334A9.748,9.748,0,0,0,8.273-9.179,9.823,9.823,0,0,0,13.586-7.71ZM7.6-26.62a6.26,6.26,0,0,1,5.829-3.374,5.732,5.732,0,0,1,4.819,2.238q1.721,2.238,1.721,6.713A13.369,13.369,0,0,1,18.3-13.769a5.3,5.3,0,0,1-4.716,2.57,5.012,5.012,0,0,1-4.337-2.479A11.244,11.244,0,0,1,7.6-20.034Z" transform="translate(-8907.854 -4701.109) rotate(97)" fill="#fff"/>
    <g id="X_" data-name="X " transform="translate(-8641.951 -4759.992)" style="isolation: isolate">
      <text id="_" data-name="µ" transform="translate(0 47)" fill="#fff" font-size="51" font-family="Roboto-Medium, Roboto" font-weight="500" style="isolation: isolate"><tspan x="0" y="0">µ</tspan></text>
    </g>
    <path id="Trazado_705109" data-name="Trazado 705109" d="M13.647,0H1.536V-1.688L7.935-8.8A15.2,15.2,0,0,0,9.9-11.419a4.375,4.375,0,0,0,.54-2.088,3.317,3.317,0,0,0-.876-2.374,3.063,3.063,0,0,0-2.336-.927,3.627,3.627,0,0,0-2.723,1,3.807,3.807,0,0,0-.971,2.774H1.181a5.452,5.452,0,0,1,1.644-4.126,6.1,6.1,0,0,1,4.4-1.574A5.856,5.856,0,0,1,11.3-17.386a4.612,4.612,0,0,1,1.5,3.6q0,2.729-3.479,6.5L4.367-1.917h9.28Z" transform="translate(-8590.77 -4745.179)" fill="#fff"/>
    <path id="Trazado_197258" data-name="Trazado 197258" d="M-9613.244-9288.434h226.6" transform="translate(829.431 4602.409)" fill="#fff" stroke="#fff" stroke-width="3"/>
  </g>
</svg>
