<svg xmlns="http://www.w3.org/2000/svg" xmlns:xlink="http://www.w3.org/1999/xlink" width="384.455" height="178.448" viewBox="0 0 384.455 178.448">
  <defs>
    <linearGradient id="linear-gradient" x1="0.5" x2="0.5" y2="1" gradientUnits="objectBoundingBox">
      <stop offset="0" stop-color="#fed981"/>
      <stop offset="1" stop-color="#ffd061"/>
    </linearGradient>
  </defs>
  <g id="Grupo_166661" data-name="Grupo 166661" transform="translate(9728.788 10105.798)">
    <path id="Trazado_197205" data-name="Trazado 197205" d="M-9716.566-10094.044v129.416h343.43" transform="translate(7.612 5.895)" fill="none" stroke="#12263f" stroke-width="2"/>
    <path id="Trazado_704984" data-name="Trazado 704984" d="M7.5,0,15,12H0Z" transform="translate(-9716.788 -10098.798)" fill="#12263f"/>
    <path id="Trazado_704985" data-name="Trazado 704985" d="M7.5,0,15,12H0Z" transform="translate(-9353.788 -9965.798) rotate(90)" fill="#12263f"/>
    <path id="Trazado_704986" data-name="Trazado 704986" d="M3.359-4.008V0H1.016V-11.375H5.453a5.134,5.134,0,0,1,2.254.469A3.454,3.454,0,0,1,9.2-9.574a3.714,3.714,0,0,1,.523,1.965A3.266,3.266,0,0,1,8.582-4.973a4.767,4.767,0,0,1-3.168.965Zm0-1.9H5.453a2.059,2.059,0,0,0,1.418-.437,1.591,1.591,0,0,0,.488-1.25,1.876,1.876,0,0,0-.492-1.352,1.839,1.839,0,0,0-1.359-.531H3.359Zm12.578-.43a6.134,6.134,0,0,0-.812-.062,1.654,1.654,0,0,0-1.68.867V0H11.188V-8.453H13.32l.063,1.008a2.092,2.092,0,0,1,1.883-1.164,2.366,2.366,0,0,1,.7.1ZM16.391-4.3a5.013,5.013,0,0,1,.484-2.242A3.546,3.546,0,0,1,18.27-8.07a4.069,4.069,0,0,1,2.113-.539,3.849,3.849,0,0,1,2.793,1.047,4.2,4.2,0,0,1,1.207,2.844l.016.578A4.418,4.418,0,0,1,23.313-1.02,3.775,3.775,0,0,1,20.4.156,3.793,3.793,0,0,1,17.48-1.016,4.5,4.5,0,0,1,16.391-4.2Zm2.258.16A3.16,3.16,0,0,0,19.1-2.3a1.5,1.5,0,0,0,1.3.638,1.5,1.5,0,0,0,1.281-.63,3.457,3.457,0,0,0,.461-2.015A3.128,3.128,0,0,0,21.68-6.14a1.5,1.5,0,0,0-1.3-.649,1.474,1.474,0,0,0-1.281.646A3.516,3.516,0,0,0,18.648-4.144Zm14.758,0A5.119,5.119,0,0,1,32.539-.98,2.872,2.872,0,0,1,30.117.156,2.639,2.639,0,0,1,27.922-.9l-.1.9H25.789V-12h2.258v4.3A2.571,2.571,0,0,1,30.1-8.609a2.9,2.9,0,0,1,2.426,1.137,5.126,5.126,0,0,1,.879,3.2Zm-2.258-.164a3.363,3.363,0,0,0-.406-1.871,1.374,1.374,0,0,0-1.211-.59,1.489,1.489,0,0,0-1.484.883v3.336a1.509,1.509,0,0,0,1.5.891,1.394,1.394,0,0,0,1.438-1.078A5.562,5.562,0,0,0,31.148-4.312ZM39.7,0a2.507,2.507,0,0,1-.227-.758,2.732,2.732,0,0,1-2.133.914,3,3,0,0,1-2.059-.719,2.312,2.312,0,0,1-.816-1.812,2.389,2.389,0,0,1,1-2.062,4.915,4.915,0,0,1,2.879-.727h1.039v-.484a1.393,1.393,0,0,0-.3-.937,1.183,1.183,0,0,0-.949-.352,1.345,1.345,0,0,0-.895.273.929.929,0,0,0-.324.75H34.648A2.268,2.268,0,0,1,35.1-7.273a3,3,0,0,1,1.281-.98,4.669,4.669,0,0,1,1.859-.355,3.689,3.689,0,0,1,2.48.785,2.747,2.747,0,0,1,.918,2.207v3.664a4.041,4.041,0,0,0,.336,1.82V0ZM37.828-1.57a1.945,1.945,0,0,0,.922-.223,1.462,1.462,0,0,0,.625-.6V-3.844h-.844q-1.7,0-1.8,1.172l-.008.133a.9.9,0,0,0,.3.7A1.153,1.153,0,0,0,37.828-1.57ZM50.992-4.148A5.119,5.119,0,0,1,50.125-.98,2.872,2.872,0,0,1,47.7.156,2.639,2.639,0,0,1,45.508-.9l-.1.9H43.375V-12h2.258v4.3a2.571,2.571,0,0,1,2.055-.914,2.9,2.9,0,0,1,2.426,1.137,5.126,5.126,0,0,1,.879,3.2Zm-2.258-.164a3.363,3.363,0,0,0-.406-1.871,1.374,1.374,0,0,0-1.211-.59,1.489,1.489,0,0,0-1.484.883v3.336a1.509,1.509,0,0,0,1.5.891A1.394,1.394,0,0,0,48.57-2.742,5.562,5.562,0,0,0,48.734-4.312ZM54.766,0H52.5V-8.453h2.266Zm-2.4-10.641a1.112,1.112,0,0,1,.34-.836,1.277,1.277,0,0,1,.926-.328,1.28,1.28,0,0,1,.922.328,1.105,1.105,0,0,1,.344.836,1.108,1.108,0,0,1-.348.844,1.283,1.283,0,0,1-.918.328,1.283,1.283,0,0,1-.918-.328A1.108,1.108,0,0,1,52.367-10.641ZM59.008,0H56.742V-12h2.266ZM63.25,0H60.984V-8.453H63.25Zm-2.4-10.641a1.112,1.112,0,0,1,.34-.836,1.277,1.277,0,0,1,.926-.328,1.28,1.28,0,0,1,.922.328,1.105,1.105,0,0,1,.344.836,1.108,1.108,0,0,1-.348.844,1.283,1.283,0,0,1-.918.328A1.283,1.283,0,0,1,61.2-9.8,1.108,1.108,0,0,1,60.852-10.641Zm3.906,6.352a5.094,5.094,0,0,1,.887-3.148A2.877,2.877,0,0,1,68.07-8.609a2.589,2.589,0,0,1,2.039.922V-12h2.266V0H70.336l-.109-.9A2.657,2.657,0,0,1,68.055.156,2.869,2.869,0,0,1,65.66-1.02,5.258,5.258,0,0,1,64.758-4.289Zm2.258.168A3.337,3.337,0,0,0,67.43-2.3a1.349,1.349,0,0,0,1.2.634,1.511,1.511,0,0,0,1.477-.884V-5.889a1.489,1.489,0,0,0-1.461-.884Q67.016-6.773,67.016-4.121ZM79.023,0A2.507,2.507,0,0,1,78.8-.758a2.732,2.732,0,0,1-2.133.914,3,3,0,0,1-2.059-.719,2.312,2.312,0,0,1-.816-1.812,2.389,2.389,0,0,1,1-2.062,4.915,4.915,0,0,1,2.879-.727H78.7v-.484a1.393,1.393,0,0,0-.3-.937,1.183,1.183,0,0,0-.949-.352,1.345,1.345,0,0,0-.895.273.929.929,0,0,0-.324.75H73.977a2.268,2.268,0,0,1,.453-1.359,3,3,0,0,1,1.281-.98,4.669,4.669,0,0,1,1.859-.355,3.689,3.689,0,0,1,2.48.785,2.747,2.747,0,0,1,.918,2.207v3.664A4.041,4.041,0,0,0,81.3-.133V0ZM77.156-1.57a1.945,1.945,0,0,0,.922-.223,1.462,1.462,0,0,0,.625-.6V-3.844h-.844q-1.7,0-1.8,1.172l-.008.133a.9.9,0,0,0,.3.7A1.153,1.153,0,0,0,77.156-1.57Zm5.2-2.719a5.094,5.094,0,0,1,.887-3.148,2.877,2.877,0,0,1,2.426-1.172,2.589,2.589,0,0,1,2.039.922V-12h2.266V0H87.93L87.82-.9A2.657,2.657,0,0,1,85.648.156,2.869,2.869,0,0,1,83.254-1.02,5.258,5.258,0,0,1,82.352-4.289Zm2.258.168A3.337,3.337,0,0,0,85.023-2.3a1.349,1.349,0,0,0,1.2.634A1.511,1.511,0,0,0,87.7-2.548V-5.889a1.489,1.489,0,0,0-1.461-.884Q84.609-6.773,84.609-4.121Z" transform="translate(-9716.788 -9983.798) rotate(-90)" fill="#12263f"/>
    <path id="Trazado_704987" data-name="Trazado 704987" d="M4.078-11.375,7-3.125l2.906-8.25h3.078V0H10.633V-3.109l.234-5.367L7.8,0H6.188L3.125-8.469l.234,5.359V0H1.016V-11.375ZM18.773.156A4.15,4.15,0,0,1,15.746-.984a4.054,4.054,0,0,1-1.168-3.039v-.219A5.106,5.106,0,0,1,15.07-6.52a3.612,3.612,0,0,1,1.395-1.547,3.914,3.914,0,0,1,2.059-.543,3.508,3.508,0,0,1,2.73,1.094,4.444,4.444,0,0,1,1,3.1v.922H16.867a2.1,2.1,0,0,0,.66,1.328,2,2,0,0,0,1.395.5,2.437,2.437,0,0,0,2.039-.945L22.07-1.367A3.389,3.389,0,0,1,20.7-.246,4.511,4.511,0,0,1,18.773.156Zm-.258-6.945a1.411,1.411,0,0,0-1.09.455,2.357,2.357,0,0,0-.535,1.3h3.141v-.181a1.681,1.681,0,0,0-.406-1.165A1.456,1.456,0,0,0,18.516-6.789Zm4.664,2.5a5.094,5.094,0,0,1,.887-3.148,2.877,2.877,0,0,1,2.426-1.172,2.589,2.589,0,0,1,2.039.922V-12H30.8V0H28.758l-.109-.9A2.657,2.657,0,0,1,26.477.156,2.869,2.869,0,0,1,24.082-1.02,5.258,5.258,0,0,1,23.18-4.289Zm2.258.168A3.337,3.337,0,0,0,25.852-2.3a1.349,1.349,0,0,0,1.2.634,1.511,1.511,0,0,0,1.477-.884V-5.889a1.489,1.489,0,0,0-1.461-.884Q25.438-6.773,25.438-4.121ZM34.93,0H32.664V-8.453H34.93Zm-2.4-10.641a1.112,1.112,0,0,1,.34-.836A1.277,1.277,0,0,1,33.8-11.8a1.28,1.28,0,0,1,.922.328,1.105,1.105,0,0,1,.344.836,1.108,1.108,0,0,1-.348.844,1.283,1.283,0,0,1-.918.328,1.283,1.283,0,0,1-.918-.328A1.108,1.108,0,0,1,32.531-10.641ZM41.688,0a2.507,2.507,0,0,1-.227-.758,2.732,2.732,0,0,1-2.133.914A3,3,0,0,1,37.27-.562a2.312,2.312,0,0,1-.816-1.812,2.389,2.389,0,0,1,1-2.062,4.915,4.915,0,0,1,2.879-.727h1.039v-.484a1.393,1.393,0,0,0-.3-.937,1.183,1.183,0,0,0-.949-.352,1.345,1.345,0,0,0-.895.273.929.929,0,0,0-.324.75H36.641a2.268,2.268,0,0,1,.453-1.359,3,3,0,0,1,1.281-.98,4.669,4.669,0,0,1,1.859-.355,3.689,3.689,0,0,1,2.48.785,2.747,2.747,0,0,1,.918,2.207v3.664a4.041,4.041,0,0,0,.336,1.82V0ZM39.82-1.57a1.945,1.945,0,0,0,.922-.223,1.462,1.462,0,0,0,.625-.6V-3.844h-.844q-1.7,0-1.8,1.172l-.008.133a.9.9,0,0,0,.3.7A1.153,1.153,0,0,0,39.82-1.57Zm7.625-6.883.07.977a2.951,2.951,0,0,1,2.43-1.133,2.453,2.453,0,0,1,2,.789,3.682,3.682,0,0,1,.672,2.359V0H50.359V-5.406a1.465,1.465,0,0,0-.312-1.043,1.4,1.4,0,0,0-1.039-.324,1.553,1.553,0,0,0-1.43.813V0H45.32V-8.453ZM59.227,0A2.507,2.507,0,0,1,59-.758a2.732,2.732,0,0,1-2.133.914,3,3,0,0,1-2.059-.719,2.312,2.312,0,0,1-.816-1.812,2.389,2.389,0,0,1,1-2.062,4.915,4.915,0,0,1,2.879-.727h1.039v-.484a1.393,1.393,0,0,0-.3-.937,1.183,1.183,0,0,0-.949-.352,1.345,1.345,0,0,0-.895.273.929.929,0,0,0-.324.75H54.18a2.268,2.268,0,0,1,.453-1.359,3,3,0,0,1,1.281-.98,4.669,4.669,0,0,1,1.859-.355,3.689,3.689,0,0,1,2.48.785,2.747,2.747,0,0,1,.918,2.207v3.664a4.041,4.041,0,0,0,.336,1.82V0ZM57.359-1.57a1.945,1.945,0,0,0,.922-.223,1.462,1.462,0,0,0,.625-.6V-3.844h-.844q-1.7,0-1.8,1.172l-.008.133a.9.9,0,0,0,.3.7A1.153,1.153,0,0,0,57.359-1.57Z" transform="translate(-9634.949 -9927.506)" fill="#12263f"/>
    <path id="Trazado_704988" data-name="Trazado 704988" d="M5.219-2.82,7.8-11.375h2.609L6.445,0H4L.055-11.375h2.6ZM15.867,0a2.507,2.507,0,0,1-.227-.758,2.732,2.732,0,0,1-2.133.914,3,3,0,0,1-2.059-.719,2.312,2.312,0,0,1-.816-1.812,2.389,2.389,0,0,1,1-2.062,4.915,4.915,0,0,1,2.879-.727h1.039v-.484a1.393,1.393,0,0,0-.3-.937,1.183,1.183,0,0,0-.949-.352,1.345,1.345,0,0,0-.895.273.929.929,0,0,0-.324.75H10.82a2.268,2.268,0,0,1,.453-1.359,3,3,0,0,1,1.281-.98,4.669,4.669,0,0,1,1.859-.355,3.689,3.689,0,0,1,2.48.785,2.747,2.747,0,0,1,.918,2.207v3.664a4.041,4.041,0,0,0,.336,1.82V0ZM14-1.57a1.945,1.945,0,0,0,.922-.223,1.462,1.462,0,0,0,.625-.6V-3.844H14.7q-1.7,0-1.8,1.172l-.008.133a.9.9,0,0,0,.3.7A1.153,1.153,0,0,0,14-1.57ZM21.93,0H19.664V-12H21.93Zm1.508-4.3a5.013,5.013,0,0,1,.484-2.242A3.546,3.546,0,0,1,25.316-8.07a4.069,4.069,0,0,1,2.113-.539,3.849,3.849,0,0,1,2.793,1.047A4.2,4.2,0,0,1,31.43-4.719l.016.578A4.418,4.418,0,0,1,30.359-1.02,3.775,3.775,0,0,1,27.445.156a3.793,3.793,0,0,1-2.918-1.172A4.5,4.5,0,0,1,23.438-4.2Zm2.258.16A3.16,3.16,0,0,0,26.148-2.3a1.5,1.5,0,0,0,1.3.638,1.5,1.5,0,0,0,1.281-.63,3.457,3.457,0,0,0,.461-2.015,3.128,3.128,0,0,0-.461-1.831,1.5,1.5,0,0,0-1.3-.649,1.474,1.474,0,0,0-1.281.646A3.516,3.516,0,0,0,25.7-4.144ZM37.586-6.336a6.134,6.134,0,0,0-.812-.062,1.654,1.654,0,0,0-1.68.867V0H32.836V-8.453h2.133l.063,1.008a2.092,2.092,0,0,1,1.883-1.164,2.366,2.366,0,0,1,.7.1Z" transform="translate(-9381.95 -9978.271)" fill="#12263f"/>
    <path id="Trazado_197206" data-name="Trazado 197206" d="M-9716.566-9962.238s38.148-47.68,46.461-102.92,50.131-30.492,64.311-10.779,55.754,59.84,70.912,66.344,91.318,41.131,155.059,47.355" transform="translate(7.612 3.506)" fill="#ff8578" stroke="#12263f" stroke-width="1"/>
    <path id="Trazado_197207" data-name="Trazado 197207" d="M-9611.3-9961.961v-122.182s-32.026-23.027-43.571-12.6-16.118,30.383-15.61,33.918-23.1,80.174-45.884,100.867c9.3-.654,21.225,1.594,45.884,0A493.845,493.845,0,0,1-9611.3-9961.961Z" transform="translate(7.709 3.228)" stroke="#12263f" stroke-width="1" fill="url(#linear-gradient)"/>
    <path id="Trazado_197208" data-name="Trazado 197208" d="M-9646-10087.352l1.344,119.164,229.887.593" transform="translate(42.406 9.197)" fill="none" stroke="#12263f" stroke-width="1"/>
    <path id="Trazado_704989" data-name="Trazado 704989" d="M0,0H11V152H0Z" transform="translate(-9609.788 -10105.798)" fill="#12263f"/>
    <path id="Trazado_704990" data-name="Trazado 704990" d="M.763-3.846,1.214-7.82H5.6v1.294H2.487L2.293-4.845a2.461,2.461,0,0,1,1.176-.3,2.254,2.254,0,0,1,1.751.693,2.768,2.768,0,0,1,.634,1.939,2.835,2.835,0,0,1-.32,1.356,2.256,2.256,0,0,1-.916.929,2.859,2.859,0,0,1-1.407.33A3.036,3.036,0,0,1,1.9-.18,2.334,2.334,0,0,1,.937-.988,2.2,2.2,0,0,1,.564-2.175H2.1a1.147,1.147,0,0,0,.341.76,1.081,1.081,0,0,0,.765.271.954.954,0,0,0,.811-.379A1.754,1.754,0,0,0,4.3-2.594a1.451,1.451,0,0,0-.328-1.021,1.2,1.2,0,0,0-.929-.354,1.344,1.344,0,0,0-.9.29L2-3.54Zm11.344.612a3.962,3.962,0,0,1-.671,2.481A2.344,2.344,0,0,1,9.469.107,2.36,2.36,0,0,1,7.514-.736a3.846,3.846,0,0,1-.693-2.417V-4.592A3.91,3.91,0,0,1,7.5-7.079a2.361,2.361,0,0,1,1.958-.849,2.363,2.363,0,0,1,1.955.841,3.834,3.834,0,0,1,.693,2.414ZM10.554-4.816a2.864,2.864,0,0,0-.266-1.417.9.9,0,0,0-.83-.444.883.883,0,0,0-.808.422,2.68,2.68,0,0,0-.277,1.32v1.9a3.006,3.006,0,0,0,.26,1.422.887.887,0,0,0,.835.465.872.872,0,0,0,.822-.446,2.934,2.934,0,0,0,.263-1.366Zm2.578-1.5A1.546,1.546,0,0,1,13.6-7.485a1.7,1.7,0,0,1,1.225-.448,1.721,1.721,0,0,1,1.235.443,1.576,1.576,0,0,1,.467,1.2V-5.9a1.527,1.527,0,0,1-.467,1.166,1.713,1.713,0,0,1-1.225.44A1.724,1.724,0,0,1,13.6-4.74a1.564,1.564,0,0,1-.47-1.2Zm1.031.414a.724.724,0,0,0,.185.518.638.638,0,0,0,.486.2.608.608,0,0,0,.478-.2.769.769,0,0,0,.177-.532v-.4a.753.753,0,0,0-.177-.521.621.621,0,0,0-.489-.2.623.623,0,0,0-.478.2.769.769,0,0,0-.183.545Zm2.707,3.985a1.526,1.526,0,0,1,.473-1.168,1.718,1.718,0,0,1,1.225-.443,1.736,1.736,0,0,1,1.233.438,1.567,1.567,0,0,1,.47,1.206V-1.5a1.538,1.538,0,0,1-.462,1.163,1.7,1.7,0,0,1-1.23.443,1.723,1.723,0,0,1-1.241-.446,1.557,1.557,0,0,1-.467-1.182ZM17.9-1.5a.718.718,0,0,0,.193.5.631.631,0,0,0,.483.209q.655,0,.655-.725v-.408a.73.73,0,0,0-.183-.518.629.629,0,0,0-.483-.2.629.629,0,0,0-.483.2A.753.753,0,0,0,17.9-1.9Zm-2.761.913-.757-.408L18.2-7.106l.757.408Z" transform="translate(-9645.788 -9973.798)" fill="#12263f"/>
    <path id="Trazado_704991" data-name="Trazado 704991" d="M.763-3.846,1.214-7.82H5.6v1.294H2.487L2.293-4.845a2.461,2.461,0,0,1,1.176-.3,2.254,2.254,0,0,1,1.751.693,2.768,2.768,0,0,1,.634,1.939,2.835,2.835,0,0,1-.32,1.356,2.256,2.256,0,0,1-.916.929,2.859,2.859,0,0,1-1.407.33A3.036,3.036,0,0,1,1.9-.18,2.334,2.334,0,0,1,.937-.988,2.2,2.2,0,0,1,.564-2.175H2.1a1.147,1.147,0,0,0,.341.76,1.081,1.081,0,0,0,.765.271.954.954,0,0,0,.811-.379A1.754,1.754,0,0,0,4.3-2.594a1.451,1.451,0,0,0-.328-1.021,1.2,1.2,0,0,0-.929-.354,1.344,1.344,0,0,0-.9.29L2-3.54Zm11.344.612a3.962,3.962,0,0,1-.671,2.481A2.344,2.344,0,0,1,9.469.107,2.36,2.36,0,0,1,7.514-.736a3.846,3.846,0,0,1-.693-2.417V-4.592A3.91,3.91,0,0,1,7.5-7.079a2.361,2.361,0,0,1,1.958-.849,2.363,2.363,0,0,1,1.955.841,3.834,3.834,0,0,1,.693,2.414ZM10.554-4.816a2.864,2.864,0,0,0-.266-1.417.9.9,0,0,0-.83-.444.883.883,0,0,0-.808.422,2.68,2.68,0,0,0-.277,1.32v1.9a3.006,3.006,0,0,0,.26,1.422.887.887,0,0,0,.835.465.872.872,0,0,0,.822-.446,2.934,2.934,0,0,0,.263-1.366Zm2.578-1.5A1.546,1.546,0,0,1,13.6-7.485a1.7,1.7,0,0,1,1.225-.448,1.721,1.721,0,0,1,1.235.443,1.576,1.576,0,0,1,.467,1.2V-5.9a1.527,1.527,0,0,1-.467,1.166,1.713,1.713,0,0,1-1.225.44A1.724,1.724,0,0,1,13.6-4.74a1.564,1.564,0,0,1-.47-1.2Zm1.031.414a.724.724,0,0,0,.185.518.638.638,0,0,0,.486.2.608.608,0,0,0,.478-.2.769.769,0,0,0,.177-.532v-.4a.753.753,0,0,0-.177-.521.621.621,0,0,0-.489-.2.623.623,0,0,0-.478.2.769.769,0,0,0-.183.545Zm2.707,3.985a1.526,1.526,0,0,1,.473-1.168,1.718,1.718,0,0,1,1.225-.443,1.736,1.736,0,0,1,1.233.438,1.567,1.567,0,0,1,.47,1.206V-1.5a1.538,1.538,0,0,1-.462,1.163,1.7,1.7,0,0,1-1.23.443,1.723,1.723,0,0,1-1.241-.446,1.557,1.557,0,0,1-.467-1.182ZM17.9-1.5a.718.718,0,0,0,.193.5.631.631,0,0,0,.483.209q.655,0,.655-.725v-.408a.73.73,0,0,0-.183-.518.629.629,0,0,0-.483-.2.629.629,0,0,0-.483.2A.753.753,0,0,0,17.9-1.9Zm-2.761.913-.757-.408L18.2-7.106l.757.408Z" transform="translate(-9589.788 -9973.798)" fill="#12263f"/>
  </g>
</svg>
