<svg xmlns="http://www.w3.org/2000/svg" width="295" height="81" viewBox="0 0 295 81">
  <g id="Grupo_974160" data-name="Grupo 974160" transform="translate(-877.995 -5605.762)">
    <path id="Trazado_705354" data-name="Trazado 705354" d="M10,0H285a10,10,0,0,1,10,10V71a10,10,0,0,1-10,10H10A10,10,0,0,1,0,71V10A10,10,0,0,1,10,0Z" transform="translate(877.995 5605.762)" fill="#7125c8"/>
    <path id="Trazado_705355" data-name="Trazado 705355" d="M8.851-6.855H1.274V-8.631H8.851Zm0,3.727H1.274V-4.9H8.851Zm15-2.259a6.979,6.979,0,0,1-1.033,4.162,3.647,3.647,0,0,1-3.142,1.4,3.7,3.7,0,0,1-3.125-1.367,6.683,6.683,0,0,1-1.077-4.047V-7.453a6.874,6.874,0,0,1,1.033-4.14,3.681,3.681,0,0,1,3.151-1.38,3.7,3.7,0,0,1,3.133,1.345A6.664,6.664,0,0,1,23.854-7.6ZM21.718-7.778a5.415,5.415,0,0,0-.492-2.641,1.68,1.68,0,0,0-1.564-.839,1.679,1.679,0,0,0-1.538.8A5,5,0,0,0,17.6-7.98v2.9a5.555,5.555,0,0,0,.5,2.672,1.683,1.683,0,0,0,1.573.879A1.653,1.653,0,0,0,21.2-2.342a5.226,5.226,0,0,0,.519-2.544ZM26.183,2.883,25.031,2.2A6.21,6.21,0,0,0,25.73.8a4.157,4.157,0,0,0,.2-1.208V-2.065h1.925L27.844-.527a4.287,4.287,0,0,1-.47,1.868A4.64,4.64,0,0,1,26.183,2.883ZM30.27-6.346l.694-6.451h6.873v1.846h-5.1l-.352,3.059a3.951,3.951,0,0,1,2-.51,3.565,3.565,0,0,1,2.843,1.169A4.632,4.632,0,0,1,38.25-4.087,4.264,4.264,0,0,1,37.125-.98,4.106,4.106,0,0,1,34.04.176a4.3,4.3,0,0,1-2.914-1,3.606,3.606,0,0,1-1.252-2.632h2.065a2.256,2.256,0,0,0,.668,1.428,2.032,2.032,0,0,0,1.424.5,1.836,1.836,0,0,0,1.534-.7,3.035,3.035,0,0,0,.549-1.916A2.682,2.682,0,0,0,35.508-6a2.121,2.121,0,0,0-1.67-.681,2.778,2.778,0,0,0-.984.154,2.788,2.788,0,0,0-.879.6ZM49.482-7.04h3.34v1.951h-3.34v3.806H47.408V-5.089H44.051V-7.04h3.357V-10.6h2.074Zm17.78,1.652A6.979,6.979,0,0,1,66.23-1.226a3.647,3.647,0,0,1-3.142,1.4,3.7,3.7,0,0,1-3.125-1.367,6.683,6.683,0,0,1-1.077-4.047V-7.453a6.874,6.874,0,0,1,1.033-4.14,3.681,3.681,0,0,1,3.151-1.38A3.7,3.7,0,0,1,66.2-11.628,6.664,6.664,0,0,1,67.263-7.6ZM65.127-7.778a5.415,5.415,0,0,0-.492-2.641,1.68,1.68,0,0,0-1.564-.839,1.679,1.679,0,0,0-1.538.8,5,5,0,0,0-.519,2.483v2.9a5.555,5.555,0,0,0,.5,2.672,1.683,1.683,0,0,0,1.573.879,1.653,1.653,0,0,0,1.521-.813,5.226,5.226,0,0,0,.519-2.544ZM69.592,2.883,68.44,2.2A6.21,6.21,0,0,0,69.139.8a4.157,4.157,0,0,0,.2-1.208V-2.065h1.925L71.253-.527a4.287,4.287,0,0,1-.47,1.868A4.64,4.64,0,0,1,69.592,2.883ZM78.891,0H76.764V-10.281l-3.138,1.07V-11l4.992-1.837h.272ZM89.982-12.858v1.767h-.264a4.239,4.239,0,0,0-2.865.984,4.119,4.119,0,0,0-1.274,2.716,3.468,3.468,0,0,1,2.628-1.081,3.276,3.276,0,0,1,2.676,1.2,4.708,4.708,0,0,1,.98,3.085,4.4,4.4,0,0,1-1.147,3.16A3.959,3.959,0,0,1,87.706.176,3.867,3.867,0,0,1,84.6-1.239a5.566,5.566,0,0,1-1.191-3.709v-.729a7.832,7.832,0,0,1,1.639-5.273,5.877,5.877,0,0,1,4.715-1.907ZM87.688-6.75a2.249,2.249,0,0,0-1.288.4A2.312,2.312,0,0,0,85.544-5.3v.65a3.831,3.831,0,0,0,.6,2.263,1.823,1.823,0,0,0,1.547.839,1.8,1.8,0,0,0,1.5-.712,2.965,2.965,0,0,0,.554-1.872,3.007,3.007,0,0,0-.562-1.89A1.793,1.793,0,0,0,87.688-6.75Zm14.643,2.171H97.717V-6.3h4.614Zm14.449-.809a6.979,6.979,0,0,1-1.033,4.162,3.647,3.647,0,0,1-3.142,1.4,3.7,3.7,0,0,1-3.125-1.367A6.683,6.683,0,0,1,108.4-5.238V-7.453a6.874,6.874,0,0,1,1.033-4.14,3.681,3.681,0,0,1,3.151-1.38,3.7,3.7,0,0,1,3.133,1.345A6.664,6.664,0,0,1,116.78-7.6Zm-2.136-2.391a5.415,5.415,0,0,0-.492-2.641,1.68,1.68,0,0,0-1.564-.839,1.679,1.679,0,0,0-1.538.8,5,5,0,0,0-.519,2.483v2.9a5.555,5.555,0,0,0,.5,2.672,1.683,1.683,0,0,0,1.573.879,1.653,1.653,0,0,0,1.521-.813,5.226,5.226,0,0,0,.519-2.544Zm4.465,10.661L117.958,2.2a6.21,6.21,0,0,0,.7-1.393,4.157,4.157,0,0,0,.2-1.208V-2.065h1.925l-.009,1.538a4.287,4.287,0,0,1-.47,1.868A4.64,4.64,0,0,1,119.109,2.883ZM128.408,0h-2.127V-10.281l-3.138,1.07V-11l4.992-1.837h.272ZM139.5-12.858v1.767h-.264a4.239,4.239,0,0,0-2.865.984A4.119,4.119,0,0,0,135.1-7.392a3.468,3.468,0,0,1,2.628-1.081,3.276,3.276,0,0,1,2.676,1.2,4.708,4.708,0,0,1,.98,3.085,4.4,4.4,0,0,1-1.147,3.16,3.959,3.959,0,0,1-3.01,1.208,3.867,3.867,0,0,1-3.107-1.415,5.566,5.566,0,0,1-1.191-3.709v-.729a7.832,7.832,0,0,1,1.639-5.273,5.877,5.877,0,0,1,4.715-1.907ZM137.206-6.75a2.249,2.249,0,0,0-1.288.4,2.312,2.312,0,0,0-.857,1.055v.65a3.831,3.831,0,0,0,.6,2.263,1.823,1.823,0,0,0,1.547.839,1.8,1.8,0,0,0,1.5-.712,2.965,2.965,0,0,0,.554-1.872,3.007,3.007,0,0,0-.562-1.89A1.793,1.793,0,0,0,137.206-6.75Zm18.255-.105h-7.576V-8.631h7.576Zm0,3.727h-7.576V-4.9h7.576Zm15-2.259a6.979,6.979,0,0,1-1.033,4.162,3.647,3.647,0,0,1-3.142,1.4,3.7,3.7,0,0,1-3.125-1.367,6.683,6.683,0,0,1-1.077-4.047V-7.453a6.874,6.874,0,0,1,1.033-4.14,3.681,3.681,0,0,1,3.151-1.38,3.7,3.7,0,0,1,3.133,1.345A6.664,6.664,0,0,1,170.464-7.6Zm-2.136-2.391a5.415,5.415,0,0,0-.492-2.641,1.68,1.68,0,0,0-1.564-.839,1.679,1.679,0,0,0-1.538.8,5,5,0,0,0-.519,2.483v2.9a5.555,5.555,0,0,0,.5,2.672,1.683,1.683,0,0,0,1.573.879,1.653,1.653,0,0,0,1.521-.813,5.226,5.226,0,0,0,.519-2.544Zm4.465,10.661L171.642,2.2A6.21,6.21,0,0,0,172.34.8a4.157,4.157,0,0,0,.2-1.208V-2.065h1.925l-.009,1.538a4.287,4.287,0,0,1-.47,1.868A4.64,4.64,0,0,1,172.793,2.883Zm4.087-9.229.694-6.451h6.873v1.846h-5.1L179-7.893a3.951,3.951,0,0,1,2-.51,3.565,3.565,0,0,1,2.843,1.169,4.632,4.632,0,0,1,1.015,3.146A4.264,4.264,0,0,1,183.735-.98,4.106,4.106,0,0,1,180.65.176a4.3,4.3,0,0,1-2.914-1,3.606,3.606,0,0,1-1.252-2.632h2.065a2.256,2.256,0,0,0,.668,1.428,2.032,2.032,0,0,0,1.424.5,1.836,1.836,0,0,0,1.534-.7,3.035,3.035,0,0,0,.549-1.916A2.682,2.682,0,0,0,182.118-6a2.121,2.121,0,0,0-1.67-.681,2.778,2.778,0,0,0-.984.154,2.788,2.788,0,0,0-.879.6Z" transform="translate(923.995 5652.762)" fill="#fff"/>
  </g>
</svg>
