<svg xmlns="http://www.w3.org/2000/svg" width="387.471" height="200.268" viewBox="0 0 387.471 200.268">
  <g id="Grupo_974111" data-name="Grupo 974111" transform="translate(6545.116 7357.189)">
    <path id="Trazado_204649" data-name="Trazado 204649" d="M-6727.95-9859.534H-6364.8" transform="translate(207.15 2505.904)" fill="none" stroke="#12263f" stroke-width="1"/>
    <path id="Trazado_204650" data-name="Trazado 204650" d="M-6727.95-9859.534H-6364.8" transform="translate(207.15 2543.563)" fill="none" stroke="#12263f" stroke-width="1"/>
    <path id="Trazado_204651" data-name="Trazado 204651" d="M-6727.95-9859.534H-6364.8" transform="translate(207.15 2579.826)" fill="none" stroke="#12263f" stroke-width="1"/>
    <path id="Trazado_204652" data-name="Trazado 204652" d="M-6727.95-9859.534H-6364.8" transform="translate(207.15 2616.09)" fill="none" stroke="#12263f" stroke-width="1"/>
    <path id="Trazado_204653" data-name="Trazado 204653" d="M-6727.95-9859.534H-6364.8" transform="translate(207.15 2652.354)" fill="none" stroke="#12263f" stroke-width="1"/>
    <path id="Trazado_204654" data-name="Trazado 204654" d="M-6727.95-9859.534H-6364.8" transform="translate(207.15 2684.434)" fill="none" stroke="#12263f" stroke-width="1"/>
    <path id="Trazado_705035" data-name="Trazado 705035" d="M0,0H29.873V68.6H0Z" transform="translate(-6490.341 -7244.477)" fill="#0b428a"/>
    <path id="Trazado_705030" data-name="Trazado 705030" d="M0,0H28.766V68.6H0Z" transform="translate(-6305.574 -7244.477)" fill="#0b428a"/>
    <path id="Trazado_705031" data-name="Trazado 705031" d="M0,0H28.766V68.6H0Z" transform="translate(-6213.743 -7244.477)" fill="#0b428a"/>
    <path id="Trazado_705032" data-name="Trazado 705032" d="M0,0H29.873V139.405H0Z" transform="translate(-6398.511 -7315.285)" fill="#0b428a"/>
    <path id="Trazado_705042" data-name="Trazado 705042" d="M6.3,0H.709V-.779L3.662-4.061a7.016,7.016,0,0,0,.905-1.21,2.019,2.019,0,0,0,.249-.964,1.531,1.531,0,0,0-.4-1.1,1.414,1.414,0,0,0-1.078-.428,1.674,1.674,0,0,0-1.257.46,1.757,1.757,0,0,0-.448,1.28H.545a2.516,2.516,0,0,1,.759-1.9,2.813,2.813,0,0,1,2.03-.727,2.7,2.7,0,0,1,1.881.624,2.129,2.129,0,0,1,.691,1.661,4.88,4.88,0,0,1-1.605,3L2.016-.885H6.3ZM7.523,1.7l-.615-.422A2.827,2.827,0,0,0,7.482-.3v-.979H8.543v.85A2.669,2.669,0,0,1,8.253.75,2.771,2.771,0,0,1,7.523,1.7ZM10.3-4.277l.434-4.254h4.371v1H11.654L11.4-5.2a2.753,2.753,0,0,1,1.424-.369,2.354,2.354,0,0,1,1.852.771,3.02,3.02,0,0,1,.686,2.083,2.915,2.915,0,0,1-.712,2.077,2.6,2.6,0,0,1-1.989.759A2.7,2.7,0,0,1,10.811-.51,2.5,2.5,0,0,1,10-2.244h1.025a1.722,1.722,0,0,0,.521,1.1,1.621,1.621,0,0,0,1.113.372,1.463,1.463,0,0,0,1.187-.516,2.156,2.156,0,0,0,.431-1.424,1.978,1.978,0,0,0-.466-1.374A1.584,1.584,0,0,0,12.568-4.6a1.787,1.787,0,0,0-1.113.311l-.287.234Z" transform="translate(-6545.661 -7348.541)" fill="#12263f"/>
    <path id="Trazado_705039" data-name="Trazado 705039" d="M4.271,0H3.182V-7.225L1-6.422v-.984L4.1-8.572h.17ZM7.523,1.7l-.615-.422A2.827,2.827,0,0,0,7.482-.3v-.979H8.543v.85A2.669,2.669,0,0,1,8.253.75,2.771,2.771,0,0,1,7.523,1.7ZM10.3-4.277l.434-4.254h4.371v1H11.654L11.4-5.2a2.753,2.753,0,0,1,1.424-.369,2.354,2.354,0,0,1,1.852.771,3.02,3.02,0,0,1,.686,2.083,2.915,2.915,0,0,1-.712,2.077,2.6,2.6,0,0,1-1.989.759A2.7,2.7,0,0,1,10.811-.51,2.5,2.5,0,0,1,10-2.244h1.025a1.722,1.722,0,0,0,.521,1.1,1.621,1.621,0,0,0,1.113.372,1.463,1.463,0,0,0,1.187-.516,2.156,2.156,0,0,0,.431-1.424,1.978,1.978,0,0,0-.466-1.374A1.584,1.584,0,0,0,12.568-4.6a1.787,1.787,0,0,0-1.113.311l-.287.234Z" transform="translate(-6545.661 -7276.626)" fill="#12263f"/>
    <path id="Trazado_705040" data-name="Trazado 705040" d="M6.059-3.639a4.958,4.958,0,0,1-.65,2.83A2.313,2.313,0,0,1,3.375.117,2.33,2.33,0,0,1,1.354-.788a4.706,4.706,0,0,1-.68-2.7V-4.939a4.847,4.847,0,0,1,.65-2.795,2.331,2.331,0,0,1,2.039-.914,2.352,2.352,0,0,1,2.027.882,4.678,4.678,0,0,1,.668,2.722ZM4.975-5.121a3.972,3.972,0,0,0-.387-2.007,1.331,1.331,0,0,0-1.225-.63,1.314,1.314,0,0,0-1.213.627A3.878,3.878,0,0,0,1.758-5.2v1.734a4.036,4.036,0,0,0,.4,2.042,1.329,1.329,0,0,0,1.216.659,1.31,1.31,0,0,0,1.192-.621,3.89,3.89,0,0,0,.407-1.957ZM7.523,1.7l-.615-.422A2.827,2.827,0,0,0,7.482-.3v-.979H8.543v.85A2.669,2.669,0,0,1,8.253.75,2.771,2.771,0,0,1,7.523,1.7ZM10.3-4.277l.434-4.254h4.371v1H11.654L11.4-5.2a2.753,2.753,0,0,1,1.424-.369,2.354,2.354,0,0,1,1.852.771,3.02,3.02,0,0,1,.686,2.083,2.915,2.915,0,0,1-.712,2.077,2.6,2.6,0,0,1-1.989.759A2.7,2.7,0,0,1,10.811-.51,2.5,2.5,0,0,1,10-2.244h1.025a1.722,1.722,0,0,0,.521,1.1,1.621,1.621,0,0,0,1.113.372,1.463,1.463,0,0,0,1.187-.516,2.156,2.156,0,0,0,.431-1.424,1.978,1.978,0,0,0-.466-1.374A1.584,1.584,0,0,0,12.568-4.6a1.787,1.787,0,0,0-1.113.311l-.287.234Z" transform="translate(-6545.661 -7206.923)" fill="#12263f"/>
    <path id="Trazado_705041" data-name="Trazado 705041" d="M5.774,0H.65V-.714L3.357-3.722a6.431,6.431,0,0,0,.83-1.109,1.851,1.851,0,0,0,.228-.884,1.4,1.4,0,0,0-.371-1,1.3,1.3,0,0,0-.988-.392A1.535,1.535,0,0,0,1.9-6.69a1.611,1.611,0,0,0-.411,1.174H.5a2.307,2.307,0,0,1,.7-1.746,2.579,2.579,0,0,1,1.861-.666,2.478,2.478,0,0,1,1.724.572,1.951,1.951,0,0,1,.634,1.523,4.474,4.474,0,0,1-1.472,2.75L1.848-.811H5.774Z" transform="translate(-6535.703 -7314.137)" fill="#12263f"/>
    <path id="Trazado_705037" data-name="Trazado 705037" d="M3.916,0h-1V-6.623l-2,.736v-.9L3.76-7.858h.156Z" transform="translate(-6535.703 -7243.327)" fill="#12263f"/>
    <path id="Trazado_705038" data-name="Trazado 705038" d="M5.554-3.335a4.545,4.545,0,0,1-.6,2.594A2.12,2.12,0,0,1,3.094.107a2.136,2.136,0,0,1-1.853-.83A4.313,4.313,0,0,1,.618-3.2V-4.528a4.443,4.443,0,0,1,.6-2.562,2.137,2.137,0,0,1,1.869-.838,2.156,2.156,0,0,1,1.858.808,4.288,4.288,0,0,1,.612,2.495ZM4.56-4.694a3.641,3.641,0,0,0-.354-1.84,1.22,1.22,0,0,0-1.123-.577,1.2,1.2,0,0,0-1.112.575,3.555,3.555,0,0,0-.36,1.767v1.59a3.7,3.7,0,0,0,.368,1.872,1.218,1.218,0,0,0,1.115.6,1.2,1.2,0,0,0,1.093-.569A3.566,3.566,0,0,0,4.56-3.067Z" transform="translate(-6535.703 -7171.412)" fill="#12263f"/>
    <path id="Trazado_705036" data-name="Trazado 705036" d="M2.095-4.394h.747a1.641,1.641,0,0,0,1.106-.371,1.238,1.238,0,0,0,.4-.972,1.213,1.213,0,0,0-1.37-1.375,1.425,1.425,0,0,0-1.029.368,1.288,1.288,0,0,0-.384.975H.575a2,2,0,0,1,.679-1.544,2.475,2.475,0,0,1,1.727-.615,2.446,2.446,0,0,1,1.735.585,2.115,2.115,0,0,1,.628,1.627,1.717,1.717,0,0,1-.33.988,1.994,1.994,0,0,1-.9.714,1.922,1.922,0,0,1,1,.677,1.88,1.88,0,0,1,.352,1.155A2.133,2.133,0,0,1,4.775-.51,2.575,2.575,0,0,1,2.986.107,2.643,2.643,0,0,1,1.2-.489,1.978,1.978,0,0,1,.5-2.062h1a1.278,1.278,0,0,0,.4.988A1.532,1.532,0,0,0,2.986-.7a1.5,1.5,0,0,0,1.1-.376,1.449,1.449,0,0,0,.381-1.08A1.315,1.315,0,0,0,4.05-3.207a1.825,1.825,0,0,0-1.208-.376H2.095Z" transform="translate(-6479.277 -7157.029)" fill="#12263f"/>
    <path id="Trazado_705033" data-name="Trazado 705033" d="M1.106-3.921l.4-3.9H5.511V-6.9H2.347L2.111-4.77a2.524,2.524,0,0,1,1.305-.338,2.158,2.158,0,0,1,1.7.706,2.768,2.768,0,0,1,.628,1.909,2.672,2.672,0,0,1-.653,1.9,2.379,2.379,0,0,1-1.823.7A2.472,2.472,0,0,1,1.574-.467a2.294,2.294,0,0,1-.747-1.59h.94a1.578,1.578,0,0,0,.478,1.012A1.486,1.486,0,0,0,3.266-.7a1.341,1.341,0,0,0,1.088-.473,1.976,1.976,0,0,0,.395-1.305,1.814,1.814,0,0,0-.427-1.26,1.452,1.452,0,0,0-1.136-.475,1.638,1.638,0,0,0-1.021.285L1.9-3.717Z" transform="translate(-6387.447 -7157.029)" fill="#12263f"/>
    <path id="Trazado_705034" data-name="Trazado 705034" d="M4.549-7.826v.843H4.367a2.616,2.616,0,0,0-1.848.688A2.861,2.861,0,0,0,1.724-4.42a2.121,2.121,0,0,1,1.687-.709,2.028,2.028,0,0,1,1.63.72,2.776,2.776,0,0,1,.61,1.858A2.767,2.767,0,0,1,4.992-.618,2.266,2.266,0,0,1,3.228.107,2.232,2.232,0,0,1,1.407-.755a3.417,3.417,0,0,1-.7-2.221v-.381a5.148,5.148,0,0,1,.921-3.3A3.383,3.383,0,0,1,4.372-7.826ZM3.244-4.3A1.585,1.585,0,0,0,2.3-4a1.6,1.6,0,0,0-.6.768v.365a2.565,2.565,0,0,0,.435,1.558,1.3,1.3,0,0,0,1.085.591,1.263,1.263,0,0,0,1.055-.494A2.05,2.05,0,0,0,4.667-2.5a2.051,2.051,0,0,0-.389-1.3A1.248,1.248,0,0,0,3.244-4.3Z" transform="translate(-6297.829 -7157.029)" fill="#12263f"/>
    <path id="Trazado_705029" data-name="Trazado 705029" d="M5.393-5.779a1.816,1.816,0,0,1-.309,1.042,2.1,2.1,0,0,1-.835.714,2.241,2.241,0,0,1,.969.768,1.933,1.933,0,0,1,.357,1.144A2.044,2.044,0,0,1,4.89-.494a2.631,2.631,0,0,1-1.8.6A2.619,2.619,0,0,1,1.281-.5,2.053,2.053,0,0,1,.6-2.111,1.991,1.991,0,0,1,.948-3.255a2.156,2.156,0,0,1,.959-.773,2.05,2.05,0,0,1-.822-.714,1.842,1.842,0,0,1-.3-1.037,2.021,2.021,0,0,1,.634-1.568,2.378,2.378,0,0,1,1.67-.58,2.38,2.38,0,0,1,1.668.58A2.017,2.017,0,0,1,5.393-5.779ZM4.582-2.132A1.441,1.441,0,0,0,4.165-3.2a1.476,1.476,0,0,0-1.088-.414A1.45,1.45,0,0,0,2-3.207,1.458,1.458,0,0,0,1.6-2.132,1.388,1.388,0,0,0,1.99-1.085a1.515,1.515,0,0,0,1.1.381,1.511,1.511,0,0,0,1.1-.384A1.385,1.385,0,0,0,4.582-2.132ZM3.088-7.111a1.282,1.282,0,0,0-.948.363,1.332,1.332,0,0,0-.363.986,1.325,1.325,0,0,0,.357.964,1.268,1.268,0,0,0,.953.368A1.268,1.268,0,0,0,4.042-4.8,1.325,1.325,0,0,0,4.4-5.763a1.326,1.326,0,0,0-.371-.972A1.264,1.264,0,0,0,3.088-7.111Z" transform="translate(-6205.999 -7157.029)" fill="#12263f"/>
    <path id="Trazado_204655" data-name="Trazado 204655" d="M-6695.5-9762.915s54.632-60.521,76.856-67.158,36.631,5.059,36.631,5.059,47.174,55.648,66.377,62.1,68.953,7.77,93.712,0" transform="translate(219.96 2516.729)" fill="none" stroke="#25ffff" stroke-width="4"/>
  </g>
</svg>
