<svg xmlns="http://www.w3.org/2000/svg" width="294.597" height="190.425" viewBox="0 0 294.597 190.425">
  <g id="Grupo_166641" data-name="Grupo 166641" transform="translate(-202.403 -8763.189)">
    <g id="Grupo_166639" data-name="Grupo 166639" transform="translate(202 8760)">
      <path id="Trazado_197190" data-name="Trazado 197190" d="M11.217,0H50.475C56.67,0,61.692,3.071,61.692,6.86V166.008H0V6.86A4.69,4.69,0,0,1,.208,5.54C1.016,2.488,5.641,0,11.217,0Z" transform="translate(233.308 10.095)" fill="#7125c8"/>
      <path id="Trazado_197186" data-name="Trazado 197186" d="M-8063.262-5463h-271.516" transform="translate(8357.97 5471.158)" fill="none" stroke="#12263f" stroke-width="1"/>
      <path id="Trazado_197187" data-name="Trazado 197187" d="M-8124.6-5463h-210.174" transform="translate(8357.97 5510.256)" fill="none" stroke="#12263f" stroke-width="1"/>
      <path id="Trazado_197188" data-name="Trazado 197188" d="M-8124.6-5463h-210.174" transform="translate(8357.97 5561.709)" fill="none" stroke="#12263f" stroke-width="1"/>
      <path id="Trazado_197189" data-name="Trazado 197189" d="M-8124.6-5463h-210.174" transform="translate(8357.97 5600.256)" fill="none" stroke="#12263f" stroke-width="1"/>
      <path id="Trazado_705180" data-name="Trazado 705180" d="M10,0H50.57a10,10,0,0,1,10,10V126.749H0V10A10,10,0,0,1,10,0Z" transform="translate(162.643 49.354)" fill="#7125c8"/>
      <path id="Trazado_705181" data-name="Trazado 705181" d="M10,0H50.57a10,10,0,0,1,10,10V76.274H0V10A10,10,0,0,1,10,0Z" transform="translate(91.977 99.829)" fill="#7125c8"/>
      <path id="Trazado_705182" data-name="Trazado 705182" d="M10,0H50.57a10,10,0,0,1,10,10V37.015H0V10A10,10,0,0,1,10,0Z" transform="translate(21.312 139.087)" fill="#7125c8"/>
      <path id="Trazado_705183" data-name="Trazado 705183" d="M6.987-4.014H8.2v1.707H6.987V0H4.871V-2.307H.5L.4-3.64l4.446-7.024H6.987Zm-4.475,0H4.871V-7.778l-.139.242Zm14-.4a5.4,5.4,0,0,1-.916,3.384A3.2,3.2,0,0,1,12.913.146,3.218,3.218,0,0,1,10.247-1,5.244,5.244,0,0,1,9.3-4.3V-6.262a5.331,5.331,0,0,1,.927-3.391,3.22,3.22,0,0,1,2.67-1.157,3.223,3.223,0,0,1,2.666,1.146,5.228,5.228,0,0,1,.945,3.292ZM14.392-6.567A3.905,3.905,0,0,0,14.03-8.5,1.225,1.225,0,0,0,12.9-9.1a1.2,1.2,0,0,0-1.1.576,3.655,3.655,0,0,0-.377,1.8v2.6a4.1,4.1,0,0,0,.355,1.939,1.209,1.209,0,0,0,1.139.634,1.189,1.189,0,0,0,1.121-.608,4,4,0,0,0,.359-1.862Z" transform="translate(0 14)" fill="#12263f"/>
      <path id="Trazado_705184" data-name="Trazado 705184" d="M2.878-6.27H4.006a1.589,1.589,0,0,0,1.194-.4,1.476,1.476,0,0,0,.388-1.069,1.305,1.305,0,0,0-.385-1A1.49,1.49,0,0,0,4.146-9.1a1.562,1.562,0,0,0-1.018.333,1.066,1.066,0,0,0-.41.868H.6a2.6,2.6,0,0,1,.45-1.5,3,3,0,0,1,1.26-1.036,4.2,4.2,0,0,1,1.783-.374A3.987,3.987,0,0,1,6.746-10a2.761,2.761,0,0,1,.959,2.23,2.244,2.244,0,0,1-.447,1.348,2.9,2.9,0,0,1-1.172.945,2.65,2.65,0,0,1,1.344.967,2.623,2.623,0,0,1,.443,1.523A2.807,2.807,0,0,1,6.837-.71,4.167,4.167,0,0,1,4.094.146,3.951,3.951,0,0,1,1.483-.7,2.751,2.751,0,0,1,.469-2.922H2.585a1.226,1.226,0,0,0,.45.981,1.66,1.66,0,0,0,1.11.381,1.668,1.668,0,0,0,1.183-.4,1.378,1.378,0,0,0,.428-1.058q0-1.6-1.758-1.6H2.878Zm13.63,1.86a5.4,5.4,0,0,1-.916,3.384A3.2,3.2,0,0,1,12.913.146,3.218,3.218,0,0,1,10.247-1,5.244,5.244,0,0,1,9.3-4.3V-6.262a5.331,5.331,0,0,1,.927-3.391,3.22,3.22,0,0,1,2.67-1.157,3.223,3.223,0,0,1,2.666,1.146,5.228,5.228,0,0,1,.945,3.292ZM14.392-6.567A3.905,3.905,0,0,0,14.03-8.5,1.225,1.225,0,0,0,12.9-9.1a1.2,1.2,0,0,0-1.1.576,3.655,3.655,0,0,0-.377,1.8v2.6a4.1,4.1,0,0,0,.355,1.939,1.209,1.209,0,0,0,1.139.634,1.189,1.189,0,0,0,1.121-.608,4,4,0,0,0,.359-1.862Z" transform="translate(0 51.015)" fill="#12263f"/>
      <path id="Trazado_705185" data-name="Trazado 705185" d="M8.035,0H.725V-1.45l3.45-3.677A8.51,8.51,0,0,0,5.226-6.482a2.177,2.177,0,0,0,.341-1.1A1.629,1.629,0,0,0,5.208-8.7,1.3,1.3,0,0,0,4.182-9.1a1.4,1.4,0,0,0-1.132.494,1.958,1.958,0,0,0-.414,1.3H.513a3.5,3.5,0,0,1,.465-1.78,3.278,3.278,0,0,1,1.315-1.263,4,4,0,0,1,1.926-.458,3.784,3.784,0,0,1,2.56.791A2.8,2.8,0,0,1,7.69-7.786a3.586,3.586,0,0,1-.41,1.611A8.954,8.954,0,0,1,5.874-4.263L3.45-1.707H8.035Zm8.474-4.409a5.4,5.4,0,0,1-.916,3.384A3.2,3.2,0,0,1,12.913.146,3.218,3.218,0,0,1,10.247-1,5.244,5.244,0,0,1,9.3-4.3V-6.262a5.331,5.331,0,0,1,.927-3.391,3.22,3.22,0,0,1,2.67-1.157,3.223,3.223,0,0,1,2.666,1.146,5.228,5.228,0,0,1,.945,3.292ZM14.392-6.567A3.905,3.905,0,0,0,14.03-8.5,1.225,1.225,0,0,0,12.9-9.1a1.2,1.2,0,0,0-1.1.576,3.655,3.655,0,0,0-.377,1.8v2.6a4.1,4.1,0,0,0,.355,1.939,1.209,1.209,0,0,0,1.139.634,1.189,1.189,0,0,0,1.121-.608,4,4,0,0,0,.359-1.862Z" transform="translate(0 102.612)" fill="#12263f"/>
      <path id="Trazado_705186" data-name="Trazado 705186" d="M5.867,0H3.75V-8.159l-2.527.784V-9.1L5.64-10.679h.227ZM16.509-4.409a5.4,5.4,0,0,1-.916,3.384A3.2,3.2,0,0,1,12.913.146,3.218,3.218,0,0,1,10.247-1,5.244,5.244,0,0,1,9.3-4.3V-6.262a5.331,5.331,0,0,1,.927-3.391,3.22,3.22,0,0,1,2.67-1.157,3.223,3.223,0,0,1,2.666,1.146,5.228,5.228,0,0,1,.945,3.292ZM14.392-6.567A3.905,3.905,0,0,0,14.03-8.5,1.225,1.225,0,0,0,12.9-9.1a1.2,1.2,0,0,0-1.1.576,3.655,3.655,0,0,0-.377,1.8v2.6a4.1,4.1,0,0,0,.355,1.939,1.209,1.209,0,0,0,1.139.634,1.189,1.189,0,0,0,1.121-.608,4,4,0,0,0,.359-1.862Z" transform="translate(0 142.992)" fill="#12263f"/>
      <path id="Trazado_705187" data-name="Trazado 705187" d="M7.376-4.115A5.042,5.042,0,0,1,6.521-.957,2.983,2.983,0,0,1,4.02.137,3,3,0,0,1,1.531-.937,4.895,4.895,0,0,1,.649-4.013V-5.845A4.976,4.976,0,0,1,1.514-9.01a3,3,0,0,1,2.492-1.08A3.008,3.008,0,0,1,6.494-9.02a4.879,4.879,0,0,1,.882,3.073ZM5.4-6.129a3.645,3.645,0,0,0-.338-1.8A1.144,1.144,0,0,0,4.006-8.5a1.123,1.123,0,0,0-1.029.537,3.411,3.411,0,0,0-.352,1.68v2.422a3.826,3.826,0,0,0,.332,1.81,1.128,1.128,0,0,0,1.063.592,1.109,1.109,0,0,0,1.046-.568A3.734,3.734,0,0,0,5.4-3.762Z" transform="translate(6.73 184.616)" fill="#12263f"/>
      <path id="Trazado_705188" data-name="Trazado 705188" d="M3.289,0h-2.2V-10.664h2.2ZM7.72-9.873v1.948H9.075v1.553H7.72v3.955a.944.944,0,0,0,.168.63.846.846,0,0,0,.645.19,3.376,3.376,0,0,0,.623-.051v1.6a4.358,4.358,0,0,1-1.282.19A2.021,2.021,0,0,1,5.6-2.1v-4.27H4.446V-7.925H5.6V-9.873ZM13.9.146A3.89,3.89,0,0,1,11.063-.923,3.8,3.8,0,0,1,9.968-3.772v-.205a4.787,4.787,0,0,1,.461-2.135,3.386,3.386,0,0,1,1.307-1.45,3.669,3.669,0,0,1,1.93-.509,3.289,3.289,0,0,1,2.56,1.025,4.167,4.167,0,0,1,.934,2.908v.864H12.114a1.966,1.966,0,0,0,.619,1.245,1.871,1.871,0,0,0,1.307.469,2.285,2.285,0,0,0,1.912-.886l1.04,1.165A3.178,3.178,0,0,1,15.7-.231,4.229,4.229,0,0,1,13.9.146ZM13.66-6.365a1.323,1.323,0,0,0-1.022.427,2.209,2.209,0,0,0-.5,1.221h2.944v-.169A1.576,1.576,0,0,0,14.7-5.979,1.365,1.365,0,0,0,13.66-6.365Zm6.687-1.56.066.886A2.785,2.785,0,0,1,22.69-8.071a2.114,2.114,0,0,1,2.1,1.208,2.721,2.721,0,0,1,2.38-1.208,2.364,2.364,0,0,1,1.919.751,3.451,3.451,0,0,1,.63,2.26V0H27.6V-5.054a1.509,1.509,0,0,0-.264-.985,1.169,1.169,0,0,0-.93-.311,1.321,1.321,0,0,0-1.318.908L25.093,0H22.976V-5.046a1.491,1.491,0,0,0-.271-1,1.18,1.18,0,0,0-.923-.308,1.372,1.372,0,0,0-1.3.747V0H18.362V-7.925ZM40.137,0H38.02V-8.159l-2.527.784V-9.1l4.417-1.582h.227Z" transform="translate(31.407 193.468)" fill="#12263f"/>
      <path id="Trazado_705189" data-name="Trazado 705189" d="M3.289,0h-2.2V-10.664h2.2ZM7.72-9.873v1.948H9.075v1.553H7.72v3.955a.944.944,0,0,0,.168.63.846.846,0,0,0,.645.19,3.376,3.376,0,0,0,.623-.051v1.6a4.358,4.358,0,0,1-1.282.19A2.021,2.021,0,0,1,5.6-2.1v-4.27H4.446V-7.925H5.6V-9.873ZM13.9.146A3.89,3.89,0,0,1,11.063-.923,3.8,3.8,0,0,1,9.968-3.772v-.205a4.787,4.787,0,0,1,.461-2.135,3.386,3.386,0,0,1,1.307-1.45,3.669,3.669,0,0,1,1.93-.509,3.289,3.289,0,0,1,2.56,1.025,4.167,4.167,0,0,1,.934,2.908v.864H12.114a1.966,1.966,0,0,0,.619,1.245,1.871,1.871,0,0,0,1.307.469,2.285,2.285,0,0,0,1.912-.886l1.04,1.165A3.178,3.178,0,0,1,15.7-.231,4.229,4.229,0,0,1,13.9.146ZM13.66-6.365a1.323,1.323,0,0,0-1.022.427,2.209,2.209,0,0,0-.5,1.221h2.944v-.169A1.576,1.576,0,0,0,14.7-5.979,1.365,1.365,0,0,0,13.66-6.365Zm6.687-1.56.066.886A2.785,2.785,0,0,1,22.69-8.071a2.114,2.114,0,0,1,2.1,1.208,2.721,2.721,0,0,1,2.38-1.208,2.364,2.364,0,0,1,1.919.751,3.451,3.451,0,0,1,.63,2.26V0H27.6V-5.054a1.509,1.509,0,0,0-.264-.985,1.169,1.169,0,0,0-.93-.311,1.321,1.321,0,0,0-1.318.908L25.093,0H22.976V-5.046a1.491,1.491,0,0,0-.271-1,1.18,1.18,0,0,0-.923-.308,1.372,1.372,0,0,0-1.3.747V0H18.362V-7.925ZM42.3,0H35V-1.45l3.45-3.677A8.51,8.51,0,0,0,39.5-6.482a2.177,2.177,0,0,0,.341-1.1A1.629,1.629,0,0,0,39.478-8.7,1.3,1.3,0,0,0,38.452-9.1a1.4,1.4,0,0,0-1.132.494,1.958,1.958,0,0,0-.414,1.3H34.783a3.5,3.5,0,0,1,.465-1.78,3.278,3.278,0,0,1,1.315-1.263,4,4,0,0,1,1.926-.458,3.784,3.784,0,0,1,2.56.791,2.8,2.8,0,0,1,.912,2.234,3.586,3.586,0,0,1-.41,1.611,8.954,8.954,0,0,1-1.406,1.912L37.72-1.707H42.3Z" transform="translate(100.951 193.468)" fill="#12263f"/>
      <path id="Trazado_705190" data-name="Trazado 705190" d="M3.289,0h-2.2V-10.664h2.2ZM7.72-9.873v1.948H9.075v1.553H7.72v3.955a.944.944,0,0,0,.168.63.846.846,0,0,0,.645.19,3.376,3.376,0,0,0,.623-.051v1.6a4.358,4.358,0,0,1-1.282.19A2.021,2.021,0,0,1,5.6-2.1v-4.27H4.446V-7.925H5.6V-9.873ZM13.9.146A3.89,3.89,0,0,1,11.063-.923,3.8,3.8,0,0,1,9.968-3.772v-.205a4.787,4.787,0,0,1,.461-2.135,3.386,3.386,0,0,1,1.307-1.45,3.669,3.669,0,0,1,1.93-.509,3.289,3.289,0,0,1,2.56,1.025,4.167,4.167,0,0,1,.934,2.908v.864H12.114a1.966,1.966,0,0,0,.619,1.245,1.871,1.871,0,0,0,1.307.469,2.285,2.285,0,0,0,1.912-.886l1.04,1.165A3.178,3.178,0,0,1,15.7-.231,4.229,4.229,0,0,1,13.9.146ZM13.66-6.365a1.323,1.323,0,0,0-1.022.427,2.209,2.209,0,0,0-.5,1.221h2.944v-.169A1.576,1.576,0,0,0,14.7-5.979,1.365,1.365,0,0,0,13.66-6.365Zm6.687-1.56.066.886A2.785,2.785,0,0,1,22.69-8.071a2.114,2.114,0,0,1,2.1,1.208,2.721,2.721,0,0,1,2.38-1.208,2.364,2.364,0,0,1,1.919.751,3.451,3.451,0,0,1,.63,2.26V0H27.6V-5.054a1.509,1.509,0,0,0-.264-.985,1.169,1.169,0,0,0-.93-.311,1.321,1.321,0,0,0-1.318.908L25.093,0H22.976V-5.046a1.491,1.491,0,0,0-.271-1,1.18,1.18,0,0,0-.923-.308,1.372,1.372,0,0,0-1.3.747V0H18.362V-7.925Zm16.8,1.655h1.128a1.589,1.589,0,0,0,1.194-.4,1.476,1.476,0,0,0,.388-1.069,1.305,1.305,0,0,0-.385-1A1.49,1.49,0,0,0,38.416-9.1a1.562,1.562,0,0,0-1.018.333,1.066,1.066,0,0,0-.41.868H34.871a2.6,2.6,0,0,1,.45-1.5,3,3,0,0,1,1.26-1.036,4.2,4.2,0,0,1,1.783-.374A3.987,3.987,0,0,1,41.016-10a2.761,2.761,0,0,1,.959,2.23,2.244,2.244,0,0,1-.447,1.348,2.9,2.9,0,0,1-1.172.945,2.65,2.65,0,0,1,1.344.967,2.623,2.623,0,0,1,.443,1.523A2.807,2.807,0,0,1,41.107-.71a4.167,4.167,0,0,1-2.743.857A3.951,3.951,0,0,1,35.753-.7a2.751,2.751,0,0,1-1.014-2.227h2.117a1.226,1.226,0,0,0,.45.981,1.66,1.66,0,0,0,1.11.381,1.668,1.668,0,0,0,1.183-.4,1.378,1.378,0,0,0,.428-1.058q0-1.6-1.758-1.6H37.148Z" transform="translate(170.494 193.468)" fill="#12263f"/>
      <path id="Trazado_705191" data-name="Trazado 705191" d="M3.289,0h-2.2V-10.664h2.2ZM7.72-9.873v1.948H9.075v1.553H7.72v3.955a.944.944,0,0,0,.168.63.846.846,0,0,0,.645.19,3.376,3.376,0,0,0,.623-.051v1.6a4.358,4.358,0,0,1-1.282.19A2.021,2.021,0,0,1,5.6-2.1v-4.27H4.446V-7.925H5.6V-9.873ZM13.9.146A3.89,3.89,0,0,1,11.063-.923,3.8,3.8,0,0,1,9.968-3.772v-.205a4.787,4.787,0,0,1,.461-2.135,3.386,3.386,0,0,1,1.307-1.45,3.669,3.669,0,0,1,1.93-.509,3.289,3.289,0,0,1,2.56,1.025,4.167,4.167,0,0,1,.934,2.908v.864H12.114a1.966,1.966,0,0,0,.619,1.245,1.871,1.871,0,0,0,1.307.469,2.285,2.285,0,0,0,1.912-.886l1.04,1.165A3.178,3.178,0,0,1,15.7-.231,4.229,4.229,0,0,1,13.9.146ZM13.66-6.365a1.323,1.323,0,0,0-1.022.427,2.209,2.209,0,0,0-.5,1.221h2.944v-.169A1.576,1.576,0,0,0,14.7-5.979,1.365,1.365,0,0,0,13.66-6.365Zm6.687-1.56.066.886A2.785,2.785,0,0,1,22.69-8.071a2.114,2.114,0,0,1,2.1,1.208,2.721,2.721,0,0,1,2.38-1.208,2.364,2.364,0,0,1,1.919.751,3.451,3.451,0,0,1,.63,2.26V0H27.6V-5.054a1.509,1.509,0,0,0-.264-.985,1.169,1.169,0,0,0-.93-.311,1.321,1.321,0,0,0-1.318.908L25.093,0H22.976V-5.046a1.491,1.491,0,0,0-.271-1,1.18,1.18,0,0,0-.923-.308,1.372,1.372,0,0,0-1.3.747V0H18.362V-7.925ZM41.257-4.014h1.208v1.707H41.257V0H39.141V-2.307H34.768l-.1-1.333,4.446-7.024h2.139Zm-4.475,0h2.358V-7.778L39-7.537Z" transform="translate(241.16 193.468)" fill="#12263f"/>
    </g>
  </g>
</svg>
