<svg xmlns="http://www.w3.org/2000/svg" width="400" height="296" viewBox="0 0 400 296">
  <g id="Grupo_974163" data-name="Grupo 974163" transform="translate(-180 -6688.762)">
    <path id="Rectángulo_339773" data-name="Rectángulo 339773" d="M50,0H400a0,0,0,0,1,0,0V246a50,50,0,0,1-50,50H0a0,0,0,0,1,0,0V50A50,50,0,0,1,50,0Z" transform="translate(180 6688.762)" fill="#0b428a"/>
    <path id="Trazado_704749" data-name="Trazado 704749" d="M105.195,180.893h58.787V10.247a555.853,555.853,0,0,1-58.787,61.691V180.893Z" transform="translate(360.829 6761.457)" fill="#ffde96"/>
    <path id="Trazado_704750" data-name="Trazado 704750" d="M137.683,146.8V37.845A482.978,482.978,0,0,1,78.9,83.037V146.8Z" transform="translate(328.341 6795.547)" fill="#ece3ff"/>
    <path id="Trazado_704751" data-name="Trazado 704751" d="M111.387,121.825V58.062A433.491,433.491,0,0,1,52.6,90.255v31.57Z" transform="translate(295.85 6820.523)" fill="#acfcff"/>
    <path id="Trazado_704752" data-name="Trazado 704752" d="M85.082,104.034V72.464A391.049,391.049,0,0,1,26.3,93.53v10.5Z" transform="translate(263.365 6838.316)" fill="#ad84ff"/>
    <path id="Trazado_704753" data-name="Trazado 704753" d="M58.787,92.392v-10.5C32.544,87.139,46.35,82.735,0,92.068v.324Z" transform="translate(230.877 6849.957)" fill="#00acc1"/>
    <path id="Trazado_704754" data-name="Trazado 704754" d="M0,92.392V90.747s54.37-8.125,58.787-8.859v10.5Z" transform="translate(230.877 6849.957)" fill="#acfcff"/>
    <path id="Trazado_704755" data-name="Trazado 704755" d="M41.353,9.443H39.8v2.948H38.208V9.443H33.1V8.263L36.688.256l1.377.572L34.828,8.14h3.4l.143-3.219H39.8V8.14h1.554Z" transform="translate(271.762 6749.113)" fill="#fff"/>
    <path id="Trazado_704756" data-name="Trazado 704756" d="M45.479,6.423c0,3.968-1.321,6.183-4,6.183s-4-2.215-4-6.183S38.8.256,41.476.256s4,2.217,4,6.167m-6.29,0c0,3.521.787,4.88,2.287,4.88,1.484,0,2.289-1.359,2.289-4.88,0-3.5-.8-4.862-2.289-4.862-1.5,0-2.287,1.359-2.287,4.862" transform="translate(277.168 6749.113)" fill="#fff"/>
    <path id="Trazado_704757" data-name="Trazado 704757" d="M47.666,3.594a2.907,2.907,0,1,1-5.81,0,2.907,2.907,0,1,1,5.81,0m-4.361,0c0,.928.3,1.911,1.449,1.911,1.16,0,1.446-.948,1.446-1.911,0-.93-.286-1.913-1.446-1.913-1.145,0-1.449.948-1.449,1.913M53.151.751,44.876,13.262l-1.142-.749L52.009,0ZM55.011,9.9a2.907,2.907,0,1,1-5.81,0,2.907,2.907,0,1,1,5.81,0m-4.343,0c0,.93.3,1.911,1.449,1.911,1.16,0,1.446-.946,1.446-1.911,0-.928-.286-1.9-1.446-1.9-1.144,0-1.449.93-1.449,1.9" transform="translate(282.583 6748.797)" fill="#fff"/>
    <path id="Trazado_704758" data-name="Trazado 704758" d="M16.561,3.527c0,2.235-1.431,3.825-5.094,7.488h5.38l-.2,1.377H9.591V11.087c4.218-4.4,5.253-5.541,5.253-7.488A1.841,1.841,0,0,0,12.88,1.616a2.933,2.933,0,0,0-2.43,1.3L9.341,2.061a4.423,4.423,0,0,1,3.628-1.8,3.286,3.286,0,0,1,3.592,3.27" transform="translate(242.417 6749.113)" fill="#fff"/>
    <path id="Trazado_704759" data-name="Trazado 704759" d="M21.547,6.424c0,3.968-1.321,6.183-4,6.183s-4-2.215-4-6.183,1.323-6.167,4-6.167,4,2.217,4,6.167m-6.29,0c0,3.521.787,4.88,2.287,4.88,1.484,0,2.289-1.359,2.289-4.88,0-3.5-.8-4.862-2.289-4.862-1.5,0-2.287,1.359-2.287,4.862" transform="translate(247.604 6749.113)" fill="#fff"/>
    <path id="Trazado_704760" data-name="Trazado 704760" d="M23.734,3.6a2.907,2.907,0,1,1-5.81,0,2.907,2.907,0,1,1,5.81,0m-4.361,0c0,.928.3,1.911,1.449,1.911,1.16,0,1.446-.948,1.446-1.911,0-.93-.286-1.913-1.446-1.913-1.144,0-1.449.948-1.449,1.913M29.219.752,20.944,13.263,19.8,12.512,28.077,0ZM31.079,9.9a2.907,2.907,0,1,1-5.81,0,2.907,2.907,0,1,1,5.81,0m-4.343,0c0,.93.3,1.911,1.446,1.911,1.162,0,1.449-.946,1.449-1.911,0-.928-.286-1.9-1.449-1.9-1.142,0-1.446.93-1.446,1.9" transform="translate(253.02 6748.797)" fill="#fff"/>
    <path id="Trazado_704761" data-name="Trazado 704761" d="M65.791,1.624H61.126V5.144a4.126,4.126,0,0,1,1.911-.465c2.021,0,3.4,1.413,3.4,3.791a3.894,3.894,0,0,1-4.147,4.037A4.684,4.684,0,0,1,58.75,10.99l1-.966a3.224,3.224,0,0,0,2.521,1.144c1.5,0,2.448-.984,2.448-2.736,0-1.84-.948-2.483-2.182-2.483a3.719,3.719,0,0,0-1.7.411H59.552V.336h6.471Z" transform="translate(303.454 6749.211)" fill="#fff"/>
    <path id="Trazado_704762" data-name="Trazado 704762" d="M71,6.423c0,3.968-1.321,6.183-4,6.183s-4-2.215-4-6.183,1.323-6.167,4-6.167,4,2.217,4,6.167m-6.29,0c0,3.521.787,4.88,2.287,4.88,1.484,0,2.289-1.359,2.289-4.88,0-3.5-.8-4.862-2.289-4.862-1.5,0-2.287,1.359-2.287,4.862" transform="translate(308.689 6749.113)" fill="#fff"/>
    <path id="Trazado_704763" data-name="Trazado 704763" d="M73.182,3.594a2.907,2.907,0,1,1-5.81,0,2.907,2.907,0,1,1,5.81,0m-4.359,0c0,.928.3,1.911,1.444,1.911,1.165,0,1.449-.948,1.449-1.911,0-.93-.284-1.913-1.449-1.913-1.14,0-1.444.948-1.444,1.913M78.667.751,70.392,13.262l-1.142-.749L77.525,0ZM80.527,9.9a2.906,2.906,0,1,1-5.807,0,2.906,2.906,0,1,1,5.807,0m-4.343,0c0,.93.306,1.913,1.449,1.913,1.16,0,1.446-.948,1.446-1.913,0-.928-.286-1.9-1.446-1.9-1.142,0-1.449.93-1.449,1.9" transform="translate(314.104 6748.797)" fill="#fff"/>
    <path id="Trazado_704764" data-name="Trazado 704764" d="M90.3,9.193c0,2-1.717,3.413-4.147,3.413-2.468,0-4.093-1.413-4.093-3.378,0-1.538.894-2.468,2.358-3.112a2.931,2.931,0,0,1-1.86-2.787c0-2.019,1.806-3.074,3.63-3.074,1.786,0,3.628.984,3.628,3.02,0,1.216-.68,2.021-2.039,2.7,1.645.662,2.521,1.717,2.521,3.219m-1.717.018c0-1.288-.68-1.86-2.609-2.521l-.447-.161a2.747,2.747,0,0,0-1.753,2.7c0,1.3.912,2.072,2.4,2.072,1.5,0,2.412-.838,2.412-2.09M84.164,3.347c0,1.234.84,1.681,2.217,2.128l.3.107A2.4,2.4,0,0,0,88.2,3.33a2.028,2.028,0,0,0-4.039.018" transform="translate(332.245 6749.113)" fill="#fff"/>
    <path id="Trazado_704765" data-name="Trazado 704765" d="M94.55,6.423c0,3.968-1.321,6.183-4,6.183s-4-2.215-4-6.183,1.323-6.167,4-6.167,4,2.217,4,6.167m-6.29,0c0,3.521.787,4.88,2.287,4.88,1.484,0,2.289-1.359,2.289-4.88,0-3.5-.8-4.862-2.289-4.862-1.5,0-2.287,1.359-2.287,4.862" transform="translate(337.788 6749.113)" fill="#fff"/>
    <path id="Trazado_704766" data-name="Trazado 704766" d="M96.737,3.594a2.907,2.907,0,1,1-5.81,0,2.907,2.907,0,1,1,5.81,0m-4.361,0c0,.928.3,1.911,1.449,1.911,1.16,0,1.446-.948,1.446-1.911,0-.93-.286-1.913-1.446-1.913-1.145,0-1.449.948-1.449,1.913M102.222.751,93.947,13.262,92.8,12.513,101.08,0Zm1.86,9.152a2.907,2.907,0,1,1-5.81,0,2.907,2.907,0,1,1,5.81,0m-4.343,0c0,.93.3,1.913,1.446,1.913,1.162,0,1.449-.948,1.449-1.913,0-.928-.286-1.9-1.449-1.9-1.142,0-1.446.93-1.446,1.9" transform="translate(343.203 6748.797)" fill="#fff"/>
    <path id="Trazado_704767" data-name="Trazado 704767" d="M117.962,9.193c0,2-1.717,3.413-4.147,3.413-2.468,0-4.093-1.413-4.093-3.378,0-1.538.892-2.468,2.358-3.112a2.931,2.931,0,0,1-1.86-2.787c0-2.019,1.806-3.074,3.63-3.074,1.786,0,3.628.984,3.628,3.02,0,1.216-.68,2.021-2.039,2.7,1.645.662,2.521,1.717,2.521,3.219m-1.717.018c0-1.288-.68-1.86-2.609-2.521l-.447-.161a2.747,2.747,0,0,0-1.753,2.7c0,1.3.912,2.072,2.394,2.072,1.5,0,2.414-.838,2.414-2.09m-4.415-5.863c0,1.234.84,1.681,2.217,2.128l.3.107a2.4,2.4,0,0,0,1.52-2.253,2.028,2.028,0,0,0-4.039.018" transform="translate(366.423 6749.113)" fill="#fff"/>
    <path id="Trazado_704768" data-name="Trazado 704768" d="M122.217,6.423c0,3.968-1.321,6.183-4,6.183s-4-2.215-4-6.183,1.323-6.167,4-6.167,4,2.217,4,6.167m-6.29,0c0,3.521.787,4.88,2.287,4.88,1.484,0,2.289-1.359,2.289-4.88,0-3.5-.8-4.862-2.289-4.862-1.5,0-2.287,1.359-2.287,4.862" transform="translate(371.966 6749.113)" fill="#fff"/>
    <path id="Trazado_704769" data-name="Trazado 704769" d="M124.4,3.594a2.907,2.907,0,1,1-5.81,0,2.907,2.907,0,1,1,5.81,0m-4.361,0c0,.928.3,1.911,1.449,1.911,1.16,0,1.446-.948,1.446-1.911,0-.93-.286-1.913-1.446-1.913-1.145,0-1.449.948-1.449,1.913M129.889.751l-8.275,12.511-1.145-.749L128.747,0Zm1.86,9.152a2.907,2.907,0,1,1-5.81,0,2.907,2.907,0,1,1,5.81,0m-4.343,0c0,.93.3,1.913,1.446,1.913,1.162,0,1.449-.948,1.449-1.913,0-.928-.286-1.9-1.449-1.9-1.142,0-1.446.93-1.446,1.9" transform="translate(377.382 6748.797)" fill="#fff"/>
  </g>
</svg>
