<svg xmlns="http://www.w3.org/2000/svg" width="372" height="81" viewBox="0 0 372 81">
  <g id="Grupo_161022" data-name="Grupo 161022" transform="translate(9252.443 13076.136)">
    <rect id="Rectángulo_49935" data-name="Rectángulo 49935" width="372" height="81" rx="10" transform="translate(-9252.443 -13076.136)" fill="#fff"/>
    <g id="Grupo_161024" data-name="Grupo 161024" transform="translate(13.245 -163)">
      <path id="Trazado_704810" data-name="Trazado 704810" d="M5.4-7.38l2.578-4.243H10.3L6.5-5.876,10.42,0h-2.3L5.436-4.351,2.75,0H.44L4.361-5.876l-3.8-5.747h2.3ZM26.941-8.744H17.982v-1.729h8.959Zm0,4.458H17.982V-6h8.959Zm13.8-2.062a16.608,16.608,0,0,1,.65-4.662,13.543,13.543,0,0,1,1.939-4.061,8.249,8.249,0,0,1,2.675-2.578l.408,1.311a8.556,8.556,0,0,0-2.573,3.674,15.927,15.927,0,0,0-1.1,5.532l-.011.913a16.01,16.01,0,0,0,1.515,7.2,8.6,8.6,0,0,0,2.17,2.857l-.408,1.214A8.514,8.514,0,0,1,43.28,2.385,14.932,14.932,0,0,1,40.745-6.349Zm28.192-7.26H66.652v9.592a2.174,2.174,0,0,0,.4,1.416,1.665,1.665,0,0,0,1.348.477A4.323,4.323,0,0,0,69.67-2.3l.015,2.2A8.011,8.011,0,0,1,67.59.176q-3.647,0-3.647-4.307v-9.478H58.068V0h-2.71V-13.608H52.883V-15.85H68.938ZM88.43-7.38l2.578-4.243h2.32l-3.8,5.747L93.446,0h-2.3L88.462-4.351,85.776,0h-2.31l3.921-5.876-3.8-5.747h2.3ZM96.066,7H94.907V.22h1.159ZM94.813-1.578a.692.692,0,0,1,.172-.476.647.647,0,0,1,.511-.194.657.657,0,0,1,.514.194.685.685,0,0,1,.175.476.662.662,0,0,1-.175.47A.669.669,0,0,1,95.5-.92a.659.659,0,0,1-.511-.188A.669.669,0,0,1,94.813-1.578Zm11.5-4.663a16.616,16.616,0,0,1-.628,4.592,13.579,13.579,0,0,1-1.923,4.055,8.425,8.425,0,0,1-2.712,2.643l-.419-1.214A8.636,8.636,0,0,0,103.288-.1a17.032,17.032,0,0,0,1.026-5.924V-6.37a17.684,17.684,0,0,0-.473-4.195,14.157,14.157,0,0,0-1.316-3.475,8.027,8.027,0,0,0-1.9-2.4l.419-1.214a8.392,8.392,0,0,1,2.7,2.621,13.608,13.608,0,0,1,1.923,4.05A17,17,0,0,1,106.311-6.241Zm33.935-2.5h-8.959v-1.729h8.959Zm0,4.458h-8.959V-6h8.959Zm13.8-2.062a16.608,16.608,0,0,1,.65-4.662,13.543,13.543,0,0,1,1.939-4.061,8.249,8.249,0,0,1,2.675-2.578l.408,1.311a8.556,8.556,0,0,0-2.573,3.674,15.926,15.926,0,0,0-1.1,5.532l-.011.913a16.01,16.01,0,0,0,1.515,7.2,8.6,8.6,0,0,0,2.17,2.857l-.408,1.214a8.514,8.514,0,0,1-2.729-2.664A14.931,14.931,0,0,1,154.05-6.349ZM170.99-7.38l2.578-4.243h2.32l-3.8,5.747L176.007,0h-2.3l-2.686-4.351L168.337,0h-2.31l3.921-5.876-3.8-5.747h2.3ZM181.058,7h-1.165V-.726l-2.337.858V-.92l3.321-1.247h.182ZM194.546-7.38l2.578-4.243h2.32l-3.8,5.747L199.562,0h-2.3l-2.686-4.351L191.892,0h-2.31L193.5-5.876l-3.8-5.747H192ZM206.781,7H200.8V6.167l3.158-3.509a7.5,7.5,0,0,0,.968-1.294A2.16,2.16,0,0,0,205.2.333a1.637,1.637,0,0,0-.432-1.172,1.512,1.512,0,0,0-1.153-.457,1.79,1.79,0,0,0-1.344.492,1.879,1.879,0,0,0-.479,1.369h-1.159a2.691,2.691,0,0,1,.811-2.036,3.008,3.008,0,0,1,2.171-.777,2.89,2.89,0,0,1,2.011.667A2.276,2.276,0,0,1,206.362.2,5.219,5.219,0,0,1,204.645,3.4L202.2,6.054h4.58Zm7.506-8.042a1.244,1.244,0,0,1,.306-.859,1.167,1.167,0,0,1,.918-.344,1.2,1.2,0,0,1,.929.344,1.219,1.219,0,0,1,.317.859,1.153,1.153,0,0,1-.317.827,1.223,1.223,0,0,1-.929.333,1.187,1.187,0,0,1-.918-.333A1.176,1.176,0,0,1,214.288-1.042Zm4.694,0a1.244,1.244,0,0,1,.306-.859,1.167,1.167,0,0,1,.918-.344,1.2,1.2,0,0,1,.929.344,1.219,1.219,0,0,1,.317.859,1.153,1.153,0,0,1-.317.827,1.223,1.223,0,0,1-.929.333,1.187,1.187,0,0,1-.918-.333A1.176,1.176,0,0,1,218.982-1.042Zm4.458,0a1.244,1.244,0,0,1,.306-.859,1.167,1.167,0,0,1,.918-.344,1.2,1.2,0,0,1,.929.344,1.219,1.219,0,0,1,.317.859,1.153,1.153,0,0,1-.317.827,1.223,1.223,0,0,1-.929.333,1.187,1.187,0,0,1-.918-.333A1.176,1.176,0,0,1,223.44-1.042ZM238.264-7.38l2.578-4.243h2.32l-3.8,5.747L243.281,0h-2.3L238.3-4.351,235.611,0H233.3l3.921-5.876-3.8-5.747h2.3Zm7.474,7.6.038.852a2.471,2.471,0,0,1,2.03-.977q2.149,0,2.168,2.425V7h-1.159V2.514a1.561,1.561,0,0,0-.335-1.084,1.343,1.343,0,0,0-1.024-.351,1.673,1.673,0,0,0-.99.3,2.042,2.042,0,0,0-.664.79V7h-1.159V.22Zm14.374-6.461a16.616,16.616,0,0,1-.628,4.592,13.58,13.58,0,0,1-1.923,4.055,8.425,8.425,0,0,1-2.712,2.643l-.419-1.214A8.636,8.636,0,0,0,257.088-.1a17.032,17.032,0,0,0,1.026-5.924V-6.37a17.685,17.685,0,0,0-.473-4.195,14.157,14.157,0,0,0-1.316-3.475,8.026,8.026,0,0,0-1.9-2.4l.419-1.214a8.392,8.392,0,0,1,2.7,2.621,13.608,13.608,0,0,1,1.923,4.05A17,17,0,0,1,260.112-6.241Z" transform="translate(-9218.566 -12866.137)" fill="#12263f"/>
      <path id="Trazado_704811" data-name="Trazado 704811" d="M5.339,0H3.977V-9.031l-2.732,1v-1.23l3.882-1.458h.212Z" transform="translate(-8953.353 -12887.137)" fill="#12263f"/>
      <path id="Trazado_178596" data-name="Trazado 178596" d="M-9613.245-9288.434h17.943" transform="translate(655.557 -3596.136)" fill="none" stroke="#12263f" stroke-width="1"/>
      <path id="Trazado_704812" data-name="Trazado 704812" d="M2.307-7.925l.044,1A2.888,2.888,0,0,1,4.724-8.071q2.512,0,2.534,2.834V0H5.9V-5.244a1.824,1.824,0,0,0-.392-1.267,1.57,1.57,0,0,0-1.2-.41,1.956,1.956,0,0,0-1.157.352,2.387,2.387,0,0,0-.776.923V0H1.025V-7.925Z" transform="translate(-8953.353 -12874.137)" fill="#12263f"/>
      <path id="Trazado_704813" data-name="Trazado 704813" d="M5.339,0H3.977V-9.031l-2.732,1v-1.23l3.882-1.458h.212Z" transform="translate(-9106.174 -12892.137)" fill="#12263f"/>
      <path id="Trazado_178597" data-name="Trazado 178597" d="M-9613.245-9288.434h17.943" transform="translate(502.735 -3601.136)" fill="none" stroke="#12263f" stroke-width="1"/>
      <path id="Trazado_704814" data-name="Trazado 704814" d="M2.307-7.925l.044,1A2.888,2.888,0,0,1,4.724-8.071q2.512,0,2.534,2.834V0H5.9V-5.244a1.824,1.824,0,0,0-.392-1.267,1.57,1.57,0,0,0-1.2-.41,1.956,1.956,0,0,0-1.157.352,2.387,2.387,0,0,0-.776.923V0H1.025V-7.925Z" transform="translate(-9106.174 -12879.137)" fill="#12263f"/>
      <path id="Trazado_704815" data-name="Trazado 704815" d="M2.307-7.925l.044,1A2.888,2.888,0,0,1,4.724-8.071q2.512,0,2.534,2.834V0H5.9V-5.244a1.824,1.824,0,0,0-.392-1.267,1.57,1.57,0,0,0-1.2-.41,1.956,1.956,0,0,0-1.157.352,2.387,2.387,0,0,0-.776.923V0H1.025V-7.925Z" transform="translate(-9160.174 -12888.137)" fill="#12263f"/>
      <path id="Trazado_704816" data-name="Trazado 704816" d="M2.5,0H1.143V-7.925H2.5ZM1.033-10.027a.809.809,0,0,1,.2-.557.756.756,0,0,1,.6-.227.768.768,0,0,1,.6.227.8.8,0,0,1,.205.557.774.774,0,0,1-.205.549.782.782,0,0,1-.6.22.77.77,0,0,1-.6-.22A.782.782,0,0,1,1.033-10.027ZM14.575-5.962H8.467V-7.141h6.108Zm0,3.04H8.467V-4.094h6.108ZM24.639,0H23.276V-9.031l-2.732,1v-1.23l3.882-1.458h.212Z" transform="translate(-9171.443 -12845.479)" fill="#12263f"/>
      <path id="Trazado_178598" data-name="Trazado 178598" d="M-9613.245-9288.434h17.943" transform="translate(393.557 -3596.136)" fill="none" stroke="#12263f" stroke-width="2"/>
    </g>
  </g>
</svg>
