<svg xmlns="http://www.w3.org/2000/svg" width="355" height="81" viewBox="0 0 355 81">
  <g id="Grupo_973864" data-name="Grupo 973864" transform="translate(-623 -19633)">
    <g id="Grupo_974123" data-name="Grupo 974123">
      <rect id="Rectángulo_51491" data-name="Rectángulo 51491" width="355" height="81" rx="10" transform="translate(623 19633)" fill="#25ffff"/>
      <path id="Trazado_705240" data-name="Trazado 705240" d="M10.244-6.665H4.112v4.594h7.167V0H1.518V-14.93h9.69v2.092h-7.1v4.122h6.132Zm8.172.595a15.625,15.625,0,0,1,.636-4.5,12.341,12.341,0,0,1,1.866-3.8,7.41,7.41,0,0,1,2.6-2.353l.492,1.456a7.612,7.612,0,0,0-2.343,3.348,14.994,14.994,0,0,0-.979,5.153l-.01.882a16.3,16.3,0,0,0,.877,5.542,8.168,8.168,0,0,0,2.456,3.707l-.492,1.384a7.423,7.423,0,0,1-2.61-2.364,12.34,12.34,0,0,1-1.866-3.8A16.241,16.241,0,0,1,18.416-6.07ZM36.309-9.536l3.138-5.394h2.994l-4.512,7.4L42.543,0H39.519L36.309-5.476,33.089,0H30.075L34.7-7.526l-4.522-7.4h2.994Zm12.715,3.63A15.428,15.428,0,0,1,48.4-1.512a12.449,12.449,0,0,1-1.9,3.855,7.429,7.429,0,0,1-2.656,2.4l-.492-1.384A7.88,7.88,0,0,0,45.789-.272a16.147,16.147,0,0,0,.9-5.583v-.236a16.385,16.385,0,0,0-.779-5.194,9.161,9.161,0,0,0-2.235-3.758l-.318-.287.492-1.395a7.351,7.351,0,0,1,2.543,2.256,12.24,12.24,0,0,1,1.887,3.625,15.1,15.1,0,0,1,.738,4.137ZM65.9-8H57.063v-2.071H65.9Zm0,4.348H57.063V-5.711H65.9Zm10.244-7.444.072,1.282a3.989,3.989,0,0,1,3.23-1.487q3.466,0,3.527,3.968V0H80.483V-7.188a2.285,2.285,0,0,0-.456-1.564,1.919,1.919,0,0,0-1.492-.508A2.4,2.4,0,0,0,76.289-7.9V0H73.8V-11.095ZM101.7-9.146h-1.63v6.009a1.364,1.364,0,0,0,.251.918,1.165,1.165,0,0,0,.9.282,4.226,4.226,0,0,0,.872-.1V-.113a5.5,5.5,0,0,1-1.641.236q-2.871,0-2.871-3.168v-6.1h-3.4V0H91.68V-9.146H89.927v-1.948H101.7Zm12.376,1.292,3.435-7.075h2.871l-5,9.434V0h-2.6V-5.5l-5.014-9.434h2.881Zm18.416,4.6,3.794-11.679h2.851L133.762,0H131.25L125.9-14.93h2.84Zm8.121-2.82a15.625,15.625,0,0,1,.636-4.5,12.341,12.341,0,0,1,1.866-3.8,7.41,7.41,0,0,1,2.6-2.353l.492,1.456a7.612,7.612,0,0,0-2.343,3.348,14.994,14.994,0,0,0-.979,5.153l-.01.882a16.3,16.3,0,0,0,.877,5.542,8.168,8.168,0,0,0,2.456,3.707l-.492,1.384a7.423,7.423,0,0,1-2.61-2.364,12.34,12.34,0,0,1-1.866-3.8A16.241,16.241,0,0,1,140.612-6.07Zm11.269-1.374,2.112-3.65h2.769l-3.394,5.465L156.875,0h-2.748l-2.215-3.794L149.707,0h-2.769l3.507-5.629-3.384-5.465h2.748Zm11.382,1.538a15.428,15.428,0,0,1-.625,4.394,12.449,12.449,0,0,1-1.9,3.855,7.429,7.429,0,0,1-2.656,2.4l-.492-1.384a7.88,7.88,0,0,0,2.435-3.635,16.147,16.147,0,0,0,.9-5.583v-.236a16.385,16.385,0,0,0-.779-5.194,9.161,9.161,0,0,0-2.235-3.758l-.318-.287.492-1.395a7.351,7.351,0,0,1,2.543,2.256,12.24,12.24,0,0,1,1.887,3.625,15.1,15.1,0,0,1,.738,4.137ZM180.141-8H171.3v-2.071h8.839Zm0,4.348H171.3V-5.711h8.839Zm10.244-7.444.072,1.282a3.989,3.989,0,0,1,3.23-1.487q3.466,0,3.527,3.968V0h-2.492V-7.188a2.285,2.285,0,0,0-.456-1.564,1.919,1.919,0,0,0-1.492-.508A2.4,2.4,0,0,0,190.528-7.9V0h-2.492V-11.095Zm20.323,1.948h-1.63v6.009a1.364,1.364,0,0,0,.251.918,1.165,1.165,0,0,0,.9.282,4.226,4.226,0,0,0,.872-.1V-.113a5.5,5.5,0,0,1-1.641.236q-2.871,0-2.871-3.168v-6.1h-3.4V0h-2.492V-9.146h-1.753v-1.948h11.771Zm7.3,3.076a15.625,15.625,0,0,1,.636-4.5,12.341,12.341,0,0,1,1.866-3.8,7.41,7.41,0,0,1,2.6-2.353l.492,1.456a7.612,7.612,0,0,0-2.343,3.348,14.994,14.994,0,0,0-.979,5.153l-.01.882a16.3,16.3,0,0,0,.877,5.542,8.168,8.168,0,0,0,2.456,3.707l-.492,1.384a7.423,7.423,0,0,1-2.61-2.364,12.34,12.34,0,0,1-1.866-3.8A16.241,16.241,0,0,1,218.008-6.07ZM237.111,0H234.63V-11.994l-3.661,1.248v-2.092l5.824-2.143h.318Zm15.412-5.342H247.14v-2.01h5.383Zm18.242-3.8h-1.63v6.009a1.364,1.364,0,0,0,.251.918,1.165,1.165,0,0,0,.9.282,4.226,4.226,0,0,0,.872-.1V-.113a5.5,5.5,0,0,1-1.641.236q-2.871,0-2.871-3.168v-6.1h-3.4V0h-2.492V-9.146h-1.753v-1.948h11.771Zm12.069,3.24a15.428,15.428,0,0,1-.625,4.394,12.449,12.449,0,0,1-1.9,3.855,7.429,7.429,0,0,1-2.656,2.4l-.492-1.384A7.88,7.88,0,0,0,279.6-.272a16.147,16.147,0,0,0,.9-5.583v-.236a16.385,16.385,0,0,0-.779-5.194,9.161,9.161,0,0,0-2.235-3.758l-.318-.287.492-1.395a7.351,7.351,0,0,1,2.543,2.256,12.24,12.24,0,0,1,1.887,3.625,15.1,15.1,0,0,1,.738,4.137Z" transform="translate(658 19681)" fill="#12263f"/>
    </g>
  </g>
</svg>
