<svg xmlns="http://www.w3.org/2000/svg" xmlns:xlink="http://www.w3.org/1999/xlink" width="473.215" height="444.354" viewBox="0 0 473.215 444.354">
  <defs>
    <clipPath id="clip-path">
      <rect id="Rectángulo_49833" data-name="Rectángulo 49833" width="415.9" height="382.845" fill="none"/>
    </clipPath>
    <clipPath id="clip-path-2">
      <rect id="Rectángulo_49831" data-name="Rectángulo 49831" width="415.9" height="382.845" fill="#dbfdfd"/>
    </clipPath>
    <clipPath id="clip-path-3">
      <rect id="Rectángulo_49830" data-name="Rectángulo 49830" width="415.9" height="382.408" fill="#dbfdfd"/>
    </clipPath>
    <clipPath id="clip-path-5">
      <rect id="Rectángulo_49836" data-name="Rectángulo 49836" width="334.53" height="140.732" fill="none"/>
    </clipPath>
  </defs>
  <g id="Grupo_166769" data-name="Grupo 166769" transform="translate(-915 -14121.826)">
    <g id="Grupo_165807" data-name="Grupo 165807" transform="translate(972.315 14169.193)">
      <g id="Grupo_165806" data-name="Grupo 165806" clip-path="url(#clip-path)">
        <g id="Grupo_165803" data-name="Grupo 165803" style="isolation: isolate">
          <g id="Grupo_165802" data-name="Grupo 165802" clip-path="url(#clip-path-2)">
            <path id="Trazado_178028" data-name="Trazado 178028" d="M414.177,199.145c-5.122-40.67-21.214-81.129-42.153-114.212C344.785,41.894,301.266,7.365,249.633.966c-36.544-4.53-78.214,7.008-106.475,31.756a110.107,110.107,0,0,0-31.275,45.169c-6.916,18.989-9.863,40.75-24.767,55.657C69.2,151.462,44.468,160.034,25.964,177.133c-41.028,37.915-29.051,106.4,5.512,144.23,31.111,34.051,77.269,27.752,118.772,34.171,31.506,4.872,58.773,22.637,90.972,26C287.805,386.4,335.9,370.8,370.07,338.6c39.784-37.5,50.507-88.639,44.107-139.45" transform="translate(0 0)" fill="#dbfdfd"/>
            <g id="Grupo_165801" data-name="Grupo 165801" opacity="0.7">
              <g id="Grupo_165800" data-name="Grupo 165800" style="isolation: isolate">
                <g id="Grupo_165799" data-name="Grupo 165799" clip-path="url(#clip-path-3)">
                  <path id="Trazado_178029" data-name="Trazado 178029" d="M414.177,199.145c-5.122-40.67-21.214-81.129-42.153-114.212C344.785,41.894,301.266,7.365,249.633.966c-36.544-4.53-78.214,7.008-106.475,31.756a110.107,110.107,0,0,0-31.275,45.169c-6.916,18.989-9.863,40.75-24.767,55.657C69.2,151.462,44.468,160.034,25.964,177.133c-41.028,37.915-29.051,106.4,5.512,144.23,31.111,34.051,77.269,27.752,118.772,34.171,31.506,4.872,58.773,22.637,90.972,26C287.805,386.4,335.9,370.8,370.07,338.6c39.784-37.5,50.507-88.639,44.107-139.45" transform="translate(0 0)" fill="#dbfdfd"/>
                </g>
              </g>
            </g>
          </g>
        </g>
        <g id="Grupo_165805" data-name="Grupo 165805">
          <g id="Grupo_165804" data-name="Grupo 165804" clip-path="url(#clip-path)">
            <path id="Trazado_178030" data-name="Trazado 178030" d="M267.219,400.85l4.209-62.477-4.287-39.155s-35.725,4.859-79.454-5.717l-1.143,55.161,2.578,32.367c20.968,7.119,41.184,16.612,63.841,18.978,4.742.5,9.5.767,14.256.842" transform="translate(-11.741 -18.473)" fill="#12263f"/>
            <path id="Trazado_178031" data-name="Trazado 178031" d="M267.219,400.85l4.209-62.477-4.287-39.155s-35.725,4.859-79.454-5.717l-1.143,55.161,2.578,32.367c20.968,7.119,41.184,16.612,63.841,18.978C257.7,400.5,262.463,400.775,267.219,400.85Z" transform="translate(-11.741 -18.473)" fill="none" stroke="#263238" stroke-linecap="round" stroke-linejoin="round" stroke-width="1"/>
            <path id="Trazado_178032" data-name="Trazado 178032" d="M267.209,299.217s-35.726,4.859-79.454-5.716l-.134,6.457c3.589,2.647,12.947,7.9,33,10.405,20.9,2.612,39.626-1.736,47.374-3.959Z" transform="translate(-11.809 -18.473)" fill="#707070"/>
            <path id="Trazado_178033" data-name="Trazado 178033" d="M267.209,299.217s-35.726,4.859-79.454-5.716l-.134,6.457c3.589,2.647,12.947,7.9,33,10.405,20.9,2.612,39.626-1.736,47.374-3.959Z" transform="translate(-11.809 -18.473)" fill="none" stroke="#263238" stroke-linecap="round" stroke-linejoin="round" stroke-width="1"/>
            <path id="Trazado_178034" data-name="Trazado 178034" d="M244.4,310.936q2.425-.2,4.7-.469v-9.988a251.117,251.117,0,0,1-49.4-4.4l1.1,3.3v6.732q1.868.624,4.04,1.225l.247-7.671,39.728,3.144Z" transform="translate(-12.57 -18.636)" fill="#263238"/>
            <path id="Trazado_178035" data-name="Trazado 178035" d="M244.4,310.936q2.425-.2,4.7-.469v-9.988a251.117,251.117,0,0,1-49.4-4.4l1.1,3.3v6.732q1.868.624,4.04,1.225l.247-7.671,39.728,3.144Z" transform="translate(-12.57 -18.636)" fill="none" stroke="#263238" stroke-linecap="round" stroke-linejoin="round" stroke-width="1"/>
            <path id="Trazado_178036" data-name="Trazado 178036" d="M215.313,309.9q3.283.586,7.052,1.063c2.934.366,5.824.592,8.648.709l.212-6.14-15.433-2.572Z" transform="translate(-13.552 -19.068)" fill="#fff"/>
            <path id="Trazado_178037" data-name="Trazado 178037" d="M215.313,309.9q3.283.586,7.052,1.063c2.934.366,5.824.592,8.648.709l.212-6.14-15.433-2.572Z" transform="translate(-13.552 -19.068)" fill="none" stroke="#263238" stroke-linecap="round" stroke-linejoin="round" stroke-width="1"/>
            <path id="Trazado_178038" data-name="Trazado 178038" d="M203.313,309.362s-6,11.718-13.719,13.147" transform="translate(-11.933 -19.472)" fill="none" stroke="#858585" stroke-linecap="round" stroke-linejoin="round" stroke-width="1"/>
            <path id="Trazado_178039" data-name="Trazado 178039" d="M258.636,332.087a19.1,19.1,0,0,0,1.9,1.57" transform="translate(-16.279 -20.902)" fill="none" stroke="#858585" stroke-linecap="round" stroke-linejoin="round" stroke-width="1"/>
            <path id="Trazado_178040" data-name="Trazado 178040" d="M250.29,315.157a30.759,30.759,0,0,0,5.475,13.252" transform="translate(-15.754 -19.836)" fill="none" stroke="#858585" stroke-linecap="round" stroke-linejoin="round" stroke-width="1"/>
            <line id="Línea_186" data-name="Línea 186" x2="0.007" y2="4.911" transform="translate(216.852 369.996)" fill="none" stroke="#858585" stroke-linecap="round" stroke-linejoin="round" stroke-width="1"/>
            <path id="Trazado_178041" data-name="Trazado 178041" d="M219.179,354.5l11.432,10,.032,24.231" transform="translate(-13.795 -22.313)" fill="none" stroke="#858585" stroke-linecap="round" stroke-linejoin="round" stroke-width="1"/>
            <path id="Trazado_178042" data-name="Trazado 178042" d="M219.234,324.332l.806,20.554,6,4.574-.572-21.436" transform="translate(-13.799 -20.414)" fill="none" stroke="#858585" stroke-linecap="round" stroke-linejoin="round" stroke-width="1"/>
            <line id="Línea_187" data-name="Línea 187" x2="0.145" y2="3.693" transform="translate(205.098 295.321)" fill="none" stroke="#858585" stroke-linecap="round" stroke-linejoin="round" stroke-width="1"/>
            <path id="Trazado_178043" data-name="Trazado 178043" d="M226.985,178.562s-32.462,1.014-34.744,2.536S170.937,192,170.937,192s6.594-13.187,6.594-18.513-4.057-8.623-11.412-11.412-17.5,1.268-19.527,6.848-11.666,40.07-12.681,49.96,12.173,18.513,17.753,18.006,33.983-10.9,33.983-10.9-2.029,55.793-2.029,57.315,0,3.8,3.044,5.072,17.5,8.623,35,10.144,37.281-2.029,39.817-2.282,4.818-5.579,4.818-7.862,2.029-19.781,2.029-19.781l3.8,15.47s2.537,2.79,10.652,3.55,14.456-3.3,16.231-7.355,1.776-5.072,1.776-5.072-16.485-62.894-17.753-68.474-1.015-5.579-4.565-9.637-26.628-13.187-32.969-14.963-18.513-3.551-18.513-3.551" transform="translate(-8.425 -10.144)" fill="#43a99b"/>
            <path id="Trazado_178044" data-name="Trazado 178044" d="M226.985,178.562s-32.462,1.014-34.744,2.536S170.937,192,170.937,192s6.594-13.187,6.594-18.513-4.057-8.623-11.412-11.412-17.5,1.268-19.527,6.848-11.666,40.07-12.681,49.96,12.173,18.513,17.753,18.006,33.983-10.9,33.983-10.9-2.029,55.793-2.029,57.315,0,3.8,3.044,5.072,17.5,8.623,35,10.144,37.281-2.029,39.817-2.282,4.818-5.579,4.818-7.862,2.029-19.781,2.029-19.781l3.8,15.47s2.537,2.79,10.652,3.55,14.456-3.3,16.231-7.355,1.776-5.072,1.776-5.072-16.485-62.894-17.753-68.474-1.015-5.579-4.565-9.637-26.628-13.187-32.969-14.963S226.985,178.562,226.985,178.562Z" transform="translate(-8.425 -10.144)" fill="none" stroke="#263238" stroke-linecap="round" stroke-linejoin="round" stroke-width="1"/>
            <line id="Línea_188" data-name="Línea 188" x1="10.652" y2="29.672" transform="translate(151.861 181.859)" fill="none" stroke="#263238" stroke-linecap="round" stroke-linejoin="round" stroke-width="1"/>
            <path id="Trazado_178045" data-name="Trazado 178045" d="M168.793,207.606a78.9,78.9,0,0,1-.507,14.455" transform="translate(-10.592 -13.067)" fill="none" stroke="#263238" stroke-linecap="round" stroke-linejoin="round" stroke-width="1"/>
            <line id="Línea_189" data-name="Línea 189" y1="27.643" x2="0.761" transform="translate(177.221 188.199)" fill="none" stroke="#263238" stroke-linecap="round" stroke-linejoin="round" stroke-width="1"/>
            <path id="Trazado_178046" data-name="Trazado 178046" d="M188.784,223.869s-4.311-10.4-5.072-19.781" transform="translate(-11.563 -12.846)" fill="none" stroke="#263238" stroke-linecap="round" stroke-linejoin="round" stroke-width="1"/>
            <line id="Línea_190" data-name="Línea 190" y1="50.672" x2="8.526" transform="translate(259.897 207.776)" fill="none" stroke="#263238" stroke-linecap="round" stroke-linejoin="round" stroke-width="1"/>
            <line id="Línea_191" data-name="Línea 191" y1="24.211" x2="7.816" transform="translate(263.231 214.99)" fill="none" stroke="#263238" stroke-linecap="round" stroke-linejoin="round" stroke-width="1"/>
            <path id="Trazado_178047" data-name="Trazado 178047" d="M227.007,201.729l4,9.432-19.149,64.878,9.717,14.576L233.294,276.9l2-64.307,12-6.859-9.432-12.575Z" transform="translate(-13.335 -12.157)" fill="#263238"/>
            <path id="Trazado_178048" data-name="Trazado 178048" d="M227.007,201.729l4,9.432-19.149,64.878,9.717,14.576L233.294,276.9l2-64.307,12-6.859-9.432-12.575Z" transform="translate(-13.335 -12.157)" fill="none" stroke="#263238" stroke-linecap="round" stroke-linejoin="round" stroke-width="1"/>
            <path id="Trazado_178049" data-name="Trazado 178049" d="M233.126,174.55s-4.573.857-4.859,2.572-4.287,4.859-5.144,11.432.286,15.719.286,15.719,8.86-4,10.575-4.287,6.573.286,7.431,1.715,5.43,10.29,7.717,8.86,13.147-13.433,13.719-23.15-8.86-8.86-10-9.431-19.72-3.43-19.72-3.43" transform="translate(-14.024 -10.986)" fill="#43a99b"/>
            <path id="Trazado_178050" data-name="Trazado 178050" d="M233.126,174.55s-4.573.857-4.859,2.572-4.287,4.859-5.144,11.432.286,15.719.286,15.719,8.86-4,10.575-4.287,6.573.286,7.431,1.715,5.43,10.29,7.717,8.86,13.147-13.433,13.719-23.15-8.86-8.86-10-9.431S233.126,174.55,233.126,174.55Z" transform="translate(-14.024 -10.986)" fill="none" stroke="#263238" stroke-linecap="round" stroke-linejoin="round" stroke-width="1"/>
            <path id="Trazado_178051" data-name="Trazado 178051" d="M233.684,164.79s-.857,8.288-1.429,15.148-1.429,14,1.429,17.721,6,4.286,12.861-.858,10.861-9.717,12-14.576,2.858-10,2.858-10-14,3.715-27.723-7.431" transform="translate(-14.582 -10.372)" fill="#efdbd6"/>
            <path id="Trazado_178052" data-name="Trazado 178052" d="M233.684,164.79s-.857,8.288-1.429,15.148-1.429,14,1.429,17.721,6,4.286,12.861-.858,10.861-9.717,12-14.576,2.858-10,2.858-10S247.4,175.936,233.684,164.79Z" transform="translate(-14.582 -10.372)" fill="none" stroke="#263238" stroke-linecap="round" stroke-linejoin="round" stroke-width="1"/>
            <path id="Trazado_178053" data-name="Trazado 178053" d="M233.733,164.79s-.725,7.012-1.287,13.475a14.223,14.223,0,0,0,7.627,4.266c9.238,1.945,17.585-5,20.976-9.051.249-.786.407-1.259.407-1.259s-14,3.715-27.723-7.431" transform="translate(-14.63 -10.372)" fill="#263238"/>
            <path id="Trazado_178054" data-name="Trazado 178054" d="M233.733,164.79s-.725,7.012-1.287,13.475a14.223,14.223,0,0,0,7.627,4.266c9.238,1.945,17.585-5,20.976-9.051.249-.786.407-1.259.407-1.259S247.451,175.936,233.733,164.79Z" transform="translate(-14.63 -10.372)" fill="none" stroke="#263238" stroke-linecap="round" stroke-linejoin="round" stroke-width="1"/>
            <path id="Trazado_178055" data-name="Trazado 178055" d="M233.075,142.176s-1.143-3.715-3.43-.857-1.143,10,.286,11.718S233.075,142.176,233.075,142.176Z" transform="translate(-14.372 -8.827)" fill="none" stroke="#263238" stroke-linecap="round" stroke-linejoin="round" stroke-width="1"/>
            <path id="Trazado_178056" data-name="Trazado 178056" d="M237.176,122.492s-8.772,28.708-7.443,34.821,3.722,16.48,13.823,18.605,19.138-6.379,21.8-10.1c0,0,6.912.8,8.772-3.722s4.518-9.3,1.861-10.366a11.981,11.981,0,0,0-3.721-1.064s7.442-11.694,7.974-15.682-2.127-17.277-10.633-23.657-22.859-7.177-22.062-4.253,2.658,3.191,2.658,3.191-16.745-1.861-18.075,2.657,5.848,7.177,5.848,7.177Z" transform="translate(-14.451 -6.637)" fill="#e3d4d0"/>
            <path id="Trazado_178057" data-name="Trazado 178057" d="M237.176,122.492s-8.772,28.708-7.443,34.821,3.722,16.48,13.823,18.605,19.138-6.379,21.8-10.1c0,0,6.912.8,8.772-3.722s4.518-9.3,1.861-10.366a11.981,11.981,0,0,0-3.721-1.064s7.442-11.694,7.974-15.682-2.127-17.277-10.633-23.657-22.859-7.177-22.062-4.253,2.658,3.191,2.658,3.191-16.745-1.861-18.075,2.657,5.848,7.177,5.848,7.177Z" transform="translate(-14.451 -6.637)" fill="none" stroke="#263238" stroke-linecap="round" stroke-linejoin="round" stroke-width="1"/>
            <path id="Trazado_178058" data-name="Trazado 178058" d="M272.422,150.668s7.443-11.7,7.974-15.683-2.126-17.277-10.633-23.657-22.86-7.177-22.062-4.253,2.658,3.19,2.658,3.19-16.746-1.861-18.075,2.658,5.848,7.177,5.848,7.177l-.8,2.392s-1.68,5.5-3.459,12.2l.535.029s.8-2.392,1.861-6.113,3.19-7.974,13.822-6.911,21.265,6.645,21.8,10.632-3.987,5.582-2.392,7.443,3.721,2.657,2.392,3.987-3.987,6.911-2.392,7.708,4.252-.531,4.252-.531h.073a6.235,6.235,0,0,0-1.4-.267" transform="translate(-14.61 -6.637)" fill="#263238"/>
            <path id="Trazado_178059" data-name="Trazado 178059" d="M272.422,150.668s7.443-11.7,7.974-15.683-2.126-17.277-10.633-23.657-22.86-7.177-22.062-4.253,2.658,3.19,2.658,3.19-16.746-1.861-18.075,2.658,5.848,7.177,5.848,7.177l-.8,2.392s-1.68,5.5-3.459,12.2l.535.029s.8-2.392,1.861-6.113,3.19-7.974,13.822-6.911,21.265,6.645,21.8,10.632-3.987,5.582-2.392,7.443,3.721,2.657,2.392,3.987-3.987,6.911-2.392,7.708,4.252-.531,4.252-.531h.073A6.235,6.235,0,0,0,272.422,150.668Z" transform="translate(-14.61 -6.637)" fill="none" stroke="#263238" stroke-linecap="round" stroke-linejoin="round" stroke-width="1"/>
            <path id="Trazado_178060" data-name="Trazado 178060" d="M247.576,143.493l-4.785,12.759,5.051,1.595" transform="translate(-15.282 -9.032)" fill="none" stroke="#263238" stroke-linecap="round" stroke-linejoin="round" stroke-width="1"/>
            <path id="Trazado_178061" data-name="Trazado 178061" d="M243.926,162.923a9.94,9.94,0,0,0,11.429-2.126" transform="translate(-15.353 -10.121)" fill="none" stroke="#263238" stroke-linecap="round" stroke-linejoin="round" stroke-width="1"/>
            <path id="Trazado_178062" data-name="Trazado 178062" d="M237.685,136.118s6.646,1.064,8.506,2.126" transform="translate(-14.96 -8.567)" fill="none" stroke="#263238" stroke-linecap="round" stroke-linejoin="round" stroke-width="2"/>
            <path id="Trazado_178063" data-name="Trazado 178063" d="M256.974,138.65a7.531,7.531,0,0,1,7.974,2.392" transform="translate(-16.174 -8.707)" fill="none" stroke="#263238" stroke-linecap="round" stroke-linejoin="round" stroke-width="2"/>
            <path id="Trazado_178064" data-name="Trazado 178064" d="M241.768,143.224c-.155,1.165-.811,2.037-1.466,1.951s-1.061-1.1-.906-2.266.811-2.037,1.466-1.95,1.061,1.1.906,2.265" transform="translate(-15.066 -8.872)" fill="#263238"/>
            <path id="Trazado_178065" data-name="Trazado 178065" d="M258.233,147.9c-.156,1.164-.811,2.037-1.466,1.951s-1.061-1.1-.907-2.266.812-2.037,1.466-1.95,1.062,1.1.907,2.265" transform="translate(-16.102 -9.166)" fill="#263238"/>
            <path id="Trazado_178066" data-name="Trazado 178066" d="M164.731,153.723l-4.565,8.876s0,4.058,6.848,5.326,9.13-2.79,9.13-2.79l4.818-13.188s3.8-2.536,4.311-5.325,0-11.159.761-14.963,6.34-9.637,3.551-10.4-5.833,1.268-6.594,4.818-2.029,7.608-2.029,7.608-2.536-3.043-2.79-5.579,1.015-3.8-.761-4.311-13.441,8.116-13.948,10.905,1.268,19.02,1.268,19.02" transform="translate(-10.081 -7.622)" fill="#f2d6d0"/>
            <path id="Trazado_178067" data-name="Trazado 178067" d="M164.731,153.723l-4.565,8.876s0,4.058,6.848,5.326,9.13-2.79,9.13-2.79l4.818-13.188s3.8-2.536,4.311-5.325,0-11.159.761-14.963,6.34-9.637,3.551-10.4-5.833,1.268-6.594,4.818-2.029,7.608-2.029,7.608-2.536-3.043-2.79-5.579,1.015-3.8-.761-4.311-13.441,8.116-13.948,10.905S164.731,153.723,164.731,153.723Z" transform="translate(-10.081 -7.622)" fill="none" stroke="#263238" stroke-linecap="round" stroke-linejoin="round" stroke-width="1"/>
            <line id="Línea_192" data-name="Línea 192" y2="21.934" transform="translate(171.335 104.993)" fill="none" stroke="#263238" stroke-linecap="round" stroke-linejoin="round" stroke-width="3"/>
            <path id="Trazado_178068" data-name="Trazado 178068" d="M177.331,152.666s-2.283,4.565-5.833,5.326-4.564-1.269-4.564-1.269" transform="translate(-10.507 -9.609)" fill="none" stroke="#263238" stroke-linecap="round" stroke-linejoin="round" stroke-width="1"/>
            <path id="Trazado_178069" data-name="Trazado 178069" d="M167.853,129.527s-.981-.561.141-1.4,5.047-2.664,6.309-3.365,3.224,6.029,3.925,8.412.982,2.945,0,2.945-1.823,0-3.084-2.524a19.754,19.754,0,0,0-1.963-3.365l-2.384.421" transform="translate(-10.54 -7.849)" fill="#ebd6d2"/>
            <path id="Trazado_178070" data-name="Trazado 178070" d="M167.853,129.527s-.981-.561.141-1.4,5.047-2.664,6.309-3.365,3.224,6.029,3.925,8.412.982,2.945,0,2.945-1.823,0-3.084-2.524a19.754,19.754,0,0,0-1.963-3.365l-2.384.421" transform="translate(-10.54 -7.849)" fill="none" stroke="#263238" stroke-linecap="round" stroke-linejoin="round" stroke-width="1"/>
            <path id="Trazado_178071" data-name="Trazado 178071" d="M164.561,132.071s-.981-.561.141-1.4,5.047-2.664,6.309-3.365,3.224,6.029,3.925,8.412.982,2.944,0,2.944-1.823,0-3.084-2.524a19.757,19.757,0,0,0-1.963-3.365l-2.384.421" transform="translate(-10.333 -8.009)" fill="#ebd6d2"/>
            <path id="Trazado_178072" data-name="Trazado 178072" d="M164.561,132.071s-.981-.561.141-1.4,5.047-2.664,6.309-3.365,3.224,6.029,3.925,8.412.982,2.944,0,2.944-1.823,0-3.084-2.524a19.757,19.757,0,0,0-1.963-3.365l-2.384.421" transform="translate(-10.333 -8.009)" fill="none" stroke="#263238" stroke-linecap="round" stroke-linejoin="round" stroke-width="1"/>
            <path id="Trazado_178073" data-name="Trazado 178073" d="M165.1,136.846l2.79,2.536s1.015,2.79,2.536,3.044,1.522-1.268,0-4.057-2.282-7.1-3.3-7.355-5.072,3.3-5.072,3.3l2.029,6.594" transform="translate(-10.2 -8.245)" fill="#ebd6d2"/>
            <path id="Trazado_178074" data-name="Trazado 178074" d="M165.1,136.846l2.79,2.536s1.015,2.79,2.536,3.044,1.522-1.268,0-4.057-2.282-7.1-3.3-7.355-5.072,3.3-5.072,3.3l2.029,6.594" transform="translate(-10.2 -8.245)" fill="none" stroke="#263238" stroke-linecap="round" stroke-linejoin="round" stroke-width="1"/>
            <path id="Trazado_178075" data-name="Trazado 178075" d="M178.863,122.185s-2.561,0-2.8,2.2,1.341,2.8,3.658,2.316,3.415-2.683,2.561-3.9-3.415-.61-3.415-.61" transform="translate(-11.08 -7.681)" fill="#ebd6d2"/>
            <path id="Trazado_178076" data-name="Trazado 178076" d="M178.863,122.185s-2.561,0-2.8,2.2,1.341,2.8,3.658,2.316,3.415-2.683,2.561-3.9S178.863,122.185,178.863,122.185Z" transform="translate(-11.08 -7.681)" fill="none" stroke="#263238" stroke-linecap="round" stroke-linejoin="round" stroke-width="1"/>
            <path id="Trazado_178077" data-name="Trazado 178077" d="M176.144,167.553l2.329-6.372c-9.379,2.766-13.7.229-15.487-1.646l-2.819,5.484s0,4.057,6.847,5.325,9.13-2.791,9.13-2.791" transform="translate(-10.081 -10.041)" fill="#43a99b"/>
            <path id="Trazado_178078" data-name="Trazado 178078" d="M176.144,167.553l2.329-6.372c-9.379,2.766-13.7.229-15.487-1.646l-2.819,5.484s0,4.057,6.847,5.325S176.144,167.553,176.144,167.553Z" transform="translate(-10.081 -10.041)" fill="none" stroke="#263238" stroke-linecap="round" stroke-linejoin="round" stroke-width="1"/>
            <path id="Trazado_178079" data-name="Trazado 178079" d="M293.312,285.911s-8.16.215-10.736,3.221-2.792,17.822-2.792,20.184,4.724,9.448,13.313,11.166,15.89-3.435,16.1-8.8,3.865-19.97,3.006-25.553-4.509-7.515-4.509-7.515" transform="translate(-17.61 -17.536)" fill="#43a99b"/>
            <path id="Trazado_178080" data-name="Trazado 178080" d="M293.312,285.911s-8.16.215-10.736,3.221-2.792,17.822-2.792,20.184,4.724,9.448,13.313,11.166,15.89-3.435,16.1-8.8,3.865-19.97,3.006-25.553-4.509-7.515-4.509-7.515" transform="translate(-17.61 -17.536)" fill="none" stroke="#263238" stroke-linecap="round" stroke-linejoin="round" stroke-width="1"/>
            <path id="Trazado_178081" data-name="Trazado 178081" d="M302.584,312.968a10.1,10.1,0,1,1-10.1-9.867,9.984,9.984,0,0,1,10.1,9.867" transform="translate(-17.774 -19.078)" fill="#43a99b"/>
            <ellipse id="Elipse_5200" data-name="Elipse 5200" cx="10.1" cy="9.867" rx="10.1" ry="9.867" transform="translate(264.612 284.023)" fill="none" stroke="#263238" stroke-linecap="round" stroke-linejoin="round" stroke-width="1"/>
            <path id="Trazado_178082" data-name="Trazado 178082" d="M294.109,322.406s1.074-4.724,0-7.515-8.16-6.442-10.307-5.583-1.074,2.362-3.006,3.221-9.233,1.932-10.737,3.865-2.576,5.583-4.938,9.878-5.154,6.227-1.932,6.441a7.048,7.048,0,0,0,6.656-4.08,8.021,8.021,0,0,1,3.222-3.221s-5.8,13.1-4.939,14.387a3.385,3.385,0,0,0,1.718,1.5s-.644,2.577.859,3.221a3.117,3.117,0,0,0,2.791-.215s1.932,1.5,3.006,1.5a3.584,3.584,0,0,0,1.932-.644s3.651.429,4.725-1.288,5.8-7.3,8.159-11.81a28.793,28.793,0,0,0,2.791-9.663" transform="translate(-16.474 -19.46)" fill="#fff"/>
            <path id="Trazado_178083" data-name="Trazado 178083" d="M294.109,322.406s1.074-4.724,0-7.515-8.16-6.442-10.307-5.583-1.074,2.362-3.006,3.221-9.233,1.932-10.737,3.865-2.576,5.583-4.938,9.878-5.154,6.227-1.932,6.441a7.048,7.048,0,0,0,6.656-4.08,8.021,8.021,0,0,1,3.222-3.221s-5.8,13.1-4.939,14.387a3.385,3.385,0,0,0,1.718,1.5s-.644,2.577.859,3.221a3.117,3.117,0,0,0,2.791-.215s1.932,1.5,3.006,1.5a3.584,3.584,0,0,0,1.932-.644s3.651.429,4.725-1.288,5.8-7.3,8.159-11.81A28.793,28.793,0,0,0,294.109,322.406Z" transform="translate(-16.474 -19.46)" fill="none" stroke="#263238" stroke-linecap="round" stroke-linejoin="round" stroke-width="1"/>
            <line id="Línea_193" data-name="Línea 193" y1="13.742" x2="9.233" transform="translate(253.371 308.1)" fill="none" stroke="#263238" stroke-linecap="round" stroke-linejoin="round" stroke-width="1"/>
            <line id="Línea_194" data-name="Línea 194" y1="13.313" x2="10.307" transform="translate(257.022 311.535)" fill="none" stroke="#263238" stroke-linecap="round" stroke-linejoin="round" stroke-width="1"/>
            <line id="Línea_195" data-name="Línea 195" y1="9.233" x2="8.16" transform="translate(261.96 316.474)" fill="none" stroke="#263238" stroke-linecap="round" stroke-linejoin="round" stroke-width="1"/>
            <line id="Línea_196" data-name="Línea 196" y1="5.798" x2="1.718" transform="translate(256.592 300.154)" fill="none" stroke="#263238" stroke-linecap="round" stroke-linejoin="round" stroke-width="1"/>
          </g>
        </g>
      </g>
    </g>
    <g id="Grupo_165809" data-name="Grupo 165809" transform="translate(972.315 14142.074)">
      <g id="Grupo_165808" data-name="Grupo 165808" transform="translate(0 0)" clip-path="url(#clip-path-5)">
        <path id="Trazado_178084" data-name="Trazado 178084" d="M294.341,61.551c-.531-12.794-5.473-50.622-16.678-59.339C267.17-5.955,79.085,10.976,57.677,12.932l.231,2.541C141.591,7.823,268.751-1.485,276.1,4.226c9.8,7.621,15.123,43.677,15.694,57.433.593,14.2-6.108,33.818-15.315,36.888-9.311,3.1-213.126,19.588-226.2,19.588-10.791,0-18.272-9.975-20.2-14.806C28.552,99.31,42.05,53.5,50.915,25.573L48.482,24.8C44.6,37.036,25.342,98.373,27.7,104.277c2.726,6.816,11.532,16.412,22.574,16.412,10.873,0,216.124-16.092,227.007-19.721,11.426-3.808,17.637-25.524,17.057-39.417" transform="translate(40.152 0)" fill="#263238"/>
        <path id="Trazado_178085" data-name="Trazado 178085" d="M60.381,16.637c.347-4.16-.967-7.254-3.2-7.522-1.387-.172-3.909.7-5.119,8.373l-.354,2.2c-.455,2.817-.873,5.53-1.21,8.078a76.831,76.831,0,0,1-6.081,5.7l1.626,1.968c.192-.157,1.855-1.54,3.985-3.589-.642,6.765-.32,11.8,2.241,13.4a3.4,3.4,0,0,0,1.825.514,7.249,7.249,0,0,0,4.01-1.592A44.147,44.147,0,0,0,69.8,31.729c.027,4.11.453,9.21,2.241,11.133a2.828,2.828,0,0,0,2.1.959c4.632,0,7.185-5.227,7.478-5.857,3.011-4.846,6.853-10.191,8.683-11.827a93,93,0,0,1-.091,11.692,1.276,1.276,0,0,0,2.47.534c3.186-8.612,7.057-16.292,8.705-17.337a5.294,5.294,0,0,1,.4,1.486,77.483,77.483,0,0,1,.7,8.8c.214,5.267.369,9.074,2.728,10a2.69,2.69,0,0,0,.994.187c1.39,0,3.031-1.031,5.252-3.252l-1.8-1.806c-2.708,2.708-3.51,2.489-3.513,2.492-.807-.315-1-4.952-1.109-7.724a79.014,79.014,0,0,0-.731-9.094c-.138-.871-.558-3.527-2.561-3.724-2.58-.293-5.874,5.535-8.728,12.191a47.053,47.053,0,0,0-.268-5.535,1.966,1.966,0,0,0-1.481-1.884c-.679-.15-2.6-.531-9.3,9.532l.381-9.17L79.8,23.414l-.566,13.608c-.443.866-2.352,4.246-5.1,4.246-.025,0-.091,0-.226-.145-1.56-1.675-1.751-9.589-1.39-14.673a1.278,1.278,0,0,0-2.455-.578A41.967,41.967,0,0,1,56.637,42.08c-1.373.972-2.47,1.333-3.011,1-1.862-1.161-1.486-7.8-.7-14.161,3.52-3.764,7.134-8.489,7.451-12.277M54.233,20.1l.354-2.209c.772-4.9,2.032-6.169,2.273-6.241.379.145,1.225,1.781.977,4.78-.187,2.226-1.985,5.1-4.27,7.9.236-1.567.47-3.013.667-4.226" transform="translate(64.849 13.28)" fill="#263238"/>
        <path id="Trazado_178086" data-name="Trazado 178086" d="M73.717,9.325l-.578,12.718a1.274,1.274,0,0,0,1.011,1.306,1.259,1.259,0,0,0,1.451-.78c2.546-6.44,5.638-12.27,7.067-13.392a6.4,6.4,0,0,1,.3,1.5c1.134,10.2,1.149,15.987,1.149,16.046h2.553c0-.241-.015-5.97-1.163-16.329-.111-1-.406-3.653-2.374-3.914-1.941-.246-4.283,2.662-7.129,8.664l.261-5.7Z" transform="translate(106.771 9.444)" fill="#263238"/>
        <path id="Trazado_178087" data-name="Trazado 178087" d="M44.233,45.079a1.277,1.277,0,0,0,2.507.342,99.887,99.887,0,0,1,4.629-13.534c.064.379.13.772.194,1.176.893,5.424,2,12.169,5.672,13.647a3.988,3.988,0,0,0,1.5.29,6.339,6.339,0,0,0,3.727-1.478l-1.53-2.042c-1.134.849-2.054,1.136-2.743.861-2.339-.94-3.444-7.67-4.106-11.692-.13-.8-.256-1.564-.381-2.251-.263-1.451-.888-2.211-1.86-2.253-.77-.034-2.162-.093-5.055,8.364v-9.35H44.233Z" transform="translate(64.574 39.649)" fill="#263238"/>
        <path id="Trazado_178088" data-name="Trazado 178088" d="M67.615,41.373l16.764-4.625a1.276,1.276,0,0,0,.15-2.408L70.655,28.56l-.981,2.357,7.338,3.055-24.05-2.612L52.686,33.9l23.265,2.526-9.015,2.489ZM79.472,35l.659.276-.711.194Z" transform="translate(76.915 41.694)" fill="#263238"/>
        <path id="Trazado_178089" data-name="Trazado 178089" d="M75.713,36.5c.256-.386.514-.8.775-1.242.448-.767.721-1.309.721-1.309L74.926,32.8c-.007.02-.248.494-.64,1.161-.278.472-.546.9-.8,1.277-1.045-.625-1.911-1.188-2.6-1.633-1.894-1.23-2.844-1.85-3.82-1.095-1.036.8-.6,2.115.278,4.735.669,2.007,1.7,3.1,3.072,3.242q1.779.181,3.722-1.938a53.621,53.621,0,0,0,4.9,2.359,12.6,12.6,0,0,0,4.875,1.1,7.126,7.126,0,0,0,4.748-1.643,7.452,7.452,0,0,0,2.268-7.33,4.85,4.85,0,0,0-3.6-3.8l-.556,2.494a2.432,2.432,0,0,1,1.685,1.926A4.943,4.943,0,0,1,87,38.432c-1.567,1.343-3.978,1.385-6.974.125-1.623-.684-3.06-1.387-4.317-2.059M70.68,37.95c-.121-.012-.517-.307-.918-1.51-.054-.162-.133-.4-.219-.662.63.408,1.4.908,2.31,1.459-.553.526-.957.753-1.173.713" transform="translate(97.026 42.682)" fill="#263238"/>
        <path id="Trazado_178090" data-name="Trazado 178090" d="M148.158,7.066c-4.829-.3-47.306-2.844-52.1-.445C91.623,8.837,86.423,41.5,84.31,56.074L76.335,42.94l-2.182,1.323L83.98,60.45a1.272,1.272,0,0,0,1.09.612,1.313,1.313,0,0,0,.258-.025,1.279,1.279,0,0,0,1.006-1.073C89.645,36.242,94.624,10.652,97.2,8.9c3.075-1.535,31.464-.45,49.529.632l-.5,8.555,2.546.15.578-9.827a1.277,1.277,0,0,0-1.2-1.348" transform="translate(108.254 8.176)" fill="#263238"/>
        <path id="Trazado_178091" data-name="Trazado 178091" d="M110,43.3c.785-4.317,4.61-26.04,2.777-29.7a3.6,3.6,0,0,0-3.193-2.086c-3.063-.175-7.207,3.08-10.026,7.781C96.7,24.066,90.073,37.15,87.674,41.917l-1.643-1.973L84.068,41.58l2.89,3.466a1.279,1.279,0,0,0,.981.46.992.992,0,0,0,.148-.01,1.27,1.27,0,0,0,.994-.7c.093-.184,9.266-18.52,12.671-24.193,2.477-4.13,5.928-6.6,7.741-6.543a1.073,1.073,0,0,1,1.006.676c.637,1.274.1,7.736-.981,15.5-2.45-.608-8.063-1.778-9.923-.335a2,2,0,0,0-.792,1.6h2.553a.564.564,0,0,1-.2.421c.711-.438,4.383-.052,7.864.817l.342-1.363c-.531,3.7-1.173,7.658-1.867,11.461Z" transform="translate(122.728 16.798)" fill="#263238"/>
        <rect id="Rectángulo_49834" data-name="Rectángulo 49834" width="12.718" height="2.553" transform="translate(251.709 37.208)" fill="#263238"/>
        <rect id="Rectángulo_49835" data-name="Rectángulo 49835" width="13.296" height="2.553" transform="translate(251.131 45.299)" fill="#263238"/>
        <path id="Trazado_178092" data-name="Trazado 178092" d="M111.257,37.529H124.55V34.976h-6.765a25.664,25.664,0,0,0,2.221-5.928c1.2-4.794.079-14.5.029-14.912a1.274,1.274,0,0,0-2.393-.445l-5.2,9.827,2.256,1.193,3.173-5.992c.192,3.134.28,7.254-.335,9.712a20.087,20.087,0,0,1-2.679,6.484l.086.061h-3.685Z" transform="translate(162.421 18.994)" fill="#263238"/>
        <path id="Trazado_178093" data-name="Trazado 178093" d="M16.988,36.6a60.973,60.973,0,0,1-6.253,11.584A46.509,46.509,0,0,1,10.2,38.3l-2.551-.13c-.084,1.673-.288,7.923,1.058,12.486a6.253,6.253,0,0,1-2.922,1.933L0,53.749l.5,2.5,5.783-1.156a7.733,7.733,0,0,0,3.444-1.916,5.067,5.067,0,0,0,2.108,2.165,3.7,3.7,0,0,0,1.638.379,6.946,6.946,0,0,0,4.381-2.074l-1.68-1.921c-.969.844-2.307,1.759-3.225,1.318a3.359,3.359,0,0,1-1.368-1.806c4.069-4.821,7.291-12.5,7.771-13.679Z" transform="translate(0 53.43)" fill="#263238"/>
        <path id="Trazado_178094" data-name="Trazado 178094" d="M34.747,36.125c-4.327-.384-9.478,2.844-10.627,8.971a47.342,47.342,0,0,0-.6,5.269c-.207,2.994-.3,6.437-.4,10.085-.258,9.313-.551,19.871-2.863,23.5-.765,1.205-1.481,1.7-2.106,1.459-1.673-.63-3.259-4.654-3.107-5.626l-1.225-.352-1.21-.4c-.642,1.924,1.466,7.274,4.332,8.637a3.692,3.692,0,0,0,1.572.369c1.134,0,2.541-.583,3.9-2.713,2.689-4.226,2.979-14.688,3.259-24.805.1-3.618.2-7.038.4-9.977a45.188,45.188,0,0,1,.563-4.976c.871-4.634,4.777-7.19,7.884-6.9,2.2.2,3.461,1.788,3.461,4.349,0,7.832-1.363,12.13-2.713,12.912-.133.079-.453.261-1.159-.145a1.3,1.3,0,0,0-1.592.266c-.133.145-.583.514-.871.435-.128-.037-1.264-.48-2.12-5.03l-2.507.47c.792,4.226,2.091,6.524,3.97,7.028a3.28,3.28,0,0,0,2.7-.563,3.342,3.342,0,0,0,2.856-.251c3.466-2.012,3.985-10.336,3.985-15.121,0-4.686-2.984-6.632-5.778-6.893" transform="translate(18.231 52.694)" fill="#263238"/>
        <path id="Trazado_178095" data-name="Trazado 178095" d="M15.1,42.594a2.312,2.312,0,1,0-2.312-2.312A2.313,2.313,0,0,0,15.1,42.594" transform="translate(18.675 55.43)" fill="#263238"/>
        <path id="Trazado_178096" data-name="Trazado 178096" d="M16.712,44.276A2.312,2.312,0,1,0,14.4,46.589a2.313,2.313,0,0,0,2.312-2.312" transform="translate(17.645 61.262)" fill="#263238"/>
      </g>
    </g>
    <rect id="Rectángulo_49837" data-name="Rectángulo 49837" width="472.987" height="444.353" transform="translate(915 14121.826)" fill="none"/>
  </g>
</svg>
