<svg xmlns="http://www.w3.org/2000/svg" width="209" height="65" viewBox="0 0 209 65">
  <g id="Grupo_161012" data-name="Grupo 161012" transform="translate(99 -1208)">
    <rect id="Rectángulo_339324" data-name="Rectángulo 339324" width="209" height="65" rx="12" transform="translate(-99 1208)" fill="#fff"/>
    <path id="Trazado_704795" data-name="Trazado 704795" d="M6.289,10.23,9.7,4.781H11.9L7.412,11.832,12.012,19H9.785l-3.5-5.547L2.773,19H.557l4.609-7.168L.664,4.781h2.2ZM16.692,26h-1.06V18.976l-2.125.78V18.8l3.019-1.134h.165Zm8.941-14.627H29.6v1.709H25.633v4.492H23.816V13.082H19.852V11.373h3.965V7.223h1.816ZM36.717,10.23l3.408-5.449h2.207L37.84,11.832,42.439,19H40.213l-3.5-5.547L33.2,19H30.984l4.609-7.168-4.5-7.051h2.2ZM49.09,26H43.656v-.758l2.871-3.19a6.821,6.821,0,0,0,.88-1.176,1.963,1.963,0,0,0,.242-.937,1.488,1.488,0,0,0-.393-1.065,1.374,1.374,0,0,0-1.048-.416,1.628,1.628,0,0,0-1.222.447,1.708,1.708,0,0,0-.436,1.245H43.5a2.446,2.446,0,0,1,.738-1.851,2.735,2.735,0,0,1,1.974-.706,2.628,2.628,0,0,1,1.829.607,2.069,2.069,0,0,1,.672,1.615,4.744,4.744,0,0,1-1.561,2.917l-2.222,2.41H49.09Zm6.97-14.627h3.965v1.709H56.06v4.492H54.244V13.082H50.279V11.373h3.965V7.223H56.06Zm6.2,6.68a1.131,1.131,0,0,1,.278-.781,1.061,1.061,0,0,1,.835-.312,1.092,1.092,0,0,1,.845.313,1.109,1.109,0,0,1,.288.781,1.048,1.048,0,0,1-.288.752,1.112,1.112,0,0,1-.845.3,1,1,0,0,1-1.113-1.055Zm5.264,0a1.131,1.131,0,0,1,.278-.781,1.061,1.061,0,0,1,.835-.312,1.092,1.092,0,0,1,.845.313,1.109,1.109,0,0,1,.288.781,1.048,1.048,0,0,1-.288.752,1.112,1.112,0,0,1-.845.3,1,1,0,0,1-1.113-1.055Zm5.264,0a1.131,1.131,0,0,1,.278-.781,1.061,1.061,0,0,1,.835-.312,1.092,1.092,0,0,1,.845.313,1.109,1.109,0,0,1,.288.781,1.048,1.048,0,0,1-.288.752,1.112,1.112,0,0,1-.845.3,1,1,0,0,1-1.113-1.055Zm10.4-6.68h3.965v1.709H83.189v4.492H81.373V13.082H77.408V11.373h3.965V7.223h1.816ZM94.273,10.23l3.408-5.449h2.207L95.4,11.832,100,19H97.769l-3.5-5.547L90.758,19H88.541l4.609-7.168-4.5-7.051h2.2Zm8.044,9.606.034.775a2.246,2.246,0,0,1,1.846-.889q1.954,0,1.971,2.2V26h-1.054V21.921a1.419,1.419,0,0,0-.3-.985,1.221,1.221,0,0,0-.931-.319,1.521,1.521,0,0,0-.9.273,1.857,1.857,0,0,0-.6.718V26h-1.054V19.837Z" transform="translate(-53.5 1213)" fill="#12263f"/>
    <path id="Trazado_614407" data-name="Trazado 614407" d="M-8390-10352h151" transform="translate(8320 11598)" fill="none" stroke="#707070" stroke-width="1"/>
    <path id="Trazado_704796" data-name="Trazado 704796" d="M8.027-10.566l.059,1.328a3.85,3.85,0,0,1,3.164-1.523q3.35,0,3.379,3.779V0H12.822V-6.992A2.432,2.432,0,0,0,12.3-8.682a2.094,2.094,0,0,0-1.6-.547A2.607,2.607,0,0,0,9.16-8.76a3.183,3.183,0,0,0-1.035,1.23V0H6.318V-10.566Z" transform="translate(-2.5 1267)" fill="#12263f"/>
  </g>
</svg>
