<svg xmlns="http://www.w3.org/2000/svg" width="313" height="99" viewBox="0 0 313 99">
  <g id="Grupo_974113" data-name="Grupo 974113" transform="translate(8896.027 2805.802)">
    <rect id="Rectángulo_50151" data-name="Rectángulo 50151" width="313" height="99" rx="10" transform="translate(-8896.027 -2805.802)" fill="#0b428a"/>
    <path id="Trazado_197267" data-name="Trazado 197267" d="M-9212.887-7612.9l8.015-4.87,5.715,15.877,13.795-69.53h173.119" transform="translate(419.705 4880.238)" fill="none" stroke="#fff" stroke-width="4"/>
    <path id="Trazado_705137" data-name="Trazado 705137" d="M25.035-20.668H3.859v-4.088H25.035Zm0,10.537H3.859v-4.062H25.035Z" transform="translate(-8830.226 -2743.889)" fill="#fff"/>
    <path id="Trazado_705138" data-name="Trazado 705138" d="M15.031-8.02a10.482,10.482,0,0,0,8.354-3.58q3.1-3.58,3.377-10.029l.025-1.676q0-6.094-2.844-9.648a9.333,9.333,0,0,0-7.693-3.555A10.134,10.134,0,0,0,8.4-33.359v-13.2H3.682v25.289a16.063,16.063,0,0,0,1.435,7.008A10.785,10.785,0,0,0,9.153-9.645,10.868,10.868,0,0,0,15.031-8.02ZM8.4-28.941a6.926,6.926,0,0,1,6.449-3.732A6.342,6.342,0,0,1,20.186-30.2q1.9,2.476,1.9,7.427,0,5.205-1.841,8.049a5.867,5.867,0,0,1-5.218,2.844,5.545,5.545,0,0,1-4.8-2.742A12.44,12.44,0,0,1,8.4-21.654Z" transform="translate(-8888.5 -2772.781) rotate(97)" fill="#fff"/>
    <path id="Trazado_705139" data-name="Trazado 705139" d="M7.475,0H5.568V-12.643l-3.825,1.4v-1.723L7.178-15h.3Z" transform="translate(-8752.926 -2765.824)" fill="#fff"/>
    <path id="Trazado_705140" data-name="Trazado 705140" d="M13.836,0H11.763L3.889-12.053V0H1.815V-15.641H3.889l7.9,12.106V-15.641h2.052Z" transform="translate(-8754.047 -2726.88)" fill="#fff"/>
    <path id="Trazado_197268" data-name="Trazado 197268" d="M-9613.244-9288.434h20.585" transform="translate(856.635 6535.958)" fill="#fff" stroke="#fff" stroke-width="3"/>
    <path id="Trazado_705141" data-name="Trazado 705141" d="M17.944-11.833,6.029,2.4H24.507V5.517H1.415V2.584L13.9-12.1,1.415-26.906v-2.953H22.928v3.117H6.009l11.936,14.4Z" transform="translate(-8727.965 -2743.579)" fill="#fff"/>
    <path id="Trazado_705142" data-name="Trazado 705142" d="M2.664,0H1.219V-8.453H2.664ZM1.1-10.7a.863.863,0,0,1,.215-.594.807.807,0,0,1,.637-.242.819.819,0,0,1,.641.242.854.854,0,0,1,.219.594.826.826,0,0,1-.219.586.834.834,0,0,1-.641.234.821.821,0,0,1-.637-.234A.834.834,0,0,1,1.1-10.7ZM11.586-6.359H5.07V-7.617h6.516Zm0,3.242H5.07v-1.25h6.516ZM18.359,0H16.906V-9.633l-2.914,1.07V-9.875l4.141-1.555h.227Z" transform="translate(-8729.294 -2718.223)" fill="#fff"/>
    <path id="Trazado_705143" data-name="Trazado 705143" d="M8.8,0H7.485L2.475-7.67V0H1.155V-9.953H2.475L7.5-2.249v-7.7H8.8Z" transform="translate(-8719.166 -2778.194)" fill="#fff"/>
    <path id="Trazado_705144" data-name="Trazado 705144" d="M7.349,0H.827V-.909L4.272-4.737A8.185,8.185,0,0,0,5.329-6.149a2.356,2.356,0,0,0,.291-1.125,1.786,1.786,0,0,0-.472-1.278,1.649,1.649,0,0,0-1.258-.5,1.953,1.953,0,0,0-1.466.537A2.05,2.05,0,0,0,1.9-7.021H.636a2.936,2.936,0,0,1,.885-2.222A3.282,3.282,0,0,1,3.89-10.09a3.153,3.153,0,0,1,2.194.728,2.483,2.483,0,0,1,.807,1.938q0,1.47-1.873,3.5L2.352-1.032h5Z" transform="translate(-8613.157 -2777.072)" fill="#fff"/>
    <g id="Grupo_166738" data-name="Grupo 166738" transform="translate(-8676.381 -2784.892)">
      <text id="x" transform="translate(1 40.383)" fill="#fff" font-size="18" font-family="Roboto-Regular, Roboto"><tspan x="0" y="0">x</tspan></text>
      <text id="_" transform="translate(2.294 22)" fill="#fff" font-size="21" font-family="Roboto-Regular, Roboto"><tspan x="0" y="0">_</tspan></text>
    </g>
    <path id="Trazado_705145" data-name="Trazado 705145" d="M2,0H.914V-6.34H2ZM.826-8.021a.647.647,0,0,1,.161-.445.6.6,0,0,1,.478-.182.614.614,0,0,1,.48.182.64.64,0,0,1,.164.445.619.619,0,0,1-.164.439.626.626,0,0,1-.48.176.616.616,0,0,1-.478-.176A.626.626,0,0,1,.826-8.021Z" transform="translate(-8662.141 -2730.421)" fill="#fff"/>
    <path id="Trazado_705146" data-name="Trazado 705146" d="M3.377-15.006a39.256,39.256,0,0,1,1.536-11.02,32.011,32.011,0,0,1,4.583-9.6,19.5,19.5,0,0,1,6.322-6.094l.965,3.1A20.222,20.222,0,0,0,10.7-29.936,37.645,37.645,0,0,0,8.1-16.859L8.074-14.7a37.841,37.841,0,0,0,3.58,17.012,20.318,20.318,0,0,0,5.129,6.754l-.965,2.869a20.123,20.123,0,0,1-6.449-6.3Q3.377-3,3.377-15.006Z" transform="translate(-8699.286 -2737.383)" fill="#fff"/>
    <path id="Trazado_705147" data-name="Trazado 705147" d="M13.843-14.185A37.764,37.764,0,0,1,12.415-3.748a30.862,30.862,0,0,1-4.37,9.216A19.147,19.147,0,0,1,1.88,11.475L.928,8.716Q4.687,5.835,6.97-.232A38.71,38.71,0,0,0,9.3-13.7v-.781a40.191,40.191,0,0,0-1.074-9.534,32.176,32.176,0,0,0-2.991-7.9A18.242,18.242,0,0,0,.928-37.354l.952-2.759a19.072,19.072,0,0,1,6.14,5.957,30.928,30.928,0,0,1,4.37,9.2A38.636,38.636,0,0,1,13.843-14.185Z" transform="translate(-8627.455 -2739.383)" fill="#fff"/>
    <path id="Trazado_705148" data-name="Trazado 705148" d="M4.421-6.038,6.53-9.51h1.9l-3.111,4.7L8.525,0H6.645l-2.2-3.56L2.25,0H.36L3.568-4.808.457-9.51H2.338Z" transform="translate(-8675.381 -2744.509)" fill="#fff"/>
    <path id="Trazado_705149" data-name="Trazado 705149" d="M5.127-5.3H.361V-6.777H5.127Z" transform="translate(-8658.697 -2742.509)" fill="#fff"/>
    <path id="Trazado_705150" data-name="Trazado 705150" d="M4.736-13.208v7.764A4.661,4.661,0,0,0,5.3-2.93a2.065,2.065,0,0,0,1.837.793A2.784,2.784,0,0,0,9.912-3.613v-9.595h2.966V0H10.156l-.085-1.05A3.667,3.667,0,0,1,7.153.256,4.061,4.061,0,0,1,4.736-.415V5.078H1.782V-13.208Z" transform="translate(-8644.093 -2743.89)" fill="#fff"/>
  </g>
</svg>
