<svg xmlns="http://www.w3.org/2000/svg" width="503.266" height="190.24" viewBox="0 0 503.266 190.24">
  <g id="Grupo_166676" data-name="Grupo 166676" transform="translate(9406.951 9579.06)">
    <path id="Trazado_197222" data-name="Trazado 197222" d="M-9400.894-9574.214v148.861" transform="translate(1.022 0.817)" fill="none" stroke="#12263f" stroke-width="2"/>
    <path id="Trazado_197230" data-name="Trazado 197230" d="M-9400.894-9574.214v148.861" transform="translate(259.237 0.817)" fill="none" stroke="#12263f" stroke-width="2"/>
    <path id="Trazado_197223" data-name="Trazado 197223" d="M-9406.95-9453.1h235.815" transform="translate(0 21.245)" fill="none" stroke="#12263f" stroke-width="2"/>
    <path id="Trazado_197229" data-name="Trazado 197229" d="M-9406.95-9453.1h235.815" transform="translate(258.216 21.245)" fill="none" stroke="#12263f" stroke-width="2"/>
    <path id="Trazado_704992" data-name="Trazado 704992" d="M7.078,0l7.078,11.325H0Z" transform="translate(-9406.95 -9579.06)" fill="#12263f"/>
    <path id="Trazado_704993" data-name="Trazado 704993" d="M7.078,0l7.078,11.325H0Z" transform="translate(-9148.734 -9579.06)" fill="#12263f"/>
    <path id="Trazado_704994" data-name="Trazado 704994" d="M7.078,0l7.078,11.325H0Z" transform="translate(-9161.9 -9438.931) rotate(90)" fill="#12263f"/>
    <path id="Trazado_704995" data-name="Trazado 704995" d="M7.078,0l7.078,11.325H0Z" transform="translate(-8903.685 -9438.931) rotate(90)" fill="#12263f"/>
    <path id="Trazado_197224" data-name="Trazado 197224" d="M-9394.837-9438.5s40.957,7.826,86.186-45.493,46.7-67.146,63.819-75.017,23.883,14.85,23.883,14.85,19.925,105.17,33.7,105.66" transform="translate(2.043 3.103)" fill="none" stroke="#ff8578" stroke-width="2"/>
    <path id="Trazado_197225" data-name="Trazado 197225" d="M-9297.8-9522.031v78.975" transform="translate(18.409 9.618)" fill="none" stroke="#fed981" stroke-width="1" stroke-dasharray="2"/>
    <path id="Trazado_197226" data-name="Trazado 197226" d="M-9297.8-9522.031v109.248" transform="translate(41.782 -20.655)" fill="none" stroke="#43a99b" stroke-width="1" stroke-dasharray="2"/>
    <path id="Trazado_197227" data-name="Trazado 197227" d="M-9297.8-9522.031v121.824" transform="translate(65.155 -33.232)" fill="none" stroke="#8490e8" stroke-width="1" stroke-dasharray="2"/>
    <path id="Trazado_197228" data-name="Trazado 197228" d="M-9296.307-9438.869l34.017-117.229" transform="translate(18.661 3.873)" fill="none" stroke="#e2f4f6" stroke-width="1" stroke-dasharray="4"/>
    <path id="Trazado_704996" data-name="Trazado 704996" d="M4.094-5.945,5.867-8.453H8.344L5.281-4.2,6.992,0H4.758L3.719-2.641,1.852,0H-.641L2.547-4.422.914-8.453H3.148Z" transform="translate(-9284.299 -9417.907)" fill="#12263f"/>
    <path id="Trazado_704997" data-name="Trazado 704997" d="M4.094-5.945,5.867-8.453H8.344L5.281-4.2,6.992,0H4.758L3.719-2.641,1.852,0H-.641L2.547-4.422.914-8.453H3.148Z" transform="translate(-9042.387 -9417.907)" fill="#12263f"/>
    <path id="Trazado_704998" data-name="Trazado 704998" d="M3.809-8.531l1.049,6.17,3.182-6.17h2.285L8.842,0H7.119l.422-2.432.832-3.8L5.1,0H3.926L2.783-6.445l-.551,4.2L1.84,0H.123L1.605-8.531ZM13.283.117A2.758,2.758,0,0,1,11.81-.29a2.469,2.469,0,0,1-.958-1.1,3.07,3.07,0,0,1-.246-1.544l.018-.234a4.1,4.1,0,0,1,.539-1.7,3.256,3.256,0,0,1,1.16-1.192,2.87,2.87,0,0,1,1.57-.4,2.193,2.193,0,0,1,1.854.9,3.088,3.088,0,0,1,.478,2.221l-.094.722H12.246a1.36,1.36,0,0,0,.3.984,1.141,1.141,0,0,0,.879.381,2.027,2.027,0,0,0,1.582-.7l.756.938a2.351,2.351,0,0,1-1.031.841A3.372,3.372,0,0,1,13.283.117Zm.527-5.209A1.174,1.174,0,0,0,13-4.8a2.522,2.522,0,0,0-.636,1.037h2.273l.035-.152a1.553,1.553,0,0,0,.006-.445.851.851,0,0,0-.287-.53A.9.9,0,0,0,13.811-5.092Z" transform="translate(-9264.432 -9419.57)" fill="#12263f"/>
    <path id="Trazado_704999" data-name="Trazado 704999" d="M3.809-8.531l1.049,6.17,3.182-6.17h2.285L8.842,0H7.119l.422-2.432.832-3.8L5.1,0H3.926L2.783-6.445l-.551,4.2L1.84,0H.123L1.605-8.531ZM13.283.117A2.758,2.758,0,0,1,11.81-.29a2.469,2.469,0,0,1-.958-1.1,3.07,3.07,0,0,1-.246-1.544l.018-.234a4.1,4.1,0,0,1,.539-1.7,3.256,3.256,0,0,1,1.16-1.192,2.87,2.87,0,0,1,1.57-.4,2.193,2.193,0,0,1,1.854.9,3.088,3.088,0,0,1,.478,2.221l-.094.722H12.246a1.36,1.36,0,0,0,.3.984,1.141,1.141,0,0,0,.879.381,2.027,2.027,0,0,0,1.582-.7l.756.938a2.351,2.351,0,0,1-1.031.841A3.372,3.372,0,0,1,13.283.117Zm.527-5.209A1.174,1.174,0,0,0,13-4.8a2.522,2.522,0,0,0-.636,1.037h2.273l.035-.152a1.553,1.553,0,0,0,.006-.445.851.851,0,0,0-.287-.53A.9.9,0,0,0,13.811-5.092Z" transform="translate(-9070.435 -9419.57)" fill="#12263f"/>
    <path id="Trazado_705000" data-name="Trazado 705000" d="M3.809-8.531l1.049,6.17,3.182-6.17h2.285L8.842,0H7.119l.422-2.432.832-3.8L5.1,0H3.926L2.783-6.445l-.551,4.2L1.84,0H.123L1.605-8.531ZM13.9-6.457a2.543,2.543,0,0,1,1.444.431,2.425,2.425,0,0,1,.891,1.154,3.571,3.571,0,0,1,.2,1.632A3.858,3.858,0,0,1,15.384-.794a2.97,2.97,0,0,1-2.265.911,2.535,2.535,0,0,1-1.43-.425A2.416,2.416,0,0,1,10.8-1.453a3.492,3.492,0,0,1-.205-1.617,3.971,3.971,0,0,1,1.066-2.5A2.908,2.908,0,0,1,13.9-6.457Zm-1.67,3.986a1.463,1.463,0,0,0,.264.886.876.876,0,0,0,.709.336,1.284,1.284,0,0,0,1.2-.7,3.485,3.485,0,0,0,.4-1.9,1.591,1.591,0,0,0-.272-.9.862.862,0,0,0-.712-.348,1.286,1.286,0,0,0-1.181.693A3.449,3.449,0,0,0,12.229-2.471Z" transform="translate(-9243.396 -9419.57)" fill="#12263f"/>
    <path id="Trazado_705001" data-name="Trazado 705001" d="M3.809-8.531l1.049,6.17,3.182-6.17h2.285L8.842,0H7.119l.422-2.432.832-3.8L5.1,0H3.926L2.783-6.445l-.551,4.2L1.84,0H.123L1.605-8.531ZM13.9-6.457a2.543,2.543,0,0,1,1.444.431,2.425,2.425,0,0,1,.891,1.154,3.571,3.571,0,0,1,.2,1.632A3.858,3.858,0,0,1,15.384-.794a2.97,2.97,0,0,1-2.265.911,2.535,2.535,0,0,1-1.43-.425A2.416,2.416,0,0,1,10.8-1.453a3.492,3.492,0,0,1-.205-1.617,3.971,3.971,0,0,1,1.066-2.5A2.908,2.908,0,0,1,13.9-6.457Zm-1.67,3.986a1.463,1.463,0,0,0,.264.886.876.876,0,0,0,.709.336,1.284,1.284,0,0,0,1.2-.7,3.485,3.485,0,0,0,.4-1.9,1.591,1.591,0,0,0-.272-.9.862.862,0,0,0-.712-.348,1.286,1.286,0,0,0-1.181.693A3.449,3.449,0,0,0,12.229-2.471Z" transform="translate(-9092.639 -9419.57)" fill="#12263f"/>
    <path id="Trazado_705002" data-name="Trazado 705002" d="M6.823-3.229Q7-4.217,5.852-4.74l-1.6-.639Q1.461-6.624,1.6-8.807A3.149,3.149,0,0,1,2.266-10.6a3.993,3.993,0,0,1,1.7-1.224,6.025,6.025,0,0,1,2.366-.427A4.1,4.1,0,0,1,9.164-11.21a3.472,3.472,0,0,1,1.063,2.7H7.8a1.729,1.729,0,0,0-.361-1.278,1.627,1.627,0,0,0-1.249-.473,2.518,2.518,0,0,0-1.444.378A1.549,1.549,0,0,0,4.018-8.8q-.158.9,1.212,1.436l1.1.415.631.291Q9.4-5.445,9.247-3.254a3.284,3.284,0,0,1-.685,1.847A3.86,3.86,0,0,1,6.9-.216,5.913,5.913,0,0,1,4.59.174,5.178,5.178,0,0,1,2.3-.365,3.558,3.558,0,0,1,.772-1.818,3.762,3.762,0,0,1,.315-3.81L2.748-3.8q-.116,1.967,1.934,2a2.541,2.541,0,0,0,1.461-.39A1.519,1.519,0,0,0,6.823-3.229ZM12.717,0H10.359L11.92-8.981h2.357Zm-.523-11.264a1.169,1.169,0,0,1,.365-.921,1.285,1.285,0,0,1,.921-.365,1.291,1.291,0,0,1,.921.324,1.164,1.164,0,0,1,.407.88,1.2,1.2,0,0,1-.344.9,1.291,1.291,0,0,1-.942.4,1.313,1.313,0,0,1-.917-.315A1.159,1.159,0,0,1,12.194-11.264ZM18.436-8.99l-.191,1.021a3.307,3.307,0,0,1,2.631-1.179,2.527,2.527,0,0,1,1.378.382,1.784,1.784,0,0,1,.739.988,3.458,3.458,0,0,1,2.789-1.37,2.259,2.259,0,0,1,1.864.847,3.476,3.476,0,0,1,.527,2.374l-.017.208L27.2,0H24.853l.955-5.742a4.152,4.152,0,0,0,.025-.573.889.889,0,0,0-1-.9,1.976,1.976,0,0,0-1.652,1.03l-.025.191L22.113,0H19.772l.955-5.719a4.143,4.143,0,0,0,.025-.573.888.888,0,0,0-.988-.9,1.984,1.984,0,0,0-1.6.838L17.042,0H14.7l1.552-8.981ZM33.328.166A3.907,3.907,0,0,1,31.24-.411a3.5,3.5,0,0,1-1.357-1.561,4.349,4.349,0,0,1-.349-2.187l.025-.332A5.806,5.806,0,0,1,30.323-6.9a4.613,4.613,0,0,1,1.644-1.689,4.066,4.066,0,0,1,2.225-.56,3.107,3.107,0,0,1,2.627,1.276,4.374,4.374,0,0,1,.677,3.147L37.362-3.7h-5.5a1.927,1.927,0,0,0,.423,1.395,1.616,1.616,0,0,0,1.245.54,2.872,2.872,0,0,0,2.241-1l1.071,1.328A3.331,3.331,0,0,1,35.378-.245,4.778,4.778,0,0,1,33.328.166Zm.747-7.379a1.663,1.663,0,0,0-1.15.407,3.573,3.573,0,0,0-.9,1.469h3.221l.05-.216a2.2,2.2,0,0,0,.008-.631,1.2,1.2,0,0,0-.407-.751A1.275,1.275,0,0,0,34.075-7.213Zm8.732-3.976-.39,2.208h1.494L43.6-7.222H42.11l-.764,4.5a1.144,1.144,0,0,0,.066.647q.116.224.564.241.133.008.714-.042L42.525-.042A3.937,3.937,0,0,1,41.18.149a2.11,2.11,0,0,1-1.718-.722A2.609,2.609,0,0,1,39-2.482l.772-4.74H38.5l.307-1.76h1.27l.382-2.208Zm7.056,4.458a4.833,4.833,0,0,0-.789-.083,2.269,2.269,0,0,0-1.984.938L46.053,0H43.712l1.561-8.981,2.2-.008-.216,1.1a2.47,2.47,0,0,1,2.092-1.27,3.414,3.414,0,0,1,.813.116ZM52.336,0H50l1.561-8.981H53.9Zm1.386-12.625h2.714L53.8-10.052H51.73ZM59.608,0a2.423,2.423,0,0,1-.091-.813,3.042,3.042,0,0,1-2.291.979A2.756,2.756,0,0,1,55.271-.6a2.323,2.323,0,0,1-.726-1.855,2.685,2.685,0,0,1,1.233-2.254,5.6,5.6,0,0,1,3.15-.784l1.1.017.116-.54a1.874,1.874,0,0,0,.025-.523.9.9,0,0,0-.295-.61,1.015,1.015,0,0,0-.668-.228,1.43,1.43,0,0,0-.93.27,1.308,1.308,0,0,0-.49.826l-2.349.008a2.611,2.611,0,0,1,1.183-2.088,4.581,4.581,0,0,1,2.777-.784,3.312,3.312,0,0,1,2.391.909A2.659,2.659,0,0,1,62.5-5.985l-.689,4.3-.042.531a2.563,2.563,0,0,0,.141,1L61.907,0Zm-1.8-1.652a2.144,2.144,0,0,0,1.768-.88l.291-1.552-.813-.008a2.273,2.273,0,0,0-1.868.789,1.373,1.373,0,0,0-.257.672.8.8,0,0,0,.187.71A.946.946,0,0,0,57.807-1.652ZM71.229-8.99l-.2,1.063a3.232,3.232,0,0,1,2.615-1.22,2.155,2.155,0,0,1,1.876.93,3.746,3.746,0,0,1,.44,2.507L75.014,0H72.673l.963-5.736a2.686,2.686,0,0,0,.017-.589A.951.951,0,0,0,72.59-7.2a2.015,2.015,0,0,0-1.652.855L69.818,0H67.477l1.561-8.981ZM81.115.166a3.907,3.907,0,0,1-2.088-.577A3.5,3.5,0,0,1,77.67-1.971a4.349,4.349,0,0,1-.349-2.187l.025-.332A5.806,5.806,0,0,1,78.11-6.9a4.613,4.613,0,0,1,1.644-1.689,4.066,4.066,0,0,1,2.225-.56,3.107,3.107,0,0,1,2.627,1.276,4.374,4.374,0,0,1,.677,3.147L85.149-3.7h-5.5a1.927,1.927,0,0,0,.423,1.395,1.616,1.616,0,0,0,1.245.54,2.872,2.872,0,0,0,2.241-1l1.071,1.328A3.331,3.331,0,0,1,83.166-.245,4.778,4.778,0,0,1,81.115.166Zm.747-7.379a1.663,1.663,0,0,0-1.15.407,3.573,3.573,0,0,0-.9,1.469h3.221l.05-.216a2.2,2.2,0,0,0,.008-.631,1.2,1.2,0,0,0-.407-.751A1.275,1.275,0,0,0,81.862-7.213ZM86.295-4.5a6.214,6.214,0,0,1,1.357-3.383,3.444,3.444,0,0,1,2.793-1.274,2.518,2.518,0,0,1,2.142,1.038l.307-.872,2.15.008L93.575-.307a4.232,4.232,0,0,1-1.527,2.839A4.751,4.751,0,0,1,88.86,3.544a4.429,4.429,0,0,1-1.776-.4,3.8,3.8,0,0,1-1.395-1.058L86.851.656A2.5,2.5,0,0,0,88.81,1.677,2.3,2.3,0,0,0,90.371,1.2a2.554,2.554,0,0,0,.88-1.44l.133-.54a2.921,2.921,0,0,1-2.2.946A2.58,2.58,0,0,1,87.1-.809,4.194,4.194,0,0,1,86.253-3.3,8.383,8.383,0,0,1,86.295-4.5Zm2.3.985a2.147,2.147,0,0,0,.328,1.251,1.147,1.147,0,0,0,.95.495,2.1,2.1,0,0,0,1.693-.815l.7-3.807a1.377,1.377,0,0,0-1.32-.815,1.836,1.836,0,0,0-1.519.723,3.783,3.783,0,0,0-.78,1.987A8.728,8.728,0,0,0,88.594-3.514ZM100.539,0a2.423,2.423,0,0,1-.091-.813,3.042,3.042,0,0,1-2.291.979A2.756,2.756,0,0,1,96.2-.6a2.323,2.323,0,0,1-.726-1.855,2.685,2.685,0,0,1,1.233-2.254,5.6,5.6,0,0,1,3.15-.784l1.1.017.116-.54a1.874,1.874,0,0,0,.025-.523.9.9,0,0,0-.295-.61,1.015,1.015,0,0,0-.668-.228,1.43,1.43,0,0,0-.93.27,1.308,1.308,0,0,0-.49.826l-2.349.008a2.611,2.611,0,0,1,1.183-2.088,4.581,4.581,0,0,1,2.777-.784,3.312,3.312,0,0,1,2.391.909,2.659,2.659,0,0,1,.722,2.254l-.689,4.3-.042.531a2.563,2.563,0,0,0,.141,1L102.838,0Zm-1.8-1.652a2.144,2.144,0,0,0,1.768-.88l.291-1.552-.813-.008a2.273,2.273,0,0,0-1.868.789,1.373,1.373,0,0,0-.257.672.8.8,0,0,0,.187.71A.946.946,0,0,0,98.738-1.652Zm10.276-9.538-.39,2.208h1.494l-.307,1.76h-1.494l-.764,4.5a1.144,1.144,0,0,0,.066.647q.116.224.564.241.133.008.714-.042l-.166,1.834a3.937,3.937,0,0,1-1.345.191,2.11,2.11,0,0,1-1.718-.722,2.609,2.609,0,0,1-.465-1.909l.772-4.74h-1.27l.307-1.76h1.27l.382-2.208ZM112.393,0h-2.357L111.6-8.981h2.357Zm-.523-11.264a1.169,1.169,0,0,1,.365-.921,1.285,1.285,0,0,1,.921-.365,1.291,1.291,0,0,1,.921.324,1.164,1.164,0,0,1,.407.88,1.2,1.2,0,0,1-.344.9,1.291,1.291,0,0,1-.942.4,1.313,1.313,0,0,1-.917-.315A1.159,1.159,0,0,1,111.87-11.264Zm6.284,8.3,2.557-6.018h2.523L118.892,0h-2.241l-1.536-8.981h2.374ZM127.865,0a2.423,2.423,0,0,1-.091-.813,3.042,3.042,0,0,1-2.291.979A2.756,2.756,0,0,1,123.528-.6a2.323,2.323,0,0,1-.726-1.855,2.685,2.685,0,0,1,1.233-2.254,5.6,5.6,0,0,1,3.15-.784l1.1.017.116-.54a1.874,1.874,0,0,0,.025-.523.9.9,0,0,0-.295-.61,1.015,1.015,0,0,0-.668-.228,1.43,1.43,0,0,0-.93.27,1.308,1.308,0,0,0-.49.826l-2.349.008a2.611,2.611,0,0,1,1.183-2.088,4.581,4.581,0,0,1,2.777-.784,3.312,3.312,0,0,1,2.391.909,2.659,2.659,0,0,1,.722,2.254l-.689,4.3-.042.531a2.563,2.563,0,0,0,.141,1L130.165,0Zm-1.8-1.652a2.144,2.144,0,0,0,1.768-.88l.291-1.552-.813-.008a2.273,2.273,0,0,0-1.868.789,1.373,1.373,0,0,0-.257.672.8.8,0,0,0,.187.71A.946.946,0,0,0,126.064-1.652Z" transform="translate(-9357.925 -9392.365)" fill="#12263f"/>
    <path id="Trazado_705003" data-name="Trazado 705003" d="M6.823-3.229Q7-4.217,5.852-4.74l-1.6-.639Q1.461-6.624,1.6-8.807A3.149,3.149,0,0,1,2.266-10.6a3.993,3.993,0,0,1,1.7-1.224,6.025,6.025,0,0,1,2.366-.427A4.1,4.1,0,0,1,9.164-11.21a3.472,3.472,0,0,1,1.063,2.7H7.8a1.729,1.729,0,0,0-.361-1.278,1.627,1.627,0,0,0-1.249-.473,2.518,2.518,0,0,0-1.444.378A1.549,1.549,0,0,0,4.018-8.8q-.158.9,1.212,1.436l1.1.415.631.291Q9.4-5.445,9.247-3.254a3.284,3.284,0,0,1-.685,1.847A3.86,3.86,0,0,1,6.9-.216,5.913,5.913,0,0,1,4.59.174,5.178,5.178,0,0,1,2.3-.365,3.558,3.558,0,0,1,.772-1.818,3.762,3.762,0,0,1,.315-3.81L2.748-3.8q-.116,1.967,1.934,2a2.541,2.541,0,0,0,1.461-.39A1.519,1.519,0,0,0,6.823-3.229ZM12.717,0H10.359L11.92-8.981h2.357Zm-.523-11.264a1.169,1.169,0,0,1,.365-.921,1.285,1.285,0,0,1,.921-.365,1.291,1.291,0,0,1,.921.324,1.164,1.164,0,0,1,.407.88,1.2,1.2,0,0,1-.344.9,1.291,1.291,0,0,1-.942.4,1.313,1.313,0,0,1-.917-.315A1.159,1.159,0,0,1,12.194-11.264ZM18.436-8.99l-.191,1.021a3.307,3.307,0,0,1,2.631-1.179,2.527,2.527,0,0,1,1.378.382,1.784,1.784,0,0,1,.739.988,3.458,3.458,0,0,1,2.789-1.37,2.259,2.259,0,0,1,1.864.847,3.476,3.476,0,0,1,.527,2.374l-.017.208L27.2,0H24.853l.955-5.742a4.152,4.152,0,0,0,.025-.573.889.889,0,0,0-1-.9,1.976,1.976,0,0,0-1.652,1.03l-.025.191L22.113,0H19.772l.955-5.719a4.143,4.143,0,0,0,.025-.573.888.888,0,0,0-.988-.9,1.984,1.984,0,0,0-1.6.838L17.042,0H14.7l1.552-8.981ZM33.328.166A3.907,3.907,0,0,1,31.24-.411a3.5,3.5,0,0,1-1.357-1.561,4.349,4.349,0,0,1-.349-2.187l.025-.332A5.806,5.806,0,0,1,30.323-6.9a4.613,4.613,0,0,1,1.644-1.689,4.066,4.066,0,0,1,2.225-.56,3.107,3.107,0,0,1,2.627,1.276,4.374,4.374,0,0,1,.677,3.147L37.362-3.7h-5.5a1.927,1.927,0,0,0,.423,1.395,1.616,1.616,0,0,0,1.245.54,2.872,2.872,0,0,0,2.241-1l1.071,1.328A3.331,3.331,0,0,1,35.378-.245,4.778,4.778,0,0,1,33.328.166Zm.747-7.379a1.663,1.663,0,0,0-1.15.407,3.573,3.573,0,0,0-.9,1.469h3.221l.05-.216a2.2,2.2,0,0,0,.008-.631,1.2,1.2,0,0,0-.407-.751A1.275,1.275,0,0,0,34.075-7.213Zm8.732-3.976-.39,2.208h1.494L43.6-7.222H42.11l-.764,4.5a1.144,1.144,0,0,0,.066.647q.116.224.564.241.133.008.714-.042L42.525-.042A3.937,3.937,0,0,1,41.18.149a2.11,2.11,0,0,1-1.718-.722A2.609,2.609,0,0,1,39-2.482l.772-4.74H38.5l.307-1.76h1.27l.382-2.208Zm7.056,4.458a4.833,4.833,0,0,0-.789-.083,2.269,2.269,0,0,0-1.984.938L46.053,0H43.712l1.561-8.981,2.2-.008-.216,1.1a2.47,2.47,0,0,1,2.092-1.27,3.414,3.414,0,0,1,.813.116ZM52.336,0H50l1.561-8.981H53.9Zm1.386-12.625h2.714L53.8-10.052H51.73ZM59.608,0a2.423,2.423,0,0,1-.091-.813,3.042,3.042,0,0,1-2.291.979A2.756,2.756,0,0,1,55.271-.6a2.323,2.323,0,0,1-.726-1.855,2.685,2.685,0,0,1,1.233-2.254,5.6,5.6,0,0,1,3.15-.784l1.1.017.116-.54a1.874,1.874,0,0,0,.025-.523.9.9,0,0,0-.295-.61,1.015,1.015,0,0,0-.668-.228,1.43,1.43,0,0,0-.93.27,1.308,1.308,0,0,0-.49.826l-2.349.008a2.611,2.611,0,0,1,1.183-2.088,4.581,4.581,0,0,1,2.777-.784,3.312,3.312,0,0,1,2.391.909A2.659,2.659,0,0,1,62.5-5.985l-.689,4.3-.042.531a2.563,2.563,0,0,0,.141,1L61.907,0Zm-1.8-1.652a2.144,2.144,0,0,0,1.768-.88l.291-1.552-.813-.008a2.273,2.273,0,0,0-1.868.789,1.373,1.373,0,0,0-.257.672.8.8,0,0,0,.187.71A.946.946,0,0,0,57.807-1.652ZM76.151-4.466a7.418,7.418,0,0,1-.739,2.507,4.065,4.065,0,0,1-1.4,1.627A3.249,3.249,0,0,1,72.15.174,2.593,2.593,0,0,1,70.092-.8l-.822,4.25H66.929l2.15-12.435,2.158-.008-.158.9a2.868,2.868,0,0,1,2.291-1.062,2.551,2.551,0,0,1,2.05.959,4.167,4.167,0,0,1,.78,2.511A9.7,9.7,0,0,1,76.151-4.466Zm-2.324-.17.05-.8a2.22,2.22,0,0,0-.295-1.28,1.058,1.058,0,0,0-.909-.49,1.932,1.932,0,0,0-1.685.865l-.672,3.708a1.31,1.31,0,0,0,1.32.873,1.689,1.689,0,0,0,1.411-.657A4.5,4.5,0,0,0,73.827-4.636Zm8.2-4.511a3.6,3.6,0,0,1,2.046.61A3.436,3.436,0,0,1,85.336-6.9a5.059,5.059,0,0,1,.286,2.312,5.465,5.465,0,0,1-1.49,3.466A4.207,4.207,0,0,1,80.924.166a3.591,3.591,0,0,1-2.025-.6,3.423,3.423,0,0,1-1.262-1.623,4.948,4.948,0,0,1-.291-2.291,5.626,5.626,0,0,1,1.511-3.536A4.12,4.12,0,0,1,82.028-9.147ZM79.663-3.5a2.072,2.072,0,0,0,.374,1.256,1.241,1.241,0,0,0,1,.477,1.819,1.819,0,0,0,1.693-.99,4.937,4.937,0,0,0,.573-2.69,2.254,2.254,0,0,0-.386-1.272,1.221,1.221,0,0,0-1.009-.493,1.822,1.822,0,0,0-1.673.982A4.886,4.886,0,0,0,79.663-3.5ZM91.5-2.532q.133-.664-.921-.963l-.755-.191q-2.681-.739-2.606-2.606a2.579,2.579,0,0,1,1.125-2.071,4.188,4.188,0,0,1,2.611-.784,3.757,3.757,0,0,1,2.457.805,2.653,2.653,0,0,1,.955,2.1L92.039-6.25a1.024,1.024,0,0,0-1.146-1.17,1.648,1.648,0,0,0-.95.274,1.128,1.128,0,0,0-.494.739q-.125.664,1,.938l.332.075a6.678,6.678,0,0,1,1.751.627,2.643,2.643,0,0,1,.934.876,2.167,2.167,0,0,1,.3,1.253,2.392,2.392,0,0,1-.552,1.494,3.379,3.379,0,0,1-1.444.988,5.032,5.032,0,0,1-1.93.324,3.791,3.791,0,0,1-2.49-.859,2.77,2.77,0,0,1-1.013-2.179l2.208.017a1.214,1.214,0,0,0,1.378,1.3A1.96,1.96,0,0,0,91-1.818,1.049,1.049,0,0,0,91.5-2.532ZM97.327,0H94.969L96.53-8.981h2.357ZM96.8-11.264a1.169,1.169,0,0,1,.365-.921,1.285,1.285,0,0,1,.921-.365,1.291,1.291,0,0,1,.921.324,1.164,1.164,0,0,1,.407.88,1.2,1.2,0,0,1-.344.9,1.291,1.291,0,0,1-.942.4,1.313,1.313,0,0,1-.917-.315A1.159,1.159,0,0,1,96.8-11.264Zm7.255.075-.39,2.208h1.494l-.307,1.76h-1.494l-.764,4.5a1.144,1.144,0,0,0,.066.647q.116.224.564.241.133.008.714-.042l-.166,1.834a3.937,3.937,0,0,1-1.345.191,2.11,2.11,0,0,1-1.718-.722,2.609,2.609,0,0,1-.465-1.909l.772-4.74H99.75l.307-1.76h1.27l.382-2.208ZM107.437,0H105.08l1.561-8.981H109Zm-.523-11.264a1.169,1.169,0,0,1,.365-.921,1.285,1.285,0,0,1,.921-.365,1.291,1.291,0,0,1,.921.324,1.164,1.164,0,0,1,.407.88,1.2,1.2,0,0,1-.344.9,1.291,1.291,0,0,1-.942.4,1.313,1.313,0,0,1-.917-.315A1.159,1.159,0,0,1,106.914-11.264Zm6.284,8.3,2.557-6.018h2.523L113.937,0H111.7L110.16-8.981h2.374ZM122.91,0a2.423,2.423,0,0,1-.091-.813,3.042,3.042,0,0,1-2.291.979A2.756,2.756,0,0,1,118.573-.6a2.323,2.323,0,0,1-.726-1.855,2.685,2.685,0,0,1,1.233-2.254,5.6,5.6,0,0,1,3.15-.784l1.1.017.116-.54a1.874,1.874,0,0,0,.025-.523.9.9,0,0,0-.295-.61,1.015,1.015,0,0,0-.668-.228,1.43,1.43,0,0,0-.93.27,1.308,1.308,0,0,0-.49.826l-2.349.008a2.611,2.611,0,0,1,1.183-2.088,4.581,4.581,0,0,1,2.777-.784,3.312,3.312,0,0,1,2.391.909,2.659,2.659,0,0,1,.722,2.254l-.689,4.3-.042.531a2.563,2.563,0,0,0,.141,1L125.209,0Zm-1.8-1.652a2.144,2.144,0,0,0,1.768-.88l.291-1.552-.813-.008a2.273,2.273,0,0,0-1.868.789,1.373,1.373,0,0,0-.257.672.8.8,0,0,0,.187.71A.946.946,0,0,0,121.108-1.652Z" transform="translate(-9096.145 -9392.365)" fill="#12263f"/>
    <path id="Trazado_197231" data-name="Trazado 197231" d="M-9187.247-9438.5s-40.958,7.826-86.187-45.493-46.7-67.146-63.818-75.017-23.884,14.85-23.884,14.85-19.924,105.17-33.7,105.66" transform="translate(263.822 3.103)" fill="none" stroke="#ff8578" stroke-width="2"/>
    <path id="Trazado_197232" data-name="Trazado 197232" d="M-9297.8-9522.031v78.975" transform="translate(260.98 9.618)" fill="none" stroke="#fed981" stroke-width="1" stroke-dasharray="2"/>
    <path id="Trazado_197233" data-name="Trazado 197233" d="M-9297.8-9522.031v109.248" transform="translate(237.607 -20.655)" fill="none" stroke="#43a99b" stroke-width="1" stroke-dasharray="2"/>
    <path id="Trazado_197234" data-name="Trazado 197234" d="M-9297.8-9522.031v121.824" transform="translate(214.233 -33.232)" fill="none" stroke="#8490e8" stroke-width="1" stroke-dasharray="2"/>
  </g>
</svg>
