<svg xmlns="http://www.w3.org/2000/svg" width="175" height="81" viewBox="0 0 175 81">
  <g id="Grupo_974132" data-name="Grupo 974132" transform="translate(-425 -4078.071)">
    <path id="Trazado_705287" data-name="Trazado 705287" d="M10,0H165a10,10,0,0,1,10,10V71a10,10,0,0,1-10,10H10A10,10,0,0,1,0,71V10A10,10,0,0,1,10,0Z" transform="translate(425 4078.071)" fill="#0b428a"/>
    <g id="Grupo_974133" data-name="Grupo 974133" transform="translate(469.847 4098.906)">
      <path id="Trazado_177536" data-name="Trazado 177536" d="M11.689-5.95A7.981,7.981,0,0,1,11.028-2.6,5,5,0,0,1,9.138-.38,5.2,5.2,0,0,1,6.311.393,5.21,5.21,0,0,1,3.492-.38a5.076,5.076,0,0,1-1.912-2.2A7.731,7.731,0,0,1,.9-5.879v-.733a7.913,7.913,0,0,1,.675-3.359,5.07,5.07,0,0,1,1.9-2.229,5.181,5.181,0,0,1,2.819-.773,5.227,5.227,0,0,1,2.819.764,5.005,5.005,0,0,1,1.9,2.2,7.9,7.9,0,0,1,.679,3.337Zm-2.26-.679a5.687,5.687,0,0,0-.817-3.315A2.675,2.675,0,0,0,6.293-11.1,2.666,2.666,0,0,0,4-9.948,5.577,5.577,0,0,0,3.157-6.7v.75a5.643,5.643,0,0,0,.835,3.315,2.69,2.69,0,0,0,2.318,1.17A2.658,2.658,0,0,0,8.62-2.609,5.765,5.765,0,0,0,9.429-5.95Z" transform="translate(49.381 12.973)" fill="#ebf7ff"/>
      <path id="Trazado_177532" data-name="Trazado 177532" d="M-8315.884,8036h24.644" transform="translate(8360.285 -8019.763)" fill="none" stroke="#ebf7ff" stroke-width="1"/>
      <path id="Trazado_177533" data-name="Trazado 177533" d="M-8312.862,8041.056l5.2,9.234,3.3-12.625h15.918" transform="translate(8356.247 -8017.362)" fill="none" stroke="#ebf7ff" stroke-linecap="round" stroke-width="1"/>
      <path id="Trazado_177534" data-name="Trazado 177534" d="M3.109-9.507,3.172-8.39a3.476,3.476,0,0,1,2.814-1.3q3.02,0,3.073,3.458V.16H6.889V-6.1a1.991,1.991,0,0,0-.4-1.362,1.672,1.672,0,0,0-1.3-.442A2.092,2.092,0,0,0,3.235-6.719V.16H1.063V-9.507Z" transform="translate(55.483 33.358)" fill="#ebf7ff"/>
      <path id="Trazado_177535" data-name="Trazado 177535" d="M10.207.212H8.674L2.853-8.7V.212H1.32V-11.351H2.853L8.69-2.4v-8.95h1.517Zm6.449-4.694a12.278,12.278,0,0,1,.48-3.447,10.012,10.012,0,0,1,1.433-3,6.1,6.1,0,0,1,1.977-1.906l.3.969a6.325,6.325,0,0,0-1.9,2.716,11.774,11.774,0,0,0-.814,4.09l-.008.675A11.836,11.836,0,0,0,19.245.935a6.355,6.355,0,0,0,1.6,2.112l-.3.9a6.294,6.294,0,0,1-2.017-1.97A11.039,11.039,0,0,1,16.656-4.481Zm7.2-3.9v5.027a3.575,3.575,0,0,0,.417,1.914A1.476,1.476,0,0,0,25.6-.82a2,2,0,0,0,2.073-1.207V-8.381h1.477V.212H27.822L27.75-.7A2.389,2.389,0,0,1,25.661.371a2.611,2.611,0,0,1-1.811-.58V3.516H22.382v-11.9Zm7.584,10.9L30.6,1.943A3.832,3.832,0,0,0,31.379-.2V-1.527h1.437V-.375a3.617,3.617,0,0,1-.393,1.6A3.756,3.756,0,0,1,31.435,2.515ZM90.41-4.4a12.284,12.284,0,0,1-.465,3.4,10.039,10.039,0,0,1-1.422,3,6.228,6.228,0,0,1-2.005,1.954l-.31-.9A6.385,6.385,0,0,0,88.174.137a12.592,12.592,0,0,0,.758-4.38V-4.5a13.074,13.074,0,0,0-.349-3.1,10.466,10.466,0,0,0-.973-2.569,5.934,5.934,0,0,0-1.4-1.771l.31-.9a6.2,6.2,0,0,1,2,1.938A10.061,10.061,0,0,1,89.937-7.9,12.568,12.568,0,0,1,90.41-4.4Z" transform="translate(-1.32 22.632)" fill="#ebf7ff"/>
    </g>
  </g>
</svg>
