<svg xmlns="http://www.w3.org/2000/svg" width="190" height="81" viewBox="0 0 190 81">
  <g id="Grupo_974147" data-name="Grupo 974147" transform="translate(-375.995 -3810.762)">
    <path id="Trazado_705320" data-name="Trazado 705320" d="M10,0H180a10,10,0,0,1,10,10V71a10,10,0,0,1-10,10H10A10,10,0,0,1,0,71V10A10,10,0,0,1,10,0Z" transform="translate(375.995 3810.762)" fill="#7125c8"/>
    <path id="Trazado_705321" data-name="Trazado 705321" d="M3.524-4.746V0H1.3V-12.8H6.2A4.95,4.95,0,0,1,9.6-11.679a3.757,3.757,0,0,1,1.261,2.956,3.633,3.633,0,0,1-1.235,2.93A5.19,5.19,0,0,1,6.17-4.746Zm0-1.793H6.2A2.632,2.632,0,0,0,8.007-7.1,2.051,2.051,0,0,0,8.631-8.71,2.213,2.213,0,0,0,8-10.367,2.439,2.439,0,0,0,6.258-11H3.524ZM12.63-5.2a13.393,13.393,0,0,1,.545-3.854,10.578,10.578,0,0,1,1.6-3.261,6.351,6.351,0,0,1,2.232-2.017l.422,1.248a6.524,6.524,0,0,0-2.008,2.87A12.852,12.852,0,0,0,14.581-5.8l-.009.756a13.972,13.972,0,0,0,.751,4.75,7,7,0,0,0,2.1,3.177l-.422,1.187A6.362,6.362,0,0,1,14.77,2.043a10.577,10.577,0,0,1-1.6-3.261A13.921,13.921,0,0,1,12.63-5.2ZM29.232,0H27.009L21.3-9.079V0H19.081V-12.8H21.3l5.722,9.114V-12.8h2.206Zm6.539-5.062A13.224,13.224,0,0,1,35.235-1.3a10.671,10.671,0,0,1-1.626,3.3,6.367,6.367,0,0,1-2.276,2.061l-.422-1.187A6.754,6.754,0,0,0,33-.233a13.84,13.84,0,0,0,.769-4.786v-.2A14.044,14.044,0,0,0,33.1-9.672a7.852,7.852,0,0,0-1.916-3.221l-.272-.246.422-1.2a6.3,6.3,0,0,1,2.18,1.934A10.491,10.491,0,0,1,35.13-9.294a12.941,12.941,0,0,1,.633,3.546ZM50.238-6.855H42.662V-8.631h7.576Zm0,3.727H42.662V-4.9h7.576Z" transform="translate(424.995 3857.762)" fill="#fff"/>
    <path id="Trazado_705322" data-name="Trazado 705322" d="M6.741,0H4.614V-10.281L1.477-9.211V-11l4.992-1.837h.272Z" transform="translate(498.995 3845.762)" fill="#fff"/>
    <path id="Trazado_704712" data-name="Trazado 704712" d="M-8334.53,21212.5h28.386" transform="translate(8823.995 -17361.238)" fill="#fff" stroke="#fff" stroke-width="1"/>
    <path id="Trazado_705323" data-name="Trazado 705323" d="M8.183-4.562H9.773v1.714H8.183V0H6.047V-2.848H.519l-.062-1.3L5.977-12.8H8.183Zm-5.484,0H6.047V-9.905l-.158.281Z" transform="translate(498.995 3869.762)" fill="#fff"/>
  </g>
</svg>
