<svg xmlns="http://www.w3.org/2000/svg" width="505" height="328" viewBox="0 0 505 328">
  <g id="Grupo_166701" data-name="Grupo 166701" transform="translate(-285 -12298.999)">
    <path id="Trazado_704700" data-name="Trazado 704700" d="M0,0H505V328H0Z" transform="translate(285 12299)" fill="#ebf7ff"/>
    <path id="Trazado_704701" data-name="Trazado 704701" d="M0,0H505V5H0Z" transform="translate(285 12622)" fill="#2e0877"/>
    <path id="Trazado_177305" data-name="Trazado 177305" d="M-7867,806.484h-392V611.859h2V804.484h390Z" transform="translate(8630 11725)"/>
    <path id="Trazado_177339" data-name="Trazado 177339" d="M8.43-4.7a5.762,5.762,0,0,1-.977,3.609A3.409,3.409,0,0,1,4.594.156,3.433,3.433,0,0,1,1.75-1.07,5.594,5.594,0,0,1,.742-4.586V-6.68A5.687,5.687,0,0,1,1.73-10.3a3.434,3.434,0,0,1,2.848-1.234,3.437,3.437,0,0,1,2.844,1.223A5.576,5.576,0,0,1,8.43-6.8ZM6.172-7a4.158,4.158,0,0,0-.387-2.059A1.307,1.307,0,0,0,4.578-9.7,1.284,1.284,0,0,0,3.4-9.09,3.891,3.891,0,0,0,3-7.172v2.766A4.365,4.365,0,0,0,3.379-2.34a1.29,1.29,0,0,0,1.215.676,1.268,1.268,0,0,0,1.2-.648A4.26,4.26,0,0,0,6.172-4.3Z" transform="translate(329 12536)" fill="#005acf"/>
    <path id="Trazado_177340" data-name="Trazado 177340" d="M1.109-5.594l.656-5.781H8.141v1.883H3.617L3.336-7.047a3.58,3.58,0,0,1,1.711-.43A3.279,3.279,0,0,1,7.594-6.469a4.026,4.026,0,0,1,.922,2.82,4.124,4.124,0,0,1-.465,1.973A3.281,3.281,0,0,1,6.719-.324a4.158,4.158,0,0,1-2.047.48A4.416,4.416,0,0,1,2.758-.262,3.4,3.4,0,0,1,1.363-1.437,3.2,3.2,0,0,1,.82-3.164H3.055a1.669,1.669,0,0,0,.5,1.105,1.573,1.573,0,0,0,1.113.395,1.388,1.388,0,0,0,1.18-.551,2.551,2.551,0,0,0,.414-1.559,2.11,2.11,0,0,0-.477-1.484A1.749,1.749,0,0,0,4.43-5.773a1.954,1.954,0,0,0-1.3.422l-.219.2Z" transform="translate(329 12489)" fill="#005acf"/>
    <path id="Trazado_177341" data-name="Trazado 177341" d="M6.258,0H4V-8.7l-2.7.836V-9.7l4.711-1.687h.242ZM17.609-4.7a5.763,5.763,0,0,1-.977,3.609A3.409,3.409,0,0,1,13.773.156,3.433,3.433,0,0,1,10.93-1.07,5.594,5.594,0,0,1,9.922-4.586V-6.68A5.687,5.687,0,0,1,10.91-10.3a3.434,3.434,0,0,1,2.848-1.234A3.437,3.437,0,0,1,16.6-10.309,5.576,5.576,0,0,1,17.609-6.8ZM15.352-7a4.158,4.158,0,0,0-.387-2.059A1.307,1.307,0,0,0,13.758-9.7a1.284,1.284,0,0,0-1.176.613,3.891,3.891,0,0,0-.4,1.918v2.766a4.365,4.365,0,0,0,.379,2.066,1.29,1.29,0,0,0,1.215.676,1.268,1.268,0,0,0,1.2-.648A4.26,4.26,0,0,0,15.352-4.3Z" transform="translate(324 12442)" fill="#005acf"/>
    <path id="Trazado_177342" data-name="Trazado 177342" d="M6.258,0H4V-8.7l-2.7.836V-9.7l4.711-1.687h.242Zm4.031-5.594.656-5.781H17.32v1.883H12.8l-.281,2.445a3.58,3.58,0,0,1,1.711-.43,3.279,3.279,0,0,1,2.547,1.008,4.026,4.026,0,0,1,.922,2.82,4.124,4.124,0,0,1-.465,1.973A3.281,3.281,0,0,1,15.9-.324a4.158,4.158,0,0,1-2.047.48,4.416,4.416,0,0,1-1.914-.418,3.4,3.4,0,0,1-1.395-1.176A3.2,3.2,0,0,1,10-3.164h2.234a1.669,1.669,0,0,0,.5,1.105,1.573,1.573,0,0,0,1.113.395,1.388,1.388,0,0,0,1.18-.551,2.551,2.551,0,0,0,.414-1.559,2.11,2.11,0,0,0-.477-1.484,1.749,1.749,0,0,0-1.352-.516,1.954,1.954,0,0,0-1.3.422l-.219.2Z" transform="translate(324 12395)" fill="#005acf"/>
    <path id="Trazado_177338" data-name="Trazado 177338" d="M8.57,0H.773V-1.547l3.68-3.922A9.078,9.078,0,0,0,5.574-6.914a2.322,2.322,0,0,0,.363-1.172,1.738,1.738,0,0,0-.383-1.191,1.382,1.382,0,0,0-1.094-.434,1.49,1.49,0,0,0-1.207.527A2.089,2.089,0,0,0,2.813-7.8H.547a3.729,3.729,0,0,1,.5-1.9,3.5,3.5,0,0,1,1.4-1.348A4.262,4.262,0,0,1,4.5-11.531a4.036,4.036,0,0,1,2.73.844A2.985,2.985,0,0,1,8.2-8.3a3.825,3.825,0,0,1-.437,1.719,9.551,9.551,0,0,1-1.5,2.039L3.68-1.82H8.57Zm9.039-4.7a5.763,5.763,0,0,1-.977,3.609A3.409,3.409,0,0,1,13.773.156,3.433,3.433,0,0,1,10.93-1.07,5.594,5.594,0,0,1,9.922-4.586V-6.68A5.687,5.687,0,0,1,10.91-10.3a3.434,3.434,0,0,1,2.848-1.234A3.437,3.437,0,0,1,16.6-10.309,5.576,5.576,0,0,1,17.609-6.8ZM15.352-7a4.158,4.158,0,0,0-.387-2.059A1.307,1.307,0,0,0,13.758-9.7a1.284,1.284,0,0,0-1.176.613,3.891,3.891,0,0,0-.4,1.918v2.766a4.365,4.365,0,0,0,.379,2.066,1.29,1.29,0,0,0,1.215.676,1.268,1.268,0,0,0,1.2-.648A4.26,4.26,0,0,0,15.352-4.3Z" transform="translate(324 12348)" fill="#005acf"/>
    <path id="Trazado_177357" data-name="Trazado 177357" d="M1.109-5.594l.656-5.781H8.141v1.883H3.617L3.336-7.047a3.58,3.58,0,0,1,1.711-.43A3.279,3.279,0,0,1,7.594-6.469a4.026,4.026,0,0,1,.922,2.82,4.124,4.124,0,0,1-.465,1.973A3.281,3.281,0,0,1,6.719-.324a4.158,4.158,0,0,1-2.047.48A4.416,4.416,0,0,1,2.758-.262,3.4,3.4,0,0,1,1.363-1.437,3.2,3.2,0,0,1,.82-3.164H3.055a1.669,1.669,0,0,0,.5,1.105,1.573,1.573,0,0,0,1.113.395,1.388,1.388,0,0,0,1.18-.551,2.551,2.551,0,0,0,.414-1.559,2.11,2.11,0,0,0-.477-1.484A1.749,1.749,0,0,0,4.43-5.773a1.954,1.954,0,0,0-1.3.422l-.219.2Z" transform="translate(421 12572)" fill="#005acf"/>
    <path id="Trazado_177358" data-name="Trazado 177358" d="M6.258,0H4V-8.7l-2.7.836V-9.7l4.711-1.687h.242ZM17.609-4.7a5.763,5.763,0,0,1-.977,3.609A3.409,3.409,0,0,1,13.773.156,3.433,3.433,0,0,1,10.93-1.07,5.594,5.594,0,0,1,9.922-4.586V-6.68A5.687,5.687,0,0,1,10.91-10.3a3.434,3.434,0,0,1,2.848-1.234A3.437,3.437,0,0,1,16.6-10.309,5.576,5.576,0,0,1,17.609-6.8ZM15.352-7a4.158,4.158,0,0,0-.387-2.059A1.307,1.307,0,0,0,13.758-9.7a1.284,1.284,0,0,0-1.176.613,3.891,3.891,0,0,0-.4,1.918v2.766a4.365,4.365,0,0,0,.379,2.066,1.29,1.29,0,0,0,1.215.676,1.268,1.268,0,0,0,1.2-.648A4.26,4.26,0,0,0,15.352-4.3Z" transform="translate(543 12572)" fill="#005acf"/>
    <path id="Trazado_177359" data-name="Trazado 177359" d="M6.258,0H4V-8.7l-2.7.836V-9.7l4.711-1.687h.242Zm4.031-5.594.656-5.781H17.32v1.883H12.8l-.281,2.445a3.58,3.58,0,0,1,1.711-.43,3.279,3.279,0,0,1,2.547,1.008,4.026,4.026,0,0,1,.922,2.82,4.124,4.124,0,0,1-.465,1.973A3.281,3.281,0,0,1,15.9-.324a4.158,4.158,0,0,1-2.047.48,4.416,4.416,0,0,1-1.914-.418,3.4,3.4,0,0,1-1.395-1.176A3.2,3.2,0,0,1,10-3.164h2.234a1.669,1.669,0,0,0,.5,1.105,1.573,1.573,0,0,0,1.113.395,1.388,1.388,0,0,0,1.18-.551,2.551,2.551,0,0,0,.414-1.559,2.11,2.11,0,0,0-.477-1.484,1.749,1.749,0,0,0-1.352-.516,1.954,1.954,0,0,0-1.3.422l-.219.2Z" transform="translate(651 12572)" fill="#005acf"/>
    <path id="Trazado_177369" data-name="Trazado 177369" d="M8.57,0H.773V-1.547l3.68-3.922A9.078,9.078,0,0,0,5.574-6.914a2.322,2.322,0,0,0,.363-1.172,1.738,1.738,0,0,0-.383-1.191,1.382,1.382,0,0,0-1.094-.434,1.49,1.49,0,0,0-1.207.527A2.089,2.089,0,0,0,2.813-7.8H.547a3.729,3.729,0,0,1,.5-1.9,3.5,3.5,0,0,1,1.4-1.348A4.262,4.262,0,0,1,4.5-11.531a4.036,4.036,0,0,1,2.73.844A2.985,2.985,0,0,1,8.2-8.3a3.825,3.825,0,0,1-.437,1.719,9.551,9.551,0,0,1-1.5,2.039L3.68-1.82H8.57Zm9.039-4.7a5.763,5.763,0,0,1-.977,3.609A3.409,3.409,0,0,1,13.773.156,3.433,3.433,0,0,1,10.93-1.07,5.594,5.594,0,0,1,9.922-4.586V-6.68A5.687,5.687,0,0,1,10.91-10.3a3.434,3.434,0,0,1,2.848-1.234A3.437,3.437,0,0,1,16.6-10.309,5.576,5.576,0,0,1,17.609-6.8ZM15.352-7a4.158,4.158,0,0,0-.387-2.059A1.307,1.307,0,0,0,13.758-9.7a1.284,1.284,0,0,0-1.176.613,3.891,3.891,0,0,0-.4,1.918v2.766a4.365,4.365,0,0,0,.379,2.066,1.29,1.29,0,0,0,1.215.676,1.268,1.268,0,0,0,1.2-.648A4.26,4.26,0,0,0,15.352-4.3Z" transform="translate(755.922 12572)" fill="#005acf"/>
    <path id="Trazado_177306" data-name="Trazado 177306" d="M-8192.434,771.648l-30.252-42.753-14.413,30.037-1.8-.865,15.884-33.1.982,1.388,27.6,39.007V685.08l1.839,2.828,39.369,60.566,19.9-51.3,22.965,27.264,6.3-73.682,1.591,2.764,30.059,52.216,24.265-47.744,19.817,28.262,28.727-86.106,1.935.15,14.549,86.357,29.179-22.2V704.9l31.642-40.99.282,2.445,10.656,92.606,13.736-34.881,11.647,32.629,26.491-25.292,1.381,1.447-28.72,27.419-10.892-30.512-13.25,33.646-1.924-.252-10.832-94.137-32.218,41.736V668.49l-28.6,21.761-14.433-85.667-28.715,86.068-20.183-28.785-24.43,48.068-30.311-52.653-6.172,72.138-1.555-1.847-22.347-26.53-20.1,51.795-1.064-1.637-38.6-59.375Z" transform="translate(8630 11725)" fill="#7125c8"/>
    <path id="Trazado_177343" data-name="Trazado 177343" d="M4.5,0A4.5,4.5,0,1,1,0,4.5,4.5,4.5,0,0,1,4.5,0Z" transform="translate(417 12467)" fill="#7125c8"/>
    <path id="Trazado_177344" data-name="Trazado 177344" d="M4.5,0A4.5,4.5,0,1,1,0,4.5,4.5,4.5,0,0,1,4.5,0Z" transform="translate(432 12427)" fill="#7125c8"/>
    <path id="Trazado_177345" data-name="Trazado 177345" d="M4.5,0A4.5,4.5,0,1,1,0,4.5,4.5,4.5,0,0,1,4.5,0Z" transform="translate(484 12442)" fill="#7125c8"/>
    <path id="Trazado_177346" data-name="Trazado 177346" d="M4.5,0A4.5,4.5,0,1,1,0,4.5,4.5,4.5,0,0,1,4.5,0Z" transform="translate(520 12399)" fill="#7125c8"/>
    <path id="Trazado_177347" data-name="Trazado 177347" d="M4.5,0A4.5,4.5,0,1,1,0,4.5,4.5,4.5,0,0,1,4.5,0Z" transform="translate(552 12427)" fill="#7125c8"/>
    <path id="Trazado_177360" data-name="Trazado 177360" d="M4.5,0A4.5,4.5,0,1,1,0,4.5,4.5,4.5,0,0,1,4.5,0Z" transform="translate(609 12376)" fill="#7125c8"/>
    <path id="Trazado_177361" data-name="Trazado 177361" d="M4.5,0A4.5,4.5,0,1,1,0,4.5,4.5,4.5,0,0,1,4.5,0Z" transform="translate(639 12390)" fill="#7125c8"/>
    <path id="Trazado_177362" data-name="Trazado 177362" d="M4.5,0A4.5,4.5,0,1,1,0,4.5,4.5,4.5,0,0,1,4.5,0Z" transform="translate(687 12406)" fill="#7125c8"/>
    <path id="Trazado_177370" data-name="Trazado 177370" d="M4.5,0A4.5,4.5,0,1,1,0,4.5,4.5,4.5,0,0,1,4.5,0Z" transform="translate(754 12463)" fill="#7125c8"/>
    <path id="Trazado_177348" data-name="Trazado 177348" d="M4.5,0A4.5,4.5,0,1,1,0,4.5,4.5,4.5,0,0,1,4.5,0Z" transform="translate(454 12443)" fill="#fff"/>
    <path id="Trazado_177348_-_Contorno" data-name="Trazado 177348 - Contorno" d="M4.5,2A2.5,2.5,0,1,0,7,4.5,2.5,2.5,0,0,0,4.5,2m0-2A4.5,4.5,0,1,1,0,4.5,4.5,4.5,0,0,1,4.5,0Z" transform="translate(454 12443)" fill="#7125c8"/>
    <path id="Trazado_177349" data-name="Trazado 177349" d="M4.5,0A4.5,4.5,0,1,1,0,4.5,4.5,4.5,0,0,1,4.5,0Z" transform="translate(426 12479)" fill="#fff"/>
    <path id="Trazado_177349_-_Contorno" data-name="Trazado 177349 - Contorno" d="M4.5,2A2.5,2.5,0,1,0,7,4.5,2.5,2.5,0,0,0,4.5,2m0-2A4.5,4.5,0,1,1,0,4.5,4.5,4.5,0,0,1,4.5,0Z" transform="translate(426 12479)" fill="#7125c8"/>
    <path id="Trazado_177350" data-name="Trazado 177350" d="M4.5,0A4.5,4.5,0,1,1,0,4.5,4.5,4.5,0,0,1,4.5,0Z" transform="translate(432 12442)" fill="#fff"/>
    <path id="Trazado_177350_-_Contorno" data-name="Trazado 177350 - Contorno" d="M4.5,2A2.5,2.5,0,1,0,7,4.5,2.5,2.5,0,0,0,4.5,2m0-2A4.5,4.5,0,1,1,0,4.5,4.5,4.5,0,0,1,4.5,0Z" transform="translate(432 12442)" fill="#7125c8"/>
    <path id="Trazado_177351" data-name="Trazado 177351" d="M4.5,0A4.5,4.5,0,1,1,0,4.5,4.5,4.5,0,0,1,4.5,0Z" transform="translate(464 12457)" fill="#fff"/>
    <path id="Trazado_177351_-_Contorno" data-name="Trazado 177351 - Contorno" d="M4.5,2A2.5,2.5,0,1,0,7,4.5,2.5,2.5,0,0,0,4.5,2m0-2A4.5,4.5,0,1,1,0,4.5,4.5,4.5,0,0,1,4.5,0Z" transform="translate(464 12457)" fill="#7125c8"/>
    <path id="Trazado_177352" data-name="Trazado 177352" d="M4.5,0A4.5,4.5,0,1,1,0,4.5,4.5,4.5,0,0,1,4.5,0Z" transform="translate(503 12432)" fill="#fff"/>
    <path id="Trazado_177352_-_Contorno" data-name="Trazado 177352 - Contorno" d="M4.5,2A2.5,2.5,0,1,0,7,4.5,2.5,2.5,0,0,0,4.5,2m0-2A4.5,4.5,0,1,1,0,4.5,4.5,4.5,0,0,1,4.5,0Z" transform="translate(503 12432)" fill="#7125c8"/>
    <path id="Trazado_177353" data-name="Trazado 177353" d="M4.5,0A4.5,4.5,0,1,1,0,4.5,4.5,4.5,0,0,1,4.5,0Z" transform="translate(539 12404)" fill="#fff"/>
    <path id="Trazado_177353_-_Contorno" data-name="Trazado 177353 - Contorno" d="M4.5,2A2.5,2.5,0,1,0,7,4.5,2.5,2.5,0,0,0,4.5,2m0-2A4.5,4.5,0,1,1,0,4.5,4.5,4.5,0,0,1,4.5,0Z" transform="translate(539 12404)" fill="#7125c8"/>
    <path id="Trazado_177354" data-name="Trazado 177354" d="M4.5,0A4.5,4.5,0,1,1,0,4.5,4.5,4.5,0,0,1,4.5,0Z" transform="translate(518 12423)" fill="#fff"/>
    <path id="Trazado_177354_-_Contorno" data-name="Trazado 177354 - Contorno" d="M4.5,2A2.5,2.5,0,1,0,7,4.5,2.5,2.5,0,0,0,4.5,2m0-2A4.5,4.5,0,1,1,0,4.5,4.5,4.5,0,0,1,4.5,0Z" transform="translate(518 12423)" fill="#7125c8"/>
    <path id="Trazado_177355" data-name="Trazado 177355" d="M4.5,0A4.5,4.5,0,1,1,0,4.5,4.5,4.5,0,0,1,4.5,0Z" transform="translate(589 12397)" fill="#fff"/>
    <path id="Trazado_177355_-_Contorno" data-name="Trazado 177355 - Contorno" d="M4.5,2A2.5,2.5,0,1,0,7,4.5,2.5,2.5,0,0,0,4.5,2m0-2A4.5,4.5,0,1,1,0,4.5,4.5,4.5,0,0,1,4.5,0Z" transform="translate(589 12397)" fill="#7125c8"/>
    <path id="Trazado_177363" data-name="Trazado 177363" d="M4.5,0A4.5,4.5,0,1,1,0,4.5,4.5,4.5,0,0,1,4.5,0Z" transform="translate(619 12343)" fill="#fff"/>
    <path id="Trazado_177363_-_Contorno" data-name="Trazado 177363 - Contorno" d="M4.5,2A2.5,2.5,0,1,0,7,4.5,2.5,2.5,0,0,0,4.5,2m0-2A4.5,4.5,0,1,1,0,4.5,4.5,4.5,0,0,1,4.5,0Z" transform="translate(619 12343)" fill="#7125c8"/>
    <path id="Trazado_177364" data-name="Trazado 177364" d="M4.5,0A4.5,4.5,0,1,1,0,4.5,4.5,4.5,0,0,1,4.5,0Z" transform="translate(635 12371)" fill="#fff"/>
    <path id="Trazado_177364_-_Contorno" data-name="Trazado 177364 - Contorno" d="M4.5,2A2.5,2.5,0,1,0,7,4.5,2.5,2.5,0,0,0,4.5,2m0-2A4.5,4.5,0,1,1,0,4.5,4.5,4.5,0,0,1,4.5,0Z" transform="translate(635 12371)" fill="#7125c8"/>
    <path id="Trazado_177365" data-name="Trazado 177365" d="M4.5,0A4.5,4.5,0,1,1,0,4.5,4.5,4.5,0,0,1,4.5,0Z" transform="translate(709 12439)" fill="#fff"/>
    <path id="Trazado_177365_-_Contorno" data-name="Trazado 177365 - Contorno" d="M4.5,2A2.5,2.5,0,1,0,7,4.5,2.5,2.5,0,0,0,4.5,2m0-2A4.5,4.5,0,1,1,0,4.5,4.5,4.5,0,0,1,4.5,0Z" transform="translate(709 12439)" fill="#7125c8"/>
    <path id="Trazado_177366" data-name="Trazado 177366" d="M4.5,0A4.5,4.5,0,1,1,0,4.5,4.5,4.5,0,0,1,4.5,0Z" transform="translate(705 12411)" fill="#fff"/>
    <path id="Trazado_177366_-_Contorno" data-name="Trazado 177366 - Contorno" d="M4.5,2A2.5,2.5,0,1,0,7,4.5,2.5,2.5,0,0,0,4.5,2m0-2A4.5,4.5,0,1,1,0,4.5,4.5,4.5,0,0,1,4.5,0Z" transform="translate(705 12411)" fill="#7125c8"/>
    <path id="Trazado_177367" data-name="Trazado 177367" d="M4.5,0A4.5,4.5,0,1,1,0,4.5,4.5,4.5,0,0,1,4.5,0Z" transform="translate(728 12448)" fill="#fff"/>
    <path id="Trazado_177367_-_Contorno" data-name="Trazado 177367 - Contorno" d="M4.5,2A2.5,2.5,0,1,0,7,4.5,2.5,2.5,0,0,0,4.5,2m0-2A4.5,4.5,0,1,1,0,4.5,4.5,4.5,0,0,1,4.5,0Z" transform="translate(728 12448)" fill="#7125c8"/>
    <path id="Trazado_177307" data-name="Trazado 177307" d="M-8258,759.5h-19.575v-2H-8258Z" transform="translate(8630 11725)"/>
    <path id="Trazado_177308" data-name="Trazado 177308" d="M-8258,759.5h-19.575v-2H-8258Z" transform="translate(8630 11678)"/>
    <path id="Trazado_177309" data-name="Trazado 177309" d="M-8258,759.5h-19.575v-2H-8258Z" transform="translate(8630 11631)"/>
    <path id="Trazado_177310" data-name="Trazado 177310" d="M-8258,759.5h-19.575v-2H-8258Z" transform="translate(8630 11584)"/>
    <path id="Trazado_177311" data-name="Trazado 177311" d="M-8258,759.5h-19.575v-2H-8258Z" transform="translate(-333 4272.484) rotate(-90)"/>
    <path id="Trazado_177312" data-name="Trazado 177312" d="M-8258,759.5h-19.575v-2H-8258Z" transform="translate(-206.5 4272.484) rotate(-90)"/>
    <path id="Trazado_177313" data-name="Trazado 177313" d="M-8258,759.5h-19.575v-2H-8258Z" transform="translate(-98.5 4272.484) rotate(-90)"/>
    <path id="Trazado_177314" data-name="Trazado 177314" d="M-8258,759.5h-19.575v-2H-8258Z" transform="translate(3.422 4272.484) rotate(-90)"/>
    <path id="Trazado_177356" data-name="Trazado 177356" d="M5.086-7.453l2.133-3.922h2.7L6.6-5.734,10,0H7.273L5.086-3.984,2.9,0H.172l3.4-5.734L.258-11.375h2.7Z" transform="translate(299.172 12440)" fill="#005acf"/>
    <path id="Trazado_177368" data-name="Trazado 177368" d="M4.28-11.874V-9.51H5.845v2.057H4.28V-3.1a1.111,1.111,0,0,0,.193.747,1.037,1.037,0,0,0,.765.211A4.345,4.345,0,0,0,5.977-2.2V-.079a5.466,5.466,0,0,1-1.67.255A3.1,3.1,0,0,1,2.048-.545a2.954,2.954,0,0,1-.729-2.188v-4.72H.105V-9.51H1.318v-2.364ZM10.134,0H7.163V-9.51h2.971ZM6.987-11.962A1.322,1.322,0,0,1,7.444-13a1.724,1.724,0,0,1,1.187-.4,1.724,1.724,0,0,1,1.187.4,1.322,1.322,0,0,1,.457,1.037,1.322,1.322,0,0,1-.457,1.037,1.724,1.724,0,0,1-1.187.4,1.724,1.724,0,0,1-1.187-.4A1.322,1.322,0,0,1,6.987-11.962ZM16.559.176a4.889,4.889,0,0,1-3.542-1.305,4.507,4.507,0,0,1-1.354-3.4v-.246A5.84,5.84,0,0,1,12.2-7.348a3.955,3.955,0,0,1,1.578-1.727,4.763,4.763,0,0,1,2.461-.611,4.117,4.117,0,0,1,3.164,1.244,4.887,4.887,0,0,1,1.16,3.467v1.151H14.678a2.135,2.135,0,0,0,.694,1.257,2.066,2.066,0,0,0,1.389.457,2.662,2.662,0,0,0,2.2-.984l1.354,1.6A3.784,3.784,0,0,1,18.743-.277,5.3,5.3,0,0,1,16.559.176ZM16.225-7.4q-1.3,0-1.547,1.723h2.988v-.229a1.467,1.467,0,0,0-.36-1.1A1.434,1.434,0,0,0,16.225-7.4ZM24.557-9.51l.1,1.116a3.27,3.27,0,0,1,2.716-1.292A2.407,2.407,0,0,1,29.8-8.253,3.165,3.165,0,0,1,32.6-9.686q2.892,0,2.971,3.5V0H32.6V-6a1.813,1.813,0,0,0-.246-1.063,1.048,1.048,0,0,0-.9-.334,1.4,1.4,0,0,0-1.31.782l.009.123V0H27.185V-5.985a1.906,1.906,0,0,0-.237-1.081,1.045,1.045,0,0,0-.905-.334,1.42,1.42,0,0,0-1.3.782V0H21.779V-9.51ZM46.09-4.685a5.735,5.735,0,0,1-1,3.538A3.2,3.2,0,0,1,42.4.176a2.742,2.742,0,0,1-2.153-.958V3.656H37.283V-9.51h2.769l.088.879a2.742,2.742,0,0,1,2.241-1.055,3.224,3.224,0,0,1,2.733,1.3,5.805,5.805,0,0,1,.976,3.564Zm-2.962-.185q0-2.531-1.477-2.531a1.394,1.394,0,0,0-1.406.756V-2.9a1.439,1.439,0,0,0,1.424.791q1.415,0,1.459-2.443Zm3.894.026a5.613,5.613,0,0,1,.554-2.536,3.96,3.96,0,0,1,1.591-1.709,4.791,4.791,0,0,1,2.435-.6,4.373,4.373,0,0,1,3.366,1.323,5.076,5.076,0,0,1,1.23,3.6v.105a4.925,4.925,0,0,1-1.235,3.529A4.384,4.384,0,0,1,51.618.176a4.434,4.434,0,0,1-3.261-1.217,4.761,4.761,0,0,1-1.327-3.3Zm2.962.185A3.538,3.538,0,0,0,50.4-2.725a1.376,1.376,0,0,0,1.222.615q1.582,0,1.617-2.435v-.3Q53.235-7.4,51.6-7.4q-1.485,0-1.608,2.206Z" transform="translate(565 12607)" fill="#12263f"/>
  </g>
</svg>
