<svg xmlns="http://www.w3.org/2000/svg" width="474.963" height="245.07" viewBox="0 0 474.963 245.07">
  <g id="Grupo_166778" data-name="Grupo 166778" transform="translate(0.604)">
    <rect id="Rect치ngulo_49601" data-name="Rect치ngulo 49601" width="474.358" height="237.179" transform="translate(0)" fill="#f6f6f6"/>
    <path id="Trazado_177421" data-name="Trazado 177421" d="M-8343,4289.769s39.792,30.17,100.8-122.03,78.413,116.146,148.237,122.03" transform="translate(8343 -4079.093)" fill="none" stroke="#25ffff" stroke-width="2"/>
    <path id="Trazado_177422" data-name="Trazado 177422" d="M-8343,4289.769s39.792,30.17,100.8-122.03,78.413,116.146,148.237,122.03" transform="translate(8379.763 -4079.093)" fill="none" stroke="#5263e2" stroke-width="2"/>
    <path id="Trazado_177423" data-name="Trazado 177423" d="M-8343,4289.769s39.792,30.17,100.8-122.03,78.413,116.146,148.237,122.03" transform="translate(8379.763 -4079.093)" fill="none" stroke="#5263e2" stroke-width="2"/>
    <path id="Trazado_177424" data-name="Trazado 177424" d="M-8343,4289.769s39.792,30.17,100.8-122.03,78.413,116.146,148.237,122.03" transform="translate(8428.385 -4079.093)" fill="none" stroke="#12263f" stroke-width="2"/>
    <path id="Trazado_177425" data-name="Trazado 177425" d="M-8343,4289.769s39.792,30.17,100.8-122.03,78.413,116.146,148.237,122.03" transform="translate(8511.99 -4079.093)" fill="none" stroke="#8490e8" stroke-width="2"/>
    <path id="Trazado_177426" data-name="Trazado 177426" d="M-8343,4289.769s31.229,30.17,79.105-122.03,61.536,116.146,116.331,122.03" transform="translate(8592.038 -4079.093)" fill="none" stroke="#f039ff" stroke-width="2"/>
    <rect id="Rect치ngulo_50175" data-name="Rect치ngulo 50175" width="473.856" height="8.031" transform="translate(0.251 237.04)" fill="#7125c8"/>
  </g>
</svg>
