<svg xmlns="http://www.w3.org/2000/svg" width="505" height="328" viewBox="0 0 505 328">
  <g id="Grupo_973854" data-name="Grupo 973854" transform="translate(-811 -17488.957)">
    <g id="Grupo_166704" data-name="Grupo 166704" transform="translate(1 4842.958)">
      <path id="Trazado_704699" data-name="Trazado 704699" d="M0,0H505V328H0Z" transform="translate(810 12646)" fill="#ebf7ff"/>
      <path id="Trazado_177326" data-name="Trazado 177326" d="M-7887.292,806.484H-8259V611.859h2V804.484h369.708Z" transform="translate(9164.053 12086.606)"/>
      <path id="Trazado_177398" data-name="Trazado 177398" d="M8.43-4.7a5.762,5.762,0,0,1-.977,3.609A3.409,3.409,0,0,1,4.594.156,3.433,3.433,0,0,1,1.75-1.07,5.594,5.594,0,0,1,.742-4.586V-6.68A5.687,5.687,0,0,1,1.73-10.3a3.434,3.434,0,0,1,2.848-1.234,3.437,3.437,0,0,1,2.844,1.223A5.576,5.576,0,0,1,8.43-6.8ZM6.172-7a4.158,4.158,0,0,0-.387-2.059A1.307,1.307,0,0,0,4.578-9.7,1.284,1.284,0,0,0,3.4-9.09,3.891,3.891,0,0,0,3-7.172v2.766A4.365,4.365,0,0,0,3.379-2.34a1.29,1.29,0,0,0,1.215.676,1.268,1.268,0,0,0,1.2-.648A4.26,4.26,0,0,0,6.172-4.3Z" transform="translate(863.053 12897.606)" fill="#5263e2"/>
      <path id="Trazado_177393" data-name="Trazado 177393" d="M1.109-5.594l.656-5.781H8.141v1.883H3.617L3.336-7.047a3.58,3.58,0,0,1,1.711-.43A3.279,3.279,0,0,1,7.594-6.469a4.026,4.026,0,0,1,.922,2.82,4.124,4.124,0,0,1-.465,1.973A3.281,3.281,0,0,1,6.719-.324a4.158,4.158,0,0,1-2.047.48A4.416,4.416,0,0,1,2.758-.262,3.4,3.4,0,0,1,1.363-1.437,3.2,3.2,0,0,1,.82-3.164H3.055a1.669,1.669,0,0,0,.5,1.105,1.573,1.573,0,0,0,1.113.395,1.388,1.388,0,0,0,1.18-.551,2.551,2.551,0,0,0,.414-1.559,2.11,2.11,0,0,0-.477-1.484A1.749,1.749,0,0,0,4.43-5.773a1.954,1.954,0,0,0-1.3.422l-.219.2Z" transform="translate(863.053 12850.606)" fill="#5263e2"/>
      <path id="Trazado_177381" data-name="Trazado 177381" d="M6.258,0H4V-8.7l-2.7.836V-9.7l4.711-1.687h.242ZM17.609-4.7a5.763,5.763,0,0,1-.977,3.609A3.409,3.409,0,0,1,13.773.156,3.433,3.433,0,0,1,10.93-1.07,5.594,5.594,0,0,1,9.922-4.586V-6.68A5.687,5.687,0,0,1,10.91-10.3a3.434,3.434,0,0,1,2.848-1.234A3.437,3.437,0,0,1,16.6-10.309,5.576,5.576,0,0,1,17.609-6.8ZM15.352-7a4.158,4.158,0,0,0-.387-2.059A1.307,1.307,0,0,0,13.758-9.7a1.284,1.284,0,0,0-1.176.613,3.891,3.891,0,0,0-.4,1.918v2.766a4.365,4.365,0,0,0,.379,2.066,1.29,1.29,0,0,0,1.215.676,1.268,1.268,0,0,0,1.2-.648A4.26,4.26,0,0,0,15.352-4.3Z" transform="translate(858.053 12803.606)" fill="#5263e2"/>
      <path id="Trazado_177374" data-name="Trazado 177374" d="M6.258,0H4V-8.7l-2.7.836V-9.7l4.711-1.687h.242Zm4.031-5.594.656-5.781H17.32v1.883H12.8l-.281,2.445a3.58,3.58,0,0,1,1.711-.43,3.279,3.279,0,0,1,2.547,1.008,4.026,4.026,0,0,1,.922,2.82,4.124,4.124,0,0,1-.465,1.973A3.281,3.281,0,0,1,15.9-.324a4.158,4.158,0,0,1-2.047.48,4.416,4.416,0,0,1-1.914-.418,3.4,3.4,0,0,1-1.395-1.176A3.2,3.2,0,0,1,10-3.164h2.234a1.669,1.669,0,0,0,.5,1.105,1.573,1.573,0,0,0,1.113.395,1.388,1.388,0,0,0,1.18-.551,2.551,2.551,0,0,0,.414-1.559,2.11,2.11,0,0,0-.477-1.484,1.749,1.749,0,0,0-1.352-.516,1.954,1.954,0,0,0-1.3.422l-.219.2Z" transform="translate(858.053 12756.606)" fill="#5263e2"/>
      <path id="Trazado_177372" data-name="Trazado 177372" d="M8.57,0H.773V-1.547l3.68-3.922A9.078,9.078,0,0,0,5.574-6.914a2.322,2.322,0,0,0,.363-1.172,1.738,1.738,0,0,0-.383-1.191,1.382,1.382,0,0,0-1.094-.434,1.49,1.49,0,0,0-1.207.527A2.089,2.089,0,0,0,2.813-7.8H.547a3.729,3.729,0,0,1,.5-1.9,3.5,3.5,0,0,1,1.4-1.348A4.262,4.262,0,0,1,4.5-11.531a4.036,4.036,0,0,1,2.73.844A2.985,2.985,0,0,1,8.2-8.3a3.825,3.825,0,0,1-.437,1.719,9.551,9.551,0,0,1-1.5,2.039L3.68-1.82H8.57Zm9.039-4.7a5.763,5.763,0,0,1-.977,3.609A3.409,3.409,0,0,1,13.773.156,3.433,3.433,0,0,1,10.93-1.07,5.594,5.594,0,0,1,9.922-4.586V-6.68A5.687,5.687,0,0,1,10.91-10.3a3.434,3.434,0,0,1,2.848-1.234A3.437,3.437,0,0,1,16.6-10.309,5.576,5.576,0,0,1,17.609-6.8ZM15.352-7a4.158,4.158,0,0,0-.387-2.059A1.307,1.307,0,0,0,13.758-9.7a1.284,1.284,0,0,0-1.176.613,3.891,3.891,0,0,0-.4,1.918v2.766a4.365,4.365,0,0,0,.379,2.066,1.29,1.29,0,0,0,1.215.676,1.268,1.268,0,0,0,1.2-.648A4.26,4.26,0,0,0,15.352-4.3Z" transform="translate(858.053 12709.606)" fill="#5263e2"/>
      <path id="Trazado_177407" data-name="Trazado 177407" d="M1.109-5.594l.656-5.781H8.141v1.883H3.617L3.336-7.047a3.58,3.58,0,0,1,1.711-.43A3.279,3.279,0,0,1,7.594-6.469a4.026,4.026,0,0,1,.922,2.82,4.124,4.124,0,0,1-.465,1.973A3.281,3.281,0,0,1,6.719-.324a4.158,4.158,0,0,1-2.047.48A4.416,4.416,0,0,1,2.758-.262,3.4,3.4,0,0,1,1.363-1.437,3.2,3.2,0,0,1,.82-3.164H3.055a1.669,1.669,0,0,0,.5,1.105,1.573,1.573,0,0,0,1.113.395,1.388,1.388,0,0,0,1.18-.551,2.551,2.551,0,0,0,.414-1.559,2.11,2.11,0,0,0-.477-1.484A1.749,1.749,0,0,0,4.43-5.773a1.954,1.954,0,0,0-1.3.422l-.219.2Z" transform="translate(939.156 12933.606)" fill="#5263e2"/>
      <path id="Trazado_177408" data-name="Trazado 177408" d="M6.258,0H4V-8.7l-2.7.836V-9.7l4.711-1.687h.242ZM17.609-4.7a5.763,5.763,0,0,1-.977,3.609A3.409,3.409,0,0,1,13.773.156,3.433,3.433,0,0,1,10.93-1.07,5.594,5.594,0,0,1,9.922-4.586V-6.68A5.687,5.687,0,0,1,10.91-10.3a3.434,3.434,0,0,1,2.848-1.234A3.437,3.437,0,0,1,16.6-10.309,5.576,5.576,0,0,1,17.609-6.8ZM15.352-7a4.158,4.158,0,0,0-.387-2.059A1.307,1.307,0,0,0,13.758-9.7a1.284,1.284,0,0,0-1.176.613,3.891,3.891,0,0,0-.4,1.918v2.766a4.365,4.365,0,0,0,.379,2.066,1.29,1.29,0,0,0,1.215.676,1.268,1.268,0,0,0,1.2-.648A4.26,4.26,0,0,0,15.352-4.3Z" transform="translate(1036.053 12933.606)" fill="#5263e2"/>
      <path id="Trazado_177409" data-name="Trazado 177409" d="M6.258,0H4V-8.7l-2.7.836V-9.7l4.711-1.687h.242Zm4.031-5.594.656-5.781H17.32v1.883H12.8l-.281,2.445a3.58,3.58,0,0,1,1.711-.43,3.279,3.279,0,0,1,2.547,1.008,4.026,4.026,0,0,1,.922,2.82,4.124,4.124,0,0,1-.465,1.973A3.281,3.281,0,0,1,15.9-.324a4.158,4.158,0,0,1-2.047.48,4.416,4.416,0,0,1-1.914-.418,3.4,3.4,0,0,1-1.395-1.176A3.2,3.2,0,0,1,10-3.164h2.234a1.669,1.669,0,0,0,.5,1.105,1.573,1.573,0,0,0,1.113.395,1.388,1.388,0,0,0,1.18-.551,2.551,2.551,0,0,0,.414-1.559,2.11,2.11,0,0,0-.477-1.484,1.749,1.749,0,0,0-1.352-.516,1.954,1.954,0,0,0-1.3.422l-.219.2Z" transform="translate(1144.053 12933.606)" fill="#5263e2"/>
      <path id="Trazado_177414" data-name="Trazado 177414" d="M8.57,0H.773V-1.547l3.68-3.922A9.078,9.078,0,0,0,5.574-6.914a2.322,2.322,0,0,0,.363-1.172,1.738,1.738,0,0,0-.383-1.191,1.382,1.382,0,0,0-1.094-.434,1.49,1.49,0,0,0-1.207.527A2.089,2.089,0,0,0,2.813-7.8H.547a3.729,3.729,0,0,1,.5-1.9,3.5,3.5,0,0,1,1.4-1.348A4.262,4.262,0,0,1,4.5-11.531a4.036,4.036,0,0,1,2.73.844A2.985,2.985,0,0,1,8.2-8.3a3.825,3.825,0,0,1-.437,1.719,9.551,9.551,0,0,1-1.5,2.039L3.68-1.82H8.57Zm9.039-4.7a5.763,5.763,0,0,1-.977,3.609A3.409,3.409,0,0,1,13.773.156,3.433,3.433,0,0,1,10.93-1.07,5.594,5.594,0,0,1,9.922-4.586V-6.68A5.687,5.687,0,0,1,10.91-10.3a3.434,3.434,0,0,1,2.848-1.234A3.437,3.437,0,0,1,16.6-10.309,5.576,5.576,0,0,1,17.609-6.8ZM15.352-7a4.158,4.158,0,0,0-.387-2.059A1.307,1.307,0,0,0,13.758-9.7a1.284,1.284,0,0,0-1.176.613,3.891,3.891,0,0,0-.4,1.918v2.766a4.365,4.365,0,0,0,.379,2.066,1.29,1.29,0,0,0,1.215.676,1.268,1.268,0,0,0,1.2-.648A4.26,4.26,0,0,0,15.352-4.3Z" transform="translate(1246.207 12933.606)" fill="#5263e2"/>
      <path id="Trazado_177327" data-name="Trazado 177327" d="M-8258,759.5h-19.575v-2H-8258Z" transform="translate(9164.053 12086.606)"/>
      <path id="Trazado_177328" data-name="Trazado 177328" d="M-8258,759.5h-19.575v-2H-8258Z" transform="translate(9164.053 12039.606)"/>
      <path id="Trazado_177329" data-name="Trazado 177329" d="M-8258,759.5h-19.575v-2H-8258Z" transform="translate(9164.053 11992.606)"/>
      <path id="Trazado_177330" data-name="Trazado 177330" d="M-8258,759.5h-19.575v-2H-8258Z" transform="translate(9164.053 11945.606)"/>
      <path id="Trazado_177331" data-name="Trazado 177331" d="M-8258,759.5h-19.575v-2H-8258Z" transform="translate(185.156 4634.091) rotate(-90)"/>
      <path id="Trazado_177332" data-name="Trazado 177332" d="M-8258,759.5h-19.575v-2H-8258Z" transform="translate(286.553 4634.091) rotate(-90)"/>
      <path id="Trazado_177333" data-name="Trazado 177333" d="M-8258,759.5h-19.575v-2H-8258Z" transform="translate(394.553 4634.091) rotate(-90)"/>
      <path id="Trazado_177334" data-name="Trazado 177334" d="M-8258,759.5h-19.575v-2H-8258Z" transform="translate(493.707 4634.091) rotate(-90)"/>
      <path id="Trazado_177382" data-name="Trazado 177382" d="M5.086-7.453l2.133-3.922h2.7L6.6-5.734,10,0H7.273L5.086-3.984,2.9,0H.172l3.4-5.734L.258-11.375h2.7Z" transform="translate(834.881 12803.606)" fill="#5263e2"/>
      <path id="Trazado_177335" data-name="Trazado 177335" d="M-7607.2,1062.1l-1.593-1.209c.037-.048,3.752-4.923,10.568-12.18,4-4.257,8.27-8.495,12.7-12.6,5.534-5.126,11.327-10.052,17.22-14.641a232.371,232.371,0,0,1,46.757-28.535,193.039,193.039,0,0,1,28.913-10.443,173.808,173.808,0,0,1,32.181-5.583,168.63,168.63,0,0,1,37.988,1.42,178.412,178.412,0,0,1,20.141,4.263,194.1,194.1,0,0,1,20.832,6.99,218.641,218.641,0,0,1,21.47,9.985,253.842,253.842,0,0,1,22.057,13.245c7.526,5.043,15.127,10.686,22.592,16.773,7.693,6.272,15.458,13.192,23.078,20.566l-1.391,1.437c-7.58-7.335-15.3-14.217-22.951-20.454-7.417-6.047-14.967-11.653-22.441-16.661a251.8,251.8,0,0,0-21.882-13.141,216.582,216.582,0,0,0-21.273-9.893,192.053,192.053,0,0,0-20.617-6.918,176.382,176.382,0,0,0-19.914-4.215,166.638,166.638,0,0,0-37.537-1.4,171.815,171.815,0,0,0-31.81,5.519,191.05,191.05,0,0,0-28.612,10.335,230.362,230.362,0,0,0-46.352,28.29,263.471,263.471,0,0,0-29.687,27.029C-7603.516,1057.266-7607.167,1062.057-7607.2,1062.1Z" transform="translate(8546.053 11786.606)" fill="#7125c8"/>
      <path id="Trazado_177388" data-name="Trazado 177388" d="M4.5,0A4.5,4.5,0,1,1,0,4.5,4.5,4.5,0,0,1,4.5,0Z" transform="translate(1034.053 12785.606)" fill="#7125c8"/>
      <path id="Trazado_177385" data-name="Trazado 177385" d="M4.5,0A4.5,4.5,0,1,1,0,4.5,4.5,4.5,0,0,1,4.5,0Z" transform="translate(938.053 12810.606)" fill="#7125c8"/>
      <path id="Trazado_177399" data-name="Trazado 177399" d="M4.5,0A4.5,4.5,0,1,1,0,4.5,4.5,4.5,0,0,1,4.5,0Z" transform="translate(1139.053 12781.606)" fill="#7125c8"/>
      <path id="Trazado_177413" data-name="Trazado 177413" d="M4.5,0A4.5,4.5,0,1,1,0,4.5,4.5,4.5,0,0,1,4.5,0Z" transform="translate(1244.053 12801.606)" fill="#7125c8"/>
      <path id="Trazado_177383" data-name="Trazado 177383" d="M4.5,0A4.5,4.5,0,1,1,0,4.5,4.5,4.5,0,0,1,4.5,0Z" transform="translate(956.053 12801.606)" fill="#fff"/>
      <path id="Trazado_177383_-_Contorno" data-name="Trazado 177383 - Contorno" d="M4.5,2A2.5,2.5,0,1,0,7,4.5,2.5,2.5,0,0,0,4.5,2m0-2A4.5,4.5,0,1,1,0,4.5,4.5,4.5,0,0,1,4.5,0Z" transform="translate(956.053 12801.606)" fill="#7125c8"/>
      <path id="Trazado_177394" data-name="Trazado 177394" d="M4.5,0A4.5,4.5,0,1,1,0,4.5,4.5,4.5,0,0,1,4.5,0Z" transform="translate(952.053 12843.606)" fill="#fff"/>
      <path id="Trazado_177394_-_Contorno" data-name="Trazado 177394 - Contorno" d="M4.5,2A2.5,2.5,0,1,0,7,4.5,2.5,2.5,0,0,0,4.5,2m0-2A4.5,4.5,0,1,1,0,4.5,4.5,4.5,0,0,1,4.5,0Z" transform="translate(952.053 12843.606)" fill="#7125c8"/>
      <path id="Trazado_177395" data-name="Trazado 177395" d="M4.5,0A4.5,4.5,0,1,1,0,4.5,4.5,4.5,0,0,1,4.5,0Z" transform="translate(975.053 12843.606)" fill="#fff"/>
      <path id="Trazado_177395_-_Contorno" data-name="Trazado 177395 - Contorno" d="M4.5,2A2.5,2.5,0,1,0,7,4.5,2.5,2.5,0,0,0,4.5,2m0-2A4.5,4.5,0,1,1,0,4.5,4.5,4.5,0,0,1,4.5,0Z" transform="translate(975.053 12843.606)" fill="#7125c8"/>
      <path id="Trazado_177389" data-name="Trazado 177389" d="M4.5,0A4.5,4.5,0,1,1,0,4.5,4.5,4.5,0,0,1,4.5,0Z" transform="translate(1034.053 12801.606)" fill="#fff"/>
      <path id="Trazado_177389_-_Contorno" data-name="Trazado 177389 - Contorno" d="M4.5,2A2.5,2.5,0,1,0,7,4.5,2.5,2.5,0,0,0,4.5,2m0-2A4.5,4.5,0,1,1,0,4.5,4.5,4.5,0,0,1,4.5,0Z" transform="translate(1034.053 12801.606)" fill="#7125c8"/>
      <path id="Trazado_177391" data-name="Trazado 177391" d="M4.5,0A4.5,4.5,0,1,1,0,4.5,4.5,4.5,0,0,1,4.5,0Z" transform="translate(1054.053 12782.606)" fill="#fff"/>
      <path id="Trazado_177391_-_Contorno" data-name="Trazado 177391 - Contorno" d="M4.5,2A2.5,2.5,0,1,0,7,4.5,2.5,2.5,0,0,0,4.5,2m0-2A4.5,4.5,0,1,1,0,4.5,4.5,4.5,0,0,1,4.5,0Z" transform="translate(1054.053 12782.606)" fill="#7125c8"/>
      <path id="Trazado_177396" data-name="Trazado 177396" d="M4.5,0A4.5,4.5,0,1,1,0,4.5,4.5,4.5,0,0,1,4.5,0Z" transform="translate(1096.053 12740.606)" fill="#fff"/>
      <path id="Trazado_177396_-_Contorno" data-name="Trazado 177396 - Contorno" d="M4.5,2A2.5,2.5,0,1,0,7,4.5,2.5,2.5,0,0,0,4.5,2m0-2A4.5,4.5,0,1,1,0,4.5,4.5,4.5,0,0,1,4.5,0Z" transform="translate(1096.053 12740.606)" fill="#7125c8"/>
      <path id="Trazado_177390" data-name="Trazado 177390" d="M4.5,0A4.5,4.5,0,1,1,0,4.5,4.5,4.5,0,0,1,4.5,0Z" transform="translate(1034.053 12754.606)" fill="#fff"/>
      <path id="Trazado_177390_-_Contorno" data-name="Trazado 177390 - Contorno" d="M4.5,2A2.5,2.5,0,1,0,7,4.5,2.5,2.5,0,0,0,4.5,2m0-2A4.5,4.5,0,1,1,0,4.5,4.5,4.5,0,0,1,4.5,0Z" transform="translate(1034.053 12754.606)" fill="#7125c8"/>
      <path id="Trazado_177410" data-name="Trazado 177410" d="M4.5,0A4.5,4.5,0,1,1,0,4.5,4.5,4.5,0,0,1,4.5,0Z" transform="translate(1203.053 12806.606)" fill="#fff"/>
      <path id="Trazado_177410_-_Contorno" data-name="Trazado 177410 - Contorno" d="M4.5,2A2.5,2.5,0,1,0,7,4.5,2.5,2.5,0,0,0,4.5,2m0-2A4.5,4.5,0,1,1,0,4.5,4.5,4.5,0,0,1,4.5,0Z" transform="translate(1203.053 12806.606)" fill="#7125c8"/>
      <path id="Trazado_177411" data-name="Trazado 177411" d="M4.5,0A4.5,4.5,0,1,1,0,4.5,4.5,4.5,0,0,1,4.5,0Z" transform="translate(1212.053 12834.606)" fill="#fff"/>
      <path id="Trazado_177411_-_Contorno" data-name="Trazado 177411 - Contorno" d="M4.5,2A2.5,2.5,0,1,0,7,4.5,2.5,2.5,0,0,0,4.5,2m0-2A4.5,4.5,0,1,1,0,4.5,4.5,4.5,0,0,1,4.5,0Z" transform="translate(1212.053 12834.606)" fill="#7125c8"/>
      <path id="Trazado_177412" data-name="Trazado 177412" d="M4.5,0A4.5,4.5,0,1,1,0,4.5,4.5,4.5,0,0,1,4.5,0Z" transform="translate(1233.053 12829.606)" fill="#fff"/>
      <path id="Trazado_177412_-_Contorno" data-name="Trazado 177412 - Contorno" d="M4.5,2A2.5,2.5,0,1,0,7,4.5,2.5,2.5,0,0,0,4.5,2m0-2A4.5,4.5,0,1,1,0,4.5,4.5,4.5,0,0,1,4.5,0Z" transform="translate(1233.053 12829.606)" fill="#7125c8"/>
      <rect id="Rectángulo_49822" data-name="Rectángulo 49822" width="505" height="5" transform="translate(810 12969)" fill="#2e0877"/>
    </g>
  </g>
</svg>
