<svg xmlns="http://www.w3.org/2000/svg" width="190" height="51.34" viewBox="0 0 190 51.34">
  <g id="Grupo_171226" data-name="Grupo 171226" transform="translate(-357 -19576.702)">
    <path id="Trazado_705237" data-name="Trazado 705237" d="M10,0H180a10,10,0,0,1,10,10V41.34a10,10,0,0,1-10,10H10a10,10,0,0,1-10-10V10A10,10,0,0,1,10,0Z" transform="translate(357 19576.703)" fill="#25ffff"/>
    <path id="Trazado_705238" data-name="Trazado 705238" d="M5.7-8.174,8.394-12.8H10.96L7.093-6.451,11.048,0H8.455L5.7-4.693,2.944,0H.36L4.324-6.451.448-12.8H3.015Z" transform="translate(400.463 19609.471)" fill="#12263f"/>
    <path id="Trazado_705239" data-name="Trazado 705239" d="M5.783,0V-12.8h4.386a5.354,5.354,0,0,1,3.3.87,3.065,3.065,0,0,1,1.134,2.593,2.763,2.763,0,0,1-.475,1.582,3.055,3.055,0,0,1-1.389,1.09,2.825,2.825,0,0,1,1.6,1.059,3.085,3.085,0,0,1,.567,1.868A3.407,3.407,0,0,1,13.759-.967,5.025,5.025,0,0,1,10.45,0ZM8.007-5.774v4h2.47a2.39,2.39,0,0,0,1.635-.519A1.82,1.82,0,0,0,12.7-3.735a1.826,1.826,0,0,0-2.039-2.039Zm0-1.635h2.18a2.521,2.521,0,0,0,1.622-.47,1.611,1.611,0,0,0,.584-1.332,1.633,1.633,0,0,0-.541-1.371A2.73,2.73,0,0,0,10.169-11H8.007ZM19.2,0H17.068V-9.51H19.2ZM16.937-11.979a1.133,1.133,0,0,1,.312-.817,1.179,1.179,0,0,1,.892-.325,1.193,1.193,0,0,1,.9.325,1.125,1.125,0,0,1,.316.817,1.1,1.1,0,0,1-.316.8,1.2,1.2,0,0,1-.9.321,1.188,1.188,0,0,1-.892-.321A1.107,1.107,0,0,1,16.937-11.979Zm6.574,2.47.062,1.1a3.419,3.419,0,0,1,2.769-1.274q2.971,0,3.023,3.4V0H27.229V-6.161a1.958,1.958,0,0,0-.391-1.34,1.645,1.645,0,0,0-1.279-.435,2.058,2.058,0,0,0-1.925,1.169V0H21.5V-9.51ZM31.57-5.2a13.393,13.393,0,0,1,.545-3.854,10.578,10.578,0,0,1,1.6-3.261,6.351,6.351,0,0,1,2.232-2.017l.422,1.248a6.524,6.524,0,0,0-2.008,2.87A12.852,12.852,0,0,0,33.521-5.8l-.009.756a13.972,13.972,0,0,0,.751,4.75,7,7,0,0,0,2.1,3.177l-.422,1.187A6.362,6.362,0,0,1,33.71,2.043a10.577,10.577,0,0,1-1.6-3.261A13.921,13.921,0,0,1,31.57-5.2ZM43.462,0H41.335V-10.281L38.2-9.211V-11l4.992-1.837h.272Zm4.887,2.883L47.2,2.2A6.21,6.21,0,0,0,47.9.8a4.157,4.157,0,0,0,.2-1.208V-2.065h1.925L50.01-.527a4.287,4.287,0,0,1-.47,1.868A4.64,4.64,0,0,1,48.349,2.883ZM65.874-7.84h-1.4v5.15a1.169,1.169,0,0,0,.215.787,1,1,0,0,0,.769.242,3.622,3.622,0,0,0,.747-.088V-.1a4.715,4.715,0,0,1-1.406.2q-2.461,0-2.461-2.716V-7.84H59.423V0H57.287V-7.84h-1.5V-9.51h10.09Zm5.862,2.777A13.224,13.224,0,0,1,71.2-1.3a10.671,10.671,0,0,1-1.626,3.3A6.367,6.367,0,0,1,67.3,4.069l-.422-1.187A6.754,6.754,0,0,0,68.963-.233a13.84,13.84,0,0,0,.769-4.786v-.2a14.044,14.044,0,0,0-.668-4.452,7.852,7.852,0,0,0-1.916-3.221l-.272-.246.422-1.2a6.3,6.3,0,0,1,2.18,1.934,10.491,10.491,0,0,1,1.617,3.107,12.941,12.941,0,0,1,.633,3.546Z" transform="translate(438.714 19609.471)" fill="#12263f"/>
    <path id="Trazado_205131" data-name="Trazado 205131" d="M-7585.183,4464.8s2.813-2.684,8.724,0a6.641,6.641,0,0,0,8.828-2.659" transform="translate(8000.835 15139.583)" fill="none" stroke="#12263f" stroke-width="2"/>
  </g>
</svg>
