<svg xmlns="http://www.w3.org/2000/svg" width="295" height="81" viewBox="0 0 295 81">
  <g id="Grupo_974157" data-name="Grupo 974157" transform="translate(-274.995 -5217.762)">
    <path id="Trazado_705347" data-name="Trazado 705347" d="M10,0H285a10,10,0,0,1,10,10V71a10,10,0,0,1-10,10H10A10,10,0,0,1,0,71V10A10,10,0,0,1,10,0Z" transform="translate(274.995 5217.762)" fill="#7125c8"/>
    <path id="Trazado_705348" data-name="Trazado 705348" d="M3.524-4.746V0H1.3V-12.8H6.2A4.95,4.95,0,0,1,9.6-11.679a3.757,3.757,0,0,1,1.261,2.956,3.633,3.633,0,0,1-1.235,2.93A5.19,5.19,0,0,1,6.17-4.746Zm0-1.793H6.2A2.632,2.632,0,0,0,8.007-7.1,2.051,2.051,0,0,0,8.631-8.71,2.213,2.213,0,0,0,8-10.367,2.439,2.439,0,0,0,6.258-11H3.524ZM17.112-5.2a13.393,13.393,0,0,1,.545-3.854,10.578,10.578,0,0,1,1.6-3.261,6.351,6.351,0,0,1,2.232-2.017l.422,1.248a6.524,6.524,0,0,0-2.008,2.87A12.852,12.852,0,0,0,19.063-5.8l-.009.756a13.972,13.972,0,0,0,.751,4.75,7,7,0,0,0,2.1,3.177l-.422,1.187a6.362,6.362,0,0,1-2.237-2.026,10.577,10.577,0,0,1-1.6-3.261A13.921,13.921,0,0,1,17.112-5.2Zm14.572.545a5.662,5.662,0,0,1-1,3.52A3.209,3.209,0,0,1,27.993.176a3.23,3.23,0,0,1-2.5-1.028V3.656H23.353V-9.51h1.969l.088.967a3.137,3.137,0,0,1,2.558-1.143,3.242,3.242,0,0,1,2.729,1.3,5.813,5.813,0,0,1,.989,3.6Zm-2.127-.185A3.966,3.966,0,0,0,28.991-7.1a1.843,1.843,0,0,0-1.622-.835,1.965,1.965,0,0,0-1.881,1.081v4.219a1.983,1.983,0,0,0,1.9,1.107,1.841,1.841,0,0,0,1.6-.822A4.366,4.366,0,0,0,29.558-4.843ZM39.173,0a3.3,3.3,0,0,1-.246-.888,3.325,3.325,0,0,1-2.5,1.063,3.355,3.355,0,0,1-2.338-.817,2.615,2.615,0,0,1-.905-2.021A2.7,2.7,0,0,1,34.317-5a5.473,5.473,0,0,1,3.23-.813h1.31v-.624a1.666,1.666,0,0,0-.413-1.182,1.638,1.638,0,0,0-1.257-.444,1.881,1.881,0,0,0-1.2.365,1.129,1.129,0,0,0-.466.927H33.39a2.37,2.37,0,0,1,.519-1.463A3.455,3.455,0,0,1,35.319-9.3a4.955,4.955,0,0,1,1.991-.387,3.99,3.99,0,0,1,2.663.839,2.993,2.993,0,0,1,1.02,2.36V-2.2a4.861,4.861,0,0,0,.36,2.048V0ZM36.826-1.538a2.429,2.429,0,0,0,1.191-.308,2.055,2.055,0,0,0,.839-.826V-4.465H37.705a3.148,3.148,0,0,0-1.784.413,1.338,1.338,0,0,0-.6,1.169,1.248,1.248,0,0,0,.409.98A1.583,1.583,0,0,0,36.826-1.538ZM48.208-7.559a5.285,5.285,0,0,0-.87-.07A1.959,1.959,0,0,0,45.36-6.5V0H43.225V-9.51h2.039l.053,1.063a2.406,2.406,0,0,1,2.145-1.239,2,2,0,0,1,.756.123Zm26.367,3h1.591v1.714H74.575V0H72.439V-2.848H66.911l-.062-1.3,5.52-8.648h2.206Zm-5.484,0h3.349V-9.905l-.158.281Zm17.227-.5A13.224,13.224,0,0,1,85.781-1.3a10.671,10.671,0,0,1-1.626,3.3,6.367,6.367,0,0,1-2.276,2.061l-.422-1.187A6.754,6.754,0,0,0,83.544-.233a13.84,13.84,0,0,0,.769-4.786v-.2a14.044,14.044,0,0,0-.668-4.452,7.852,7.852,0,0,0-1.916-3.221l-.272-.246.422-1.2a6.3,6.3,0,0,1,2.18,1.934,10.491,10.491,0,0,1,1.617,3.107,12.941,12.941,0,0,1,.633,3.546Zm14.467-1.793H93.208V-8.631h7.576Zm0,3.727H93.208V-4.9h7.576Z" transform="translate(294.995 5264.762)" fill="#fff"/>
    <path id="Trazado_705349" data-name="Trazado 705349" d="M13.333-6.855H5.757V-8.631h7.576Zm0,3.727H5.757V-4.9h7.576ZM32.818-5.388a6.979,6.979,0,0,1-1.033,4.162,3.647,3.647,0,0,1-3.142,1.4,3.7,3.7,0,0,1-3.125-1.367,6.683,6.683,0,0,1-1.077-4.047V-7.453a6.874,6.874,0,0,1,1.033-4.14,3.681,3.681,0,0,1,3.151-1.38,3.7,3.7,0,0,1,3.133,1.345A6.664,6.664,0,0,1,32.818-7.6ZM30.683-7.778a5.415,5.415,0,0,0-.492-2.641,1.68,1.68,0,0,0-1.564-.839,1.679,1.679,0,0,0-1.538.8,5,5,0,0,0-.519,2.483v2.9a5.555,5.555,0,0,0,.5,2.672,1.683,1.683,0,0,0,1.573.879,1.653,1.653,0,0,0,1.521-.813,5.226,5.226,0,0,0,.519-2.544ZM35.147,2.883,34,2.2A6.21,6.21,0,0,0,34.695.8a4.157,4.157,0,0,0,.2-1.208V-2.065h1.925L36.809-.527a4.287,4.287,0,0,1-.47,1.868A4.64,4.64,0,0,1,35.147,2.883ZM44.446,0H42.319V-10.281l-3.138,1.07V-11l4.992-1.837h.272ZM55.538-12.858v1.767h-.264a4.239,4.239,0,0,0-2.865.984,4.119,4.119,0,0,0-1.274,2.716,3.468,3.468,0,0,1,2.628-1.081,3.276,3.276,0,0,1,2.676,1.2,4.708,4.708,0,0,1,.98,3.085,4.4,4.4,0,0,1-1.147,3.16A3.959,3.959,0,0,1,53.262.176a3.867,3.867,0,0,1-3.107-1.415,5.566,5.566,0,0,1-1.191-3.709v-.729A7.832,7.832,0,0,1,50.6-10.951a5.877,5.877,0,0,1,4.715-1.907ZM53.244-6.75a2.249,2.249,0,0,0-1.288.4A2.312,2.312,0,0,0,51.1-5.3v.65a3.831,3.831,0,0,0,.6,2.263,1.823,1.823,0,0,0,1.547.839,1.8,1.8,0,0,0,1.5-.712A2.965,2.965,0,0,0,55.3-4.131a3.007,3.007,0,0,0-.562-1.89A1.793,1.793,0,0,0,53.244-6.75Z" transform="translate(441.188 5264.762)" fill="#fff"/>
    <path id="Trazado_705350" data-name="Trazado 705350" d="M6.741,0H4.614V-10.281L1.477-9.211V-11l4.992-1.837h.272Z" transform="translate(414.639 5254.762)" fill="#fff"/>
    <path id="Trazado_704736" data-name="Trazado 704736" d="M-8334.53,21212.5h28.386" transform="translate(8739.64 -15952.238)" fill="none" stroke="#fff" stroke-width="1"/>
    <path id="Trazado_705351" data-name="Trazado 705351" d="M7.6-12.858v1.767H7.339a4.239,4.239,0,0,0-2.865.984A4.119,4.119,0,0,0,3.2-7.392,3.468,3.468,0,0,1,5.827-8.473,3.276,3.276,0,0,1,8.5-7.277a4.708,4.708,0,0,1,.98,3.085,4.4,4.4,0,0,1-1.147,3.16A3.959,3.959,0,0,1,5.326.176,3.867,3.867,0,0,1,2.219-1.239,5.566,5.566,0,0,1,1.028-4.948v-.729a7.832,7.832,0,0,1,1.639-5.273,5.877,5.877,0,0,1,4.715-1.907ZM5.309-6.75a2.249,2.249,0,0,0-1.288.4A2.312,2.312,0,0,0,3.164-5.3v.65a3.831,3.831,0,0,0,.6,2.263,1.823,1.823,0,0,0,1.547.839,1.8,1.8,0,0,0,1.5-.712,2.965,2.965,0,0,0,.554-1.872A3.007,3.007,0,0,0,6.8-6.021,1.793,1.793,0,0,0,5.309-6.75Z" transform="translate(414.639 5278.762)" fill="#fff"/>
    <path id="Trazado_704737" data-name="Trazado 704737" d="M10.661-12.8v8.552a4.156,4.156,0,0,1-1.305,3.23A4.958,4.958,0,0,1,5.88.176,4.993,4.993,0,0,1,2.391-1,4.176,4.176,0,0,1,1.1-4.254V-12.8H3.313v8.561a2.719,2.719,0,0,0,.65,1.96A2.537,2.537,0,0,0,5.88-1.6q2.566,0,2.566-2.707V-12.8Z" transform="translate(359.094 5252.949) rotate(180)" fill="#fff"/>
  </g>
</svg>
