<svg id="Grupo_973937" data-name="Grupo 973937" xmlns="http://www.w3.org/2000/svg" xmlns:xlink="http://www.w3.org/1999/xlink" width="470" height="470" viewBox="0 0 470 470">
  <defs>
    <clipPath id="clip-path">
      <path id="SVGID" d="M-6296.735,13513.061s11.749,25.075,11.749,26.4-10.423,6.993-12.411,8.184a48.4,48.4,0,0,1-4.754,2.373l1.192,11.614s17.946-4.091,25.47-8.186,7.258-8.713,5.515-15.573-13.335-33.379-13.335-33.379Z" transform="translate(6302.151 -13504.491)" fill="none" opacity="0"/>
    </clipPath>
    <clipPath id="clip-path-2">
      <path id="SVGID-2" data-name="SVGID" d="M-6349.555,13506.426s-8.572,31.4-8.824,36.953,17.02,16.488,17.647,17.15-.981-19.082-.981-19.082l5.856-28.68Z" transform="translate(6358.382 -13506.426)" fill="none" opacity="0"/>
    </clipPath>
    <clipPath id="clip-path-3">
      <path id="SVGID-3" data-name="SVGID" d="M-6335.011,13483.867s3.431,12.135,9.927,19.271,8.824,8.824,12.277,8.306,7.126-5.006,12.267-14.339,5.514-16.488,5.945-17.153-1.1-13.854-8.45-19.535-15.574-8.173-22.7-1.973S-6337.395,13474.759-6335.011,13483.867Z" transform="translate(6335.652 -13454.822)" fill="none" opacity="0"/>
    </clipPath>
  </defs>
  <rect id="Rectángulo_33056" data-name="Rectángulo 33056" width="470" height="470" fill="#aed3f2" opacity="0"/>
  <g id="Grupo_92180" data-name="Grupo 92180">
    <rect id="Rectángulo_33057" data-name="Rectángulo 33057" width="470" height="470" fill="#aed3f2" opacity="0"/>
    <g id="Grupo_92179" data-name="Grupo 92179" transform="translate(45.27 33.902)">
      <g id="freepik--background-simple--inject-1--inject-91" transform="translate(0 31.205)">
        <path id="Trazado_146979" data-name="Trazado 146979" d="M-6061.556,13551.463c1.688-45.687-14.725-91.929-50.905-113.934-17.859-10.866-38.739-17.229-59.63-16.292-22.414,1-43.516,10.127-64.65,17.647s-44.023,13.535-65.809,8.2c-15.762-3.859-29.626-13.4-45.224-17.746-61.45-17.108-114.959,52.615-84.891,108.043,7.379,13.59,18.751,24.487,28.316,36.654s17.582,26.861,16.291,42.269c-1.1,12.763-8.338,24.125-11.351,36.566-5.757,23.836,5.67,50.058,25.426,64.584s46.4,17.914,70.233,11.936,44.783-20.605,61.3-38.718c8.825-9.707,17.472-21.047,30.169-24.344,12.187-3.155,24.751,1.984,37.116,4.346a85.481,85.481,0,0,0,65.928-15C-6079.4,13633.595-6063.079,13592.752-6061.556,13551.463Z" transform="translate(6441.284 -13421.146)" fill="#cfb7ff"/>
      </g>
      <g id="freepik--graphics-2--inject-1--inject-91" transform="translate(228.393 0)">
        <line id="Línea_2032" data-name="Línea 2032" x2="48.622" transform="translate(5.524 58.387)" fill="none" stroke="#263238" stroke-linecap="round" stroke-linejoin="round" stroke-width="1" opacity="0"/>
        <line id="Línea_2033" data-name="Línea 2033" x2="48.622" transform="translate(5.524 64.662)" fill="none" stroke="#263238" stroke-linecap="round" stroke-linejoin="round" stroke-width="1" opacity="0"/>
        <line id="Línea_2034" data-name="Línea 2034" x2="48.622" transform="translate(5.524 70.938)" fill="none" stroke="#263238" stroke-linecap="round" stroke-linejoin="round" stroke-width="1" opacity="0"/>
        <line id="Línea_2035" data-name="Línea 2035" x2="48.622" transform="translate(5.524 77.215)" fill="none" stroke="#263238" stroke-linecap="round" stroke-linejoin="round" stroke-width="1" opacity="0"/>
        <line id="Línea_2036" data-name="Línea 2036" x2="48.622" transform="translate(5.524 83.491)" fill="none" stroke="#263238" stroke-linecap="round" stroke-linejoin="round" stroke-width="1" opacity="0"/>
        <line id="Línea_2037" data-name="Línea 2037" x2="48.622" transform="translate(5.524 89.78)" fill="none" stroke="#263238" stroke-linecap="round" stroke-linejoin="round" stroke-width="1" opacity="0"/>
        <line id="Línea_2038" data-name="Línea 2038" x2="48.622" transform="translate(5.524 96.054)" fill="none" stroke="#263238" stroke-linecap="round" stroke-linejoin="round" stroke-width="1" opacity="0"/>
        <line id="Línea_2039" data-name="Línea 2039" x2="48.622" transform="translate(5.524 102.331)" fill="none" stroke="#263238" stroke-linecap="round" stroke-linejoin="round" stroke-width="1" opacity="0"/>
        <line id="Línea_2040" data-name="Línea 2040" x2="48.622" transform="translate(5.524 108.607)" fill="none" stroke="#263238" stroke-linecap="round" stroke-linejoin="round" stroke-width="1" opacity="0"/>
        <line id="Línea_2041" data-name="Línea 2041" x2="48.622" transform="translate(62.695 58.387)" fill="none" stroke="#263238" stroke-linecap="round" stroke-linejoin="round" stroke-width="1" opacity="0"/>
        <line id="Línea_2042" data-name="Línea 2042" x2="48.622" transform="translate(62.695 64.662)" fill="none" stroke="#263238" stroke-linecap="round" stroke-linejoin="round" stroke-width="1" opacity="0"/>
        <line id="Línea_2043" data-name="Línea 2043" x2="48.622" transform="translate(62.695 70.938)" fill="none" stroke="#263238" stroke-linecap="round" stroke-linejoin="round" stroke-width="1" opacity="0"/>
        <line id="Línea_2044" data-name="Línea 2044" x2="48.622" transform="translate(62.695 77.215)" fill="none" stroke="#263238" stroke-linecap="round" stroke-linejoin="round" stroke-width="1" opacity="0"/>
        <line id="Línea_2045" data-name="Línea 2045" x2="48.622" transform="translate(62.695 83.491)" fill="none" stroke="#263238" stroke-linecap="round" stroke-linejoin="round" stroke-width="1" opacity="0"/>
        <line id="Línea_2046" data-name="Línea 2046" x2="48.622" transform="translate(62.695 89.78)" fill="none" stroke="#263238" stroke-linecap="round" stroke-linejoin="round" stroke-width="1" opacity="0"/>
        <line id="Línea_2047" data-name="Línea 2047" x2="48.622" transform="translate(62.695 96.054)" fill="none" stroke="#263238" stroke-linecap="round" stroke-linejoin="round" stroke-width="1" opacity="0"/>
        <line id="Línea_2048" data-name="Línea 2048" x2="48.622" transform="translate(62.695 102.331)" fill="none" stroke="#263238" stroke-linecap="round" stroke-linejoin="round" stroke-width="1" opacity="0"/>
        <line id="Línea_2049" data-name="Línea 2049" x2="48.622" transform="translate(62.695 108.607)" fill="none" stroke="#263238" stroke-linecap="round" stroke-linejoin="round" stroke-width="1" opacity="0"/>
        <path id="Trazado_146984" data-name="Trazado 146984" d="M-6207.188,13494.452H-6255.4a7.148,7.148,0,0,0-7.148,7.148h0v25.79a7.148,7.148,0,0,0,7.148,7.146h1.479c-1.5,3.309-4.413,8.384-9.013,11.394,0,0,9.784-.685,19.975-11.394h35.752a7.148,7.148,0,0,0,7.146-7.146h0v-25.79A7.147,7.147,0,0,0-6207.188,13494.452Z" transform="translate(6314.182 -13348.307)" fill="#7125c8" stroke="#263238" stroke-linecap="round" stroke-linejoin="round" stroke-width="1"/>
        <path id="Trazado_146985" data-name="Trazado 146985" d="M-6245.376,13507.99a3.683,3.683,0,0,0-3.674-3.7,3.681,3.681,0,0,0-3.694,3.672,3.686,3.686,0,0,0,3.673,3.7h.021A3.684,3.684,0,0,0-6245.376,13507.99Z" transform="translate(6319.972 -13342.718)" fill="#fff" stroke="#263238" stroke-linecap="round" stroke-linejoin="round" stroke-width="1"/>
        <path id="Trazado_146986" data-name="Trazado 146986" d="M-6237.413,13507.982a3.675,3.675,0,0,0-3.673-3.676,3.675,3.675,0,0,0-3.673,3.676,3.671,3.671,0,0,0,3.673,3.672h0A3.684,3.684,0,0,0-6237.413,13507.982Z" transform="translate(6324.507 -13342.71)" fill="#fff" stroke="#263238" stroke-linecap="round" stroke-linejoin="round" stroke-width="1"/>
        <path id="Trazado_146987" data-name="Trazado 146987" d="M-6229.429,13507.99a3.683,3.683,0,0,0-3.672-3.7,3.682,3.682,0,0,0-3.695,3.672,3.686,3.686,0,0,0,3.673,3.7h.012A3.692,3.692,0,0,0-6229.429,13507.99Z" transform="translate(6329.03 -13342.718)" fill="#fff" stroke="#263238" stroke-linecap="round" stroke-linejoin="round" stroke-width="1"/>
        <g id="Grupo_92182" data-name="Grupo 92182" transform="translate(0)">
          <g id="Grupo_79085" data-name="Grupo 79085" transform="translate(0)">
            <rect id="Rectángulo_30234" data-name="Rectángulo 30234" width="110.301" height="106.199" rx="8.41" fill="#e6e6e6"/>
          </g>
          <g id="Grupo_79114" data-name="Grupo 79114" transform="translate(7.708 11.218)">
            <g id="Grupo_79108" data-name="Grupo 79108">
              <g id="Grupo_79086" data-name="Grupo 79086" transform="translate(0 61.534)">
                <rect id="Rectángulo_30235" data-name="Rectángulo 30235" width="3.62" height="1.043" fill="#263238"/>
              </g>
              <g id="Grupo_79087" data-name="Grupo 79087" transform="translate(8.19 67.111)">
                <rect id="Rectángulo_30236" data-name="Rectángulo 30236" width="4.629" height="1.043" fill="#263238"/>
              </g>
              <g id="Grupo_79088" data-name="Grupo 79088" transform="translate(24.305 67.111)">
                <rect id="Rectángulo_30237" data-name="Rectángulo 30237" width="4.629" height="1.043" fill="#263238"/>
              </g>
              <g id="Grupo_79089" data-name="Grupo 79089" transform="translate(40.421 67.111)">
                <rect id="Rectángulo_30238" data-name="Rectángulo 30238" width="4.629" height="1.043" fill="#263238"/>
              </g>
              <g id="Grupo_79090" data-name="Grupo 79090" transform="translate(56.537 67.111)">
                <rect id="Rectángulo_30239" data-name="Rectángulo 30239" width="4.629" height="1.043" fill="#263238"/>
              </g>
              <g id="Grupo_79091" data-name="Grupo 79091" transform="translate(72.652 67.111)">
                <rect id="Rectángulo_30240" data-name="Rectángulo 30240" width="4.629" height="1.043" fill="#263238"/>
              </g>
              <g id="Grupo_79092" data-name="Grupo 79092" transform="translate(88.768 67.111)">
                <rect id="Rectángulo_30241" data-name="Rectángulo 30241" width="4.629" height="1.043" fill="#263238"/>
              </g>
              <g id="Grupo_79093" data-name="Grupo 79093" transform="translate(0 47.601)">
                <rect id="Rectángulo_30242" data-name="Rectángulo 30242" width="3.62" height="1.043" fill="#263238"/>
              </g>
              <g id="Grupo_79094" data-name="Grupo 79094" transform="translate(0 21.379)">
                <rect id="Rectángulo_30243" data-name="Rectángulo 30243" width="3.62" height="1.043" fill="#263238"/>
              </g>
              <g id="Grupo_79095" data-name="Grupo 79095" transform="translate(0 8.202)">
                <rect id="Rectángulo_30244" data-name="Rectángulo 30244" width="3.62" height="1.043" fill="#263238"/>
              </g>
              <g id="Grupo_79096" data-name="Grupo 79096" transform="translate(0.183 34.49)">
                <rect id="Rectángulo_30245" data-name="Rectángulo 30245" width="3.62" height="1.043" fill="#263238"/>
              </g>
              <g id="Grupo_79098" data-name="Grupo 79098" transform="translate(5.339)">
                <g id="Grupo_79097" data-name="Grupo 79097">
                  <path id="Trazado_138854" data-name="Trazado 138854" d="M457.013,329.306s-.132.012-.388.018l-1.139.017-4.381.032L435,329.427l-53.148.05-12.595,0h-.169v-.169c.023-17.772.043-33.411.058-44.622.022-5.59.039-10.076.051-13.177.013-1.534.022-2.725.03-3.547.007-.395.011-.7.015-.919s.016-.312.016-.312.01.105.016.312.009.524.015.919c.007.822.016,2.013.029,3.547.012,3.1.03,7.587.051,13.177.015,11.211.035,26.85.058,44.622l-.169-.169,12.595,0,53.148.05,16.109.055,4.381.032,1.139.016C456.881,329.294,457.013,329.306,457.013,329.306Z" transform="translate(-369.084 -266.729)" fill="#263238"/>
                </g>
              </g>
              <g id="Grupo_79100" data-name="Grupo 79100" transform="translate(9.01 34.84)">
                <g id="Grupo_79099" data-name="Grupo 79099">
                  <path id="Trazado_138855" data-name="Trazado 138855" d="M459.933,319.774c0,.095-19.091.172-42.637.172s-42.641-.077-42.641-.172,19.087-.171,42.641-.171S459.933,319.679,459.933,319.774Z" transform="translate(-374.655 -319.603)" fill="#263238"/>
                </g>
              </g>
              <g id="Grupo_79102" data-name="Grupo 79102" transform="translate(9.01 21.729)">
                <g id="Grupo_79101" data-name="Grupo 79101">
                  <path id="Trazado_138856" data-name="Trazado 138856" d="M459.933,299.877c0,.095-19.091.171-42.637.171s-42.641-.076-42.641-.171,19.087-.172,42.641-.172S459.933,299.782,459.933,299.877Z" transform="translate(-374.655 -299.705)" fill="#263238"/>
                </g>
              </g>
              <g id="Grupo_79104" data-name="Grupo 79104" transform="translate(9.01 8.552)">
                <g id="Grupo_79103" data-name="Grupo 79103">
                  <path id="Trazado_138857" data-name="Trazado 138857" d="M459.933,279.878c0,.095-19.091.172-42.637.172s-42.641-.077-42.641-.172,19.087-.171,42.641-.171S459.933,279.784,459.933,279.878Z" transform="translate(-374.655 -279.707)" fill="#263238"/>
                </g>
              </g>
              <g id="Grupo_79106" data-name="Grupo 79106" transform="translate(9.01 47.951)">
                <g id="Grupo_79105" data-name="Grupo 79105">
                  <path id="Trazado_138858" data-name="Trazado 138858" d="M459.933,339.672c0,.094-19.091.171-42.637.171s-42.641-.077-42.641-.171,19.087-.172,42.641-.172S459.933,339.577,459.933,339.672Z" transform="translate(-374.655 -339.5)" fill="#263238"/>
                </g>
              </g>
              <g id="Grupo_79107" data-name="Grupo 79107" transform="translate(9.889 0.967)">
                <path id="Trazado_138859" data-name="Trazado 138859" d="M459.368,326.984V315.352l-7.25-11.256-4.92,3.775-10.1-15.686-5.956,4.194-8.286-14.471-6.732,5.484-10.1-19.2-10.876,21.455-8.8-10.735-10.358-2.964v51.032Z" transform="translate(-375.989 -268.196)" fill="#25ffff"/>
              </g>
            </g>
            <g id="Grupo_79110" data-name="Grupo 79110" transform="translate(9.889 4.497)">
              <g id="Grupo_79109" data-name="Grupo 79109">
                <path id="Trazado_138860" data-name="Trazado 138860" d="M460.388,273.65a.9.9,0,0,1-.183.013l-.54.013-2.1.024-7.948.045.076-.037-8.516,11.132-.041.053h-.067l-21.324.03.142-.08-8.965,14.925c-3.053,5.076-6.01,9.989-8.8,14.63l-.129.214-.146-.2-11.55-15.883.231-.007-10.537,16.417c-1.263,1.95-2.254,3.482-2.939,4.538l-.78,1.185c-.178.266-.279.4-.279.4s.076-.146.242-.42l.745-1.207,2.874-4.579,10.436-16.481.11-.173.121.166,11.591,15.853-.275.012,8.792-14.636,8.976-14.918.049-.08h.093l21.324.03-.107.053,8.58-11.083.03-.038h.046l7.948.045,2.1.024.54.012A1.045,1.045,0,0,1,460.388,273.65Z" transform="translate(-375.989 -273.554)" fill="#263238"/>
              </g>
            </g>
            <g id="Grupo_79111" data-name="Grupo 79111" transform="translate(26.164 32.328)">
              <path id="Trazado_138861" data-name="Trazado 138861" d="M402.325,316.577a.819.819,0,1,1-.819-.787A.8.8,0,0,1,402.325,316.577Z" transform="translate(-400.689 -315.79)" fill="#263238"/>
            </g>
            <g id="Grupo_79112" data-name="Grupo 79112" transform="translate(50.76 18.348)">
              <path id="Trazado_138862" data-name="Trazado 138862" d="M439.652,295.361a.819.819,0,1,1-.818-.787A.8.8,0,0,1,439.652,295.361Z" transform="translate(-438.016 -294.574)" fill="#263238"/>
            </g>
            <g id="Grupo_79113" data-name="Grupo 79113" transform="translate(69.881 14.913)">
              <path id="Trazado_138863" data-name="Trazado 138863" d="M468.67,290.149a.819.819,0,1,1-.818-.788A.8.8,0,0,1,468.67,290.149Z" transform="translate(-467.034 -289.361)" fill="#263238"/>
            </g>
          </g>
          <g id="Grupo_79115" data-name="Grupo 79115" transform="translate(15.898 87.174)">
            <ellipse id="Elipse_4180" data-name="Elipse 4180" cx="5.29" cy="5.094" rx="5.29" ry="5.094" fill="#fff"/>
          </g>
          <g id="Grupo_79116" data-name="Grupo 79116" transform="translate(34.328 88.856)">
            <rect id="Rectángulo_30246" data-name="Rectángulo 30246" width="62.148" height="1.906" fill="#fff"/>
          </g>
          <g id="Grupo_79117" data-name="Grupo 79117" transform="translate(34.328 93.617)">
            <rect id="Rectángulo_30247" data-name="Rectángulo 30247" width="25.805" height="1.906" fill="#fff"/>
          </g>
        </g>
      </g>
      <g id="freepik--Character--inject-1--inject-91" transform="translate(79.214 55.32)">
        <path id="Trazado_146992" data-name="Trazado 146992" d="M-6296.735,13513.061s11.749,25.075,11.749,26.4-10.423,6.993-12.411,8.184a48.4,48.4,0,0,1-4.754,2.373l1.192,11.614s17.946-4.091,25.47-8.186,7.258-8.713,5.515-15.573-13.335-33.379-13.335-33.379Z" transform="translate(6441.091 -13397.926)" fill="#ffbf9d"/>
        <g id="Grupo_92172" data-name="Grupo 92172" transform="translate(138.94 106.566)">
          <g id="Grupo_92171" data-name="Grupo 92171" clip-path="url(#clip-path)">
            <g id="Grupo_92170" data-name="Grupo 92170" transform="translate(8.373)">
              <path id="Trazado_146993" data-name="Trazado 146993" d="M-6278.555,13553.443c7.521-4.093,7.257-8.713,5.514-15.573s-13.334-33.379-13.334-33.379l-1.876,1.191-.6,1.1s10.821,26.558,11.471,35.408c.442,5.944-11.526,13.356-19.434,17.592C-6290.943,13558.23-6282.957,13555.839-6278.555,13553.443Z" transform="translate(6296.81 -13504.491)" fill="#d9a171" opacity="0.5" style="isolation: isolate"/>
            </g>
          </g>
        </g>
        <path id="Trazado_146994" data-name="Trazado 146994" d="M-6296.735,13513.061s11.749,25.075,11.749,26.4-10.423,6.993-12.411,8.184a48.4,48.4,0,0,1-4.754,2.373l1.192,11.614s17.946-4.091,25.47-8.186,7.258-8.713,5.515-15.573-13.335-33.379-13.335-33.379Z" transform="translate(6441.091 -13397.926)" fill="none" stroke="#263238" stroke-linecap="round" stroke-linejoin="round" stroke-width="1" opacity="0"/>
        <path id="Trazado_146995" data-name="Trazado 146995" d="M-6349.555,13506.426s-8.572,31.4-8.824,36.953,17.02,16.488,17.647,17.15-.981-19.082-.981-19.082l5.856-28.68Z" transform="translate(6409.153 -13396.826)" fill="#ffbf9d"/>
        <g id="Grupo_92175" data-name="Grupo 92175" transform="translate(50.771 109.599)">
          <g id="Grupo_92174" data-name="Grupo 92174" clip-path="url(#clip-path-2)">
            <g id="Grupo_92173" data-name="Grupo 92173">
              <path id="Trazado_146996" data-name="Trazado 146996" d="M-6345.629,13509l-.187-.85-3.739-1.721s-8.572,31.4-8.824,36.953,17.02,16.488,17.647,17.15c.254.264.154-2.691-.056-6.342-5.139-4.357-12.519-10.488-13.379-13.07" transform="translate(6358.382 -13506.426)" fill="#d9a171" opacity="0.5" style="isolation: isolate"/>
            </g>
          </g>
        </g>
        <path id="Trazado_146997" data-name="Trazado 146997" d="M-6349.555,13506.426s-8.572,31.4-8.824,36.953,17.02,16.488,17.647,17.15-.981-19.082-.981-19.082l5.856-28.68Z" transform="translate(6409.153 -13396.826)" fill="none" stroke="#263238" stroke-linecap="round" stroke-linejoin="round" stroke-width="1" opacity="0"/>
        <path id="Trazado_146998" data-name="Trazado 146998" d="M-6310.258,13487.189s-3.309,2.383-9.763,2.648-6.761-4.414-14.78-4.414c-9.717,0-21.906,30.742-21.906,30.742s6.066,5.945,12.012,8.449a42.7,42.7,0,0,0,10.292,3.035l.927,20.2h65.455l.783-20.2,20.46-13.27s-10.036-17.947-14.912-24.674-13.071-4.229-15.575-2.518-9.928,2.117-12.662,1.721a108.67,108.67,0,0,1-10.568-2.9S-6304.709,13482.5-6310.258,13487.189Z" transform="translate(6410.105 -13409.139)" fill="#0b428a" stroke="#263238" stroke-linecap="round" stroke-linejoin="round" stroke-width="1"/>
        <line id="Línea_2054" data-name="Línea 2054" x1="0.265" y2="33.522" transform="translate(76.099 85.178)" fill="none" stroke="#263238" stroke-linecap="round" stroke-linejoin="round" stroke-width="0.5" opacity="0"/>
        <path id="Trazado_146999" data-name="Trazado 146999" d="M-6340.547,13492.793s.926,16.358,4.413,25.47" transform="translate(6419.283 -13404.571)" fill="none" stroke="#263238" stroke-linecap="round" stroke-linejoin="round" stroke-width="0.5" opacity="0"/>
        <path id="Trazado_147000" data-name="Trazado 147000" d="M-6337.347,13509.873a45.073,45.073,0,0,0,2.769,6.463" transform="translate(6421.101 -13394.868)" fill="none" stroke="#263238" stroke-linecap="round" stroke-linejoin="round" stroke-width="0.5" opacity="0"/>
        <path id="Trazado_147001" data-name="Trazado 147001" d="M-6339.2,13491.611a104.7,104.7,0,0,0,5.285,17.415" transform="translate(6420.047 -13405.242)" fill="none" stroke="#263238" stroke-linecap="round" stroke-linejoin="round" stroke-width="0.5" opacity="0"/>
        <path id="Trazado_147002" data-name="Trazado 147002" d="M-6300.765,13493.459s-3.165,12.938-5.945,18.756" transform="translate(6438.501 -13404.189)" fill="none" stroke="#263238" stroke-linecap="round" stroke-linejoin="round" stroke-width="0.5" opacity="0"/>
        <line id="Línea_2055" data-name="Línea 2055" x1="0.132" y1="26.131" transform="translate(142.734 92.436)" fill="none" stroke="#263238" stroke-linecap="round" stroke-linejoin="round" stroke-width="0.5" opacity="0"/>
        <path id="Trazado_147003" data-name="Trazado 147003" d="M-6297.6,13495.816s-2.383,16.545-8.185,25.2" transform="translate(6439.025 -13402.851)" fill="none" stroke="#263238" stroke-linecap="round" stroke-linejoin="round" stroke-width="0.5" opacity="0"/>
        <path id="Trazado_147004" data-name="Trazado 147004" d="M-6300.792,13509.789s-2.648,5.019-4.488,7.656" transform="translate(6439.313 -13394.918)" fill="none" stroke="#263238" stroke-linecap="round" stroke-linejoin="round" stroke-width="0.5" opacity="0"/>
        <path id="Trazado_147005" data-name="Trazado 147005" d="M-6329.439,13487.571s1.852,11.35,4.489,17.151,7.258,6.994,11.217,5.284,6.861-10.17,6.618-20.958" transform="translate(6425.593 -13407.534)" fill="none" stroke="#263238" stroke-linecap="round" stroke-linejoin="round" stroke-width="0.5" opacity="0"/>
        <path id="Trazado_147006" data-name="Trazado 147006" d="M-6333.577,13473.416s-2.514-4.347-4.488-2.108,1.587,7.391,3.563,9.1,3.43.66,3.308-1.182S-6333.577,13473.416-6333.577,13473.416Z" transform="translate(6420.365 -13417.138)" fill="#d9a171" stroke="#263238" stroke-linecap="round" stroke-linejoin="round" stroke-width="1"/>
        <path id="Trazado_147007" data-name="Trazado 147007" d="M-6333.577,13473.416s-2.514-4.347-4.488-2.108,1.587,7.391,3.563,9.1,3.43.66,3.308-1.182S-6333.577,13473.416-6333.577,13473.416Z" transform="translate(6420.365 -13417.138)" fill="#fff" stroke="#5e6178" stroke-miterlimit="10" stroke-width="0" opacity="0.5" style="isolation: isolate"/>
        <path id="Trazado_147008" data-name="Trazado 147008" d="M-6333.577,13473.416s-2.514-4.347-4.488-2.108,1.587,7.391,3.563,9.1,3.43.66,3.308-1.182S-6333.577,13473.416-6333.577,13473.416Z" transform="translate(6420.365 -13417.138)" fill="none" stroke="#263238" stroke-linecap="round" stroke-linejoin="round" stroke-width="1" opacity="0"/>
        <path id="Trazado_147009" data-name="Trazado 147009" d="M-6309.088,13473.416s2.5-4.347,4.491-2.108-1.588,7.391-3.564,9.1-3.441.66-3.309-1.182S-6309.088,13473.416-6309.088,13473.416Z" transform="translate(6435.794 -13417.138)" fill="#d9a171" stroke="#263238" stroke-linecap="round" stroke-linejoin="round" stroke-width="1"/>
        <path id="Trazado_147010" data-name="Trazado 147010" d="M-6309.088,13473.416s2.5-4.347,4.491-2.108-1.588,7.391-3.564,9.1-3.441.66-3.309-1.182S-6309.088,13473.416-6309.088,13473.416Z" transform="translate(6435.794 -13417.138)" fill="#fff" stroke="#5e6178" stroke-miterlimit="10" stroke-width="0" opacity="0.5" style="isolation: isolate"/>
        <path id="Trazado_147011" data-name="Trazado 147011" d="M-6309.088,13473.416s2.5-4.347,4.491-2.108-1.588,7.391-3.564,9.1-3.441.66-3.309-1.182S-6309.088,13473.416-6309.088,13473.416Z" transform="translate(6435.794 -13417.138)" fill="none" stroke="#263238" stroke-linecap="round" stroke-linejoin="round" stroke-width="1" opacity="0"/>
        <path id="Trazado_147012" data-name="Trazado 147012" d="M-6327.842,13485.721a142.066,142.066,0,0,0,4.754,16.622c2.382,5.935,6.86,5.935,8.713,2.107s3.035-18.09,3.035-18.09S-6323.751,13488.093-6327.842,13485.721Z" transform="translate(6426.499 -13408.585)" fill="#fff" stroke="#5e6178" stroke-linecap="round" stroke-linejoin="round" stroke-width="1"/>
        <path id="Trazado_147013" data-name="Trazado 147013" d="M-6335.011,13483.867s3.431,12.135,9.927,19.271,8.824,8.824,12.277,8.306,7.126-5.006,12.267-14.339,5.514-16.488,5.945-17.153-1.1-13.854-8.45-19.535-15.574-8.173-22.7-1.973S-6337.395,13474.759-6335.011,13483.867Z" transform="translate(6422.063 -13426.135)" fill="#ffbf9d"/>
        <g id="Grupo_92178" data-name="Grupo 92178" transform="translate(86.412 28.687)">
          <g id="Grupo_92177" data-name="Grupo 92177" clip-path="url(#clip-path-3)">
            <g id="Grupo_92176" data-name="Grupo 92176" transform="translate(-0.003 -0.04)">
              <path id="Trazado_147014" data-name="Trazado 147014" d="M-6303.077,13460.389c-7.392-5.671-15.575-8.173-22.7-1.977s-11.616,16.36-9.231,25.469a56.354,56.354,0,0,0,1.94,5.519,4.17,4.17,0,0,1,.166-1.2c1.577-5,6.232-14.671,21.9-10.236,12.441,3.51,10.918,14.45,9.762,20.285l.672-1.211c5.151-9.367,5.514-16.491,5.945-17.153S-6295.687,13466.069-6303.077,13460.389Z" transform="translate(6335.654 -13454.796)" fill="#d9a171" opacity="0.5" style="isolation: isolate"/>
            </g>
          </g>
        </g>
        <path id="Trazado_147015" data-name="Trazado 147015" d="M-6335.011,13483.867s3.431,12.135,9.927,19.271,8.824,8.824,12.277,8.306,7.126-5.006,12.267-14.339,5.514-16.488,5.945-17.153-1.1-13.854-8.45-19.535-15.574-8.173-22.7-1.973S-6337.395,13474.759-6335.011,13483.867Z" transform="translate(6422.063 -13426.135)" fill="none" stroke="#263238" stroke-linecap="round" stroke-linejoin="round" stroke-width="1" opacity="0"/>
        <path id="Trazado_147016" data-name="Trazado 147016" d="M-6319.86,13477.387a53.868,53.868,0,0,0-.661,7.785c.132,2.638.927,3.434-.265,3.7s-2.5-1.588-2.5-1.588" transform="translate(6429.084 -13413.322)" fill="none" stroke="#263238" stroke-linecap="round" stroke-linejoin="round" stroke-width="1" opacity="0"/>
        <path id="Trazado_147017" data-name="Trazado 147017" d="M-6329.523,13478.736a4.679,4.679,0,0,0,5.284.133" transform="translate(6425.544 -13412.553)" fill="none" stroke="#263238" stroke-linecap="round" stroke-linejoin="round" stroke-width="1" opacity="0"/>
        <path id="Trazado_147018" data-name="Trazado 147018" d="M-6318.831,13478.736a4.666,4.666,0,0,0,5.273.133" transform="translate(6431.618 -13412.553)" fill="none" stroke="#263238" stroke-linecap="round" stroke-linejoin="round" stroke-width="1" opacity="0"/>
        <path id="Trazado_147019" data-name="Trazado 147019" d="M-6320.229,13477.38s-2.515-6.211-10.82-3.31" transform="translate(6424.677 -13415.642)" fill="none" stroke="#263238" stroke-linecap="round" stroke-linejoin="round" stroke-width="1" opacity="0"/>
        <path id="Trazado_147020" data-name="Trazado 147020" d="M-6319.738,13476.732s2.105-6.08,9.629-2.517" transform="translate(6431.103 -13415.754)" fill="none" stroke="#263238" stroke-linecap="round" stroke-linejoin="round" stroke-width="1" opacity="0"/>
        <path id="Trazado_147021" data-name="Trazado 147021" d="M-6316.82,13480.768c0,3.4-3.893,6.144-8.7,6.144s-8.713-2.748-8.713-6.144,3.639-4.812,8.448-4.812S-6316.82,13477.381-6316.82,13480.768Z" transform="translate(6422.868 -13414.129)" fill="none" stroke="#263238" stroke-linecap="round" stroke-linejoin="round" stroke-width="1" opacity="0"/>
        <path id="Trazado_147022" data-name="Trazado 147022" d="M-6304.024,13480.768c0,3.4-3.906,6.144-8.714,6.144s-8.7-2.748-8.7-6.144,3.629-4.812,8.439-4.812S-6304.024,13477.381-6304.024,13480.768Z" transform="translate(6430.135 -13414.129)" fill="none" stroke="#263238" stroke-linecap="round" stroke-linejoin="round" stroke-width="1" opacity="0"/>
        <path id="Trazado_147023" data-name="Trazado 147023" d="M-6381.07,13546.509l-.541,133.725a1.588,1.588,0,0,0,1.588,1.588h0a1.578,1.578,0,0,0,1.578-1.532l3.816-133.593Z" transform="translate(6395.961 -13374.058)" fill="#fff" stroke="#5e6178" stroke-linecap="round" stroke-linejoin="round" stroke-width="1"/>
        <path id="Trazado_147024" data-name="Trazado 147024" d="M-6386.819,13566.447l-.518,138.244a1.577,1.577,0,0,0,1.566,1.589h.022a1.589,1.589,0,0,0,1.588-1.522l3.806-138.136Z" transform="translate(6392.709 -13362.736)" fill="#fff" stroke="#5e6178" stroke-linecap="round" stroke-linejoin="round" stroke-width="1"/>
        <path id="Trazado_147025" data-name="Trazado 147025" d="M-6261.031,13546.509l.541,133.725a1.578,1.578,0,0,1-1.566,1.588h-.01a1.588,1.588,0,0,1-1.589-1.532l-3.805-133.593Z" transform="translate(6460.794 -13374.058)" fill="#fff" stroke="#5e6178" stroke-linecap="round" stroke-linejoin="round" stroke-width="1"/>
        <path id="Trazado_147026" data-name="Trazado 147026" d="M-6255.28,13566.447l.541,138.244a1.577,1.577,0,0,1-1.566,1.589h-.022a1.578,1.578,0,0,1-1.577-1.522l-3.816-138.136Z" transform="translate(6464.053 -13362.736)" fill="#fff" stroke="#5e6178" stroke-linecap="round" stroke-linejoin="round" stroke-width="1"/>
        <path id="Trazado_147027" data-name="Trazado 147027" d="M-6346.916,13570.112l-.319,122.7a1.188,1.188,0,0,0,1,1.311h0a1.175,1.175,0,0,0,1.015-1.256l2.395-122.615Z" transform="translate(6415.481 -13360.654)" fill="#fff" stroke="#5e6178" stroke-linecap="round" stroke-linejoin="round" stroke-width="1"/>
        <path id="Trazado_147028" data-name="Trazado 147028" d="M-6296.25,13567.593l.3,107.084a1.014,1.014,0,0,1-.861,1.1h0a1,1,0,0,1-.849-1.1l-2.042-107Z" transform="translate(6442.481 -13362.084)" fill="#fff" stroke="#5e6178" stroke-linecap="round" stroke-linejoin="round" stroke-width="1"/>
        <path id="Trazado_147029" data-name="Trazado 147029" d="M-6346.549,13567.593l.3,107.084a1.014,1.014,0,0,1-.861,1.1h0a1,1,0,0,1-.85-1.1l-2.041-107Z" transform="translate(6413.913 -13362.084)" fill="#fff" stroke="#5e6178" stroke-linecap="round" stroke-linejoin="round" stroke-width="1"/>
        <path id="Trazado_147030" data-name="Trazado 147030" d="M-6297.44,13570.112l.342,122.7a1.188,1.188,0,0,1-1,1.311h0a1.189,1.189,0,0,1-1.014-1.256l-2.395-122.615Z" transform="translate(6441.453 -13360.654)" fill="#fff" stroke="#5e6178" stroke-linecap="round" stroke-linejoin="round" stroke-width="1"/>
        <ellipse id="Elipse_4335" data-name="Elipse 4335" cx="49.086" cy="11.218" rx="49.086" ry="11.218" transform="translate(56.664 195.615)" fill="#fff" stroke="#5e6178" stroke-linecap="round" stroke-linejoin="round" stroke-width="1"/>
        <path id="Trazado_147031" data-name="Trazado 147031" d="M-6337.258,13630.187s-2.571,3.687-.728,5.516,3.673,1.1,3.485,2.944-3.121,8.085-5.691,14.705,2.758,13.235,7.72,11.4,4.412-20.228,5.141-23.537,1.291-3.86,1.1-6.982-.365-6.431-2.759-6.8S-6336.155,13628.908-6337.258,13630.187Z" transform="translate(6419.104 -13328.128)" fill="#fff" stroke="#5e6178" stroke-linecap="round" stroke-linejoin="round" stroke-width="1"/>
        <path id="Trazado_147032" data-name="Trazado 147032" d="M-6329.463,13648.327c-3.308-1.258-8.382-1-11.239-.717.96,4.159,4.632,7.082,8.139,5.79C-6331.1,13652.861-6330.135,13650.9-6329.463,13648.327Z" transform="translate(6419.195 -13316.773)" fill="#43a99b" stroke="#263238" stroke-linecap="round" stroke-linejoin="round" stroke-width="1"/>
        <path id="Trazado_147033" data-name="Trazado 147033" d="M-6342.194,13625.014s5.328,9.013,6.8,11.395,6.441,1.654,6.994-1.655-2.03-12.5-2.03-12.5l-11.031,2.757Z" transform="translate(6418.349 -13331.042)" fill="#fff" stroke="#5e6178" stroke-linecap="round" stroke-linejoin="round" stroke-width="1"/>
        <path id="Trazado_147034" data-name="Trazado 147034" d="M-6349.941,13617.2s-1.479,2.395-.738,4.047,2.756,6.432,4.047,8.826,7.17,3.859,13.965,2.758,10.668-4.236,10.854-6.994-1.1-6.43-2.029-10.842-3.31-4.227-6.618-4.227S-6347.183,13614.629-6349.941,13617.2Z" transform="translate(6413.41 -13337.566)" fill="#43a99b" stroke="#263238" stroke-linecap="round" stroke-linejoin="round" stroke-width="1"/>
        <path id="Trazado_147035" data-name="Trazado 147035" d="M-6325.091,13590.879c.1-4.523,2.712-6.752,2.912-9.851a39.015,39.015,0,0,0-1-12.211l-5.031-6.871c-14.472.188-24.841.43-25.005.483-.553.177-.927,3.312-1.291,5.88,0,0-6.145.783-5.042,17.881.154,2.381,6.354,29.946,6.807,33.091,2.756,19.2,8.9,28.823,8.9,28.823s.551,2.392,7.722,1.843,14.338-5.329,14.338-5.329S-6325.466,13607.237-6325.091,13590.879Z" transform="translate(6408.416 -13365.294)" fill="#344154" stroke="#263238" stroke-linecap="round" stroke-linejoin="round" stroke-width="1"/>
        <path id="Trazado_147036" data-name="Trazado 147036" d="M-6351.867,13564.542s-7.6,1.1-12.254,6.42-.707,8.825,8.339,7.875,19.48-10.2,19.921-10.7S-6345.293,13561.354-6351.867,13564.542Z" transform="translate(6404.779 -13364.326)" fill="#fff" stroke="#5e6178" stroke-linecap="round" stroke-linejoin="round" stroke-width="1"/>
        <path id="Trazado_147037" data-name="Trazado 147037" d="M-6347.452,13568.726a71.843,71.843,0,0,1,14.34,2.207c6.256,1.842,17.283,5.517,19.855,5.517s1.841-9.565,1.841-11.4-33.09-2.946-37.138-2.946S-6347.452,13568.726-6347.452,13568.726Z" transform="translate(6413.855 -13365.202)" fill="#fff" stroke="#5e6178" stroke-linecap="round" stroke-linejoin="round" stroke-width="1"/>
        <path id="Trazado_147038" data-name="Trazado 147038" d="M-6323.417,13563.988s-2.945,1.465-4.047,6.981-2.57,8.461-.365,9.926,11.771,2.571,13.238,1.1,5.514-8.825,6.253-13.6S-6323.417,13563.988-6323.417,13563.988Z" transform="translate(6425.857 -13364.136)" fill="#43a99b" stroke="#263238" stroke-linecap="round" stroke-linejoin="round" stroke-width="1"/>
        <path id="Trazado_147039" data-name="Trazado 147039" d="M-6315.329,13568.692a23.071,23.071,0,0,0-4.038,6.617,61.908,61.908,0,0,0-1.842,7.722,71.414,71.414,0,0,1,10.293,3.687c5.89,2.568,15.816,4.41,25.368,6.616s12.135,4.413,15.443,4.413,7.358-2.583,12.509-8.826.728-19.49-4.411-23.538-32.729-7.347-36.4-6.245S-6315.329,13568.692-6315.329,13568.692Z" transform="translate(6430.267 -13367.01)" fill="#344154" stroke="#263238" stroke-linecap="round" stroke-linejoin="round" stroke-width="1"/>
        <path id="Trazado_147040" data-name="Trazado 147040" d="M-6358.827,13576.672a22.154,22.154,0,0,0-4.3-9.036c-.341.321-.672.65-.993,1.015C-6368.212,13573.307-6365.654,13576.614-6358.827,13576.672Z" transform="translate(6404.779 -13362.062)" fill="#43a99b" stroke="#263238" stroke-linecap="round" stroke-linejoin="round" stroke-width="1"/>
        <path id="Trazado_147041" data-name="Trazado 147041" d="M-6333.8,13575.255s-3.795,40.6-11.538,46.923" transform="translate(6416.563 -13357.733)" fill="none" stroke="#fff" stroke-linecap="round" stroke-linejoin="round" stroke-width="0.5" opacity="0"/>
        <path id="Trazado_147042" data-name="Trazado 147042" d="M-6335.737,13599.837s-3.012,13.237-10.91,18.5" transform="translate(6415.82 -13343.775)" fill="none" stroke="#fff" stroke-linecap="round" stroke-linejoin="round" stroke-width="0.5" opacity="0"/>
        <path id="Trazado_147043" data-name="Trazado 147043" d="M-6306.129,13570.55s-11.768.74-4.046,5.88,21.695,8.461,21.695,8.461" transform="translate(6435.041 -13360.408)" fill="none" stroke="#fff" stroke-linecap="round" stroke-linejoin="round" stroke-width="0.5" opacity="0"/>
        <path id="Trazado_147044" data-name="Trazado 147044" d="M-6176.408,13571.248l-3.97-3.574-9.176-19.855a5.287,5.287,0,0,0-4.811-2.988h-178.254a5.282,5.282,0,0,0-4.819,2.988l-11.438,24.729-1.886-.692v5.657l.088-.067a3.142,3.142,0,0,0,3.166,2.681h208.023a3.1,3.1,0,0,0,3.166-2.924Z" transform="translate(6390.763 -13375.017)" fill="#344154" stroke="#263238" stroke-linecap="round" stroke-linejoin="round" stroke-width="1"/>
        <path id="Trazado_147045" data-name="Trazado 147045" d="M-6179.518,13576.828h-208.024a3.045,3.045,0,0,1-3.163-2.922,3.04,3.04,0,0,1,.252-1.337l12.982-28.05a5.259,5.259,0,0,1,4.819-2.989H-6194.4a5.262,5.262,0,0,1,4.811,2.989l12.981,28.05a3.043,3.043,0,0,1-1.575,4.007A3.04,3.04,0,0,1-6179.518,13576.828Z" transform="translate(6390.795 -13376.888)" fill="#fff" stroke="#5e6178" stroke-linecap="round" stroke-linejoin="round" stroke-width="1"/>
        <path id="Trazado_147046" data-name="Trazado 147046" d="M-6380.98,13556.895s-4.708,3.23-1.763,4.411,36.8.3,40.923-.881,8.824-12.068,8.824-13.832-5.934-3.033-8.117-3.133-31.041,1.653-31.041,1.653Z" transform="translate(6394.767 -13375.797)" fill="#d9a171" opacity="0.5" style="isolation: isolate"/>
        <ellipse id="Elipse_4336" data-name="Elipse 4336" cx="12.067" cy="5.008" rx="12.067" ry="5.008" transform="translate(170.112 176.675)" fill="#d9a171" opacity="0.5" style="isolation: isolate"/>
        <ellipse id="Elipse_4337" data-name="Elipse 4337" cx="43.273" cy="8.096" rx="43.273" ry="8.096" transform="translate(62.08 176.686)" fill="#d9a171" opacity="0.5" style="isolation: isolate"/>
        <path id="Trazado_147047" data-name="Trazado 147047" d="M-6278.167,13540.677s-.793-3.165-3.43-2.108-2.37,8.051-1.851,12.013,4.091,2.107,4.091,2.107v-2.371s-1.313,1.048-1.975-.4-.528-8.716.133-8.583,1.974,2.371,1.974,2.371S-6278.828,13543.454-6278.167,13540.677Z" transform="translate(6451.521 -13378.692)" fill="#e2f4f6" stroke="#263238" stroke-linecap="round" stroke-linejoin="round" stroke-width="1"/>
        <path id="Trazado_147048" data-name="Trazado 147048" d="M-6281.412,13540.171v17.342c0,2.041,4.688,3.7,10.479,3.7s10.471-1.655,10.471-3.7v-17.342Z" transform="translate(6452.87 -13377.659)" fill="#e2f4f6" stroke="#263238" stroke-linecap="round" stroke-linejoin="round" stroke-width="1"/>
        <path id="Trazado_147049" data-name="Trazado 147049" d="M-6260.463,13541.325c0,1.767-4.689,3.189-10.471,3.189s-10.479-1.423-10.479-3.189,4.688-3.187,10.479-3.187S-6260.463,13539.572-6260.463,13541.325Z" transform="translate(6452.87 -13378.814)" fill="#fff" stroke="#5e6178" stroke-linecap="round" stroke-linejoin="round" stroke-width="1"/>
        <path id="Trazado_147050" data-name="Trazado 147050" d="M-6262.329,13541.175c0,1.533-4.081,2.77-9.1,2.77s-9.11-1.236-9.11-2.77,4.082-2.767,9.11-2.767S-6262.329,13539.642-6262.329,13541.175Z" transform="translate(6453.366 -13378.664)" fill="#fff" stroke="#5e6178" stroke-linecap="round" stroke-linejoin="round" stroke-width="1"/>
        <path id="Trazado_147051" data-name="Trazado 147051" d="M-6279.21,13541.66a25.051,25.051,0,0,0,14.043,0A25.1,25.1,0,0,0-6279.21,13541.66Z" transform="translate(6454.121 -13377.385)" fill="#344154" stroke="#263238" stroke-linecap="round" stroke-linejoin="round" stroke-width="1"/>
        <path id="Trazado_147052" data-name="Trazado 147052" d="M-6382.8,13545.416l.131,5.933,39.986.4v-6.861Z" transform="translate(6395.286 -13374.982)" fill="#fff" stroke="#5e6178" stroke-linecap="round" stroke-linejoin="round" stroke-width="1"/>
        <path id="Trazado_147053" data-name="Trazado 147053" d="M-6357.118,13555.139l5.814-12.531v-3.694l-6.079,10.555Z" transform="translate(6409.722 -13378.375)" fill="#fff" stroke="#5e6178" stroke-linecap="round" stroke-linejoin="round" stroke-width="1"/>
        <path id="Trazado_147054" data-name="Trazado 147054" d="M-6382.8,13548.857l.131,5.945,39.986.4v-6.86Z" transform="translate(6395.286 -13373.02)" fill="#fff" stroke="#5e6178" stroke-linecap="round" stroke-linejoin="round" stroke-width="1"/>
        <path id="Trazado_147055" data-name="Trazado 147055" d="M-6357.118,13558.6l5.814-12.541v-3.693l-6.079,10.554Z" transform="translate(6409.722 -13376.419)" fill="#fff" stroke="#5e6178" stroke-linecap="round" stroke-linejoin="round" stroke-width="1"/>
        <path id="Trazado_147056" data-name="Trazado 147056" d="M-6364.953,13536.652s.927-1.841-.4-2.637-2.77,1.105-3.563,1.712-17.416,11.615-17.946,13.334,0,5.516,3.563,5.935,6.728-1.973,8.317-2.372,2.206-.528,2.206-.528l10.953-14.78Z" transform="translate(6392.881 -13381.267)" fill="#fff" stroke="#5e6178" stroke-linecap="round" stroke-linejoin="round" stroke-width="1"/>
        <path id="Trazado_147057" data-name="Trazado 147057" d="M-6383.29,13549.682c3.563.4,6.728-1.977,8.317-2.373s2.207-.528,2.207-.528l.4-.542-10.292-2.1a3.455,3.455,0,0,0-4.224-.4C-6387.382,13545.444-6386.852,13549.271-6383.29,13549.682Z" transform="translate(6392.875 -13375.938)" fill="#fff" stroke="#5e6178" stroke-linecap="round" stroke-linejoin="round" stroke-width="1"/>
        <path id="Trazado_147058" data-name="Trazado 147058" d="M-6384.228,13548.455h30.886c9.642,0,12.542-.53,12.542-.53l5.934-12.275s-18.752,1.19-24.542.794a43.909,43.909,0,0,1-7.126-.794Z" transform="translate(6394.474 -13380.229)" fill="#fff" stroke="#5e6178" stroke-linecap="round" stroke-linejoin="round" stroke-width="1"/>
        <path id="Trazado_147059" data-name="Trazado 147059" d="M-6384.228,13544.012l.529,2.372s25.072.131,31.669.131,11.615.265,11.615.265l-.4-3.309Z" transform="translate(6394.474 -13375.785)" fill="#fff" stroke="#5e6178" stroke-linecap="round" stroke-linejoin="round" stroke-width="1"/>
        <path id="Trazado_147060" data-name="Trazado 147060" d="M-6356.14,13551.2l5.537-12.675v-2.9l-5.935,12.278Z" transform="translate(6410.202 -13380.241)" fill="#fff" stroke="#5e6178" stroke-linecap="round" stroke-linejoin="round" stroke-width="1"/>
        <path id="Trazado_147061" data-name="Trazado 147061" d="M-6271.619,13555.935h-75.613a1.268,1.268,0,0,1-1.28-1.258v-.011h0a1.267,1.267,0,0,1,1.269-1.268h75.625a1.256,1.256,0,0,1,1.269,1.246.04.04,0,0,1,0,.021h0a1.256,1.256,0,0,1-1.246,1.269Z" transform="translate(6414.761 -13370.147)" fill="#fff" stroke="#5e6178" stroke-linecap="round" stroke-linejoin="round" stroke-width="1"/>
        <path id="Trazado_147062" data-name="Trazado 147062" d="M-6269.288,13572.407h-76.9a1.108,1.108,0,0,1-1.1-1.037l-4.18-50.245a1.1,1.1,0,0,1,.963-1.225.754.754,0,0,1,.14-.011h85.277a1.1,1.1,0,0,1,1.111,1.095.892.892,0,0,1-.008.141l-4.18,50.245A1.1,1.1,0,0,1-6269.288,13572.407Z" transform="translate(6413.071 -13389.178)" fill="#fff" stroke="#5e6178" stroke-linecap="round" stroke-linejoin="round" stroke-width="1"/>
        <path id="Trazado_147063" data-name="Trazado 147063" d="M-6313.7,13539.15c0,3-3.255,5.43-7.257,5.43s-7.27-2.43-7.27-5.43,3.253-5.415,7.27-5.415S-6313.7,13536.162-6313.7,13539.15Z" transform="translate(6426.283 -13381.316)" fill="#fff" stroke="#5e6178" stroke-linecap="round" stroke-linejoin="round" stroke-width="1"/>
        <path id="Trazado_147064" data-name="Trazado 147064" d="M-6271.027,13514.689a6.558,6.558,0,0,0,2.349-3.674,6.8,6.8,0,0,0-.078-3.31" transform="translate(6458.767 -13396.1)" fill="none" stroke="#263238" stroke-linecap="round" stroke-linejoin="round" stroke-width="1" opacity="0"/>
        <path id="Trazado_147065" data-name="Trazado 147065" d="M-6274.632,13550.894s7.336-4.413,4.942-9.453-10.491-8.383-10.491-16.235c0-6.773,7.2-9.276,11.9-11.992" transform="translate(6453.568 -13392.971)" fill="none" stroke="#263238" stroke-linecap="round" stroke-linejoin="round" stroke-width="1" opacity="0"/>
        <path id="Trazado_147066" data-name="Trazado 147066" d="M-6271.2,13543.136s4.092-2.724,4.092-7.048c0-2.9-3.1-4.8-7.19-9.465" transform="translate(6456.91 -13385.355)" fill="none" stroke="#263238" stroke-linecap="round" stroke-linejoin="round" stroke-width="1" opacity="0"/>
        <path id="Trazado_147067" data-name="Trazado 147067" d="M-6275.224,13527.02s-2.679-2.109-.705-6.066" transform="translate(6455.572 -13388.575)" fill="none" stroke="#263238" stroke-linecap="round" stroke-linejoin="round" stroke-width="1" opacity="0"/>
        <path id="Trazado_147068" data-name="Trazado 147068" d="M-6302.242,13459.426c1.313-.275,4.126-1.356,6.022-5.758a.552.552,0,0,0-.283-.727l0,0a.563.563,0,0,0-.729.286c-1.742,4.038-4.235,4.932-5.272,5.129a12.658,12.658,0,0,0,2.9-7.974c0-7.656-7.093-13.854-15.84-13.854s-15.839,6.2-15.839,13.854a12.653,12.653,0,0,0,2.646,7.722c-1.665-.088-4.479.616-8.042,4.775a.564.564,0,0,0,0,.783.59.59,0,0,0,.365.133.55.55,0,0,0,.419-.2c4.555-5.307,7.567-4.413,8.173-4.169a16.082,16.082,0,0,0-2.878,2.018c-5.085,4.579-8.185,13.237-7.788,20.45a26.594,26.594,0,0,0,5.019,13.238,30.787,30.787,0,0,0,8.967-10.039,84.043,84.043,0,0,0,4.413-9.011c0,3.233.42,7.135,2.118,9.926a14.076,14.076,0,0,0,12.376,7.238,11.786,11.786,0,0,0,2.592-.254.556.556,0,0,0,.354-.276c4.257.9,8.493.825,9.145-.076,1.047-1.445,2.536-5.959,3.032-11.473C-6289.47,13471.813-6295.361,13463.693-6302.242,13459.426Zm-14.605,25.91c-2.14-3.5-2.072-9.2-1.82-12.475l.145-.377a22.456,22.456,0,0,0,8.967,17.286,16.238,16.238,0,0,0,4.888,2.283c-2.7.188-8.262-.332-12.179-6.718Z" transform="translate(6420.49 -13436.526)" fill="#344154"/>
        <path id="Trazado_147069" data-name="Trazado 147069" d="M-6324.533,13456.581s-.9,6.686,7.588,13.238,16.546,3.97,16.546,3.97" transform="translate(6428.364 -13425.133)" fill="none" stroke="#fff" stroke-linecap="round" stroke-linejoin="round" stroke-width="0.5" opacity="0"/>
        <path id="Trazado_147070" data-name="Trazado 147070" d="M-6323.749,13455.176s8.945,13.027,21.3,9.629" transform="translate(6428.825 -13425.935)" fill="none" stroke="#fff" stroke-linecap="round" stroke-linejoin="round" stroke-width="0.5" opacity="0"/>
        <path id="Trazado_147071" data-name="Trazado 147071" d="M-6320.743,13452.751a8.643,8.643,0,0,0-8.947.682c-4.754,3.167-7.136,10.646-7.136,10.646" transform="translate(6421.397 -13427.844)" fill="none" stroke="#fff" stroke-linecap="round" stroke-linejoin="round" stroke-width="0.5" opacity="0"/>
        <path id="Trazado_147072" data-name="Trazado 147072" d="M-6323.1,13454.806s-3.851-1.026-6.233,1.357a15.375,15.375,0,0,0-2.946,3.627" transform="translate(6423.982 -13426.27)" fill="none" stroke="#fff" stroke-linecap="round" stroke-linejoin="round" stroke-width="0.5" opacity="0"/>
      </g>
    </g>
  </g>
</svg>
