<svg xmlns="http://www.w3.org/2000/svg" width="210" height="68" viewBox="0 0 210 68">
  <g id="Grupo_974127" data-name="Grupo 974127" transform="translate(-863 -20309)">
    <rect id="Rectángulo_50172" data-name="Rectángulo 50172" width="210" height="68" rx="10" transform="translate(863 20309)" fill="#25ffff"/>
    <path id="Trazado_705244" data-name="Trazado 705244" d="M11.452,0H9.229l-5.7-9.079V0H1.3V-12.8H3.524L9.246-3.683V-12.8h2.206Zm6.935-5.2a13.393,13.393,0,0,1,.545-3.854,10.578,10.578,0,0,1,1.6-3.261,6.351,6.351,0,0,1,2.232-2.017l.422,1.248a6.524,6.524,0,0,0-2.008,2.87A12.852,12.852,0,0,0,20.338-5.8l-.009.756a13.972,13.972,0,0,0,.751,4.75,7,7,0,0,0,2.1,3.177l-.422,1.187a6.362,6.362,0,0,1-2.237-2.026,10.577,10.577,0,0,1-1.6-3.261A13.921,13.921,0,0,1,18.387-5.2ZM31.1-9.51l.062,1.1a3.419,3.419,0,0,1,2.769-1.274q2.971,0,3.023,3.4V0H34.813V-6.161a1.958,1.958,0,0,0-.391-1.34,1.645,1.645,0,0,0-1.279-.435,2.058,2.058,0,0,0-1.925,1.169V0H29.083V-9.51Zm17.42,1.67h-1.4v5.15a1.169,1.169,0,0,0,.215.787,1,1,0,0,0,.769.242,3.622,3.622,0,0,0,.747-.088V-.1a4.715,4.715,0,0,1-1.406.2q-2.461,0-2.461-2.716V-7.84H42.064V0H39.929V-7.84h-1.5V-9.51h10.09Zm6.53,10.723L53.895,2.2A6.21,6.21,0,0,0,54.593.8a4.157,4.157,0,0,0,.2-1.208V-2.065h1.925L56.707-.527a4.287,4.287,0,0,1-.47,1.868A4.64,4.64,0,0,1,55.046,2.883ZM65.162-9.51l.062,1.1a3.419,3.419,0,0,1,2.769-1.274q2.971,0,3.023,3.4V0H68.88V-6.161a1.958,1.958,0,0,0-.391-1.34,1.645,1.645,0,0,0-1.279-.435,2.058,2.058,0,0,0-1.925,1.169V0H63.149V-9.51Zm17.42,1.67h-1.4v5.15A1.169,1.169,0,0,0,81.4-1.9a1,1,0,0,0,.769.242,3.622,3.622,0,0,0,.747-.088V-.1a4.715,4.715,0,0,1-1.406.2q-2.461,0-2.461-2.716V-7.84H76.131V0H74V-7.84h-1.5V-9.51h10.09ZM88.84-5.2a13.393,13.393,0,0,1,.545-3.854,10.578,10.578,0,0,1,1.6-3.261,6.351,6.351,0,0,1,2.232-2.017l.422,1.248a6.524,6.524,0,0,0-2.008,2.87A12.852,12.852,0,0,0,90.791-5.8l-.009.756a13.972,13.972,0,0,0,.751,4.75,7,7,0,0,0,2.1,3.177l-.422,1.187A6.362,6.362,0,0,1,90.98,2.043a10.577,10.577,0,0,1-1.6-3.261A13.921,13.921,0,0,1,88.84-5.2ZM105.214,0h-2.127V-10.281l-3.138,1.07V-11l4.992-1.837h.272Zm13.21-4.579H113.81V-6.3h4.614ZM134.06-7.84h-1.4v5.15a1.169,1.169,0,0,0,.215.787,1,1,0,0,0,.769.242,3.622,3.622,0,0,0,.747-.088V-.1a4.715,4.715,0,0,1-1.406.2q-2.461,0-2.461-2.716V-7.84h-2.918V0h-2.136V-7.84h-1.5V-9.51h10.09ZM144.4-5.062a13.224,13.224,0,0,1-.536,3.766,10.671,10.671,0,0,1-1.626,3.3,6.367,6.367,0,0,1-2.276,2.061l-.422-1.187a6.754,6.754,0,0,0,2.087-3.116,13.84,13.84,0,0,0,.769-4.786v-.2a14.044,14.044,0,0,0-.668-4.452,7.852,7.852,0,0,0-1.916-3.221l-.272-.246.422-1.2a6.3,6.3,0,0,1,2.18,1.934,10.491,10.491,0,0,1,1.617,3.107,12.941,12.941,0,0,1,.633,3.546Zm6.346,0a13.224,13.224,0,0,1-.536,3.766,10.671,10.671,0,0,1-1.626,3.3,6.367,6.367,0,0,1-2.276,2.061l-.422-1.187a6.754,6.754,0,0,0,2.087-3.116,13.84,13.84,0,0,0,.769-4.786v-.2a14.044,14.044,0,0,0-.668-4.452,7.852,7.852,0,0,0-1.916-3.221l-.272-.246.422-1.2a6.3,6.3,0,0,1,2.18,1.934,10.491,10.491,0,0,1,1.617,3.107,12.941,12.941,0,0,1,.633,3.546Z" transform="translate(888 20349)" fill="#12263f"/>
  </g>
</svg>
