<svg xmlns="http://www.w3.org/2000/svg" width="332" height="78" viewBox="0 0 332 78">
  <g id="Grupo_161019" data-name="Grupo 161019" transform="translate(6351.5 10844.939)">
    <path id="Trazado_704797" data-name="Trazado 704797" d="M10,0H322a10,10,0,0,1,10,10V68a10,10,0,0,1-10,10H10A10,10,0,0,1,0,68V10A10,10,0,0,1,10,0Z" transform="translate(-6351.5 -10844.939)" fill="#fff"/>
    <path id="Trazado_704798" data-name="Trazado 704798" d="M4.189-11.634,3.91-10.162a4.582,4.582,0,0,1,3.566-1.676A2.883,2.883,0,0,1,9.9-10.7a4.424,4.424,0,0,1,.58,3.083L9.217,0H7.272L8.551-7.64a4.073,4.073,0,0,0,.011-.977,1.606,1.606,0,0,0-1.772-1.534A3.66,3.66,0,0,0,3.717-8.284L2.277,0H.333l2.02-11.623Z" transform="translate(-6133.378 -10772.939)" fill="#12263f"/>
    <path id="Trazado_184148" data-name="Trazado 184148" d="M-8279.633-10154h31.62" transform="translate(1985.377 -637.939)" fill="#12263f" stroke="#12263f" stroke-width="1"/>
    <path id="Trazado_704799" data-name="Trazado 704799" d="M4.189-11.634,3.91-10.162a4.582,4.582,0,0,1,3.566-1.676A2.883,2.883,0,0,1,9.9-10.7a4.424,4.424,0,0,1,.58,3.083L9.217,0H7.272L8.551-7.64a4.073,4.073,0,0,0,.011-.977,1.606,1.606,0,0,0-1.772-1.534A3.66,3.66,0,0,0,3.717-8.284L2.277,0H.333l2.02-11.623Z" transform="translate(-6285.257 -10772.939)" fill="#12263f"/>
    <path id="Trazado_704800" data-name="Trazado 704800" d="M1.33,0H.275l1.1-6.34H2.432ZM2.2-8.654a.58.58,0,0,1,.448.161.6.6,0,0,1,.179.454.637.637,0,0,1-.179.451A.642.642,0,0,1,2.2-7.4a.584.584,0,0,1-.451-.158A.573.573,0,0,1,1.582-8a.665.665,0,0,1,.176-.457A.62.62,0,0,1,2.2-8.654ZM11.648-4.77H6.9l.164-.943h4.752Zm-.422,2.432H6.48l.164-.937H11.4ZM18.75,0H17.684l1.254-7.2-2.268.8.182-1.031,3.164-1.143H20.2Z" transform="translate(-6257.258 -10791.939)" fill="#12263f"/>
    <path id="Trazado_184149" data-name="Trazado 184149" d="M-8287.123-9349.513h13.8" transform="translate(1968.5 -1472.939)" fill="#12263f" stroke="#12263f" stroke-width="1"/>
    <path id="Trazado_704801" data-name="Trazado 704801" d="M2.285-6.346l-.152.8a2.5,2.5,0,0,1,1.945-.914A1.573,1.573,0,0,1,5.4-5.836a2.413,2.413,0,0,1,.316,1.682L5.027,0H3.967l.7-4.167A2.222,2.222,0,0,0,4.67-4.7.876.876,0,0,0,3.7-5.537,2,2,0,0,0,2.027-4.519L1.242,0H.182l1.1-6.34Z" transform="translate(-6246.378 -10831.939)" fill="#12263f"/>
    <path id="Trazado_704802" data-name="Trazado 704802" d="M5.4-7.38l2.578-4.243H10.3L6.5-5.876,10.42,0h-2.3L5.436-4.351,2.75,0H.44L4.361-5.876l-3.8-5.747h2.3ZM26.941-8.744H17.982v-1.729h8.959Zm0,4.458H17.982V-6h8.959ZM41.7,0h-2V-13.245L35.7-11.773v-1.8l5.693-2.138H41.7ZM53.1-6.349a16.608,16.608,0,0,1,.65-4.662,13.543,13.543,0,0,1,1.939-4.061,8.249,8.249,0,0,1,2.675-2.578l.408,1.311A8.556,8.556,0,0,0,56.2-12.665a15.927,15.927,0,0,0-1.1,5.532l-.011.913A16.01,16.01,0,0,0,56.6.978a8.6,8.6,0,0,0,2.17,2.857l-.408,1.214a8.514,8.514,0,0,1-2.729-2.664A14.932,14.932,0,0,1,53.1-6.349Zm22.582-4.176L69.162-2.3h11.47V0H65.646V-2.095l7.046-8.591-7.046-8.547v-2.095H79.914v2.3H69.191l6.489,8.152ZM92.609-7.38l2.578-4.243h2.32l-3.8,5.747L97.626,0h-2.3L92.642-4.351,89.956,0h-2.31l3.921-5.876-3.8-5.747h2.3ZM100.246,7H99.087V.22h1.159ZM98.993-1.578a.692.692,0,0,1,.172-.476.647.647,0,0,1,.511-.194.657.657,0,0,1,.514.194.685.685,0,0,1,.175.476.662.662,0,0,1-.175.47.669.669,0,0,1-.514.188.659.659,0,0,1-.511-.188A.669.669,0,0,1,98.993-1.578Zm11.5-4.663a16.616,16.616,0,0,1-.628,4.592,13.579,13.579,0,0,1-1.923,4.055,8.425,8.425,0,0,1-2.712,2.643l-.419-1.214A8.636,8.636,0,0,0,107.467-.1a17.032,17.032,0,0,0,1.026-5.924V-6.37a17.684,17.684,0,0,0-.473-4.195A14.157,14.157,0,0,0,106.7-14.04a8.027,8.027,0,0,0-1.9-2.4l.419-1.214a8.392,8.392,0,0,1,2.7,2.621,13.608,13.608,0,0,1,1.923,4.05A17,17,0,0,1,110.491-6.241Zm17.6-2.5h-8.959v-1.729h8.959Zm0,4.458h-8.959V-6h8.959ZM140.419-7.38,143-11.623h2.32l-3.8,5.747L145.436,0h-2.3l-2.686-4.351L137.766,0h-2.31l3.921-5.876-3.8-5.747h2.3ZM150.487,7h-1.165V-.726l-2.337.858V-.92l3.321-1.247h.182Zm9.835-15.39h4.361v1.88h-4.361v4.941h-2V-6.51h-4.361V-8.39h4.361v-4.565h2ZM171-7.38l2.578-4.243h2.32l-3.8,5.747L176.016,0h-2.3l-2.686-4.351L168.346,0h-2.31l3.921-5.876-3.8-5.747h2.3ZM183.236,7h-5.978V6.167l3.158-3.509a7.5,7.5,0,0,0,.968-1.294A2.16,2.16,0,0,0,181.65.333a1.637,1.637,0,0,0-.432-1.172,1.512,1.512,0,0,0-1.153-.457,1.79,1.79,0,0,0-1.344.492,1.879,1.879,0,0,0-.479,1.369h-1.159a2.691,2.691,0,0,1,.811-2.036,3.008,3.008,0,0,1,2.171-.777,2.89,2.89,0,0,1,2.011.667A2.276,2.276,0,0,1,182.816.2,5.219,5.219,0,0,1,181.1,3.4l-2.444,2.65h4.58ZM196.349-8.39h4.361v1.88h-4.361v4.941h-2V-6.51H189.99V-8.39h4.361v-4.565h2ZM208.66-1.042a1.244,1.244,0,0,1,.306-.859,1.167,1.167,0,0,1,.918-.344,1.2,1.2,0,0,1,.929.344,1.219,1.219,0,0,1,.317.859,1.153,1.153,0,0,1-.317.827,1.223,1.223,0,0,1-.929.333,1.187,1.187,0,0,1-.918-.333A1.176,1.176,0,0,1,208.66-1.042Zm4.694,0a1.244,1.244,0,0,1,.306-.859,1.167,1.167,0,0,1,.918-.344,1.2,1.2,0,0,1,.929.344,1.219,1.219,0,0,1,.317.859,1.153,1.153,0,0,1-.317.827,1.223,1.223,0,0,1-.929.333,1.187,1.187,0,0,1-.918-.333A1.176,1.176,0,0,1,213.354-1.042Zm4.458,0a1.244,1.244,0,0,1,.306-.859,1.167,1.167,0,0,1,.918-.344,1.2,1.2,0,0,1,.929.344,1.219,1.219,0,0,1,.317.859,1.153,1.153,0,0,1-.317.827,1.223,1.223,0,0,1-.929.333,1.187,1.187,0,0,1-.918-.333A1.176,1.176,0,0,1,217.812-1.042ZM234.43-8.39h4.361v1.88H234.43v4.941h-2V-6.51h-4.361V-8.39h4.361v-4.565h2Zm16.124,1.01,2.578-4.243h2.32l-3.8,5.747L255.571,0h-2.3l-2.686-4.351L247.9,0h-2.31l3.921-5.876-3.8-5.747h2.3Zm7.474,7.6.038.852A2.471,2.471,0,0,1,260.1.095q2.149,0,2.168,2.425V7H261.1V2.514a1.561,1.561,0,0,0-.335-1.084,1.343,1.343,0,0,0-1.025-.351,1.673,1.673,0,0,0-.99.3,2.042,2.042,0,0,0-.664.79V7h-1.159V.22Z" transform="translate(-6317.623 -10805.939)" fill="#12263f"/>
    <path id="Trazado_184151" data-name="Trazado 184151" d="M-8279.633-10154h135.755" transform="translate(2084.377 -637.939)" fill="#12263f" stroke="#12263f" stroke-width="1"/>
  </g>
</svg>
