<svg xmlns="http://www.w3.org/2000/svg" width="508" height="69" viewBox="0 0 508 69">
  <g id="Grupo_166658" data-name="Grupo 166658" transform="translate(9192.443 12909.136)">
    <path id="Trazado_704961" data-name="Trazado 704961" d="M10,0H498a10,10,0,0,1,10,10V59a10,10,0,0,1-10,10H10A10,10,0,0,1,0,59V10A10,10,0,0,1,10,0Z" transform="translate(-9192.443 -12909.136)" fill="#a4a3ff"/>
    <path id="Trazado_704962" data-name="Trazado 704962" d="M4.825-12.8,7.066-2.373,12.938-12.8h2.171L12.885,0H11.241l.879-5.062,1.046-5.15L7.365,0H6.1L3.814-10.415,3.023-4.9,2.171,0H.519L2.742-12.8ZM19.714.176a3.429,3.429,0,0,1-2.777-1.31,4.507,4.507,0,0,1-.844-3.261l.044-.378a6.327,6.327,0,0,1,.839-2.584,4.882,4.882,0,0,1,1.683-1.762A3.927,3.927,0,0,1,20.8-9.686a3.024,3.024,0,0,1,2.3.976,4.012,4.012,0,0,1,.914,2.549,7.448,7.448,0,0,1-.035,1.143l-.1.729H17.675a3.212,3.212,0,0,0,.426,2.2,2.019,2.019,0,0,0,1.745.94,3.383,3.383,0,0,0,2.6-1.266l.914.773A4.183,4.183,0,0,1,21.819-.294,4.371,4.371,0,0,1,19.714.176Zm1.011-8.534a2.324,2.324,0,0,0-1.718.668,4.748,4.748,0,0,0-1.165,2.065l4.623.009.035-.141A2.6,2.6,0,0,0,22.144-7.6,1.674,1.674,0,0,0,20.725-8.358Zm4.667,3.586a7.4,7.4,0,0,1,.8-2.619,4.534,4.534,0,0,1,1.538-1.749,3.517,3.517,0,0,1,2.013-.554,2.971,2.971,0,0,1,2.443,1.16L33.1-13.5H34.69L32.353,0H30.9l.167-1.02a3.506,3.506,0,0,1-2.777,1.2,2.627,2.627,0,0,1-2.1-1.033,4.5,4.5,0,0,1-.844-2.676A8.547,8.547,0,0,1,25.392-4.772Zm1.529.909a3.3,3.3,0,0,0,.448,1.949,1.617,1.617,0,0,0,1.389.711A2.874,2.874,0,0,0,31.21-2.591l.756-4.389A1.973,1.973,0,0,0,30.05-8.314a2.411,2.411,0,0,0-1.657.566A3.663,3.663,0,0,0,27.3-6.089,6.842,6.842,0,0,0,26.921-3.864ZM36.589,0H35.007l1.652-9.51h1.582ZM37.9-12.981a.87.87,0,0,1,.672.242.9.9,0,0,1,.268.681.955.955,0,0,1-.268.677.962.962,0,0,1-.672.281.876.876,0,0,1-.677-.237.86.86,0,0,1-.255-.668,1,1,0,0,1,.264-.686A.93.93,0,0,1,37.9-12.981ZM45.009,0a2.13,2.13,0,0,1-.062-.5l.026-.5A3.9,3.9,0,0,1,42.2.176a2.841,2.841,0,0,1-2.043-.8,2.407,2.407,0,0,1-.716-1.947,2.927,2.927,0,0,1,1.323-2.36,5.631,5.631,0,0,1,3.248-.848l1.661.009.105-.756a1.738,1.738,0,0,0-.33-1.349,1.591,1.591,0,0,0-1.252-.514,2.453,2.453,0,0,0-1.446.4,1.7,1.7,0,0,0-.769,1.1l-1.6.009a2.55,2.55,0,0,1,.65-1.481,3.784,3.784,0,0,1,1.468-1,4.742,4.742,0,0,1,1.854-.338,3.153,3.153,0,0,1,2.312.9,2.794,2.794,0,0,1,.694,2.3l-.773,4.711-.044.677a3.318,3.318,0,0,0,.105.958L46.626,0Zm-2.5-1.23A2.774,2.774,0,0,0,43.958-1.6a3.661,3.661,0,0,0,1.173-1.059l.343-1.96-1.2-.009a4.561,4.561,0,0,0-2.3.475A1.748,1.748,0,0,0,41.063-2.8a1.361,1.361,0,0,0,.312,1.112A1.486,1.486,0,0,0,42.513-1.23Zm9.422-8.288-.229,1.2a3.749,3.749,0,0,1,2.918-1.371,2.359,2.359,0,0,1,1.986.932,3.619,3.619,0,0,1,.475,2.522L56.048,0H54.457L55.5-6.251a3.332,3.332,0,0,0,.009-.8,1.314,1.314,0,0,0-1.45-1.255,2.994,2.994,0,0,0-2.514,1.528L50.37,0H48.779l1.652-9.51ZM64.318,0a2.13,2.13,0,0,1-.062-.5l.026-.5A3.9,3.9,0,0,1,61.506.176a2.841,2.841,0,0,1-2.043-.8,2.407,2.407,0,0,1-.716-1.947,2.927,2.927,0,0,1,1.323-2.36,5.631,5.631,0,0,1,3.248-.848l1.661.009.105-.756a1.738,1.738,0,0,0-.33-1.349A1.591,1.591,0,0,0,63.5-8.385a2.453,2.453,0,0,0-1.446.4,1.7,1.7,0,0,0-.769,1.1l-1.6.009a2.55,2.55,0,0,1,.65-1.481,3.784,3.784,0,0,1,1.468-1,4.742,4.742,0,0,1,1.854-.338,3.153,3.153,0,0,1,2.312.9,2.794,2.794,0,0,1,.694,2.3l-.773,4.711-.044.677a3.318,3.318,0,0,0,.105.958L65.936,0Zm-2.5-1.23A2.774,2.774,0,0,0,63.268-1.6a3.661,3.661,0,0,0,1.173-1.059l.343-1.96-1.2-.009a4.561,4.561,0,0,0-2.3.475A1.748,1.748,0,0,0,60.372-2.8a1.361,1.361,0,0,0,.312,1.112A1.486,1.486,0,0,0,61.822-1.23ZM73.4-5.159a16.638,16.638,0,0,1,1.077-3.955A12.256,12.256,0,0,1,76.4-12.4a7.925,7.925,0,0,1,2.549-2.052l.237,1.09a9.121,9.121,0,0,0-2.369,2.685A13.816,13.816,0,0,0,75.3-6.737a18.939,18.939,0,0,0-.519,4.5,9.956,9.956,0,0,0,.47,3.2,5.056,5.056,0,0,0,1.358,2.184l-.4.984a6.347,6.347,0,0,1-2.246-3.015,11.627,11.627,0,0,1-.708-4.57,13.9,13.9,0,0,1,.123-1.608ZM84.138-7.9l3.735-4.9h2.039L84.929-6.372,87.908,0H86.054L83.786-4.983,79.937,0H77.9l5.089-6.53-2.9-6.267h1.828Zm9.984,2.76a16.309,16.309,0,0,1-1.116,4.056A12.2,12.2,0,0,1,91.068,2.14a8.059,8.059,0,0,1-2.5,2l-.246-1.011Q91.336.861,92.347-4.157a18.938,18.938,0,0,0,.387-3.894q-.044-3.771-1.828-5.405l.413-.984a5.826,5.826,0,0,1,1.666,1.824,8.6,8.6,0,0,1,1,2.646,13.548,13.548,0,0,1,.286,3.125,15.012,15.012,0,0,1-.132,1.608Zm14.5-2.013H101.5l.246-1.415h7.128Zm-.633,3.647h-7.119l.246-1.406h7.128Z" transform="translate(-9180.385 -12865.645)" fill="#fff"/>
    <path id="Trazado_704963" data-name="Trazado 704963" d="M4.825-12.8,7.066-2.373,12.938-12.8h2.171L12.885,0H11.241l.879-5.062,1.046-5.15L7.365,0H6.1L3.814-10.415,3.023-4.9,2.171,0H.519L2.742-12.8ZM19.714.176a3.429,3.429,0,0,1-2.777-1.31,4.507,4.507,0,0,1-.844-3.261l.044-.378a6.327,6.327,0,0,1,.839-2.584,4.882,4.882,0,0,1,1.683-1.762A3.927,3.927,0,0,1,20.8-9.686a3.024,3.024,0,0,1,2.3.976,4.012,4.012,0,0,1,.914,2.549,7.448,7.448,0,0,1-.035,1.143l-.1.729H17.675a3.212,3.212,0,0,0,.426,2.2,2.019,2.019,0,0,0,1.745.94,3.383,3.383,0,0,0,2.6-1.266l.914.773A4.183,4.183,0,0,1,21.819-.294,4.371,4.371,0,0,1,19.714.176Zm1.011-8.534a2.324,2.324,0,0,0-1.718.668,4.748,4.748,0,0,0-1.165,2.065l4.623.009.035-.141A2.6,2.6,0,0,0,22.144-7.6,1.674,1.674,0,0,0,20.725-8.358Zm4.667,3.586a7.4,7.4,0,0,1,.8-2.619,4.534,4.534,0,0,1,1.538-1.749,3.517,3.517,0,0,1,2.013-.554,2.971,2.971,0,0,1,2.443,1.16L33.1-13.5H34.69L32.353,0H30.9l.167-1.02a3.506,3.506,0,0,1-2.777,1.2,2.627,2.627,0,0,1-2.1-1.033,4.5,4.5,0,0,1-.844-2.676A8.547,8.547,0,0,1,25.392-4.772Zm1.529.909a3.3,3.3,0,0,0,.448,1.949,1.617,1.617,0,0,0,1.389.711A2.874,2.874,0,0,0,31.21-2.591l.756-4.389A1.973,1.973,0,0,0,30.05-8.314a2.411,2.411,0,0,0-1.657.566A3.663,3.663,0,0,0,27.3-6.089,6.842,6.842,0,0,0,26.921-3.864ZM36.589,0H35.007l1.652-9.51h1.582ZM37.9-12.981a.87.87,0,0,1,.672.242.9.9,0,0,1,.268.681.955.955,0,0,1-.268.677.962.962,0,0,1-.672.281.876.876,0,0,1-.677-.237.86.86,0,0,1-.255-.668,1,1,0,0,1,.264-.686A.93.93,0,0,1,37.9-12.981ZM45.009,0a2.13,2.13,0,0,1-.062-.5l.026-.5A3.9,3.9,0,0,1,42.2.176a2.841,2.841,0,0,1-2.043-.8,2.407,2.407,0,0,1-.716-1.947,2.927,2.927,0,0,1,1.323-2.36,5.631,5.631,0,0,1,3.248-.848l1.661.009.105-.756a1.738,1.738,0,0,0-.33-1.349,1.591,1.591,0,0,0-1.252-.514,2.453,2.453,0,0,0-1.446.4,1.7,1.7,0,0,0-.769,1.1l-1.6.009a2.55,2.55,0,0,1,.65-1.481,3.784,3.784,0,0,1,1.468-1,4.742,4.742,0,0,1,1.854-.338,3.153,3.153,0,0,1,2.312.9,2.794,2.794,0,0,1,.694,2.3l-.773,4.711-.044.677a3.318,3.318,0,0,0,.105.958L46.626,0Zm-2.5-1.23A2.774,2.774,0,0,0,43.958-1.6a3.661,3.661,0,0,0,1.173-1.059l.343-1.96-1.2-.009a4.561,4.561,0,0,0-2.3.475A1.748,1.748,0,0,0,41.063-2.8a1.361,1.361,0,0,0,.312,1.112A1.486,1.486,0,0,0,42.513-1.23Z" transform="translate(-9058.443 -12865.645)" fill="#fff"/>
    <path id="Trazado_704964" data-name="Trazado 704964" d="M8.78-11.852l5.6-7.343h3.059L9.967-9.558,14.436,0H11.654l-3.4-7.475L2.479,0H-.58L7.053-9.8,2.7-19.2H5.445Z" transform="translate(-8993.992 -12864.73)" fill="#fff"/>
    <path id="Trazado_704965" data-name="Trazado 704965" d="M7.8-10.535l4.98-6.527H15.5L8.859-8.5,12.832,0H10.359L7.336-6.645,2.2,0H-.516L6.27-8.707,2.4-17.062H4.84Z" transform="translate(-8826.702 -12877.194)" fill="#fff"/>
    <path id="Trazado_704966" data-name="Trazado 704966" d="M8.78-11.852l5.6-7.343h3.059L9.967-9.558,14.436,0H11.654l-3.4-7.475L2.479,0H-.58L7.053-9.8,2.7-19.2H5.445Z" transform="translate(-8936.142 -12864.73)" fill="#fff"/>
    <path id="Trazado_704967" data-name="Trazado 704967" d="M7.8-10.535l4.98-6.527H15.5L8.859-8.5,12.832,0H10.359L7.336-6.645,2.2,0H-.516L6.27-8.707,2.4-17.062H4.84Z" transform="translate(-8775.211 -12877.194)" fill="#fff"/>
    <path id="Trazado_704968" data-name="Trazado 704968" d="M6.993-8.008h4.04l-.318,1.794H6.686L5.865-1.5H4l.82-4.717H.779L1.1-8.008h4.03l.759-4.358H7.752ZM17.842,0H15.976L18.17-12.592,14.2-11.2,14.52-13l5.537-2h.328Z" transform="translate(-8890.443 -12866.242)" fill="#fff"/>
    <path id="Trazado_704969" data-name="Trazado 704969" d="M5.994-6.864H9.457L9.185-5.326H5.73l-.7,4.043h-1.6l.7-4.043H.668L.94-6.864H4.395l.65-3.735h1.6ZM15.293,0h-1.6l1.881-10.793-3.4,1.2.272-1.547,4.746-1.714h.281Z" transform="translate(-8734.537 -12878.2)" fill="#fff"/>
    <path id="Trazado_704970" data-name="Trazado 704970" d="M10.192-8.347H1.887L2.174-10H10.49ZM9.454-4.091H1.148l.287-1.641H9.751Z" transform="translate(-8852.443 -12866.242)" fill="#fff"/>
    <path id="Trazado_704971" data-name="Trazado 704971" d="M-.119,3.836-1.49,2.848A8.707,8.707,0,0,0,.409-.9L.751-2.887H3.085l-.277,1.78A7.629,7.629,0,0,1-.119,3.836Z" transform="translate(-8946.083 -12867.73)" fill="#fff"/>
    <path id="Trazado_704972" data-name="Trazado 704972" d="M5.661-6.483H8.932L8.674-5.03H5.412L4.748-1.212H3.237L3.9-5.03H.631L.888-6.483H4.15l.614-3.528H6.275Z" transform="translate(-8786.443 -12879.242)" fill="#fff"/>
    <path id="Trazado_704973" data-name="Trazado 704973" d="M2.663-11.751A37.9,37.9,0,0,1,5.115-20.76a27.916,27.916,0,0,1,4.394-7.477,18.052,18.052,0,0,1,5.806-4.675l.541,2.482a20.777,20.777,0,0,0-5.4,6.116,31.471,31.471,0,0,0-3.473,8.969A43.138,43.138,0,0,0,5.806-5.1a22.678,22.678,0,0,0,1.071,7.3A11.516,11.516,0,0,0,9.97,7.167l-.9,2.242A14.456,14.456,0,0,1,3.954,2.542,26.485,26.485,0,0,1,2.342-7.868a31.649,31.649,0,0,1,.28-3.664Z" transform="translate(-9008.443 -12862.242)" fill="#fff"/>
    <path id="Trazado_704974" data-name="Trazado 704974" d="M10.951-11.711A37.147,37.147,0,0,1,8.408-2.472,27.78,27.78,0,0,1,3.994,4.875,18.356,18.356,0,0,1-1.7,9.429l-.561-2.3Q4.6,1.962,6.907-9.469a43.136,43.136,0,0,0,.881-8.869q-.1-8.588-4.164-12.312l.941-2.242a13.271,13.271,0,0,1,3.794,4.154,19.59,19.59,0,0,1,2.282,6.026,30.859,30.859,0,0,1,.651,7.117,34.2,34.2,0,0,1-.3,3.664Z" transform="translate(-8866.443 -12862.242)" fill="#fff"/>
    <path id="Trazado_704975" data-name="Trazado 704975" d="M11.32,0h-1.7L3.182-9.861V0h-1.7V-12.8h1.7l6.46,9.905V-12.8H11.32Z" transform="translate(-8968.024 -12877.73)" fill="#fff"/>
    <path id="Trazado_704976" data-name="Trazado 704976" d="M9.434,0H8.02L2.651-8.218V0H1.238V-10.664H2.651L8.035-2.41v-8.254h1.4Z" transform="translate(-8803.589 -12889.645)" fill="#fff"/>
    <path id="Trazado_704977" data-name="Trazado 704977" d="M11.32,0h-1.7L3.182-9.861V0h-1.7V-12.8h1.7l6.46,9.905V-12.8H11.32Z" transform="translate(-8910.174 -12877.73)" fill="#fff"/>
    <path id="Trazado_704978" data-name="Trazado 704978" d="M9.434,0H8.02L2.651-8.218V0H1.238V-10.664H2.651L8.035-2.41v-8.254h1.4Z" transform="translate(-8752.099 -12889.645)" fill="#fff"/>
    <path id="Trazado_704979" data-name="Trazado 704979" d="M10.5,0H1.182V-1.3L6.1-6.768A11.693,11.693,0,0,0,7.612-8.784a3.366,3.366,0,0,0,.415-1.606,2.551,2.551,0,0,0-.674-1.826,2.356,2.356,0,0,0-1.8-.713,2.79,2.79,0,0,0-2.095.767,2.928,2.928,0,0,0-.747,2.134H.908A4.194,4.194,0,0,1,2.173-13.2a4.688,4.688,0,0,1,3.384-1.211,4.5,4.5,0,0,1,3.135,1.04,3.548,3.548,0,0,1,1.152,2.769q0,2.1-2.676,5L3.359-1.475H10.5Z" transform="translate(-8970.024 -12852.543)" fill="#fff"/>
    <path id="Trazado_704980" data-name="Trazado 704980" d="M8.4,0H.945V-1.039L4.883-5.414A9.354,9.354,0,0,0,6.09-7.027a2.693,2.693,0,0,0,.332-1.285,2.041,2.041,0,0,0-.539-1.461,1.885,1.885,0,0,0-1.437-.57A2.232,2.232,0,0,0,2.77-9.73a2.343,2.343,0,0,0-.6,1.707H.727a3.355,3.355,0,0,1,1.012-2.539,3.751,3.751,0,0,1,2.707-.969,3.6,3.6,0,0,1,2.508.832,2.838,2.838,0,0,1,.922,2.215q0,1.68-2.141,4L2.688-1.18H8.4Z" transform="translate(-8805.369 -12868.007)" fill="#fff"/>
    <path id="Trazado_704981" data-name="Trazado 704981" d="M8.4,0H.945V-1.039L4.883-5.414A9.354,9.354,0,0,0,6.09-7.027a2.693,2.693,0,0,0,.332-1.285,2.041,2.041,0,0,0-.539-1.461,1.885,1.885,0,0,0-1.437-.57A2.232,2.232,0,0,0,2.77-9.73a2.343,2.343,0,0,0-.6,1.707H.727a3.355,3.355,0,0,1,1.012-2.539,3.751,3.751,0,0,1,2.707-.969,3.6,3.6,0,0,1,2.508.832,2.838,2.838,0,0,1,.922,2.215q0,1.68-2.141,4L2.688-1.18H8.4Z" transform="translate(-8776.443 -12846.743)" fill="#fff"/>
    <path id="Trazado_704982" data-name="Trazado 704982" d="M10.5,0H1.182V-1.3L6.1-6.768A11.693,11.693,0,0,0,7.612-8.784a3.366,3.366,0,0,0,.415-1.606,2.551,2.551,0,0,0-.674-1.826,2.356,2.356,0,0,0-1.8-.713,2.79,2.79,0,0,0-2.095.767,2.928,2.928,0,0,0-.747,2.134H.908A4.194,4.194,0,0,1,2.173-13.2a4.688,4.688,0,0,1,3.384-1.211,4.5,4.5,0,0,1,3.135,1.04,3.548,3.548,0,0,1,1.152,2.769q0,2.1-2.676,5L3.359-1.475H10.5Z" transform="translate(-8912.174 -12852.543)" fill="#fff"/>
    <path id="Trazado_704983" data-name="Trazado 704983" d="M8.4,0H.945V-1.039L4.883-5.414A9.354,9.354,0,0,0,6.09-7.027a2.693,2.693,0,0,0,.332-1.285,2.041,2.041,0,0,0-.539-1.461,1.885,1.885,0,0,0-1.437-.57A2.232,2.232,0,0,0,2.77-9.73a2.343,2.343,0,0,0-.6,1.707H.727a3.355,3.355,0,0,1,1.012-2.539,3.751,3.751,0,0,1,2.707-.969,3.6,3.6,0,0,1,2.508.832,2.838,2.838,0,0,1,.922,2.215q0,1.68-2.141,4L2.688-1.18H8.4Z" transform="translate(-8753.878 -12868.007)" fill="#fff"/>
    <path id="Trazado_197200" data-name="Trazado 197200" d="M-9613.244-9288.434h21.271" transform="translate(639.15 -3583.107)" fill="#fff" stroke="#fff" stroke-width="1"/>
    <path id="Trazado_197203" data-name="Trazado 197203" d="M-9613.244-9288.434h18.934" transform="translate(804.253 -3594.571)" fill="#fff" stroke="#fff" stroke-width="1"/>
    <path id="Trazado_197204" data-name="Trazado 197204" d="M-9613.242-9288.434h135.148" transform="translate(775.801 -3575.573)" fill="#fff" stroke="#fff" stroke-width="1"/>
    <path id="Trazado_197201" data-name="Trazado 197201" d="M-9613.244-9288.434h21.271" transform="translate(697.001 -3583.107)" fill="#fff" stroke="#fff" stroke-width="1"/>
    <path id="Trazado_197202" data-name="Trazado 197202" d="M-9613.244-9288.434h18.934" transform="translate(855.744 -3594.571)" fill="#fff" stroke="#fff" stroke-width="1"/>
  </g>
</svg>
