<svg xmlns="http://www.w3.org/2000/svg" width="400" height="81" viewBox="0 0 400 81">
  <g id="Grupo_974165" data-name="Grupo 974165" transform="translate(-352.995 -7172.762)">
    <g id="Grupo_974106" data-name="Grupo 974106">
      <path id="Trazado_705356" data-name="Trazado 705356" d="M10,0H390a10,10,0,0,1,10,10V71a10,10,0,0,1-10,10H10A10,10,0,0,1,0,71V10A10,10,0,0,1,10,0Z" transform="translate(352.995 7172.762)" fill="#2e0877"/>
      <path id="Trazado_705357" data-name="Trazado 705357" d="M3.524-4.746V0H1.3V-12.8H6.2A4.95,4.95,0,0,1,9.6-11.679a3.757,3.757,0,0,1,1.261,2.956,3.633,3.633,0,0,1-1.235,2.93A5.19,5.19,0,0,1,6.17-4.746Zm0-1.793H6.2A2.632,2.632,0,0,0,8.007-7.1,2.051,2.051,0,0,0,8.631-8.71,2.213,2.213,0,0,0,8-10.367,2.439,2.439,0,0,0,6.258-11H3.524ZM17.112-5.2a13.393,13.393,0,0,1,.545-3.854,10.578,10.578,0,0,1,1.6-3.261,6.351,6.351,0,0,1,2.232-2.017l.422,1.248a6.524,6.524,0,0,0-2.008,2.87A12.852,12.852,0,0,0,19.063-5.8l-.009.756a13.972,13.972,0,0,0,.751,4.75,7,7,0,0,0,2.1,3.177l-.422,1.187a6.362,6.362,0,0,1-2.237-2.026,10.577,10.577,0,0,1-1.6-3.261A13.921,13.921,0,0,1,17.112-5.2ZM30.727-2.979H25.77L24.732,0H22.421l4.834-12.8h2L34.093,0h-2.32ZM26.394-4.772H30.1l-1.854-5.309ZM48.99,0V-12.8h4.386a5.354,5.354,0,0,1,3.3.87,3.065,3.065,0,0,1,1.134,2.593,2.763,2.763,0,0,1-.475,1.582,3.055,3.055,0,0,1-1.389,1.09,2.825,2.825,0,0,1,1.6,1.059,3.085,3.085,0,0,1,.567,1.868A3.407,3.407,0,0,1,56.966-.967,5.025,5.025,0,0,1,53.657,0Zm2.224-5.774v4h2.47a2.39,2.39,0,0,0,1.635-.519,1.82,1.82,0,0,0,.589-1.441,1.826,1.826,0,0,0-2.039-2.039Zm0-1.635h2.18a2.521,2.521,0,0,0,1.622-.47A1.611,1.611,0,0,0,55.6-9.211a1.633,1.633,0,0,0-.541-1.371A2.73,2.73,0,0,0,53.376-11H51.214ZM64.257-5.062A13.224,13.224,0,0,1,63.721-1.3a10.671,10.671,0,0,1-1.626,3.3,6.367,6.367,0,0,1-2.276,2.061L59.4,2.883A6.754,6.754,0,0,0,61.484-.233a13.84,13.84,0,0,0,.769-4.786v-.2a14.044,14.044,0,0,0-.668-4.452,7.852,7.852,0,0,0-1.916-3.221L59.4-13.14l.422-1.2A6.3,6.3,0,0,1,62-12.4a10.491,10.491,0,0,1,1.617,3.107,12.941,12.941,0,0,1,.633,3.546ZM78.724-6.855H71.147V-8.631h7.576Zm0,3.727H71.147V-4.9h7.576Z" transform="translate(398.995 7219.762)" fill="#fff"/>
      <path id="Trazado_704770" data-name="Trazado 704770" d="M-8300.742,22099.5h200.672" transform="translate(8800.995 -14886.238)" fill="#fff" stroke="#fff" stroke-width="1"/>
      <path id="Trazado_705358" data-name="Trazado 705358" d="M3.524-4.746V0H1.3V-12.8H6.2A4.95,4.95,0,0,1,9.6-11.679a3.757,3.757,0,0,1,1.261,2.956,3.633,3.633,0,0,1-1.235,2.93A5.19,5.19,0,0,1,6.17-4.746Zm0-1.793H6.2A2.632,2.632,0,0,0,8.007-7.1,2.051,2.051,0,0,0,8.631-8.71,2.213,2.213,0,0,0,8-10.367,2.439,2.439,0,0,0,6.258-11H3.524ZM17.112-5.2a13.393,13.393,0,0,1,.545-3.854,10.578,10.578,0,0,1,1.6-3.261,6.351,6.351,0,0,1,2.232-2.017l.422,1.248a6.524,6.524,0,0,0-2.008,2.87A12.852,12.852,0,0,0,19.063-5.8l-.009.756a13.972,13.972,0,0,0,.751,4.75,7,7,0,0,0,2.1,3.177l-.422,1.187a6.362,6.362,0,0,1-2.237-2.026,10.577,10.577,0,0,1-1.6-3.261A13.921,13.921,0,0,1,17.112-5.2ZM23.563,0V-12.8h4.386a5.354,5.354,0,0,1,3.3.87,3.065,3.065,0,0,1,1.134,2.593,2.763,2.763,0,0,1-.475,1.582,3.055,3.055,0,0,1-1.389,1.09,2.825,2.825,0,0,1,1.6,1.059A3.085,3.085,0,0,1,32.7-3.735,3.407,3.407,0,0,1,31.54-.967,5.025,5.025,0,0,1,28.23,0Zm2.224-5.774v4h2.47a2.39,2.39,0,0,0,1.635-.519,1.82,1.82,0,0,0,.589-1.441,1.826,1.826,0,0,0-2.039-2.039Zm0-1.635h2.18a2.521,2.521,0,0,0,1.622-.47,1.611,1.611,0,0,0,.584-1.332,1.633,1.633,0,0,0-.541-1.371A2.73,2.73,0,0,0,27.949-11H25.787Zm29.742,4.43H50.572L49.535,0H47.224l4.834-12.8h2L58.9,0h-2.32ZM51.2-4.772h3.709l-1.854-5.309Zm13.061-.29A13.224,13.224,0,0,1,63.721-1.3a10.671,10.671,0,0,1-1.626,3.3,6.367,6.367,0,0,1-2.276,2.061L59.4,2.883A6.754,6.754,0,0,0,61.484-.233a13.84,13.84,0,0,0,.769-4.786v-.2a14.044,14.044,0,0,0-.668-4.452,7.852,7.852,0,0,0-1.916-3.221L59.4-13.14l.422-1.2A6.3,6.3,0,0,1,62-12.4a10.491,10.491,0,0,1,1.617,3.107,12.941,12.941,0,0,1,.633,3.546Zm8.534-3.485L70.11-9.32l.483-1.484,2.654,1.027-.132-3.02h1.573l-.132,3.073,2.61-1.01.475,1.51-2.725.773,1.758,2.338L75.4-5.181,73.819-7.712,72.255-5.26l-1.283-.9Zm13.043,3.8V0H83.61V-12.8h4.9a4.95,4.95,0,0,1,3.406,1.117,3.757,3.757,0,0,1,1.261,2.956,3.633,3.633,0,0,1-1.235,2.93,5.19,5.19,0,0,1-3.458,1.047Zm0-1.793h2.672A2.632,2.632,0,0,0,90.316-7.1,2.051,2.051,0,0,0,90.94-8.71a2.213,2.213,0,0,0-.633-1.657A2.439,2.439,0,0,0,88.567-11H85.834ZM94.939-5.2a13.393,13.393,0,0,1,.545-3.854,10.578,10.578,0,0,1,1.6-3.261,6.351,6.351,0,0,1,2.232-2.017l.422,1.248a6.524,6.524,0,0,0-2.008,2.87A12.852,12.852,0,0,0,96.891-5.8l-.009.756a13.972,13.972,0,0,0,.751,4.75,7,7,0,0,0,2.1,3.177l-.422,1.187A6.362,6.362,0,0,1,97.08,2.043a10.577,10.577,0,0,1-1.6-3.261A13.921,13.921,0,0,1,94.939-5.2Zm13.614,2.224H103.6L102.56,0h-2.312l4.834-12.8h2L111.92,0H109.6Zm-4.333-1.793h3.709l-1.854-5.309Zm13.061-.29a13.224,13.224,0,0,1-.536,3.766,10.671,10.671,0,0,1-1.626,3.3,6.367,6.367,0,0,1-2.276,2.061l-.422-1.187a6.754,6.754,0,0,0,2.087-3.116,13.84,13.84,0,0,0,.769-4.786v-.2a14.044,14.044,0,0,0-.668-4.452,7.852,7.852,0,0,0-1.916-3.221l-.272-.246.422-1.2a6.3,6.3,0,0,1,2.18,1.934,10.491,10.491,0,0,1,1.617,3.107,12.941,12.941,0,0,1,.633,3.546Z" transform="translate(520.995 7201.762)" fill="#fff"/>
      <path id="Trazado_705359" data-name="Trazado 705359" d="M3.524-4.746V0H1.3V-12.8H6.2A4.95,4.95,0,0,1,9.6-11.679a3.757,3.757,0,0,1,1.261,2.956,3.633,3.633,0,0,1-1.235,2.93A5.19,5.19,0,0,1,6.17-4.746Zm0-1.793H6.2A2.632,2.632,0,0,0,8.007-7.1,2.051,2.051,0,0,0,8.631-8.71,2.213,2.213,0,0,0,8-10.367,2.439,2.439,0,0,0,6.258-11H3.524ZM12.63-5.2a13.393,13.393,0,0,1,.545-3.854,10.578,10.578,0,0,1,1.6-3.261,6.351,6.351,0,0,1,2.232-2.017l.422,1.248a6.524,6.524,0,0,0-2.008,2.87A12.852,12.852,0,0,0,14.581-5.8l-.009.756a13.972,13.972,0,0,0,.751,4.75,7,7,0,0,0,2.1,3.177l-.422,1.187A6.362,6.362,0,0,1,14.77,2.043a10.577,10.577,0,0,1-1.6-3.261A13.921,13.921,0,0,1,12.63-5.2ZM19.081,0V-12.8h4.386a5.354,5.354,0,0,1,3.3.87,3.065,3.065,0,0,1,1.134,2.593,2.763,2.763,0,0,1-.475,1.582,3.055,3.055,0,0,1-1.389,1.09,2.825,2.825,0,0,1,1.6,1.059,3.085,3.085,0,0,1,.567,1.868A3.407,3.407,0,0,1,27.057-.967,5.025,5.025,0,0,1,23.748,0ZM21.3-5.774v4h2.47a2.39,2.39,0,0,0,1.635-.519A1.82,1.82,0,0,0,26-3.735a1.826,1.826,0,0,0-2.039-2.039Zm0-1.635h2.18a2.521,2.521,0,0,0,1.622-.47,1.611,1.611,0,0,0,.584-1.332,1.633,1.633,0,0,0-.541-1.371A2.73,2.73,0,0,0,23.467-11H21.3ZM34.348-5.062A13.224,13.224,0,0,1,33.812-1.3a10.671,10.671,0,0,1-1.626,3.3,6.367,6.367,0,0,1-2.276,2.061l-.422-1.187A6.754,6.754,0,0,0,31.575-.233a13.84,13.84,0,0,0,.769-4.786v-.2a14.044,14.044,0,0,0-.668-4.452,7.852,7.852,0,0,0-1.916-3.221l-.272-.246.422-1.2a6.3,6.3,0,0,1,2.18,1.934,10.491,10.491,0,0,1,1.617,3.107,12.941,12.941,0,0,1,.633,3.546Z" transform="translate(562.995 7237.762)" fill="#fff"/>
      <path id="Trazado_704771" data-name="Trazado 704771" d="M-8363,22092v18.938" transform="translate(8802.995 -14888.238)" fill="#fff" stroke="#fff" stroke-width="1"/>
      <path id="Trazado_704772" data-name="Trazado 704772" d="M-8363,22092v18.938" transform="translate(8924.995 -14905.176)" fill="#fff" stroke="#fff" stroke-width="1"/>
    </g>
  </g>
</svg>
