<svg xmlns="http://www.w3.org/2000/svg" width="470.417" height="278" viewBox="0 0 470.417 278">
  <g id="Grupo_166800" data-name="Grupo 166800" transform="translate(-669.678 -18879)">
    <g id="persona" transform="translate(824 18977.748)">
      <path id="Trazado_177445" data-name="Trazado 177445" d="M252.255,414.5h-4.087v6.131l6.131,6.131h4.087Zm0,0" transform="translate(-214.359 -358.03)" fill="#adf5ff"/>
      <path id="Trazado_177446" data-name="Trazado 177446" d="M13.631,414.5,7.5,426.761H46.418L40.287,414.5Zm0,0" transform="translate(-6.478 -358.03)" fill="#acfcff"/>
      <path id="Trazado_177447" data-name="Trazado 177447" d="M192.255,127.5h-4.087l4.087,22.821a2.045,2.045,0,0,0,4.087,0V131.587A4.1,4.1,0,0,0,192.255,127.5Zm0,0" transform="translate(-162.533 -110.13)" fill="#d9d9f5"/>
      <path id="Trazado_177448" data-name="Trazado 177448" d="M86.587,127.5h4.087l-4.087,22.753a2.044,2.044,0,1,1-4.087,0V131.587A4.1,4.1,0,0,1,86.587,127.5Zm0,0" transform="translate(-71.26 -110.13)" fill="#dad9ff"/>
      <path id="Trazado_177449" data-name="Trazado 177449" d="M126.9,131.587a4.1,4.1,0,0,0-4.087-4.087h-6.222a4.1,4.1,0,0,0-4.087,4.087v38.566a2.577,2.577,0,0,0,5.155,0v-19.9h4.087v19.9a2.577,2.577,0,0,0,5.154,0Zm0,0" transform="translate(-97.173 -110.13)" fill="#a4a3ff"/>
      <path id="Trazado_177450" data-name="Trazado 177450" d="M165.664,7.5V19.761a6.131,6.131,0,1,0,0-12.261Zm0,0" transform="translate(-143.095 -6.478)" fill="#d9d9f5"/>
      <path id="Trazado_177451" data-name="Trazado 177451" d="M128.838,13.631c0-3.386-.915-6.131-2.044-6.131a6.131,6.131,0,0,0,0,12.261C127.923,19.761,128.838,17.016,128.838,13.631Zm0,0" transform="translate(-104.225 -6.478)" fill="#a4a3ff"/>
      <path id="Trazado_177452" data-name="Trazado 177452" d="M44.941,171.925,38.81,159.664a1.022,1.022,0,0,0-.914-.565H33.809a1.022,1.022,0,1,0,0,2.044h3.455l5.109,10.218H2.675l5.109-10.218H14.3v2.532a3.6,3.6,0,0,0,7.2,0v-2.487h2.044v2.487a3.6,3.6,0,0,0,7.2,0v-17a3.2,3.2,0,0,0,1.022.166,3,3,0,0,0,3.065-3V125.109A5.114,5.114,0,0,0,29.722,120h-14.4a5.115,5.115,0,0,0-5.109,5.109v18.666a3.065,3.065,0,0,0,4.087,2.89V159.1H7.153a1.022,1.022,0,0,0-.914.565L.108,171.925a1.022,1.022,0,0,0,.914,1.479H44.027a1.022,1.022,0,0,0,.914-1.479ZM21.5,159.144V144.8h2.044v14.348ZM13.283,144.8a1.023,1.023,0,0,1-1.022-1.022V125.109a3.069,3.069,0,0,1,3.065-3.065h14.4a3.069,3.069,0,0,1,3.065,3.065v18.734a1.024,1.024,0,0,1-2.044,0V125.109a1.022,1.022,0,0,0-2.044,0v38.566a1.556,1.556,0,0,1-3.111,0v-19.9a1.021,1.021,0,0,0-1.022-1.022H20.481a1.022,1.022,0,0,0-1.022,1.022v19.9a1.555,1.555,0,0,1-3.111,0V131.239a1.022,1.022,0,0,0-2.044,0v12.535A1.023,1.023,0,0,1,13.283,144.8Zm0,0" transform="translate(0 -103.652)"/>
      <path id="Trazado_177453" data-name="Trazado 177453" d="M106.022,154.087a1.021,1.021,0,0,0,1.022-1.022v-2.044a1.022,1.022,0,0,0-2.044,0v2.044A1.022,1.022,0,0,0,106.022,154.087Zm0,0" transform="translate(-90.695 -129.565)"/>
      <path id="Trazado_177454" data-name="Trazado 177454" d="M120.316,14.3a7.152,7.152,0,1,0-7.152-7.152A7.161,7.161,0,0,0,120.316,14.3Zm0-12.261a5.109,5.109,0,1,1-5.109,5.109A5.115,5.115,0,0,1,120.316,2.044Zm0,0" transform="translate(-97.747)"/>
    </g>
    <g id="persona-2" data-name="persona" transform="translate(904.496 18977.748)">
      <path id="Trazado_177445-2" data-name="Trazado 177445" d="M252.255,414.5h-4.087v6.131l6.131,6.131h4.087Zm0,0" transform="translate(-214.359 -358.03)" fill="#adf5ff"/>
      <path id="Trazado_177446-2" data-name="Trazado 177446" d="M13.631,414.5,7.5,426.761H46.418L40.287,414.5Zm0,0" transform="translate(-6.478 -358.03)" fill="#acfcff"/>
      <path id="Trazado_177447-2" data-name="Trazado 177447" d="M192.255,127.5h-4.087l4.087,22.821a2.045,2.045,0,0,0,4.087,0V131.587A4.1,4.1,0,0,0,192.255,127.5Zm0,0" transform="translate(-162.533 -110.13)" fill="#d9d9f5"/>
      <path id="Trazado_177448-2" data-name="Trazado 177448" d="M86.587,127.5h4.087l-4.087,22.753a2.044,2.044,0,1,1-4.087,0V131.587A4.1,4.1,0,0,1,86.587,127.5Zm0,0" transform="translate(-71.26 -110.13)" fill="#dad9ff"/>
      <path id="Trazado_177449-2" data-name="Trazado 177449" d="M126.9,131.587a4.1,4.1,0,0,0-4.087-4.087h-6.222a4.1,4.1,0,0,0-4.087,4.087v38.566a2.577,2.577,0,0,0,5.155,0v-19.9h4.087v19.9a2.577,2.577,0,0,0,5.154,0Zm0,0" transform="translate(-97.173 -110.13)" fill="#a4a3ff"/>
      <path id="Trazado_177450-2" data-name="Trazado 177450" d="M165.664,7.5V19.761a6.131,6.131,0,1,0,0-12.261Zm0,0" transform="translate(-143.095 -6.478)" fill="#d9d9f5"/>
      <path id="Trazado_177451-2" data-name="Trazado 177451" d="M128.838,13.631c0-3.386-.915-6.131-2.044-6.131a6.131,6.131,0,0,0,0,12.261C127.923,19.761,128.838,17.016,128.838,13.631Zm0,0" transform="translate(-104.225 -6.478)" fill="#a4a3ff"/>
      <path id="Trazado_177452-2" data-name="Trazado 177452" d="M44.941,171.925,38.81,159.664a1.022,1.022,0,0,0-.914-.565H33.809a1.022,1.022,0,1,0,0,2.044h3.455l5.109,10.218H2.675l5.109-10.218H14.3v2.532a3.6,3.6,0,0,0,7.2,0v-2.487h2.044v2.487a3.6,3.6,0,0,0,7.2,0v-17a3.2,3.2,0,0,0,1.022.166,3,3,0,0,0,3.065-3V125.109A5.114,5.114,0,0,0,29.722,120h-14.4a5.115,5.115,0,0,0-5.109,5.109v18.666a3.065,3.065,0,0,0,4.087,2.89V159.1H7.153a1.022,1.022,0,0,0-.914.565L.108,171.925a1.022,1.022,0,0,0,.914,1.479H44.027a1.022,1.022,0,0,0,.914-1.479ZM21.5,159.144V144.8h2.044v14.348ZM13.283,144.8a1.023,1.023,0,0,1-1.022-1.022V125.109a3.069,3.069,0,0,1,3.065-3.065h14.4a3.069,3.069,0,0,1,3.065,3.065v18.734a1.024,1.024,0,0,1-2.044,0V125.109a1.022,1.022,0,0,0-2.044,0v38.566a1.556,1.556,0,0,1-3.111,0v-19.9a1.021,1.021,0,0,0-1.022-1.022H20.481a1.022,1.022,0,0,0-1.022,1.022v19.9a1.555,1.555,0,0,1-3.111,0V131.239a1.022,1.022,0,0,0-2.044,0v12.535A1.023,1.023,0,0,1,13.283,144.8Zm0,0" transform="translate(0 -103.652)"/>
      <path id="Trazado_177453-2" data-name="Trazado 177453" d="M106.022,154.087a1.021,1.021,0,0,0,1.022-1.022v-2.044a1.022,1.022,0,0,0-2.044,0v2.044A1.022,1.022,0,0,0,106.022,154.087Zm0,0" transform="translate(-90.695 -129.565)"/>
      <path id="Trazado_177454-2" data-name="Trazado 177454" d="M120.316,14.3a7.152,7.152,0,1,0-7.152-7.152A7.161,7.161,0,0,0,120.316,14.3Zm0-12.261a5.109,5.109,0,1,1-5.109,5.109A5.115,5.115,0,0,1,120.316,2.044Zm0,0" transform="translate(-97.747)"/>
    </g>
    <g id="persona-3" data-name="persona" transform="translate(864.545 19047.5)">
      <path id="Trazado_177445-3" data-name="Trazado 177445" d="M252.255,414.5h-4.087v6.131l6.131,6.131h4.087Zm0,0" transform="translate(-214.359 -358.03)" fill="#adf5ff"/>
      <path id="Trazado_177446-3" data-name="Trazado 177446" d="M13.631,414.5,7.5,426.761H46.418L40.287,414.5Zm0,0" transform="translate(-6.478 -358.03)" fill="#acfcff"/>
      <path id="Trazado_177447-3" data-name="Trazado 177447" d="M192.255,127.5h-4.087l4.087,22.821a2.045,2.045,0,0,0,4.087,0V131.587A4.1,4.1,0,0,0,192.255,127.5Zm0,0" transform="translate(-162.533 -110.13)" fill="#d9d9f5"/>
      <path id="Trazado_177448-3" data-name="Trazado 177448" d="M86.587,127.5h4.087l-4.087,22.753a2.044,2.044,0,1,1-4.087,0V131.587A4.1,4.1,0,0,1,86.587,127.5Zm0,0" transform="translate(-71.26 -110.13)" fill="#dad9ff"/>
      <path id="Trazado_177449-3" data-name="Trazado 177449" d="M126.9,131.587a4.1,4.1,0,0,0-4.087-4.087h-6.222a4.1,4.1,0,0,0-4.087,4.087v38.566a2.577,2.577,0,0,0,5.155,0v-19.9h4.087v19.9a2.577,2.577,0,0,0,5.154,0Zm0,0" transform="translate(-97.173 -110.13)" fill="#a4a3ff"/>
      <path id="Trazado_177450-3" data-name="Trazado 177450" d="M165.664,7.5V19.761a6.131,6.131,0,1,0,0-12.261Zm0,0" transform="translate(-143.095 -6.478)" fill="#d9d9f5"/>
      <path id="Trazado_177451-3" data-name="Trazado 177451" d="M128.838,13.631c0-3.386-.915-6.131-2.044-6.131a6.131,6.131,0,0,0,0,12.261C127.923,19.761,128.838,17.016,128.838,13.631Zm0,0" transform="translate(-104.225 -6.478)" fill="#a4a3ff"/>
      <path id="Trazado_177452-3" data-name="Trazado 177452" d="M44.941,171.925,38.81,159.664a1.022,1.022,0,0,0-.914-.565H33.809a1.022,1.022,0,1,0,0,2.044h3.455l5.109,10.218H2.675l5.109-10.218H14.3v2.532a3.6,3.6,0,0,0,7.2,0v-2.487h2.044v2.487a3.6,3.6,0,0,0,7.2,0v-17a3.2,3.2,0,0,0,1.022.166,3,3,0,0,0,3.065-3V125.109A5.114,5.114,0,0,0,29.722,120h-14.4a5.115,5.115,0,0,0-5.109,5.109v18.666a3.065,3.065,0,0,0,4.087,2.89V159.1H7.153a1.022,1.022,0,0,0-.914.565L.108,171.925a1.022,1.022,0,0,0,.914,1.479H44.027a1.022,1.022,0,0,0,.914-1.479ZM21.5,159.144V144.8h2.044v14.348ZM13.283,144.8a1.023,1.023,0,0,1-1.022-1.022V125.109a3.069,3.069,0,0,1,3.065-3.065h14.4a3.069,3.069,0,0,1,3.065,3.065v18.734a1.024,1.024,0,0,1-2.044,0V125.109a1.022,1.022,0,0,0-2.044,0v38.566a1.556,1.556,0,0,1-3.111,0v-19.9a1.021,1.021,0,0,0-1.022-1.022H20.481a1.022,1.022,0,0,0-1.022,1.022v19.9a1.555,1.555,0,0,1-3.111,0V131.239a1.022,1.022,0,0,0-2.044,0v12.535A1.023,1.023,0,0,1,13.283,144.8Zm0,0" transform="translate(0 -103.652)"/>
      <path id="Trazado_177453-3" data-name="Trazado 177453" d="M106.022,154.087a1.021,1.021,0,0,0,1.022-1.022v-2.044a1.022,1.022,0,0,0-2.044,0v2.044A1.022,1.022,0,0,0,106.022,154.087Zm0,0" transform="translate(-90.695 -129.565)"/>
      <path id="Trazado_177454-3" data-name="Trazado 177454" d="M120.316,14.3a7.152,7.152,0,1,0-7.152-7.152A7.161,7.161,0,0,0,120.316,14.3Zm0-12.261a5.109,5.109,0,1,1-5.109,5.109A5.115,5.115,0,0,1,120.316,2.044Zm0,0" transform="translate(-97.747)"/>
    </g>
    <g id="persona-4" data-name="persona" transform="translate(904.496 19047.5)">
      <path id="Trazado_177445-4" data-name="Trazado 177445" d="M252.255,414.5h-4.087v6.131l6.131,6.131h4.087Zm0,0" transform="translate(-214.359 -358.03)" fill="#adf5ff"/>
      <path id="Trazado_177446-4" data-name="Trazado 177446" d="M13.631,414.5,7.5,426.761H46.418L40.287,414.5Zm0,0" transform="translate(-6.478 -358.03)" fill="#acfcff"/>
      <path id="Trazado_177447-4" data-name="Trazado 177447" d="M192.255,127.5h-4.087l4.087,22.821a2.045,2.045,0,0,0,4.087,0V131.587A4.1,4.1,0,0,0,192.255,127.5Zm0,0" transform="translate(-162.533 -110.13)" fill="#d9d9f5"/>
      <path id="Trazado_177448-4" data-name="Trazado 177448" d="M86.587,127.5h4.087l-4.087,22.753a2.044,2.044,0,1,1-4.087,0V131.587A4.1,4.1,0,0,1,86.587,127.5Zm0,0" transform="translate(-71.26 -110.13)" fill="#dad9ff"/>
      <path id="Trazado_177449-4" data-name="Trazado 177449" d="M126.9,131.587a4.1,4.1,0,0,0-4.087-4.087h-6.222a4.1,4.1,0,0,0-4.087,4.087v38.566a2.577,2.577,0,0,0,5.155,0v-19.9h4.087v19.9a2.577,2.577,0,0,0,5.154,0Zm0,0" transform="translate(-97.173 -110.13)" fill="#a4a3ff"/>
      <path id="Trazado_177450-4" data-name="Trazado 177450" d="M165.664,7.5V19.761a6.131,6.131,0,1,0,0-12.261Zm0,0" transform="translate(-143.095 -6.478)" fill="#d9d9f5"/>
      <path id="Trazado_177451-4" data-name="Trazado 177451" d="M128.838,13.631c0-3.386-.915-6.131-2.044-6.131a6.131,6.131,0,0,0,0,12.261C127.923,19.761,128.838,17.016,128.838,13.631Zm0,0" transform="translate(-104.225 -6.478)" fill="#a4a3ff"/>
      <path id="Trazado_177452-4" data-name="Trazado 177452" d="M44.941,171.925,38.81,159.664a1.022,1.022,0,0,0-.914-.565H33.809a1.022,1.022,0,1,0,0,2.044h3.455l5.109,10.218H2.675l5.109-10.218H14.3v2.532a3.6,3.6,0,0,0,7.2,0v-2.487h2.044v2.487a3.6,3.6,0,0,0,7.2,0v-17a3.2,3.2,0,0,0,1.022.166,3,3,0,0,0,3.065-3V125.109A5.114,5.114,0,0,0,29.722,120h-14.4a5.115,5.115,0,0,0-5.109,5.109v18.666a3.065,3.065,0,0,0,4.087,2.89V159.1H7.153a1.022,1.022,0,0,0-.914.565L.108,171.925a1.022,1.022,0,0,0,.914,1.479H44.027a1.022,1.022,0,0,0,.914-1.479ZM21.5,159.144V144.8h2.044v14.348ZM13.283,144.8a1.023,1.023,0,0,1-1.022-1.022V125.109a3.069,3.069,0,0,1,3.065-3.065h14.4a3.069,3.069,0,0,1,3.065,3.065v18.734a1.024,1.024,0,0,1-2.044,0V125.109a1.022,1.022,0,0,0-2.044,0v38.566a1.556,1.556,0,0,1-3.111,0v-19.9a1.021,1.021,0,0,0-1.022-1.022H20.481a1.022,1.022,0,0,0-1.022,1.022v19.9a1.555,1.555,0,0,1-3.111,0V131.239a1.022,1.022,0,0,0-2.044,0v12.535A1.023,1.023,0,0,1,13.283,144.8Zm0,0" transform="translate(0 -103.652)"/>
      <path id="Trazado_177453-4" data-name="Trazado 177453" d="M106.022,154.087a1.021,1.021,0,0,0,1.022-1.022v-2.044a1.022,1.022,0,0,0-2.044,0v2.044A1.022,1.022,0,0,0,106.022,154.087Zm0,0" transform="translate(-90.695 -129.565)"/>
      <path id="Trazado_177454-4" data-name="Trazado 177454" d="M120.316,14.3a7.152,7.152,0,1,0-7.152-7.152A7.161,7.161,0,0,0,120.316,14.3Zm0-12.261a5.109,5.109,0,1,1-5.109,5.109A5.115,5.115,0,0,1,120.316,2.044Zm0,0" transform="translate(-97.747)"/>
    </g>
    <g id="persona-5" data-name="persona" transform="translate(864.545 18907)">
      <path id="Trazado_177445-5" data-name="Trazado 177445" d="M252.255,414.5h-4.087v6.131l6.131,6.131h4.087Zm0,0" transform="translate(-214.359 -358.03)" fill="#adf5ff"/>
      <path id="Trazado_177446-5" data-name="Trazado 177446" d="M13.631,414.5,7.5,426.761H46.418L40.287,414.5Zm0,0" transform="translate(-6.478 -358.03)" fill="#acfcff"/>
      <path id="Trazado_177447-5" data-name="Trazado 177447" d="M192.255,127.5h-4.087l4.087,22.821a2.045,2.045,0,0,0,4.087,0V131.587A4.1,4.1,0,0,0,192.255,127.5Zm0,0" transform="translate(-162.533 -110.13)" fill="#d9d9f5"/>
      <path id="Trazado_177448-5" data-name="Trazado 177448" d="M86.587,127.5h4.087l-4.087,22.753a2.044,2.044,0,1,1-4.087,0V131.587A4.1,4.1,0,0,1,86.587,127.5Zm0,0" transform="translate(-71.26 -110.13)" fill="#dad9ff"/>
      <path id="Trazado_177449-5" data-name="Trazado 177449" d="M126.9,131.587a4.1,4.1,0,0,0-4.087-4.087h-6.222a4.1,4.1,0,0,0-4.087,4.087v38.566a2.577,2.577,0,0,0,5.155,0v-19.9h4.087v19.9a2.577,2.577,0,0,0,5.154,0Zm0,0" transform="translate(-97.173 -110.13)" fill="#a4a3ff"/>
      <path id="Trazado_177450-5" data-name="Trazado 177450" d="M165.664,7.5V19.761a6.131,6.131,0,1,0,0-12.261Zm0,0" transform="translate(-143.095 -6.478)" fill="#d9d9f5"/>
      <path id="Trazado_177451-5" data-name="Trazado 177451" d="M128.838,13.631c0-3.386-.915-6.131-2.044-6.131a6.131,6.131,0,0,0,0,12.261C127.923,19.761,128.838,17.016,128.838,13.631Zm0,0" transform="translate(-104.225 -6.478)" fill="#a4a3ff"/>
      <path id="Trazado_177452-5" data-name="Trazado 177452" d="M44.941,171.925,38.81,159.664a1.022,1.022,0,0,0-.914-.565H33.809a1.022,1.022,0,1,0,0,2.044h3.455l5.109,10.218H2.675l5.109-10.218H14.3v2.532a3.6,3.6,0,0,0,7.2,0v-2.487h2.044v2.487a3.6,3.6,0,0,0,7.2,0v-17a3.2,3.2,0,0,0,1.022.166,3,3,0,0,0,3.065-3V125.109A5.114,5.114,0,0,0,29.722,120h-14.4a5.115,5.115,0,0,0-5.109,5.109v18.666a3.065,3.065,0,0,0,4.087,2.89V159.1H7.153a1.022,1.022,0,0,0-.914.565L.108,171.925a1.022,1.022,0,0,0,.914,1.479H44.027a1.022,1.022,0,0,0,.914-1.479ZM21.5,159.144V144.8h2.044v14.348ZM13.283,144.8a1.023,1.023,0,0,1-1.022-1.022V125.109a3.069,3.069,0,0,1,3.065-3.065h14.4a3.069,3.069,0,0,1,3.065,3.065v18.734a1.024,1.024,0,0,1-2.044,0V125.109a1.022,1.022,0,0,0-2.044,0v38.566a1.556,1.556,0,0,1-3.111,0v-19.9a1.021,1.021,0,0,0-1.022-1.022H20.481a1.022,1.022,0,0,0-1.022,1.022v19.9a1.555,1.555,0,0,1-3.111,0V131.239a1.022,1.022,0,0,0-2.044,0v12.535A1.023,1.023,0,0,1,13.283,144.8Zm0,0" transform="translate(0 -103.652)"/>
      <path id="Trazado_177453-5" data-name="Trazado 177453" d="M106.022,154.087a1.021,1.021,0,0,0,1.022-1.022v-2.044a1.022,1.022,0,0,0-2.044,0v2.044A1.022,1.022,0,0,0,106.022,154.087Zm0,0" transform="translate(-90.695 -129.565)"/>
      <path id="Trazado_177454-5" data-name="Trazado 177454" d="M120.316,14.3a7.152,7.152,0,1,0-7.152-7.152A7.161,7.161,0,0,0,120.316,14.3Zm0-12.261a5.109,5.109,0,1,1-5.109,5.109A5.115,5.115,0,0,1,120.316,2.044Zm0,0" transform="translate(-97.747)"/>
    </g>
    <g id="persona-6" data-name="persona" transform="translate(989.021 18977.748)">
      <path id="Trazado_177445-6" data-name="Trazado 177445" d="M252.255,414.5h-4.087v6.131l6.131,6.131h4.087Zm0,0" transform="translate(-214.359 -358.03)" fill="#adf5ff"/>
      <path id="Trazado_177446-6" data-name="Trazado 177446" d="M13.631,414.5,7.5,426.761H46.418L40.287,414.5Zm0,0" transform="translate(-6.478 -358.03)" fill="#acfcff"/>
      <path id="Trazado_177447-6" data-name="Trazado 177447" d="M192.255,127.5h-4.087l4.087,22.821a2.045,2.045,0,0,0,4.087,0V131.587A4.1,4.1,0,0,0,192.255,127.5Zm0,0" transform="translate(-162.533 -110.13)" fill="#d9d9f5"/>
      <path id="Trazado_177448-6" data-name="Trazado 177448" d="M86.587,127.5h4.087l-4.087,22.753a2.044,2.044,0,1,1-4.087,0V131.587A4.1,4.1,0,0,1,86.587,127.5Zm0,0" transform="translate(-71.26 -110.13)" fill="#dad9ff"/>
      <path id="Trazado_177449-6" data-name="Trazado 177449" d="M126.9,131.587a4.1,4.1,0,0,0-4.087-4.087h-6.222a4.1,4.1,0,0,0-4.087,4.087v38.566a2.577,2.577,0,0,0,5.155,0v-19.9h4.087v19.9a2.577,2.577,0,0,0,5.154,0Zm0,0" transform="translate(-97.173 -110.13)" fill="#a4a3ff"/>
      <path id="Trazado_177450-6" data-name="Trazado 177450" d="M165.664,7.5V19.761a6.131,6.131,0,1,0,0-12.261Zm0,0" transform="translate(-143.095 -6.478)" fill="#d9d9f5"/>
      <path id="Trazado_177451-6" data-name="Trazado 177451" d="M128.838,13.631c0-3.386-.915-6.131-2.044-6.131a6.131,6.131,0,0,0,0,12.261C127.923,19.761,128.838,17.016,128.838,13.631Zm0,0" transform="translate(-104.225 -6.478)" fill="#a4a3ff"/>
      <path id="Trazado_177452-6" data-name="Trazado 177452" d="M44.941,171.925,38.81,159.664a1.022,1.022,0,0,0-.914-.565H33.809a1.022,1.022,0,1,0,0,2.044h3.455l5.109,10.218H2.675l5.109-10.218H14.3v2.532a3.6,3.6,0,0,0,7.2,0v-2.487h2.044v2.487a3.6,3.6,0,0,0,7.2,0v-17a3.2,3.2,0,0,0,1.022.166,3,3,0,0,0,3.065-3V125.109A5.114,5.114,0,0,0,29.722,120h-14.4a5.115,5.115,0,0,0-5.109,5.109v18.666a3.065,3.065,0,0,0,4.087,2.89V159.1H7.153a1.022,1.022,0,0,0-.914.565L.108,171.925a1.022,1.022,0,0,0,.914,1.479H44.027a1.022,1.022,0,0,0,.914-1.479ZM21.5,159.144V144.8h2.044v14.348ZM13.283,144.8a1.023,1.023,0,0,1-1.022-1.022V125.109a3.069,3.069,0,0,1,3.065-3.065h14.4a3.069,3.069,0,0,1,3.065,3.065v18.734a1.024,1.024,0,0,1-2.044,0V125.109a1.022,1.022,0,0,0-2.044,0v38.566a1.556,1.556,0,0,1-3.111,0v-19.9a1.021,1.021,0,0,0-1.022-1.022H20.481a1.022,1.022,0,0,0-1.022,1.022v19.9a1.555,1.555,0,0,1-3.111,0V131.239a1.022,1.022,0,0,0-2.044,0v12.535A1.023,1.023,0,0,1,13.283,144.8Zm0,0" transform="translate(0 -103.652)"/>
      <path id="Trazado_177453-6" data-name="Trazado 177453" d="M106.022,154.087a1.021,1.021,0,0,0,1.022-1.022v-2.044a1.022,1.022,0,0,0-2.044,0v2.044A1.022,1.022,0,0,0,106.022,154.087Zm0,0" transform="translate(-90.695 -129.565)"/>
      <path id="Trazado_177454-6" data-name="Trazado 177454" d="M120.316,14.3a7.152,7.152,0,1,0-7.152-7.152A7.161,7.161,0,0,0,120.316,14.3Zm0-12.261a5.109,5.109,0,1,1-5.109,5.109A5.115,5.115,0,0,1,120.316,2.044Zm0,0" transform="translate(-97.747)"/>
    </g>
    <g id="persona-7" data-name="persona" transform="translate(949.545 18907)">
      <path id="Trazado_177445-7" data-name="Trazado 177445" d="M252.255,414.5h-4.087v6.131l6.131,6.131h4.087Zm0,0" transform="translate(-214.359 -358.03)" fill="#adf5ff"/>
      <path id="Trazado_177446-7" data-name="Trazado 177446" d="M13.631,414.5,7.5,426.761H46.418L40.287,414.5Zm0,0" transform="translate(-6.478 -358.03)" fill="#acfcff"/>
      <path id="Trazado_177447-7" data-name="Trazado 177447" d="M192.255,127.5h-4.087l4.087,22.821a2.045,2.045,0,0,0,4.087,0V131.587A4.1,4.1,0,0,0,192.255,127.5Zm0,0" transform="translate(-162.533 -110.13)" fill="#d9d9f5"/>
      <path id="Trazado_177448-7" data-name="Trazado 177448" d="M86.587,127.5h4.087l-4.087,22.753a2.044,2.044,0,1,1-4.087,0V131.587A4.1,4.1,0,0,1,86.587,127.5Zm0,0" transform="translate(-71.26 -110.13)" fill="#dad9ff"/>
      <path id="Trazado_177449-7" data-name="Trazado 177449" d="M126.9,131.587a4.1,4.1,0,0,0-4.087-4.087h-6.222a4.1,4.1,0,0,0-4.087,4.087v38.566a2.577,2.577,0,0,0,5.155,0v-19.9h4.087v19.9a2.577,2.577,0,0,0,5.154,0Zm0,0" transform="translate(-97.173 -110.13)" fill="#a4a3ff"/>
      <path id="Trazado_177450-7" data-name="Trazado 177450" d="M165.664,7.5V19.761a6.131,6.131,0,1,0,0-12.261Zm0,0" transform="translate(-143.095 -6.478)" fill="#d9d9f5"/>
      <path id="Trazado_177451-7" data-name="Trazado 177451" d="M128.838,13.631c0-3.386-.915-6.131-2.044-6.131a6.131,6.131,0,0,0,0,12.261C127.923,19.761,128.838,17.016,128.838,13.631Zm0,0" transform="translate(-104.225 -6.478)" fill="#a4a3ff"/>
      <path id="Trazado_177452-7" data-name="Trazado 177452" d="M44.941,171.925,38.81,159.664a1.022,1.022,0,0,0-.914-.565H33.809a1.022,1.022,0,1,0,0,2.044h3.455l5.109,10.218H2.675l5.109-10.218H14.3v2.532a3.6,3.6,0,0,0,7.2,0v-2.487h2.044v2.487a3.6,3.6,0,0,0,7.2,0v-17a3.2,3.2,0,0,0,1.022.166,3,3,0,0,0,3.065-3V125.109A5.114,5.114,0,0,0,29.722,120h-14.4a5.115,5.115,0,0,0-5.109,5.109v18.666a3.065,3.065,0,0,0,4.087,2.89V159.1H7.153a1.022,1.022,0,0,0-.914.565L.108,171.925a1.022,1.022,0,0,0,.914,1.479H44.027a1.022,1.022,0,0,0,.914-1.479ZM21.5,159.144V144.8h2.044v14.348ZM13.283,144.8a1.023,1.023,0,0,1-1.022-1.022V125.109a3.069,3.069,0,0,1,3.065-3.065h14.4a3.069,3.069,0,0,1,3.065,3.065v18.734a1.024,1.024,0,0,1-2.044,0V125.109a1.022,1.022,0,0,0-2.044,0v38.566a1.556,1.556,0,0,1-3.111,0v-19.9a1.021,1.021,0,0,0-1.022-1.022H20.481a1.022,1.022,0,0,0-1.022,1.022v19.9a1.555,1.555,0,0,1-3.111,0V131.239a1.022,1.022,0,0,0-2.044,0v12.535A1.023,1.023,0,0,1,13.283,144.8Zm0,0" transform="translate(0 -103.652)"/>
      <path id="Trazado_177453-7" data-name="Trazado 177453" d="M106.022,154.087a1.021,1.021,0,0,0,1.022-1.022v-2.044a1.022,1.022,0,0,0-2.044,0v2.044A1.022,1.022,0,0,0,106.022,154.087Zm0,0" transform="translate(-90.695 -129.565)"/>
      <path id="Trazado_177454-7" data-name="Trazado 177454" d="M120.316,14.3a7.152,7.152,0,1,0-7.152-7.152A7.161,7.161,0,0,0,120.316,14.3Zm0-12.261a5.109,5.109,0,1,1-5.109,5.109A5.115,5.115,0,0,1,120.316,2.044Zm0,0" transform="translate(-97.747)"/>
    </g>
    <g id="Trazado_177456" data-name="Trazado 177456" transform="translate(790.545 18879)" fill="none">
      <path d="M139,0A139,139,0,1,1,0,139,139,139,0,0,1,139,0Z" stroke="none"/>
      <path d="M 139 2 C 129.7034301757812 2 120.4132537841797 2.93646240234375 111.3876037597656 4.78338623046875 C 102.5923614501953 6.5831298828125 93.9410400390625 9.2686767578125 85.67404174804688 12.76531982421875 C 77.556640625 16.19866943359375 69.72727966308594 20.4483642578125 62.40339660644531 25.39625549316406 C 55.14857482910156 30.29753112792969 48.32638549804688 35.92636108398438 42.12635803222656 42.12635803222656 C 35.92636108398438 48.32638549804688 30.29753112792969 55.14857482910156 25.39625549316406 62.40339660644531 C 20.4483642578125 69.72727966308594 16.19866943359375 77.556640625 12.76531982421875 85.67404174804688 C 9.2686767578125 93.9410400390625 6.5831298828125 102.5923614501953 4.78338623046875 111.3876037597656 C 2.93646240234375 120.4132537841797 2 129.7034301757812 2 139 C 2 148.2965698242188 2.93646240234375 157.5867462158203 4.78338623046875 166.6123962402344 C 6.5831298828125 175.4076538085938 9.2686767578125 184.0589599609375 12.76531982421875 192.3259582519531 C 16.19866943359375 200.443359375 20.4483642578125 208.272705078125 25.39625549316406 215.5966033935547 C 30.29753112792969 222.8514251708984 35.92636108398438 229.6736145019531 42.12635803222656 235.8736419677734 C 48.32638549804688 242.0736389160156 55.14857482910156 247.7024688720703 62.40339660644531 252.6037445068359 C 69.72727966308594 257.5516357421875 77.556640625 261.8013305664062 85.67404174804688 265.2346801757812 C 93.9410400390625 268.7313232421875 102.5923614501953 271.4168701171875 111.3876037597656 273.2166137695312 C 120.4132537841797 275.0635375976562 129.7034301757812 276 139 276 C 148.2965698242188 276 157.5867462158203 275.0635375976562 166.6123962402344 273.2166137695312 C 175.4076538085938 271.4168701171875 184.0589599609375 268.7313232421875 192.3259582519531 265.2346801757812 C 200.443359375 261.8013305664062 208.272705078125 257.5516357421875 215.5966033935547 252.6037445068359 C 222.8514251708984 247.7024688720703 229.6736145019531 242.0736389160156 235.8736419677734 235.8736419677734 C 242.0736389160156 229.6736145019531 247.7024688720703 222.8514251708984 252.6037445068359 215.5966033935547 C 257.5516357421875 208.272705078125 261.8013305664062 200.443359375 265.2346801757812 192.3259582519531 C 268.7313232421875 184.0589599609375 271.4168701171875 175.4076538085938 273.2166137695312 166.6123962402344 C 275.0635375976562 157.5867462158203 276 148.2965698242188 276 139 C 276 129.7034301757812 275.0635375976562 120.4132537841797 273.2166137695312 111.3876037597656 C 271.4168701171875 102.5923614501953 268.7313232421875 93.9410400390625 265.2346801757812 85.67404174804688 C 261.8013305664062 77.556640625 257.5516357421875 69.72727966308594 252.6037445068359 62.40339660644531 C 247.7024688720703 55.14857482910156 242.0736389160156 48.32638549804688 235.8736419677734 42.12635803222656 C 229.6736145019531 35.92636108398438 222.8514251708984 30.29753112792969 215.5966033935547 25.39625549316406 C 208.272705078125 20.4483642578125 200.443359375 16.19866943359375 192.3259582519531 12.76531982421875 C 184.0589599609375 9.2686767578125 175.4076538085938 6.5831298828125 166.6123962402344 4.78338623046875 C 157.5867462158203 2.93646240234375 148.2965698242188 2 139 2 M 139 0 C 215.767578125 0 278 62.232421875 278 139 C 278 215.767578125 215.767578125 278 139 278 C 62.232421875 278 0 215.767578125 0 139 C 0 62.232421875 62.232421875 0 139 0 Z" stroke="none" fill="#005acf"/>
    </g>
    <g id="persona-8" data-name="persona" transform="translate(907.021 18907)">
      <path id="Trazado_177445-8" data-name="Trazado 177445" d="M252.255,414.5h-4.087v6.131l6.131,6.131h4.087Zm0,0" transform="translate(-214.359 -358.03)" fill="#adf5ff"/>
      <path id="Trazado_177446-8" data-name="Trazado 177446" d="M13.631,414.5,7.5,426.761H46.418L40.287,414.5Zm0,0" transform="translate(-6.478 -358.03)" fill="#acfcff"/>
      <path id="Trazado_177447-8" data-name="Trazado 177447" d="M192.255,127.5h-4.087l4.087,22.821a2.045,2.045,0,0,0,4.087,0V131.587A4.1,4.1,0,0,0,192.255,127.5Zm0,0" transform="translate(-162.533 -110.13)" fill="#dbfdfd"/>
      <path id="Trazado_177448-8" data-name="Trazado 177448" d="M86.587,127.5h4.087l-4.087,22.753a2.044,2.044,0,1,1-4.087,0V131.587A4.1,4.1,0,0,1,86.587,127.5Zm0,0" transform="translate(-71.26 -110.13)" fill="#dbfdfd"/>
      <path id="Trazado_177449-8" data-name="Trazado 177449" d="M126.9,131.587a4.1,4.1,0,0,0-4.087-4.087h-6.222a4.1,4.1,0,0,0-4.087,4.087v38.566a2.577,2.577,0,0,0,5.155,0v-19.9h4.087v19.9a2.577,2.577,0,0,0,5.154,0Zm0,0" transform="translate(-97.173 -110.13)" fill="#005acf"/>
      <path id="Trazado_177450-8" data-name="Trazado 177450" d="M165.664,7.5V19.761a6.131,6.131,0,1,0,0-12.261Zm0,0" transform="translate(-143.095 -6.478)" fill="#dbfdfd"/>
      <path id="Trazado_177451-8" data-name="Trazado 177451" d="M128.838,13.631c0-3.386-.915-6.131-2.044-6.131a6.131,6.131,0,0,0,0,12.261C127.923,19.761,128.838,17.016,128.838,13.631Zm0,0" transform="translate(-104.225 -6.478)" fill="#005acf"/>
      <path id="Trazado_177452-8" data-name="Trazado 177452" d="M44.941,171.925,38.81,159.664a1.022,1.022,0,0,0-.914-.565H33.809a1.022,1.022,0,1,0,0,2.044h3.455l5.109,10.218H2.675l5.109-10.218H14.3v2.532a3.6,3.6,0,0,0,7.2,0v-2.487h2.044v2.487a3.6,3.6,0,0,0,7.2,0v-17a3.2,3.2,0,0,0,1.022.166,3,3,0,0,0,3.065-3V125.109A5.114,5.114,0,0,0,29.722,120h-14.4a5.115,5.115,0,0,0-5.109,5.109v18.666a3.065,3.065,0,0,0,4.087,2.89V159.1H7.153a1.022,1.022,0,0,0-.914.565L.108,171.925a1.022,1.022,0,0,0,.914,1.479H44.027a1.022,1.022,0,0,0,.914-1.479ZM21.5,159.144V144.8h2.044v14.348ZM13.283,144.8a1.023,1.023,0,0,1-1.022-1.022V125.109a3.069,3.069,0,0,1,3.065-3.065h14.4a3.069,3.069,0,0,1,3.065,3.065v18.734a1.024,1.024,0,0,1-2.044,0V125.109a1.022,1.022,0,0,0-2.044,0v38.566a1.556,1.556,0,0,1-3.111,0v-19.9a1.021,1.021,0,0,0-1.022-1.022H20.481a1.022,1.022,0,0,0-1.022,1.022v19.9a1.555,1.555,0,0,1-3.111,0V131.239a1.022,1.022,0,0,0-2.044,0v12.535A1.023,1.023,0,0,1,13.283,144.8Zm0,0" transform="translate(0 -103.652)"/>
      <path id="Trazado_177453-8" data-name="Trazado 177453" d="M106.022,154.087a1.021,1.021,0,0,0,1.022-1.022v-2.044a1.022,1.022,0,0,0-2.044,0v2.044A1.022,1.022,0,0,0,106.022,154.087Zm0,0" transform="translate(-90.695 -129.565)"/>
      <path id="Trazado_177454-8" data-name="Trazado 177454" d="M120.316,14.3a7.152,7.152,0,1,0-7.152-7.152A7.161,7.161,0,0,0,120.316,14.3Zm0-12.261a5.109,5.109,0,1,1-5.109,5.109A5.115,5.115,0,0,1,120.316,2.044Zm0,0" transform="translate(-97.747)"/>
    </g>
    <g id="persona-9" data-name="persona" transform="translate(705 18977.748)">
      <path id="Trazado_177445-9" data-name="Trazado 177445" d="M252.255,414.5h-4.087v6.131l6.131,6.131h4.087Zm0,0" transform="translate(-214.359 -358.03)" fill="#adf5ff"/>
      <path id="Trazado_177446-9" data-name="Trazado 177446" d="M13.631,414.5,7.5,426.761H46.418L40.287,414.5Zm0,0" transform="translate(-6.478 -358.03)" fill="#acfcff"/>
      <path id="Trazado_177447-9" data-name="Trazado 177447" d="M192.255,127.5h-4.087l4.087,22.821a2.045,2.045,0,0,0,4.087,0V131.587A4.1,4.1,0,0,0,192.255,127.5Zm0,0" transform="translate(-162.533 -110.13)" fill="#cfe6e3"/>
      <path id="Trazado_177448-9" data-name="Trazado 177448" d="M86.587,127.5h4.087l-4.087,22.753a2.044,2.044,0,1,1-4.087,0V131.587A4.1,4.1,0,0,1,86.587,127.5Zm0,0" transform="translate(-71.26 -110.13)" fill="#ccebe7"/>
      <path id="Trazado_177449-9" data-name="Trazado 177449" d="M126.9,131.587a4.1,4.1,0,0,0-4.087-4.087h-6.222a4.1,4.1,0,0,0-4.087,4.087v38.566a2.577,2.577,0,0,0,5.155,0v-19.9h4.087v19.9a2.577,2.577,0,0,0,5.154,0Zm0,0" transform="translate(-97.173 -110.13)" fill="#1dcccc"/>
      <path id="Trazado_177450-9" data-name="Trazado 177450" d="M165.664,7.5V19.761a6.131,6.131,0,1,0,0-12.261Zm0,0" transform="translate(-143.095 -6.478)" fill="#cfe6e3"/>
      <path id="Trazado_177451-9" data-name="Trazado 177451" d="M128.838,13.631c0-3.386-.915-6.131-2.044-6.131a6.131,6.131,0,0,0,0,12.261C127.923,19.761,128.838,17.016,128.838,13.631Zm0,0" transform="translate(-104.225 -6.478)" fill="#1dcccc"/>
      <path id="Trazado_177452-9" data-name="Trazado 177452" d="M44.941,171.925,38.81,159.664a1.022,1.022,0,0,0-.914-.565H33.809a1.022,1.022,0,1,0,0,2.044h3.455l5.109,10.218H2.675l5.109-10.218H14.3v2.532a3.6,3.6,0,0,0,7.2,0v-2.487h2.044v2.487a3.6,3.6,0,0,0,7.2,0v-17a3.2,3.2,0,0,0,1.022.166,3,3,0,0,0,3.065-3V125.109A5.114,5.114,0,0,0,29.722,120h-14.4a5.115,5.115,0,0,0-5.109,5.109v18.666a3.065,3.065,0,0,0,4.087,2.89V159.1H7.153a1.022,1.022,0,0,0-.914.565L.108,171.925a1.022,1.022,0,0,0,.914,1.479H44.027a1.022,1.022,0,0,0,.914-1.479ZM21.5,159.144V144.8h2.044v14.348ZM13.283,144.8a1.023,1.023,0,0,1-1.022-1.022V125.109a3.069,3.069,0,0,1,3.065-3.065h14.4a3.069,3.069,0,0,1,3.065,3.065v18.734a1.024,1.024,0,0,1-2.044,0V125.109a1.022,1.022,0,0,0-2.044,0v38.566a1.556,1.556,0,0,1-3.111,0v-19.9a1.021,1.021,0,0,0-1.022-1.022H20.481a1.022,1.022,0,0,0-1.022,1.022v19.9a1.555,1.555,0,0,1-3.111,0V131.239a1.022,1.022,0,0,0-2.044,0v12.535A1.023,1.023,0,0,1,13.283,144.8Zm0,0" transform="translate(0 -103.652)"/>
      <path id="Trazado_177453-9" data-name="Trazado 177453" d="M106.022,154.087a1.021,1.021,0,0,0,1.022-1.022v-2.044a1.022,1.022,0,0,0-2.044,0v2.044A1.022,1.022,0,0,0,106.022,154.087Zm0,0" transform="translate(-90.695 -129.565)"/>
      <path id="Trazado_177454-9" data-name="Trazado 177454" d="M120.316,14.3a7.152,7.152,0,1,0-7.152-7.152A7.161,7.161,0,0,0,120.316,14.3Zm0-12.261a5.109,5.109,0,1,1-5.109,5.109A5.115,5.115,0,0,1,120.316,2.044Zm0,0" transform="translate(-97.747)"/>
    </g>
    <path id="Trazado_177458" data-name="Trazado 177458" d="M4.052-4.342V0H.967V-12.8H6.073a5.948,5.948,0,0,1,2.6.541,4.074,4.074,0,0,1,1.749,1.538,4.2,4.2,0,0,1,.62,2.263A3.7,3.7,0,0,1,9.7-5.462,5.561,5.561,0,0,1,6.021-4.342Zm0-2.382H6.073A1.906,1.906,0,0,0,7.44-7.172a1.665,1.665,0,0,0,.47-1.266A2.059,2.059,0,0,0,7.427-9.87a1.712,1.712,0,0,0-1.318-.545H4.052Zm8.007,1.881a5.613,5.613,0,0,1,.554-2.536A3.96,3.96,0,0,1,14.2-9.088a4.791,4.791,0,0,1,2.435-.6A4.373,4.373,0,0,1,20-8.363a5.076,5.076,0,0,1,1.23,3.6v.105A4.925,4.925,0,0,1,20-1.129,4.384,4.384,0,0,1,16.655.176a4.434,4.434,0,0,1-3.261-1.217,4.761,4.761,0,0,1-1.327-3.3Zm2.962.185a3.538,3.538,0,0,0,.413,1.934,1.376,1.376,0,0,0,1.222.615q1.582,0,1.617-2.435v-.3q0-2.558-1.635-2.558-1.485,0-1.608,2.206Zm16.348-.018A5.8,5.8,0,0,1,30.4-1.081,3.238,3.238,0,0,1,27.677.176,2.81,2.81,0,0,1,25.339-.976L25.216,0H22.562V-13.5h2.962v4.755a2.711,2.711,0,0,1,2.136-.94A3.239,3.239,0,0,1,30.4-8.411a5.826,5.826,0,0,1,.967,3.586ZM28.4-4.86a3.878,3.878,0,0,0-.365-1.956A1.229,1.229,0,0,0,26.912-7.4a1.418,1.418,0,0,0-1.389.765v3.779A1.426,1.426,0,0,0,26.93-2.1a1.258,1.258,0,0,0,1.327-1.02A7.333,7.333,0,0,0,28.4-4.86ZM35.8,0H32.827V-13.5H35.8Zm7.181,0A3.344,3.344,0,0,1,42.7-.853,2.754,2.754,0,0,1,40.412.176a3.374,3.374,0,0,1-2.285-.813,2.588,2.588,0,0,1-.94-2.043,2.66,2.66,0,0,1,1.143-2.338,5.821,5.821,0,0,1,3.322-.791h.914v-.5q0-1.31-1.134-1.31a.925.925,0,0,0-1.055,1.037H37.415a2.659,2.659,0,0,1,1.173-2.241,4.927,4.927,0,0,1,2.993-.861,4.323,4.323,0,0,1,2.874.888,3.086,3.086,0,0,1,1.081,2.435v4.21a4.311,4.311,0,0,0,.4,2V0ZM41.124-1.934a1.652,1.652,0,0,0,.918-.237,1.487,1.487,0,0,0,.523-.536V-4.228H41.7q-1.547,0-1.547,1.389a.848.848,0,0,0,.272.655A.986.986,0,0,0,41.124-1.934ZM51.2-2.109a1.317,1.317,0,0,0,.967-.338,1.241,1.241,0,0,0,.334-.945h2.777A3.288,3.288,0,0,1,54.154-.826a4.168,4.168,0,0,1-2.887,1A4.22,4.22,0,0,1,48-1.125a5.125,5.125,0,0,1-1.2-3.6v-.123A5.792,5.792,0,0,1,47.333-7.4a3.872,3.872,0,0,1,1.534-1.7,4.573,4.573,0,0,1,2.373-.593,4.116,4.116,0,0,1,2.944,1.028,3.647,3.647,0,0,1,1.09,2.786H52.5A1.626,1.626,0,0,0,52.137-7a1.244,1.244,0,0,0-.967-.4q-1.151,0-1.345,1.468a10.357,10.357,0,0,0-.062,1.283,4.068,4.068,0,0,0,.343,1.986A1.187,1.187,0,0,0,51.2-2.109ZM59.651,0H56.681V-9.51h2.971ZM56.5-11.962A1.322,1.322,0,0,1,56.962-13a1.724,1.724,0,0,1,1.187-.4,1.724,1.724,0,0,1,1.187.4,1.322,1.322,0,0,1,.457,1.037,1.322,1.322,0,0,1-.457,1.037,1.724,1.724,0,0,1-1.187.4,1.724,1.724,0,0,1-1.187-.4A1.322,1.322,0,0,1,56.5-11.962Zm4.6,7.119a5.613,5.613,0,0,1,.554-2.536,3.96,3.96,0,0,1,1.591-1.709,4.791,4.791,0,0,1,2.435-.6,4.373,4.373,0,0,1,3.366,1.323,5.076,5.076,0,0,1,1.23,3.6v.105a4.925,4.925,0,0,1-1.235,3.529A4.384,4.384,0,0,1,65.7.176a4.434,4.434,0,0,1-3.261-1.217,4.761,4.761,0,0,1-1.327-3.3Zm2.962.185a3.538,3.538,0,0,0,.413,1.934,1.376,1.376,0,0,0,1.222.615q1.582,0,1.617-2.435v-.3q0-2.558-1.635-2.558-1.485,0-1.608,2.206ZM66.085-13.5h3.129l-2.443,2.76H64.354ZM74.3-9.51l.1,1.116a3.225,3.225,0,0,1,2.716-1.292,2.713,2.713,0,0,1,2.219.888,4.226,4.226,0,0,1,.76,2.672V0H77.124V-6a1.6,1.6,0,0,0-.29-1.059A1.342,1.342,0,0,0,75.779-7.4a1.413,1.413,0,0,0-1.292.686V0H71.525V-9.51Z" transform="translate(1060 18913.5)" fill="#12263f"/>
    <path id="Trazado_177457" data-name="Trazado 177457" d="M4.254,0H1.178V-12.8H4.254ZM8.982-9.51l.1,1.116a3.225,3.225,0,0,1,2.716-1.292,2.713,2.713,0,0,1,2.219.888,4.226,4.226,0,0,1,.76,2.672V0H11.8V-6a1.6,1.6,0,0,0-.29-1.059A1.342,1.342,0,0,0,10.459-7.4a1.413,1.413,0,0,0-1.292.686V0H6.205V-9.51ZM20.206-3.524l1.5-5.985h3.12L21.727,0H18.7L15.6-9.51h3.129ZM30.2.176a4.889,4.889,0,0,1-3.542-1.305,4.507,4.507,0,0,1-1.354-3.4v-.246a5.84,5.84,0,0,1,.541-2.575,3.955,3.955,0,0,1,1.578-1.727,4.763,4.763,0,0,1,2.461-.611,4.117,4.117,0,0,1,3.164,1.244,4.887,4.887,0,0,1,1.16,3.467v1.151H28.318a2.135,2.135,0,0,0,.694,1.257,2.066,2.066,0,0,0,1.389.457,2.662,2.662,0,0,0,2.2-.984l1.354,1.6A3.784,3.784,0,0,1,32.383-.277,5.3,5.3,0,0,1,30.2.176ZM29.865-7.4q-1.3,0-1.547,1.723h2.988v-.229a1.467,1.467,0,0,0-.36-1.1A1.434,1.434,0,0,0,29.865-7.4ZM40.377-2.672a.684.684,0,0,0-.4-.606,6.016,6.016,0,0,0-1.5-.475A6.853,6.853,0,0,1,36.65-4.4a3.062,3.062,0,0,1-1.1-.971,2.319,2.319,0,0,1-.378-1.31,2.628,2.628,0,0,1,1.081-2.158,4.453,4.453,0,0,1,2.83-.848,4.934,4.934,0,0,1,3.023.853,2.666,2.666,0,0,1,1.143,2.241H40.28q0-1.143-1.2-1.143a1.194,1.194,0,0,0-.782.259.8.8,0,0,0-.316.646.737.737,0,0,0,.387.642,3.654,3.654,0,0,0,1.235.4,10.671,10.671,0,0,1,1.49.378A2.706,2.706,0,0,1,43.233-2.76,2.491,2.491,0,0,1,42.078-.642a5.068,5.068,0,0,1-2.993.817,5.172,5.172,0,0,1-2.18-.439,3.645,3.645,0,0,1-1.494-1.2,2.707,2.707,0,0,1-.536-1.591h2.769a1.145,1.145,0,0,0,.439.962,1.808,1.808,0,0,0,1.081.3,1.422,1.422,0,0,0,.91-.246A.787.787,0,0,0,40.377-2.672Zm7.69-9.2V-9.51h1.564v2.057H48.067V-3.1a1.111,1.111,0,0,0,.193.747,1.037,1.037,0,0,0,.765.211,4.345,4.345,0,0,0,.738-.053V-.079a5.466,5.466,0,0,1-1.67.255,3.1,3.1,0,0,1-2.259-.721,2.954,2.954,0,0,1-.729-2.188v-4.72H43.893V-9.51h1.213v-2.364ZM53.921,0H50.95V-9.51h2.971ZM50.774-11.962A1.322,1.322,0,0,1,51.231-13a1.724,1.724,0,0,1,1.187-.4A1.724,1.724,0,0,1,53.6-13a1.322,1.322,0,0,1,.457,1.037,1.322,1.322,0,0,1-.457,1.037,1.724,1.724,0,0,1-1.187.4,1.724,1.724,0,0,1-1.187-.4A1.322,1.322,0,0,1,50.774-11.962ZM55.4-4.825a6.421,6.421,0,0,1,.475-2.549,3.821,3.821,0,0,1,1.362-1.709,3.591,3.591,0,0,1,2.065-.6,2.855,2.855,0,0,1,2.32,1l.105-.826h2.689V-.36a4.009,4.009,0,0,1-.584,2.184,3.75,3.75,0,0,1-1.692,1.424,6.219,6.219,0,0,1-2.566.5,5.365,5.365,0,0,1-2.026-.4,3.657,3.657,0,0,1-1.5-1.028L57.287.58a2.716,2.716,0,0,0,2.18.976A1.764,1.764,0,0,0,61.436-.466v-.3a2.781,2.781,0,0,1-2.153.94A3.437,3.437,0,0,1,56.47-1.156,5.517,5.517,0,0,1,55.4-4.72Zm2.971.185a3.383,3.383,0,0,0,.439,1.85,1.387,1.387,0,0,0,1.23.681,1.573,1.573,0,0,0,1.4-.642v-4a1.534,1.534,0,0,0-1.38-.65,1.4,1.4,0,0,0-1.239.708A3.858,3.858,0,0,0,58.368-4.641ZM71.455,0a3.344,3.344,0,0,1-.281-.853A2.754,2.754,0,0,1,68.889.176,3.374,3.374,0,0,1,66.6-.637a2.588,2.588,0,0,1-.94-2.043,2.66,2.66,0,0,1,1.143-2.338,5.821,5.821,0,0,1,3.322-.791h.914v-.5q0-1.31-1.134-1.31a.925.925,0,0,0-1.055,1.037H65.892a2.659,2.659,0,0,1,1.173-2.241,4.927,4.927,0,0,1,2.993-.861,4.323,4.323,0,0,1,2.874.888,3.086,3.086,0,0,1,1.081,2.435v4.21a4.311,4.311,0,0,0,.4,2V0ZM69.6-1.934a1.652,1.652,0,0,0,.918-.237,1.487,1.487,0,0,0,.523-.536V-4.228h-.861q-1.547,0-1.547,1.389a.848.848,0,0,0,.272.655A.986.986,0,0,0,69.6-1.934Zm5.678-2.892a5.809,5.809,0,0,1,.976-3.56,3.211,3.211,0,0,1,2.725-1.3,2.731,2.731,0,0,1,2.145,1V-13.5h2.971V0H81.431l-.149-1.02a2.8,2.8,0,0,1-2.32,1.2,3.205,3.205,0,0,1-2.689-1.3A5.993,5.993,0,0,1,75.278-4.825Zm2.962.185q0,2.531,1.477,2.531a1.458,1.458,0,0,0,1.406-.826V-6.557A1.419,1.419,0,0,0,79.734-7.4q-1.371,0-1.485,2.215Zm7.163-.2a5.613,5.613,0,0,1,.554-2.536,3.96,3.96,0,0,1,1.591-1.709,4.791,4.791,0,0,1,2.435-.6,4.373,4.373,0,0,1,3.366,1.323,5.076,5.076,0,0,1,1.23,3.6v.105a4.925,4.925,0,0,1-1.235,3.529A4.384,4.384,0,0,1,90,.176a4.434,4.434,0,0,1-3.261-1.217,4.761,4.761,0,0,1-1.327-3.3Zm2.962.185a3.538,3.538,0,0,0,.413,1.934A1.376,1.376,0,0,0,90-2.109q1.582,0,1.617-2.435v-.3q0-2.558-1.635-2.558-1.485,0-1.608,2.206Zm13.271-2.171-.976-.07a1.752,1.752,0,0,0-1.793.879V0H95.906V-9.51h2.777l.1,1.222a2.294,2.294,0,0,1,2.083-1.4,2.888,2.888,0,0,1,.826.105Z" transform="translate(668.5 18948.377)" fill="#12263f"/>
    <g id="persona-10" data-name="persona" transform="translate(864.545 18977.748)">
      <path id="Trazado_177445-10" data-name="Trazado 177445" d="M252.255,414.5h-4.087v6.131l6.131,6.131h4.087Zm0,0" transform="translate(-214.359 -358.03)" fill="#adf5ff"/>
      <path id="Trazado_177446-10" data-name="Trazado 177446" d="M13.631,414.5,7.5,426.761H46.418L40.287,414.5Zm0,0" transform="translate(-6.478 -358.03)" fill="#acfcff"/>
      <path id="Trazado_177447-10" data-name="Trazado 177447" d="M192.255,127.5h-4.087l4.087,22.821a2.045,2.045,0,0,0,4.087,0V131.587A4.1,4.1,0,0,0,192.255,127.5Zm0,0" transform="translate(-162.533 -110.13)" fill="#dbfdfd"/>
      <path id="Trazado_177448-10" data-name="Trazado 177448" d="M86.587,127.5h4.087l-4.087,22.753a2.044,2.044,0,1,1-4.087,0V131.587A4.1,4.1,0,0,1,86.587,127.5Zm0,0" transform="translate(-71.26 -110.13)" fill="#dbfdfd"/>
      <path id="Trazado_177449-10" data-name="Trazado 177449" d="M126.9,131.587a4.1,4.1,0,0,0-4.087-4.087h-6.222a4.1,4.1,0,0,0-4.087,4.087v38.566a2.577,2.577,0,0,0,5.155,0v-19.9h4.087v19.9a2.577,2.577,0,0,0,5.154,0Zm0,0" transform="translate(-97.173 -110.13)" fill="#005acf"/>
      <path id="Trazado_177450-10" data-name="Trazado 177450" d="M165.664,7.5V19.761a6.131,6.131,0,1,0,0-12.261Zm0,0" transform="translate(-143.095 -6.478)" fill="#dbfdfd"/>
      <path id="Trazado_177451-10" data-name="Trazado 177451" d="M128.838,13.631c0-3.386-.915-6.131-2.044-6.131a6.131,6.131,0,0,0,0,12.261C127.923,19.761,128.838,17.016,128.838,13.631Zm0,0" transform="translate(-104.225 -6.478)" fill="#005acf"/>
      <path id="Trazado_177452-10" data-name="Trazado 177452" d="M44.941,171.925,38.81,159.664a1.022,1.022,0,0,0-.914-.565H33.809a1.022,1.022,0,1,0,0,2.044h3.455l5.109,10.218H2.675l5.109-10.218H14.3v2.532a3.6,3.6,0,0,0,7.2,0v-2.487h2.044v2.487a3.6,3.6,0,0,0,7.2,0v-17a3.2,3.2,0,0,0,1.022.166,3,3,0,0,0,3.065-3V125.109A5.114,5.114,0,0,0,29.722,120h-14.4a5.115,5.115,0,0,0-5.109,5.109v18.666a3.065,3.065,0,0,0,4.087,2.89V159.1H7.153a1.022,1.022,0,0,0-.914.565L.108,171.925a1.022,1.022,0,0,0,.914,1.479H44.027a1.022,1.022,0,0,0,.914-1.479ZM21.5,159.144V144.8h2.044v14.348ZM13.283,144.8a1.023,1.023,0,0,1-1.022-1.022V125.109a3.069,3.069,0,0,1,3.065-3.065h14.4a3.069,3.069,0,0,1,3.065,3.065v18.734a1.024,1.024,0,0,1-2.044,0V125.109a1.022,1.022,0,0,0-2.044,0v38.566a1.556,1.556,0,0,1-3.111,0v-19.9a1.021,1.021,0,0,0-1.022-1.022H20.481a1.022,1.022,0,0,0-1.022,1.022v19.9a1.555,1.555,0,0,1-3.111,0V131.239a1.022,1.022,0,0,0-2.044,0v12.535A1.023,1.023,0,0,1,13.283,144.8Zm0,0" transform="translate(0 -103.652)"/>
      <path id="Trazado_177453-10" data-name="Trazado 177453" d="M106.022,154.087a1.021,1.021,0,0,0,1.022-1.022v-2.044a1.022,1.022,0,0,0-2.044,0v2.044A1.022,1.022,0,0,0,106.022,154.087Zm0,0" transform="translate(-90.695 -129.565)"/>
      <path id="Trazado_177454-10" data-name="Trazado 177454" d="M120.316,14.3a7.152,7.152,0,1,0-7.152-7.152A7.161,7.161,0,0,0,120.316,14.3Zm0-12.261a5.109,5.109,0,1,1-5.109,5.109A5.115,5.115,0,0,1,120.316,2.044Zm0,0" transform="translate(-97.747)"/>
    </g>
    <g id="persona-11" data-name="persona" transform="translate(948.079 18977.748)">
      <path id="Trazado_177445-11" data-name="Trazado 177445" d="M252.255,414.5h-4.087v6.131l6.131,6.131h4.087Zm0,0" transform="translate(-214.359 -358.03)" fill="#adf5ff"/>
      <path id="Trazado_177446-11" data-name="Trazado 177446" d="M13.631,414.5,7.5,426.761H46.418L40.287,414.5Zm0,0" transform="translate(-6.478 -358.03)" fill="#acfcff"/>
      <path id="Trazado_177447-11" data-name="Trazado 177447" d="M192.255,127.5h-4.087l4.087,22.821a2.045,2.045,0,0,0,4.087,0V131.587A4.1,4.1,0,0,0,192.255,127.5Zm0,0" transform="translate(-162.533 -110.13)" fill="#dbfdfd"/>
      <path id="Trazado_177448-11" data-name="Trazado 177448" d="M86.587,127.5h4.087l-4.087,22.753a2.044,2.044,0,1,1-4.087,0V131.587A4.1,4.1,0,0,1,86.587,127.5Zm0,0" transform="translate(-71.26 -110.13)" fill="#dbfdfd"/>
      <path id="Trazado_177449-11" data-name="Trazado 177449" d="M126.9,131.587a4.1,4.1,0,0,0-4.087-4.087h-6.222a4.1,4.1,0,0,0-4.087,4.087v38.566a2.577,2.577,0,0,0,5.155,0v-19.9h4.087v19.9a2.577,2.577,0,0,0,5.154,0Zm0,0" transform="translate(-97.173 -110.13)" fill="#005acf"/>
      <path id="Trazado_177450-11" data-name="Trazado 177450" d="M165.664,7.5V19.761a6.131,6.131,0,1,0,0-12.261Zm0,0" transform="translate(-143.095 -6.478)" fill="#dbfdfd"/>
      <path id="Trazado_177451-11" data-name="Trazado 177451" d="M128.838,13.631c0-3.386-.915-6.131-2.044-6.131a6.131,6.131,0,0,0,0,12.261C127.923,19.761,128.838,17.016,128.838,13.631Zm0,0" transform="translate(-104.225 -6.478)" fill="#005acf"/>
      <path id="Trazado_177452-11" data-name="Trazado 177452" d="M44.941,171.925,38.81,159.664a1.022,1.022,0,0,0-.914-.565H33.809a1.022,1.022,0,1,0,0,2.044h3.455l5.109,10.218H2.675l5.109-10.218H14.3v2.532a3.6,3.6,0,0,0,7.2,0v-2.487h2.044v2.487a3.6,3.6,0,0,0,7.2,0v-17a3.2,3.2,0,0,0,1.022.166,3,3,0,0,0,3.065-3V125.109A5.114,5.114,0,0,0,29.722,120h-14.4a5.115,5.115,0,0,0-5.109,5.109v18.666a3.065,3.065,0,0,0,4.087,2.89V159.1H7.153a1.022,1.022,0,0,0-.914.565L.108,171.925a1.022,1.022,0,0,0,.914,1.479H44.027a1.022,1.022,0,0,0,.914-1.479ZM21.5,159.144V144.8h2.044v14.348ZM13.283,144.8a1.023,1.023,0,0,1-1.022-1.022V125.109a3.069,3.069,0,0,1,3.065-3.065h14.4a3.069,3.069,0,0,1,3.065,3.065v18.734a1.024,1.024,0,0,1-2.044,0V125.109a1.022,1.022,0,0,0-2.044,0v38.566a1.556,1.556,0,0,1-3.111,0v-19.9a1.021,1.021,0,0,0-1.022-1.022H20.481a1.022,1.022,0,0,0-1.022,1.022v19.9a1.555,1.555,0,0,1-3.111,0V131.239a1.022,1.022,0,0,0-2.044,0v12.535A1.023,1.023,0,0,1,13.283,144.8Zm0,0" transform="translate(0 -103.652)"/>
      <path id="Trazado_177453-11" data-name="Trazado 177453" d="M106.022,154.087a1.021,1.021,0,0,0,1.022-1.022v-2.044a1.022,1.022,0,0,0-2.044,0v2.044A1.022,1.022,0,0,0,106.022,154.087Zm0,0" transform="translate(-90.695 -129.565)"/>
      <path id="Trazado_177454-11" data-name="Trazado 177454" d="M120.316,14.3a7.152,7.152,0,1,0-7.152-7.152A7.161,7.161,0,0,0,120.316,14.3Zm0-12.261a5.109,5.109,0,1,1-5.109,5.109A5.115,5.115,0,0,1,120.316,2.044Zm0,0" transform="translate(-97.747)"/>
    </g>
    <g id="persona-12" data-name="persona" transform="translate(946.079 19047.5)">
      <path id="Trazado_177445-12" data-name="Trazado 177445" d="M252.255,414.5h-4.087v6.131l6.131,6.131h4.087Zm0,0" transform="translate(-214.359 -358.03)" fill="#adf5ff"/>
      <path id="Trazado_177446-12" data-name="Trazado 177446" d="M13.631,414.5,7.5,426.761H46.418L40.287,414.5Zm0,0" transform="translate(-6.478 -358.03)" fill="#acfcff"/>
      <path id="Trazado_177447-12" data-name="Trazado 177447" d="M192.255,127.5h-4.087l4.087,22.821a2.045,2.045,0,0,0,4.087,0V131.587A4.1,4.1,0,0,0,192.255,127.5Zm0,0" transform="translate(-162.533 -110.13)" fill="#dbfdfd"/>
      <path id="Trazado_177448-12" data-name="Trazado 177448" d="M86.587,127.5h4.087l-4.087,22.753a2.044,2.044,0,1,1-4.087,0V131.587A4.1,4.1,0,0,1,86.587,127.5Zm0,0" transform="translate(-71.26 -110.13)" fill="#dbfdfd"/>
      <path id="Trazado_177449-12" data-name="Trazado 177449" d="M126.9,131.587a4.1,4.1,0,0,0-4.087-4.087h-6.222a4.1,4.1,0,0,0-4.087,4.087v38.566a2.577,2.577,0,0,0,5.155,0v-19.9h4.087v19.9a2.577,2.577,0,0,0,5.154,0Zm0,0" transform="translate(-97.173 -110.13)" fill="#005acf"/>
      <path id="Trazado_177450-12" data-name="Trazado 177450" d="M165.664,7.5V19.761a6.131,6.131,0,1,0,0-12.261Zm0,0" transform="translate(-143.095 -6.478)" fill="#dbfdfd"/>
      <path id="Trazado_177451-12" data-name="Trazado 177451" d="M128.838,13.631c0-3.386-.915-6.131-2.044-6.131a6.131,6.131,0,0,0,0,12.261C127.923,19.761,128.838,17.016,128.838,13.631Zm0,0" transform="translate(-104.225 -6.478)" fill="#005acf"/>
      <path id="Trazado_177452-12" data-name="Trazado 177452" d="M44.941,171.925,38.81,159.664a1.022,1.022,0,0,0-.914-.565H33.809a1.022,1.022,0,1,0,0,2.044h3.455l5.109,10.218H2.675l5.109-10.218H14.3v2.532a3.6,3.6,0,0,0,7.2,0v-2.487h2.044v2.487a3.6,3.6,0,0,0,7.2,0v-17a3.2,3.2,0,0,0,1.022.166,3,3,0,0,0,3.065-3V125.109A5.114,5.114,0,0,0,29.722,120h-14.4a5.115,5.115,0,0,0-5.109,5.109v18.666a3.065,3.065,0,0,0,4.087,2.89V159.1H7.153a1.022,1.022,0,0,0-.914.565L.108,171.925a1.022,1.022,0,0,0,.914,1.479H44.027a1.022,1.022,0,0,0,.914-1.479ZM21.5,159.144V144.8h2.044v14.348ZM13.283,144.8a1.023,1.023,0,0,1-1.022-1.022V125.109a3.069,3.069,0,0,1,3.065-3.065h14.4a3.069,3.069,0,0,1,3.065,3.065v18.734a1.024,1.024,0,0,1-2.044,0V125.109a1.022,1.022,0,0,0-2.044,0v38.566a1.556,1.556,0,0,1-3.111,0v-19.9a1.021,1.021,0,0,0-1.022-1.022H20.481a1.022,1.022,0,0,0-1.022,1.022v19.9a1.555,1.555,0,0,1-3.111,0V131.239a1.022,1.022,0,0,0-2.044,0v12.535A1.023,1.023,0,0,1,13.283,144.8Zm0,0" transform="translate(0 -103.652)"/>
      <path id="Trazado_177453-12" data-name="Trazado 177453" d="M106.022,154.087a1.021,1.021,0,0,0,1.022-1.022v-2.044a1.022,1.022,0,0,0-2.044,0v2.044A1.022,1.022,0,0,0,106.022,154.087Zm0,0" transform="translate(-90.695 -129.565)"/>
      <path id="Trazado_177454-12" data-name="Trazado 177454" d="M120.316,14.3a7.152,7.152,0,1,0-7.152-7.152A7.161,7.161,0,0,0,120.316,14.3Zm0-12.261a5.109,5.109,0,1,1-5.109,5.109A5.115,5.115,0,0,1,120.316,2.044Zm0,0" transform="translate(-97.747)"/>
    </g>
    <path id="Trazado_177455" data-name="Trazado 177455" d="M-7766.534,7203.31l-168.675,69.9,208.534,90.464" transform="translate(8674.754 11711)" fill="none" stroke="#2e0877" stroke-linecap="round" stroke-width="2" stroke-dasharray="6"/>
  </g>
</svg>
