<svg xmlns="http://www.w3.org/2000/svg" width="70" height="70" viewBox="0 0 70 70">
  <g id="Grupo_874076" data-name="Grupo 874076" transform="translate(-412 -1164)">
    <circle id="Elipse_4817" data-name="Elipse 4817" cx="35" cy="35" r="35" transform="translate(412 1164)" fill="#fff"/>
    <g id="dominio" transform="translate(412 1164)">
      <path id="Trazado_636884" data-name="Trazado 636884" d="M70,35A35,35,0,1,1,35,0,35,35,0,0,1,70,35Zm0,0" transform="translate(0 0)" fill="#a1f1fc"/>
      <path id="Trazado_636885" data-name="Trazado 636885" d="M95.413,351.73A34.9,34.9,0,0,0,69.98,362.687a35.134,35.134,0,0,0,2.55,2.44q.31-.328.63-.649a31.471,31.471,0,0,1,44.506,0q.32.32.63.649a35.141,35.141,0,0,0,2.55-2.44A34.9,34.9,0,0,0,95.413,351.73Zm0,0" transform="translate(-60.413 -303.642)" fill="#5fd4e3"/>
      <path id="Trazado_636886" data-name="Trazado 636886" d="M69.989,35.885Q70,35.444,70,35t-.011-.885a35,35,0,0,0-34.1-34.1Q35.444,0,35,0t-.885.011a35,35,0,0,0-34.1,34.1Q0,34.556,0,35t.011.885a35,35,0,0,0,34.1,34.1Q34.556,70,35,70t.885-.011A35,35,0,0,0,69.989,35.885ZM51.744,33.235A66.124,66.124,0,0,0,49.82,18.627a35.042,35.042,0,0,0,8.062-5.232,31.219,31.219,0,0,1,8.539,19.841Zm-48.164,0a31.219,31.219,0,0,1,8.539-19.841,35.05,35.05,0,0,0,8.062,5.232,66.156,66.156,0,0,0-1.924,14.609Zm29.656-14.9a31.408,31.408,0,0,1-8.8-1.76,38.737,38.737,0,0,1,1.894-4.8c2.021-4.22,4.465-6.99,6.907-7.909ZM43.35,4.644a31.191,31.191,0,0,1,11.955,6.311A31.322,31.322,0,0,1,48.825,15.2,32.489,32.489,0,0,0,43.35,4.644Zm2.214,11.929a31.381,31.381,0,0,1-8.8,1.759V3.867c2.442.919,4.885,3.688,6.907,7.909A38.7,38.7,0,0,1,45.565,16.573ZM21.175,15.2a31.376,31.376,0,0,1-6.48-4.243A31.178,31.178,0,0,1,26.65,4.644,32.477,32.477,0,0,0,21.175,15.2Zm2.3,4.77a34.867,34.867,0,0,0,9.758,1.9V33.235H21.787A62.825,62.825,0,0,1,23.478,19.969Zm9.758,16.8V66.133c-2.442-.919-4.886-3.688-6.907-7.909-2.746-5.733-4.34-13.3-4.541-21.459Zm3.53,29.368V36.765H48.213c-.2,8.161-1.795,15.726-4.541,21.459C41.65,62.445,39.207,65.214,36.765,66.133Zm0-32.9V21.867a34.867,34.867,0,0,0,9.757-1.9,62.791,62.791,0,0,1,1.69,13.266ZM3.58,36.765H18.257C18.548,49,21.85,59.59,26.65,65.356A31.508,31.508,0,0,1,3.58,36.765ZM43.35,65.356c4.8-5.767,8.1-16.351,8.393-28.591H66.421A31.508,31.508,0,0,1,43.35,65.356Zm0,0" transform="translate(0 0)" fill="#5fd4e3"/>
      <path id="Trazado_636887" data-name="Trazado 636887" d="M.033,36.471A35,35,0,0,1,34.115,2.952q.441-.011.885-.011t.885.011A35,35,0,0,1,69.967,36.471c.007-.195.017-.39.021-.586Q70,35.444,70,35t-.011-.885a35,35,0,0,0-34.1-34.1Q35.444,0,35,0t-.885.011a35,35,0,0,0-34.1,34.1Q0,34.556,0,35t.011.885c0,.2.014.391.021.586Zm0,0" transform="translate(0 0)" fill="#a1f1fc"/>
      <path id="Trazado_636888" data-name="Trazado 636888" d="M69.967,245.242a35,35,0,0,1-34.082,33.519q-.441.011-.885.011t-.885-.011A35,35,0,0,1,.033,245.242c-.007.2-.017.39-.021.586q-.011.441-.011.885t.011.885a35,35,0,0,0,34.1,34.1q.441.011.885.011t.885-.011a35,35,0,0,0,34.1-34.1q.011-.441.011-.885t-.011-.885C69.984,245.632,69.975,245.438,69.967,245.242Zm0,0" transform="translate(0 -211.713)" fill="#53bac7"/>
      <path id="Trazado_636889" data-name="Trazado 636889" d="M76.011,205.879H30.685a9.431,9.431,0,0,1,0-18.863H76.011a9.431,9.431,0,1,1,0,18.863Zm0,0" transform="translate(-18.348 -161.447)" fill="#ffefe4"/>
      <path id="Trazado_636890" data-name="Trazado 636890" d="M76.011,187.016H30.685a9.431,9.431,0,0,0-9.431,9.431c0,.248.012.492.031.735a9.43,9.43,0,0,1,9.4-8.7H76.011a9.43,9.43,0,0,1,9.4,8.7c.019-.243.032-.488.032-.735A9.431,9.431,0,0,0,76.011,187.016Zm0,0" transform="translate(-18.348 -161.447)" fill="#fff7f2"/>
      <path id="Trazado_636891" data-name="Trazado 636891" d="M30.685,260.788H76.011a9.432,9.432,0,0,0,9.431-9.431c0-.248-.013-.492-.032-.735a9.43,9.43,0,0,1-9.4,8.7H30.685a9.43,9.43,0,0,1-9.4-8.7c-.019.243-.031.488-.031.735A9.431,9.431,0,0,0,30.685,260.788Zm0,0" transform="translate(-18.348 -216.357)" fill="#edd4c2"/>
      <g id="Grupo_894593" data-name="Grupo 894593" transform="translate(8.543 29.566)">
        <path id="Trazado_636892" data-name="Trazado 636892" d="M63.986,216.258h.048a1.5,1.5,0,0,1,1.451,1.117l1.5,5.691h.155l1.7-5.38a2.047,2.047,0,0,1,3.9-.005l1.719,5.385h.155l1.482-5.687a1.5,1.5,0,1,1,2.881.836l-2.4,7.487a2.046,2.046,0,0,1-1.948,1.422h-.137a2.047,2.047,0,0,1-1.951-1.428l-1.721-5.425h-.155L68.947,225.7A2.046,2.046,0,0,1,67,227.125H66.9a2.046,2.046,0,0,1-1.948-1.422l-2.4-7.487A1.5,1.5,0,0,1,63.986,216.258Zm0,0" transform="translate(-62.484 -216.258)" fill="#6770e6"/>
        <path id="Trazado_636893" data-name="Trazado 636893" d="M196.915,216.258h.049a1.5,1.5,0,0,1,1.451,1.117l1.5,5.691h.155l1.7-5.38a2.046,2.046,0,0,1,3.9-.005l1.719,5.385h.155l1.482-5.687a1.5,1.5,0,1,1,2.881.836l-2.4,7.487a2.047,2.047,0,0,1-1.949,1.422h-.137a2.046,2.046,0,0,1-1.95-1.428l-1.721-5.425H203.6l-1.721,5.425a2.046,2.046,0,0,1-1.95,1.428h-.092a2.047,2.047,0,0,1-1.949-1.422l-2.4-7.487A1.5,1.5,0,0,1,196.915,216.258Zm0,0" transform="translate(-177.24 -216.258)" fill="#6770e6"/>
        <path id="Trazado_636894" data-name="Trazado 636894" d="M329.845,216.258h.048a1.5,1.5,0,0,1,1.45,1.117l1.5,5.691H333l1.7-5.38a2.046,2.046,0,0,1,3.9-.005l1.719,5.385h.155l1.482-5.687a1.5,1.5,0,1,1,2.88.836l-2.4,7.487a2.047,2.047,0,0,1-1.949,1.422h-.137a2.046,2.046,0,0,1-1.95-1.428l-1.721-5.425h-.155l-1.721,5.425a2.046,2.046,0,0,1-1.95,1.428h-.092a2.046,2.046,0,0,1-1.948-1.422l-2.4-7.487A1.5,1.5,0,0,1,329.845,216.258Zm0,0" transform="translate(-291.996 -216.258)" fill="#6770e6"/>
      </g>
      <path id="Trazado_636895" data-name="Trazado 636895" d="M26.8,329.4A13.4,13.4,0,1,1,13.4,316,13.4,13.4,0,0,1,26.8,329.4Zm0,0" transform="translate(0 -272.797)" fill="#d476e2"/>
      <path id="Trazado_636896" data-name="Trazado 636896" d="M13.422,421.695a13.4,13.4,0,0,1-13.4-12.718c-.012.236-.018.472-.018.711a13.4,13.4,0,1,0,26.8-.048c0-.22-.007-.438-.018-.656A13.4,13.4,0,0,1,13.422,421.695Zm0,0" transform="translate(0 -353.062)" fill="#b665c2"/>
      <path id="Trazado_636897" data-name="Trazado 636897" d="M44.265,375.671a2.549,2.549,0,0,1-1.588-.553l-3.7-2.927a2.563,2.563,0,1,1,3.18-4.021l1.721,1.361,5.981-7.341a2.563,2.563,0,1,1,3.974,3.239l-7.577,9.3A2.561,2.561,0,0,1,44.265,375.671Zm0,0" transform="translate(-32.806 -311.856)" fill="#fff7f2"/>
    </g>
  </g>
</svg>
