<svg xmlns="http://www.w3.org/2000/svg" xmlns:xlink="http://www.w3.org/1999/xlink" width="88.139" height="63.56" viewBox="0 0 88.139 63.56">
  <defs>
    <linearGradient id="linear-gradient" x1="1.015" y1="0.817" x2="-0.154" y2="0.111" gradientUnits="objectBoundingBox">
      <stop offset="0.232" stop-color="#e20a0a"/>
      <stop offset="0.566" stop-color="#f00505"/>
      <stop offset="0.984" stop-color="#fd0000"/>
    </linearGradient>
    <linearGradient id="linear-gradient-2" y1="0.5" x2="1" y2="0.5" gradientUnits="objectBoundingBox">
      <stop offset="0" stop-color="#d40a0a"/>
      <stop offset="0.55" stop-color="#bd0404"/>
      <stop offset="0.984" stop-color="#b00000"/>
    </linearGradient>
    <linearGradient id="linear-gradient-3" x1="1.073" y1="1.071" x2="0.005" y2="0.072" gradientUnits="objectBoundingBox">
      <stop offset="0" stop-color="#ef0a0a"/>
      <stop offset="0.361" stop-color="#e50606"/>
      <stop offset="0.984" stop-color="#d80000"/>
    </linearGradient>
    <radialGradient id="radial-gradient" cx="0.308" cy="0.995" r="1.03" gradientTransform="translate(0.128) scale(0.745 1)" gradientUnits="objectBoundingBox">
      <stop offset="0.016" stop-color="#fb0000"/>
      <stop offset="0.323" stop-color="#ee0202"/>
      <stop offset="0.892" stop-color="#cb0909"/>
      <stop offset="1" stop-color="#c40a0a"/>
    </radialGradient>
    <clipPath id="clip-path">
      <path id="Trazado_118523" data-name="Trazado 118523" d="M2044.611,1451.595l-5.958,4.553a8.246,8.246,0,0,1-3.375.108,8.666,8.666,0,0,1-3.111-1.2,8.833,8.833,0,0,1-2.458-2.3,8.671,8.671,0,0,1-1.429-3.159l4.847-5.371a9.849,9.849,0,0,0,1.619,3.5,10.143,10.143,0,0,0,2.738,2.574,9.755,9.755,0,0,0,3.433,1.371A8.975,8.975,0,0,0,2044.611,1451.595Z" transform="translate(-2028.28 -1444.22)"/>
    </clipPath>
    <radialGradient id="radial-gradient-3" cx="0.5" cy="0.5" r="0.664" gradientTransform="translate(0.185) scale(0.63 1)" xlink:href="#radial-gradient"/>
    <radialGradient id="radial-gradient-4" cx="0.186" cy="0.939" r="1.717" gradientTransform="translate(0.165) scale(0.671 1)" gradientUnits="objectBoundingBox">
      <stop offset="0" stop-color="#fff"/>
      <stop offset="0.098" stop-color="#fafafa"/>
      <stop offset="0.222" stop-color="#eaeaea"/>
      <stop offset="0.36" stop-color="#d0d0d0"/>
      <stop offset="0.508" stop-color="#acacac"/>
      <stop offset="0.664" stop-color="#7d7d7d"/>
      <stop offset="0.827" stop-color="#454545"/>
      <stop offset="0.993" stop-color="#030303"/>
      <stop offset="1"/>
    </radialGradient>
    <radialGradient id="radial-gradient-5" cx="0.5" cy="0.5" r="0.64" gradientTransform="translate(0.169) scale(0.662 1)" xlink:href="#radial-gradient"/>
    <radialGradient id="radial-gradient-6" cx="0.5" cy="0.5" r="0.485" gradientTransform="translate(-0.033) scale(1.066 1)" gradientUnits="objectBoundingBox">
      <stop offset="0" stop-color="#fff"/>
      <stop offset="1" stop-color="#efefef"/>
    </radialGradient>
    <radialGradient id="radial-gradient-7" cx="0.5" cy="0.5" r="0.485" xlink:href="#radial-gradient-6"/>
    <radialGradient id="radial-gradient-8" cx="0.786" cy="0.071" r="2.716" gradientTransform="translate(0.246) scale(0.507 1)" xlink:href="#radial-gradient-4"/>
    <linearGradient id="linear-gradient-4" x1="-0.008" y1="0.502" x2="0.983" y2="0.502" gradientUnits="objectBoundingBox">
      <stop offset="0.232" stop-color="#c20a0a"/>
      <stop offset="0.352" stop-color="#cd0808"/>
      <stop offset="0.762" stop-color="#f00202"/>
      <stop offset="0.984" stop-color="#fd0000"/>
    </linearGradient>
    <linearGradient id="linear-gradient-5" x1="0.02" y1="0.5" x2="0.981" y2="0.5" xlink:href="#linear-gradient-4"/>
  </defs>
  <g id="Grupo_870254" data-name="Grupo 870254" transform="translate(8427.442 10579.497)">
    <path id="XMLID_319_" d="M2027.15,864.828a6.037,6.037,0,0,1,2.194.423,8.708,8.708,0,0,1,2.112,1.183,10.1,10.1,0,0,1,1.818,1.769,9.236,9.236,0,0,1,1.309,2.2l12.87,31.031a9.054,9.054,0,0,1,.675,2.669,6.437,6.437,0,0,1-.209,2.38,4.353,4.353,0,0,1-1.044,1.838,3.691,3.691,0,0,1-1.832,1.018l-58.821,13.582a8.969,8.969,0,0,1-3.693.067,9.749,9.749,0,0,1-3.433-1.371,10.145,10.145,0,0,1-2.738-2.574,9.843,9.843,0,0,1-1.619-3.5l-10.259-42.6a6.219,6.219,0,0,1-.021-2.966,5.555,5.555,0,0,1,1.281-2.4,6.383,6.383,0,0,1,2.314-1.6,8.292,8.292,0,0,1,3.093-.6Zm-8.562,23.692a.576.576,0,0,0,.165-.341.872.872,0,0,0-.051-.407,1.174,1.174,0,0,0-.234-.387,1.131,1.131,0,0,0-.387-.278l-18.866-8.135a1.17,1.17,0,0,0-.118-.044.963.963,0,0,0-.116-.028,1.014,1.014,0,0,0-.112-.014.866.866,0,0,0-.107,0,.721.721,0,0,0-.3.082.607.607,0,0,0-.214.191.618.618,0,0,0-.1.278.809.809,0,0,0,.038.342l6.448,20.282a1.169,1.169,0,0,0,.19.361,1.188,1.188,0,0,0,.284.264,1.087,1.087,0,0,0,.336.149.856.856,0,0,0,.345.017.735.735,0,0,0,.2-.064.6.6,0,0,0,.094-.056.733.733,0,0,0,.087-.072l12.411-12.14Z" transform="translate(-10387.459 -11444.324)" fill="url(#linear-gradient)"/>
    <path id="XMLID_14_" d="M2212.214,1369.982c-.067.029-.137.056-.208.081s-.142.048-.214.069-.147.04-.222.058l-58.821,13.582-5.958,4.552,55.3-13.427c.073-.017.145-.037.215-.059s.139-.044.208-.069.135-.051.2-.079.131-.058.194-.089l9.506-4.711Q2212.315,1369.939,2212.214,1369.982Z" transform="translate(-10553.984 -11905.177)" fill="url(#linear-gradient-2)"/>
    <path id="XMLID_39_" d="M1928.7,920.215a6.884,6.884,0,0,1-.161-.958,6.263,6.263,0,0,1-.02-.923,5.75,5.75,0,0,1,.114-.878,5.623,5.623,0,0,1,.239-.826l-3.442,9.17a5.4,5.4,0,0,0-.228.778,5.636,5.636,0,0,0-.113.823,5.993,5.993,0,0,0,.009.86,6.444,6.444,0,0,0,.138.889l8.877,39.034,4.847-5.371Z" transform="translate(-10351.683 -11491.593)" fill="url(#linear-gradient-3)"/>
    <path id="Trazado_118522" data-name="Trazado 118522" d="M2044.611,1451.595l-5.958,4.553a8.246,8.246,0,0,1-3.375.108,8.666,8.666,0,0,1-3.111-1.2,8.833,8.833,0,0,1-2.458-2.3,8.671,8.671,0,0,1-1.429-3.159l4.847-5.371a9.849,9.849,0,0,0,1.619,3.5,10.143,10.143,0,0,0,2.738,2.574,9.755,9.755,0,0,0,3.433,1.371A8.975,8.975,0,0,0,2044.611,1451.595Z" transform="translate(-10445.849 -11973)" fill="url(#radial-gradient)"/>
    <g id="XMLID_63_" transform="translate(-8417.568 -10528.78)" clip-path="url(#clip-path)">
      <path id="XMLID_64_" d="M2044.611,1451.595l-5.958,4.553a8.246,8.246,0,0,1-3.375.108,8.666,8.666,0,0,1-3.111-1.2,8.833,8.833,0,0,1-2.458-2.3,8.671,8.671,0,0,1-1.429-3.159l4.847-5.371a9.849,9.849,0,0,0,1.619,3.5,10.143,10.143,0,0,0,2.738,2.574,9.755,9.755,0,0,0,3.433,1.371,8.975,8.975,0,0,0,3.694-.066" transform="translate(-2028.28 -1444.22)" fill="url(#radial-gradient)"/>
    </g>
    <path id="XMLID_314_" d="M2002.763,1059.312l-2.173,1.077c-.063.031-.128.061-.193.089s-.132.054-.2.079-.137.047-.208.068-.142.041-.214.059l-55.3,13.427h0a8.239,8.239,0,0,1-3.375.108,8.644,8.644,0,0,1-3.11-1.2,8.834,8.834,0,0,1-2.458-2.3,8.67,8.67,0,0,1-1.429-3.159l-8.877-39.033a6.441,6.441,0,0,1-.138-.889,5.888,5.888,0,0,1-.009-.859,5.652,5.652,0,0,1,.113-.823,5.363,5.363,0,0,1,.142-.53l9.3,40.895a9.1,9.1,0,0,0,1.5,3.321,9.255,9.255,0,0,0,2.584,2.421,9.1,9.1,0,0,0,3.269,1.263,8.685,8.685,0,0,0,3.549-.113h0Z" transform="translate(-10351.67 -11590.859)" fill="url(#radial-gradient-3)"/>
    <path id="XMLID_11_" d="M2045.6,935.757l-58.821,13.582a8.954,8.954,0,0,1-3.693.067,9.746,9.746,0,0,1-3.433-1.371,10.129,10.129,0,0,1-2.738-2.574,9.863,9.863,0,0,1-1.619-3.5l-10.259-42.6a6.213,6.213,0,0,1-.021-2.967,5.538,5.538,0,0,1,.87-1.891c-.049.05-.1.1-.143.152a5.564,5.564,0,0,0-1.281,2.4,6.22,6.22,0,0,0,.021,2.966l10.26,42.6a9.845,9.845,0,0,0,1.619,3.5,10.145,10.145,0,0,0,2.738,2.574,9.765,9.765,0,0,0,3.433,1.371,8.986,8.986,0,0,0,3.693-.067l58.821-13.582a3.69,3.69,0,0,0,1.831-1.018,3.882,3.882,0,0,0,.464-.575A3.692,3.692,0,0,1,2045.6,935.757Z" transform="translate(-10387.459 -11471.409)" opacity="0.56" fill="url(#radial-gradient-4)"/>
    <path id="XMLID_42_" d="M2034.928,956.315l-3.069,1.521-57.695,13.321a8.968,8.968,0,0,1-3.693.067,9.763,9.763,0,0,1-3.433-1.371,10.13,10.13,0,0,1-2.738-2.574,9.843,9.843,0,0,1-1.619-3.5l-10.26-42.6a7.062,7.062,0,0,1-.142-.783l1.413-3.763a5.484,5.484,0,0,0-.239.825,5.924,5.924,0,0,0-.114.878,6.3,6.3,0,0,0,.02.923,7.1,7.1,0,0,0,.161.958l10.26,42.6a9.836,9.836,0,0,0,1.619,3.5,10.141,10.141,0,0,0,2.738,2.574,9.765,9.765,0,0,0,3.433,1.371,8.988,8.988,0,0,0,3.693-.067l58.821-13.582c.074-.018.15-.037.222-.058s.145-.045.215-.07.139-.052.207-.081S2034.864,956.347,2034.928,956.315Z" transform="translate(-10376.501 -11491.602)" fill="url(#radial-gradient-5)"/>
    <g id="XMLID_316_" transform="translate(-8389.313 -10565.44)">
      <path id="XMLID_317_" d="M2351.7,1025.409a.711.711,0,0,1,.107,0,1.06,1.06,0,0,1,.112.014c.038.007.076.017.116.028a1.1,1.1,0,0,1,.118.044l18.866,8.135a1.121,1.121,0,0,1,.387.278,1.165,1.165,0,0,1,.235.387.876.876,0,0,1,.051.408.576.576,0,0,1-.165.34l-12.412,12.141a.613.613,0,0,1-.086.072.812.812,0,0,1-.094.056.709.709,0,0,1-.1.039.825.825,0,0,1-.105.025.885.885,0,0,1-.345-.017,1.088,1.088,0,0,1-.336-.149,1.191,1.191,0,0,1-.285-.263,1.174,1.174,0,0,1-.19-.362l-6.448-20.282a.813.813,0,0,1-.038-.343.607.607,0,0,1,.1-.277.6.6,0,0,1,.213-.191A.71.71,0,0,1,2351.7,1025.409Z" transform="translate(-2351.085 -1025.407)" fill="url(#radial-gradient-6)"/>
    </g>
    <g id="XMLID_44_" transform="translate(-8390.259 -10566.449)">
      <path id="XMLID_46_" d="M2340.945,1013.889a.839.839,0,0,1,.116,0,1,1,0,0,1,.122.015,1.15,1.15,0,0,1,.126.031,1.325,1.325,0,0,1,.129.047l20.6,8.882a1.226,1.226,0,0,1,.423.3,1.279,1.279,0,0,1,.256.422.957.957,0,0,1,.056.445.623.623,0,0,1-.18.372l-13.551,13.255a.815.815,0,0,1-.095.079.686.686,0,0,1-.1.06.78.78,0,0,1-.11.044.829.829,0,0,1-.115.026.948.948,0,0,1-.376-.019,1.2,1.2,0,0,1-.366-.162,1.3,1.3,0,0,1-.311-.287,1.269,1.269,0,0,1-.208-.395l-7.04-22.143a.9.9,0,0,1-.041-.374.67.67,0,0,1,.112-.3.66.66,0,0,1,.233-.208A.779.779,0,0,1,2340.945,1013.889Z" transform="translate(-2340.271 -1013.887)" fill="url(#radial-gradient-7)"/>
    </g>
    <path id="XMLID_244_" d="M2049.744,904.1a9.064,9.064,0,0,0-.674-2.669L2036.2,870.4a9.222,9.222,0,0,0-1.309-2.2,10.1,10.1,0,0,0-1.818-1.769,8.708,8.708,0,0,0-2.112-1.183,6.035,6.035,0,0,0-2.193-.424l-56,.546a8.294,8.294,0,0,0-3.093.6,6.393,6.393,0,0,0-2.314,1.6,5.567,5.567,0,0,0-1.281,2.4c-.005.021-.01.041-.015.063a5.592,5.592,0,0,1,.888-1.314,6.379,6.379,0,0,1,2.313-1.6,8.292,8.292,0,0,1,3.093-.6l56-.547a6.027,6.027,0,0,1,2.194.424,8.711,8.711,0,0,1,2.112,1.184,10.038,10.038,0,0,1,1.817,1.769,9.178,9.178,0,0,1,1.309,2.2l12.87,31.031a9.05,9.05,0,0,1,.675,2.669,6.641,6.641,0,0,1-.122,2.047,4.932,4.932,0,0,0,.323-.819A6.462,6.462,0,0,0,2049.744,904.1Z" transform="translate(-10389.075 -11444.325)" opacity="0.7" fill="url(#radial-gradient-8)"/>
    <path id="XMLID_366_" d="M1915.5,1058.139c.005,0,.005-.009,0-.009a0,0,0,1,0,0,.009Z" transform="translate(-10342.939 -11620.706)" fill="url(#linear-gradient-4)"/>
    <path id="XMLID_358_" d="M2242.722,1495.232Z" transform="translate(-10640.772 -12011.254)" fill="url(#linear-gradient-5)"/>
  </g>
</svg>
