<svg xmlns="http://www.w3.org/2000/svg" width="35.841" height="44.243" viewBox="0 0 35.841 44.243">
  <g id="Grupo_974107" data-name="Grupo 974107" transform="translate(-328.038 -265.117)">
    <path id="Trazado_614404" data-name="Trazado 614404" d="M1121.421,930.771c-16.781-.515-33.82-31.526-18.533-42.834,3.785-2.185,8.586-1.819,13.521,1.03,13.267,6.383,26.485,39.028,5.012,41.8M1108.28,892.79c-3.661.106-4.9,3.054-5.013,7.37,0,8.226,6.019,18.651,13.143,22.764,19.242,9.389,7.613-29.636-8.13-30.135" transform="translate(-768.896 -621.411)" fill="#29ffff"/>
    <path id="Trazado_614405" data-name="Trazado 614405" d="M1136.6,923.625c0,9.6-6.739,13.493-15.055,8.693s-15.057-16.476-15.057-26.078,6.741-13.493,15.057-8.693,15.055,16.476,15.055,26.078" transform="translate(-775.596 -627.694)" fill="#6c74af"/>
    <path id="Trazado_614406" data-name="Trazado 614406" d="M1145.794,937.888v1.92l-2.722-1.571v-1.921a11.082,11.082,0,0,1-3.78-8.887l3.085,1.4c-.676,3.854,3.906,7.477,4.113,3.806-.446-4.579-7.246-10.774-6.9-15.889,0-3.038,1.27-4.469,3.478-3.823V911l2.722,1.571v1.921a10.514,10.514,0,0,1,3.539,8.538l-3.085-1.4c.6-3.628-3.409-7-3.508-3.247.473,4.562,7.214,10.8,6.9,15.889,0,2.968-1.512,4.33-3.841,3.614" transform="translate(-798.573 -638.565)" fill="#29ffff"/>
  </g>
</svg>
