<svg xmlns="http://www.w3.org/2000/svg" xmlns:xlink="http://www.w3.org/1999/xlink" width="60" height="61" viewBox="0 0 60 61">
  <defs>
    <linearGradient id="linear-gradient" x1="0.5" x2="0.5" y2="1" gradientUnits="objectBoundingBox">
      <stop offset="0" stop-color="#25ffff"/>
      <stop offset="1" stop-color="#25ffff"/>
    </linearGradient>
  </defs>
  <g id="Grupo_142438" data-name="Grupo 142438" transform="translate(-0.397 0.499)">
    <ellipse id="Elipse_4775" data-name="Elipse 4775" cx="30" cy="30.5" rx="30" ry="30.5" transform="translate(0.397 -0.499)" fill="url(#linear-gradient)"/>
    <g id="muqhRL.tif" transform="translate(-511.021 173.521)">
      <g id="Grupo_169176" data-name="Grupo 169176" transform="translate(521.984 -164.378)">
        <path id="Trazado_204590" data-name="Trazado 204590" d="M551.306-126.455H530.574v-1.227c.732,0,1.421.007,2.11-.007.1,0,.3-.1.3-.157.02-.747.013-1.5.013-2.283h-7.7a3.324,3.324,0,0,1-1.578-.315,3.076,3.076,0,0,1-1.728-2.953q0-7.664,0-15.327c0-1.283,0-2.567,0-3.85a3.061,3.061,0,0,1,3.194-3.228c.876-.011,1.752.009,2.628-.011a1.038,1.038,0,0,0,.568-.189,10.218,10.218,0,0,1,9.916-1.632.4.4,0,0,0,.561-.191c1.329-2.092,2.676-4.172,4.009-6.262a.547.547,0,0,1,.528-.292q5.312.014,10.623.007c.119,0,.237.012.39.021,0,.272,0,.517,0,.761,0,.48,0,.482-.486.48q-4.922-.017-9.843-.041a.55.55,0,0,0-.542.278c-1.183,1.863-2.38,3.717-3.573,5.575-.058.091-.11.186-.162.275.464.322.922.613,1.348.945a1.277,1.277,0,0,0,.845.279c4.861-.009,9.723,0,14.584-.01a3.3,3.3,0,0,1,2.287.778,3.424,3.424,0,0,1,1.033,1.914v20.291a6.537,6.537,0,0,1-.31.942,3.05,3.05,0,0,1-2.966,1.755c-2.43-.007-4.859,0-7.288,0-.142,0-.285.012-.448.02,0,.687.025,1.329-.01,1.967-.021.385.1.484.473.467.648-.03,1.3-.008,1.96-.008Zm6.125-9.78h-.313q-7.793,0-15.585.005a.52.52,0,0,1-.48-.259c-.491-.707-1-1.4-1.486-2.087-4.49,1.938-8.533,1.37-12.123-1.976-3.95-4.506-3.942-9.189-.636-14.039h-1.429a1.9,1.9,0,0,0-2.167,2.146q0,7.868,0,15.736v.473h.443c1.74,0,3.484.069,5.219-.023a4.467,4.467,0,0,1,3.406,1.036.987.987,0,0,0,.607.191q12.679.014,25.358.008h.424v-5.787q0-5.869,0-11.737a1.849,1.849,0,0,0-1.972-2.041q-6.811-.007-13.623,0a2.773,2.773,0,0,0-.288.032,10.46,10.46,0,0,1-2.157,15.351c.385.542.762,1.088,1.16,1.619a.453.453,0,0,0,.322.112c.394,0,.788-.022,1.182-.023q3.015,0,6.03,0c1.048,0,2.1.025,3.145.025,1.208,0,2.417-.016,3.626-.024.44,0,.881,0,1.34,0Zm-21.974,4.89h.48q10.347,0,20.693,0a1.91,1.91,0,0,0,1.987-2.444h-.465c-8.021,0-16.041-.027-24.062.026a4.87,4.87,0,0,1-3.471-1.064,1,1,0,0,0-.609-.187c-2.122-.013-4.245-.008-6.367-.008h-.432c0,.569,0,1.085,0,1.6a1.871,1.871,0,0,0,2.086,2.076h8.922v3.63h13.423v-2.429H535.457Zm-1.27-7.416v-18.192a9.088,9.088,0,0,0-8.522,9.074A9.1,9.1,0,0,0,534.188-138.761Zm1.861-9.1,7,4.04a9.152,9.152,0,0,0-.005-8.078Zm6.365-5.09a8.7,8.7,0,0,0-3.327-2.989l-.692,1.069-1.015-.656.612-1-2.516-.525v8.107Zm-6.946,6.168v8.048a8.6,8.6,0,0,0,3.344-.894L538-140.781l.986-.7.9,1.252a9.016,9.016,0,0,0,2.537-2.526Z" transform="translate(-521.984 164.378)" fill="#12263f"/>
        <path id="Trazado_204591" data-name="Trazado 204591" d="M836.542-131.179c0,.352.014.695-.01,1.035-.005.077-.133.161-.221.21-.056.032-.145.008-.218.008-2.969,0-5.939-.006-8.908.008-.362,0-.484-.106-.448-.459.026-.255.005-.514.005-.8Z" transform="translate(-804.123 133.642)" fill="#12263f"/>
        <path id="Trazado_204592" data-name="Trazado 204592" d="M827.27-98.73c.134-.006.244-.015.353-.015,2.2,0,4.393.006,6.589-.008.323,0,.424.081.418.412-.017.854,0,.854-.859.854h-6.5Z" transform="translate(-804.623 103.622)" fill="#12263f"/>
        <path id="Trazado_204593" data-name="Trazado 204593" d="M942.176-97.027v-1.2H943.4v1.2Z" transform="translate(-911.005 103.132)" fill="#12263f"/>
        <path id="Trazado_204594" data-name="Trazado 204594" d="M556.413,249.452h-1.185v-1.17h1.185Z" transform="translate(-552.762 -217.67)" fill="#12263f"/>
        <path id="Trazado_204595" data-name="Trazado 204595" d="M589.415,249.5h-1.18v-1.167h1.18Z" transform="translate(-583.32 -217.718)" fill="#12263f"/>
        <path id="Trazado_204596" data-name="Trazado 204596" d="M621.271,248.228h1.182v1.17h-1.182Z" transform="translate(-613.906 -217.62)" fill="#12263f"/>
        <path id="Trazado_204597" data-name="Trazado 204597" d="M609.189,50.838c-.147.011-.267.028-.387.028-1.379,0-2.757-.006-4.136.007-.305,0-.4-.094-.392-.4.013-.891,0-.891.9-.891h3.471c.546,0,.546,0,.546.529C609.189,50.343,609.189,50.575,609.189,50.838Z" transform="translate(-598.17 -33.71)" fill="#12263f"/>
        <path id="Trazado_204598" data-name="Trazado 204598" d="M609.623,83v1.189h-4.859V83Z" transform="translate(-598.623 -64.646)" fill="#12263f"/>
        <path id="Trazado_204599" data-name="Trazado 204599" d="M609.6,17.442v1.187h-4.86V17.442Z" transform="translate(-598.597 -3.954)" fill="#12263f"/>
      </g>
    </g>
  </g>
</svg>
