<svg xmlns="http://www.w3.org/2000/svg" xmlns:xlink="http://www.w3.org/1999/xlink" width="376" height="223" viewBox="0 0 376 223">
  <defs>
    <clipPath id="clip-path">
      <path id="Trazado_704921" data-name="Trazado 704921" d="M0,0H340.936V213.32H0Z" fill="none"/>
    </clipPath>
  </defs>
  <g id="Grupo_974128" data-name="Grupo 974128" transform="translate(-7321 4698)">
    <rect id="Rectángulo_339948" data-name="Rectángulo 339948" width="376" height="223" rx="16" transform="translate(7321 -4698)" fill="#fff"/>
    <g id="Grupo_974127" data-name="Grupo 974127" transform="translate(7338.064 -4690.68)">
      <path id="Trazado_704922" data-name="Trazado 704922" d="M0,0H59.008V82.92H0Z" transform="translate(32.782 16.498)" fill="#25ffff" stroke="#fff" stroke-width="1"/>
      <path id="Trazado_704923" data-name="Trazado 704923" d="M0,0H59.008V38.568H0Z" transform="translate(32.782 99.417)" fill="#2e0877" stroke="#fff" stroke-width="1"/>
      <path id="Trazado_704924" data-name="Trazado 704924" d="M0,0H59.008V59.78H0Z" transform="translate(32.782 137.985)" fill="#ad84ff" stroke="#fff" stroke-width="1"/>
      <path id="Trazado_704925" data-name="Trazado 704925" d="M0,0H41.653V61.515H0Z" transform="translate(91.791 16.498)" fill="#25ffff" stroke="#fff" stroke-width="1"/>
      <path id="Trazado_704926" data-name="Trazado 704926" d="M0,0H41.653V69.036H0Z" transform="translate(91.791 78.013)" fill="#2e0877" stroke="#fff" stroke-width="1"/>
      <path id="Trazado_704927" data-name="Trazado 704927" d="M0,0H41.653V50.716H0Z" transform="translate(91.791 147.048)" fill="#ad84ff" stroke="#fff" stroke-width="1"/>
      <path id="Trazado_704928" data-name="Trazado 704928" d="M0,0H68.136V76.492H0Z" transform="translate(133.444 16.498)" fill="#25ffff" stroke="#fff" stroke-width="1"/>
      <path id="Trazado_704929" data-name="Trazado 704929" d="M0,0H68.136V68.136H0Z" transform="translate(133.444 92.99)" fill="#2e0877" stroke="#fff" stroke-width="1"/>
      <path id="Trazado_704930" data-name="Trazado 704930" d="M0,0H68.136V36.639H0Z" transform="translate(133.444 161.125)" fill="#ad84ff" stroke="#fff" stroke-width="1"/>
      <path id="Trazado_704931" data-name="Trazado 704931" d="M0,0H59.137V82.149H0Z" transform="translate(201.579 16.498)" fill="#25ffff" stroke="#fff" stroke-width="1"/>
      <path id="Trazado_704932" data-name="Trazado 704932" d="M0,0H59.137V62.479H0Z" transform="translate(201.579 98.647)" fill="#2e0877" stroke="#fff" stroke-width="1"/>
      <path id="Trazado_704933" data-name="Trazado 704933" d="M0,0H59.137V36.639H0Z" transform="translate(201.579 161.125)" fill="#ad84ff" stroke="#fff" stroke-width="1"/>
      <path id="Trazado_704934" data-name="Trazado 704934" d="M0,0H68.907V58.751H0Z" transform="translate(260.716 16.498)" fill="#25ffff" stroke="#fff" stroke-width="1"/>
      <path id="Trazado_704935" data-name="Trazado 704935" d="M0,0H68.907V51.809H0Z" transform="translate(260.716 75.248)" fill="#2e0877" stroke="#fff" stroke-width="1"/>
      <path id="Trazado_704936" data-name="Trazado 704936" d="M0,0H68.907V70.707H0Z" transform="translate(260.716 127.058)" fill="#ad84ff" stroke="#fff" stroke-width="1"/>
      <g id="Grupo_974126" data-name="Grupo 974126">
        <g id="Enmascarar_grupo_156991" data-name="Enmascarar grupo 156991" clip-path="url(#clip-path)">
          <path id="Trazado_704920" data-name="Trazado 704920" d="M4.14,0V-.657H1.512V-.675l.468-.432C3.213-2.3,4-3.168,4-4.248A1.646,1.646,0,0,0,2.2-5.949a2.567,2.567,0,0,0-1.656.594L.8-4.8a1.992,1.992,0,0,1,1.242-.495A1.044,1.044,0,0,1,3.2-4.149c-.009.882-.684,1.638-2.178,3.06l-.621.6V0ZM6.975-5.949c-1.188,0-2.034,1.08-2.034,3.042C4.959-.972,5.733.1,6.876.1,8.172.1,8.91-1,8.91-2.988,8.91-4.851,8.208-5.949,6.975-5.949Zm-.045.612c.819,0,1.188.945,1.188,2.385,0,1.494-.387,2.439-1.2,2.439-.72,0-1.188-.864-1.188-2.385C5.733-4.491,6.237-5.337,6.93-5.337Zm3.987-.612c-.774,0-1.413.657-1.413,1.827s.639,1.764,1.368,1.764c.756,0,1.4-.612,1.4-1.845C12.276-5.319,11.736-5.949,10.917-5.949Zm-.027.477c.549,0,.756.594.756,1.3,0,.774-.234,1.332-.756,1.332-.495,0-.774-.567-.756-1.314C10.134-4.887,10.395-5.472,10.89-5.472ZM11.322.1,14.76-5.949h-.5L10.818.1Zm3.411-3.627c-.774,0-1.413.657-1.413,1.836S13.959.063,14.688.063c.747,0,1.4-.612,1.4-1.845C16.083-2.9,15.552-3.528,14.733-3.528Zm-.027.477c.549,0,.756.594.756,1.305,0,.774-.234,1.332-.756,1.332-.486,0-.774-.567-.765-1.314S14.211-3.051,14.706-3.051ZM52.83,0H53.6V-5.85H52.92l-1.278.684.153.6,1.017-.549h.018Zm6.093,0V-1.593h.819v-.621h-.819V-5.85h-.855l-2.61,3.735v.522h2.718V0ZM56.259-2.214v-.018L57.69-4.221c.162-.27.306-.522.486-.864H58.2q-.027.459-.027.918v1.953Zm5.364-3.735c-.774,0-1.413.657-1.413,1.827s.639,1.764,1.368,1.764c.756,0,1.4-.612,1.4-1.845C62.982-5.319,62.442-5.949,61.623-5.949Zm-.027.477c.549,0,.756.594.756,1.3,0,.774-.234,1.332-.756,1.332-.495,0-.774-.567-.756-1.314C60.84-4.887,61.1-5.472,61.6-5.472ZM62.028.1l3.438-6.048h-.5L61.524.1Zm3.411-3.627c-.774,0-1.413.657-1.413,1.836S64.665.063,65.394.063c.747,0,1.395-.612,1.395-1.845C66.789-2.9,66.258-3.528,65.439-3.528Zm-.027.477c.549,0,.756.594.756,1.305,0,.774-.234,1.332-.756,1.332-.486,0-.774-.567-.765-1.314S64.917-3.051,65.412-3.051ZM107.46,0V-.657h-2.628V-.675l.468-.432c1.233-1.188,2.016-2.061,2.016-3.141a1.646,1.646,0,0,0-1.791-1.7,2.567,2.567,0,0,0-1.656.594l.252.558a1.992,1.992,0,0,1,1.242-.495,1.044,1.044,0,0,1,1.161,1.143c-.009.882-.684,1.638-2.178,3.06l-.621.6V0Zm.855-.3a2.974,2.974,0,0,0,1.521.4c1.4,0,2.133-.819,2.133-1.755a1.524,1.524,0,0,0-1.305-1.5v-.018a1.453,1.453,0,0,0,1.08-1.377c0-.711-.522-1.395-1.674-1.395a2.781,2.781,0,0,0-1.53.45l.207.576a2.149,2.149,0,0,1,1.17-.387c.729,0,1.026.414,1.026.882,0,.693-.729.99-1.305.99H109.2v.594h.441c.765,0,1.5.351,1.512,1.17.009.486-.306,1.134-1.323,1.134a2.647,2.647,0,0,1-1.3-.369Zm5.922-5.652c-.774,0-1.413.657-1.413,1.827s.639,1.764,1.368,1.764c.756,0,1.4-.612,1.4-1.845C115.6-5.319,115.056-5.949,114.237-5.949Zm-.027.477c.549,0,.756.594.756,1.3,0,.774-.234,1.332-.756,1.332-.495,0-.774-.567-.756-1.314C113.454-4.887,113.715-5.472,114.21-5.472ZM114.642.1l3.438-6.048h-.5L114.138.1Zm3.411-3.627c-.774,0-1.413.657-1.413,1.836s.639,1.755,1.368,1.755c.747,0,1.395-.612,1.395-1.845C119.4-2.9,118.872-3.528,118.053-3.528Zm-.027.477c.549,0,.756.594.756,1.305,0,.774-.234,1.332-.756,1.332-.486,0-.774-.567-.765-1.314S117.531-3.051,118.026-3.051ZM171.522,0V-.657h-2.628V-.675l.468-.432c1.233-1.188,2.016-2.061,2.016-3.141a1.646,1.646,0,0,0-1.791-1.7,2.567,2.567,0,0,0-1.656.594l.252.558a1.992,1.992,0,0,1,1.242-.495,1.044,1.044,0,0,1,1.161,1.143c-.009.882-.684,1.638-2.178,3.06l-.621.6V0Zm2.835-5.949c-1.188,0-2.034,1.08-2.034,3.042C172.341-.972,173.115.1,174.258.1c1.3,0,2.034-1.1,2.034-3.087C176.292-4.851,175.59-5.949,174.357-5.949Zm-.045.612c.819,0,1.188.945,1.188,2.385,0,1.494-.387,2.439-1.2,2.439-.72,0-1.188-.864-1.188-2.385C173.115-4.491,173.619-5.337,174.312-5.337Zm3.987-.612c-.774,0-1.413.657-1.413,1.827s.639,1.764,1.368,1.764c.756,0,1.4-.612,1.4-1.845C179.658-5.319,179.118-5.949,178.3-5.949Zm-.027.477c.549,0,.756.594.756,1.3,0,.774-.234,1.332-.756,1.332-.5,0-.774-.567-.756-1.314C177.516-4.887,177.777-5.472,178.272-5.472ZM178.7.1l3.438-6.048h-.5L178.2.1Zm3.411-3.627c-.774,0-1.413.657-1.413,1.836S181.341.063,182.07.063c.747,0,1.4-.612,1.4-1.845C183.465-2.9,182.934-3.528,182.115-3.528Zm-.027.477c.549,0,.756.594.756,1.305,0,.774-.234,1.332-.756,1.332-.486,0-.774-.567-.765-1.314S181.593-3.051,182.088-3.051ZM235.584,0V-.657h-2.628V-.675l.468-.432c1.233-1.188,2.016-2.061,2.016-3.141a1.646,1.646,0,0,0-1.791-1.7,2.567,2.567,0,0,0-1.656.594l.252.558a1.992,1.992,0,0,1,1.242-.495,1.044,1.044,0,0,1,1.161,1.143c-.009.882-.684,1.638-2.178,3.06l-.621.6V0ZM240.2,0V-.657h-2.628V-.675l.468-.432c1.233-1.188,2.016-2.061,2.016-3.141a1.646,1.646,0,0,0-1.791-1.7,2.567,2.567,0,0,0-1.656.594l.252.558a1.992,1.992,0,0,1,1.242-.495,1.044,1.044,0,0,1,1.161,1.143c-.009.882-.684,1.638-2.178,3.06l-.621.6V0Zm2.16-5.949c-.774,0-1.413.657-1.413,1.827s.639,1.764,1.368,1.764c.756,0,1.4-.612,1.4-1.845C243.72-5.319,243.18-5.949,242.361-5.949Zm-.027.477c.549,0,.756.594.756,1.3,0,.774-.234,1.332-.756,1.332-.5,0-.774-.567-.756-1.314C241.578-4.887,241.839-5.472,242.334-5.472ZM242.766.1,246.2-5.949h-.5L242.262.1Zm3.411-3.627c-.774,0-1.413.657-1.413,1.836S245.4.063,246.132.063c.747,0,1.4-.612,1.4-1.845C247.527-2.9,247-3.528,246.177-3.528Zm-.027.477c.549,0,.756.594.756,1.305,0,.774-.234,1.332-.756,1.332-.486,0-.774-.567-.765-1.314S245.655-3.051,246.15-3.051Z" transform="translate(53.994 7.789)" fill="#161615"/>
        </g>
      </g>
      <path id="Trazado_704937" data-name="Trazado 704937" d="M2.124,0h.765V-5.85H2.214L.936-5.166l.153.6,1.017-.549h.018ZM6.975-5.949c-1.188,0-2.034,1.08-2.034,3.042C4.959-.972,5.733.1,6.876.1,8.172.1,8.91-1,8.91-2.988,8.91-4.851,8.208-5.949,6.975-5.949Zm-.045.612c.819,0,1.188.945,1.188,2.385,0,1.494-.387,2.439-1.2,2.439-.72,0-1.188-.864-1.188-2.385C5.733-4.491,6.237-5.337,6.93-5.337Zm4.662-.612c-1.188,0-2.034,1.08-2.034,3.042C9.576-.972,10.35.1,11.493.1c1.3,0,2.034-1.1,2.034-3.087C13.527-4.851,12.825-5.949,11.592-5.949Zm-.045.612c.819,0,1.188.945,1.188,2.385,0,1.494-.387,2.439-1.2,2.439-.72,0-1.188-.864-1.188-2.385C10.35-4.491,10.854-5.337,11.547-5.337Zm3.987-.612c-.774,0-1.413.657-1.413,1.827s.639,1.764,1.368,1.764c.756,0,1.4-.612,1.4-1.845C16.893-5.319,16.353-5.949,15.534-5.949Zm-.027.477c.549,0,.756.594.756,1.3,0,.774-.234,1.332-.756,1.332-.495,0-.774-.567-.756-1.314C14.751-4.887,15.012-5.472,15.507-5.472ZM15.939.1l3.438-6.048h-.5L15.435.1ZM19.35-3.528c-.774,0-1.413.657-1.413,1.836S18.576.063,19.3.063c.747,0,1.4-.612,1.4-1.845C20.7-2.9,20.169-3.528,19.35-3.528Zm-.027.477c.549,0,.756.594.756,1.305,0,.774-.234,1.332-.756,1.332-.486,0-.774-.567-.765-1.314S18.828-3.051,19.323-3.051Z" transform="translate(4.553 19.408)" fill="#161615"/>
      <path id="Trazado_704938" data-name="Trazado 704938" d="M.864.09A3.689,3.689,0,0,0,1.593.045a2.925,2.925,0,0,0,1.7-.783A3.7,3.7,0,0,0,4.3-3.483c0-1.494-.738-2.466-1.935-2.466a2.006,2.006,0,0,0-2,2.079A1.7,1.7,0,0,0,2.1-2.079a1.717,1.717,0,0,0,1.377-.63H3.5a2.567,2.567,0,0,1-.774,1.557A2.207,2.207,0,0,1,1.5-.585a3.3,3.3,0,0,1-.639.027ZM2.3-5.346c.828,0,1.2.765,1.2,1.764a.523.523,0,0,1-.072.288,1.309,1.309,0,0,1-1.152.612A1.125,1.125,0,0,1,1.152-3.924C1.152-4.752,1.629-5.346,2.3-5.346Zm4.671-.6c-1.188,0-2.034,1.08-2.034,3.042C4.959-.972,5.733.1,6.876.1,8.172.1,8.91-1,8.91-2.988,8.91-4.851,8.208-5.949,6.975-5.949Zm-.045.612c.819,0,1.188.945,1.188,2.385,0,1.494-.387,2.439-1.2,2.439-.72,0-1.188-.864-1.188-2.385C5.733-4.491,6.237-5.337,6.93-5.337Zm3.987-.612c-.774,0-1.413.657-1.413,1.827s.639,1.764,1.368,1.764c.756,0,1.4-.612,1.4-1.845C12.276-5.319,11.736-5.949,10.917-5.949Zm-.027.477c.549,0,.756.594.756,1.3,0,.774-.234,1.332-.756,1.332-.495,0-.774-.567-.756-1.314C10.134-4.887,10.395-5.472,10.89-5.472ZM11.322.1,14.76-5.949h-.5L10.818.1Zm3.411-3.627c-.774,0-1.413.657-1.413,1.836S13.959.063,14.688.063c.747,0,1.4-.612,1.4-1.845C16.083-2.9,15.552-3.528,14.733-3.528Zm-.027.477c.549,0,.756.594.756,1.305,0,.774-.234,1.332-.756,1.332-.486,0-.774-.567-.765-1.314S14.211-3.051,14.706-3.051Z" transform="translate(9.203 37.534)" fill="#161615"/>
      <path id="Trazado_704939" data-name="Trazado 704939" d="M2.3.1A1.8,1.8,0,0,0,4.284-1.6,1.622,1.622,0,0,0,3.105-3.114v-.027a1.486,1.486,0,0,0,.963-1.368,1.511,1.511,0,0,0-1.7-1.44A1.639,1.639,0,0,0,.558-4.392a1.449,1.449,0,0,0,.927,1.314l.009.027A1.671,1.671,0,0,0,.333-1.485C.333-.63,1.071.1,2.3.1Zm.018-.576a1.082,1.082,0,0,1-1.17-1.116A1.271,1.271,0,0,1,2.2-2.8c.792.225,1.287.567,1.287,1.278A1.059,1.059,0,0,1,2.313-.477Zm.009-4.905a.909.909,0,0,1,.99.954,1.153,1.153,0,0,1-.891,1.062c-.675-.18-1.116-.495-1.116-1.08A.93.93,0,0,1,2.322-5.382Zm4.653-.567c-1.188,0-2.034,1.08-2.034,3.042C4.959-.972,5.733.1,6.876.1,8.172.1,8.91-1,8.91-2.988,8.91-4.851,8.208-5.949,6.975-5.949Zm-.045.612c.819,0,1.188.945,1.188,2.385,0,1.494-.387,2.439-1.2,2.439-.72,0-1.188-.864-1.188-2.385C5.733-4.491,6.237-5.337,6.93-5.337Zm3.987-.612c-.774,0-1.413.657-1.413,1.827s.639,1.764,1.368,1.764c.756,0,1.4-.612,1.4-1.845C12.276-5.319,11.736-5.949,10.917-5.949Zm-.027.477c.549,0,.756.594.756,1.3,0,.774-.234,1.332-.756,1.332-.495,0-.774-.567-.756-1.314C10.134-4.887,10.395-5.472,10.89-5.472ZM11.322.1,14.76-5.949h-.5L10.818.1Zm3.411-3.627c-.774,0-1.413.657-1.413,1.836S13.959.063,14.688.063c.747,0,1.4-.612,1.4-1.845C16.083-2.9,15.552-3.528,14.733-3.528Zm-.027.477c.549,0,.756.594.756,1.305,0,.774-.234,1.332-.756,1.332-.486,0-.774-.567-.765-1.314S14.211-3.051,14.706-3.051Z" transform="translate(9.203 55.661)" fill="#161615"/>
      <path id="Trazado_704940" data-name="Trazado 704940" d="M.513-5.85v.657H3.375v.018L.837,0h.819L4.2-5.328V-5.85Zm6.462-.1c-1.188,0-2.034,1.08-2.034,3.042C4.959-.972,5.733.1,6.876.1,8.172.1,8.91-1,8.91-2.988,8.91-4.851,8.208-5.949,6.975-5.949Zm-.045.612c.819,0,1.188.945,1.188,2.385,0,1.494-.387,2.439-1.2,2.439-.72,0-1.188-.864-1.188-2.385C5.733-4.491,6.237-5.337,6.93-5.337Zm3.987-.612c-.774,0-1.413.657-1.413,1.827s.639,1.764,1.368,1.764c.756,0,1.4-.612,1.4-1.845C12.276-5.319,11.736-5.949,10.917-5.949Zm-.027.477c.549,0,.756.594.756,1.3,0,.774-.234,1.332-.756,1.332-.495,0-.774-.567-.756-1.314C10.134-4.887,10.395-5.472,10.89-5.472ZM11.322.1,14.76-5.949h-.5L10.818.1Zm3.411-3.627c-.774,0-1.413.657-1.413,1.836S13.959.063,14.688.063c.747,0,1.4-.612,1.4-1.845C16.083-2.9,15.552-3.528,14.733-3.528Zm-.027.477c.549,0,.756.594.756,1.305,0,.774-.234,1.332-.756,1.332-.486,0-.774-.567-.765-1.314S14.211-3.051,14.706-3.051Z" transform="translate(9.203 73.788)" fill="#161615"/>
      <path id="Trazado_704941" data-name="Trazado 704941" d="M3.744-5.94a3.8,3.8,0,0,0-.576.045A3.185,3.185,0,0,0,1.3-5.031a3.678,3.678,0,0,0-.99,2.637C.306-.873,1.125.1,2.376.1A1.956,1.956,0,0,0,4.32-1.962a1.737,1.737,0,0,0-1.764-1.89,1.743,1.743,0,0,0-1.413.675H1.116A2.378,2.378,0,0,1,3.15-5.256a2.86,2.86,0,0,1,.594-.036ZM2.376-.513c-.828,0-1.269-.711-1.287-1.674a.674.674,0,0,1,.09-.351,1.3,1.3,0,0,1,1.134-.72A1.189,1.189,0,0,1,3.519-1.917C3.519-1.08,3.06-.513,2.376-.513Zm4.6-5.436c-1.188,0-2.034,1.08-2.034,3.042C4.959-.972,5.733.1,6.876.1,8.172.1,8.91-1,8.91-2.988,8.91-4.851,8.208-5.949,6.975-5.949Zm-.045.612c.819,0,1.188.945,1.188,2.385,0,1.494-.387,2.439-1.2,2.439-.72,0-1.188-.864-1.188-2.385C5.733-4.491,6.237-5.337,6.93-5.337Zm3.987-.612c-.774,0-1.413.657-1.413,1.827s.639,1.764,1.368,1.764c.756,0,1.4-.612,1.4-1.845C12.276-5.319,11.736-5.949,10.917-5.949Zm-.027.477c.549,0,.756.594.756,1.3,0,.774-.234,1.332-.756,1.332-.495,0-.774-.567-.756-1.314C10.134-4.887,10.395-5.472,10.89-5.472ZM11.322.1,14.76-5.949h-.5L10.818.1Zm3.411-3.627c-.774,0-1.413.657-1.413,1.836S13.959.063,14.688.063c.747,0,1.4-.612,1.4-1.845C16.083-2.9,15.552-3.528,14.733-3.528Zm-.027.477c.549,0,.756.594.756,1.305,0,.774-.234,1.332-.756,1.332-.486,0-.774-.567-.765-1.314S14.211-3.051,14.706-3.051Z" transform="translate(9.203 91.914)" fill="#161615"/>
      <path id="Trazado_704942" data-name="Trazado 704942" d="M3.9-5.85H1.1L.72-3.042a6.052,6.052,0,0,1,.81-.063c1.17,0,1.674.54,1.683,1.3A1.291,1.291,0,0,1,1.827-.54,2.62,2.62,0,0,1,.576-.864l-.2.6A2.864,2.864,0,0,0,1.836.1a2.03,2.03,0,0,0,2.178-2,1.667,1.667,0,0,0-.837-1.5,2.473,2.473,0,0,0-1.26-.315,3.128,3.128,0,0,0-.477.036l.225-1.5H3.9Zm3.078-.1c-1.188,0-2.034,1.08-2.034,3.042C4.959-.972,5.733.1,6.876.1,8.172.1,8.91-1,8.91-2.988,8.91-4.851,8.208-5.949,6.975-5.949Zm-.045.612c.819,0,1.188.945,1.188,2.385,0,1.494-.387,2.439-1.2,2.439-.72,0-1.188-.864-1.188-2.385C5.733-4.491,6.237-5.337,6.93-5.337Zm3.987-.612c-.774,0-1.413.657-1.413,1.827s.639,1.764,1.368,1.764c.756,0,1.4-.612,1.4-1.845C12.276-5.319,11.736-5.949,10.917-5.949Zm-.027.477c.549,0,.756.594.756,1.3,0,.774-.234,1.332-.756,1.332-.495,0-.774-.567-.756-1.314C10.134-4.887,10.395-5.472,10.89-5.472ZM11.322.1,14.76-5.949h-.5L10.818.1Zm3.411-3.627c-.774,0-1.413.657-1.413,1.836S13.959.063,14.688.063c.747,0,1.4-.612,1.4-1.845C16.083-2.9,15.552-3.528,14.733-3.528Zm-.027.477c.549,0,.756.594.756,1.305,0,.774-.234,1.332-.756,1.332-.486,0-.774-.567-.765-1.314S14.211-3.051,14.706-3.051Z" transform="translate(9.203 110.041)" fill="#161615"/>
      <path id="Trazado_704943" data-name="Trazado 704943" d="M3.6,0V-1.593h.819v-.621H3.6V-5.85H2.745L.135-2.115v.522H2.853V0ZM.936-2.214v-.018L2.367-4.221c.162-.27.306-.522.486-.864H2.88q-.027.459-.027.918v1.953ZM6.975-5.949c-1.188,0-2.034,1.08-2.034,3.042C4.959-.972,5.733.1,6.876.1,8.172.1,8.91-1,8.91-2.988,8.91-4.851,8.208-5.949,6.975-5.949Zm-.045.612c.819,0,1.188.945,1.188,2.385,0,1.494-.387,2.439-1.2,2.439-.72,0-1.188-.864-1.188-2.385C5.733-4.491,6.237-5.337,6.93-5.337Zm3.987-.612c-.774,0-1.413.657-1.413,1.827s.639,1.764,1.368,1.764c.756,0,1.4-.612,1.4-1.845C12.276-5.319,11.736-5.949,10.917-5.949Zm-.027.477c.549,0,.756.594.756,1.3,0,.774-.234,1.332-.756,1.332-.495,0-.774-.567-.756-1.314C10.134-4.887,10.395-5.472,10.89-5.472ZM11.322.1,14.76-5.949h-.5L10.818.1Zm3.411-3.627c-.774,0-1.413.657-1.413,1.836S13.959.063,14.688.063c.747,0,1.4-.612,1.4-1.845C16.083-2.9,15.552-3.528,14.733-3.528Zm-.027.477c.549,0,.756.594.756,1.305,0,.774-.234,1.332-.756,1.332-.486,0-.774-.567-.765-1.314S14.211-3.051,14.706-3.051Z" transform="translate(9.203 128.168)" fill="#161615"/>
      <path id="Trazado_704944" data-name="Trazado 704944" d="M.378-.3A2.974,2.974,0,0,0,1.9.1C3.3.1,4.032-.72,4.032-1.656a1.524,1.524,0,0,0-1.305-1.5v-.018a1.453,1.453,0,0,0,1.08-1.377c0-.711-.522-1.395-1.674-1.395A2.781,2.781,0,0,0,.6-5.5l.207.576A2.149,2.149,0,0,1,1.98-5.31c.729,0,1.026.414,1.026.882,0,.693-.729.99-1.305.99H1.26v.594H1.7c.765,0,1.5.351,1.512,1.17C3.222-1.188,2.907-.54,1.89-.54a2.647,2.647,0,0,1-1.3-.369Zm6.6-5.652c-1.188,0-2.034,1.08-2.034,3.042C4.959-.972,5.733.1,6.876.1,8.172.1,8.91-1,8.91-2.988,8.91-4.851,8.208-5.949,6.975-5.949Zm-.045.612c.819,0,1.188.945,1.188,2.385,0,1.494-.387,2.439-1.2,2.439-.72,0-1.188-.864-1.188-2.385C5.733-4.491,6.237-5.337,6.93-5.337Zm3.987-.612c-.774,0-1.413.657-1.413,1.827s.639,1.764,1.368,1.764c.756,0,1.4-.612,1.4-1.845C12.276-5.319,11.736-5.949,10.917-5.949Zm-.027.477c.549,0,.756.594.756,1.3,0,.774-.234,1.332-.756,1.332-.495,0-.774-.567-.756-1.314C10.134-4.887,10.395-5.472,10.89-5.472ZM11.322.1,14.76-5.949h-.5L10.818.1Zm3.411-3.627c-.774,0-1.413.657-1.413,1.836S13.959.063,14.688.063c.747,0,1.4-.612,1.4-1.845C16.083-2.9,15.552-3.528,14.733-3.528Zm-.027.477c.549,0,.756.594.756,1.305,0,.774-.234,1.332-.756,1.332-.486,0-.774-.567-.765-1.314S14.211-3.051,14.706-3.051Z" transform="translate(9.203 146.295)" fill="#161615"/>
      <path id="Trazado_704945" data-name="Trazado 704945" d="M4.14,0V-.657H1.512V-.675l.468-.432C3.213-2.3,4-3.168,4-4.248A1.646,1.646,0,0,0,2.2-5.949a2.567,2.567,0,0,0-1.656.594L.8-4.8a1.992,1.992,0,0,1,1.242-.495A1.044,1.044,0,0,1,3.2-4.149c-.009.882-.684,1.638-2.178,3.06l-.621.6V0ZM6.975-5.949c-1.188,0-2.034,1.08-2.034,3.042C4.959-.972,5.733.1,6.876.1,8.172.1,8.91-1,8.91-2.988,8.91-4.851,8.208-5.949,6.975-5.949Zm-.045.612c.819,0,1.188.945,1.188,2.385,0,1.494-.387,2.439-1.2,2.439-.72,0-1.188-.864-1.188-2.385C5.733-4.491,6.237-5.337,6.93-5.337Zm3.987-.612c-.774,0-1.413.657-1.413,1.827s.639,1.764,1.368,1.764c.756,0,1.4-.612,1.4-1.845C12.276-5.319,11.736-5.949,10.917-5.949Zm-.027.477c.549,0,.756.594.756,1.3,0,.774-.234,1.332-.756,1.332-.495,0-.774-.567-.756-1.314C10.134-4.887,10.395-5.472,10.89-5.472ZM11.322.1,14.76-5.949h-.5L10.818.1Zm3.411-3.627c-.774,0-1.413.657-1.413,1.836S13.959.063,14.688.063c.747,0,1.4-.612,1.4-1.845C16.083-2.9,15.552-3.528,14.733-3.528Zm-.027.477c.549,0,.756.594.756,1.305,0,.774-.234,1.332-.756,1.332-.486,0-.774-.567-.765-1.314S14.211-3.051,14.706-3.051Z" transform="translate(9.203 164.422)" fill="#161615"/>
      <path id="Trazado_704946" data-name="Trazado 704946" d="M2.124,0h.765V-5.85H2.214L.936-5.166l.153.6,1.017-.549h.018ZM6.975-5.949c-1.188,0-2.034,1.08-2.034,3.042C4.959-.972,5.733.1,6.876.1,8.172.1,8.91-1,8.91-2.988,8.91-4.851,8.208-5.949,6.975-5.949Zm-.045.612c.819,0,1.188.945,1.188,2.385,0,1.494-.387,2.439-1.2,2.439-.72,0-1.188-.864-1.188-2.385C5.733-4.491,6.237-5.337,6.93-5.337Zm3.987-.612c-.774,0-1.413.657-1.413,1.827s.639,1.764,1.368,1.764c.756,0,1.4-.612,1.4-1.845C12.276-5.319,11.736-5.949,10.917-5.949Zm-.027.477c.549,0,.756.594.756,1.3,0,.774-.234,1.332-.756,1.332-.495,0-.774-.567-.756-1.314C10.134-4.887,10.395-5.472,10.89-5.472ZM11.322.1,14.76-5.949h-.5L10.818.1Zm3.411-3.627c-.774,0-1.413.657-1.413,1.836S13.959.063,14.688.063c.747,0,1.4-.612,1.4-1.845C16.083-2.9,15.552-3.528,14.733-3.528Zm-.027.477c.549,0,.756.594.756,1.305,0,.774-.234,1.332-.756,1.332-.486,0-.774-.567-.765-1.314S14.211-3.051,14.706-3.051Z" transform="translate(9.203 182.548)" fill="#161615"/>
      <path id="Trazado_704947" data-name="Trazado 704947" d="M2.358-5.949C1.17-5.949.324-4.869.324-2.907.342-.972,1.116.1,2.259.1,3.555.1,4.293-1,4.293-2.988,4.293-4.851,3.591-5.949,2.358-5.949Zm-.045.612c.819,0,1.188.945,1.188,2.385,0,1.494-.387,2.439-1.2,2.439-.72,0-1.188-.864-1.188-2.385C1.116-4.491,1.62-5.337,2.313-5.337ZM6.3-5.949c-.774,0-1.413.657-1.413,1.827s.639,1.764,1.368,1.764c.756,0,1.4-.612,1.4-1.845C7.659-5.319,7.119-5.949,6.3-5.949Zm-.027.477c.549,0,.756.594.756,1.3,0,.774-.234,1.332-.756,1.332-.495,0-.774-.567-.756-1.314C5.517-4.887,5.778-5.472,6.273-5.472ZM6.7.1l3.438-6.048h-.5L6.2.1Zm3.411-3.627c-.774,0-1.413.657-1.413,1.836S9.342.063,10.071.063c.747,0,1.4-.612,1.4-1.845C11.466-2.9,10.935-3.528,10.116-3.528Zm-.027.477c.549,0,.756.594.756,1.305,0,.774-.234,1.332-.756,1.332-.486,0-.774-.567-.765-1.314S9.594-3.051,10.089-3.051Z" transform="translate(13.852 200.675)" fill="#161615"/>
      <path id="Trazado_704948" data-name="Trazado 704948" d="M3.392-1.7,3.968,0h.744L2.872-5.392h-.84L.2,0H.92l.56-1.7ZM1.624-2.24,2.152-3.8c.1-.328.192-.656.272-.976H2.44c.08.312.16.632.28.984L3.248-2.24Z" transform="translate(333.535 47.546)" fill="#161615"/>
      <path id="Trazado_704949" data-name="Trazado 704949" d="M.684-.018A9.154,9.154,0,0,0,1.9.054,3.047,3.047,0,0,0,4-.513a1.635,1.635,0,0,0,.513-1.215A1.563,1.563,0,0,0,3.258-3.249v-.018A1.44,1.44,0,0,0,4.284-4.6a1.272,1.272,0,0,0-.5-1.071,2.507,2.507,0,0,0-1.665-.441,7.587,7.587,0,0,0-1.431.126Zm.783-5.436a3.359,3.359,0,0,1,.693-.054c.792,0,1.332.279,1.332.99,0,.585-.486,1.017-1.314,1.017H1.467Zm0,2.547h.648c.855,0,1.566.342,1.566,1.17,0,.882-.747,1.179-1.557,1.179a4.184,4.184,0,0,1-.657-.036Z" transform="translate(333.852 102.926)" fill="#161615"/>
      <path id="Trazado_704950" data-name="Trazado 704950" d="M4.761-.819a3.134,3.134,0,0,1-1.278.252A2.2,2.2,0,0,1,1.152-3.006a2.256,2.256,0,0,1,2.367-2.5,2.852,2.852,0,0,1,1.224.252L4.932-5.9a3.252,3.252,0,0,0-1.44-.27A3.019,3.019,0,0,0,.324-2.979a2.835,2.835,0,0,0,3,3.069A3.887,3.887,0,0,0,4.923-.2Z" transform="translate(333.68 157.306)" fill="#161615"/>
      <path id="Trazado_704951" data-name="Trazado 704951" d="M4.14,0V-.657H1.512V-.675l.468-.432C3.213-2.3,4-3.168,4-4.248A1.646,1.646,0,0,0,2.2-5.949a2.567,2.567,0,0,0-1.656.594L.8-4.8a1.992,1.992,0,0,1,1.242-.495A1.044,1.044,0,0,1,3.2-4.149c-.009.882-.684,1.638-2.178,3.06l-.621.6V0ZM6.975-5.949c-1.188,0-2.034,1.08-2.034,3.042C4.959-.972,5.733.1,6.876.1,8.172.1,8.91-1,8.91-2.988,8.91-4.851,8.208-5.949,6.975-5.949Zm-.045.612c.819,0,1.188.945,1.188,2.385,0,1.494-.387,2.439-1.2,2.439-.72,0-1.188-.864-1.188-2.385C5.733-4.491,6.237-5.337,6.93-5.337ZM11.358,0h.765V-5.85h-.675l-1.278.684.153.6,1.017-.549h.018Zm6.237-5.94a3.8,3.8,0,0,0-.576.045,3.185,3.185,0,0,0-1.872.864,3.678,3.678,0,0,0-.99,2.637c0,1.521.819,2.493,2.07,2.493a1.956,1.956,0,0,0,1.944-2.061,1.737,1.737,0,0,0-1.764-1.89,1.743,1.743,0,0,0-1.413.675h-.027A2.378,2.378,0,0,1,17-5.256a2.86,2.86,0,0,1,.594-.036ZM16.227-.513c-.828,0-1.269-.711-1.287-1.674a.674.674,0,0,1,.09-.351,1.3,1.3,0,0,1,1.134-.72A1.189,1.189,0,0,1,17.37-1.917C17.37-1.08,16.911-.513,16.227-.513ZM64.584,0V-.657H61.956V-.675l.468-.432C63.657-2.3,64.44-3.168,64.44-4.248a1.646,1.646,0,0,0-1.791-1.7,2.567,2.567,0,0,0-1.656.594l.252.558a1.992,1.992,0,0,1,1.242-.495,1.044,1.044,0,0,1,1.161,1.143c-.009.882-.684,1.638-2.178,3.06l-.621.6V0Zm2.835-5.949c-1.188,0-2.034,1.08-2.034,3.042C65.4-.972,66.177.1,67.32.1c1.3,0,2.034-1.1,2.034-3.087C69.354-4.851,68.652-5.949,67.419-5.949Zm-.045.612c.819,0,1.188.945,1.188,2.385,0,1.494-.387,2.439-1.2,2.439-.72,0-1.188-.864-1.188-2.385C66.177-4.491,66.681-5.337,67.374-5.337ZM71.8,0h.765V-5.85h-.675l-1.278.684.153.6,1.017-.549H71.8Zm3.006-5.85v.657H77.67v.018L75.132,0h.819L78.5-5.328V-5.85ZM128.844,0V-.657h-2.628V-.675l.468-.432C127.917-2.3,128.7-3.168,128.7-4.248a1.646,1.646,0,0,0-1.791-1.7,2.567,2.567,0,0,0-1.656.594l.252.558a1.992,1.992,0,0,1,1.242-.495,1.044,1.044,0,0,1,1.161,1.143c-.009.882-.684,1.638-2.178,3.06l-.621.6V0Zm2.835-5.949c-1.188,0-2.034,1.08-2.034,3.042C129.663-.972,130.437.1,131.58.1c1.3,0,2.034-1.1,2.034-3.087C133.614-4.851,132.912-5.949,131.679-5.949Zm-.045.612c.819,0,1.188.945,1.188,2.385,0,1.494-.387,2.439-1.2,2.439-.72,0-1.188-.864-1.188-2.385C130.437-4.491,130.941-5.337,131.634-5.337ZM136.062,0h.765V-5.85h-.675l-1.278.684.153.6,1.017-.549h.018Zm4.788.1a1.8,1.8,0,0,0,1.989-1.7,1.622,1.622,0,0,0-1.179-1.512v-.027a1.486,1.486,0,0,0,.963-1.368,1.511,1.511,0,0,0-1.7-1.44,1.639,1.639,0,0,0-1.809,1.557,1.449,1.449,0,0,0,.927,1.314l.009.027a1.671,1.671,0,0,0-1.161,1.566C138.888-.63,139.626.1,140.85.1Zm.018-.576a1.082,1.082,0,0,1-1.17-1.116A1.271,1.271,0,0,1,140.751-2.8c.792.225,1.287.567,1.287,1.278A1.059,1.059,0,0,1,140.868-.477Zm.009-4.905a.909.909,0,0,1,.99.954,1.153,1.153,0,0,1-.891,1.062c-.675-.18-1.116-.495-1.116-1.08A.93.93,0,0,1,140.877-5.382ZM191.2,0V-.657h-2.628V-.675l.468-.432c1.233-1.188,2.016-2.061,2.016-3.141a1.646,1.646,0,0,0-1.791-1.7,2.567,2.567,0,0,0-1.656.594l.252.558a1.992,1.992,0,0,1,1.242-.495,1.044,1.044,0,0,1,1.161,1.143c-.009.882-.684,1.638-2.178,3.06l-.621.6V0Zm2.835-5.949c-1.188,0-2.034,1.08-2.034,3.042C192.015-.972,192.789.1,193.932.1c1.3,0,2.034-1.1,2.034-3.087C195.966-4.851,195.264-5.949,194.031-5.949Zm-.045.612c.819,0,1.188.945,1.188,2.385,0,1.494-.387,2.439-1.2,2.439-.72,0-1.188-.864-1.188-2.385C192.789-4.491,193.293-5.337,193.986-5.337ZM198.414,0h.765V-5.85H198.5l-1.278.684.153.6,1.017-.549h.018Zm3.357.09A3.689,3.689,0,0,0,202.5.045a2.925,2.925,0,0,0,1.7-.783,3.7,3.7,0,0,0,1.008-2.745c0-1.494-.738-2.466-1.935-2.466a2.006,2.006,0,0,0-2,2.079A1.7,1.7,0,0,0,203-2.079a1.717,1.717,0,0,0,1.377-.63h.027a2.567,2.567,0,0,1-.774,1.557,2.207,2.207,0,0,1-1.224.567,3.3,3.3,0,0,1-.639.027Zm1.44-5.436c.828,0,1.2.765,1.2,1.764a.523.523,0,0,1-.072.288,1.309,1.309,0,0,1-1.152.612,1.125,1.125,0,0,1-1.125-1.242C202.059-4.752,202.536-5.346,203.211-5.346ZM244.008,0V-.657H241.38V-.675l.468-.432c1.233-1.188,2.016-2.061,2.016-3.141a1.646,1.646,0,0,0-1.791-1.7,2.567,2.567,0,0,0-1.656.594l.252.558a1.992,1.992,0,0,1,1.242-.495,1.044,1.044,0,0,1,1.161,1.143c-.009.882-.684,1.638-2.178,3.06l-.621.6V0Zm2.835-5.949c-1.188,0-2.034,1.08-2.034,3.042C244.827-.972,245.6.1,246.744.1c1.3,0,2.034-1.1,2.034-3.087C248.778-4.851,248.076-5.949,246.843-5.949Zm-.045.612c.819,0,1.188.945,1.188,2.385,0,1.494-.387,2.439-1.2,2.439-.72,0-1.188-.864-1.188-2.385C245.6-4.491,246.105-5.337,246.8-5.337ZM253.242,0V-.657h-2.628V-.675l.468-.432C252.315-2.3,253.1-3.168,253.1-4.248a1.646,1.646,0,0,0-1.791-1.7,2.567,2.567,0,0,0-1.656.594l.252.558a1.992,1.992,0,0,1,1.242-.495,1.044,1.044,0,0,1,1.161,1.143c-.009.882-.684,1.638-2.178,3.06l-.621.6V0Zm2.835-5.949c-1.188,0-2.034,1.08-2.034,3.042C254.061-.972,254.835.1,255.978.1c1.3,0,2.034-1.1,2.034-3.087C258.012-4.851,257.31-5.949,256.077-5.949Zm-.045.612c.819,0,1.188.945,1.188,2.385,0,1.494-.387,2.439-1.2,2.439-.72,0-1.188-.864-1.188-2.385C254.835-4.491,255.339-5.337,256.032-5.337Z" transform="translate(43.118 210.191)" fill="#161615"/>
      <path id="Trazado_704952" data-name="Trazado 704952" d="M6.521-3.746H7.649v1.593H6.521V0H4.546V-2.153H.465L.376-3.4,4.525-9.953h2Zm-4.177,0h2.2V-7.26l-.13.226ZM9-4.895l.574-5.059h5.578v1.647H11.2l-.246,2.14a3.132,3.132,0,0,1,1.5-.376,2.869,2.869,0,0,1,2.229.882,3.522,3.522,0,0,1,.807,2.468,3.609,3.609,0,0,1-.407,1.726A2.871,2.871,0,0,1,13.911-.284a3.639,3.639,0,0,1-1.791.42,3.864,3.864,0,0,1-1.675-.366,2.971,2.971,0,0,1-1.22-1.029A2.8,2.8,0,0,1,8.75-2.769h1.955a1.46,1.46,0,0,0,.434.967,1.376,1.376,0,0,0,.974.345,1.215,1.215,0,0,0,1.032-.482A2.233,2.233,0,0,0,13.508-3.3a1.846,1.846,0,0,0-.417-1.3,1.53,1.53,0,0,0-1.183-.451,1.71,1.71,0,0,0-1.142.369l-.191.178ZM16.926-.971a1,1,0,0,1,.318-.766,1.128,1.128,0,0,1,.8-.294,1.137,1.137,0,0,1,.8.294,1,1,0,0,1,.318.766.981.981,0,0,1-.314.755,1.142,1.142,0,0,1-.807.291,1.133,1.133,0,0,1-.8-.291A.981.981,0,0,1,16.926-.971ZM25.607,0H23.632V-7.615l-2.358.731V-8.49L25.4-9.967h.212Z" transform="translate(49.012 59.773)" fill="#161615"/>
      <path id="Trazado_704953" data-name="Trazado 704953" d="M7.5,0H.677V-1.354L3.9-4.785A7.943,7.943,0,0,0,4.877-6.05,2.032,2.032,0,0,0,5.2-7.075,1.52,1.52,0,0,0,4.86-8.118,1.209,1.209,0,0,0,3.9-8.5a1.3,1.3,0,0,0-1.056.461,1.828,1.828,0,0,0-.386,1.213H.479A3.263,3.263,0,0,1,.913-8.483,3.059,3.059,0,0,1,2.14-9.663a3.73,3.73,0,0,1,1.8-.427,3.531,3.531,0,0,1,2.389.738,2.612,2.612,0,0,1,.851,2.085,3.347,3.347,0,0,1-.383,1.5A8.357,8.357,0,0,1,5.482-3.979L3.22-1.593H7.5Zm6.009,0H11.532V-7.615l-2.358.731V-8.49L13.3-9.967h.212Zm3.418-.971a1,1,0,0,1,.318-.766,1.128,1.128,0,0,1,.8-.294,1.137,1.137,0,0,1,.8.294,1,1,0,0,1,.318.766.981.981,0,0,1-.314.755,1.142,1.142,0,0,1-.807.291,1.133,1.133,0,0,1-.8-.291A.981.981,0,0,1,16.926-.971Zm9.242-9.085v1.627h-.191a3.356,3.356,0,0,0-2.157.7,2.833,2.833,0,0,0-.981,1.88,2.691,2.691,0,0,1,2-.807,2.535,2.535,0,0,1,2.064.93,3.727,3.727,0,0,1,.766,2.447,3.666,3.666,0,0,1-.42,1.757A3.015,3.015,0,0,1,26.062-.3a3.456,3.456,0,0,1-1.74.438,3.227,3.227,0,0,1-2.54-1.094,4.246,4.246,0,0,1-.967-2.919v-.711a6.389,6.389,0,0,1,.612-2.861,4.486,4.486,0,0,1,1.757-1.921,5.148,5.148,0,0,1,2.656-.687ZM24.24-5.065a1.578,1.578,0,0,0-.868.249,1.5,1.5,0,0,0-.574.658v.6a2.66,2.66,0,0,0,.39,1.545,1.259,1.259,0,0,0,1.094.556,1.245,1.245,0,0,0,1.029-.5,2.045,2.045,0,0,0,.393-1.3,2.041,2.041,0,0,0-.4-1.31A1.292,1.292,0,0,0,24.24-5.065Z" transform="translate(48.012 122.854)" fill="#fff"/>
      <path id="Trazado_704954" data-name="Trazado 704954" d="M2.687-5.852H3.739a1.483,1.483,0,0,0,1.114-.376,1.378,1.378,0,0,0,.362-1,1.218,1.218,0,0,0-.359-.937A1.391,1.391,0,0,0,3.869-8.5a1.458,1.458,0,0,0-.95.311,1,1,0,0,0-.383.81H.561a2.43,2.43,0,0,1,.42-1.4,2.8,2.8,0,0,1,1.176-.967,3.924,3.924,0,0,1,1.665-.349A3.722,3.722,0,0,1,6.3-9.334a2.577,2.577,0,0,1,.9,2.082A2.094,2.094,0,0,1,6.774-6a2.709,2.709,0,0,1-1.094.882,2.473,2.473,0,0,1,1.254.9,2.448,2.448,0,0,1,.414,1.422A2.62,2.62,0,0,1,6.381-.663a3.889,3.889,0,0,1-2.56.8A3.688,3.688,0,0,1,1.384-.649,2.567,2.567,0,0,1,.438-2.728H2.413a1.145,1.145,0,0,0,.42.916,1.549,1.549,0,0,0,1.036.355,1.556,1.556,0,0,0,1.1-.373,1.286,1.286,0,0,0,.4-.988q0-1.49-1.641-1.49H2.687Zm8.032,0h1.053a1.483,1.483,0,0,0,1.114-.376,1.378,1.378,0,0,0,.362-1,1.218,1.218,0,0,0-.359-.937A1.391,1.391,0,0,0,11.9-8.5a1.458,1.458,0,0,0-.95.311,1,1,0,0,0-.383.81H8.593a2.43,2.43,0,0,1,.42-1.4,2.8,2.8,0,0,1,1.176-.967,3.924,3.924,0,0,1,1.665-.349,3.722,3.722,0,0,1,2.475.755,2.577,2.577,0,0,1,.9,2.082A2.094,2.094,0,0,1,14.807-6a2.709,2.709,0,0,1-1.094.882,2.473,2.473,0,0,1,1.254.9,2.448,2.448,0,0,1,.414,1.422,2.62,2.62,0,0,1-.967,2.126,3.889,3.889,0,0,1-2.56.8A3.688,3.688,0,0,1,9.417-.649,2.567,2.567,0,0,1,8.47-2.728h1.976a1.145,1.145,0,0,0,.42.916,1.549,1.549,0,0,0,1.036.355,1.556,1.556,0,0,0,1.1-.373,1.286,1.286,0,0,0,.4-.988q0-1.49-1.641-1.49H10.719ZM16.926-.971a1,1,0,0,1,.318-.766,1.128,1.128,0,0,1,.8-.294,1.137,1.137,0,0,1,.8.294,1,1,0,0,1,.318.766.981.981,0,0,1-.314.755,1.142,1.142,0,0,1-.807.291,1.133,1.133,0,0,1-.8-.291A.981.981,0,0,1,16.926-.971ZM25.607,0H23.632V-7.615l-2.358.731V-8.49L25.4-9.967h.212Z" transform="translate(49.012 169.748)" fill="#161615"/>
      <path id="Trazado_704955" data-name="Trazado 704955" d="M7.5,0H.677V-1.354L3.9-4.785A7.943,7.943,0,0,0,4.877-6.05,2.032,2.032,0,0,0,5.2-7.075,1.52,1.52,0,0,0,4.86-8.118,1.209,1.209,0,0,0,3.9-8.5a1.3,1.3,0,0,0-1.056.461,1.828,1.828,0,0,0-.386,1.213H.479A3.263,3.263,0,0,1,.913-8.483,3.059,3.059,0,0,1,2.14-9.663a3.73,3.73,0,0,1,1.8-.427,3.531,3.531,0,0,1,2.389.738,2.612,2.612,0,0,1,.851,2.085,3.347,3.347,0,0,1-.383,1.5A8.357,8.357,0,0,1,5.482-3.979L3.22-1.593H7.5Zm7.055-3.746h1.128v1.593H14.554V0H12.578V-2.153H8.5L8.408-3.4l4.149-6.556h2Zm-4.177,0h2.2V-7.26l-.13.226ZM16.926-.971a1,1,0,0,1,.318-.766,1.128,1.128,0,0,1,.8-.294,1.137,1.137,0,0,1,.8.294,1,1,0,0,1,.318.766.981.981,0,0,1-.314.755,1.142,1.142,0,0,1-.807.291,1.133,1.133,0,0,1-.8-.291A.981.981,0,0,1,16.926-.971ZM25.607,0H23.632V-7.615l-2.358.731V-8.49L25.4-9.967h.212Z" transform="translate(99.323 49.504)" fill="#161615"/>
      <path id="Trazado_704956" data-name="Trazado 704956" d="M7.5,0H.677V-1.354L3.9-4.785A7.943,7.943,0,0,0,4.877-6.05,2.032,2.032,0,0,0,5.2-7.075,1.52,1.52,0,0,0,4.86-8.118,1.209,1.209,0,0,0,3.9-8.5a1.3,1.3,0,0,0-1.056.461,1.828,1.828,0,0,0-.386,1.213H.479A3.263,3.263,0,0,1,.913-8.483,3.059,3.059,0,0,1,2.14-9.663a3.73,3.73,0,0,1,1.8-.427,3.531,3.531,0,0,1,2.389.738,2.612,2.612,0,0,1,.851,2.085,3.347,3.347,0,0,1-.383,1.5A8.357,8.357,0,0,1,5.482-3.979L3.22-1.593H7.5Zm6.569-10.056v1.627h-.191a3.356,3.356,0,0,0-2.157.7,2.833,2.833,0,0,0-.981,1.88,2.691,2.691,0,0,1,2-.807,2.535,2.535,0,0,1,2.064.93,3.727,3.727,0,0,1,.766,2.447,3.666,3.666,0,0,1-.42,1.757A3.015,3.015,0,0,1,13.962-.3a3.456,3.456,0,0,1-1.74.438A3.227,3.227,0,0,1,9.683-.957a4.246,4.246,0,0,1-.967-2.919v-.711a6.389,6.389,0,0,1,.612-2.861,4.486,4.486,0,0,1,1.757-1.921,5.148,5.148,0,0,1,2.656-.687Zm-1.928,4.99a1.578,1.578,0,0,0-.868.249,1.5,1.5,0,0,0-.574.658v.6a2.66,2.66,0,0,0,.39,1.545,1.259,1.259,0,0,0,1.094.556,1.245,1.245,0,0,0,1.029-.5,2.045,2.045,0,0,0,.393-1.3,2.041,2.041,0,0,0-.4-1.31A1.292,1.292,0,0,0,12.141-5.065ZM16.926-.971a1,1,0,0,1,.318-.766,1.128,1.128,0,0,1,.8-.294,1.137,1.137,0,0,1,.8.294,1,1,0,0,1,.318.766.981.981,0,0,1-.314.755,1.142,1.142,0,0,1-.807.291,1.133,1.133,0,0,1-.8-.291A.981.981,0,0,1,16.926-.971ZM27.3-7.308a2.315,2.315,0,0,1-.362,1.285,2.608,2.608,0,0,1-1,.9,2.886,2.886,0,0,1,1.148.96,2.464,2.464,0,0,1,.424,1.439,2.609,2.609,0,0,1-.9,2.1,3.66,3.66,0,0,1-2.454.769A3.677,3.677,0,0,1,21.69-.636a2.6,2.6,0,0,1-.909-2.092,2.48,2.48,0,0,1,.424-1.442,2.834,2.834,0,0,1,1.142-.957,2.581,2.581,0,0,1-.995-.9,2.331,2.331,0,0,1-.359-1.285,2.58,2.58,0,0,1,.848-2.027,3.337,3.337,0,0,1,2.3-.755,3.36,3.36,0,0,1,2.3.749A2.57,2.57,0,0,1,27.3-7.308ZM25.525-2.871a1.433,1.433,0,0,0-.376-1.039,1.341,1.341,0,0,0-1.012-.39,1.338,1.338,0,0,0-1,.386,1.431,1.431,0,0,0-.376,1.042,1.43,1.43,0,0,0,.369,1.025,1.345,1.345,0,0,0,1.025.39,1.341,1.341,0,0,0,1.008-.376A1.427,1.427,0,0,0,25.525-2.871ZM25.32-7.212a1.367,1.367,0,0,0-.308-.933,1.091,1.091,0,0,0-.868-.352,1.1,1.1,0,0,0-.861.342,1.359,1.359,0,0,0-.308.943,1.428,1.428,0,0,0,.308.957,1.076,1.076,0,0,0,.868.362,1.066,1.066,0,0,0,.865-.362A1.439,1.439,0,0,0,25.32-7.212Z" transform="translate(98.323 117.053)" fill="#fff"/>
      <path id="Trazado_704957" data-name="Trazado 704957" d="M7.5,0H.677V-1.354L3.9-4.785A7.943,7.943,0,0,0,4.877-6.05,2.032,2.032,0,0,0,5.2-7.075,1.52,1.52,0,0,0,4.86-8.118,1.209,1.209,0,0,0,3.9-8.5a1.3,1.3,0,0,0-1.056.461,1.828,1.828,0,0,0-.386,1.213H.479A3.263,3.263,0,0,1,.913-8.483,3.059,3.059,0,0,1,2.14-9.663a3.73,3.73,0,0,1,1.8-.427,3.531,3.531,0,0,1,2.389.738,2.612,2.612,0,0,1,.851,2.085,3.347,3.347,0,0,1-.383,1.5A8.357,8.357,0,0,1,5.482-3.979L3.22-1.593H7.5Zm7.909-4.115a5.042,5.042,0,0,1-.854,3.158,2.983,2.983,0,0,1-2.5,1.094A3,3,0,0,1,9.563-.937a4.895,4.895,0,0,1-.882-3.076V-5.845A4.976,4.976,0,0,1,9.546-9.01a3,3,0,0,1,2.492-1.08,3.008,3.008,0,0,1,2.488,1.07,4.879,4.879,0,0,1,.882,3.073ZM13.433-6.129a3.645,3.645,0,0,0-.338-1.8A1.144,1.144,0,0,0,12.038-8.5a1.123,1.123,0,0,0-1.029.537,3.411,3.411,0,0,0-.352,1.68v2.422a3.826,3.826,0,0,0,.332,1.81,1.128,1.128,0,0,0,1.063.592A1.109,1.109,0,0,0,13.1-2.024a3.734,3.734,0,0,0,.335-1.738Z" transform="translate(102.586 174.889)" fill="#161615"/>
      <path id="Trazado_704958" data-name="Trazado 704958" d="M6.521-3.746H7.649v1.593H6.521V0H4.546V-2.153H.465L.376-3.4,4.525-9.953h2Zm-4.177,0h2.2V-7.26l-.13.226Zm13.132-5.1L11.628,0H9.543L13.4-8.36H8.449V-9.953h7.027Zm1.449,7.88a1,1,0,0,1,.318-.766,1.128,1.128,0,0,1,.8-.294,1.137,1.137,0,0,1,.8.294,1,1,0,0,1,.318.766.981.981,0,0,1-.314.755,1.142,1.142,0,0,1-.807.291,1.133,1.133,0,0,1-.8-.291A.981.981,0,0,1,16.926-.971Zm8.5-3.008a2.5,2.5,0,0,1-1.8.759,2.668,2.668,0,0,1-2.112-.906,3.579,3.579,0,0,1-.793-2.444,3.813,3.813,0,0,1,.427-1.794A3.134,3.134,0,0,1,22.34-9.635a3.31,3.31,0,0,1,1.723-.455,3.165,3.165,0,0,1,1.75.492A3.236,3.236,0,0,1,27-8.183a5.081,5.081,0,0,1,.431,2.112v.731A5.757,5.757,0,0,1,26.2-1.429,4.678,4.678,0,0,1,22.688.089L22.2.1V-1.552l.438-.007Q25.218-1.675,25.43-3.979ZM24.11-4.73a1.382,1.382,0,0,0,.824-.246,1.644,1.644,0,0,0,.523-.595v-.813a2.716,2.716,0,0,0-.383-1.559A1.188,1.188,0,0,0,24.049-8.5a1.153,1.153,0,0,0-.978.543,2.311,2.311,0,0,0-.383,1.364,2.249,2.249,0,0,0,.373,1.336A1.214,1.214,0,0,0,24.11-4.73Z" transform="translate(153.349 57.779)" fill="#161615"/>
      <path id="Trazado_704959" data-name="Trazado 704959" d="M6.521-3.746H7.649v1.593H6.521V0H4.546V-2.153H.465L.376-3.4,4.525-9.953h2Zm-4.177,0h2.2V-7.26l-.13.226ZM15.531,0H8.709V-1.354l3.22-3.432A7.943,7.943,0,0,0,12.91-6.05a2.032,2.032,0,0,0,.318-1.025,1.52,1.52,0,0,0-.335-1.042,1.209,1.209,0,0,0-.957-.379,1.3,1.3,0,0,0-1.056.461,1.828,1.828,0,0,0-.386,1.213H8.511a3.263,3.263,0,0,1,.434-1.661,3.059,3.059,0,0,1,1.227-1.179,3.73,3.73,0,0,1,1.8-.427,3.531,3.531,0,0,1,2.389.738,2.612,2.612,0,0,1,.851,2.085,3.347,3.347,0,0,1-.383,1.5,8.357,8.357,0,0,1-1.312,1.784L11.252-1.593h4.279Zm1.395-.971a1,1,0,0,1,.318-.766,1.128,1.128,0,0,1,.8-.294,1.137,1.137,0,0,1,.8.294,1,1,0,0,1,.318.766.981.981,0,0,1-.314.755,1.142,1.142,0,0,1-.807.291,1.133,1.133,0,0,1-.8-.291A.981.981,0,0,1,16.926-.971Zm5.893-4.881h1.053a1.483,1.483,0,0,0,1.114-.376,1.378,1.378,0,0,0,.362-1,1.218,1.218,0,0,0-.359-.937A1.391,1.391,0,0,0,24-8.5a1.458,1.458,0,0,0-.95.311,1,1,0,0,0-.383.81H20.692a2.43,2.43,0,0,1,.42-1.4,2.8,2.8,0,0,1,1.176-.967,3.924,3.924,0,0,1,1.665-.349,3.722,3.722,0,0,1,2.475.755,2.577,2.577,0,0,1,.9,2.082A2.094,2.094,0,0,1,26.906-6a2.709,2.709,0,0,1-1.094.882,2.473,2.473,0,0,1,1.254.9,2.448,2.448,0,0,1,.414,1.422,2.62,2.62,0,0,1-.967,2.126,3.889,3.889,0,0,1-2.56.8,3.688,3.688,0,0,1-2.437-.786,2.567,2.567,0,0,1-.947-2.078h1.976a1.145,1.145,0,0,0,.42.916A1.549,1.549,0,0,0,24-1.456a1.556,1.556,0,0,0,1.1-.373,1.286,1.286,0,0,0,.4-.988q0-1.49-1.641-1.49H22.818Z" transform="translate(152.349 131.591)" fill="#fff"/>
      <path id="Trazado_704960" data-name="Trazado 704960" d="M7.5,0H.677V-1.354L3.9-4.785A7.943,7.943,0,0,0,4.877-6.05,2.032,2.032,0,0,0,5.2-7.075,1.52,1.52,0,0,0,4.86-8.118,1.209,1.209,0,0,0,3.9-8.5a1.3,1.3,0,0,0-1.056.461,1.828,1.828,0,0,0-.386,1.213H.479A3.263,3.263,0,0,1,.913-8.483,3.059,3.059,0,0,1,2.14-9.663a3.73,3.73,0,0,1,1.8-.427,3.531,3.531,0,0,1,2.389.738,2.612,2.612,0,0,1,.851,2.085,3.347,3.347,0,0,1-.383,1.5A8.357,8.357,0,0,1,5.482-3.979L3.22-1.593H7.5Zm3.22-5.852h1.053a1.483,1.483,0,0,0,1.114-.376,1.378,1.378,0,0,0,.362-1,1.218,1.218,0,0,0-.359-.937A1.391,1.391,0,0,0,11.9-8.5a1.458,1.458,0,0,0-.95.311,1,1,0,0,0-.383.81H8.593a2.43,2.43,0,0,1,.42-1.4,2.8,2.8,0,0,1,1.176-.967,3.924,3.924,0,0,1,1.665-.349,3.722,3.722,0,0,1,2.475.755,2.577,2.577,0,0,1,.9,2.082A2.094,2.094,0,0,1,14.807-6a2.709,2.709,0,0,1-1.094.882,2.473,2.473,0,0,1,1.254.9,2.448,2.448,0,0,1,.414,1.422,2.62,2.62,0,0,1-.967,2.126,3.889,3.889,0,0,1-2.56.8A3.688,3.688,0,0,1,9.417-.649,2.567,2.567,0,0,1,8.47-2.728h1.976a1.145,1.145,0,0,0,.42.916,1.549,1.549,0,0,0,1.036.355,1.556,1.556,0,0,0,1.1-.373,1.286,1.286,0,0,0,.4-.988q0-1.49-1.641-1.49H10.719ZM16.926-.971a1,1,0,0,1,.318-.766,1.128,1.128,0,0,1,.8-.294,1.137,1.137,0,0,1,.8.294,1,1,0,0,1,.318.766.981.981,0,0,1-.314.755,1.142,1.142,0,0,1-.807.291,1.133,1.133,0,0,1-.8-.291A.981.981,0,0,1,16.926-.971ZM27.631,0H20.809V-1.354l3.22-3.432a7.943,7.943,0,0,0,.981-1.265,2.032,2.032,0,0,0,.318-1.025,1.52,1.52,0,0,0-.335-1.042,1.209,1.209,0,0,0-.957-.379,1.3,1.3,0,0,0-1.056.461,1.828,1.828,0,0,0-.386,1.213H20.61a3.263,3.263,0,0,1,.434-1.661,3.059,3.059,0,0,1,1.227-1.179,3.73,3.73,0,0,1,1.8-.427,3.531,3.531,0,0,1,2.389.738,2.612,2.612,0,0,1,.851,2.085,3.347,3.347,0,0,1-.383,1.5,8.357,8.357,0,0,1-1.312,1.784L23.352-1.593h4.279Z" transform="translate(153.349 180.977)" fill="#161615"/>
      <path id="Trazado_704961" data-name="Trazado 704961" d="M6.521-3.746H7.649v1.593H6.521V0H4.546V-2.153H.465L.376-3.4,4.525-9.953h2Zm-4.177,0h2.2V-7.26l-.13.226ZM9-4.895l.574-5.059h5.578v1.647H11.2l-.246,2.14a3.132,3.132,0,0,1,1.5-.376,2.869,2.869,0,0,1,2.229.882,3.522,3.522,0,0,1,.807,2.468,3.609,3.609,0,0,1-.407,1.726A2.871,2.871,0,0,1,13.911-.284a3.639,3.639,0,0,1-1.791.42,3.864,3.864,0,0,1-1.675-.366,2.971,2.971,0,0,1-1.22-1.029A2.8,2.8,0,0,1,8.75-2.769h1.955a1.46,1.46,0,0,0,.434.967,1.376,1.376,0,0,0,.974.345,1.215,1.215,0,0,0,1.032-.482A2.233,2.233,0,0,0,13.508-3.3a1.846,1.846,0,0,0-.417-1.3,1.53,1.53,0,0,0-1.183-.451,1.71,1.71,0,0,0-1.142.369l-.191.178ZM16.926-.971a1,1,0,0,1,.318-.766,1.128,1.128,0,0,1,.8-.294,1.137,1.137,0,0,1,.8.294,1,1,0,0,1,.318.766.981.981,0,0,1-.314.755,1.142,1.142,0,0,1-.807.291,1.133,1.133,0,0,1-.8-.291A.981.981,0,0,1,16.926-.971Zm5.893-4.881h1.053a1.483,1.483,0,0,0,1.114-.376,1.378,1.378,0,0,0,.362-1,1.218,1.218,0,0,0-.359-.937A1.391,1.391,0,0,0,24-8.5a1.458,1.458,0,0,0-.95.311,1,1,0,0,0-.383.81H20.692a2.43,2.43,0,0,1,.42-1.4,2.8,2.8,0,0,1,1.176-.967,3.924,3.924,0,0,1,1.665-.349,3.722,3.722,0,0,1,2.475.755,2.577,2.577,0,0,1,.9,2.082A2.094,2.094,0,0,1,26.906-6a2.709,2.709,0,0,1-1.094.882,2.473,2.473,0,0,1,1.254.9,2.448,2.448,0,0,1,.414,1.422,2.62,2.62,0,0,1-.967,2.126,3.889,3.889,0,0,1-2.56.8,3.688,3.688,0,0,1-2.437-.786,2.567,2.567,0,0,1-.947-2.078h1.976a1.145,1.145,0,0,0,.42.916A1.549,1.549,0,0,0,24-1.456a1.556,1.556,0,0,0,1.1-.373,1.286,1.286,0,0,0,.4-.988q0-1.49-1.641-1.49H22.818Z" transform="translate(218.234 59.492)" fill="#161615"/>
      <path id="Trazado_704962" data-name="Trazado 704962" d="M2.687-5.852H3.739a1.483,1.483,0,0,0,1.114-.376,1.378,1.378,0,0,0,.362-1,1.218,1.218,0,0,0-.359-.937A1.391,1.391,0,0,0,3.869-8.5a1.458,1.458,0,0,0-.95.311,1,1,0,0,0-.383.81H.561a2.43,2.43,0,0,1,.42-1.4,2.8,2.8,0,0,1,1.176-.967,3.924,3.924,0,0,1,1.665-.349A3.722,3.722,0,0,1,6.3-9.334a2.577,2.577,0,0,1,.9,2.082A2.094,2.094,0,0,1,6.774-6a2.709,2.709,0,0,1-1.094.882,2.473,2.473,0,0,1,1.254.9,2.448,2.448,0,0,1,.414,1.422A2.62,2.62,0,0,1,6.381-.663a3.889,3.889,0,0,1-2.56.8A3.688,3.688,0,0,1,1.384-.649,2.567,2.567,0,0,1,.438-2.728H2.413a1.145,1.145,0,0,0,.42.916,1.549,1.549,0,0,0,1.036.355,1.556,1.556,0,0,0,1.1-.373,1.286,1.286,0,0,0,.4-.988q0-1.49-1.641-1.49H2.687ZM9-4.895l.574-5.059h5.578v1.647H11.2l-.246,2.14a3.132,3.132,0,0,1,1.5-.376,2.869,2.869,0,0,1,2.229.882,3.522,3.522,0,0,1,.807,2.468,3.609,3.609,0,0,1-.407,1.726A2.871,2.871,0,0,1,13.911-.284a3.639,3.639,0,0,1-1.791.42,3.864,3.864,0,0,1-1.675-.366,2.971,2.971,0,0,1-1.22-1.029A2.8,2.8,0,0,1,8.75-2.769h1.955a1.46,1.46,0,0,0,.434.967,1.376,1.376,0,0,0,.974.345,1.215,1.215,0,0,0,1.032-.482A2.233,2.233,0,0,0,13.508-3.3a1.846,1.846,0,0,0-.417-1.3,1.53,1.53,0,0,0-1.183-.451,1.71,1.71,0,0,0-1.142.369l-.191.178ZM16.926-.971a1,1,0,0,1,.318-.766,1.128,1.128,0,0,1,.8-.294,1.137,1.137,0,0,1,.8.294,1,1,0,0,1,.318.766.981.981,0,0,1-.314.755,1.142,1.142,0,0,1-.807.291,1.133,1.133,0,0,1-.8-.291A.981.981,0,0,1,16.926-.971ZM25.607,0H23.632V-7.615l-2.358.731V-8.49L25.4-9.967h.212Z" transform="translate(217.234 135.724)" fill="#fff"/>
      <path id="Trazado_704963" data-name="Trazado 704963" d="M7.5,0H.677V-1.354L3.9-4.785A7.943,7.943,0,0,0,4.877-6.05,2.032,2.032,0,0,0,5.2-7.075,1.52,1.52,0,0,0,4.86-8.118,1.209,1.209,0,0,0,3.9-8.5a1.3,1.3,0,0,0-1.056.461,1.828,1.828,0,0,0-.386,1.213H.479A3.263,3.263,0,0,1,.913-8.483,3.059,3.059,0,0,1,2.14-9.663a3.73,3.73,0,0,1,1.8-.427,3.531,3.531,0,0,1,2.389.738,2.612,2.612,0,0,1,.851,2.085,3.347,3.347,0,0,1-.383,1.5A8.357,8.357,0,0,1,5.482-3.979L3.22-1.593H7.5Zm7.909-4.115a5.042,5.042,0,0,1-.854,3.158,2.983,2.983,0,0,1-2.5,1.094A3,3,0,0,1,9.563-.937a4.895,4.895,0,0,1-.882-3.076V-5.845A4.976,4.976,0,0,1,9.546-9.01a3,3,0,0,1,2.492-1.08,3.008,3.008,0,0,1,2.488,1.07,4.879,4.879,0,0,1,.882,3.073ZM13.433-6.129a3.645,3.645,0,0,0-.338-1.8A1.144,1.144,0,0,0,12.038-8.5a1.123,1.123,0,0,0-1.029.537,3.411,3.411,0,0,0-.352,1.68v2.422a3.826,3.826,0,0,0,.332,1.81,1.128,1.128,0,0,0,1.063.592A1.109,1.109,0,0,0,13.1-2.024a3.734,3.734,0,0,0,.335-1.738ZM16.926-.971a1,1,0,0,1,.318-.766,1.128,1.128,0,0,1,.8-.294,1.137,1.137,0,0,1,.8.294,1,1,0,0,1,.318.766.981.981,0,0,1-.314.755,1.142,1.142,0,0,1-.807.291,1.133,1.133,0,0,1-.8-.291A.981.981,0,0,1,16.926-.971ZM21.1-4.895l.574-5.059h5.578v1.647H23.3l-.246,2.14a3.132,3.132,0,0,1,1.5-.376,2.869,2.869,0,0,1,2.229.882,3.522,3.522,0,0,1,.807,2.468,3.609,3.609,0,0,1-.407,1.726A2.871,2.871,0,0,1,26.011-.284a3.639,3.639,0,0,1-1.791.42,3.864,3.864,0,0,1-1.675-.366,2.971,2.971,0,0,1-1.22-1.029,2.8,2.8,0,0,1-.475-1.511H22.8a1.46,1.46,0,0,0,.434.967,1.376,1.376,0,0,0,.974.345,1.215,1.215,0,0,0,1.032-.482A2.233,2.233,0,0,0,25.607-3.3a1.846,1.846,0,0,0-.417-1.3,1.53,1.53,0,0,0-1.183-.451,1.71,1.71,0,0,0-1.142.369l-.191.178Z" transform="translate(218.234 182.49)" fill="#161615"/>
      <path id="Trazado_704964" data-name="Trazado 704964" d="M2.687-5.852H3.739a1.483,1.483,0,0,0,1.114-.376,1.378,1.378,0,0,0,.362-1,1.218,1.218,0,0,0-.359-.937A1.391,1.391,0,0,0,3.869-8.5a1.458,1.458,0,0,0-.95.311,1,1,0,0,0-.383.81H.561a2.43,2.43,0,0,1,.42-1.4,2.8,2.8,0,0,1,1.176-.967,3.924,3.924,0,0,1,1.665-.349A3.722,3.722,0,0,1,6.3-9.334a2.577,2.577,0,0,1,.9,2.082A2.094,2.094,0,0,1,6.774-6a2.709,2.709,0,0,1-1.094.882,2.473,2.473,0,0,1,1.254.9,2.448,2.448,0,0,1,.414,1.422A2.62,2.62,0,0,1,6.381-.663a3.889,3.889,0,0,1-2.56.8A3.688,3.688,0,0,1,1.384-.649,2.567,2.567,0,0,1,.438-2.728H2.413a1.145,1.145,0,0,0,.42.916,1.549,1.549,0,0,0,1.036.355,1.556,1.556,0,0,0,1.1-.373,1.286,1.286,0,0,0,.4-.988q0-1.49-1.641-1.49H2.687ZM9-4.895l.574-5.059h5.578v1.647H11.2l-.246,2.14a3.132,3.132,0,0,1,1.5-.376,2.869,2.869,0,0,1,2.229.882,3.522,3.522,0,0,1,.807,2.468,3.609,3.609,0,0,1-.407,1.726A2.871,2.871,0,0,1,13.911-.284a3.639,3.639,0,0,1-1.791.42,3.864,3.864,0,0,1-1.675-.366,2.971,2.971,0,0,1-1.22-1.029A2.8,2.8,0,0,1,8.75-2.769h1.955a1.46,1.46,0,0,0,.434.967,1.376,1.376,0,0,0,.974.345,1.215,1.215,0,0,0,1.032-.482A2.233,2.233,0,0,0,13.508-3.3a1.846,1.846,0,0,0-.417-1.3,1.53,1.53,0,0,0-1.183-.451,1.71,1.71,0,0,0-1.142.369l-.191.178ZM16.926-.971a1,1,0,0,1,.318-.766,1.128,1.128,0,0,1,.8-.294,1.137,1.137,0,0,1,.8.294,1,1,0,0,1,.318.766.981.981,0,0,1-.314.755,1.142,1.142,0,0,1-.807.291,1.133,1.133,0,0,1-.8-.291A.981.981,0,0,1,16.926-.971Zm9.728-2.775h1.128v1.593H26.653V0H24.678V-2.153H20.6L20.508-3.4l4.149-6.556h2Zm-4.177,0h2.2V-7.26l-.13.226Z" transform="translate(280.581 47.41)" fill="#161615"/>
      <path id="Trazado_704965" data-name="Trazado 704965" d="M2.687-5.852H3.739a1.483,1.483,0,0,0,1.114-.376,1.378,1.378,0,0,0,.362-1,1.218,1.218,0,0,0-.359-.937A1.391,1.391,0,0,0,3.869-8.5a1.458,1.458,0,0,0-.95.311,1,1,0,0,0-.383.81H.561a2.43,2.43,0,0,1,.42-1.4,2.8,2.8,0,0,1,1.176-.967,3.924,3.924,0,0,1,1.665-.349A3.722,3.722,0,0,1,6.3-9.334a2.577,2.577,0,0,1,.9,2.082A2.094,2.094,0,0,1,6.774-6a2.709,2.709,0,0,1-1.094.882,2.473,2.473,0,0,1,1.254.9,2.448,2.448,0,0,1,.414,1.422A2.62,2.62,0,0,1,6.381-.663a3.889,3.889,0,0,1-2.56.8A3.688,3.688,0,0,1,1.384-.649,2.567,2.567,0,0,1,.438-2.728H2.413a1.145,1.145,0,0,0,.42.916,1.549,1.549,0,0,0,1.036.355,1.556,1.556,0,0,0,1.1-.373,1.286,1.286,0,0,0,.4-.988q0-1.49-1.641-1.49H2.687ZM15.531,0H8.709V-1.354l3.22-3.432A7.943,7.943,0,0,0,12.91-6.05a2.032,2.032,0,0,0,.318-1.025,1.52,1.52,0,0,0-.335-1.042,1.209,1.209,0,0,0-.957-.379,1.3,1.3,0,0,0-1.056.461,1.828,1.828,0,0,0-.386,1.213H8.511a3.263,3.263,0,0,1,.434-1.661,3.059,3.059,0,0,1,1.227-1.179,3.73,3.73,0,0,1,1.8-.427,3.531,3.531,0,0,1,2.389.738,2.612,2.612,0,0,1,.851,2.085,3.347,3.347,0,0,1-.383,1.5,8.357,8.357,0,0,1-1.312,1.784L11.252-1.593h4.279Zm1.395-.971a1,1,0,0,1,.318-.766,1.128,1.128,0,0,1,.8-.294,1.137,1.137,0,0,1,.8.294,1,1,0,0,1,.318.766.981.981,0,0,1-.314.755,1.142,1.142,0,0,1-.807.291,1.133,1.133,0,0,1-.8-.291A.981.981,0,0,1,16.926-.971Zm9.728-2.775h1.128v1.593H26.653V0H24.678V-2.153H20.6L20.508-3.4l4.149-6.556h2Zm-4.177,0h2.2V-7.26l-.13.226Z" transform="translate(279.581 105.688)" fill="#fff"/>
      <path id="Trazado_704966" data-name="Trazado 704966" d="M6.521-3.746H7.649v1.593H6.521V0H4.546V-2.153H.465L.376-3.4,4.525-9.953h2Zm-4.177,0h2.2V-7.26l-.13.226Zm8.374-2.105h1.053a1.483,1.483,0,0,0,1.114-.376,1.378,1.378,0,0,0,.362-1,1.218,1.218,0,0,0-.359-.937A1.391,1.391,0,0,0,11.9-8.5a1.458,1.458,0,0,0-.95.311,1,1,0,0,0-.383.81H8.593a2.43,2.43,0,0,1,.42-1.4,2.8,2.8,0,0,1,1.176-.967,3.924,3.924,0,0,1,1.665-.349,3.722,3.722,0,0,1,2.475.755,2.577,2.577,0,0,1,.9,2.082A2.094,2.094,0,0,1,14.807-6a2.709,2.709,0,0,1-1.094.882,2.473,2.473,0,0,1,1.254.9,2.448,2.448,0,0,1,.414,1.422,2.62,2.62,0,0,1-.967,2.126,3.889,3.889,0,0,1-2.56.8A3.688,3.688,0,0,1,9.417-.649,2.567,2.567,0,0,1,8.47-2.728h1.976a1.145,1.145,0,0,0,.42.916,1.549,1.549,0,0,0,1.036.355,1.556,1.556,0,0,0,1.1-.373,1.286,1.286,0,0,0,.4-.988q0-1.49-1.641-1.49H10.719ZM16.926-.971a1,1,0,0,1,.318-.766,1.128,1.128,0,0,1,.8-.294,1.137,1.137,0,0,1,.8.294,1,1,0,0,1,.318.766.981.981,0,0,1-.314.755,1.142,1.142,0,0,1-.807.291,1.133,1.133,0,0,1-.8-.291A.981.981,0,0,1,16.926-.971ZM21.1-4.895l.574-5.059h5.578v1.647H23.3l-.246,2.14a3.132,3.132,0,0,1,1.5-.376,2.869,2.869,0,0,1,2.229.882,3.522,3.522,0,0,1,.807,2.468,3.609,3.609,0,0,1-.407,1.726A2.871,2.871,0,0,1,26.011-.284a3.639,3.639,0,0,1-1.791.42,3.864,3.864,0,0,1-1.675-.366,2.971,2.971,0,0,1-1.22-1.029,2.8,2.8,0,0,1-.475-1.511H22.8a1.46,1.46,0,0,0,.434.967,1.376,1.376,0,0,0,.974.345,1.215,1.215,0,0,0,1.032-.482A2.233,2.233,0,0,0,25.607-3.3a1.846,1.846,0,0,0-.417-1.3,1.53,1.53,0,0,0-1.183-.451,1.71,1.71,0,0,0-1.142.369l-.191.178Z" transform="translate(279.421 164.183)" fill="#161615"/>
    </g>
  </g>
</svg>
