<svg xmlns="http://www.w3.org/2000/svg" width="268" height="224.369" viewBox="0 0 268 224.369">
  <g id="Grupo_974102" data-name="Grupo 974102" transform="translate(-6696 8371.531)">
    <g id="Grupo_974082" data-name="Grupo 974082" transform="translate(6696 -8371.531)">
      <rect id="Rectángulo_49533" data-name="Rectángulo 49533" width="220" height="169" transform="translate(48 55.369)" fill="#ad84ff"/>
      <g id="Grupo_165754" data-name="Grupo 165754" transform="translate(3.11 3.11)">
        <g id="Grupo_165749" data-name="Grupo 165749" transform="translate(130.949 18.409)">
          <circle id="Elipse_5194" data-name="Elipse 5194" cx="6.206" cy="6.206" r="6.206" transform="translate(0 0)" fill="#b4dd7f"/>
        </g>
        <g id="Grupo_165750" data-name="Grupo 165750" transform="translate(44.059 154.95)">
          <circle id="Elipse_5195" data-name="Elipse 5195" cx="6.206" cy="6.206" r="6.206" transform="translate(0 0)" fill="#25ffff"/>
        </g>
        <g id="Grupo_165751" data-name="Grupo 165751" transform="translate(118.178 99.518)">
          <path id="Trazado_177958" data-name="Trazado 177958" d="M39,95.2V62.513A43.749,43.749,0,0,0,53.461,45.44,43.387,43.387,0,0,0,57.224,33h47.085a3.119,3.119,0,0,1,3.11,3.11v80.859a3.119,3.119,0,0,1-3.11,3.11H42.11a3.119,3.119,0,0,1-3.11-3.11Z" transform="translate(-39 -33)" fill="#25ffff"/>
        </g>
        <g id="Grupo_165752" data-name="Grupo 165752" transform="translate(0 0)">
          <path id="Trazado_177959" data-name="Trazado 177959" d="M69.419,25.88V58.565A43.61,43.61,0,0,0,51.194,88.078H4.11A3.119,3.119,0,0,1,1,84.968V4.11A3.119,3.119,0,0,1,4.11,1h62.2a3.119,3.119,0,0,1,3.11,3.11Z" transform="translate(-1 -1)" fill="#d3e7f7"/>
        </g>
        <g id="Grupo_165753" data-name="Grupo 165753" transform="translate(49.759 49.759)">
          <path id="Trazado_177960" data-name="Trazado 177960" d="M99.88,41.88a43.555,43.555,0,0,0-82.445,12.44A45.4,45.4,0,0,0,17,60.539,43.542,43.542,0,0,0,85.419,96.272a43.61,43.61,0,0,0,18.224-29.513,45.4,45.4,0,0,0,.435-6.22,43.19,43.19,0,0,0-4.2-18.66Z" transform="translate(-17 -17)" fill="#4fc1e9"/>
        </g>
      </g>
      <g id="Grupo_165755" data-name="Grupo 165755">
        <path id="Trazado_177961" data-name="Trazado 177961" d="M51.33,24.66A9.33,9.33,0,1,0,42,15.33,9.341,9.341,0,0,0,51.33,24.66Zm0-12.44a3.11,3.11,0,1,1-3.11,3.11A3.115,3.115,0,0,1,51.33,12.22Z" transform="translate(88.618 12.66)"/>
        <path id="Trazado_177962" data-name="Trazado 177962" d="M38,8h6.22v6.22H38Z" transform="translate(80.178 16.88)"/>
        <path id="Trazado_177963" data-name="Trazado 177963" d="M50,8h6.22v6.22H50Z" transform="translate(105.497 16.88)"/>
        <path id="Trazado_177964" data-name="Trazado 177964" d="M5,16H17.44v6.22H5Z" transform="translate(10.55 33.759)"/>
        <path id="Trazado_177965" data-name="Trazado 177965" d="M11,16H29.66v6.22H11Z" transform="translate(23.209 33.759)"/>
        <path id="Trazado_177966" data-name="Trazado 177966" d="M5,20H36.1v6.22H5Z" transform="translate(10.55 42.199)"/>
        <path id="Trazado_177967" data-name="Trazado 177967" d="M5,24H29.88v6.22H5Z" transform="translate(10.55 50.639)"/>
        <path id="Trazado_177968" data-name="Trazado 177968" d="M186.6,99.518H142.9c.068-1.033.159-2.059.159-3.11A46.6,46.6,0,0,0,74.639,55.183V31.1h37.319V24.88H74.639V6.22A6.226,6.226,0,0,0,68.419,0H6.22A6.226,6.226,0,0,0,0,6.22V87.078A6.226,6.226,0,0,0,6.22,93.3h43.7c-.068,1.032-.159,2.059-.159,3.11a46.6,46.6,0,0,0,68.419,41.225v24.083H80.858v6.22h37.319V186.6a6.226,6.226,0,0,0,6.22,6.22h62.2a6.226,6.226,0,0,0,6.22-6.22V105.738A6.226,6.226,0,0,0,186.6,99.518ZM80.858,96.408a52.877,52.877,0,0,1,2.392-15.55h26.313a51.715,51.715,0,0,1,0,31.1H83.253a52.778,52.778,0,0,1-2.395-15.55ZM91.432,64.687l4.976-6.637,4.976,6.637a52.512,52.512,0,0,1,5.831,9.952H85.6A52.429,52.429,0,0,1,91.432,64.687ZM78.859,74.639H62.395A40.463,40.463,0,0,1,89.74,56.576l-3.284,4.379A58.938,58.938,0,0,0,78.859,74.639Zm28.356,43.539a52.609,52.609,0,0,1-5.831,9.952l-4.976,6.633-4.976-6.633a52.512,52.512,0,0,1-5.831-9.952Zm-.855,13.684a58.874,58.874,0,0,0,7.6-13.684h16.464a40.463,40.463,0,0,1-27.346,18.063Zm27.358-19.9H116.032a57.413,57.413,0,0,0,0-31.1h17.686a40.318,40.318,0,0,1,0,31.1Zm-3.3-37.319H113.958a58.938,58.938,0,0,0-7.6-13.684l-3.284-4.379a40.463,40.463,0,0,1,27.346,18.063ZM6.22,87.078V6.22h62.2V24.88H36.856l8.627-6.9L41.6,13.121,23.01,27.989,41.6,42.858,45.48,38l-8.624-6.9H68.419v28.08a46.691,46.691,0,0,0-17.72,27.9ZM59.1,80.858H76.784a57.413,57.413,0,0,0,0,31.1H59.1a40.318,40.318,0,0,1,0-31.1Zm3.3,37.319H78.859a58.938,58.938,0,0,0,7.6,13.684l3.284,4.379a40.463,40.463,0,0,1-27.346-18.063ZM186.6,186.6H124.4v-18.66H155.96l-8.627,6.9,3.884,4.858,18.588-14.869-18.585-14.869-3.884,4.858,8.624,6.9H124.4v-28.08a46.691,46.691,0,0,0,17.72-27.9H186.6Z"/>
        <path id="Trazado_177969" data-name="Trazado 177969" d="M23.33,50a9.33,9.33,0,1,0,9.33,9.33A9.341,9.341,0,0,0,23.33,50Zm0,12.44a3.11,3.11,0,1,1,3.11-3.11A3.115,3.115,0,0,1,23.33,62.44Z" transform="translate(29.539 105.497)"/>
        <path id="Trazado_177970" data-name="Trazado 177970" d="M22,52h6.22v6.22H22Z" transform="translate(46.419 109.717)"/>
        <path id="Trazado_177971" data-name="Trazado 177971" d="M10,52h6.22v6.22H10Z" transform="translate(21.099 109.717)"/>
        <path id="Trazado_177972" data-name="Trazado 177972" d="M53,36H65.44v6.22H53Z" transform="translate(111.827 75.958)"/>
        <path id="Trazado_177973" data-name="Trazado 177973" d="M47,36H59.44v6.22H47Z" transform="translate(99.167 75.958)"/>
        <path id="Trazado_177974" data-name="Trazado 177974" d="M47,40H78.1v6.22H47Z" transform="translate(99.167 84.398)"/>
        <path id="Trazado_177975" data-name="Trazado 177975" d="M49,44H73.88v6.22H49Z" transform="translate(103.387 92.837)"/>
      </g>
    </g>
  </g>
</svg>
