<svg xmlns="http://www.w3.org/2000/svg" xmlns:xlink="http://www.w3.org/1999/xlink" width="376" height="223" viewBox="0 0 376 223">
  <defs>
    <clipPath id="clip-path">
      <rect id="Rectángulo_339951" data-name="Rectángulo 339951" width="200" height="200" fill="none"/>
    </clipPath>
  </defs>
  <g id="Grupo_974142" data-name="Grupo 974142" transform="translate(-7299 4300)">
    <path id="Trazado_704967" data-name="Trazado 704967" d="M16,0H360a16,16,0,0,1,16,16V207a16,16,0,0,1-16,16H16A16,16,0,0,1,0,207V16A16,16,0,0,1,16,0Z" transform="translate(7299 -4300)" fill="#fff"/>
    <g id="Grupo_974124" data-name="Grupo 974124" transform="translate(7387 -4288)">
      <g id="Grupo_974123" data-name="Grupo 974123" clip-path="url(#clip-path)">
        <path id="Trazado_704815" data-name="Trazado 704815" d="M231.717,123.471A99.912,99.912,0,0,0,150.91,2.313L134.5,100.774Z" transform="translate(-34.316 -0.59)" fill="#7125c8"/>
        <path id="Trazado_704817" data-name="Trazado 704817" d="M44.01,23.847a99.815,99.815,0,0,0,56.3,182.233c.413,0,.825-.01,1.237-.016l-1.237-99.8Z" transform="translate(-0.128 -6.084)" fill="#cfb7ff"/>
        <path id="Trazado_704819" data-name="Trazado 704819" d="M131.625,1.85A100.468,100.468,0,0,0,115.215.5a99.341,99.341,0,0,0-56.3,17.39l56.3,82.421Z" transform="translate(-15.031 -0.128)" fill="#ad84ff"/>
        <path id="Trazado_704821" data-name="Trazado 704821" d="M231.717,157.2,134.5,134.5l1.236,99.8a99.847,99.847,0,0,0,95.981-77.1" transform="translate(-34.316 -34.316)" fill="#2e0877"/>
      </g>
    </g>
    <path id="Trazado_704969" data-name="Trazado 704969" d="M8.385-4.816h1.45v2.048H8.385V0H5.845V-2.769H.6l-.114-1.6L5.818-12.8H8.385Zm-5.37,0h2.83V-9.334l-.167.29Zm16.8-.475a6.483,6.483,0,0,1-1.1,4.061A3.835,3.835,0,0,1,15.5.176,3.862,3.862,0,0,1,12.3-1.2a6.293,6.293,0,0,1-1.134-3.955V-7.515a6.4,6.4,0,0,1,1.112-4.069,3.864,3.864,0,0,1,3.2-1.389,3.867,3.867,0,0,1,3.2,1.375,6.273,6.273,0,0,1,1.134,3.951Zm-2.54-2.59a4.686,4.686,0,0,0-.435-2.318,1.47,1.47,0,0,0-1.358-.726,1.444,1.444,0,0,0-1.323.691,4.385,4.385,0,0,0-.453,2.16V-4.96a4.919,4.919,0,0,0,.426,2.327,1.451,1.451,0,0,0,1.367.761A1.426,1.426,0,0,0,16.84-2.6a4.8,4.8,0,0,0,.431-2.235Zm4.219-2.455a2.53,2.53,0,0,1,.765-1.912,2.773,2.773,0,0,1,2-.734,2.817,2.817,0,0,1,2.021.725,2.578,2.578,0,0,1,.765,1.964v.633a2.5,2.5,0,0,1-.765,1.907,2.8,2.8,0,0,1-2,.721,2.82,2.82,0,0,1-2.017-.725,2.559,2.559,0,0,1-.769-1.956Zm1.688.677a1.184,1.184,0,0,0,.3.848,1.044,1.044,0,0,0,.8.321,1,1,0,0,0,.782-.325,1.259,1.259,0,0,0,.29-.87v-.65a1.233,1.233,0,0,0-.29-.853,1.017,1.017,0,0,0-.8-.325,1.019,1.019,0,0,0-.782.321,1.258,1.258,0,0,0-.3.892Zm4.43,6.521a2.5,2.5,0,0,1,.773-1.912,2.812,2.812,0,0,1,2-.725,2.841,2.841,0,0,1,2.017.716,2.564,2.564,0,0,1,.769,1.973v.633a2.517,2.517,0,0,1-.756,1.9A2.786,2.786,0,0,1,30.4.176a2.819,2.819,0,0,1-2.03-.729,2.548,2.548,0,0,1-.765-1.934Zm1.688.686a1.175,1.175,0,0,0,.316.826,1.032,1.032,0,0,0,.791.343q1.072,0,1.072-1.187v-.668a1.194,1.194,0,0,0-.3-.848,1.03,1.03,0,0,0-.791-.321,1.03,1.03,0,0,0-.791.321,1.232,1.232,0,0,0-.3.875ZM24.776-.958l-1.239-.668,6.249-10,1.239.668Z" transform="translate(7420 -4160)" fill="#fff"/>
    <path id="Trazado_704970" data-name="Trazado 704970" d="M7.04,0H4.5V-9.791l-3.032.94v-2.065l5.3-1.9H7.04ZM19.811-5.291a6.483,6.483,0,0,1-1.1,4.061A3.835,3.835,0,0,1,15.5.176,3.862,3.862,0,0,1,12.3-1.2a6.293,6.293,0,0,1-1.134-3.955V-7.515a6.4,6.4,0,0,1,1.112-4.069,3.864,3.864,0,0,1,3.2-1.389,3.867,3.867,0,0,1,3.2,1.375,6.273,6.273,0,0,1,1.134,3.951Zm-2.54-2.59a4.686,4.686,0,0,0-.435-2.318,1.47,1.47,0,0,0-1.358-.726,1.444,1.444,0,0,0-1.323.691,4.385,4.385,0,0,0-.453,2.16V-4.96a4.919,4.919,0,0,0,.426,2.327,1.451,1.451,0,0,0,1.367.761A1.426,1.426,0,0,0,16.84-2.6a4.8,4.8,0,0,0,.431-2.235Zm4.219-2.455a2.53,2.53,0,0,1,.765-1.912,2.773,2.773,0,0,1,2-.734,2.817,2.817,0,0,1,2.021.725,2.578,2.578,0,0,1,.765,1.964v.633a2.5,2.5,0,0,1-.765,1.907,2.8,2.8,0,0,1-2,.721,2.82,2.82,0,0,1-2.017-.725,2.559,2.559,0,0,1-.769-1.956Zm1.688.677a1.184,1.184,0,0,0,.3.848,1.044,1.044,0,0,0,.8.321,1,1,0,0,0,.782-.325,1.259,1.259,0,0,0,.29-.87v-.65a1.233,1.233,0,0,0-.29-.853,1.017,1.017,0,0,0-.8-.325,1.019,1.019,0,0,0-.782.321,1.258,1.258,0,0,0-.3.892Zm4.43,6.521a2.5,2.5,0,0,1,.773-1.912,2.812,2.812,0,0,1,2-.725,2.841,2.841,0,0,1,2.017.716,2.564,2.564,0,0,1,.769,1.973v.633a2.517,2.517,0,0,1-.756,1.9A2.786,2.786,0,0,1,30.4.176a2.819,2.819,0,0,1-2.03-.729,2.548,2.548,0,0,1-.765-1.934Zm1.688.686a1.175,1.175,0,0,0,.316.826,1.032,1.032,0,0,0,.791.343q1.072,0,1.072-1.187v-.668a1.194,1.194,0,0,0-.3-.848,1.03,1.03,0,0,0-.791-.321,1.03,1.03,0,0,0-.791.321,1.232,1.232,0,0,0-.3.875ZM24.776-.958l-1.239-.668,6.249-10,1.239.668Z" transform="translate(7458 -4231)" fill="#fff"/>
    <path id="Trazado_704971" data-name="Trazado 704971" d="M3.454-7.523H4.808A1.907,1.907,0,0,0,6.24-8.007,1.771,1.771,0,0,0,6.706-9.29a1.566,1.566,0,0,0-.461-1.2,1.788,1.788,0,0,0-1.27-.431,1.874,1.874,0,0,0-1.222.4,1.279,1.279,0,0,0-.492,1.042H.721a3.124,3.124,0,0,1,.541-1.8,3.6,3.6,0,0,1,1.512-1.244,5.045,5.045,0,0,1,2.14-.448A4.785,4.785,0,0,1,8.095-12,3.314,3.314,0,0,1,9.246-9.325,2.693,2.693,0,0,1,8.71-7.708,3.483,3.483,0,0,1,7.3-6.574a3.18,3.18,0,0,1,1.613,1.16,3.147,3.147,0,0,1,.532,1.828A3.369,3.369,0,0,1,8.2-.853,5,5,0,0,1,4.913.176,4.741,4.741,0,0,1,1.78-.835,3.3,3.3,0,0,1,.563-3.507H3.1a1.472,1.472,0,0,0,.541,1.178,1.992,1.992,0,0,0,1.332.457,2,2,0,0,0,1.419-.479,1.654,1.654,0,0,0,.514-1.27q0-1.916-2.109-1.916H3.454Zm8.121,1.23.738-6.5h7.172v2.118H14.4L14.08-7.928A4.027,4.027,0,0,1,16-8.411,3.689,3.689,0,0,1,18.87-7.277,4.529,4.529,0,0,1,19.907-4.1a4.64,4.64,0,0,1-.523,2.219,3.691,3.691,0,0,1-1.5,1.521,4.678,4.678,0,0,1-2.3.541,4.968,4.968,0,0,1-2.153-.47,3.819,3.819,0,0,1-1.569-1.323A3.605,3.605,0,0,1,11.25-3.56h2.514a1.878,1.878,0,0,0,.558,1.244,1.769,1.769,0,0,0,1.252.444,1.562,1.562,0,0,0,1.327-.62,2.87,2.87,0,0,0,.466-1.753,2.374,2.374,0,0,0-.536-1.67,1.967,1.967,0,0,0-1.521-.58,2.2,2.2,0,0,0-1.468.475l-.246.229Zm9.914-4.043a2.53,2.53,0,0,1,.765-1.912,2.773,2.773,0,0,1,2-.734,2.817,2.817,0,0,1,2.021.725,2.578,2.578,0,0,1,.765,1.964v.633a2.5,2.5,0,0,1-.765,1.907,2.8,2.8,0,0,1-2,.721,2.82,2.82,0,0,1-2.017-.725,2.559,2.559,0,0,1-.769-1.956Zm1.688.677a1.184,1.184,0,0,0,.3.848,1.044,1.044,0,0,0,.8.321,1,1,0,0,0,.782-.325,1.259,1.259,0,0,0,.29-.87v-.65a1.233,1.233,0,0,0-.29-.853,1.017,1.017,0,0,0-.8-.325,1.019,1.019,0,0,0-.782.321,1.258,1.258,0,0,0-.3.892Zm4.43,6.521a2.5,2.5,0,0,1,.773-1.912,2.812,2.812,0,0,1,2-.725,2.841,2.841,0,0,1,2.017.716,2.564,2.564,0,0,1,.769,1.973v.633a2.517,2.517,0,0,1-.756,1.9A2.786,2.786,0,0,1,30.4.176a2.819,2.819,0,0,1-2.03-.729,2.548,2.548,0,0,1-.765-1.934Zm1.688.686a1.175,1.175,0,0,0,.316.826,1.032,1.032,0,0,0,.791.343q1.072,0,1.072-1.187v-.668a1.194,1.194,0,0,0-.3-.848,1.03,1.03,0,0,0-.791-.321,1.03,1.03,0,0,0-.791.321,1.232,1.232,0,0,0-.3.875ZM24.776-.958l-1.239-.668,6.249-10,1.239.668Z" transform="translate(7522 -4194)" fill="#fff"/>
    <path id="Trazado_704968" data-name="Trazado 704968" d="M7.04,0H4.5V-9.791l-3.032.94v-2.065l5.3-1.9H7.04Zm4.535-6.293.738-6.5h7.172v2.118H14.4L14.08-7.928A4.027,4.027,0,0,1,16-8.411,3.689,3.689,0,0,1,18.87-7.277,4.529,4.529,0,0,1,19.907-4.1a4.64,4.64,0,0,1-.523,2.219,3.691,3.691,0,0,1-1.5,1.521,4.678,4.678,0,0,1-2.3.541,4.968,4.968,0,0,1-2.153-.47,3.819,3.819,0,0,1-1.569-1.323A3.605,3.605,0,0,1,11.25-3.56h2.514a1.878,1.878,0,0,0,.558,1.244,1.769,1.769,0,0,0,1.252.444,1.562,1.562,0,0,0,1.327-.62,2.87,2.87,0,0,0,.466-1.753,2.374,2.374,0,0,0-.536-1.67,1.967,1.967,0,0,0-1.521-.58,2.2,2.2,0,0,0-1.468.475l-.246.229Zm9.914-4.043a2.53,2.53,0,0,1,.765-1.912,2.773,2.773,0,0,1,2-.734,2.817,2.817,0,0,1,2.021.725,2.578,2.578,0,0,1,.765,1.964v.633a2.5,2.5,0,0,1-.765,1.907,2.8,2.8,0,0,1-2,.721,2.82,2.82,0,0,1-2.017-.725,2.559,2.559,0,0,1-.769-1.956Zm1.688.677a1.184,1.184,0,0,0,.3.848,1.044,1.044,0,0,0,.8.321,1,1,0,0,0,.782-.325,1.259,1.259,0,0,0,.29-.87v-.65a1.233,1.233,0,0,0-.29-.853,1.017,1.017,0,0,0-.8-.325,1.019,1.019,0,0,0-.782.321,1.258,1.258,0,0,0-.3.892Zm4.43,6.521a2.5,2.5,0,0,1,.773-1.912,2.812,2.812,0,0,1,2-.725,2.841,2.841,0,0,1,2.017.716,2.564,2.564,0,0,1,.769,1.973v.633a2.517,2.517,0,0,1-.756,1.9A2.786,2.786,0,0,1,30.4.176a2.819,2.819,0,0,1-2.03-.729,2.548,2.548,0,0,1-.765-1.934Zm1.688.686a1.175,1.175,0,0,0,.316.826,1.032,1.032,0,0,0,.791.343q1.072,0,1.072-1.187v-.668a1.194,1.194,0,0,0-.3-.848,1.03,1.03,0,0,0-.791-.321,1.03,1.03,0,0,0-.791.321,1.232,1.232,0,0,0-.3.875ZM24.776-.958l-1.239-.668,6.249-10,1.239.668Z" transform="translate(7504 -4130)" fill="#fff"/>
  </g>
</svg>
