<svg xmlns="http://www.w3.org/2000/svg" width="376" height="223" viewBox="0 0 376 223">
  <g id="Grupo_974138" data-name="Grupo 974138" transform="translate(-7319 2660)">
    <path id="Trazado_705006" data-name="Trazado 705006" d="M16,0H360a16,16,0,0,1,16,16V207a16,16,0,0,1-16,16H16A16,16,0,0,1,0,207V16A16,16,0,0,1,16,0Z" transform="translate(7319 -2660)" fill="#fff"/>
    <path id="Trazado_705007" data-name="Trazado 705007" d="M0,0H19.193V94.667H0Z" transform="translate(7380.673 -2628.667) rotate(-90)" fill="#6a6a6a"/>
    <path id="Trazado_705008" data-name="Trazado 705008" d="M0,0H19.193V33.667H0Z" transform="translate(7380.673 -2576.098) rotate(-90)" fill="#6a6a6a"/>
    <path id="Trazado_705009" data-name="Trazado 705009" d="M0,0H19.193V16.833H0Z" transform="translate(7380.673 -2523.77) rotate(-90)" fill="#6a6a6a"/>
    <path id="Trazado_705010" data-name="Trazado 705010" d="M0,0H19.193V33.667H0Z" transform="translate(7380.673 -2468.397) rotate(-90)" fill="#6a6a6a"/>
    <path id="Trazado_705011" data-name="Trazado 705011" d="M0,0H19.193V33.667H0Z" transform="translate(7475.218 -2628.667) rotate(-90)" fill="#a3a5a8"/>
    <path id="Trazado_705012" data-name="Trazado 705012" d="M0,0H19.193V52.333H0Z" transform="translate(7414.34 -2576.098) rotate(-90)" fill="#a3a5a8"/>
    <path id="Trazado_705013" data-name="Trazado 705013" d="M0,0H19.193V69.167H0Z" transform="translate(7397.506 -2523.77) rotate(-90)" fill="#a3a5a8"/>
    <path id="Trazado_705014" data-name="Trazado 705014" d="M0,0H19.193V104.666H0Z" transform="translate(7414.34 -2468.397) rotate(-90)" fill="#a3a5a8"/>
    <path id="Trazado_705015" data-name="Trazado 705015" d="M0,0H19.193V107.788H0Z" transform="translate(7508.885 -2628.667) rotate(-90)" fill="#d4d4d4"/>
    <path id="Trazado_705016" data-name="Trazado 705016" d="M0,0H19.193V107.788H0Z" transform="translate(7466.673 -2576.098) rotate(-90)" fill="#d4d4d4"/>
    <path id="Trazado_705017" data-name="Trazado 705017" d="M0,0H19.193V141.782H0Z" transform="translate(7466.673 -2523.77) rotate(-90)" fill="#d4d4d4"/>
    <path id="Trazado_705018" data-name="Trazado 705018" d="M0,0H19.193V97.667H0Z" transform="translate(7519.006 -2468.397) rotate(-90)" fill="#d4d4d4"/>
    <g id="Grupo_974134" data-name="Grupo 974134" transform="translate(-500.327 3881.077)">
      <path id="Trazado_704796" data-name="Trazado 704796" d="M7.333,0H0" transform="translate(8056 -6349.474) rotate(90)" fill="none" stroke="#707070" stroke-width="1" stroke-dasharray="1"/>
      <path id="Trazado_704800" data-name="Trazado 704800" d="M7.333,0H0" transform="translate(8117 -6349.474) rotate(90)" fill="none" stroke="#707070" stroke-width="1" stroke-dasharray="1"/>
      <path id="Trazado_704797" data-name="Trazado 704797" d="M7.333,0H0" transform="translate(8000.472 -6349.474) rotate(90)" fill="none" stroke="#707070" stroke-width="1" stroke-dasharray="1"/>
      <path id="Trazado_704798" data-name="Trazado 704798" d="M7.333,0H0" transform="translate(7938.212 -6349.474) rotate(90)" fill="none" stroke="#707070" stroke-width="1" stroke-dasharray="1"/>
      <path id="Trazado_704799" data-name="Trazado 704799" d="M7.333,0H0" transform="translate(7881 -6349.474) rotate(90)" fill="none" stroke="#707070" stroke-width="1" stroke-dasharray="1"/>
      <path id="Trazado_705042" data-name="Trazado 705042" d="M8.43-4.7a5.762,5.762,0,0,1-.977,3.609A3.409,3.409,0,0,1,4.594.156,3.433,3.433,0,0,1,1.75-1.07,5.594,5.594,0,0,1,.742-4.586V-6.68A5.687,5.687,0,0,1,1.73-10.3a3.434,3.434,0,0,1,2.848-1.234,3.437,3.437,0,0,1,2.844,1.223A5.576,5.576,0,0,1,8.43-6.8Zm-2.258-2.3a4.165,4.165,0,0,0-.387-2.061,1.307,1.307,0,0,0-1.207-.645A1.284,1.284,0,0,0,3.4-9.1,3.9,3.9,0,0,0,3-7.177v2.768a4.372,4.372,0,0,0,.379,2.068,1.29,1.29,0,0,0,1.215.676,1.268,1.268,0,0,0,1.2-.649A4.268,4.268,0,0,0,6.172-4.3Z" transform="translate(7876.5 -6327.14)" fill="#707070"/>
      <path id="Trazado_705043" data-name="Trazado 705043" d="M6.258,0H4V-8.7l-2.7.836V-9.7l4.711-1.687h.242Z" transform="translate(7933.712 -6327.14)" fill="#707070"/>
      <path id="Trazado_705044" data-name="Trazado 705044" d="M8.57,0H.773V-1.547l3.68-3.922A9.078,9.078,0,0,0,5.574-6.914a2.322,2.322,0,0,0,.363-1.172,1.738,1.738,0,0,0-.383-1.191,1.382,1.382,0,0,0-1.094-.434,1.49,1.49,0,0,0-1.207.527A2.089,2.089,0,0,0,2.813-7.8H.547a3.729,3.729,0,0,1,.5-1.9,3.5,3.5,0,0,1,1.4-1.348A4.262,4.262,0,0,1,4.5-11.531a4.036,4.036,0,0,1,2.73.844A2.985,2.985,0,0,1,8.2-8.3a3.825,3.825,0,0,1-.437,1.719,9.551,9.551,0,0,1-1.5,2.039L3.68-1.82H8.57Z" transform="translate(7995.972 -6327.14)" fill="#707070"/>
      <path id="Trazado_705045" data-name="Trazado 705045" d="M3.07-6.687h1.2a1.7,1.7,0,0,0,1.273-.43,1.574,1.574,0,0,0,.414-1.141,1.392,1.392,0,0,0-.41-1.07,1.59,1.59,0,0,0-1.129-.383,1.666,1.666,0,0,0-1.086.355A1.137,1.137,0,0,0,2.9-8.43H.641a2.777,2.777,0,0,1,.48-1.6,3.2,3.2,0,0,1,1.344-1.105,4.485,4.485,0,0,1,1.9-.4,4.253,4.253,0,0,1,2.828.863A2.945,2.945,0,0,1,8.219-8.289a2.394,2.394,0,0,1-.477,1.438,3.1,3.1,0,0,1-1.25,1.008A2.826,2.826,0,0,1,7.926-4.812,2.8,2.8,0,0,1,8.4-3.187,2.994,2.994,0,0,1,7.293-.758,4.445,4.445,0,0,1,4.367.156a4.214,4.214,0,0,1-2.785-.9A2.934,2.934,0,0,1,.5-3.117H2.758a1.308,1.308,0,0,0,.48,1.047,1.771,1.771,0,0,0,1.184.406A1.779,1.779,0,0,0,5.684-2.09a1.47,1.47,0,0,0,.457-1.129q0-1.7-1.875-1.7H3.07Z" transform="translate(8053.183 -6327.14)" fill="#707070"/>
      <path id="Trazado_705046" data-name="Trazado 705046" d="M7.453-4.281H8.742v1.82H7.453V0H5.2V-2.461H.531L.43-3.883l4.742-7.492H7.453Zm-4.773,0H5.2V-8.3l-.148.258Z" transform="translate(8115.442 -6327.14)" fill="#707070"/>
    </g>
    <g id="Grupo_974135" data-name="Grupo 974135" transform="translate(-500.327 3825.704)">
      <path id="Trazado_704796-2" data-name="Trazado 704796" d="M7.333,0H0" transform="translate(8056 -6349.474) rotate(90)" fill="none" stroke="#707070" stroke-width="1" stroke-dasharray="1"/>
      <path id="Trazado_704800-2" data-name="Trazado 704800" d="M7.333,0H0" transform="translate(8117 -6349.474) rotate(90)" fill="none" stroke="#707070" stroke-width="1" stroke-dasharray="1"/>
      <path id="Trazado_704797-2" data-name="Trazado 704797" d="M7.333,0H0" transform="translate(8000.472 -6349.474) rotate(90)" fill="none" stroke="#707070" stroke-width="1" stroke-dasharray="1"/>
      <path id="Trazado_704798-2" data-name="Trazado 704798" d="M7.333,0H0" transform="translate(7938.212 -6349.474) rotate(90)" fill="none" stroke="#707070" stroke-width="1" stroke-dasharray="1"/>
      <path id="Trazado_704799-2" data-name="Trazado 704799" d="M7.333,0H0" transform="translate(7881 -6349.474) rotate(90)" fill="none" stroke="#707070" stroke-width="1" stroke-dasharray="1"/>
      <path id="Trazado_705037" data-name="Trazado 705037" d="M8.43-4.7a5.762,5.762,0,0,1-.977,3.609A3.409,3.409,0,0,1,4.594.156,3.433,3.433,0,0,1,1.75-1.07,5.594,5.594,0,0,1,.742-4.586V-6.68A5.687,5.687,0,0,1,1.73-10.3a3.434,3.434,0,0,1,2.848-1.234,3.437,3.437,0,0,1,2.844,1.223A5.576,5.576,0,0,1,8.43-6.8Zm-2.258-2.3a4.165,4.165,0,0,0-.387-2.061,1.307,1.307,0,0,0-1.207-.645A1.284,1.284,0,0,0,3.4-9.1,3.9,3.9,0,0,0,3-7.177v2.768a4.372,4.372,0,0,0,.379,2.068,1.29,1.29,0,0,0,1.215.676,1.268,1.268,0,0,0,1.2-.649A4.268,4.268,0,0,0,6.172-4.3Z" transform="translate(7876.5 -6327.14)" fill="#707070"/>
      <path id="Trazado_705038" data-name="Trazado 705038" d="M6.258,0H4V-8.7l-2.7.836V-9.7l4.711-1.687h.242Z" transform="translate(7933.712 -6327.14)" fill="#707070"/>
      <path id="Trazado_705039" data-name="Trazado 705039" d="M8.57,0H.773V-1.547l3.68-3.922A9.078,9.078,0,0,0,5.574-6.914a2.322,2.322,0,0,0,.363-1.172,1.738,1.738,0,0,0-.383-1.191,1.382,1.382,0,0,0-1.094-.434,1.49,1.49,0,0,0-1.207.527A2.089,2.089,0,0,0,2.813-7.8H.547a3.729,3.729,0,0,1,.5-1.9,3.5,3.5,0,0,1,1.4-1.348A4.262,4.262,0,0,1,4.5-11.531a4.036,4.036,0,0,1,2.73.844A2.985,2.985,0,0,1,8.2-8.3a3.825,3.825,0,0,1-.437,1.719,9.551,9.551,0,0,1-1.5,2.039L3.68-1.82H8.57Z" transform="translate(7995.972 -6327.14)" fill="#707070"/>
      <path id="Trazado_705040" data-name="Trazado 705040" d="M3.07-6.687h1.2a1.7,1.7,0,0,0,1.273-.43,1.574,1.574,0,0,0,.414-1.141,1.392,1.392,0,0,0-.41-1.07,1.59,1.59,0,0,0-1.129-.383,1.666,1.666,0,0,0-1.086.355A1.137,1.137,0,0,0,2.9-8.43H.641a2.777,2.777,0,0,1,.48-1.6,3.2,3.2,0,0,1,1.344-1.105,4.485,4.485,0,0,1,1.9-.4,4.253,4.253,0,0,1,2.828.863A2.945,2.945,0,0,1,8.219-8.289a2.394,2.394,0,0,1-.477,1.438,3.1,3.1,0,0,1-1.25,1.008A2.826,2.826,0,0,1,7.926-4.812,2.8,2.8,0,0,1,8.4-3.187,2.994,2.994,0,0,1,7.293-.758,4.445,4.445,0,0,1,4.367.156a4.214,4.214,0,0,1-2.785-.9A2.934,2.934,0,0,1,.5-3.117H2.758a1.308,1.308,0,0,0,.48,1.047,1.771,1.771,0,0,0,1.184.406A1.779,1.779,0,0,0,5.684-2.09a1.47,1.47,0,0,0,.457-1.129q0-1.7-1.875-1.7H3.07Z" transform="translate(8053.183 -6327.14)" fill="#707070"/>
      <path id="Trazado_705041" data-name="Trazado 705041" d="M7.453-4.281H8.742v1.82H7.453V0H5.2V-2.461H.531L.43-3.883l4.742-7.492H7.453Zm-4.773,0H5.2V-8.3l-.148.258Z" transform="translate(8115.442 -6327.14)" fill="#707070"/>
    </g>
    <g id="Grupo_974136" data-name="Grupo 974136" transform="translate(-500.327 3772.267)">
      <path id="Trazado_704796-3" data-name="Trazado 704796" d="M7.333,0H0" transform="translate(8056 -6349.474) rotate(90)" fill="none" stroke="#707070" stroke-width="1" stroke-dasharray="1"/>
      <path id="Trazado_704800-3" data-name="Trazado 704800" d="M7.333,0H0" transform="translate(8117 -6349.474) rotate(90)" fill="none" stroke="#707070" stroke-width="1" stroke-dasharray="1"/>
      <path id="Trazado_704797-3" data-name="Trazado 704797" d="M7.333,0H0" transform="translate(8000.472 -6349.474) rotate(90)" fill="none" stroke="#707070" stroke-width="1" stroke-dasharray="1"/>
      <path id="Trazado_704798-3" data-name="Trazado 704798" d="M7.333,0H0" transform="translate(7938.212 -6349.474) rotate(90)" fill="none" stroke="#707070" stroke-width="1" stroke-dasharray="1"/>
      <path id="Trazado_704799-3" data-name="Trazado 704799" d="M7.333,0H0" transform="translate(7881 -6349.474) rotate(90)" fill="none" stroke="#707070" stroke-width="1" stroke-dasharray="1"/>
      <path id="Trazado_705032" data-name="Trazado 705032" d="M8.43-4.7a5.762,5.762,0,0,1-.977,3.609A3.409,3.409,0,0,1,4.594.156,3.433,3.433,0,0,1,1.75-1.07,5.594,5.594,0,0,1,.742-4.586V-6.68A5.687,5.687,0,0,1,1.73-10.3a3.434,3.434,0,0,1,2.848-1.234,3.437,3.437,0,0,1,2.844,1.223A5.576,5.576,0,0,1,8.43-6.8Zm-2.258-2.3a4.165,4.165,0,0,0-.387-2.061,1.307,1.307,0,0,0-1.207-.645A1.284,1.284,0,0,0,3.4-9.1,3.9,3.9,0,0,0,3-7.177v2.768a4.372,4.372,0,0,0,.379,2.068,1.29,1.29,0,0,0,1.215.676,1.268,1.268,0,0,0,1.2-.649A4.268,4.268,0,0,0,6.172-4.3Z" transform="translate(7876.5 -6327.14)" fill="#707070"/>
      <path id="Trazado_705033" data-name="Trazado 705033" d="M6.258,0H4V-8.7l-2.7.836V-9.7l4.711-1.687h.242Z" transform="translate(7933.712 -6327.14)" fill="#707070"/>
      <path id="Trazado_705034" data-name="Trazado 705034" d="M8.57,0H.773V-1.547l3.68-3.922A9.078,9.078,0,0,0,5.574-6.914a2.322,2.322,0,0,0,.363-1.172,1.738,1.738,0,0,0-.383-1.191,1.382,1.382,0,0,0-1.094-.434,1.49,1.49,0,0,0-1.207.527A2.089,2.089,0,0,0,2.813-7.8H.547a3.729,3.729,0,0,1,.5-1.9,3.5,3.5,0,0,1,1.4-1.348A4.262,4.262,0,0,1,4.5-11.531a4.036,4.036,0,0,1,2.73.844A2.985,2.985,0,0,1,8.2-8.3a3.825,3.825,0,0,1-.437,1.719,9.551,9.551,0,0,1-1.5,2.039L3.68-1.82H8.57Z" transform="translate(7995.972 -6327.14)" fill="#707070"/>
      <path id="Trazado_705035" data-name="Trazado 705035" d="M3.07-6.687h1.2a1.7,1.7,0,0,0,1.273-.43,1.574,1.574,0,0,0,.414-1.141,1.392,1.392,0,0,0-.41-1.07,1.59,1.59,0,0,0-1.129-.383,1.666,1.666,0,0,0-1.086.355A1.137,1.137,0,0,0,2.9-8.43H.641a2.777,2.777,0,0,1,.48-1.6,3.2,3.2,0,0,1,1.344-1.105,4.485,4.485,0,0,1,1.9-.4,4.253,4.253,0,0,1,2.828.863A2.945,2.945,0,0,1,8.219-8.289a2.394,2.394,0,0,1-.477,1.438,3.1,3.1,0,0,1-1.25,1.008A2.826,2.826,0,0,1,7.926-4.812,2.8,2.8,0,0,1,8.4-3.187,2.994,2.994,0,0,1,7.293-.758,4.445,4.445,0,0,1,4.367.156a4.214,4.214,0,0,1-2.785-.9A2.934,2.934,0,0,1,.5-3.117H2.758a1.308,1.308,0,0,0,.48,1.047,1.771,1.771,0,0,0,1.184.406A1.779,1.779,0,0,0,5.684-2.09a1.47,1.47,0,0,0,.457-1.129q0-1.7-1.875-1.7H3.07Z" transform="translate(8053.183 -6327.14)" fill="#707070"/>
      <path id="Trazado_705036" data-name="Trazado 705036" d="M7.453-4.281H8.742v1.82H7.453V0H5.2V-2.461H.531L.43-3.883l4.742-7.492H7.453Zm-4.773,0H5.2V-8.3l-.148.258Z" transform="translate(8115.442 -6327.14)" fill="#707070"/>
    </g>
    <g id="Grupo_974137" data-name="Grupo 974137" transform="translate(-500.327 3720.807)">
      <path id="Trazado_704796-4" data-name="Trazado 704796" d="M7.333,0H0" transform="translate(8056 -6349.474) rotate(90)" fill="none" stroke="#707070" stroke-width="1" stroke-dasharray="1"/>
      <path id="Trazado_704800-4" data-name="Trazado 704800" d="M7.333,0H0" transform="translate(8117 -6349.474) rotate(90)" fill="none" stroke="#707070" stroke-width="1" stroke-dasharray="1"/>
      <path id="Trazado_704797-4" data-name="Trazado 704797" d="M7.333,0H0" transform="translate(8000.472 -6349.474) rotate(90)" fill="none" stroke="#707070" stroke-width="1" stroke-dasharray="1"/>
      <path id="Trazado_704798-4" data-name="Trazado 704798" d="M7.333,0H0" transform="translate(7938.212 -6349.474) rotate(90)" fill="none" stroke="#707070" stroke-width="1" stroke-dasharray="1"/>
      <path id="Trazado_704799-4" data-name="Trazado 704799" d="M7.333,0H0" transform="translate(7881 -6349.474) rotate(90)" fill="none" stroke="#707070" stroke-width="1" stroke-dasharray="1"/>
      <path id="Trazado_705027" data-name="Trazado 705027" d="M8.43-4.7a5.762,5.762,0,0,1-.977,3.609A3.409,3.409,0,0,1,4.594.156,3.433,3.433,0,0,1,1.75-1.07,5.594,5.594,0,0,1,.742-4.586V-6.68A5.687,5.687,0,0,1,1.73-10.3a3.434,3.434,0,0,1,2.848-1.234,3.437,3.437,0,0,1,2.844,1.223A5.576,5.576,0,0,1,8.43-6.8Zm-2.258-2.3a4.165,4.165,0,0,0-.387-2.061,1.307,1.307,0,0,0-1.207-.645A1.284,1.284,0,0,0,3.4-9.1,3.9,3.9,0,0,0,3-7.177v2.768a4.372,4.372,0,0,0,.379,2.068,1.29,1.29,0,0,0,1.215.676,1.268,1.268,0,0,0,1.2-.649A4.268,4.268,0,0,0,6.172-4.3Z" transform="translate(7876.5 -6327.14)" fill="#707070"/>
      <path id="Trazado_705028" data-name="Trazado 705028" d="M6.258,0H4V-8.7l-2.7.836V-9.7l4.711-1.687h.242Z" transform="translate(7933.712 -6327.14)" fill="#707070"/>
      <path id="Trazado_705029" data-name="Trazado 705029" d="M8.57,0H.773V-1.547l3.68-3.922A9.078,9.078,0,0,0,5.574-6.914a2.322,2.322,0,0,0,.363-1.172,1.738,1.738,0,0,0-.383-1.191,1.382,1.382,0,0,0-1.094-.434,1.49,1.49,0,0,0-1.207.527A2.089,2.089,0,0,0,2.813-7.8H.547a3.729,3.729,0,0,1,.5-1.9,3.5,3.5,0,0,1,1.4-1.348A4.262,4.262,0,0,1,4.5-11.531a4.036,4.036,0,0,1,2.73.844A2.985,2.985,0,0,1,8.2-8.3a3.825,3.825,0,0,1-.437,1.719,9.551,9.551,0,0,1-1.5,2.039L3.68-1.82H8.57Z" transform="translate(7995.972 -6327.14)" fill="#707070"/>
      <path id="Trazado_705030" data-name="Trazado 705030" d="M3.07-6.687h1.2a1.7,1.7,0,0,0,1.273-.43,1.574,1.574,0,0,0,.414-1.141,1.392,1.392,0,0,0-.41-1.07,1.59,1.59,0,0,0-1.129-.383,1.666,1.666,0,0,0-1.086.355A1.137,1.137,0,0,0,2.9-8.43H.641a2.777,2.777,0,0,1,.48-1.6,3.2,3.2,0,0,1,1.344-1.105,4.485,4.485,0,0,1,1.9-.4,4.253,4.253,0,0,1,2.828.863A2.945,2.945,0,0,1,8.219-8.289a2.394,2.394,0,0,1-.477,1.438,3.1,3.1,0,0,1-1.25,1.008A2.826,2.826,0,0,1,7.926-4.812,2.8,2.8,0,0,1,8.4-3.187,2.994,2.994,0,0,1,7.293-.758,4.445,4.445,0,0,1,4.367.156a4.214,4.214,0,0,1-2.785-.9A2.934,2.934,0,0,1,.5-3.117H2.758a1.308,1.308,0,0,0,.48,1.047,1.771,1.771,0,0,0,1.184.406A1.779,1.779,0,0,0,5.684-2.09a1.47,1.47,0,0,0,.457-1.129q0-1.7-1.875-1.7H3.07Z" transform="translate(8053.183 -6327.14)" fill="#707070"/>
      <path id="Trazado_705031" data-name="Trazado 705031" d="M7.453-4.281H8.742v1.82H7.453V0H5.2V-2.461H.531L.43-3.883l4.742-7.492H7.453Zm-4.773,0H5.2V-8.3l-.148.258Z" transform="translate(8115.442 -6327.14)" fill="#707070"/>
    </g>
    <path id="Trazado_705019" data-name="Trazado 705019" d="M-9.383,0V-11.375h3.5A5.315,5.315,0,0,1-3.2-10.7,4.712,4.712,0,0,1-1.352-8.777,5.928,5.928,0,0,1-.687-5.945v.523A5.945,5.945,0,0,1-1.34-2.6,4.672,4.672,0,0,1-3.18-.687,5.355,5.355,0,0,1-5.859,0Zm2.344-9.477v7.594h1.133a2.545,2.545,0,0,0,2.1-.9,4.06,4.06,0,0,0,.742-2.57v-.6a4.124,4.124,0,0,0-.719-2.629,2.537,2.537,0,0,0-2.1-.895Z" transform="translate(7370.673 -2472.397)" fill="#707070"/>
    <path id="Trazado_705020" data-name="Trazado 705020" d="M-.523-3.789A4.025,4.025,0,0,1-1.879-.9,4.76,4.76,0,0,1-5.1.156,4.28,4.28,0,0,1-8.543-1.316,6.038,6.038,0,0,1-9.8-5.359v-.7a6.819,6.819,0,0,1,.578-2.891,4.332,4.332,0,0,1,1.652-1.918,4.629,4.629,0,0,1,2.5-.668A4.637,4.637,0,0,1-1.9-10.477,4.326,4.326,0,0,1-.508-7.516H-2.852a2.376,2.376,0,0,0-.613-1.6,2.271,2.271,0,0,0-1.605-.5,1.991,1.991,0,0,0-1.754.84,4.707,4.707,0,0,0-.6,2.605V-5.3a5.038,5.038,0,0,0,.559,2.7A1.954,1.954,0,0,0-5.1-1.758a2.314,2.314,0,0,0,1.621-.5,2.241,2.241,0,0,0,.613-1.535Z" transform="translate(7370.673 -2527.77)" fill="#707070"/>
    <path id="Trazado_705021" data-name="Trazado 705021" d="M-9.2,0V-11.375h3.984a5.232,5.232,0,0,1,3.141.793A2.712,2.712,0,0,1-1-8.258a2.57,2.57,0,0,1-.43,1.473,2.482,2.482,0,0,1-1.2.934,2.4,2.4,0,0,1,1.379.883,2.61,2.61,0,0,1,.5,1.625A3,3,0,0,1-1.789-.859,4.713,4.713,0,0,1-4.773,0Zm2.344-4.953v3.07h2.008a1.938,1.938,0,0,0,1.293-.395,1.353,1.353,0,0,0,.465-1.09A1.428,1.428,0,0,0-4.7-4.953Zm0-1.656h1.734q1.773-.031,1.773-1.414a1.307,1.307,0,0,0-.449-1.113,2.363,2.363,0,0,0-1.418-.34H-6.852Z" transform="translate(7370.673 -2580.098)" fill="#707070"/>
    <path id="Trazado_705022" data-name="Trazado 705022" d="M-3.328-2.344H-7.437L-8.219,0h-2.492l4.234-11.375H-4.3L-.047,0H-2.539ZM-6.8-4.242h2.844L-5.391-8.5Z" transform="translate(7369.673 -2632.86)" fill="#707070"/>
    <path id="Trazado_704825" data-name="Trazado 704825" d="M0,16Z" transform="translate(7648 -2531)" fill="#ad84ff"/>
    <path id="Trazado_705023" data-name="Trazado 705023" d="M0,0H151V5H0Z" transform="translate(7381 -2640)" fill="#25ffff"/>
    <path id="Trazado_705024" data-name="Trazado 705024" d="M0,0H104V5H0Z" transform="translate(7381 -2588)" fill="#25ffff"/>
    <path id="Trazado_705025" data-name="Trazado 705025" d="M0,0H128V5H0Z" transform="translate(7381 -2536)" fill="#25ffff"/>
    <path id="Trazado_705026" data-name="Trazado 705026" d="M0,0H77V5H0Z" transform="translate(7380 -2480.063)" fill="#25ffff"/>
    <path id="Trazado_704826" data-name="Trazado 704826" d="M7782-2486.5v28.5" transform="translate(-357 -5.313)" fill="none" stroke="#12263f" stroke-width="1"/>
    <path id="Trazado_704827" data-name="Trazado 704827" d="M7782-2486.5v28.5" transform="translate(-325.5 -58.75)" fill="none" stroke="#12263f" stroke-width="1"/>
    <path id="Trazado_704828" data-name="Trazado 704828" d="M7782-2486.5v28.5" transform="translate(-262 -113.445)" fill="none" stroke="#12263f" stroke-width="1"/>
    <path id="Trazado_704829" data-name="Trazado 704829" d="M7782-2486.5v28.5" transform="translate(-256 -165.25)" fill="none" stroke="#12263f" stroke-width="1"/>
  </g>
</svg>
