<svg xmlns="http://www.w3.org/2000/svg" width="61" height="61" viewBox="0 0 61 61">
  <g id="Grupo_142439" data-name="Grupo 142439" transform="translate(-0.266 0.499)">
    <circle id="Elipse_4868" data-name="Elipse 4868" cx="30.5" cy="30.5" r="30.5" transform="translate(0.266 -0.499)" fill="#7125c8"/>
    <g id="XnpOKs" transform="translate(-456.035 391.887)">
      <g id="Grupo_169177" data-name="Grupo 169177" transform="translate(472.615 -384.196)">
        <path id="Trazado_204600" data-name="Trazado 204600" d="M478.461-379.433c.327-.791.422-1.677.888-1.968.5-.314,1.354-.071,2.2-.071,0-.649.016-1.212,0-1.774-.023-.624.194-.953.878-.95q4.8.023,9.6,0c.669,0,.923.293.9.932-.022.54,0,1.082,0,1.774a14.535,14.535,0,0,0,1.551-.01c.928-.1,1.315.277,1.228,1.2a6.038,6.038,0,0,0,.049.848c1.635,0,3.227-.005,4.818,0,1.152,0,1.271.118,1.271,1.264q.005,15.937.015,31.873c0,.9-.28,1.225-1.219,1.222q-13.392-.045-26.785,0c-.927,0-1.229-.3-1.227-1.213q.031-15.937.015-31.873c0-1.149.105-1.246,1.276-1.25C475.5-379.438,477.09-379.433,478.461-379.433Zm18.633,29.249v-27.884h-1.408c0,.767-.026,1.469.007,2.167.04.826-.314,1.127-1.139,1.123q-7.34-.035-14.681,0c-.855,0-1.141-.36-1.106-1.157.032-.717.007-1.437.007-2.138h-1.421v27.889Zm-23.081-27.909v31.636h26.441v-31.625h-1.967v1.174q0,13.347,0,26.693c0,1.413-.006,1.419-1.376,1.419h-19.78c-1.3,0-1.34-.04-1.34-1.365q0-13.395,0-26.789v-1.144Zm6.109,1.931h14.2v-3.988h-1.343c-.139,1.413-.139,1.414-1.5,1.415q-4.178,0-8.355,0c-1.432,0-1.432,0-1.68-1.4h-1.317Zm11.418-6.682h-8.583v2.694h8.583Z" transform="translate(-472.615 384.196)" fill="#fff"/>
        <path id="Trazado_204601" data-name="Trazado 204601" d="M574.512-247.466c0-.927.007-1.855,0-2.783-.007-.654.23-1.029.953-1.005.8.027,1.6.015,2.4,0,.606-.008.855.27.849.878q-.026,2.878,0,5.757c0,.651-.289.934-.928.924-.767-.012-1.536-.022-2.3,0-.713.024-.974-.337-.968-1C574.518-245.611,574.512-246.538,574.512-247.466Zm1.371-2.429v4.805H577.3V-249.9Z" transform="translate(-554.939 276.788)" fill="#fff"/>
        <path id="Trazado_204602" data-name="Trazado 204602" d="M552.417-240.7c0,.7-.011,1.405,0,2.108.013.63-.26.961-.905.96-.8,0-1.6-.005-2.4,0a.8.8,0,0,1-.931-.931c.012-1.405.014-2.811,0-4.216-.007-.633.257-.961.9-.959.8,0,1.6,0,2.4,0,.629,0,.947.283.935.93C552.407-242.109,552.417-241.406,552.417-240.7ZM551-239.015v-3.362h-1.412v3.362Z" transform="translate(-533.672 270.718)" fill="#fff"/>
        <path id="Trazado_204603" data-name="Trazado 204603" d="M522.049-233.851c.016-2.519-.28-2.232,2.248-2.242,1.933-.008,1.933,0,1.933,1.906,0,.606-.006,1.211,0,1.816.005.626-.268.946-.923.928-.732-.019-1.467-.029-2.2,0-.777.034-1.124-.286-1.064-1.073C522.077-232.957,522.049-233.4,522.049-233.851Zm1.353.986h1.464v-1.849H523.4Z" transform="translate(-512.545 264.543)" fill="#fff"/>
        <path id="Trazado_204604" data-name="Trazado 204604" d="M543.124-309.033c1.309,0,2.62-.038,3.926.028a1.137,1.137,0,0,1,.871.594c.134.586-.369.719-.859.72q-4.024,0-8.047,0c-.489,0-.994-.121-.869-.71a1.125,1.125,0,0,1,.859-.6C540.376-309.07,541.751-309.033,543.124-309.033Z" transform="translate(-525.545 323.478)" fill="#fff"/>
        <path id="Trazado_204605" data-name="Trazado 204605" d="M543.041-280.572c-1.341,0-2.685.037-4.023-.027a1.134,1.134,0,0,1-.871-.584c-.133-.575.354-.735.85-.735,2.683,0,5.367-.024,8.048.032.31.007.61.451.915.693-.3.207-.589.578-.9.594C545.726-280.534,544.383-280.572,543.041-280.572Z" transform="translate(-525.542 301.568)" fill="#fff"/>
        <path id="Trazado_204606" data-name="Trazado 204606" d="M511.969-321.257c-1.022,0-2.046.042-3.063-.026-.286-.019-.55-.361-.824-.556.268-.243.53-.688.8-.7,2.138-.058,4.278-.055,6.416,0,.272.007.535.406.8.623-.293.219-.574.6-.881.627C514.143-321.21,513.054-321.258,511.969-321.257Z" transform="translate(-501.27 334.413)" fill="#fff"/>
        <path id="Trazado_204607" data-name="Trazado 204607" d="M512.138-294.051c-1.053,0-2.108.046-3.155-.029-.311-.022-.6-.386-.894-.594.278-.225.551-.637.835-.645q3.155-.084,6.313,0c.3.008.581.416.871.639-.3.21-.594.576-.91.6C514.183-294,513.158-294.051,512.138-294.051Z" transform="translate(-501.275 312.423)" fill="#fff"/>
        <path id="Trazado_204608" data-name="Trazado 204608" d="M512.1-268.188c1.052,0,2.106-.04,3.154.027.293.019.566.356.848.548-.279.23-.553.653-.838.66-2.134.056-4.27.052-6.4,0-.263-.006-.517-.4-.774-.607.255-.21.5-.585.766-.6C509.933-268.23,511.02-268.189,512.1-268.188Z" transform="translate(-501.275 290.48)" fill="#fff"/>
        <path id="Trazado_204609" data-name="Trazado 204609" d="M561.534-321.294a18.333,18.333,0,0,1-2.2-.03c-.287-.035-.534-.4-.8-.615.264-.221.519-.621.792-.633,1.434-.065,2.875-.069,4.309,0,.283.014.545.445.817.684-.27.2-.524.532-.814.567A17.379,17.379,0,0,1,561.534-321.294Z" transform="translate(-542.033 334.448)" fill="#fff"/>
        <path id="Trazado_204610" data-name="Trazado 204610" d="M561.529-295.342a20.533,20.533,0,0,1,2.2.027c.259.028.485.367.726.564-.239.232-.47.654-.718.664-1.5.063-3,.059-4.495,0-.241-.009-.468-.4-.7-.611.232-.215.446-.588.7-.615A21.418,21.418,0,0,1,561.529-295.342Z" transform="translate(-542.035 312.421)" fill="#fff"/>
        <path id="Trazado_204611" data-name="Trazado 204611" d="M561.577-268.205a20.348,20.348,0,0,1,2.2.029c.246.027.457.383.684.588-.222.214-.438.6-.668.613-1.5.057-3,.063-4.492,0-.26-.011-.5-.42-.755-.646.278-.2.541-.526.838-.559A19.555,19.555,0,0,1,561.577-268.205Z" transform="translate(-542.039 290.498)" fill="#fff"/>
        <path id="Trazado_204612" data-name="Trazado 204612" d="M510.078-307.722a5.514,5.514,0,0,1-1.328-.028c-.265-.067-.459-.41-.685-.63.218-.222.423-.618.658-.637a16.677,16.677,0,0,1,2.76,0c.232.02.549.409.6.673.031.161-.342.536-.581.586a7.061,7.061,0,0,1-1.424.028Z" transform="translate(-501.257 323.501)" fill="#fff"/>
        <path id="Trazado_204613" data-name="Trazado 204613" d="M510.054-280.638a4.506,4.506,0,0,1-1.232-.027c-.29-.085-.506-.42-.755-.643.226-.221.436-.612.68-.633a14.328,14.328,0,0,1,2.665,0c.258.026.476.458.713.7-.245.2-.464.509-.74.573A6.059,6.059,0,0,1,510.054-280.638Z" transform="translate(-501.258 301.631)" fill="#fff"/>
      </g>
    </g>
  </g>
</svg>
