<svg xmlns="http://www.w3.org/2000/svg" xmlns:xlink="http://www.w3.org/1999/xlink" width="60" height="61" viewBox="0 0 60 61">
  <defs>
    <linearGradient id="linear-gradient" x1="0.5" x2="0.5" y2="1" gradientUnits="objectBoundingBox">
      <stop offset="0" stop-color="#25ffff"/>
      <stop offset="1" stop-color="#25ffff"/>
    </linearGradient>
  </defs>
  <g id="Grupo_166865" data-name="Grupo 166865" transform="translate(-0.384 0.499)">
    <ellipse id="Elipse_4869" data-name="Elipse 4869" cx="30" cy="30.5" rx="30" ry="30.5" transform="translate(0.384 -0.499)" fill="url(#linear-gradient)"/>
    <g id="_1uOKYC" data-name="1uOKYC" transform="translate(-357.191 1301.478)">
      <g id="Grupo_169180" data-name="Grupo 169180" transform="translate(368.373 -1290.099)">
        <path id="Trazado_204623" data-name="Trazado 204623" d="M485.555-1143.936h1.158v.61q0,3.682,0,7.363c0,.384-.055.822.526.851.485.024.72-.261.721-.886,0-2.842-.009-5.684,0-8.526a2.1,2.1,0,0,0-1.156-2.047c-1-.507-2.036-.95-3.066-1.4a.746.746,0,0,0-.478.02,2.879,2.879,0,0,1-1.9-.023.7.7,0,0,0-.469-.012c-.961.422-1.926.84-2.863,1.313a2.315,2.315,0,0,0-1.319,2.3c.035,2.786.007,5.573.02,8.359a1.06,1.06,0,0,0,.21.7.778.778,0,0,0,.693.142.778.778,0,0,0,.312-.609c.021-2.491.014-4.982.014-7.474v-.656h1.181c.091,4.681.182,9.337.274,14.054l-1.079.087-.33-4.077c-.238,0-.438,0-.638,0a1.845,1.845,0,0,1-1.88-1.852q-.024-4.567,0-9.134a2.957,2.957,0,0,1,1.4-2.568c.8-.515,1.687-.9,2.538-1.331.161-.082.331-.145.424-.185a13.279,13.279,0,0,1-.593-2.018,3.406,3.406,0,0,1,1.107-3.051,2.868,2.868,0,0,1,4.04.077,3.752,3.752,0,0,1,.638,4.352c-.1.193-.217.38-.343.6.719.324,1.419.636,2.116.954a3.747,3.747,0,0,1,2.417,3.783c-.056,2.675-.013,5.351-.015,8.027,0,1.714-.769,2.437-2.533,2.314l-.344,4.1-1.073-.066C485.366-1134.561,485.46-1139.219,485.555-1143.936Zm-1.372-7.542a.54.54,0,0,0,0-.187,2.1,2.1,0,0,0-1.21-1.728,1.537,1.537,0,0,0-1.7.274,2.547,2.547,0,0,0-.292,3.362,1.648,1.648,0,0,0,2.391.326A2.34,2.34,0,0,0,484.183-1151.478Z" transform="translate(-463.618 1169.769)" fill="#12263f"/>
        <path id="Trazado_204624" data-name="Trazado 204624" d="M378.373-1289.809v2.6c.722.311,1.392.611,2.074.883a.5.5,0,0,0,.418-.06,5.336,5.336,0,0,0,.563-.616l.929.889-.616.671a8.093,8.093,0,0,1,2.793,7.23,7.8,7.8,0,0,1-2.98,5.316,8.125,8.125,0,0,1-11.068-.858,8.174,8.174,0,0,1,.742-11.692l-.6-.651.877-.8s.049,0,.066.021a1.016,1.016,0,0,0,1.6.265,7.554,7.554,0,0,1,1.444-.561v-2.636Zm-1.933,17.44a6.859,6.859,0,0,0,6.912-6.863,6.9,6.9,0,0,0-6.873-6.865,6.9,6.9,0,0,0-6.856,6.882A6.857,6.857,0,0,0,376.44-1272.369Zm-.508-16.182v1.2h1.135v-1.2Z" transform="translate(-368.373 1289.841)" fill="#12263f"/>
        <path id="Trazado_204625" data-name="Trazado 204625" d="M569.356-1271.364a9.388,9.388,0,0,1-9.446-9.293,9.4,9.4,0,0,1,9.243-9.441,9.368,9.368,0,0,1,9.483,9.13A9.356,9.356,0,0,1,569.356-1271.364Zm-8.172-9.373a8.083,8.083,0,0,0,8.024,8.113,8.112,8.112,0,0,0,8.187-8.071,8.1,8.1,0,0,0-8.064-8.136A8.072,8.072,0,0,0,561.184-1280.736Z" transform="translate(-538.695 1290.099)" fill="#12263f"/>
        <path id="Trazado_204626" data-name="Trazado 204626" d="M532.061-970.637h1.186v4.533h-1.186Z" transform="translate(-513.931 1006.021)" fill="#12263f"/>
        <path id="Trazado_204627" data-name="Trazado 204627" d="M622.22-1089.056l.571,1.111-3.618,1.812-.564-1.116Z" transform="translate(-590.892 1111.324)" fill="#12263f"/>
        <path id="Trazado_204628" data-name="Trazado 204628" d="M416.264-984.693l-.567-1.113,3.6-1.811.579,1.112Z" transform="translate(-410.455 1021.12)" fill="#12263f"/>
        <path id="Trazado_204629" data-name="Trazado 204629" d="M415.772-1087.98l.555-1.121,3.611,1.8-.557,1.121Z" transform="translate(-410.522 1111.364)" fill="#12263f"/>
        <path id="Trazado_204630" data-name="Trazado 204630" d="M622.79-985.841l-.557,1.118-3.619-1.805.565-1.122Z" transform="translate(-590.897 1021.15)" fill="#12263f"/>
        <path id="Trazado_204631" data-name="Trazado 204631" d="M635.868-1030.313v1.162h-3.689v-1.162Z" transform="translate(-602.959 1059.087)" fill="#12263f"/>
        <path id="Trazado_204632" data-name="Trazado 204632" d="M406.715-1029.252v-1.18H410.4v1.18Z" transform="translate(-402.468 1059.193)" fill="#12263f"/>
        <path id="Trazado_204633" data-name="Trazado 204633" d="M435.423-1223.606l1.2.3L436.08-1221l1.022.053v1.188h-2.64Z" transform="translate(-427.142 1230.971)" fill="#12263f"/>
        <path id="Trazado_204634" data-name="Trazado 204634" d="M482.5-1198.652h-1.187v-1.238H482.5Z" transform="translate(-468.804 1209.882)" fill="#12263f"/>
        <path id="Trazado_204635" data-name="Trazado 204635" d="M437.5-1154.329v1.171h-1.2v-1.171Z" transform="translate(-428.781 1169.367)" fill="#12263f"/>
        <path id="Trazado_204636" data-name="Trazado 204636" d="M457.068-1161.07l-.607-1.076,1.081-.608.629,1.063Z" transform="translate(-446.704 1176.86)" fill="#12263f"/>
        <path id="Trazado_204637" data-name="Trazado 204637" d="M435.99-1243.378v-1.174h1.174v1.174Z" transform="translate(-428.501 1249.597)" fill="#12263f"/>
        <path id="Trazado_204638" data-name="Trazado 204638" d="M396.056-1179.3l.591,1.073-1.042.633-.638-1.1Z" transform="translate(-392.021 1191.574)" fill="#12263f"/>
        <path id="Trazado_204639" data-name="Trazado 204639" d="M391.219-1199.457h1.174v1.185h-1.174Z" transform="translate(-388.689 1209.497)" fill="#12263f"/>
        <path id="Trazado_204640" data-name="Trazado 204640" d="M476.9-1219.9l.318.526-1.031.65-.329-.529Z" transform="translate(-463.95 1227.678)" fill="#12263f"/>
        <path id="Trazado_204641" data-name="Trazado 204641" d="M474.532-1173.714l-.307.544-1.067-.591.288-.544Z" transform="translate(-461.552 1187.131)" fill="#12263f"/>
        <path id="Trazado_204642" data-name="Trazado 204642" d="M412.131-1162.782l.528.3-.578,1.087-.543-.323Z" transform="translate(-406.757 1176.884)" fill="#12263f"/>
        <path id="Trazado_204643" data-name="Trazado 204643" d="M462-1236.924l-.555-.276.573-1.093.531.3Z" transform="translate(-451.139 1244.031)" fill="#12263f"/>
        <path id="Trazado_204644" data-name="Trazado 204644" d="M399.111-1223.661l-.306.536-1.065-.584.289-.548Z" transform="translate(-394.487 1231.55)" fill="#12263f"/>
        <path id="Trazado_204645" data-name="Trazado 204645" d="M417.307-1239.942l-.521.339-.644-1.022.5-.364Z" transform="translate(-410.852 1246.429)" fill="#12263f"/>
        <path id="Trazado_204646" data-name="Trazado 204646" d="M589.462-1267.5a6.879,6.879,0,0,1,6.864,6.875,6.882,6.882,0,0,1-6.884,6.857,6.857,6.857,0,0,1-6.851-6.932A6.853,6.853,0,0,1,589.462-1267.5Zm-.01,1.241a5.651,5.651,0,0,0-5.62,5.651,5.659,5.659,0,0,0,5.62,5.6,5.659,5.659,0,0,0,5.62-5.654A5.652,5.652,0,0,0,589.452-1266.255Z" transform="translate(-558.865 1270)" fill="#12263f"/>
        <path id="Trazado_204647" data-name="Trazado 204647" d="M613.7-1240.591a4.358,4.358,0,0,1-4.463,4.312,4.4,4.4,0,0,1-4.285-4.506,4.413,4.413,0,0,1,4.395-4.236A4.37,4.37,0,0,1,613.7-1240.591Zm-7.477-.066a3.116,3.116,0,0,0,3.13,3.129,3.118,3.118,0,0,0,3.1-3.108,3.109,3.109,0,0,0-3.132-3.124A3.106,3.106,0,0,0,606.219-1240.657Z" transform="translate(-578.742 1250.015)" fill="#12263f"/>
        <path id="Trazado_204648" data-name="Trazado 204648" d="M627.648-1220.6a1.876,1.876,0,0,1,1.856-1.88,1.9,1.9,0,0,1,1.892,1.852,1.89,1.89,0,0,1-1.892,1.905A1.876,1.876,0,0,1,627.648-1220.6Zm2.563.146,0-.255c-.219-.17-.419-.441-.662-.486a.547.547,0,0,0-.65.581.545.545,0,0,0,.625.605C629.773-1220.047,629.984-1220.3,630.211-1220.456Z" transform="translate(-598.93 1229.971)" fill="#12263f"/>
      </g>
    </g>
  </g>
</svg>
