<svg xmlns="http://www.w3.org/2000/svg" width="256.768" height="244.23" viewBox="0 0 256.768 244.23">
  <g id="Grupo_974025" data-name="Grupo 974025" transform="translate(-983.232 -2487.77)">
    <rect id="Rectángulo_49533" data-name="Rectángulo 49533" width="220" height="169" transform="translate(1020 2563)" fill="#ad84ff"/>
    <g id="programador" transform="translate(953.861 2487.77)">
      <path id="Trazado_177936" data-name="Trazado 177936" d="M183.9,360.315c-.145-.731-9.017-45.3-9.115-45.756A17.273,17.273,0,0,0,166.6,302.9a19.66,19.66,0,0,0-5.629-2.282l-30.25-10.573a4.417,4.417,0,0,1-2.985-4.179v-9.263a38,38,0,0,1-34.522.165v9.1a4.417,4.417,0,0,1-2.985,4.179L77.79,294.312h-.012v0l-17.791,6.3-2.34.691a17.9,17.9,0,0,0-9.959,8.768c-1.424,2.887-1,1.873-7.909,36.551-2.558,13.246-3.123,14.211-2.8,17.17.89,8.272,9.4,7.409,9.629,7.509H174.349C174.439,371.279,185.568,372.127,183.9,360.315Z" transform="translate(-4.398 -161.659)" fill="#ff8578"/>
      <path id="Trazado_177937" data-name="Trazado 177937" d="M47.443,392.045l9.114-49.912A17.4,17.4,0,0,1,64.085,330.9c-7.652,2.711-5.28,1.626-7.632,2.634a17.438,17.438,0,0,0-9.581,10.214c-.679,1.928-.239.233-7.094,34.614-2.558,13.246-3.123,14.212-2.8,17.17.89,8.272,9.4,7.409,9.629,7.509H56.995C49.663,403.04,46.495,398.753,47.443,392.045Z" transform="translate(-4.396 -193.389)" fill="#ff8578"/>
      <path id="Trazado_177938" data-name="Trazado 177938" d="M65.42,468.751H46.614c-.241-.105-9.939.869-9.7-9.241.053-2.156.322-2.247,2.87-15.439l.147-.739H65.42Z" transform="translate(-4.408 -259.1)" fill="#dd9a5e"/>
      <path id="Trazado_177939" data-name="Trazado 177939" d="M50.09,443.332H39.937l-.147.739c-2.557,13.238-2.817,13.28-2.87,15.439-.242,10.077,9.506,9.158,9.7,9.241H57.007c-6.752,0-9.833-3.552-9.7-9.241C47.327,458.85,47.572,457.469,50.09,443.332Z" transform="translate(-4.409 -259.1)" fill="#d18c54"/>
      <path id="Trazado_177940" data-name="Trazado 177940" d="M172.409,276.068c0,25.84,0-4.154,0,16.2h.011v.622a9.619,9.619,0,0,0,6.561,9.122,35.021,35.021,0,0,0,21.377,0,9.619,9.619,0,0,0,6.561-9.122v-.622h.011c0-4.05,0-14.032,0-16.2A36.189,36.189,0,0,1,172.409,276.068Z" transform="translate(-83.597 -161.344)" fill="#dd9a5e"/>
      <path id="Trazado_177941" data-name="Trazado 177941" d="M182.813,295.721H182.8c0-21.634,0-14.425,0-15.936a37.851,37.851,0,0,1-10.391-3.717c0,25.84,0-4.154,0,16.2h.011v.622a9.619,9.619,0,0,0,6.561,9.122,32.028,32.028,0,0,0,6.112,1.389A12.3,12.3,0,0,1,182.813,295.721Z" transform="translate(-83.597 -161.344)" fill="#d18c54"/>
      <path id="Trazado_177942" data-name="Trazado 177942" d="M101.128,418.8a3.117,3.117,0,0,0-3.117,3.117v32.5h6.235v-32.5A3.117,3.117,0,0,0,101.128,418.8Z" transform="translate(-40.116 -244.76)" fill="#566a75"/>
      <path id="Trazado_177943" data-name="Trazado 177943" d="M304.142,487.631H203.222a7.624,7.624,0,0,1-7.624-7.624h0a4.37,4.37,0,0,1,4.37-4.37H307.4a4.37,4.37,0,0,1,4.37,4.37h0A7.624,7.624,0,0,1,304.142,487.631Z" transform="translate(-97.149 -277.98)" fill="#c6c6c6"/>
      <path id="Trazado_177944" data-name="Trazado 177944" d="M215.236,480.008h0a4.37,4.37,0,0,1,4.37-4.37H199.968a4.37,4.37,0,0,0-4.37,4.37h0a7.624,7.624,0,0,0,7.624,7.624H222.86A7.624,7.624,0,0,1,215.236,480.008Z" transform="translate(-97.149 -277.98)" fill="#b7b7b7"/>
      <path id="Trazado_177945" data-name="Trazado 177945" d="M310.536,315.049h-87.7a5,5,0,0,0-4.988,4.988V376.8a5,5,0,0,0,4.988,4.988h87.7a5,5,0,0,0,4.988-4.988v-56.76A5,5,0,0,0,310.536,315.049Z" transform="translate(-110.154 -184.126)" fill="#ededed"/>
      <g id="Grupo_165745" data-name="Grupo 165745" transform="translate(107.696 130.923)">
        <path id="Trazado_177946" data-name="Trazado 177946" d="M228.241,376.8v-56.76a5,5,0,0,1,4.988-4.988H222.838a5,5,0,0,0-4.988,4.988V376.8a5,5,0,0,0,4.988,4.988h10.391A5,5,0,0,1,228.241,376.8Z" transform="translate(-217.85 -315.049)" fill="#dadada"/>
        <circle id="Elipse_5193" data-name="Elipse 5193" cx="7.204" cy="7.204" r="7.204" transform="translate(41.632 26.161)" fill="#dadada"/>
      </g>
      <path id="Trazado_177947" data-name="Trazado 177947" d="M325.227,378.02a7.2,7.2,0,1,0,6.232,10.8A7.2,7.2,0,0,1,325.227,378.02Z" transform="translate(-168.691 -220.929)" fill="#c6c6c6"/>
      <path id="Trazado_177948" data-name="Trazado 177948" d="M142.043,7.574A49.884,49.884,0,0,0,92.525,57.443v18.9h99.752V48.069c0-19.312-11.881-23.761-11.881-23.761C165.62,6.09,142.063,7.574,142.063,7.574" transform="translate(-36.909 -4.409)" fill="#12263f"/>
      <path id="Trazado_177949" data-name="Trazado 177949" d="M148.777,7.844A50.039,50.039,0,0,0,92.564,55.45c-.079,2.02-.026,1.265-.042,20.865H104.4v-18.9A49.878,49.878,0,0,1,148.777,7.844Z" transform="translate(-36.906 -4.382)" fill="#12263f"/>
      <g id="Grupo_165746" data-name="Grupo 165746" transform="translate(54.45 65.387)">
        <path id="Trazado_177950" data-name="Trazado 177950" d="M102.767,157.957c-6.256-2.229-13.047,1.917-13.047,7.965s6.79,10.195,13.047,7.965Z" transform="translate(-89.72 -157.345)" fill="#dd9a5e"/>
        <path id="Trazado_177951" data-name="Trazado 177951" d="M303.974,157.957c6.256-2.229,13.047,1.917,13.047,7.965s-6.79,10.195-13.047,7.965Z" transform="translate(-214.938 -157.345)" fill="#dd9a5e"/>
      </g>
      <g id="Grupo_165747" data-name="Grupo 165747" transform="translate(54.429 70.301)">
        <path id="Trazado_177952" data-name="Trazado 177952" d="M90.6,169.17c-3.654,6.937,4.04,14.512,12.134,11.628v-7.326C98.017,175.154,92.739,173.225,90.6,169.17Z" transform="translate(-89.669 -169.17)" fill="#d18c54"/>
        <path id="Trazado_177953" data-name="Trazado 177953" d="M303.974,173.472V180.8c8.094,2.884,15.788-4.69,12.134-11.628C314.58,172.071,308.7,175.155,303.974,173.472Z" transform="translate(-214.917 -169.17)" fill="#d18c54"/>
      </g>
      <path id="Trazado_177954" data-name="Trazado 177954" d="M195.384,106.9a1.886,1.886,0,0,1,1.715,1.871c0,31.989.021,29.574-.054,31.061A37.9,37.9,0,0,1,185.623,165.1c-23.716,23.124-63.291,6.725-64.482-25.711-.055-1.43-.032-18-.032-17.951a12.211,12.211,0,0,1,13.985-12.069c11.613,1.676,28.563,1.025,43.353-11.617a3.139,3.139,0,0,1,4.8.869A15.352,15.352,0,0,0,195.384,106.9Z" transform="translate(-53.613 -56.684)" fill="#edae6b"/>
      <path id="Trazado_177955" data-name="Trazado 177955" d="M131.536,156.808c-.048-1.227-.037-23.67-.034-30.01a12.2,12.2,0,0,0-10.394,12.059c0-.047-.023,16.522.032,17.951.877,23.915,22.622,39.108,43.491,36.174C147.5,190.613,132.268,176.741,131.536,156.808Z" transform="translate(-53.612 -74.105)" fill="#dd9a5e"/>
      <path id="Trazado_177956" data-name="Trazado 177956" d="M310.522,380.826a10.322,10.322,0,1,0,10.321-10.321A10.333,10.333,0,0,0,310.522,380.826Zm14.408,0a4.087,4.087,0,1,1-4.087-4.087A4.092,4.092,0,0,1,324.93,380.826Z" transform="translate(-164.315 -216.537)"/>
      <path id="Trazado_177957" data-name="Trazado 177957" d="M210.243,194.54h-1.987c.426-1.8.143-.481.226-32.241a3.117,3.117,0,1,0-6.234,0V192.67a1.9,1.9,0,0,1-1.87,1.87h-87.7a1.9,1.9,0,0,1-1.87-1.87v-56.76a1.9,1.9,0,0,1,1.87-1.87h87.7a1.9,1.9,0,0,1,1.87,1.87v11.842a3.117,3.117,0,1,0,6.234,0V135.911a8.114,8.114,0,0,0-8.1-8.1h-66.1l-6.952-2.365a1.3,1.3,0,0,1-.878-1.23v-7.64a41.07,41.07,0,0,0,19.912-30.934c9.54.442,16.079-8.667,12.121-16.566V43.659c0-18.378-9.995-24.771-13.048-26.3C127.821-3.659,91.522-6.718,69.218,14.41a3.121,3.121,0,0,0,2.135,5.39c2.3,0,1.946-1.607,9.042-6.221.526-.341,1.545-.942,1.5-.918,18.381-11.033,45.494-7.653,59.163,9.2a2.994,2.994,0,0,0,1.3.943c.4.162,9.889,4.154,9.889,20.853V63.334a13.419,13.419,0,0,0-5.647-1.051v-10.2a4.985,4.985,0,0,0-4.532-4.973,12.312,12.312,0,0,1-9.715-6.693A6.257,6.257,0,0,0,122.8,38.7c-13.9,11.882-29.9,12.486-40.882,10.9a15.336,15.336,0,0,0-17.348,12.69,13.479,13.479,0,0,0-5.846,1.046c.2-9.708-1.453-20.216,6.237-33.625a3.117,3.117,0,1,0-5.408-3.1c-4.69,8.178-6.958,17.626-7.018,24.341-.078,2.01-.031,1.275-.044,18.124-3.964,7.91,2.6,17.007,12.121,16.566a41.134,41.134,0,0,0,21.076,31.605v6.969a1.3,1.3,0,0,1-.876,1.229c-12.356,4.32,2.2-.933-30.19,10.555a21.361,21.361,0,0,0-3.317,1.075,20.657,20.657,0,0,0-12.63,15.362c-9.724,48.841-9.354,46.071-9.288,48.727h0c.3,7.7,5.227,11.61,12.813,11.61h74.081a3.117,3.117,0,1,0,0-6.234H106.069c-4.357,0-5.8-5.759-3.254-5.759H210.243c2.55,0,1.09,5.759-3.254,5.759H130.831a3.117,3.117,0,1,0,0,6.234h76.157a10.754,10.754,0,0,0,10.741-10.741A7.494,7.494,0,0,0,210.243,194.54ZM91.925,120.019a40.9,40.9,0,0,0,24.24.893l-.007-.025.042-.012.007.025a38.4,38.4,0,0,0,4.005-1.31V127.8h-7.534a8.114,8.114,0,0,0-8.1,8.1v3.277a29.159,29.159,0,0,1-8.2-1.477,6.493,6.493,0,0,1-4.433-6.166C91.929,123.98,91.949,128.6,91.925,120.019Zm61.487-46.056c0,3.244-3.252,5.633-6.813,5.444V68.519C150.193,68.329,153.412,70.751,153.412,73.963ZM141.467,53.318ZM57.562,73.963c0-3.244,3.252-5.633,6.813-5.444V79.408C60.781,79.6,57.562,77.176,57.562,73.963Zm13.1,9.022c-.079-1.442-.04-.921-.05-16.987a9.62,9.62,0,0,1,3.129-8.1,9.138,9.138,0,0,1,7.293-2.132c12.252,1.77,30.15,1.065,45.824-12.333l.046.012h0a18.5,18.5,0,0,0,13.463,9.733c0,28.176.365,30.923-1.036,36.5a35.544,35.544,0,0,1-4.159,9.848C116.877,128.441,72.364,117.074,70.659,82.985ZM42.2,206.534c-5.336,0-6.293-2.525-6.53-4.726-.247-2.294.262-3.323,2.408-14.459H57.89v19.184Zm60.611-11.994c-5.065,0-9.039,4.907-6.879,11.046.089.254.241.641.384.948H64.125V177.154a3.117,3.117,0,1,0-6.234,0v3.962H39.322c5.88-29.513,5.543-28.278,6.184-29.979a13.983,13.983,0,0,1,5.938-7.151,16.255,16.255,0,0,1,5.005-2.028c.165-.047-.936.336,17.968-6.361h0l11.29-3.872a12.716,12.716,0,0,0,8.681,11.9,35.438,35.438,0,0,0,10.184,1.8c.2,47.432-.284,47,.218,49.12h-1.978Z" transform="translate(0)"/>
    </g>
  </g>
</svg>
