<svg xmlns="http://www.w3.org/2000/svg" xmlns:xlink="http://www.w3.org/1999/xlink" width="376" height="223" viewBox="0 0 376 223">
  <defs>
    <radialGradient id="radial-gradient" cx="0.5" cy="0.5" r="0.5" gradientUnits="objectBoundingBox">
      <stop offset="0" stop-color="#b1ffff"/>
      <stop offset="1" stop-color="#02b9b9"/>
    </radialGradient>
    <radialGradient id="radial-gradient-4" cx="0.5" cy="0.5" r="0.5" gradientUnits="objectBoundingBox">
      <stop offset="0" stop-color="#ad84ff"/>
      <stop offset="1" stop-color="#7125c8"/>
    </radialGradient>
    <radialGradient id="radial-gradient-7" cx="0.5" cy="0.5" r="0.5" gradientUnits="objectBoundingBox">
      <stop offset="0" stop-color="#dbfdfd"/>
      <stop offset="1" stop-color="#005acf"/>
    </radialGradient>
    <radialGradient id="radial-gradient-10" cx="0.5" cy="0.5" r="0.5" gradientUnits="objectBoundingBox">
      <stop offset="0" stop-color="#dee9f0"/>
      <stop offset="1" stop-color="#8c8d8d"/>
    </radialGradient>
  </defs>
  <g id="Grupo_974143" data-name="Grupo 974143" transform="translate(-7299 3254)">
    <g id="Grupo_974132" data-name="Grupo 974132" transform="translate(-22 1803)">
      <g id="Grupo_974118" data-name="Grupo 974118">
        <rect id="Rectángulo_339947" data-name="Rectángulo 339947" width="376" height="223" rx="16" transform="translate(7321 -5057)" fill="#fff"/>
        <g id="Grupo_974117" data-name="Grupo 974117" transform="translate(-500 1467.82)">
          <path id="Trazado_704795" data-name="Trazado 704795" d="M7860.667-6340.667H8128" transform="translate(0 2)" fill="none" stroke="#707070" stroke-width="5"/>
          <path id="Trazado_704796" data-name="Trazado 704796" d="M7868.667-6386.5H8128" fill="none" stroke="#707070" stroke-width="1" stroke-dasharray="1"/>
          <path id="Trazado_704797" data-name="Trazado 704797" d="M7868.667-6386.5H8128" transform="translate(0 -33)" fill="none" stroke="#707070" stroke-width="1" stroke-dasharray="1"/>
          <path id="Trazado_704798" data-name="Trazado 704798" d="M7868.667-6386.5H8128" transform="translate(0 -70)" fill="none" stroke="#707070" stroke-width="1" stroke-dasharray="1"/>
          <path id="Trazado_704799" data-name="Trazado 704799" d="M7868.667-6386.5H8128" transform="translate(0 -104)" fill="none" stroke="#707070" stroke-width="1" stroke-dasharray="1"/>
          <path id="Trazado_704992" data-name="Trazado 704992" d="M8.43-4.7a5.762,5.762,0,0,1-.977,3.609A3.409,3.409,0,0,1,4.594.156,3.433,3.433,0,0,1,1.75-1.07,5.594,5.594,0,0,1,.742-4.586V-6.68A5.687,5.687,0,0,1,1.73-10.3a3.434,3.434,0,0,1,2.848-1.234,3.437,3.437,0,0,1,2.844,1.223A5.576,5.576,0,0,1,8.43-6.8Zm-2.258-2.3a4.165,4.165,0,0,0-.387-2.061,1.307,1.307,0,0,0-1.207-.645A1.284,1.284,0,0,0,3.4-9.1,3.9,3.9,0,0,0,3-7.177v2.768a4.372,4.372,0,0,0,.379,2.068,1.29,1.29,0,0,0,1.215.676,1.268,1.268,0,0,0,1.2-.649A4.268,4.268,0,0,0,6.172-4.3Z" transform="translate(7855 -6349)" fill="#707070"/>
          <path id="Trazado_704993" data-name="Trazado 704993" d="M6.258,0H4V-8.7l-2.7.836V-9.7l4.711-1.687h.242Z" transform="translate(7894 -6319)" fill="#707070"/>
          <path id="Trazado_704994" data-name="Trazado 704994" d="M8.57,0H.773V-1.547l3.68-3.922A9.078,9.078,0,0,0,5.574-6.914a2.322,2.322,0,0,0,.363-1.172,1.738,1.738,0,0,0-.383-1.191,1.382,1.382,0,0,0-1.094-.434,1.49,1.49,0,0,0-1.207.527A2.089,2.089,0,0,0,2.813-7.8H.547a3.729,3.729,0,0,1,.5-1.9,3.5,3.5,0,0,1,1.4-1.348A4.262,4.262,0,0,1,4.5-11.531a4.036,4.036,0,0,1,2.73.844A2.985,2.985,0,0,1,8.2-8.3a3.825,3.825,0,0,1-.437,1.719,9.551,9.551,0,0,1-1.5,2.039L3.68-1.82H8.57Z" transform="translate(7945.17 -6319)" fill="#707070"/>
          <path id="Trazado_704995" data-name="Trazado 704995" d="M3.07-6.687h1.2a1.7,1.7,0,0,0,1.273-.43,1.574,1.574,0,0,0,.414-1.141,1.392,1.392,0,0,0-.41-1.07,1.59,1.59,0,0,0-1.129-.383,1.666,1.666,0,0,0-1.086.355A1.137,1.137,0,0,0,2.9-8.43H.641a2.777,2.777,0,0,1,.48-1.6,3.2,3.2,0,0,1,1.344-1.105,4.485,4.485,0,0,1,1.9-.4,4.253,4.253,0,0,1,2.828.863A2.945,2.945,0,0,1,8.219-8.289a2.394,2.394,0,0,1-.477,1.438,3.1,3.1,0,0,1-1.25,1.008A2.826,2.826,0,0,1,7.926-4.812,2.8,2.8,0,0,1,8.4-3.187,2.994,2.994,0,0,1,7.293-.758,4.445,4.445,0,0,1,4.367.156a4.214,4.214,0,0,1-2.785-.9A2.934,2.934,0,0,1,.5-3.117H2.758a1.308,1.308,0,0,0,.48,1.047,1.771,1.771,0,0,0,1.184.406A1.779,1.779,0,0,0,5.684-2.09a1.47,1.47,0,0,0,.457-1.129q0-1.7-1.875-1.7H3.07Z" transform="translate(8002.593 -6319)" fill="#707070"/>
          <path id="Trazado_704996" data-name="Trazado 704996" d="M7.453-4.281H8.742v1.82H7.453V0H5.2V-2.461H.531L.43-3.883l4.742-7.492H7.453Zm-4.773,0H5.2V-8.3l-.148.258Z" transform="translate(8060.017 -6319)" fill="#707070"/>
          <path id="Trazado_704997" data-name="Trazado 704997" d="M1.109-5.594l.656-5.781H8.141v1.883H3.617L3.336-7.047a3.58,3.58,0,0,1,1.711-.43A3.279,3.279,0,0,1,7.594-6.469a4.026,4.026,0,0,1,.922,2.82,4.124,4.124,0,0,1-.465,1.973A3.281,3.281,0,0,1,6.719-.324a4.158,4.158,0,0,1-2.047.48A4.416,4.416,0,0,1,2.758-.262,3.4,3.4,0,0,1,1.363-1.437,3.2,3.2,0,0,1,.82-3.164H3.055a1.669,1.669,0,0,0,.5,1.105,1.573,1.573,0,0,0,1.113.395,1.388,1.388,0,0,0,1.18-.551,2.551,2.551,0,0,0,.414-1.559,2.11,2.11,0,0,0-.477-1.484A1.749,1.749,0,0,0,4.43-5.773a1.954,1.954,0,0,0-1.3.422l-.219.2Z" transform="translate(8110.333 -6319)" fill="#707070"/>
          <path id="Trazado_704998" data-name="Trazado 704998" d="M6.258,0H4V-8.7l-2.7.836V-9.7l4.711-1.687h.242ZM17.609-4.7a5.763,5.763,0,0,1-.977,3.609A3.409,3.409,0,0,1,13.773.156,3.433,3.433,0,0,1,10.93-1.07,5.594,5.594,0,0,1,9.922-4.586V-6.68A5.687,5.687,0,0,1,10.91-10.3a3.434,3.434,0,0,1,2.848-1.234A3.437,3.437,0,0,1,16.6-10.309,5.576,5.576,0,0,1,17.609-6.8Zm-2.258-2.3a4.165,4.165,0,0,0-.387-2.061,1.307,1.307,0,0,0-1.207-.645,1.284,1.284,0,0,0-1.176.614,3.9,3.9,0,0,0-.4,1.92v2.768a4.372,4.372,0,0,0,.379,2.068,1.29,1.29,0,0,0,1.215.676,1.268,1.268,0,0,0,1.2-.649A4.268,4.268,0,0,0,15.352-4.3Z" transform="translate(7849 -6381)" fill="#707070"/>
          <path id="Trazado_704999" data-name="Trazado 704999" d="M8.57,0H.773V-1.547l3.68-3.922A9.078,9.078,0,0,0,5.574-6.914a2.322,2.322,0,0,0,.363-1.172,1.738,1.738,0,0,0-.383-1.191,1.382,1.382,0,0,0-1.094-.434,1.49,1.49,0,0,0-1.207.527A2.089,2.089,0,0,0,2.813-7.8H.547a3.729,3.729,0,0,1,.5-1.9,3.5,3.5,0,0,1,1.4-1.348A4.262,4.262,0,0,1,4.5-11.531a4.036,4.036,0,0,1,2.73.844A2.985,2.985,0,0,1,8.2-8.3a3.825,3.825,0,0,1-.437,1.719,9.551,9.551,0,0,1-1.5,2.039L3.68-1.82H8.57Zm9.039-4.7a5.763,5.763,0,0,1-.977,3.609A3.409,3.409,0,0,1,13.773.156,3.433,3.433,0,0,1,10.93-1.07,5.594,5.594,0,0,1,9.922-4.586V-6.68A5.687,5.687,0,0,1,10.91-10.3a3.434,3.434,0,0,1,2.848-1.234A3.437,3.437,0,0,1,16.6-10.309,5.576,5.576,0,0,1,17.609-6.8Zm-2.258-2.3a4.165,4.165,0,0,0-.387-2.061,1.307,1.307,0,0,0-1.207-.645,1.284,1.284,0,0,0-1.176.614,3.9,3.9,0,0,0-.4,1.92v2.768a4.372,4.372,0,0,0,.379,2.068,1.29,1.29,0,0,0,1.215.676,1.268,1.268,0,0,0,1.2-.649A4.268,4.268,0,0,0,15.352-4.3Z" transform="translate(7849 -6413)" fill="#707070"/>
          <path id="Trazado_705000" data-name="Trazado 705000" d="M3.07-6.687h1.2a1.7,1.7,0,0,0,1.273-.43,1.574,1.574,0,0,0,.414-1.141,1.392,1.392,0,0,0-.41-1.07,1.59,1.59,0,0,0-1.129-.383,1.666,1.666,0,0,0-1.086.355A1.137,1.137,0,0,0,2.9-8.43H.641a2.777,2.777,0,0,1,.48-1.6,3.2,3.2,0,0,1,1.344-1.105,4.485,4.485,0,0,1,1.9-.4,4.253,4.253,0,0,1,2.828.863A2.945,2.945,0,0,1,8.219-8.289a2.394,2.394,0,0,1-.477,1.438,3.1,3.1,0,0,1-1.25,1.008A2.826,2.826,0,0,1,7.926-4.812,2.8,2.8,0,0,1,8.4-3.187,2.994,2.994,0,0,1,7.293-.758,4.445,4.445,0,0,1,4.367.156a4.214,4.214,0,0,1-2.785-.9A2.934,2.934,0,0,1,.5-3.117H2.758a1.308,1.308,0,0,0,.48,1.047,1.771,1.771,0,0,0,1.184.406A1.779,1.779,0,0,0,5.684-2.09a1.47,1.47,0,0,0,.457-1.129q0-1.7-1.875-1.7H3.07ZM17.609-4.7a5.763,5.763,0,0,1-.977,3.609A3.409,3.409,0,0,1,13.773.156,3.433,3.433,0,0,1,10.93-1.07,5.594,5.594,0,0,1,9.922-4.586V-6.68A5.687,5.687,0,0,1,10.91-10.3a3.434,3.434,0,0,1,2.848-1.234A3.437,3.437,0,0,1,16.6-10.309,5.576,5.576,0,0,1,17.609-6.8Zm-2.258-2.3a4.165,4.165,0,0,0-.387-2.061,1.307,1.307,0,0,0-1.207-.645,1.284,1.284,0,0,0-1.176.614,3.9,3.9,0,0,0-.4,1.92v2.768a4.372,4.372,0,0,0,.379,2.068,1.29,1.29,0,0,0,1.215.676,1.268,1.268,0,0,0,1.2-.649A4.268,4.268,0,0,0,15.352-4.3Z" transform="translate(7847 -6451)" fill="#707070"/>
          <path id="Trazado_705001" data-name="Trazado 705001" d="M7.453-4.281H8.742v1.82H7.453V0H5.2V-2.461H.531L.43-3.883l4.742-7.492H7.453Zm-4.773,0H5.2V-8.3l-.148.258ZM17.609-4.7a5.763,5.763,0,0,1-.977,3.609A3.409,3.409,0,0,1,13.773.156,3.433,3.433,0,0,1,10.93-1.07,5.594,5.594,0,0,1,9.922-4.586V-6.68A5.687,5.687,0,0,1,10.91-10.3a3.434,3.434,0,0,1,2.848-1.234A3.437,3.437,0,0,1,16.6-10.309,5.576,5.576,0,0,1,17.609-6.8Zm-2.258-2.3a4.165,4.165,0,0,0-.387-2.061,1.307,1.307,0,0,0-1.207-.645,1.284,1.284,0,0,0-1.176.614,3.9,3.9,0,0,0-.4,1.92v2.768a4.372,4.372,0,0,0,.379,2.068,1.29,1.29,0,0,0,1.215.676,1.268,1.268,0,0,0,1.2-.649A4.268,4.268,0,0,0,15.352-4.3Z" transform="translate(7847 -6485)" fill="#707070"/>
        </g>
        <circle id="Elipse_6216" data-name="Elipse 6216" cx="9.5" cy="9.5" r="9.5" transform="translate(7649 -4984)" fill="url(#radial-gradient)"/>
        <circle id="Elipse_6219" data-name="Elipse 6219" cx="18.5" cy="18.5" r="18.5" transform="translate(7391 -4971)" fill="url(#radial-gradient)"/>
        <circle id="Elipse_6222" data-name="Elipse 6222" cx="8.5" cy="8.5" r="8.5" transform="translate(7496 -5016)" fill="url(#radial-gradient)"/>
        <circle id="Elipse_6217" data-name="Elipse 6217" cx="9.5" cy="9.5" r="9.5" transform="translate(7649 -4962)" fill="url(#radial-gradient-4)"/>
        <circle id="Elipse_6220" data-name="Elipse 6220" cx="9.5" cy="9.5" r="9.5" transform="translate(7422 -4999)" fill="url(#radial-gradient-4)"/>
        <circle id="Elipse_6223" data-name="Elipse 6223" cx="19.5" cy="19.5" r="19.5" transform="translate(7496 -5008)" fill="url(#radial-gradient-4)"/>
        <circle id="Elipse_6218" data-name="Elipse 6218" cx="9.5" cy="9.5" r="9.5" transform="translate(7649 -4940)" fill="url(#radial-gradient-7)"/>
        <circle id="Elipse_6221" data-name="Elipse 6221" cx="21.5" cy="21.5" r="21.5" transform="translate(7429 -4964)" fill="url(#radial-gradient-7)"/>
        <circle id="Elipse_6224" data-name="Elipse 6224" cx="9.5" cy="9.5" r="9.5" transform="translate(7535 -4988)" fill="url(#radial-gradient-7)"/>
        <path id="Trazado_704822" data-name="Trazado 704822" d="M9.5,0A9.5,9.5,0,1,1,0,9.5,9.5,9.5,0,0,1,9.5,0Z" transform="translate(7649 -4918)" fill="url(#radial-gradient-10)"/>
        <path id="Trazado_704823" data-name="Trazado 704823" d="M9.5,0A9.5,9.5,0,1,1,0,9.5,9.5,9.5,0,0,1,9.5,0Z" transform="translate(7472 -4943)" fill="url(#radial-gradient-10)"/>
        <path id="Trazado_704824" data-name="Trazado 704824" d="M22,0A22,22,0,1,1,0,22,22,22,0,0,1,22,0Z" transform="translate(7557.5 -4939.5)" fill="url(#radial-gradient-10)"/>
      </g>
    </g>
    <path id="Trazado_705002" data-name="Trazado 705002" d="M6.508-2.051h-3.6L2.229,0H.048L3.753-9.953h1.9L9.379,0H7.2ZM3.466-3.712H5.954L4.7-7.437Z" transform="translate(7651 -3167)" fill="#161615"/>
    <path id="Trazado_705003" data-name="Trazado 705003" d="M.889,0V-9.953H4.375a4.578,4.578,0,0,1,2.748.694A2.373,2.373,0,0,1,8.06-7.226a2.249,2.249,0,0,1-.376,1.289,2.172,2.172,0,0,1-1.046.817,2.1,2.1,0,0,1,1.207.772,2.284,2.284,0,0,1,.441,1.422A2.627,2.627,0,0,1,7.369-.752,4.124,4.124,0,0,1,4.758,0ZM2.939-4.334v2.687H4.7a1.7,1.7,0,0,0,1.131-.345,1.184,1.184,0,0,0,.407-.954A1.25,1.25,0,0,0,4.819-4.334Zm0-1.449H4.457q1.552-.027,1.552-1.237a1.143,1.143,0,0,0-.393-.974,2.067,2.067,0,0,0-1.241-.3H2.939Z" transform="translate(7651 -3144)" fill="#161615"/>
    <path id="Trazado_705004" data-name="Trazado 705004" d="M8.7-3.315A3.522,3.522,0,0,1,7.516-.786,4.165,4.165,0,0,1,4.7.137,3.745,3.745,0,0,1,1.685-1.152a5.284,5.284,0,0,1-1.1-3.538V-5.3a5.966,5.966,0,0,1,.506-2.529A3.791,3.791,0,0,1,2.54-9.505a4.05,4.05,0,0,1,2.184-.584A4.058,4.058,0,0,1,7.5-9.167,3.785,3.785,0,0,1,8.716-6.576H6.665a2.079,2.079,0,0,0-.537-1.4,1.987,1.987,0,0,0-1.4-.434,1.742,1.742,0,0,0-1.535.735,4.118,4.118,0,0,0-.523,2.28v.752a4.408,4.408,0,0,0,.489,2.358A1.71,1.71,0,0,0,4.7-1.538a2.025,2.025,0,0,0,1.418-.434,1.961,1.961,0,0,0,.537-1.343Z" transform="translate(7651 -3120)" fill="#161615"/>
    <path id="Trazado_705005" data-name="Trazado 705005" d="M.889,0V-9.953H3.951A4.651,4.651,0,0,1,6.3-9.362,4.123,4.123,0,0,1,7.916-7.68,5.187,5.187,0,0,1,8.5-5.2v.458a5.2,5.2,0,0,1-.571,2.468A4.088,4.088,0,0,1,6.316-.6,4.686,4.686,0,0,1,3.972,0ZM2.939-8.292v6.645h.991A2.227,2.227,0,0,0,5.77-2.434a3.552,3.552,0,0,0,.649-2.249v-.526a3.609,3.609,0,0,0-.629-2.3,2.219,2.219,0,0,0-1.839-.783Z" transform="translate(7651 -3100)" fill="#161615"/>
  </g>
</svg>
