<svg xmlns="http://www.w3.org/2000/svg" width="376" height="223" viewBox="0 0 376 223">
  <g id="Grupo_974141" data-name="Grupo 974141" transform="translate(-7791 6532)">
    <g id="Grupo_974139" data-name="Grupo 974139" transform="translate(489 -495)">
      <g id="Grupo_974140" data-name="Grupo 974140">
        <path id="Trazado_704893" data-name="Trazado 704893" d="M16,0H360a16,16,0,0,1,16,16V207a16,16,0,0,1-16,16H16A16,16,0,0,1,0,207V16A16,16,0,0,1,16,0Z" transform="translate(7302 -6037)" fill="#fff"/>
        <g id="Grupo_974112" data-name="Grupo 974112" transform="translate(-530.327 495.14)">
          <path id="Trazado_704795" data-name="Trazado 704795" d="M7860.667-6340.667H8178" transform="translate(0 2)" fill="none" stroke="#707070" stroke-width="5"/>
          <path id="Trazado_704799" data-name="Trazado 704799" d="M0,0H177.153" transform="translate(7881 -6338.667) rotate(-90)" fill="none" stroke="#707070" stroke-width="1" stroke-dasharray="1"/>
          <path id="Trazado_704894" data-name="Trazado 704894" d="M-1.141-4.93h-4.5v3.047H-.359V0H-7.984V-11.375H-.375v1.9H-5.641v2.711h4.5Z" transform="translate(7871 -6349)" fill="#707070"/>
          <path id="Trazado_704895" data-name="Trazado 704895" d="M8.43-4.7a5.762,5.762,0,0,1-.977,3.609A3.409,3.409,0,0,1,4.594.156,3.433,3.433,0,0,1,1.75-1.07,5.594,5.594,0,0,1,.742-4.586V-6.68A5.687,5.687,0,0,1,1.73-10.3a3.434,3.434,0,0,1,2.848-1.234,3.437,3.437,0,0,1,2.844,1.223A5.576,5.576,0,0,1,8.43-6.8Zm-2.258-2.3a4.165,4.165,0,0,0-.387-2.061,1.307,1.307,0,0,0-1.207-.645A1.284,1.284,0,0,0,3.4-9.1,3.9,3.9,0,0,0,3-7.177v2.768a4.372,4.372,0,0,0,.379,2.068,1.29,1.29,0,0,0,1.215.676,1.268,1.268,0,0,0,1.2-.649A4.268,4.268,0,0,0,6.172-4.3Z" transform="translate(7907.661 -6316.333)" fill="#707070"/>
          <path id="Trazado_704896" data-name="Trazado 704896" d="M6.258,0H4V-8.7l-2.7.836V-9.7l4.711-1.687h.242Z" transform="translate(7958.853 -6316.333)" fill="#707070"/>
          <path id="Trazado_704897" data-name="Trazado 704897" d="M8.57,0H.773V-1.547l3.68-3.922A9.078,9.078,0,0,0,5.574-6.914a2.322,2.322,0,0,0,.363-1.172,1.738,1.738,0,0,0-.383-1.191,1.382,1.382,0,0,0-1.094-.434,1.49,1.49,0,0,0-1.207.527A2.089,2.089,0,0,0,2.813-7.8H.547a3.729,3.729,0,0,1,.5-1.9,3.5,3.5,0,0,1,1.4-1.348A4.262,4.262,0,0,1,4.5-11.531a4.036,4.036,0,0,1,2.73.844A2.985,2.985,0,0,1,8.2-8.3a3.825,3.825,0,0,1-.437,1.719,9.551,9.551,0,0,1-1.5,2.039L3.68-1.82H8.57Z" transform="translate(8014.562 -6316.333)" fill="#707070"/>
          <path id="Trazado_704898" data-name="Trazado 704898" d="M3.07-6.687h1.2a1.7,1.7,0,0,0,1.273-.43,1.574,1.574,0,0,0,.414-1.141,1.392,1.392,0,0,0-.41-1.07,1.59,1.59,0,0,0-1.129-.383,1.666,1.666,0,0,0-1.086.355A1.137,1.137,0,0,0,2.9-8.43H.641a2.777,2.777,0,0,1,.48-1.6,3.2,3.2,0,0,1,1.344-1.105,4.485,4.485,0,0,1,1.9-.4,4.253,4.253,0,0,1,2.828.863A2.945,2.945,0,0,1,8.219-8.289a2.394,2.394,0,0,1-.477,1.438,3.1,3.1,0,0,1-1.25,1.008A2.826,2.826,0,0,1,7.926-4.812,2.8,2.8,0,0,1,8.4-3.187,2.994,2.994,0,0,1,7.293-.758,4.445,4.445,0,0,1,4.367.156a4.214,4.214,0,0,1-2.785-.9A2.934,2.934,0,0,1,.5-3.117H2.758a1.308,1.308,0,0,0,.48,1.047,1.771,1.771,0,0,0,1.184.406A1.779,1.779,0,0,0,5.684-2.09a1.47,1.47,0,0,0,.457-1.129q0-1.7-1.875-1.7H3.07Z" transform="translate(8065.753 -6316.333)" fill="#707070"/>
          <path id="Trazado_704899" data-name="Trazado 704899" d="M7.453-4.281H8.742v1.82H7.453V0H5.2V-2.461H.531L.43-3.883l4.742-7.492H7.453Zm-4.773,0H5.2V-8.3l-.148.258Z" transform="translate(8121.462 -6316.333)" fill="#707070"/>
          <path id="Trazado_704900" data-name="Trazado 704900" d="M1.109-5.594l.656-5.781H8.141v1.883H3.617L3.336-7.047a3.58,3.58,0,0,1,1.711-.43A3.279,3.279,0,0,1,7.594-6.469a4.026,4.026,0,0,1,.922,2.82,4.124,4.124,0,0,1-.465,1.973A3.281,3.281,0,0,1,6.719-.324a4.158,4.158,0,0,1-2.047.48A4.416,4.416,0,0,1,2.758-.262,3.4,3.4,0,0,1,1.363-1.437,3.2,3.2,0,0,1,.82-3.164H3.055a1.669,1.669,0,0,0,.5,1.105,1.573,1.573,0,0,0,1.113.395,1.388,1.388,0,0,0,1.18-.551,2.551,2.551,0,0,0,.414-1.559,2.11,2.11,0,0,0-.477-1.484A1.749,1.749,0,0,0,4.43-5.773a1.954,1.954,0,0,0-1.3.422l-.219.2Z" transform="translate(8172.654 -6316.333)" fill="#707070"/>
          <path id="Trazado_704901" data-name="Trazado 704901" d="M-9.383,0V-11.375h3.5A5.315,5.315,0,0,1-3.2-10.7,4.712,4.712,0,0,1-1.352-8.777,5.928,5.928,0,0,1-.687-5.945v.523A5.945,5.945,0,0,1-1.34-2.6,4.672,4.672,0,0,1-3.18-.687,5.355,5.355,0,0,1-5.859,0Zm2.344-9.477v7.594h1.133a2.545,2.545,0,0,0,2.1-.9,4.06,4.06,0,0,0,.742-2.57v-.6a4.124,4.124,0,0,0-.719-2.629,2.537,2.537,0,0,0-2.1-.895Z" transform="translate(7871 -6381)" fill="#707070"/>
          <path id="Trazado_704902" data-name="Trazado 704902" d="M-.523-3.789A4.025,4.025,0,0,1-1.879-.9,4.76,4.76,0,0,1-5.1.156,4.28,4.28,0,0,1-8.543-1.316,6.038,6.038,0,0,1-9.8-5.359v-.7a6.819,6.819,0,0,1,.578-2.891,4.332,4.332,0,0,1,1.652-1.918,4.629,4.629,0,0,1,2.5-.668A4.637,4.637,0,0,1-1.9-10.477,4.326,4.326,0,0,1-.508-7.516H-2.852a2.376,2.376,0,0,0-.613-1.6,2.271,2.271,0,0,0-1.605-.5,1.991,1.991,0,0,0-1.754.84,4.707,4.707,0,0,0-.6,2.605V-5.3a5.038,5.038,0,0,0,.559,2.7A1.954,1.954,0,0,0-5.1-1.758a2.314,2.314,0,0,0,1.621-.5,2.241,2.241,0,0,0,.613-1.535Z" transform="translate(7871 -6413)" fill="#707070"/>
          <path id="Trazado_704903" data-name="Trazado 704903" d="M-9.2,0V-11.375h3.984a5.232,5.232,0,0,1,3.141.793A2.712,2.712,0,0,1-1-8.258a2.57,2.57,0,0,1-.43,1.473,2.482,2.482,0,0,1-1.2.934,2.4,2.4,0,0,1,1.379.883,2.61,2.61,0,0,1,.5,1.625A3,3,0,0,1-1.789-.859,4.713,4.713,0,0,1-4.773,0Zm2.344-4.953v3.07h2.008a1.938,1.938,0,0,0,1.293-.395,1.353,1.353,0,0,0,.465-1.09A1.428,1.428,0,0,0-4.7-4.953Zm0-1.656h1.734q1.773-.031,1.773-1.414a1.307,1.307,0,0,0-.449-1.113,2.363,2.363,0,0,0-1.418-.34H-6.852Z" transform="translate(7871 -6451)" fill="#707070"/>
          <path id="Trazado_704904" data-name="Trazado 704904" d="M-3.328-2.344H-7.437L-8.219,0h-2.492l4.234-11.375H-4.3L-.047,0H-2.539ZM-6.8-4.242h2.844L-5.391-8.5Z" transform="translate(7870 -6485)" fill="#707070"/>
          <path id="Trazado_704830" data-name="Trazado 704830" d="M7912.161-6345l43.5-110.807,61.333,74,49.334-112,54,47.333,56-20" fill="none" stroke="#7125c8" stroke-width="1"/>
        </g>
      </g>
    </g>
    <path id="Trazado_704831" data-name="Trazado 704831" d="M7928-6365.333l50,38,63.333-144L8078-6394h60.667l50.667,28.667" transform="translate(-57 -23)" fill="none" stroke="#25ffff" stroke-width="1"/>
    <path id="Trazado_704832" data-name="Trazado 704832" d="M7924-6397.5l49.333,40.833,68-74,96-41.333,51.333,74.5" transform="translate(-57 -23)" fill="none" stroke="#000" stroke-width="1"/>
  </g>
</svg>
