<svg xmlns="http://www.w3.org/2000/svg" width="214.79" height="81" viewBox="0 0 214.79 81">
  <g id="Grupo_974161" data-name="Grupo 974161" transform="translate(-1098.995 -6161.762)">
    <path id="Trazado_704742" data-name="Trazado 704742" d="M8.456,0H206.334c4.67,0,8.456,4.477,8.456,10V71c0,5.523-3.786,10-8.456,10H8.456C3.786,81,0,76.523,0,71V10C0,4.477,3.786,0,8.456,0Z" transform="translate(1098.995 6161.762)" fill="#7125c8"/>
    <path id="Trazado_704743" data-name="Trazado 704743" d="M3.524-4.755V0H1.3V-12.8H6.2A4.954,4.954,0,0,1,9.6-11.681a3.751,3.751,0,0,1,1.261,2.953A3.627,3.627,0,0,1,9.628-5.8,5.194,5.194,0,0,1,6.17-4.755Zm0-1.784H6.2A2.632,2.632,0,0,0,8.007-7.1,2.051,2.051,0,0,0,8.631-8.71,2.213,2.213,0,0,0,8-10.367,2.439,2.439,0,0,0,6.258-11H3.524ZM17.112-5.2a13.393,13.393,0,0,1,.545-3.854,10.578,10.578,0,0,1,1.6-3.261,6.351,6.351,0,0,1,2.232-2.017l.422,1.248a6.524,6.524,0,0,0-2.008,2.87A12.852,12.852,0,0,0,19.063-5.8l-.009.756a13.972,13.972,0,0,0,.751,4.75,7,7,0,0,0,2.1,3.177l-.422,1.187a6.362,6.362,0,0,1-2.237-2.026,10.577,10.577,0,0,1-1.6-3.261A13.921,13.921,0,0,1,17.112-5.2ZM30.727-2.979H25.77L24.732,0H22.421l4.834-12.8h2L34.093,0h-2.32ZM26.394-4.772H30.1l-1.854-5.309ZM48.99,0V-12.8h4.386a5.354,5.354,0,0,1,3.3.87,3.065,3.065,0,0,1,1.134,2.593,2.763,2.763,0,0,1-.475,1.582,3.055,3.055,0,0,1-1.389,1.09,2.825,2.825,0,0,1,1.6,1.059,3.085,3.085,0,0,1,.567,1.868A3.407,3.407,0,0,1,56.966-.967,5.025,5.025,0,0,1,53.657,0Zm2.224-5.774v4h2.47a2.39,2.39,0,0,0,1.635-.519,1.82,1.82,0,0,0,.589-1.441,1.826,1.826,0,0,0-2.039-2.039Zm0-1.635h2.18a2.521,2.521,0,0,0,1.622-.47A1.611,1.611,0,0,0,55.6-9.211a1.633,1.633,0,0,0-.541-1.371A2.73,2.73,0,0,0,53.376-11H51.214ZM64.257-5.062A13.224,13.224,0,0,1,63.721-1.3a10.671,10.671,0,0,1-1.626,3.3,6.367,6.367,0,0,1-2.276,2.061L59.4,2.883A6.754,6.754,0,0,0,61.484-.233a13.84,13.84,0,0,0,.769-4.786v-.2a14.044,14.044,0,0,0-.668-4.452,7.852,7.852,0,0,0-1.916-3.221L59.4-13.14l.422-1.2A6.3,6.3,0,0,1,62-12.4a10.491,10.491,0,0,1,1.617,3.107,12.941,12.941,0,0,1,.633,3.546ZM78.724-6.855H71.147V-8.631h7.576Zm0,3.727H71.147V-4.9h7.576Z" transform="translate(1118.995 6208.762)" fill="#fff"/>
    <path id="Trazado_704744" data-name="Trazado 704744" d="M3.524-4.755V0H1.3V-12.8H6.2A4.954,4.954,0,0,1,9.6-11.681a3.751,3.751,0,0,1,1.261,2.953A3.627,3.627,0,0,1,9.628-5.8,5.194,5.194,0,0,1,6.17-4.755Zm0-1.784H6.2A2.632,2.632,0,0,0,8.007-7.1,2.051,2.051,0,0,0,8.631-8.71,2.213,2.213,0,0,0,8-10.367,2.439,2.439,0,0,0,6.258-11H3.524ZM12.63-5.2a13.393,13.393,0,0,1,.545-3.854,10.578,10.578,0,0,1,1.6-3.261,6.351,6.351,0,0,1,2.232-2.017l.422,1.248a6.524,6.524,0,0,0-2.008,2.87A12.852,12.852,0,0,0,14.581-5.8l-.009.756a13.972,13.972,0,0,0,.751,4.75,7,7,0,0,0,2.1,3.177l-.422,1.187A6.362,6.362,0,0,1,14.77,2.043a10.577,10.577,0,0,1-1.6-3.261A13.921,13.921,0,0,1,12.63-5.2ZM26.244-2.979H21.287L20.25,0H17.938l4.834-12.8h2L29.61,0H27.29ZM21.911-4.772H25.62l-1.854-5.309ZM44.508,0V-12.8h4.386a5.354,5.354,0,0,1,3.3.87,3.065,3.065,0,0,1,1.134,2.593,2.763,2.763,0,0,1-.475,1.582,3.055,3.055,0,0,1-1.389,1.09,2.825,2.825,0,0,1,1.6,1.059,3.085,3.085,0,0,1,.567,1.868A3.407,3.407,0,0,1,52.484-.967,5.025,5.025,0,0,1,49.175,0Zm2.224-5.774v4H49.2a2.39,2.39,0,0,0,1.635-.519,1.82,1.82,0,0,0,.589-1.441,1.826,1.826,0,0,0-2.039-2.039Zm0-1.635h2.18a2.521,2.521,0,0,0,1.622-.47,1.611,1.611,0,0,0,.584-1.332,1.633,1.633,0,0,0-.541-1.371A2.73,2.73,0,0,0,48.894-11H46.731ZM59.774-5.062A13.224,13.224,0,0,1,59.238-1.3a10.671,10.671,0,0,1-1.626,3.3,6.367,6.367,0,0,1-2.276,2.061l-.422-1.187A6.754,6.754,0,0,0,57-.233a13.84,13.84,0,0,0,.769-4.786v-.2A14.044,14.044,0,0,0,57.1-9.672a7.852,7.852,0,0,0-1.916-3.221l-.272-.246.422-1.2a6.3,6.3,0,0,1,2.18,1.934,10.491,10.491,0,0,1,1.617,3.107,12.941,12.941,0,0,1,.633,3.546Z" transform="translate(1214.995 6192.762)" fill="#fff"/>
    <path id="Trazado_704745" data-name="Trazado 704745" d="M-7608,20664.5h85" transform="translate(8817.995 -14462.238)" fill="#fff" stroke="#fff" stroke-width="1"/>
    <path id="Trazado_704746" data-name="Trazado 704746" d="M3.524-4.755V0H1.3V-12.8H6.2A4.954,4.954,0,0,1,9.6-11.681a3.751,3.751,0,0,1,1.261,2.953A3.627,3.627,0,0,1,9.628-5.8,5.194,5.194,0,0,1,6.17-4.755Zm0-1.784H6.2A2.632,2.632,0,0,0,8.007-7.1,2.051,2.051,0,0,0,8.631-8.71,2.213,2.213,0,0,0,8-10.367,2.439,2.439,0,0,0,6.258-11H3.524ZM12.63-5.2a13.393,13.393,0,0,1,.545-3.854,10.578,10.578,0,0,1,1.6-3.261,6.351,6.351,0,0,1,2.232-2.017l.422,1.248a6.524,6.524,0,0,0-2.008,2.87A12.852,12.852,0,0,0,14.581-5.8l-.009.756a13.972,13.972,0,0,0,.751,4.75,7,7,0,0,0,2.1,3.177l-.422,1.187A6.362,6.362,0,0,1,14.77,2.043a10.577,10.577,0,0,1-1.6-3.261A13.921,13.921,0,0,1,12.63-5.2ZM19.081,0V-12.8h4.386a5.354,5.354,0,0,1,3.3.87,3.065,3.065,0,0,1,1.134,2.593,2.763,2.763,0,0,1-.475,1.582,3.055,3.055,0,0,1-1.389,1.09,2.825,2.825,0,0,1,1.6,1.059,3.085,3.085,0,0,1,.567,1.868A3.407,3.407,0,0,1,27.057-.967,5.025,5.025,0,0,1,23.748,0ZM21.3-5.774v4h2.47a2.39,2.39,0,0,0,1.635-.519A1.82,1.82,0,0,0,26-3.735a1.826,1.826,0,0,0-2.039-2.039Zm0-1.635h2.18a2.521,2.521,0,0,0,1.622-.47,1.611,1.611,0,0,0,.584-1.332,1.633,1.633,0,0,0-.541-1.371A2.73,2.73,0,0,0,23.467-11H21.3ZM34.348-5.062A13.224,13.224,0,0,1,33.812-1.3a10.671,10.671,0,0,1-1.626,3.3,6.367,6.367,0,0,1-2.276,2.061l-.422-1.187A6.754,6.754,0,0,0,31.575-.233a13.84,13.84,0,0,0,.769-4.786v-.2a14.044,14.044,0,0,0-.668-4.452,7.852,7.852,0,0,0-1.916-3.221l-.272-.246.422-1.2a6.3,6.3,0,0,1,2.18,1.934,10.491,10.491,0,0,1,1.617,3.107,12.941,12.941,0,0,1,.633,3.546Z" transform="translate(1227.995 6222.762)" fill="#fff"/>
    <path id="Trazado_704747" data-name="Trazado 704747" d="M-7653.841,20654v21.072" transform="translate(8813.995 -14461.238)" fill="#fff" stroke="#fff" stroke-width="1"/>
    <path id="Trazado_704748" data-name="Trazado 704748" d="M10.661-12.8v8.552a4.156,4.156,0,0,1-1.305,3.23A4.958,4.958,0,0,1,5.88.176,4.993,4.993,0,0,1,2.391-1,4.176,4.176,0,0,1,1.1-4.254V-12.8H3.313v8.561a2.719,2.719,0,0,0,.65,1.96A2.537,2.537,0,0,0,5.88-1.6q2.566,0,2.566-2.707V-12.8Z" transform="translate(1257.156 6179.965) rotate(180)" fill="#fff"/>
  </g>
</svg>
