<svg xmlns="http://www.w3.org/2000/svg" width="400" height="81" viewBox="0 0 400 81">
  <g id="Grupo_974159" data-name="Grupo 974159" transform="translate(-824.995 -5451.762)">
    <path id="Trazado_705352" data-name="Trazado 705352" d="M10,0H390a10,10,0,0,1,10,10V71a10,10,0,0,1-10,10H10A10,10,0,0,1,0,71V10A10,10,0,0,1,10,0Z" transform="translate(824.995 5451.762)" fill="#7125c8"/>
    <path id="Trazado_704738" data-name="Trazado 704738" d="M10.661-12.8v8.552a4.156,4.156,0,0,1-1.305,3.23A4.958,4.958,0,0,1,5.88.176,4.993,4.993,0,0,1,2.391-1,4.176,4.176,0,0,1,1.1-4.254V-12.8H3.313v8.561a2.719,2.719,0,0,0,.65,1.96A2.537,2.537,0,0,0,5.88-1.6q2.566,0,2.566-2.707V-12.8Z" transform="translate(897.334 5499.57)" fill="#fff"/>
    <path id="Trazado_705353" data-name="Trazado 705353" d="M3.524-4.746V0H1.3V-12.8H6.2A4.95,4.95,0,0,1,9.6-11.679a3.757,3.757,0,0,1,1.261,2.956,3.633,3.633,0,0,1-1.235,2.93A5.19,5.19,0,0,1,6.17-4.746Zm0-1.793H6.2A2.632,2.632,0,0,0,8.007-7.1,2.051,2.051,0,0,0,8.631-8.71,2.213,2.213,0,0,0,8-10.367,2.439,2.439,0,0,0,6.258-11H3.524ZM17.112-5.2a13.393,13.393,0,0,1,.545-3.854,10.578,10.578,0,0,1,1.6-3.261,6.351,6.351,0,0,1,2.232-2.017l.422,1.248a6.524,6.524,0,0,0-2.008,2.87A12.852,12.852,0,0,0,19.063-5.8l-.009.756a13.972,13.972,0,0,0,.751,4.75,7,7,0,0,0,2.1,3.177l-.422,1.187a6.362,6.362,0,0,1-2.237-2.026,10.577,10.577,0,0,1-1.6-3.261A13.921,13.921,0,0,1,17.112-5.2Zm14.572.545a5.662,5.662,0,0,1-1,3.52A3.209,3.209,0,0,1,27.993.176a3.23,3.23,0,0,1-2.5-1.028V3.656H23.353V-9.51h1.969l.088.967a3.137,3.137,0,0,1,2.558-1.143,3.242,3.242,0,0,1,2.729,1.3,5.813,5.813,0,0,1,.989,3.6Zm-2.127-.185A3.966,3.966,0,0,0,28.991-7.1a1.843,1.843,0,0,0-1.622-.835,1.965,1.965,0,0,0-1.881,1.081v4.219a1.983,1.983,0,0,0,1.9,1.107,1.841,1.841,0,0,0,1.6-.822A4.366,4.366,0,0,0,29.558-4.843ZM39.173,0a3.3,3.3,0,0,1-.246-.888,3.325,3.325,0,0,1-2.5,1.063,3.355,3.355,0,0,1-2.338-.817,2.615,2.615,0,0,1-.905-2.021A2.7,2.7,0,0,1,34.317-5a5.473,5.473,0,0,1,3.23-.813h1.31v-.624a1.666,1.666,0,0,0-.413-1.182,1.638,1.638,0,0,0-1.257-.444,1.881,1.881,0,0,0-1.2.365,1.129,1.129,0,0,0-.466.927H33.39a2.37,2.37,0,0,1,.519-1.463A3.455,3.455,0,0,1,35.319-9.3a4.955,4.955,0,0,1,1.991-.387,3.99,3.99,0,0,1,2.663.839,2.993,2.993,0,0,1,1.02,2.36V-2.2a4.861,4.861,0,0,0,.36,2.048V0ZM36.826-1.538a2.429,2.429,0,0,0,1.191-.308,2.055,2.055,0,0,0,.839-.826V-4.465H37.705a3.148,3.148,0,0,0-1.784.413,1.338,1.338,0,0,0-.6,1.169,1.248,1.248,0,0,0,.409.98A1.583,1.583,0,0,0,36.826-1.538ZM48.208-7.559a5.285,5.285,0,0,0-.87-.07A1.959,1.959,0,0,0,45.36-6.5V0H43.225V-9.51h2.039l.053,1.063a2.406,2.406,0,0,1,2.145-1.239,2,2,0,0,1,.756.123Zm26.367,3h1.591v1.714H74.575V0H72.439V-2.848H66.911l-.062-1.3,5.52-8.648h2.206Zm-5.484,0h3.349V-9.905l-.158.281Zm17.227-.5A13.224,13.224,0,0,1,85.781-1.3a10.671,10.671,0,0,1-1.626,3.3,6.367,6.367,0,0,1-2.276,2.061l-.422-1.187A6.754,6.754,0,0,0,83.544-.233a13.84,13.84,0,0,0,.769-4.786v-.2a14.044,14.044,0,0,0-.668-4.452,7.852,7.852,0,0,0-1.916-3.221l-.272-.246.422-1.2a6.3,6.3,0,0,1,2.18,1.934,10.491,10.491,0,0,1,1.617,3.107,12.941,12.941,0,0,1,.633,3.546Zm14.467-1.793H93.208V-8.631h7.576Zm0,3.727H93.208V-4.9h7.576Zm9.229-1.617V0h-2.224V-12.8h4.9a4.95,4.95,0,0,1,3.406,1.117,3.757,3.757,0,0,1,1.261,2.956,3.633,3.633,0,0,1-1.235,2.93,5.19,5.19,0,0,1-3.458,1.047Zm0-1.793h2.672A2.632,2.632,0,0,0,114.5-7.1a2.051,2.051,0,0,0,.624-1.613,2.213,2.213,0,0,0-.633-1.657,2.439,2.439,0,0,0-1.74-.637h-2.733ZM123.6-5.2a13.393,13.393,0,0,1,.545-3.854,10.578,10.578,0,0,1,1.6-3.261,6.351,6.351,0,0,1,2.232-2.017l.422,1.248a6.524,6.524,0,0,0-2.008,2.87,12.852,12.852,0,0,0-.839,4.417l-.009.756a13.972,13.972,0,0,0,.751,4.75,7,7,0,0,0,2.1,3.177l-.422,1.187a6.362,6.362,0,0,1-2.237-2.026,10.577,10.577,0,0,1-1.6-3.261A13.921,13.921,0,0,1,123.6-5.2Zm14.572.545a5.662,5.662,0,0,1-1,3.52A3.209,3.209,0,0,1,134.481.176a3.23,3.23,0,0,1-2.5-1.028V3.656h-2.136V-9.51h1.969l.088.967a3.137,3.137,0,0,1,2.558-1.143,3.242,3.242,0,0,1,2.729,1.3,5.813,5.813,0,0,1,.989,3.6Zm-2.127-.185a3.966,3.966,0,0,0-.567-2.259,1.843,1.843,0,0,0-1.622-.835,1.965,1.965,0,0,0-1.881,1.081v4.219a1.983,1.983,0,0,0,1.9,1.107,1.841,1.841,0,0,0,1.6-.822A4.366,4.366,0,0,0,136.046-4.843ZM145.661,0a3.3,3.3,0,0,1-.246-.888,3.325,3.325,0,0,1-2.5,1.063,3.355,3.355,0,0,1-2.338-.817,2.615,2.615,0,0,1-.905-2.021A2.7,2.7,0,0,1,140.805-5a5.473,5.473,0,0,1,3.23-.813h1.31v-.624a1.666,1.666,0,0,0-.413-1.182,1.638,1.638,0,0,0-1.257-.444,1.881,1.881,0,0,0-1.2.365,1.129,1.129,0,0,0-.466.927h-2.136a2.37,2.37,0,0,1,.519-1.463A3.455,3.455,0,0,1,141.807-9.3a4.955,4.955,0,0,1,1.991-.387,3.99,3.99,0,0,1,2.663.839,2.993,2.993,0,0,1,1.02,2.36V-2.2a4.861,4.861,0,0,0,.36,2.048V0Zm-2.347-1.538a2.429,2.429,0,0,0,1.191-.308,2.055,2.055,0,0,0,.839-.826V-4.465h-1.151a3.148,3.148,0,0,0-1.784.413,1.338,1.338,0,0,0-.6,1.169,1.248,1.248,0,0,0,.409.98A1.583,1.583,0,0,0,143.314-1.538ZM154.7-7.559a5.285,5.285,0,0,0-.87-.07A1.959,1.959,0,0,0,151.849-6.5V0h-2.136V-9.51h2.039l.053,1.063a2.406,2.406,0,0,1,2.145-1.239,2,2,0,0,1,.756.123Zm5.467,2.5a13.224,13.224,0,0,1-.536,3.766A10.671,10.671,0,0,1,158,2.008a6.367,6.367,0,0,1-2.276,2.061L155.3,2.883A6.754,6.754,0,0,0,157.39-.233a13.84,13.84,0,0,0,.769-4.786v-.2a14.044,14.044,0,0,0-.668-4.452,7.852,7.852,0,0,0-1.916-3.221l-.272-.246.422-1.2A6.3,6.3,0,0,1,157.9-12.4a10.491,10.491,0,0,1,1.617,3.107,12.941,12.941,0,0,1,.633,3.546ZM171.809-7.04h3.34v1.951h-3.34v3.806h-2.074V-5.089h-3.357V-7.04h3.357V-10.6h2.074Zm12.006,2.294V0h-2.224V-12.8h4.9a4.95,4.95,0,0,1,3.406,1.117,3.757,3.757,0,0,1,1.261,2.956,3.633,3.633,0,0,1-1.235,2.93,5.19,5.19,0,0,1-3.458,1.047Zm0-1.793h2.672A2.632,2.632,0,0,0,188.3-7.1a2.051,2.051,0,0,0,.624-1.613,2.213,2.213,0,0,0-.633-1.657,2.439,2.439,0,0,0-1.74-.637h-2.733ZM192.92-5.2a13.393,13.393,0,0,1,.545-3.854,10.578,10.578,0,0,1,1.6-3.261,6.351,6.351,0,0,1,2.232-2.017l.422,1.248a6.524,6.524,0,0,0-2.008,2.87,12.852,12.852,0,0,0-.839,4.417l-.009.756a13.972,13.972,0,0,0,.751,4.75,7,7,0,0,0,2.1,3.177L197.3,4.069a6.362,6.362,0,0,1-2.237-2.026,10.577,10.577,0,0,1-1.6-3.261A13.921,13.921,0,0,1,192.92-5.2Zm13.333.642h1.591v1.714h-1.591V0h-2.136V-2.848h-5.528l-.062-1.3,5.52-8.648h2.206Zm-5.484,0h3.349V-9.905l-.158.281Zm12.744-.5a13.224,13.224,0,0,1-.536,3.766,10.671,10.671,0,0,1-1.626,3.3,6.367,6.367,0,0,1-2.276,2.061l-.422-1.187A6.754,6.754,0,0,0,210.74-.233a13.84,13.84,0,0,0,.769-4.786v-.2a14.044,14.044,0,0,0-.668-4.452,7.852,7.852,0,0,0-1.916-3.221l-.272-.246.422-1.2a6.3,6.3,0,0,1,2.18,1.934,10.491,10.491,0,0,1,1.617,3.107,12.941,12.941,0,0,1,.633,3.546Zm10.854.483h-4.614V-6.3h4.614Zm8.675-.167V0h-2.224V-12.8h4.9a4.95,4.95,0,0,1,3.406,1.117,3.757,3.757,0,0,1,1.261,2.956,3.633,3.633,0,0,1-1.235,2.93,5.19,5.19,0,0,1-3.458,1.047Zm0-1.793h2.672a2.632,2.632,0,0,0,1.811-.558,2.051,2.051,0,0,0,.624-1.613,2.213,2.213,0,0,0-.633-1.657,2.439,2.439,0,0,0-1.74-.637h-2.733ZM246.63-5.2a13.393,13.393,0,0,1,.545-3.854,10.578,10.578,0,0,1,1.6-3.261,6.351,6.351,0,0,1,2.232-2.017l.422,1.248a6.524,6.524,0,0,0-2.008,2.87,12.852,12.852,0,0,0-.839,4.417l-.009.756a13.972,13.972,0,0,0,.751,4.75,7,7,0,0,0,2.1,3.177l-.422,1.187a6.362,6.362,0,0,1-2.237-2.026,10.577,10.577,0,0,1-1.6-3.261A13.921,13.921,0,0,1,246.63-5.2Zm14.572.545a5.662,5.662,0,0,1-1,3.52A3.209,3.209,0,0,1,257.511.176a3.23,3.23,0,0,1-2.5-1.028V3.656H252.87V-9.51h1.969l.088.967a3.137,3.137,0,0,1,2.558-1.143,3.242,3.242,0,0,1,2.729,1.3,5.813,5.813,0,0,1,.989,3.6Zm-2.127-.185a3.966,3.966,0,0,0-.567-2.259,1.843,1.843,0,0,0-1.622-.835,1.965,1.965,0,0,0-1.881,1.081v4.219a1.983,1.983,0,0,0,1.9,1.107,1.841,1.841,0,0,0,1.6-.822A4.366,4.366,0,0,0,259.075-4.843ZM268.69,0a3.3,3.3,0,0,1-.246-.888,3.325,3.325,0,0,1-2.5,1.063,3.355,3.355,0,0,1-2.338-.817,2.615,2.615,0,0,1-.905-2.021A2.7,2.7,0,0,1,263.834-5a5.473,5.473,0,0,1,3.23-.813h1.31v-.624a1.666,1.666,0,0,0-.413-1.182A1.638,1.638,0,0,0,266.7-8.06a1.881,1.881,0,0,0-1.2.365,1.129,1.129,0,0,0-.466.927h-2.136a2.37,2.37,0,0,1,.519-1.463A3.455,3.455,0,0,1,264.836-9.3a4.955,4.955,0,0,1,1.991-.387,3.99,3.99,0,0,1,2.663.839,2.993,2.993,0,0,1,1.02,2.36V-2.2a4.861,4.861,0,0,0,.36,2.048V0Zm-2.347-1.538a2.429,2.429,0,0,0,1.191-.308,2.055,2.055,0,0,0,.839-.826V-4.465h-1.151a3.148,3.148,0,0,0-1.784.413,1.338,1.338,0,0,0-.6,1.169,1.248,1.248,0,0,0,.409.98A1.583,1.583,0,0,0,266.344-1.538Zm11.382-6.021a5.285,5.285,0,0,0-.87-.07A1.959,1.959,0,0,0,274.878-6.5V0h-2.136V-9.51h2.039l.053,1.063a2.406,2.406,0,0,1,2.145-1.239,2,2,0,0,1,.756.123Zm30.85,3h1.591v1.714h-1.591V0h-2.136V-2.848h-5.528l-.062-1.3,5.52-8.648h2.206Zm-5.484,0h3.349V-9.905l-.158.281Zm12.744-.5A13.224,13.224,0,0,1,315.3-1.3a10.671,10.671,0,0,1-1.626,3.3A6.367,6.367,0,0,1,311.4,4.069l-.422-1.187a6.754,6.754,0,0,0,2.087-3.116,13.84,13.84,0,0,0,.769-4.786v-.2a14.044,14.044,0,0,0-.668-4.452,7.852,7.852,0,0,0-1.916-3.221l-.272-.246.422-1.2a6.3,6.3,0,0,1,2.18,1.934,10.491,10.491,0,0,1,1.617,3.107,12.941,12.941,0,0,1,.633,3.546ZM330.3-6.855h-7.576V-8.631H330.3Zm0,3.727h-7.576V-4.9H330.3Z" transform="translate(844.995 5498.762)" fill="#fff"/>
    <path id="Trazado_704739" data-name="Trazado 704739" d="M10.661-12.8v8.552a4.156,4.156,0,0,1-1.305,3.23A4.958,4.958,0,0,1,5.88.176,4.993,4.993,0,0,1,2.391-1,4.176,4.176,0,0,1,1.1-4.254V-12.8H3.313v8.561a2.719,2.719,0,0,0,.65,1.96A2.537,2.537,0,0,0,5.88-1.6q2.566,0,2.566-2.707V-12.8Z" transform="translate(1139.094 5485.949) rotate(180)" fill="#fff"/>
  </g>
</svg>
