<svg xmlns="http://www.w3.org/2000/svg" width="1070" height="136.762" viewBox="0 0 1070 136.762">
  <g id="Grupo_166627" data-name="Grupo 166627" transform="translate(0 1.941)">
    <path id="Trazado_177094" data-name="Trazado 177094" d="M-8394.184-6809.373s35.089-7.828,67.638-74.221,67.441,74.221,189.239,74.221" transform="translate(8424.759 6901.405)" fill="none" stroke="#2e0877" stroke-width="4"/>
    <path id="Trazado_177095" data-name="Trazado 177095" d="M-8427.154-6802.162h318.685" transform="translate(8427.154 6889.865)" fill="none" stroke="#12263f" stroke-width="2"/>
    <path id="Trazado_177096" data-name="Trazado 177096" d="M-8301.689-6901.405v103.357" transform="translate(8418.038 6901.406)" fill="none" stroke="#25ffff" stroke-width="2"/>
    <path id="Trazado_177102" data-name="Trazado 177102" d="M3.856-11.42,6.565-3.77l2.7-7.651h2.854V-.872H9.934V-3.755l.217-4.977L7.3-.872H5.812L2.972-8.725l.217,4.97V-.872H1.016V-11.42Zm9.694,6.557A4.649,4.649,0,0,1,14-6.943a3.288,3.288,0,0,1,1.293-1.413,3.773,3.773,0,0,1,1.96-.5,3.57,3.57,0,0,1,2.59.971,3.9,3.9,0,0,1,1.119,2.637l.014.536a4.1,4.1,0,0,1-1.007,2.894,3.5,3.5,0,0,1-2.7,1.09A3.518,3.518,0,0,1,14.56-1.814,4.169,4.169,0,0,1,13.549-4.77Zm2.094.152a2.922,2.922,0,0,0,.42,1.706,1.387,1.387,0,0,0,1.2.59A1.39,1.39,0,0,0,18.454-3a3.2,3.2,0,0,0,.427-1.866,2.893,2.893,0,0,0-.427-1.7,1.39,1.39,0,0,0-1.2-.6,1.367,1.367,0,0,0-1.188.6A3.251,3.251,0,0,0,15.643-4.712Zm6.3-.138a4.724,4.724,0,0,1,.822-2.92,2.668,2.668,0,0,1,2.25-1.087A2.4,2.4,0,0,1,26.9-8v-4H29V-.872H27.111l-.1-.833A2.464,2.464,0,0,1,25-.727a2.661,2.661,0,0,1-2.221-1.09A4.876,4.876,0,0,1,21.939-4.849Zm2.094.152a3.086,3.086,0,0,0,.384,1.688,1.251,1.251,0,0,0,1.116.587A1.4,1.4,0,0,0,26.9-3.241V-6.335a1.381,1.381,0,0,0-1.355-.819Q24.032-7.153,24.032-4.7ZM35.168-.872a2.325,2.325,0,0,1-.21-.7,2.533,2.533,0,0,1-1.978.848,2.783,2.783,0,0,1-1.909-.667,2.144,2.144,0,0,1-.757-1.681,2.215,2.215,0,0,1,.924-1.913,4.558,4.558,0,0,1,2.67-.674h.964V-6.11a1.292,1.292,0,0,0-.279-.869,1.1,1.1,0,0,0-.88-.326,1.247,1.247,0,0,0-.83.254.861.861,0,0,0-.3.7H30.488a2.1,2.1,0,0,1,.42-1.261A2.778,2.778,0,0,1,32.1-8.526a4.33,4.33,0,0,1,1.724-.33,3.421,3.421,0,0,1,2.3.728,2.547,2.547,0,0,1,.851,2.047v3.4A3.748,3.748,0,0,0,37.283-1v.123ZM33.436-2.328a1.8,1.8,0,0,0,.855-.206,1.356,1.356,0,0,0,.58-.554V-4.436h-.782q-1.572,0-1.674,1.087l-.007.123a.838.838,0,0,0,.275.645A1.069,1.069,0,0,0,33.436-2.328Z" transform="translate(95.121 135.548)"/>
    <path id="Trazado_177097" data-name="Trazado 177097" d="M-8394.184-6809.373s35.089-7.828,67.638-74.221,67.441,74.221,189.239,74.221" transform="translate(8807.53 6901.405)" fill="none" stroke="#2e0877" stroke-width="4"/>
    <path id="Trazado_177098" data-name="Trazado 177098" d="M-8427.154-6802.162h304.086" transform="translate(8809.705 6889.865)" fill="none" stroke="#12263f" stroke-width="2"/>
    <path id="Trazado_177099" data-name="Trazado 177099" d="M-8301.689-6901.405v103.357" transform="translate(8826.47 6901.406)" fill="none" stroke="#25ffff" stroke-width="2"/>
    <path id="Trazado_177103" data-name="Trazado 177103" d="M3.856-11.42,6.565-3.77l2.7-7.651h2.854V-.872H9.934V-3.755l.217-4.977L7.3-.872H5.812L2.972-8.725l.217,4.97V-.872H1.016V-11.42ZM17.483-.727a3.848,3.848,0,0,1-2.807-1.058A3.76,3.76,0,0,1,13.593-4.6v-.2a4.735,4.735,0,0,1,.456-2.112,3.35,3.35,0,0,1,1.293-1.434,3.63,3.63,0,0,1,1.909-.5,3.253,3.253,0,0,1,2.532,1.014,4.121,4.121,0,0,1,.924,2.876v.855H15.715a1.945,1.945,0,0,0,.612,1.232,1.851,1.851,0,0,0,1.293.464,2.26,2.26,0,0,0,1.891-.877L20.54-2.14A3.143,3.143,0,0,1,19.265-1.1,4.183,4.183,0,0,1,17.483-.727ZM17.244-7.16a1.311,1.311,0,0,0-1.011.42,2.171,2.171,0,0,0-.5,1.2H18.65V-5.7a1.548,1.548,0,0,0-.377-1.076A1.353,1.353,0,0,0,17.244-7.16Zm4.325,2.311a4.724,4.724,0,0,1,.822-2.92,2.668,2.668,0,0,1,2.25-1.087A2.4,2.4,0,0,1,26.532-8v-4h2.1V-.872H26.742l-.1-.833a2.464,2.464,0,0,1-2.014.978,2.661,2.661,0,0,1-2.221-1.09A4.876,4.876,0,0,1,21.569-4.849Zm2.094.152a3.086,3.086,0,0,0,.384,1.688,1.251,1.251,0,0,0,1.116.587,1.4,1.4,0,0,0,1.369-.819V-6.335a1.381,1.381,0,0,0-1.355-.819Q23.663-7.153,23.663-4.7Zm8.8,3.825h-2.1V-8.711h2.1Zm-2.224-9.867a1.031,1.031,0,0,1,.315-.775,1.184,1.184,0,0,1,.859-.3,1.187,1.187,0,0,1,.855.3,1.025,1.025,0,0,1,.319.775,1.028,1.028,0,0,1-.322.782,1.189,1.189,0,0,1-.851.3,1.189,1.189,0,0,1-.851-.3A1.028,1.028,0,0,1,30.241-10.739ZM38.732-.872a2.325,2.325,0,0,1-.21-.7,2.533,2.533,0,0,1-1.978.848,2.783,2.783,0,0,1-1.909-.667,2.144,2.144,0,0,1-.757-1.681A2.215,2.215,0,0,1,34.8-4.987a4.558,4.558,0,0,1,2.67-.674h.964V-6.11a1.292,1.292,0,0,0-.279-.869,1.1,1.1,0,0,0-.88-.326,1.247,1.247,0,0,0-.83.254.861.861,0,0,0-.3.7H34.052a2.1,2.1,0,0,1,.42-1.261,2.778,2.778,0,0,1,1.188-.909,4.33,4.33,0,0,1,1.724-.33,3.421,3.421,0,0,1,2.3.728,2.547,2.547,0,0,1,.851,2.047v3.4A3.748,3.748,0,0,0,40.848-1v.123ZM37-2.328a1.8,1.8,0,0,0,.855-.206,1.356,1.356,0,0,0,.58-.554V-4.436h-.782q-1.572,0-1.674,1.087l-.007.123a.838.838,0,0,0,.275.645A1.069,1.069,0,0,0,37-2.328Zm7.071-6.383.065.906A2.737,2.737,0,0,1,46.39-8.856a2.274,2.274,0,0,1,1.855.732,3.414,3.414,0,0,1,.623,2.188V-.872H46.774V-5.885a1.358,1.358,0,0,0-.29-.967,1.3,1.3,0,0,0-.964-.3,1.44,1.44,0,0,0-1.326.753V-.872H42.1V-8.711ZM55-.872a2.325,2.325,0,0,1-.21-.7,2.533,2.533,0,0,1-1.978.848A2.783,2.783,0,0,1,50.9-1.394a2.144,2.144,0,0,1-.757-1.681,2.215,2.215,0,0,1,.924-1.913,4.558,4.558,0,0,1,2.67-.674H54.7V-6.11a1.292,1.292,0,0,0-.279-.869,1.1,1.1,0,0,0-.88-.326,1.247,1.247,0,0,0-.83.254.861.861,0,0,0-.3.7H50.317a2.1,2.1,0,0,1,.42-1.261,2.778,2.778,0,0,1,1.188-.909,4.33,4.33,0,0,1,1.724-.33,3.421,3.421,0,0,1,2.3.728A2.547,2.547,0,0,1,56.8-6.081v3.4A3.748,3.748,0,0,0,57.112-1v.123ZM53.265-2.328a1.8,1.8,0,0,0,.855-.206,1.356,1.356,0,0,0,.58-.554V-4.436h-.782q-1.572,0-1.674,1.087l-.007.123a.838.838,0,0,0,.275.645A1.069,1.069,0,0,0,53.265-2.328Z" transform="translate(501.071 135.548)"/>
    <path id="Trazado_177104" data-name="Trazado 177104" d="M1.088-6.026,1.7-11.387H7.609v1.746H3.414L3.153-7.373a3.319,3.319,0,0,1,1.587-.4A3.04,3.04,0,0,1,7.1-6.837a3.733,3.733,0,0,1,.855,2.615,3.824,3.824,0,0,1-.431,1.829A3.043,3.043,0,0,1,6.29-1.139a3.856,3.856,0,0,1-1.9.446,4.1,4.1,0,0,1-1.775-.388,3.148,3.148,0,0,1-1.293-1.09,2.972,2.972,0,0,1-.5-1.6H2.892a1.548,1.548,0,0,0,.46,1.025,1.458,1.458,0,0,0,1.032.366,1.287,1.287,0,0,0,1.094-.511,2.366,2.366,0,0,0,.384-1.445,1.957,1.957,0,0,0-.442-1.377,1.622,1.622,0,0,0-1.253-.478,1.812,1.812,0,0,0-1.21.391l-.2.188Zm15.3.826a5.344,5.344,0,0,1-.906,3.347A3.161,3.161,0,0,1,12.832-.694,3.183,3.183,0,0,1,10.2-1.831a5.187,5.187,0,0,1-.935-3.26V-7.033a5.274,5.274,0,0,1,.916-3.354,3.185,3.185,0,0,1,2.641-1.145A3.188,3.188,0,0,1,15.455-10.4a5.171,5.171,0,0,1,.935,3.257ZM14.3-7.33a3.856,3.856,0,0,0-.359-1.909,1.212,1.212,0,0,0-1.119-.6,1.191,1.191,0,0,0-1.09.569,3.608,3.608,0,0,0-.373,1.779v2.565a4.047,4.047,0,0,0,.351,1.916,1.2,1.2,0,0,0,1.127.627,1.176,1.176,0,0,0,1.108-.6,3.951,3.951,0,0,0,.355-1.84Zm3.478-2.029a2.086,2.086,0,0,1,.63-1.576,2.286,2.286,0,0,1,1.652-.6,2.322,2.322,0,0,1,1.666.6,2.125,2.125,0,0,1,.63,1.619V-8.8a2.059,2.059,0,0,1-.63,1.572,2.31,2.31,0,0,1-1.652.594,2.325,2.325,0,0,1-1.663-.6,2.11,2.11,0,0,1-.634-1.612Zm1.391.558a.976.976,0,0,0,.25.7.861.861,0,0,0,.656.264.821.821,0,0,0,.645-.268,1.038,1.038,0,0,0,.239-.717v-.536a1.016,1.016,0,0,0-.239-.7.838.838,0,0,0-.659-.268.84.84,0,0,0-.645.264,1.037,1.037,0,0,0-.246.735Zm3.651,5.376A2.059,2.059,0,0,1,23.453-5,2.318,2.318,0,0,1,25.1-5.6a2.342,2.342,0,0,1,1.663.59A2.114,2.114,0,0,1,27.4-3.381v.522a2.074,2.074,0,0,1-.623,1.569,2.3,2.3,0,0,1-1.659.6,2.324,2.324,0,0,1-1.674-.6,2.1,2.1,0,0,1-.63-1.594Zm1.391.565a.968.968,0,0,0,.261.681.85.85,0,0,0,.652.283Q26-1.9,26-2.874v-.551a.985.985,0,0,0-.246-.7.849.849,0,0,0-.652-.264.849.849,0,0,0-.652.264,1.016,1.016,0,0,0-.246.721ZM20.483-1.628l-1.022-.551,5.151-8.245,1.022.551Z" transform="translate(491.517 58.257)"/>
    <path id="Trazado_177105" data-name="Trazado 177105" d="M1.088-6.026,1.7-11.387H7.609v1.746H3.414L3.153-7.373a3.319,3.319,0,0,1,1.587-.4A3.04,3.04,0,0,1,7.1-6.837a3.733,3.733,0,0,1,.855,2.615,3.824,3.824,0,0,1-.431,1.829A3.043,3.043,0,0,1,6.29-1.139a3.856,3.856,0,0,1-1.9.446,4.1,4.1,0,0,1-1.775-.388,3.148,3.148,0,0,1-1.293-1.09,2.972,2.972,0,0,1-.5-1.6H2.892a1.548,1.548,0,0,0,.46,1.025,1.458,1.458,0,0,0,1.032.366,1.287,1.287,0,0,0,1.094-.511,2.366,2.366,0,0,0,.384-1.445,1.957,1.957,0,0,0-.442-1.377,1.622,1.622,0,0,0-1.253-.478,1.812,1.812,0,0,0-1.21.391l-.2.188Zm15.3.826a5.344,5.344,0,0,1-.906,3.347A3.161,3.161,0,0,1,12.832-.694,3.183,3.183,0,0,1,10.2-1.831a5.187,5.187,0,0,1-.935-3.26V-7.033a5.274,5.274,0,0,1,.916-3.354,3.185,3.185,0,0,1,2.641-1.145A3.188,3.188,0,0,1,15.455-10.4a5.171,5.171,0,0,1,.935,3.257ZM14.3-7.33a3.856,3.856,0,0,0-.359-1.909,1.212,1.212,0,0,0-1.119-.6,1.191,1.191,0,0,0-1.09.569,3.608,3.608,0,0,0-.373,1.779v2.565a4.047,4.047,0,0,0,.351,1.916,1.2,1.2,0,0,0,1.127.627,1.176,1.176,0,0,0,1.108-.6,3.951,3.951,0,0,0,.355-1.84Zm3.478-2.029a2.086,2.086,0,0,1,.63-1.576,2.286,2.286,0,0,1,1.652-.6,2.322,2.322,0,0,1,1.666.6,2.125,2.125,0,0,1,.63,1.619V-8.8a2.059,2.059,0,0,1-.63,1.572,2.31,2.31,0,0,1-1.652.594,2.325,2.325,0,0,1-1.663-.6,2.11,2.11,0,0,1-.634-1.612Zm1.391.558a.976.976,0,0,0,.25.7.861.861,0,0,0,.656.264.821.821,0,0,0,.645-.268,1.038,1.038,0,0,0,.239-.717v-.536a1.016,1.016,0,0,0-.239-.7.838.838,0,0,0-.659-.268.84.84,0,0,0-.645.264,1.037,1.037,0,0,0-.246.735Zm3.651,5.376A2.059,2.059,0,0,1,23.453-5,2.318,2.318,0,0,1,25.1-5.6a2.342,2.342,0,0,1,1.663.59A2.114,2.114,0,0,1,27.4-3.381v.522a2.074,2.074,0,0,1-.623,1.569,2.3,2.3,0,0,1-1.659.6,2.324,2.324,0,0,1-1.674-.6,2.1,2.1,0,0,1-.63-1.594Zm1.391.565a.968.968,0,0,0,.261.681.85.85,0,0,0,.652.283Q26-1.9,26-2.874v-.551a.985.985,0,0,0-.246-.7.849.849,0,0,0-.652-.264.849.849,0,0,0-.652.264,1.016,1.016,0,0,0-.246.721ZM20.483-1.628l-1.022-.551,5.151-8.245,1.022.551Z" transform="translate(530.757 58.257)"/>
    <path id="Trazado_177100" data-name="Trazado 177100" d="M-8394.184-6809.373s35.089-7.828,67.638-74.221,67.441,74.221,189.239,74.221" transform="translate(9190.672 6901.405)" fill="none" stroke="#2e0877" stroke-width="4"/>
    <path id="Trazado_177101" data-name="Trazado 177101" d="M-8427.154-6802.162h304.086" transform="translate(9193.068 6889.865)" fill="none" stroke="#12263f" stroke-width="2"/>
    <path id="Trazado_177106" data-name="Trazado 177106" d="M3.856-11.42,6.565-3.77l2.7-7.651h2.854V-.872H9.934V-3.755l.217-4.977L7.3-.872H5.812L2.972-8.725l.217,4.97V-.872H1.016V-11.42ZM17.483-.727a3.848,3.848,0,0,1-2.807-1.058A3.76,3.76,0,0,1,13.593-4.6v-.2a4.735,4.735,0,0,1,.456-2.112,3.35,3.35,0,0,1,1.293-1.434,3.63,3.63,0,0,1,1.909-.5,3.253,3.253,0,0,1,2.532,1.014,4.121,4.121,0,0,1,.924,2.876v.855H15.715a1.945,1.945,0,0,0,.612,1.232,1.851,1.851,0,0,0,1.293.464,2.26,2.26,0,0,0,1.891-.877L20.54-2.14A3.143,3.143,0,0,1,19.265-1.1,4.183,4.183,0,0,1,17.483-.727ZM17.244-7.16a1.311,1.311,0,0,0-1.011.42,2.171,2.171,0,0,0-.5,1.2H18.65V-5.7a1.548,1.548,0,0,0-.377-1.076A1.353,1.353,0,0,0,17.244-7.16Zm4.325,2.311a4.724,4.724,0,0,1,.822-2.92,2.668,2.668,0,0,1,2.25-1.087A2.4,2.4,0,0,1,26.532-8v-4h2.1V-.872H26.742l-.1-.833a2.464,2.464,0,0,1-2.014.978,2.661,2.661,0,0,1-2.221-1.09A4.876,4.876,0,0,1,21.569-4.849Zm2.094.152a3.086,3.086,0,0,0,.384,1.688,1.251,1.251,0,0,0,1.116.587,1.4,1.4,0,0,0,1.369-.819V-6.335a1.381,1.381,0,0,0-1.355-.819Q23.663-7.153,23.663-4.7Zm8.8,3.825h-2.1V-8.711h2.1Zm-2.224-9.867a1.031,1.031,0,0,1,.315-.775,1.184,1.184,0,0,1,.859-.3,1.187,1.187,0,0,1,.855.3,1.025,1.025,0,0,1,.319.775,1.028,1.028,0,0,1-.322.782,1.189,1.189,0,0,1-.851.3,1.189,1.189,0,0,1-.851-.3A1.028,1.028,0,0,1,30.241-10.739ZM38.732-.872a2.325,2.325,0,0,1-.21-.7,2.533,2.533,0,0,1-1.978.848,2.783,2.783,0,0,1-1.909-.667,2.144,2.144,0,0,1-.757-1.681A2.215,2.215,0,0,1,34.8-4.987a4.558,4.558,0,0,1,2.67-.674h.964V-6.11a1.292,1.292,0,0,0-.279-.869,1.1,1.1,0,0,0-.88-.326,1.247,1.247,0,0,0-.83.254.861.861,0,0,0-.3.7H34.052a2.1,2.1,0,0,1,.42-1.261,2.778,2.778,0,0,1,1.188-.909,4.33,4.33,0,0,1,1.724-.33,3.421,3.421,0,0,1,2.3.728,2.547,2.547,0,0,1,.851,2.047v3.4A3.748,3.748,0,0,0,40.848-1v.123ZM37-2.328a1.8,1.8,0,0,0,.855-.206,1.356,1.356,0,0,0,.58-.554V-4.436h-.782q-1.572,0-1.674,1.087l-.007.123a.838.838,0,0,0,.275.645A1.069,1.069,0,0,0,37-2.328Z" transform="translate(881.757 135.548)"/>
    <path id="Trazado_177107" data-name="Trazado 177107" d="M12.983,0,25.965,22.256H0Z" transform="translate(881.831 87.037)" fill="#25ffff"/>
  </g>
</svg>
