<svg xmlns="http://www.w3.org/2000/svg" width="121" height="217" viewBox="0 0 121 217">
  <g id="Grupo_165572" data-name="Grupo 165572" transform="translate(-180 -7047)">
    <rect id="Rectángulo_49516" data-name="Rectángulo 49516" width="121" height="217" rx="6" transform="translate(180 7047)" fill="#acfcff"/>
    <g id="Grupo_165542" data-name="Grupo 165542" transform="translate(222.25 7099.943)">
      <g id="Grupo_165541" data-name="Grupo 165541" transform="translate(0 0)">
        <path id="Trazado_177108" data-name="Trazado 177108" d="M96.334,393.591a2.962,2.962,0,0,1-3.174,3.174c-.615,0-1.194.181-1.7-.1a3.514,3.514,0,0,1,0-6.153c.5-.278,1.081-.1,1.7-.1A2.962,2.962,0,0,1,96.334,393.591Z" transform="translate(-89.648 -339.056)" fill="#ff8578"/>
        <path id="Trazado_177110" data-name="Trazado 177110" d="M195.773,393.591a2.962,2.962,0,0,1-3.174,3.174c-.615,0-1.194.181-1.7-.1a3.514,3.514,0,0,1,0-6.153c.5-.278,1.081-.1,1.7-.1A2.962,2.962,0,0,1,195.773,393.591Z" transform="translate(-172.223 -339.056)" fill="#ff8578"/>
        <path id="Trazado_177112" data-name="Trazado 177112" d="M195.773,289.95a2.962,2.962,0,0,1-3.174,3.174c-.615,0-1.194.181-1.7-.1a3.514,3.514,0,0,1,0-6.153c.5-.278,1.081-.1,1.7-.1A2.962,2.962,0,0,1,195.773,289.95Z" transform="translate(-172.223 -252.991)" fill="#ff8578"/>
        <path id="Trazado_177114" data-name="Trazado 177114" d="M295.215,289.95a2.962,2.962,0,0,1-3.174,3.174c-.615,0-1.194.181-1.7-.1a3.514,3.514,0,0,1,0-6.153c.5-.278,1.081-.1,1.7-.1A2.962,2.962,0,0,1,295.215,289.95Z" transform="translate(-254.801 -252.991)" fill="#ff8578"/>
        <path id="Trazado_177116" data-name="Trazado 177116" d="M295.215,190.511a2.962,2.962,0,0,1-3.174,3.174c-.615,0-1.194.181-1.7-.1a3.514,3.514,0,0,1,0-6.153c.5-.278,1.081-.1,1.7-.1A2.962,2.962,0,0,1,295.215,190.511Z" transform="translate(-254.801 -170.416)" fill="#ff8578"/>
        <path id="Trazado_177118" data-name="Trazado 177118" d="M394.655,190.511a2.962,2.962,0,0,1-3.174,3.174c-.615,0-1.194.181-1.7-.1a3.514,3.514,0,0,1,0-6.153c.5-.278,1.081-.1,1.7-.1A2.962,2.962,0,0,1,394.655,190.511Z" transform="translate(-337.378 -170.416)" fill="#ff8578"/>
        <path id="Trazado_177120" data-name="Trazado 177120" d="M394.655,91.07a2.962,2.962,0,0,1-3.174,3.174c-.615,0-1.194.181-1.7-.1a3.514,3.514,0,0,1,0-6.153c.5-.278,1.081-.1,1.7-.1A2.962,2.962,0,0,1,394.655,91.07Z" transform="translate(-337.378 -87.839)" fill="#ff8578"/>
        <path id="Trazado_177122" data-name="Trazado 177122" d="M394.655,289.984a2.962,2.962,0,0,1-3.174,3.174c-.615,0-1.194.181-1.7-.1a3.514,3.514,0,0,1,0-6.153c.5-.278,1.081-.1,1.7-.1A2.962,2.962,0,0,1,394.655,289.984Z" transform="translate(-337.378 -253.019)" fill="#ff8578"/>
      </g>
    </g>
    <g id="Grupo_165543" data-name="Grupo 165543" transform="translate(197.047 7096.046)">
      <path id="Trazado_177124" data-name="Trazado 177124" d="M91.718,385.986a4.785,4.785,0,1,0-4.785,4.785A4.79,4.79,0,0,0,91.718,385.986Zm-4.785,2.241a2.241,2.241,0,1,1,2.241-2.241A2.243,2.243,0,0,1,86.934,388.227Z" transform="translate(-68.218 -316.554)"/>
      <path id="Trazado_177125" data-name="Trazado 177125" d="M186.374,381.2a4.785,4.785,0,1,0,4.785,4.785A4.79,4.79,0,0,0,186.374,381.2Zm0,7.026a2.241,2.241,0,1,1,2.241-2.241A2.244,2.244,0,0,1,186.374,388.227Z" transform="translate(-150.794 -316.554)"/>
      <path id="Trazado_177126" data-name="Trazado 177126" d="M285.815,187.688a4.785,4.785,0,1,0-4.785-4.785A4.79,4.79,0,0,0,285.815,187.688Zm0-7.026a2.241,2.241,0,1,1-2.241,2.241A2.244,2.244,0,0,1,285.815,180.663Z" transform="translate(-233.371 -147.912)"/>
      <path id="Trazado_177127" data-name="Trazado 177127" d="M285.815,287.129a4.785,4.785,0,1,0-4.785-4.785A4.79,4.79,0,0,0,285.815,287.129Zm0-7.026a2.241,2.241,0,1,1-2.241,2.241A2.244,2.244,0,0,1,285.815,280.1Z" transform="translate(-233.371 -230.489)"/>
      <path id="Trazado_177128" data-name="Trazado 177128" d="M390.039,282.345a4.785,4.785,0,1,0-4.785,4.785A4.79,4.79,0,0,0,390.039,282.345Zm-7.025,0a2.241,2.241,0,1,1,2.241,2.241A2.244,2.244,0,0,1,383.014,282.345Z" transform="translate(-315.947 -230.489)"/>
      <path id="Trazado_177129" data-name="Trazado 177129" d="M181.589,282.345a4.785,4.785,0,1,0,4.785-4.785A4.79,4.79,0,0,0,181.589,282.345Zm4.785-2.241a2.241,2.241,0,1,1-2.241,2.241A2.244,2.244,0,0,1,186.374,280.1Z" transform="translate(-150.794 -230.489)"/>
      <path id="Trazado_177130" data-name="Trazado 177130" d="M1.272,7.253A1.272,1.272,0,0,0,2.544,5.982V1.272A1.272,1.272,0,0,0,0,1.272v4.71A1.272,1.272,0,0,0,1.272,7.253Z" transform="translate(0)"/>
      <path id="Trazado_177131" data-name="Trazado 177131" d="M16.7,134.489H2.544V120.212H6.886a1.272,1.272,0,0,0,0-2.544H2.544V103.337H6.886a1.272,1.272,0,0,0,0-2.544H2.544V86.462H6.886a1.272,1.272,0,0,0,0-2.544H2.544V69.587H6.886a1.272,1.272,0,1,0,0-2.544H2.544V61.729a1.272,1.272,0,1,0-2.544,0v73.184a2.122,2.122,0,0,0,2.12,2.12H16.7a1.272,1.272,0,1,0,0-2.544Z" transform="translate(0 -50.204)"/>
      <path id="Trazado_177132" data-name="Trazado 177132" d="M166.171,497h-41.21a1.272,1.272,0,0,0,0,2.544h41.21a1.272,1.272,0,1,0,0-2.544Z" transform="translate(-102.713 -412.715)"/>
      <path id="Trazado_177133" data-name="Trazado 177133" d="M417.2,497H400.647a1.272,1.272,0,0,0,0,2.544H417.2a1.272,1.272,0,0,0,0-2.544Z" transform="translate(-331.646 -412.715)"/>
      <path id="Trazado_177134" data-name="Trazado 177134" d="M104.135,63.249h15.072a1.272,1.272,0,0,0,0-2.544H104.135a1.272,1.272,0,1,0,0,2.544Z" transform="translate(-85.419 -50.41)"/>
      <path id="Trazado_177135" data-name="Trazado 177135" d="M104.135,101.937h15.072a1.272,1.272,0,0,0,0-2.544H104.135a1.272,1.272,0,0,0,0,2.544Z" transform="translate(-85.419 -82.537)"/>
      <path id="Trazado_177136" data-name="Trazado 177136" d="M104.135,140.624h7.536a1.272,1.272,0,0,0,0-2.544h-7.536a1.272,1.272,0,1,0,0,2.544Z" transform="translate(-85.419 -114.663)"/>
      <path id="Trazado_177137" data-name="Trazado 177137" d="M385.256,187.687a4.785,4.785,0,1,0-4.785-4.785A4.79,4.79,0,0,0,385.256,187.687Zm0-7.026a2.241,2.241,0,1,1-2.241,2.241A2.244,2.244,0,0,1,385.256,180.662Z" transform="translate(-315.948 -147.912)"/>
      <path id="Trazado_177138" data-name="Trazado 177138" d="M385.256,88.247a4.785,4.785,0,1,0-4.785-4.785A4.79,4.79,0,0,0,385.256,88.247Zm0-7.025a2.241,2.241,0,1,1-2.241,2.241A2.244,2.244,0,0,1,385.256,81.222Z" transform="translate(-315.948 -65.335)"/>
    </g>
  </g>
</svg>
