<svg xmlns="http://www.w3.org/2000/svg" width="295" height="81" viewBox="0 0 295 81">
  <g id="Grupo_974155" data-name="Grupo 974155" transform="translate(-295.995 -4829.762)">
    <path id="Trazado_705337" data-name="Trazado 705337" d="M10,0H285a10,10,0,0,1,10,10V71a10,10,0,0,1-10,10H10A10,10,0,0,1,0,71V10A10,10,0,0,1,10,0Z" transform="translate(295.995 4829.762)" fill="#7125c8"/>
    <path id="Trazado_705338" data-name="Trazado 705338" d="M3.524-4.746V0H1.3V-12.8H6.2A4.95,4.95,0,0,1,9.6-11.679a3.757,3.757,0,0,1,1.261,2.956,3.633,3.633,0,0,1-1.235,2.93A5.19,5.19,0,0,1,6.17-4.746Zm0-1.793H6.2A2.632,2.632,0,0,0,8.007-7.1,2.051,2.051,0,0,0,8.631-8.71,2.213,2.213,0,0,0,8-10.367,2.439,2.439,0,0,0,6.258-11H3.524ZM17.112-5.2a13.393,13.393,0,0,1,.545-3.854,10.578,10.578,0,0,1,1.6-3.261,6.351,6.351,0,0,1,2.232-2.017l.422,1.248a6.524,6.524,0,0,0-2.008,2.87A12.852,12.852,0,0,0,19.063-5.8l-.009.756a13.972,13.972,0,0,0,.751,4.75,7,7,0,0,0,2.1,3.177l-.422,1.187a6.362,6.362,0,0,1-2.237-2.026,10.577,10.577,0,0,1-1.6-3.261A13.921,13.921,0,0,1,17.112-5.2Zm14.572.545a5.662,5.662,0,0,1-1,3.52A3.209,3.209,0,0,1,27.993.176a3.23,3.23,0,0,1-2.5-1.028V3.656H23.353V-9.51h1.969l.088.967a3.137,3.137,0,0,1,2.558-1.143,3.242,3.242,0,0,1,2.729,1.3,5.813,5.813,0,0,1,.989,3.6Zm-2.127-.185A3.966,3.966,0,0,0,28.991-7.1a1.843,1.843,0,0,0-1.622-.835,1.965,1.965,0,0,0-1.881,1.081v4.219a1.983,1.983,0,0,0,1.9,1.107,1.841,1.841,0,0,0,1.6-.822A4.366,4.366,0,0,0,29.558-4.843ZM39.173,0a3.3,3.3,0,0,1-.246-.888,3.325,3.325,0,0,1-2.5,1.063,3.355,3.355,0,0,1-2.338-.817,2.615,2.615,0,0,1-.905-2.021A2.7,2.7,0,0,1,34.317-5a5.473,5.473,0,0,1,3.23-.813h1.31v-.624a1.666,1.666,0,0,0-.413-1.182,1.638,1.638,0,0,0-1.257-.444,1.881,1.881,0,0,0-1.2.365,1.129,1.129,0,0,0-.466.927H33.39a2.37,2.37,0,0,1,.519-1.463A3.455,3.455,0,0,1,35.319-9.3a4.955,4.955,0,0,1,1.991-.387,3.99,3.99,0,0,1,2.663.839,2.993,2.993,0,0,1,1.02,2.36V-2.2a4.861,4.861,0,0,0,.36,2.048V0ZM36.826-1.538a2.429,2.429,0,0,0,1.191-.308,2.055,2.055,0,0,0,.839-.826V-4.465H37.705a3.148,3.148,0,0,0-1.784.413,1.338,1.338,0,0,0-.6,1.169,1.248,1.248,0,0,0,.409.98A1.583,1.583,0,0,0,36.826-1.538ZM48.208-7.559a5.285,5.285,0,0,0-.87-.07A1.959,1.959,0,0,0,45.36-6.5V0H43.225V-9.51h2.039l.053,1.063a2.406,2.406,0,0,1,2.145-1.239,2,2,0,0,1,.756.123Zm5.467,2.5A13.224,13.224,0,0,1,53.139-1.3a10.671,10.671,0,0,1-1.626,3.3,6.367,6.367,0,0,1-2.276,2.061l-.422-1.187A6.754,6.754,0,0,0,50.9-.233a13.84,13.84,0,0,0,.769-4.786v-.2A14.044,14.044,0,0,0,51-9.672a7.852,7.852,0,0,0-1.916-3.221l-.272-.246.422-1.2a6.3,6.3,0,0,1,2.18,1.934,10.491,10.491,0,0,1,1.617,3.107,12.941,12.941,0,0,1,.633,3.546ZM68.142-6.855H60.565V-8.631h7.576Zm0,3.727H60.565V-4.9h7.576Z" transform="translate(344.995 4876.762)" fill="#fff"/>
    <path id="Trazado_705339" data-name="Trazado 705339" d="M13.333-6.855H5.757V-8.631h7.576Zm0,3.727H5.757V-4.9h7.576ZM32.818-5.388a6.979,6.979,0,0,1-1.033,4.162,3.647,3.647,0,0,1-3.142,1.4,3.7,3.7,0,0,1-3.125-1.367,6.683,6.683,0,0,1-1.077-4.047V-7.453a6.874,6.874,0,0,1,1.033-4.14,3.681,3.681,0,0,1,3.151-1.38,3.7,3.7,0,0,1,3.133,1.345A6.664,6.664,0,0,1,32.818-7.6ZM30.683-7.778a5.415,5.415,0,0,0-.492-2.641,1.68,1.68,0,0,0-1.564-.839,1.679,1.679,0,0,0-1.538.8,5,5,0,0,0-.519,2.483v2.9a5.555,5.555,0,0,0,.5,2.672,1.683,1.683,0,0,0,1.573.879,1.653,1.653,0,0,0,1.521-.813,5.226,5.226,0,0,0,.519-2.544ZM35.147,2.883,34,2.2A6.21,6.21,0,0,0,34.695.8a4.157,4.157,0,0,0,.2-1.208V-2.065h1.925L36.809-.527a4.287,4.287,0,0,1-.47,1.868A4.64,4.64,0,0,1,35.147,2.883Zm4.087-9.229.694-6.451H46.8v1.846H41.7l-.352,3.059a3.951,3.951,0,0,1,2-.51A3.565,3.565,0,0,1,46.2-7.233a4.632,4.632,0,0,1,1.015,3.146A4.264,4.264,0,0,1,46.09-.98,4.106,4.106,0,0,1,43,.176a4.3,4.3,0,0,1-2.914-1,3.606,3.606,0,0,1-1.252-2.632H40.9a2.256,2.256,0,0,0,.668,1.428,2.032,2.032,0,0,0,1.424.5,1.836,1.836,0,0,0,1.534-.7,3.035,3.035,0,0,0,.549-1.916A2.682,2.682,0,0,0,44.473-6,2.121,2.121,0,0,0,42.8-6.68a2.778,2.778,0,0,0-.984.154,2.788,2.788,0,0,0-.879.6Z" transform="translate(463.995 4876.762)" fill="#fff"/>
    <path id="Trazado_705340" data-name="Trazado 705340" d="M3.428-7.374h1.3a2.328,2.328,0,0,0,1.56-.51,1.819,1.819,0,0,0,.576-1.45,1.982,1.982,0,0,0-.479-1.419,1.928,1.928,0,0,0-1.463-.505,2.039,2.039,0,0,0-1.415.5,1.659,1.659,0,0,0-.554,1.3H.817a3.233,3.233,0,0,1,.523-1.793A3.513,3.513,0,0,1,2.8-12.52a4.753,4.753,0,0,1,2.1-.453,4.4,4.4,0,0,1,3.01.962A3.377,3.377,0,0,1,9-9.334a2.719,2.719,0,0,1-.549,1.622A3.445,3.445,0,0,1,7.031-6.565a3.14,3.14,0,0,1,1.6,1.134,3.1,3.1,0,0,1,.549,1.846A3.437,3.437,0,0,1,8-.844,4.59,4.59,0,0,1,4.9.176,4.555,4.555,0,0,1,1.872-.809,3.242,3.242,0,0,1,.694-3.428H2.83A1.787,1.787,0,0,0,3.4-2.057a2.15,2.15,0,0,0,1.525.527,2.217,2.217,0,0,0,1.564-.527,1.978,1.978,0,0,0,.571-1.529,2,2,0,0,0-.6-1.556,2.555,2.555,0,0,0-1.775-.545H3.428Z" transform="translate(435.64 4866.762)" fill="#fff"/>
    <path id="Trazado_704734" data-name="Trazado 704734" d="M-8334.53,21212.5h28.386" transform="translate(8760.64 -16340.238)" fill="#fff" stroke="#fff" stroke-width="1"/>
    <path id="Trazado_705341" data-name="Trazado 705341" d="M7.6-12.858v1.767H7.339a4.239,4.239,0,0,0-2.865.984A4.119,4.119,0,0,0,3.2-7.392,3.468,3.468,0,0,1,5.827-8.473,3.276,3.276,0,0,1,8.5-7.277a4.708,4.708,0,0,1,.98,3.085,4.4,4.4,0,0,1-1.147,3.16A3.959,3.959,0,0,1,5.326.176,3.867,3.867,0,0,1,2.219-1.239,5.566,5.566,0,0,1,1.028-4.948v-.729a7.832,7.832,0,0,1,1.639-5.273,5.877,5.877,0,0,1,4.715-1.907ZM5.309-6.75a2.249,2.249,0,0,0-1.288.4A2.312,2.312,0,0,0,3.164-5.3v.65a3.831,3.831,0,0,0,.6,2.263,1.823,1.823,0,0,0,1.547.839,1.8,1.8,0,0,0,1.5-.712,2.965,2.965,0,0,0,.554-1.872A3.007,3.007,0,0,0,6.8-6.021,1.793,1.793,0,0,0,5.309-6.75Z" transform="translate(435.64 4890.762)" fill="#fff"/>
  </g>
</svg>
