<svg xmlns="http://www.w3.org/2000/svg" width="268.352" height="81" viewBox="0 0 268.352 81">
  <g id="Grupo_974142" data-name="Grupo 974142" transform="translate(-665.819 -3076.307)">
    <path id="Trazado_704722" data-name="Trazado 704722" d="M9.1,0H259.255c5.024,0,9.1,4.477,9.1,10V71c0,5.523-4.073,10-9.1,10H9.1C4.073,81,0,76.523,0,71V10C0,4.477,4.073,0,9.1,0Z" transform="translate(665.819 3076.307)" fill="#7125c8"/>
    <path id="Trazado_704723" data-name="Trazado 704723" d="M3.524-4.755V0H1.3V-12.8H6.2A4.954,4.954,0,0,1,9.6-11.681a3.751,3.751,0,0,1,1.261,2.953A3.627,3.627,0,0,1,9.628-5.8,5.194,5.194,0,0,1,6.17-4.755Zm0-1.784H6.2A2.632,2.632,0,0,0,8.007-7.1,2.051,2.051,0,0,0,8.631-8.71,2.213,2.213,0,0,0,8-10.367,2.439,2.439,0,0,0,6.258-11H3.524ZM17.112-5.2a13.393,13.393,0,0,1,.545-3.854,10.578,10.578,0,0,1,1.6-3.261,6.351,6.351,0,0,1,2.232-2.017l.422,1.248a6.524,6.524,0,0,0-2.008,2.87A12.852,12.852,0,0,0,19.063-5.8l-.009.756a13.972,13.972,0,0,0,.751,4.75,7,7,0,0,0,2.1,3.177l-.422,1.187a6.362,6.362,0,0,1-2.237-2.026,10.577,10.577,0,0,1-1.6-3.261A13.921,13.921,0,0,1,17.112-5.2ZM31.825,0h-8.6V-1.468l4.263-4.649A10.615,10.615,0,0,0,28.8-7.835a2.784,2.784,0,0,0,.391-1.384,2.1,2.1,0,0,0-.514-1.477,1.783,1.783,0,0,0-1.384-.562,2.056,2.056,0,0,0-1.608.633,2.489,2.489,0,0,0-.571,1.731H22.975a4.186,4.186,0,0,1,.532-2.1,3.662,3.662,0,0,1,1.521-1.455,4.84,4.84,0,0,1,2.281-.519,4.329,4.329,0,0,1,2.94.936,3.249,3.249,0,0,1,1.077,2.588,4.392,4.392,0,0,1-.541,2.008,11.42,11.42,0,0,1-1.771,2.386L25.884-1.705h5.941Zm5.88-5.062A13.224,13.224,0,0,1,37.169-1.3a10.671,10.671,0,0,1-1.626,3.3,6.367,6.367,0,0,1-2.276,2.061l-.422-1.187A6.754,6.754,0,0,0,34.932-.233,13.84,13.84,0,0,0,35.7-5.019v-.2a14.044,14.044,0,0,0-.668-4.452,7.852,7.852,0,0,0-1.916-3.221l-.272-.246.422-1.2a6.3,6.3,0,0,1,2.18,1.934,10.491,10.491,0,0,1,1.617,3.107A12.941,12.941,0,0,1,37.7-5.748ZM52.172-6.855H44.6V-8.631h7.576Zm0,3.727H44.6V-4.9h7.576Z" transform="translate(690.819 3122.307)" fill="#fff"/>
    <path id="Trazado_704724" data-name="Trazado 704724" d="M-7713,20303.5h57.621" transform="translate(8483.819 -17186.693)" fill="#fff" stroke="#fff" stroke-width="1"/>
    <path id="Trazado_704725" data-name="Trazado 704725" d="M6.741,0H4.614V-10.274L1.477-9.2V-11l4.992-1.837h.272Z" transform="translate(792.819 3106.307)" fill="#fff"/>
    <path id="Trazado_704726" data-name="Trazado 704726" d="M7.6-12.858v1.767H7.339a4.239,4.239,0,0,0-2.865.984A4.119,4.119,0,0,0,3.2-7.392,3.468,3.468,0,0,1,5.827-8.473,3.276,3.276,0,0,1,8.5-7.277a4.708,4.708,0,0,1,.98,3.085,4.4,4.4,0,0,1-1.147,3.16A3.959,3.959,0,0,1,5.326.176,3.867,3.867,0,0,1,2.219-1.239,5.566,5.566,0,0,1,1.028-4.948v-.729a7.832,7.832,0,0,1,1.639-5.273,5.877,5.877,0,0,1,4.715-1.907ZM5.309-6.75a2.249,2.249,0,0,0-1.288.4A2.312,2.312,0,0,0,3.164-5.3v.65a3.831,3.831,0,0,0,.6,2.263,1.823,1.823,0,0,0,1.547.839,1.8,1.8,0,0,0,1.5-.712,2.965,2.965,0,0,0,.554-1.872A3.007,3.007,0,0,0,6.8-6.021,1.793,1.793,0,0,0,5.309-6.75Z" transform="translate(792.819 3139.307)" fill="#fff"/>
    <path id="Trazado_704727" data-name="Trazado 704727" d="M8.851-6.855H1.274V-8.631H8.851Zm0,3.727H1.274V-4.9H8.851Zm15-2.259a6.979,6.979,0,0,1-1.033,4.162,3.647,3.647,0,0,1-3.142,1.4,3.7,3.7,0,0,1-3.125-1.367,6.683,6.683,0,0,1-1.077-4.047V-7.453a6.874,6.874,0,0,1,1.033-4.14,3.681,3.681,0,0,1,3.151-1.38,3.7,3.7,0,0,1,3.133,1.345A6.664,6.664,0,0,1,23.854-7.6ZM21.718-7.778a5.415,5.415,0,0,0-.492-2.641,1.68,1.68,0,0,0-1.564-.839,1.679,1.679,0,0,0-1.538.8A5,5,0,0,0,17.6-7.98v2.9a5.555,5.555,0,0,0,.5,2.672,1.683,1.683,0,0,0,1.573.879A1.653,1.653,0,0,0,21.2-2.342a5.226,5.226,0,0,0,.519-2.544ZM26.183,2.883,25.031,2.2A6.21,6.21,0,0,0,25.73.8a4.157,4.157,0,0,0,.2-1.208V-2.065h1.925L27.844-.527a4.287,4.287,0,0,1-.47,1.868A4.64,4.64,0,0,1,26.183,2.883ZM35.481,0H33.354V-10.274L30.217-9.2V-11l4.992-1.837h.272ZM46.573-12.858v1.767H46.31a4.239,4.239,0,0,0-2.865.984A4.119,4.119,0,0,0,42.17-7.392,3.468,3.468,0,0,1,44.8-8.473a3.276,3.276,0,0,1,2.676,1.2,4.708,4.708,0,0,1,.98,3.085,4.4,4.4,0,0,1-1.147,3.16A3.959,3.959,0,0,1,44.3.176,3.867,3.867,0,0,1,41.19-1.239,5.566,5.566,0,0,1,40-4.948v-.729a7.832,7.832,0,0,1,1.639-5.273,5.877,5.877,0,0,1,4.715-1.907ZM44.279-6.75a2.249,2.249,0,0,0-1.288.4A2.312,2.312,0,0,0,42.135-5.3v.65a3.831,3.831,0,0,0,.6,2.263,1.823,1.823,0,0,0,1.547.839,1.8,1.8,0,0,0,1.5-.712,2.965,2.965,0,0,0,.554-1.872,3.007,3.007,0,0,0-.562-1.89A1.793,1.793,0,0,0,44.279-6.75Z" transform="translate(839.819 3122.307)" fill="#fff"/>
  </g>
</svg>
