<svg xmlns="http://www.w3.org/2000/svg" width="574" height="129.456" viewBox="0 0 574 129.456">
  <g id="Grupo_166724" data-name="Grupo 166724" transform="translate(9349.5 6406.456)">
    <g id="Grupo_166730" data-name="Grupo 166730" transform="translate(-9348.821 -6371.932)">
      <path id="Trazado_705133" data-name="Trazado 705133" d="M10.3-8.628H5.288V0H2.461V-21.328H9.521a8.357,8.357,0,0,1,5.544,1.641,5.9,5.9,0,0,1,1.941,4.775A5.742,5.742,0,0,1,15.93-11.44a6.427,6.427,0,0,1-3,2.212l5.01,9.053V0H14.927Zm-5.01-2.3H9.609a4.874,4.874,0,0,0,3.333-1.086,3.672,3.672,0,0,0,1.238-2.906A3.867,3.867,0,0,0,13-17.957a4.993,4.993,0,0,0-3.406-1.071H5.288Zm27.627-1H20.7v-2.358H32.915Zm0,6.079H20.7V-8.188H32.915ZM47.666-2.3H57.773V0H44.839V-21.328h2.827ZM73.623-7.954H66.475v-2.212h7.148ZM86.938-2.3H97.046V0H84.111V-21.328h2.827Z" transform="translate(0.321 27.932)" fill="#12263f"/>
      <path id="Trazado_705134" data-name="Trazado 705134" d="M3.833-13.208l.061,1.465a4.878,4.878,0,0,1,3.918-1.709,3.776,3.776,0,0,1,3.772,2.124A5,5,0,0,1,13.3-12.866a5.066,5.066,0,0,1,2.5-.586q4.346,0,4.419,4.6V0H17.957V-8.716a3.033,3.033,0,0,0-.647-2.118,2.849,2.849,0,0,0-2.173-.7,3,3,0,0,0-2.087.751,3.046,3.046,0,0,0-.964,2.02V0H9.814V-8.655q0-2.881-2.82-2.881a3.021,3.021,0,0,0-3.04,1.892V0H1.7V-13.208Z" transform="translate(59.321 43.932)" fill="#12263f"/>
      <path id="Trazado_705135" data-name="Trazado 705135" d="M4,0H1.828V-12.68H4ZM1.652-16.043a1.294,1.294,0,0,1,.322-.891A1.21,1.21,0,0,1,2.93-17.3a1.229,1.229,0,0,1,.961.363,1.28,1.28,0,0,1,.328.891,1.238,1.238,0,0,1-.328.879,1.251,1.251,0,0,1-.961.352,1.232,1.232,0,0,1-.955-.352A1.251,1.251,0,0,1,1.652-16.043Z" transform="translate(106.321 42.932)" fill="#12263f"/>
    </g>
    <g id="Grupo_166736" data-name="Grupo 166736" transform="translate(-9199.53 -6409.502)">
      <g id="Grupo_166731" data-name="Grupo 166731" transform="translate(0.114 33.742)">
        <path id="Trazado_705124" data-name="Trazado 705124" d="M1.9,0V-16.352H6.514a7.43,7.43,0,0,1,3.773.943,6.38,6.38,0,0,1,2.532,2.684,8.736,8.736,0,0,1,.9,4v1.044a8.767,8.767,0,0,1-.893,4.054A6.28,6.28,0,0,1,10.281-.955,7.9,7.9,0,0,1,6.424,0ZM4.054-14.588V-1.763H6.323A4.936,4.936,0,0,0,10.2-3.314,6.409,6.409,0,0,0,11.59-7.732v-.955a6.51,6.51,0,0,0-1.308-4.333A4.656,4.656,0,0,0,6.57-14.588ZM20.731-7.715l2.7-4.436h2.426L21.877-6.143,25.976,0h-2.4L20.765-4.548,17.958,0H15.543l4.1-6.143-3.976-6.008h2.4ZM43.249-9.142H33.882V-10.95h9.366Zm0,4.661H33.882v-1.8h9.366Z" transform="translate(0 39.724)" fill="#12263f"/>
        <path id="Trazado_705128" data-name="Trazado 705128" d="M9.883,1.622H.043V0h9.84Z" transform="translate(19.724 20)" fill="#12263f"/>
      </g>
      <path id="Trazado_705126" data-name="Trazado 705126" d="M16.663-10.988,5.6,2.228H22.756V5.123H1.314V2.4l11.6-13.635L1.314-24.984v-2.742H21.29v2.895H5.58L16.663-11.464Z" transform="translate(70.551 43.996)" fill="#12263f"/>
      <path id="Trazado_705125" data-name="Trazado 705125" d="M2.5,0H1.143V-7.925H2.5ZM1.033-10.027a.809.809,0,0,1,.2-.557.756.756,0,0,1,.6-.227.768.768,0,0,1,.6.227.8.8,0,0,1,.205.557.774.774,0,0,1-.205.549.782.782,0,0,1-.6.22.77.77,0,0,1-.6-.22A.782.782,0,0,1,1.033-10.027Zm9.829,4.065H4.753V-7.141h6.108Zm0,3.04H4.753V-4.094h6.108ZM17.212,0H15.85V-9.031l-2.732,1v-1.23L17-10.715h.212Z" transform="translate(69.551 65.686)" fill="#12263f"/>
      <path id="Trazado_705127" data-name="Trazado 705127" d="M8.8,0H7.485L2.475-7.67V0H1.155V-9.953H2.475L7.5-2.249v-7.7H8.8Z" transform="translate(78.581 13)" fill="#12263f"/>
      <g id="Grupo_166734" data-name="Grupo 166734" transform="translate(105.17 4.04)">
        <g id="Grupo_166732" data-name="Grupo 166732" transform="translate(8.413)">
          <path id="Trazado_705129" data-name="Trazado 705129" d="M4.667-6.374l2.227-3.665h2L5.613-5.075,9,0H7.014L4.694-3.757,2.375,0H.38L3.767-5.075.482-10.038H2.468Z" transform="translate(0 36.467)" fill="#12263f"/>
          <path id="Trazado_705130" data-name="Trazado 705130" d="M9.434,1.548H.041V0H9.434Z" transform="translate(2.154 19)" fill="#12263f"/>
        </g>
        <g id="Grupo_166733" data-name="Grupo 166733" transform="translate(37.267)">
          <path id="Trazado_705131" data-name="Trazado 705131" d="M4.667-6.374l2.227-3.665h2L5.613-5.075,9,0H7.014L4.694-3.757,2.375,0H.38L3.767-5.075.482-10.038H2.468Z" transform="translate(0 36.467)" fill="#12263f"/>
          <path id="Trazado_705132" data-name="Trazado 705132" d="M9.434,1.548H.041V0H9.434Z" transform="translate(2.154 19)" fill="#12263f"/>
        </g>
        <path id="Trazado_705119" data-name="Trazado 705119" d="M2.165,0H.99V-6.868H2.165ZM.9-8.69a.7.7,0,0,1,.175-.482.655.655,0,0,1,.517-.2.666.666,0,0,1,.521.2.694.694,0,0,1,.178.482.671.671,0,0,1-.178.476.678.678,0,0,1-.521.19.667.667,0,0,1-.517-.19A.678.678,0,0,1,.9-8.69Z" transform="translate(21.109 47.779)" fill="#12263f"/>
        <path id="Trazado_705120" data-name="Trazado 705120" d="M2.165,0H.99V-6.868H2.165ZM.9-8.69a.7.7,0,0,1,.175-.482.655.655,0,0,1,.517-.2.666.666,0,0,1,.521.2.694.694,0,0,1,.178.482.671.671,0,0,1-.178.476.678.678,0,0,1-.521.19.667.667,0,0,1-.517-.19A.678.678,0,0,1,.9-8.69Z" transform="translate(70.738 47.779)" fill="#12263f"/>
        <path id="Trazado_705121" data-name="Trazado 705121" d="M7.125-11H4.746V1.02a4.317,4.317,0,0,1-.984,3.029A3.6,3.6,0,0,1,.973,5.121a3.818,3.818,0,0,1-1.3-.211l.164-1.723A3.08,3.08,0,0,0,.973,3.34,1.343,1.343,0,0,0,2.15,2.73a2.962,2.962,0,0,0,.416-1.687V-11h-2V-12.68h2v-1.406a4.4,4.4,0,0,1,1.049-3.059,3.783,3.783,0,0,1,2.912-1.1A7.144,7.144,0,0,1,8.2-18l-.258,1.713A4.633,4.633,0,0,0,6.8-16.406q-2,0-2.051,2.292v1.434H7.125Z" transform="translate(63.504 38.158)" fill="#12263f"/>
        <path id="Trazado_705122" data-name="Trazado 705122" d="M3.845-3.977H.271V-5.083H3.845Z" transform="translate(25.725 37.083)" fill="#12263f"/>
        <path id="Trazado_197263" data-name="Trazado 197263" d="M-8894.289-6322.956v29.722" transform="translate(8894.289 6339.4)" fill="none" stroke="#12263f" stroke-width="2"/>
        <path id="Trazado_197264" data-name="Trazado 197264" d="M-8894.289-6322.956v29.722" transform="translate(8947.715 6339.4)" fill="none" stroke="#12263f" stroke-width="2"/>
      </g>
      <path id="Trazado_705123" data-name="Trazado 705123" d="M15.094,0H12.832L4.242-13.148V0H1.98V-17.062H4.242L12.855-3.855V-17.062h2.238Z" transform="translate(105.704 95.919)" fill="#12263f"/>
      <path id="Trazado_197265" data-name="Trazado 197265" d="M-9613.244-9288.434h145.662" transform="translate(9667.054 9361.723)" fill="#fff" stroke="#12263f" stroke-width="3"/>
    </g>
    <g id="Grupo_166737" data-name="Grupo 166737" transform="translate(-8928.943 -6387.135)">
      <g id="Grupo_166735" data-name="Grupo 166735" transform="translate(0.444 9.867)">
        <path id="Trazado_705118" data-name="Trazado 705118" d="M15.137-5.64a6.539,6.539,0,0,1-2.081,4.352A6.821,6.821,0,0,1,8.4.244,6.263,6.263,0,0,1,3.351-2.014a9.086,9.086,0,0,1-1.9-6.042V-9.766a10.127,10.127,0,0,1,.885-4.358A6.611,6.611,0,0,1,4.846-17.01a6.985,6.985,0,0,1,3.76-1.007,6.422,6.422,0,0,1,4.541,1.581,6.618,6.618,0,0,1,1.99,4.376H12.781a5.107,5.107,0,0,0-1.324-3.086,4.007,4.007,0,0,0-2.85-.955,4.193,4.193,0,0,0-3.522,1.662A7.628,7.628,0,0,0,3.809-9.711v1.723A7.841,7.841,0,0,0,5.017-3.383,3.9,3.9,0,0,0,8.4-1.672a4.51,4.51,0,0,0,3-.885A4.911,4.911,0,0,0,12.781-5.64Zm9.082,2.527L29.3-17.773H31.86L25.269,0H23.193l-6.58-17.773h2.551Zm20-6.824H34.033V-11.9H44.214Zm0,5.066H34.033V-6.824H44.214Z" transform="translate(0 23)" fill="#12263f"/>
      </g>
      <path id="Trazado_705116" data-name="Trazado 705116" d="M8.8-12.277l4.771-7.629h3.09l-6.289,9.871L16.816,0H13.7L8.8-7.766,3.883,0H.779L7.232-10.035.93-19.906H4.006Z" transform="translate(64.553 59.665)" fill="#12263f"/>
      <path id="Trazado_197266" data-name="Trazado 197266" d="M-9613.244-9288.434h39.05" transform="translate(9668.515 9321.4)" fill="#fff" stroke="#12263f" stroke-width="3"/>
      <path id="Trazado_705117" data-name="Trazado 705117" d="M11.563-6.477A8.063,8.063,0,0,0,17.988-9.23q2.383-2.754,2.6-7.715l.02-1.289a11.556,11.556,0,0,0-2.187-7.422A7.179,7.179,0,0,0,12.5-28.391a7.8,7.8,0,0,0-6.035,2.422V-36.125H2.832v19.453a12.356,12.356,0,0,0,1.1,5.391A8.3,8.3,0,0,0,7.041-7.727,8.36,8.36,0,0,0,11.563-6.477ZM6.465-22.57a5.328,5.328,0,0,1,4.961-2.871,4.878,4.878,0,0,1,4.1,1.9,9.291,9.291,0,0,1,1.465,5.713,11.378,11.378,0,0,1-1.416,6.191,4.513,4.513,0,0,1-4.014,2.188,4.265,4.265,0,0,1-3.691-2.109,9.569,9.569,0,0,1-1.406-5.41Z" transform="translate(57.597 1.503) rotate(97)" fill="#12263f"/>
    </g>
    <path id="Trazado_705110" data-name="Trazado 705110" d="M5,0H84a5,5,0,0,1,5,5V20a5,5,0,0,1-5,5H5a5,5,0,0,1-5-5V5A5,5,0,0,1,5,0Z" transform="translate(-9349.5 -6302)" fill="#a4a3ff"/>
    <path id="Trazado_705111" data-name="Trazado 705111" d="M5,0H146a5,5,0,0,1,5,5V20a5,5,0,0,1-5,5H5a5,5,0,0,1-5-5V5A5,5,0,0,1,5,0Z" transform="translate(-9169.5 -6302)" fill="#a4a3ff"/>
    <path id="Trazado_705112" data-name="Trazado 705112" d="M5,0H185a5,5,0,0,1,5,5V20a5,5,0,0,1-5,5H5a5,5,0,0,1-5-5V5A5,5,0,0,1,5,0Z" transform="translate(-8965.5 -6302)" fill="#a4a3ff"/>
    <path id="Trazado_705113" data-name="Trazado 705113" d="M5.492-4.6H2.82V0H1.313V-11.375H5.078a4.457,4.457,0,0,1,2.957.875A3.148,3.148,0,0,1,9.07-7.953,3.062,3.062,0,0,1,8.5-6.1a3.428,3.428,0,0,1-1.6,1.18L9.57-.094V0H7.961ZM2.82-5.828h2.3A2.6,2.6,0,0,0,6.9-6.407a1.959,1.959,0,0,0,.66-1.55,2.062,2.062,0,0,0-.629-1.62,2.663,2.663,0,0,0-1.816-.571H2.82ZM16.164,0a3.036,3.036,0,0,1-.2-.891A3.225,3.225,0,0,1,13.555.156,2.984,2.984,0,0,1,11.5-.551a2.287,2.287,0,0,1-.8-1.793,2.39,2.39,0,0,1,1-2.051,4.733,4.733,0,0,1,2.824-.73h1.406v-.664A1.623,1.623,0,0,0,15.484-7a1.821,1.821,0,0,0-1.336-.449,2.107,2.107,0,0,0-1.3.391,1.151,1.151,0,0,0-.523.945H10.875a2,2,0,0,1,.449-1.223,3.066,3.066,0,0,1,1.219-.934,4.1,4.1,0,0,1,1.691-.344,3.342,3.342,0,0,1,2.289.73,2.635,2.635,0,0,1,.859,2.012v3.891a4.757,4.757,0,0,0,.3,1.852V0Zm-2.4-1.1a2.54,2.54,0,0,0,1.289-.352,2.127,2.127,0,0,0,.883-.914V-4.1H14.8q-2.656,0-2.656,1.555A1.316,1.316,0,0,0,12.6-1.484,1.742,1.742,0,0,0,13.766-1.1Zm7.25-7.352.047,1.063a3.08,3.08,0,0,1,2.531-1.219q2.68,0,2.7,3.023V0H24.852V-5.594a1.946,1.946,0,0,0-.418-1.352,1.675,1.675,0,0,0-1.277-.437,2.086,2.086,0,0,0-1.234.375,2.546,2.546,0,0,0-.828.984V0H19.648V-8.453ZM28.133-4.3a4.968,4.968,0,0,1,.914-3.145,2.923,2.923,0,0,1,2.422-1.168,2.908,2.908,0,0,1,2.414,1.094l.07-.937h1.32V-.2A3.439,3.439,0,0,1,34.3,2.383a3.589,3.589,0,0,1-2.613.945A4.348,4.348,0,0,1,29.9,2.938a3.08,3.08,0,0,1-1.336-1.07L29.313,1a2.826,2.826,0,0,0,2.273,1.148,2.214,2.214,0,0,0,1.645-.594,2.269,2.269,0,0,0,.59-1.672V-.844a2.971,2.971,0,0,1-2.367,1,2.887,2.887,0,0,1-2.4-1.2A5.224,5.224,0,0,1,28.133-4.3Zm1.453.164a3.79,3.79,0,0,0,.586,2.246,1.9,1.9,0,0,0,1.641.816A2.117,2.117,0,0,0,33.82-2.312V-6.172a2.142,2.142,0,0,0-1.992-1.211,1.921,1.921,0,0,0-1.648.82A4.128,4.128,0,0,0,29.586-4.133ZM37.07-4.3a4.993,4.993,0,0,1,.488-2.234A3.643,3.643,0,0,1,38.918-8.07a3.7,3.7,0,0,1,1.988-.539,3.565,3.565,0,0,1,2.793,1.2,4.6,4.6,0,0,1,1.066,3.18v.1a5.036,5.036,0,0,1-.473,2.215A3.589,3.589,0,0,1,42.941-.391a3.743,3.743,0,0,1-2.02.547,3.556,3.556,0,0,1-2.785-1.2A4.575,4.575,0,0,1,37.07-4.2Zm1.453.172a3.616,3.616,0,0,0,.652,2.258,2.088,2.088,0,0,0,1.746.852,2.075,2.075,0,0,0,1.75-.863A3.955,3.955,0,0,0,43.32-4.3a3.61,3.61,0,0,0-.66-2.254,2.1,2.1,0,0,0-1.754-.863,2.075,2.075,0,0,0-1.727.852A3.925,3.925,0,0,0,38.523-4.133Z" transform="translate(-9325.5 -6284)" fill="#fff"/>
    <path id="Trazado_705114" data-name="Trazado 705114" d="M1.32,0V-11.375H4.531a5.169,5.169,0,0,1,2.625.656A4.438,4.438,0,0,1,8.918-8.852,6.078,6.078,0,0,1,9.547-6.07v.727a6.1,6.1,0,0,1-.621,2.82A4.369,4.369,0,0,1,7.152-.664,5.5,5.5,0,0,1,4.469,0Zm1.5-10.148v8.922H4.4A3.434,3.434,0,0,0,7.1-2.306a4.458,4.458,0,0,0,.965-3.073v-.665a4.529,4.529,0,0,0-.91-3.014A3.239,3.239,0,0,0,4.57-10.148ZM15.094.156A3.693,3.693,0,0,1,12.3-.973a4.19,4.19,0,0,1-1.078-3.02v-.266A5.073,5.073,0,0,1,11.7-6.5a3.748,3.748,0,0,1,1.344-1.547,3.378,3.378,0,0,1,1.871-.559,3.166,3.166,0,0,1,2.563,1.086,4.7,4.7,0,0,1,.914,3.109v.6H12.664a3,3,0,0,0,.73,2.02,2.3,2.3,0,0,0,1.777.77,2.517,2.517,0,0,0,1.3-.312,3.259,3.259,0,0,0,.93-.828l.883.688A3.55,3.55,0,0,1,15.094.156Zm-.18-7.578a1.928,1.928,0,0,0-1.469.637A3.1,3.1,0,0,0,12.711-5h4.234v-.109a2.753,2.753,0,0,0-.594-1.707A1.815,1.815,0,0,0,14.914-7.422Zm10.07,5.18a1.064,1.064,0,0,0-.441-.91A4.249,4.249,0,0,0,23-3.711a7.277,7.277,0,0,1-1.742-.562,2.479,2.479,0,0,1-.953-.781A1.869,1.869,0,0,1,20-6.133a2.193,2.193,0,0,1,.879-1.758,3.432,3.432,0,0,1,2.246-.719,3.532,3.532,0,0,1,2.332.742,2.357,2.357,0,0,1,.895,1.9H24.9a1.3,1.3,0,0,0-.5-1.023,1.888,1.888,0,0,0-1.27-.43,1.976,1.976,0,0,0-1.234.344,1.082,1.082,0,0,0-.445.9.877.877,0,0,0,.414.789,5.1,5.1,0,0,0,1.5.508,7.8,7.8,0,0,1,1.754.578,2.558,2.558,0,0,1,1,.809,1.988,1.988,0,0,1,.324,1.152,2.163,2.163,0,0,1-.906,1.816,3.8,3.8,0,0,1-2.352.684,4.257,4.257,0,0,1-1.8-.359,2.922,2.922,0,0,1-1.223-1A2.42,2.42,0,0,1,19.711-2.6h1.445a1.5,1.5,0,0,0,.582,1.152,2.258,2.258,0,0,0,1.434.426,2.331,2.331,0,0,0,1.316-.332A1.02,1.02,0,0,0,24.984-2.242Zm6.117.281L33.2-8.453h1.477L31.641,0h-1.1L27.477-8.453h1.477ZM37.633,0H36.188V-8.453h1.445ZM36.07-10.7a.863.863,0,0,1,.215-.594.807.807,0,0,1,.637-.242.819.819,0,0,1,.641.242.854.854,0,0,1,.219.594.826.826,0,0,1-.219.586.834.834,0,0,1-.641.234.821.821,0,0,1-.637-.234A.834.834,0,0,1,36.07-10.7ZM45.164,0a3.036,3.036,0,0,1-.2-.891A3.225,3.225,0,0,1,42.555.156,2.984,2.984,0,0,1,40.5-.551a2.287,2.287,0,0,1-.8-1.793,2.39,2.39,0,0,1,1-2.051,4.733,4.733,0,0,1,2.824-.73h1.406v-.664A1.623,1.623,0,0,0,44.484-7a1.821,1.821,0,0,0-1.336-.449,2.107,2.107,0,0,0-1.3.391,1.151,1.151,0,0,0-.523.945H39.875a2,2,0,0,1,.449-1.223,3.066,3.066,0,0,1,1.219-.934,4.1,4.1,0,0,1,1.691-.344,3.342,3.342,0,0,1,2.289.73,2.635,2.635,0,0,1,.859,2.012v3.891a4.757,4.757,0,0,0,.3,1.852V0Zm-2.4-1.1a2.54,2.54,0,0,0,1.289-.352,2.127,2.127,0,0,0,.883-.914V-4.1H43.8q-2.656,0-2.656,1.555A1.316,1.316,0,0,0,41.6-1.484,1.742,1.742,0,0,0,42.766-1.1Zm9.273.078a2.082,2.082,0,0,0,1.352-.469,1.649,1.649,0,0,0,.641-1.172H55.4a2.621,2.621,0,0,1-.5,1.383,3.293,3.293,0,0,1-1.23,1.047,3.55,3.55,0,0,1-1.629.391A3.482,3.482,0,0,1,49.293-1a4.59,4.59,0,0,1-1.02-3.152v-.242a5.089,5.089,0,0,1,.453-2.2,3.451,3.451,0,0,1,1.3-1.492,3.7,3.7,0,0,1,2-.531,3.39,3.39,0,0,1,2.363.852,3.043,3.043,0,0,1,1,2.211H54.031a1.992,1.992,0,0,0-.621-1.348,1.932,1.932,0,0,0-1.379-.527,2.023,2.023,0,0,0-1.707.793,3.724,3.724,0,0,0-.605,2.293v.273a3.65,3.65,0,0,0,.6,2.25A2.033,2.033,0,0,0,52.039-1.023ZM58.594,0H57.148V-8.453h1.445ZM57.031-10.7a.863.863,0,0,1,.215-.594.807.807,0,0,1,.637-.242.819.819,0,0,1,.641.242.854.854,0,0,1,.219.594.826.826,0,0,1-.219.586.834.834,0,0,1-.641.234.821.821,0,0,1-.637-.234A.834.834,0,0,1,57.031-10.7ZM60.523-4.3a4.993,4.993,0,0,1,.488-2.234A3.643,3.643,0,0,1,62.371-8.07a3.7,3.7,0,0,1,1.988-.539,3.565,3.565,0,0,1,2.793,1.2,4.6,4.6,0,0,1,1.066,3.18v.1a5.036,5.036,0,0,1-.473,2.215A3.589,3.589,0,0,1,66.395-.391a3.743,3.743,0,0,1-2.02.547,3.556,3.556,0,0,1-2.785-1.2A4.575,4.575,0,0,1,60.523-4.2Zm1.453.172a3.616,3.616,0,0,0,.652,2.258,2.088,2.088,0,0,0,1.746.852,2.075,2.075,0,0,0,1.75-.863A3.955,3.955,0,0,0,66.773-4.3a3.61,3.61,0,0,0-.66-2.254,2.1,2.1,0,0,0-1.754-.863,2.075,2.075,0,0,0-1.727.852A3.925,3.925,0,0,0,61.977-4.133ZM65.016-12h1.75L64.672-9.7l-1.164,0ZM71.4-8.453l.047,1.063a3.08,3.08,0,0,1,2.531-1.219q2.68,0,2.7,3.023V0H75.234V-5.594a1.946,1.946,0,0,0-.418-1.352,1.675,1.675,0,0,0-1.277-.437,2.086,2.086,0,0,0-1.234.375,2.546,2.546,0,0,0-.828.984V0H70.031V-8.453Zm12.781,0,.039.938a3.122,3.122,0,0,1,2.508-1.094A2.417,2.417,0,0,1,89.141-7.25a3.2,3.2,0,0,1,1.1-.984,3.242,3.242,0,0,1,1.6-.375q2.781,0,2.828,2.945V0H93.219V-5.578A1.941,1.941,0,0,0,92.8-6.934a1.823,1.823,0,0,0-1.391-.449,1.916,1.916,0,0,0-1.336.48,1.949,1.949,0,0,0-.617,1.293V0H88.008V-5.539a1.613,1.613,0,0,0-1.8-1.844,1.934,1.934,0,0,0-1.945,1.211V0H82.813V-8.453ZM100.352.156a3.693,3.693,0,0,1-2.8-1.129,4.19,4.19,0,0,1-1.078-3.02v-.266a5.073,5.073,0,0,1,.48-2.246A3.748,3.748,0,0,1,98.3-8.051a3.378,3.378,0,0,1,1.871-.559,3.166,3.166,0,0,1,2.563,1.086,4.7,4.7,0,0,1,.914,3.109v.6H97.922a3,3,0,0,0,.73,2.02,2.3,2.3,0,0,0,1.777.77,2.517,2.517,0,0,0,1.3-.312,3.259,3.259,0,0,0,.93-.828l.883.688A3.55,3.55,0,0,1,100.352.156Zm-.18-7.578a1.928,1.928,0,0,0-1.469.637A3.1,3.1,0,0,0,97.969-5H102.2v-.109a2.753,2.753,0,0,0-.594-1.707A1.815,1.815,0,0,0,100.172-7.422Zm4.8,3.125a4.952,4.952,0,0,1,.922-3.129A2.915,2.915,0,0,1,108.3-8.609a2.932,2.932,0,0,1,2.352,1.016V-12H112.1V0h-1.328l-.07-.906A2.943,2.943,0,0,1,108.289.156a2.887,2.887,0,0,1-2.395-1.2,5.008,5.008,0,0,1-.926-3.141Zm1.445.164a3.749,3.749,0,0,0,.594,2.25,1.92,1.92,0,0,0,1.641.813A2.109,2.109,0,0,0,110.656-2.3V-6.187a2.125,2.125,0,0,0-1.992-1.2,1.929,1.929,0,0,0-1.656.82A4.128,4.128,0,0,0,106.414-4.133ZM115.914,0h-1.445V-8.453h1.445Zm-1.562-10.7a.863.863,0,0,1,.215-.594.807.807,0,0,1,.637-.242.819.819,0,0,1,.641.242.854.854,0,0,1,.219.594.826.826,0,0,1-.219.586.834.834,0,0,1-.641.234.821.821,0,0,1-.637-.234A.834.834,0,0,1,114.352-10.7ZM123.445,0a3.036,3.036,0,0,1-.2-.891A3.225,3.225,0,0,1,120.836.156a2.984,2.984,0,0,1-2.051-.707,2.288,2.288,0,0,1-.8-1.793,2.39,2.39,0,0,1,1-2.051,4.733,4.733,0,0,1,2.824-.73h1.406v-.664A1.623,1.623,0,0,0,122.766-7a1.821,1.821,0,0,0-1.336-.449,2.108,2.108,0,0,0-1.3.391,1.151,1.151,0,0,0-.523.945h-1.453a2,2,0,0,1,.449-1.223,3.066,3.066,0,0,1,1.219-.934,4.1,4.1,0,0,1,1.691-.344,3.342,3.342,0,0,1,2.289.73,2.635,2.635,0,0,1,.859,2.012v3.891a4.757,4.757,0,0,0,.3,1.852V0Zm-2.4-1.1a2.54,2.54,0,0,0,1.289-.352,2.127,2.127,0,0,0,.883-.914V-4.1h-1.133q-2.656,0-2.656,1.555a1.316,1.316,0,0,0,.453,1.063A1.742,1.742,0,0,0,121.047-1.1Z" transform="translate(-9155.5 -6284)" fill="#fff"/>
    <path id="Trazado_705115" data-name="Trazado 705115" d="M9.688-3.609A4.185,4.185,0,0,1,8.355-.824a4.365,4.365,0,0,1-2.98.98,4.008,4.008,0,0,1-3.23-1.445A5.815,5.815,0,0,1,.93-5.156V-6.25A6.481,6.481,0,0,1,1.5-9.039,4.231,4.231,0,0,1,3.1-10.887a4.47,4.47,0,0,1,2.406-.645A4.11,4.11,0,0,1,8.414-10.52a4.235,4.235,0,0,1,1.273,2.8H8.18a3.268,3.268,0,0,0-.848-1.975A2.565,2.565,0,0,0,5.508-10.3,2.684,2.684,0,0,0,3.254-9.241a4.882,4.882,0,0,0-.816,3.026v1.1a5.018,5.018,0,0,0,.773,2.948A2.5,2.5,0,0,0,5.375-1.07a2.887,2.887,0,0,0,1.918-.566A3.143,3.143,0,0,0,8.18-3.609Zm1.438-.7a4.993,4.993,0,0,1,.488-2.234A3.643,3.643,0,0,1,12.973-8.07a3.7,3.7,0,0,1,1.988-.539,3.565,3.565,0,0,1,2.793,1.2,4.6,4.6,0,0,1,1.066,3.18v.1a5.036,5.036,0,0,1-.473,2.215A3.589,3.589,0,0,1,17-.391a3.743,3.743,0,0,1-2.02.547,3.556,3.556,0,0,1-2.785-1.2A4.575,4.575,0,0,1,11.125-4.2Zm1.453.172a3.616,3.616,0,0,0,.652,2.258,2.088,2.088,0,0,0,1.746.852,2.075,2.075,0,0,0,1.75-.863A3.955,3.955,0,0,0,17.375-4.3a3.61,3.61,0,0,0-.66-2.254,2.1,2.1,0,0,0-1.754-.863,2.075,2.075,0,0,0-1.727.852A3.925,3.925,0,0,0,12.578-4.133ZM24.141.156a3.693,3.693,0,0,1-2.8-1.129,4.19,4.19,0,0,1-1.078-3.02v-.266a5.073,5.073,0,0,1,.48-2.246A3.748,3.748,0,0,1,22.09-8.051a3.378,3.378,0,0,1,1.871-.559,3.166,3.166,0,0,1,2.563,1.086,4.7,4.7,0,0,1,.914,3.109v.6H21.711a3,3,0,0,0,.73,2.02,2.3,2.3,0,0,0,1.777.77,2.517,2.517,0,0,0,1.3-.312,3.259,3.259,0,0,0,.93-.828l.883.688A3.55,3.55,0,0,1,24.141.156Zm-.18-7.578a1.928,1.928,0,0,0-1.469.637A3.1,3.1,0,0,0,21.758-5h4.234v-.109A2.753,2.753,0,0,0,25.4-6.816,1.815,1.815,0,0,0,23.961-7.422ZM29.594,0V-7.336H28.258V-8.453h1.336v-.719a2.937,2.937,0,0,1,.809-2.2,3.136,3.136,0,0,1,2.285-.789,6.881,6.881,0,0,1,2.211.477l-.242,1.219a5.008,5.008,0,0,0-1.859-.391,1.819,1.819,0,0,0-1.34.418,1.723,1.723,0,0,0-.41,1.254v.734h1.727v1.117H31.047V0Zm6.023,0H34.164V-8.453h1.453Zm5.742-1.023a2.082,2.082,0,0,0,1.352-.469,1.649,1.649,0,0,0,.641-1.172h1.367a2.621,2.621,0,0,1-.5,1.383,3.293,3.293,0,0,1-1.23,1.047,3.55,3.55,0,0,1-1.629.391A3.482,3.482,0,0,1,38.613-1a4.59,4.59,0,0,1-1.02-3.152v-.242a5.089,5.089,0,0,1,.453-2.2,3.451,3.451,0,0,1,1.3-1.492,3.7,3.7,0,0,1,2-.531,3.39,3.39,0,0,1,2.363.852,3.043,3.043,0,0,1,1,2.211H43.352a1.992,1.992,0,0,0-.621-1.348,1.932,1.932,0,0,0-1.379-.527,2.023,2.023,0,0,0-1.707.793,3.724,3.724,0,0,0-.605,2.293v.273a3.65,3.65,0,0,0,.6,2.25A2.033,2.033,0,0,0,41.359-1.023ZM47.914,0H46.469V-8.453h1.445ZM46.352-10.7a.863.863,0,0,1,.215-.594.807.807,0,0,1,.637-.242.819.819,0,0,1,.641.242.854.854,0,0,1,.219.594.826.826,0,0,1-.219.586.834.834,0,0,1-.641.234.821.821,0,0,1-.637-.234A.834.834,0,0,1,46.352-10.7ZM53.734.156a3.693,3.693,0,0,1-2.8-1.129,4.19,4.19,0,0,1-1.078-3.02v-.266A5.073,5.073,0,0,1,50.34-6.5a3.748,3.748,0,0,1,1.344-1.547,3.378,3.378,0,0,1,1.871-.559,3.166,3.166,0,0,1,2.563,1.086,4.7,4.7,0,0,1,.914,3.109v.6H51.3a3,3,0,0,0,.73,2.02,2.3,2.3,0,0,0,1.777.77,2.517,2.517,0,0,0,1.3-.312,3.259,3.259,0,0,0,.93-.828l.883.688A3.55,3.55,0,0,1,53.734.156Zm-.18-7.578a1.928,1.928,0,0,0-1.469.637A3.1,3.1,0,0,0,51.352-5h4.234v-.109a2.753,2.753,0,0,0-.594-1.707A1.815,1.815,0,0,0,53.555-7.422ZM60.07-8.453l.047,1.063a3.08,3.08,0,0,1,2.531-1.219q2.68,0,2.7,3.023V0H63.906V-5.594a1.946,1.946,0,0,0-.418-1.352,1.675,1.675,0,0,0-1.277-.437,2.086,2.086,0,0,0-1.234.375,2.546,2.546,0,0,0-.828.984V0H58.7V-8.453ZM69.492-10.5v2.047H71.07v1.117H69.492v5.249a1.173,1.173,0,0,0,.211.763.888.888,0,0,0,.719.254,3.5,3.5,0,0,0,.688-.094V0A4.215,4.215,0,0,1,70,.156,1.8,1.8,0,0,1,68.539-.43a2.517,2.517,0,0,1-.492-1.664V-7.336H66.508V-8.453h1.539V-10.5ZM76.266.156a3.693,3.693,0,0,1-2.8-1.129,4.19,4.19,0,0,1-1.078-3.02v-.266a5.073,5.073,0,0,1,.48-2.246,3.748,3.748,0,0,1,1.344-1.547,3.378,3.378,0,0,1,1.871-.559,3.166,3.166,0,0,1,2.563,1.086,4.7,4.7,0,0,1,.914,3.109v.6H73.836a3,3,0,0,0,.73,2.02,2.3,2.3,0,0,0,1.777.77,2.517,2.517,0,0,0,1.3-.312,3.259,3.259,0,0,0,.93-.828l.883.688A3.55,3.55,0,0,1,76.266.156Zm-.18-7.578a1.928,1.928,0,0,0-1.469.637A3.1,3.1,0,0,0,73.883-5h4.234v-.109a2.753,2.753,0,0,0-.594-1.707A1.815,1.815,0,0,0,76.086-7.422ZM84.844-4.3a4.952,4.952,0,0,1,.922-3.129A2.915,2.915,0,0,1,88.18-8.609a2.932,2.932,0,0,1,2.352,1.016V-12h1.445V0H90.648l-.07-.906A2.943,2.943,0,0,1,88.164.156a2.887,2.887,0,0,1-2.395-1.2,5.008,5.008,0,0,1-.926-3.141Zm1.445.164a3.749,3.749,0,0,0,.594,2.25,1.92,1.92,0,0,0,1.641.813A2.109,2.109,0,0,0,90.531-2.3V-6.187a2.125,2.125,0,0,0-1.992-1.2,1.929,1.929,0,0,0-1.656.82A4.128,4.128,0,0,0,86.289-4.133ZM97.727.156a3.693,3.693,0,0,1-2.8-1.129,4.19,4.19,0,0,1-1.078-3.02v-.266a5.073,5.073,0,0,1,.48-2.246,3.748,3.748,0,0,1,1.344-1.547,3.378,3.378,0,0,1,1.871-.559,3.166,3.166,0,0,1,2.563,1.086,4.7,4.7,0,0,1,.914,3.109v.6H95.3a3,3,0,0,0,.73,2.02,2.3,2.3,0,0,0,1.777.77,2.517,2.517,0,0,0,1.3-.312,3.259,3.259,0,0,0,.93-.828l.883.688A3.55,3.55,0,0,1,97.727.156Zm-.18-7.578a1.928,1.928,0,0,0-1.469.637A3.1,3.1,0,0,0,95.344-5h4.234v-.109a2.753,2.753,0,0,0-.594-1.707A1.815,1.815,0,0,0,97.547-7.422Zm11.9,5.461,2.094-6.492h1.477L109.984,0h-1.1L105.82-8.453H107.3ZM119.508,0a3.036,3.036,0,0,1-.2-.891A3.225,3.225,0,0,1,116.9.156a2.984,2.984,0,0,1-2.051-.707,2.288,2.288,0,0,1-.8-1.793,2.39,2.39,0,0,1,1-2.051,4.733,4.733,0,0,1,2.824-.73h1.406v-.664A1.623,1.623,0,0,0,118.828-7a1.821,1.821,0,0,0-1.336-.449,2.108,2.108,0,0,0-1.3.391,1.151,1.151,0,0,0-.523.945h-1.453a2,2,0,0,1,.449-1.223,3.066,3.066,0,0,1,1.219-.934,4.1,4.1,0,0,1,1.691-.344,3.342,3.342,0,0,1,2.289.73,2.635,2.635,0,0,1,.859,2.012v3.891a4.757,4.757,0,0,0,.3,1.852V0Zm-2.4-1.1a2.54,2.54,0,0,0,1.289-.352,2.127,2.127,0,0,0,.883-.914V-4.1h-1.133q-2.656,0-2.656,1.555a1.316,1.316,0,0,0,.453,1.063A1.742,1.742,0,0,0,117.109-1.1Zm9.969-6.055a4.331,4.331,0,0,0-.711-.055A1.9,1.9,0,0,0,124.438-6V0h-1.445V-8.453H124.4l.023.977a2.251,2.251,0,0,1,2.016-1.133,1.477,1.477,0,0,1,.641.109ZM129.977,0h-1.445V-8.453h1.445Zm-1.562-10.7a.863.863,0,0,1,.215-.594.807.807,0,0,1,.637-.242.819.819,0,0,1,.641.242.854.854,0,0,1,.219.594.826.826,0,0,1-.219.586.834.834,0,0,1-.641.234.821.821,0,0,1-.637-.234A.834.834,0,0,1,128.414-10.7ZM137.508,0a3.036,3.036,0,0,1-.2-.891A3.225,3.225,0,0,1,134.9.156a2.984,2.984,0,0,1-2.051-.707,2.287,2.287,0,0,1-.8-1.793,2.39,2.39,0,0,1,1-2.051,4.733,4.733,0,0,1,2.824-.73h1.406v-.664A1.623,1.623,0,0,0,136.828-7a1.821,1.821,0,0,0-1.336-.449,2.107,2.107,0,0,0-1.3.391,1.151,1.151,0,0,0-.523.945h-1.453a2,2,0,0,1,.449-1.223,3.066,3.066,0,0,1,1.219-.934,4.1,4.1,0,0,1,1.691-.344,3.342,3.342,0,0,1,2.289.73,2.635,2.635,0,0,1,.859,2.012v3.891a4.757,4.757,0,0,0,.3,1.852V0Zm-2.4-1.1a2.54,2.54,0,0,0,1.289-.352,2.127,2.127,0,0,0,.883-.914V-4.1h-1.133q-2.656,0-2.656,1.555a1.316,1.316,0,0,0,.453,1.063A1.742,1.742,0,0,0,135.109-1.1Zm9.273.078a2.082,2.082,0,0,0,1.352-.469,1.649,1.649,0,0,0,.641-1.172h1.367a2.621,2.621,0,0,1-.5,1.383,3.293,3.293,0,0,1-1.23,1.047,3.55,3.55,0,0,1-1.629.391A3.482,3.482,0,0,1,141.637-1a4.59,4.59,0,0,1-1.02-3.152v-.242a5.089,5.089,0,0,1,.453-2.2,3.451,3.451,0,0,1,1.3-1.492,3.7,3.7,0,0,1,2-.531,3.39,3.39,0,0,1,2.363.852,3.043,3.043,0,0,1,1,2.211h-1.367a1.992,1.992,0,0,0-.621-1.348,1.932,1.932,0,0,0-1.379-.527,2.023,2.023,0,0,0-1.707.793,3.724,3.724,0,0,0-.605,2.293v.273a3.65,3.65,0,0,0,.6,2.25A2.033,2.033,0,0,0,144.383-1.023ZM150.938,0h-1.445V-8.453h1.445Zm-1.562-10.7a.863.863,0,0,1,.215-.594.807.807,0,0,1,.637-.242.819.819,0,0,1,.641.242.854.854,0,0,1,.219.594.826.826,0,0,1-.219.586.834.834,0,0,1-.641.234.821.821,0,0,1-.637-.234A.834.834,0,0,1,149.375-10.7ZM152.867-4.3a4.993,4.993,0,0,1,.488-2.234,3.642,3.642,0,0,1,1.359-1.531,3.7,3.7,0,0,1,1.988-.539,3.565,3.565,0,0,1,2.793,1.2,4.6,4.6,0,0,1,1.066,3.18v.1a5.036,5.036,0,0,1-.473,2.215,3.589,3.589,0,0,1-1.352,1.527,3.743,3.743,0,0,1-2.02.547,3.556,3.556,0,0,1-2.785-1.2A4.575,4.575,0,0,1,152.867-4.2Zm1.453.172a3.616,3.616,0,0,0,.652,2.258,2.088,2.088,0,0,0,1.746.852,2.075,2.075,0,0,0,1.75-.863,3.954,3.954,0,0,0,.648-2.418,3.61,3.61,0,0,0-.66-2.254,2.1,2.1,0,0,0-1.754-.863,2.075,2.075,0,0,0-1.727.852A3.925,3.925,0,0,0,154.32-4.133ZM157.359-12h1.75l-2.094,2.3-1.164,0Zm6.383,3.547.047,1.063a3.08,3.08,0,0,1,2.531-1.219q2.68,0,2.7,3.023V0h-1.445V-5.594a1.946,1.946,0,0,0-.418-1.352,1.675,1.675,0,0,0-1.277-.437,2.086,2.086,0,0,0-1.234.375,2.546,2.546,0,0,0-.828.984V0h-1.445V-8.453Z" transform="translate(-8957.5 -6284)" fill="#fff"/>
  </g>
</svg>
