<svg xmlns="http://www.w3.org/2000/svg" width="312.926" height="268.772" viewBox="0 0 312.926 268.772">
  <g id="Grupo_974101" data-name="Grupo 974101" transform="translate(-7215.574 7979.083)">
    <g id="Grupo_974083" data-name="Grupo 974083" transform="translate(7260.5 -7934.68)">
      <rect id="Rect치ngulo_49533" data-name="Rect치ngulo 49533" width="220" height="169" transform="translate(48 55.369)" fill="#7125c8"/>
      <g id="Grupo_169217" data-name="Grupo 169217" transform="translate(-44.926 -44.076)">
        <rect id="Rect치ngulo_49754" data-name="Rect치ngulo 49754" width="252.408" height="233.81" transform="translate(0 -0.327)" fill="none"/>
        <g id="analizar" transform="translate(39.343 36.283)">
          <g id="Grupo_165727" data-name="Grupo 165727" transform="translate(2.802 2.802)">
            <g id="Grupo_165714" data-name="Grupo 165714" transform="translate(28.02 145.702)">
              <path id="Trazado_177889" data-name="Trazado 177889" d="M12,54H56.831A22.416,22.416,0,1,1,12,54Z" transform="translate(-12 -54)" fill="#a4a3ff"/>
            </g>
            <g id="Grupo_165715" data-name="Grupo 165715" transform="translate(28.02 123.286)">
              <path id="Trazado_177890" data-name="Trazado 177890" d="M56.831,46V68.416H12V46H56.831Z" transform="translate(-12 -46)" fill="#ccd1d9"/>
            </g>
            <g id="Grupo_165716" data-name="Grupo 165716" transform="translate(0 11.208)">
              <path id="Trazado_177891" data-name="Trazado 177891" d="M102.87,56.435a51.2,51.2,0,0,0-2.578-15.943,49.044,49.044,0,0,0-5.6-11.572c-.588-.925-1.233-1.849-1.905-2.746A50.44,50.44,0,0,0,52.435,6V22.812a5.62,5.62,0,0,1-5.6,5.6h-2.8v7.733a3.463,3.463,0,0,1-6.557,1.569l-4.651-9.3H10.462v.056A50.031,50.031,0,0,0,4.186,41.809,49.454,49.454,0,0,0,2,56.435,70.027,70.027,0,0,0,15.029,97.092l14.99,20.987H74.851l14.99-20.987c.7-.981,1.373-1.989,2.017-3a38.156,38.156,0,0,1-.2-4.035,39.125,39.125,0,0,1,10.9-27.123c.2-2.158.308-4.315.308-6.5Z" transform="translate(-2 -6)" fill="#ffde96"/>
            </g>
            <g id="Grupo_165717" data-name="Grupo 165717">
              <path id="Trazado_177892" data-name="Trazado 177892" d="M52.435,13.208V30.02a5.62,5.62,0,0,1-5.6,5.6h-2.8v7.733a3.463,3.463,0,0,1-6.557,1.569l-4.651-9.3H7.6A5.62,5.62,0,0,1,2,30.02V7.6A5.62,5.62,0,0,1,7.6,2H46.831a5.62,5.62,0,0,1,5.6,5.6Z" transform="translate(-2 -2)" fill="#e6e9ed"/>
            </g>
            <g id="Grupo_165718" data-name="Grupo 165718" transform="translate(67.247 44.831)">
              <path id="Trazado_177893" data-name="Trazado 177893" d="M26,18H37.208V68.435H26Z" transform="translate(-26 -18)" fill="#ad84ff"/>
            </g>
            <g id="Grupo_165719" data-name="Grupo 165719" transform="translate(44.831 56.039)">
              <path id="Trazado_177894" data-name="Trazado 177894" d="M18,22H29.208V61.227H18Z" transform="translate(-18 -22)" fill="#ad84ff"/>
            </g>
            <g id="Grupo_165720" data-name="Grupo 165720" transform="translate(22.416 67.247)">
              <path id="Trazado_177895" data-name="Trazado 177895" d="M10,26H21.208V54.02H10Z" transform="translate(-10 -26)" fill="#ad84ff"/>
            </g>
            <g id="Grupo_165721" data-name="Grupo 165721" transform="translate(140.098)">
              <path id="Trazado_177896" data-name="Trazado 177896" d="M66.01,2A14.028,14.028,0,1,1,52,16.01,14.015,14.015,0,0,1,66.01,2Z" transform="translate(-52 -2)" fill="#25ffff"/>
            </g>
            <g id="Grupo_165722" data-name="Grupo 165722" transform="translate(123.286 33.623)">
              <path id="Trazado_177897" data-name="Trazado 177897" d="M55.555,15.653A5.479,5.479,0,0,1,57.208,19.6,5.6,5.6,0,1,1,46,19.6a5.587,5.587,0,0,1,9.555-3.951Z" transform="translate(-46 -14)" fill="#25ffff"/>
            </g>
            <g id="Grupo_165723" data-name="Grupo 165723" transform="translate(100.87 11.208)">
              <path id="Trazado_177898" data-name="Trazado 177898" d="M46.406,6a8.406,8.406,0,1,1-6.332,13.926A8.3,8.3,0,0,1,38,14.406,8.4,8.4,0,0,1,46.406,6Z" transform="translate(-38 -6)" fill="#25ffff"/>
            </g>
            <g id="Grupo_165724" data-name="Grupo 165724" transform="translate(117.682 132.869)">
              <path id="Trazado_177899" data-name="Trazado 177899" d="M66.416,49.42V76.263a8.4,8.4,0,0,1-8.406,8.406h-5.6A8.4,8.4,0,0,1,44,76.263V49.42a39.46,39.46,0,0,0,22.416,0Z" transform="translate(-44 -49.42)" fill="#a4a3ff"/>
            </g>
            <g id="Grupo_165725" data-name="Grupo 165725" transform="translate(89.663 56.039)">
              <path id="Trazado_177900" data-name="Trazado 177900" d="M62.02,98.83A39.308,39.308,0,0,1,34.2,65.262a38.157,38.157,0,0,1-.2-4.035,39.188,39.188,0,1,1,28.02,37.6Z" transform="translate(-34 -22)" fill="#e6e9ed"/>
            </g>
            <g id="Grupo_165726" data-name="Grupo 165726" transform="translate(100.818 67.299)">
              <circle id="Elipse_5192" data-name="Elipse 5192" cx="27.898" cy="27.898" r="27.898" fill="#acfcff"/>
            </g>
          </g>
          <g id="Grupo_165728" data-name="Grupo 165728">
            <path id="Trazado_177901" data-name="Trazado 177901" d="M132.692,57.039a41.764,41.764,0,0,0-25.22,8.487c0-.025,0-.053,0-.081A53.589,53.589,0,0,0,100.1,38.5l6.669-5.834a11.017,11.017,0,0,0,11.97.37l6.391,6.391a8.327,8.327,0,0,0-.841,3.6,8.406,8.406,0,0,0,16.812,0,8.268,8.268,0,0,0-.843-3.6l7.93-7.93a16.865,16.865,0,1,0-3.962-3.962l-7.93,7.93a8.107,8.107,0,0,0-7.2,0L122.7,29.076a11.1,11.1,0,0,0,1.586-5.66,11.208,11.208,0,0,0-22.416,0,11.076,11.076,0,0,0,1.233,5L97,33.758c-.062-.084-.112-.171-.174-.255A53.508,53.508,0,0,0,57.039,12.292V9.406A8.416,8.416,0,0,0,48.633,1H9.406A8.416,8.416,0,0,0,1,9.406V31.822a8.409,8.409,0,0,0,6.5,8.171A53.005,53.005,0,0,0,1,65.445a72.345,72.345,0,0,0,13.55,42.284L29.02,127.985V149.5a25.218,25.218,0,1,0,50.435,0V127.985L92.2,110.15a42.151,42.151,0,0,0,26.487,28.5v24.867a11.219,11.219,0,0,0,11.208,11.208h5.6A11.219,11.219,0,0,0,146.7,163.513V138.646a42,42,0,0,0-14.01-81.607ZM157.91,6.6A11.208,11.208,0,1,1,146.7,17.812,11.219,11.219,0,0,1,157.91,6.6ZM132.692,40.227a2.8,2.8,0,1,1-2.8,2.8A2.8,2.8,0,0,1,132.692,40.227ZM113.078,17.812a5.6,5.6,0,1,1-5.6,5.6A5.61,5.61,0,0,1,113.078,17.812ZM6.6,31.822V9.406a2.8,2.8,0,0,1,2.8-2.8H48.633a2.8,2.8,0,0,1,2.8,2.8V31.822a2.8,2.8,0,0,1-2.8,2.8h-5.6V45.17a.685.685,0,0,1-1.252.294L36.355,34.623H9.406A2.8,2.8,0,0,1,6.6,31.822Zm28.02,98.068H73.851v5.6H34.623Zm0,11.208H73.851v5.6H34.623Zm19.614,28.02a19.629,19.629,0,0,1-19.39-16.812H73.627A19.629,19.629,0,0,1,54.237,169.117Zm35.128-64.644L75.213,124.286H62.643V101.87H85.059V45.831H68.247V90.663h5.6V51.435h5.6V96.266H57.039v28.02h-5.6V96.266H29.02V73.851h5.6V90.663h5.6V68.247H23.416V101.87H45.831v22.416H33.262L19.106,104.473A66.8,66.8,0,0,1,6.6,65.445a47.439,47.439,0,0,1,7.26-25.218H32.892l3.875,7.747a6.264,6.264,0,0,0,11.866-2.8V40.227a8.416,8.416,0,0,0,8.406-8.406V17.9A47.889,47.889,0,0,1,92.347,36.865c.146.2.272.406.415.605l-3.942,3.449,3.687,4.22,3.292-2.88a47.924,47.924,0,0,1,6.072,23.186c0,1.8-.106,3.62-.252,5.422a41.813,41.813,0,0,0-10.956,28.2c0,1.093.081,2.166.165,3.239-.479.729-.955,1.454-1.463,2.166Zm51.733,59.04a5.61,5.61,0,0,1-5.6,5.6h-5.6a5.61,5.61,0,0,1-5.6-5.6V140.252a42.174,42.174,0,0,0,16.812,0Zm-8.406-28.02a36.425,36.425,0,1,1,36.425-36.425A36.467,36.467,0,0,1,132.692,135.494Z" transform="translate(-1 -1)"/>
            <path id="Trazado_177902" data-name="Trazado 177902" d="M67.822,25A30.822,30.822,0,1,0,98.643,55.822,30.858,30.858,0,0,0,67.822,25Zm0,56.039A25.218,25.218,0,1,1,93.039,55.822,25.245,25.245,0,0,1,67.822,81.039Z" transform="translate(63.87 42.247)"/>
            <path id="Trazado_177903" data-name="Trazado 177903" d="M43,35h5.6v5.6H43Z" transform="translate(74.682 60.266)"/>
            <path id="Trazado_177904" data-name="Trazado 177904" d="M47,35h5.6v5.6H47Z" transform="translate(81.89 60.266)"/>
            <path id="Trazado_177905" data-name="Trazado 177905" d="M51,35h5.6v5.6H51Z" transform="translate(89.098 60.266)"/>
            <path id="Trazado_177906" data-name="Trazado 177906" d="M17,54.623h5.6V26.6h5.6v28.02h5.6V21H17Z" transform="translate(27.831 35.039)"/>
            <path id="Trazado_177907" data-name="Trazado 177907" d="M5,5H16.208v5.6H5Z" transform="translate(6.208 6.208)"/>
            <path id="Trazado_177908" data-name="Trazado 177908" d="M5,9H16.208v5.6H5Z" transform="translate(6.208 13.416)"/>
            <path id="Trazado_177909" data-name="Trazado 177909" d="M11,5H27.812v5.6H11Z" transform="translate(17.02 6.208)"/>
            <path id="Trazado_177910" data-name="Trazado 177910" d="M11,9h5.6v5.6H11Z" transform="translate(17.02 13.416)"/>
            <path id="Trazado_177911" data-name="Trazado 177911" d="M15,9h5.6v5.6H15Z" transform="translate(24.227 13.416)"/>
          </g>
        </g>
      </g>
    </g>
  </g>
</svg>
