<svg xmlns="http://www.w3.org/2000/svg" xmlns:xlink="http://www.w3.org/1999/xlink" width="223.74" height="223.738" viewBox="0 0 223.74 223.738">
  <defs>
    <filter id="Trazado_150709" x="0" y="0" width="223.74" height="223.738" filterUnits="userSpaceOnUse">
      <feOffset dx="5" dy="5" input="SourceAlpha"/>
      <feGaussianBlur stdDeviation="12.5" result="blur"/>
      <feFlood flood-opacity="0.161"/>
      <feComposite operator="in" in2="blur"/>
      <feComposite in="SourceGraphic"/>
    </filter>
  </defs>
  <g id="Grupo_973941" data-name="Grupo 973941" transform="translate(-252.628 -5123.365)">
    <path id="Trazado_150708" data-name="Trazado 150708" d="M188.669,86.662A94.495,94.495,0,1,1,86.662.331,94.5,94.5,0,0,1,188.669,86.662" transform="translate(265 5324.734) rotate(-90)" fill="#2e0877"/>
    <g transform="matrix(1, 0, 0, 1, 252.63, 5123.36)" filter="url(#Trazado_150709)">
      <path id="Trazado_150709-2" data-name="Trazado 150709" d="M148.478,68.2A74.365,74.365,0,1,1,68.2.26,74.365,74.365,0,0,1,148.478,68.2" transform="translate(32.5 181.24) rotate(-90)" fill="#fff"/>
    </g>
    <g id="Grupo_166879" data-name="Grupo 166879" transform="translate(308.956 5179.619)">
      <path id="Trazado_197334" data-name="Trazado 197334" d="M266.958,88.205a4.493,4.493,0,1,1-4.494,4.492A4.492,4.492,0,0,1,266.958,88.205Z" transform="translate(-259.095 -80.342)" fill="#d7deed"/>
      <path id="Trazado_197335" data-name="Trazado 197335" d="M312.889,136.57v13.478h-6.739V136.57Z" transform="translate(-239.881 -59.07)" fill="#ffe678"/>
      <path id="Trazado_197336" data-name="Trazado 197336" d="M317.568,136.57a6.739,6.739,0,0,1,0,13.478H310.83V136.57Z" transform="translate(-237.822 -59.07)" fill="#005acf"/>
      <path id="Trazado_197337" data-name="Trazado 197337" d="M322.618,143.308v6.74H279.937l-11.232-6.74,11.232-6.738h42.681Z" transform="translate(-256.35 -59.07)" fill="#dee9f0"/>
      <path id="Trazado_197338" data-name="Trazado 197338" d="M350.759,150.416H260.9V134.693h6.74v-2.248a42.681,42.681,0,0,1,85.363,0v2.248h6.738v15.723Zm-13.478-15.723v-2.248a26.956,26.956,0,1,0-53.913,0v2.248Z" transform="translate(-259.781 -79.656)" fill="#25ffff"/>
      <path id="Trazado_197339" data-name="Trazado 197339" d="M327.117,99.127a2.246,2.246,0,1,1-2.245,2.245A2.247,2.247,0,0,1,327.117,99.127Z" transform="translate(-231.646 -75.538)"/>
      <path id="Trazado_197340" data-name="Trazado 197340" d="M327.117,142.81a2.247,2.247,0,1,1-2.245,2.248A2.249,2.249,0,0,1,327.117,142.81Z" transform="translate(-231.646 -56.326)"/>
      <path id="Trazado_197341" data-name="Trazado 197341" d="M314.636,86.645a2.246,2.246,0,1,1-2.245,2.246A2.247,2.247,0,0,1,314.636,86.645Z" transform="translate(-237.136 -81.028)"/>
      <path id="Trazado_197342" data-name="Trazado 197342" d="M277.193,85.084a2.247,2.247,0,1,1-2.248,2.248A2.25,2.25,0,0,1,277.193,85.084Z" transform="translate(-253.605 -81.715)"/>
      <path id="Trazado_197343" data-name="Trazado 197343" d="M264.71,145.931a2.246,2.246,0,1,1-2.246,2.246A2.247,2.247,0,0,1,264.71,145.931Z" transform="translate(-259.095 -54.953)"/>
      <path id="Trazado_197344" data-name="Trazado 197344" d="M263.15,102.247a2.245,2.245,0,1,1-2.246,2.246A2.245,2.245,0,0,1,263.15,102.247Z" transform="translate(-259.781 -74.166)"/>
      <path id="Trazado_197345" data-name="Trazado 197345" d="M360.088,151.882H261.247a1.124,1.124,0,0,1-1.123-1.123V135.036a1.124,1.124,0,0,1,1.123-1.123h5.615v-1.125a43.8,43.8,0,1,1,87.607,0v1.125h5.618a1.124,1.124,0,0,1,1.123,1.123v15.723A1.124,1.124,0,0,1,360.088,151.882Zm-97.716-2.246h96.592V136.158H353.35a1.124,1.124,0,0,1-1.126-1.122v-2.248a41.557,41.557,0,1,0-83.114,0v2.248a1.121,1.121,0,0,1-1.123,1.122h-5.615Z" transform="translate(-260.124 -79.999)"/>
      <path id="Trazado_197346" data-name="Trazado 197346" d="M330.762,131.355H276.849a1.121,1.121,0,0,1-1.123-1.122v-2.248a28.079,28.079,0,0,1,56.159,0v2.248A1.121,1.121,0,0,1,330.762,131.355Zm-52.79-2.245h51.667v-1.124a25.833,25.833,0,0,0-51.667,0Z" transform="translate(-253.262 -75.196)"/>
      <path id="Trazado_197347" data-name="Trazado 197347" d="M267.487,135.413a1.121,1.121,0,0,1-1.122-1.123v-6.74a1.124,1.124,0,0,1,2.248,0v6.74A1.124,1.124,0,0,1,267.487,135.413Z" transform="translate(-257.379 -63.53)"/>
      <path id="Trazado_197348" data-name="Trazado 197348" d="M273.73,134.727A1.125,1.125,0,0,1,272.6,133.6v-4.491a1.124,1.124,0,1,1,2.249,0V133.6A1.122,1.122,0,0,1,273.73,134.727Z" transform="translate(-254.635 -62.844)"/>
      <path id="Trazado_197349" data-name="Trazado 197349" d="M279.97,135.413a1.122,1.122,0,0,1-1.123-1.123v-6.74a1.122,1.122,0,0,1,2.245,0v6.74A1.121,1.121,0,0,1,279.97,135.413Z" transform="translate(-251.889 -63.53)"/>
      <path id="Trazado_197350" data-name="Trazado 197350" d="M286.211,134.727a1.123,1.123,0,0,1-1.125-1.123v-4.491a1.124,1.124,0,1,1,2.248,0V133.6A1.123,1.123,0,0,1,286.211,134.727Z" transform="translate(-249.145 -62.844)"/>
      <path id="Trazado_197351" data-name="Trazado 197351" d="M292.451,135.413a1.123,1.123,0,0,1-1.123-1.123v-6.74a1.122,1.122,0,0,1,2.245,0v6.74A1.122,1.122,0,0,1,292.451,135.413Z" transform="translate(-246.4 -63.53)"/>
      <path id="Trazado_197352" data-name="Trazado 197352" d="M298.693,134.727a1.123,1.123,0,0,1-1.125-1.123v-4.491a1.124,1.124,0,1,1,2.248,0V133.6A1.124,1.124,0,0,1,298.693,134.727Z" transform="translate(-243.655 -62.844)"/>
      <path id="Trazado_197353" data-name="Trazado 197353" d="M304.933,135.413a1.123,1.123,0,0,1-1.125-1.123v-6.74a1.122,1.122,0,0,1,2.245,0v6.74A1.121,1.121,0,0,1,304.933,135.413Z" transform="translate(-240.91 -63.53)"/>
      <path id="Trazado_197354" data-name="Trazado 197354" d="M311.173,134.727a1.123,1.123,0,0,1-1.123-1.123v-4.491a1.122,1.122,0,1,1,2.245,0V133.6A1.122,1.122,0,0,1,311.173,134.727Z" transform="translate(-238.165 -62.844)"/>
      <path id="Trazado_197355" data-name="Trazado 197355" d="M317.416,135.413a1.126,1.126,0,0,1-1.127-1.123v-6.74a1.125,1.125,0,0,1,2.249,0v6.74A1.122,1.122,0,0,1,317.416,135.413Z" transform="translate(-235.421 -63.53)"/>
      <path id="Trazado_197356" data-name="Trazado 197356" d="M323.654,134.727a1.124,1.124,0,0,1-1.123-1.123v-4.491a1.122,1.122,0,1,1,2.245,0V133.6A1.121,1.121,0,0,1,323.654,134.727Z" transform="translate(-232.676 -62.844)"/>
      <path id="Trazado_197357" data-name="Trazado 197357" d="M336.438,151.514H280.28a1.118,1.118,0,0,1-.577-.16l-11.231-6.74a1.122,1.122,0,0,1,0-1.925l11.231-6.74a1.132,1.132,0,0,1,.577-.16h56.159a7.862,7.862,0,0,1,0,15.724Zm-55.848-2.246h55.848a5.616,5.616,0,0,0,5.615-5.617,5.622,5.622,0,0,0-5.615-5.615H280.591l-9.359,5.615Z" transform="translate(-256.692 -59.413)"/>
      <path id="Trazado_197358" data-name="Trazado 197358" d="M311.173,151.514a1.123,1.123,0,0,1-1.123-1.123V136.913a1.122,1.122,0,1,1,2.245,0v13.478A1.122,1.122,0,0,1,311.173,151.514Z" transform="translate(-238.165 -59.413)"/>
      <path id="Trazado_197359" data-name="Trazado 197359" d="M306.492,151.514a1.124,1.124,0,0,1-1.124-1.123V136.913a1.125,1.125,0,0,1,2.25,0v13.478A1.125,1.125,0,0,1,306.492,151.514Z" transform="translate(-240.225 -59.413)"/>
      <path id="Trazado_197360" data-name="Trazado 197360" d="M315.413,142.716h-29.2a1.122,1.122,0,1,1,0-2.245h29.2a1.122,1.122,0,1,1,0,2.245Z" transform="translate(-249.145 -57.354)"/>
      <path id="Trazado_197361" data-name="Trazado 197361" d="M267.3,98.657a5.616,5.616,0,1,1,5.615-5.617A5.622,5.622,0,0,1,267.3,98.657Zm0-8.986a3.37,3.37,0,1,0,3.371,3.369A3.373,3.373,0,0,0,267.3,89.671Z" transform="translate(-259.437 -80.685)"/>
      <path id="Trazado_197362" data-name="Trazado 197362" d="M327.274,98.47a7.863,7.863,0,1,1,7.861-7.863A7.874,7.874,0,0,1,327.274,98.47Zm0-13.478a5.615,5.615,0,1,0,5.614,5.615A5.622,5.622,0,0,0,327.274,84.992Z" transform="translate(-234.049 -82.744)"/>
    </g>
  </g>
</svg>
