<svg xmlns="http://www.w3.org/2000/svg" xmlns:xlink="http://www.w3.org/1999/xlink" width="60" height="61" viewBox="0 0 60 61">
  <defs>
    <linearGradient id="linear-gradient" x1="0.5" x2="0.5" y2="1" gradientUnits="objectBoundingBox">
      <stop offset="0" stop-color="#25ffff"/>
      <stop offset="1" stop-color="#25ffff"/>
    </linearGradient>
  </defs>
  <g id="Grupo_142440" data-name="Grupo 142440" transform="translate(-0.384 0.499)">
    <ellipse id="Elipse_4869" data-name="Elipse 4869" cx="30" cy="30.5" rx="30" ry="30.5" transform="translate(0.384 -0.499)" fill="url(#linear-gradient)"/>
    <g id="ndId7t" transform="translate(-436.179 648.585)">
      <g id="Grupo_169178" data-name="Grupo 169178" transform="translate(446.563 -638.475)">
        <path id="Trazado_204614" data-name="Trazado 204614" d="M485.582-609.387a4.975,4.975,0,0,0,.705.1c2.35-.057,1.906.227,1.937,2.063.012.715.025,1.431-.011,2.145a3.038,3.038,0,0,1-2.794,2.88c-.271.025-.544.027-.816.027q-17.162,0-34.324,0c-1.869,0-3-.658-3.449-2.109a6.938,6.938,0,0,1-.173-1.913c-.014-.883-.276-1.98.144-2.585.366-.527,1.531-.5,2.492-.758V-610.6q0-11.288,0-22.576c0-1.454.046-1.5,1.491-1.5,1.124,0,2.247,0,3.371,0a9.093,9.093,0,0,0,4.189-.581,5.9,5.9,0,0,1,2.1-.338c.27-.02.758.112.8.267.238.892.885.629,1.629.628,0-.88.026-1.748-.007-2.614-.034-.893.355-1.216,1.235-1.153a8.06,8.06,0,0,1,5.979,3.086,1.732,1.732,0,0,0,1.541.72c4.188-.026,8.377-.015,12.565-.012,1.318,0,1.4.077,1.4,1.388q0,11.339,0,22.678Zm-1.454-2.581v-21.24H471.5c.169.928.352,1.789.475,2.658.106.749-.222,1.156-1.028,1.151-2.316-.013-4.631-.019-6.947,0-.783.008-1.127-.326-1.116-1.1.013-.906,0-1.812,0-2.736H461.5v5.258c1.838,0,3.6.022,5.37-.005,2.346-.036,2.527-.208,2.017,2.668-.012.066-.046.128-.065.194a8.356,8.356,0,0,1-6.8,6.133,8.388,8.388,0,0,1-8.566-4.129,8.406,8.406,0,0,1,.742-9.389c.171-.218.331-.445.521-.7H450.76v21.23Zm-36.134,4.131c0,.527,0,.931,0,1.334,0,2.521.4,2.931,2.876,2.931q16.6,0,33.193,0a10.038,10.038,0,0,0,1.224-.034,1.512,1.512,0,0,0,1.466-1.334,28.139,28.139,0,0,0,.024-2.921h-10.74c-.311,1.949-.808,2.365-2.773,2.365H461.621c-1.969,0-2.426-.376-2.8-2.341Zm12.016-26.22c-3.4.049-6.356,3.424-6.24,7a7.016,7.016,0,0,0,7.313,6.8c3.481-.223,6.661-3.309,6.411-6.276q-3,0-6.006,0c-1.388,0-1.476-.092-1.478-1.524Q460.007-631.057,460.01-634.057Zm-9.195,24.774h1.114c2.382,0,4.764.025,7.145-.012.91-.014,1.375.3,1.259,1.242-.114.917.281,1.146,1.164,1.136q5.919-.067,11.839,0c.927.011,1.335-.229,1.209-1.2-.116-.894.36-1.189,1.214-1.179,2.415.03,4.831.013,7.247.008.363,0,.725-.03,1.117-.048v-1.135c-.316-.027-.58-.069-.844-.069q-15.821,0-31.641-.017C450.768-610.557,450.532-610.247,450.815-609.283Zm13.516-21.6h6.125c-.017-2.809-3.09-6.165-6.125-5.983Z" transform="translate(-446.563 638.475)" fill="#12263f"/>
        <path id="Trazado_204615" data-name="Trazado 204615" d="M555.478-549.074c1.6,0,3.2-.014,4.8,0a2.491,2.491,0,0,1,2.758,2.486,2.474,2.474,0,0,1-2.755,2.376q-4.849.023-9.7,0c-1.676-.008-2.716-.931-2.741-2.375-.025-1.5,1.031-2.471,2.738-2.488C552.211-549.087,553.844-549.074,555.478-549.074Zm-.09,3.448c1.6,0,3.193-.01,4.789,0,.755.007,1.426-.138,1.405-1.052-.02-.853-.674-.973-1.383-.971q-4.789.013-9.578,0c-.727,0-1.355.169-1.361,1s.6,1.032,1.339,1.024C552.195-545.637,553.791-545.626,555.387-545.626Z" transform="translate(-527.143 567.347)" fill="#12263f"/>
        <path id="Trazado_204616" data-name="Trazado 204616" d="M578.221-582.3c.919,0,1.84-.027,2.758.008a2.367,2.367,0,0,1,2.293,2.393,2.355,2.355,0,0,1-2.325,2.359q-2.757.052-5.516,0a2.293,2.293,0,0,1-2.322-2.443,2.317,2.317,0,0,1,2.354-2.313C576.382-582.323,577.3-582.3,578.221-582.3Zm-.125,3.37c.882,0,1.763.013,2.645,0,.639-.013,1.125-.38,1-1a1.4,1.4,0,0,0-.944-.927c-1.724-.1-3.456-.062-5.184-.04a.928.928,0,0,0-1.033,1c.019.654.443.956,1.076.962C576.468-578.925,577.282-578.931,578.1-578.933Z" transform="translate(-547.248 593.789)" fill="#12263f"/>
      </g>
    </g>
  </g>
</svg>
