<svg xmlns="http://www.w3.org/2000/svg" width="234" height="81" viewBox="0 0 234 81">
  <g id="Grupo_161028" data-name="Grupo 161028" transform="translate(6230.267 9277.121)">
    <path id="Trazado_704825" data-name="Trazado 704825" d="M10,0H224a10,10,0,0,1,10,10V71a10,10,0,0,1-10,10H10A10,10,0,0,1,0,71V10A10,10,0,0,1,10,0Z" transform="translate(-6230.267 -9277.121)" fill="#fff"/>
    <g id="Grupo_161027" data-name="Grupo 161027" transform="translate(3 5)">
      <path id="Trazado_704826" data-name="Trazado 704826" d="M5.328-7.391l3.158-4.232h2.385L6.209-5.779,9.045,0H6.929L5.006-4.34,1.729,0H-.645l4.8-5.973-2.75-5.65H3.534ZM26.759-8.744h-8.7l.3-1.729H27.07Zm-.773,4.458h-8.7L17.585-6H26.3Zm16.887-7.348-.279,1.472a4.582,4.582,0,0,1,3.566-1.676A2.883,2.883,0,0,1,48.587-10.7a4.424,4.424,0,0,1,.58,3.083L47.9,0H45.955l1.278-7.64a4.073,4.073,0,0,0,.011-.977,1.606,1.606,0,0,0-1.772-1.534A3.66,3.66,0,0,0,42.4-8.284L40.96,0H39.016l2.02-11.623Zm15.682.169a36.973,36.973,0,0,1,2.393-8.789,27.235,27.235,0,0,1,4.287-7.295A17.612,17.612,0,0,1,70.9-32.109l.527,2.422a20.27,20.27,0,0,0-5.264,5.967,30.7,30.7,0,0,0-3.389,8.75A42.086,42.086,0,0,0,61.62-4.98a22.124,22.124,0,0,0,1.045,7.119,11.235,11.235,0,0,0,3.018,4.854L64.8,9.18a14.1,14.1,0,0,1-4.99-6.7A25.839,25.839,0,0,1,58.241-7.676a30.877,30.877,0,0,1,.273-3.574Zm29.258.911L80.15-2.3h11.03L90.771,0H76.21l.4-2.227,8.32-8.591-5.361-8.547.352-1.963H93.773l-.41,2.3H82.86l4.98,8.122Z" transform="translate(-6199.088 -9229.121)" fill="#12263f"/>
      <path id="Trazado_614409" data-name="Trazado 614409" d="M-9613.245-9288.434h11.512" transform="translate(3415.035 43.878)" fill="none" stroke="#12263f" stroke-width="1"/>
      <path id="Trazado_704827" data-name="Trazado 704827" d="M4.424,0H3.091L4.658-8.994,1.824-8l.227-1.289,3.955-1.428H6.24Z" transform="translate(-6091.662 -9241.121)" fill="#12263f"/>
      <path id="Trazado_614410" data-name="Trazado 614410" d="M-9613.245-9288.434h17.943" transform="translate(3516.157 52.312)" fill="none" stroke="#12263f" stroke-width="1"/>
      <path id="Trazado_704828" data-name="Trazado 704828" d="M3.633-5.039,5.786-7.925H7.412L4.233-3.94,6.167,0H4.724L3.413-2.959,1.179,0H-.439L2.834-4.072.959-7.925H2.41ZM8.257,5H7.488l.8-4.623h.769Zm.637-6.31a.423.423,0,0,1,.327.117.44.44,0,0,1,.13.331.464.464,0,0,1-.13.329A.468.468,0,0,1,8.894-.4a.426.426,0,0,1-.329-.115.418.418,0,0,1-.124-.325.485.485,0,0,1,.128-.333A.452.452,0,0,1,8.894-1.31Z" transform="translate(-6093.662 -9223.121)" fill="#12263f"/>
      <path id="Trazado_704829" data-name="Trazado 704829" d="M10.684-11.426A36.241,36.241,0,0,1,8.2-2.412,27.1,27.1,0,0,1,3.9,4.756,17.908,17.908,0,0,1-1.66,9.2l-.547-2.246q6.7-5.039,8.945-16.191A42.084,42.084,0,0,0,7.6-17.891Q7.5-26.27,3.535-29.9l.918-2.187a12.947,12.947,0,0,1,3.7,4.053,19.113,19.113,0,0,1,2.227,5.879,30.106,30.106,0,0,1,.635,6.943,33.361,33.361,0,0,1-.293,3.574Z" transform="translate(-6072.267 -9228.121)" fill="#12263f"/>
      <path id="Trazado_704830" data-name="Trazado 704830" d="M5.371-5.833H.269l.29-1.622h5.1ZM17.875,0H15.92l2.3-13.191L14.062-11.73l.333-1.891,5.8-2.095h.344Z" transform="translate(-6051.267 -9253.121)" fill="#12263f"/>
      <path id="Trazado_704831" data-name="Trazado 704831" d="M1.663,0H.344L1.721-7.925H3.04ZM2.754-10.818a.725.725,0,0,1,.56.2.754.754,0,0,1,.223.568.8.8,0,0,1-.223.564.8.8,0,0,1-.56.234.73.73,0,0,1-.564-.2A.717.717,0,0,1,1.978-10a.831.831,0,0,1,.22-.571A.775.775,0,0,1,2.754-10.818ZM14.561-5.962H8.628l.205-1.179h5.94Zm-.527,3.04H8.1l.205-1.172h5.94ZM23.438,0H22.1l1.567-8.994L20.837-8l.227-1.289,3.955-1.428h.234Z" transform="translate(-6129.058 -9211.121)" fill="#12263f"/>
      <path id="Trazado_704832" data-name="Trazado 704832" d="M2.856-7.932l-.19,1A3.124,3.124,0,0,1,5.1-8.071a1.966,1.966,0,0,1,1.655.776,3.016,3.016,0,0,1,.4,2.1L6.284,0H4.958L5.83-5.209a2.777,2.777,0,0,0,.007-.666A1.1,1.1,0,0,0,4.629-6.921,2.5,2.5,0,0,0,2.534-5.648L1.553,0H.227L1.6-7.925Z" transform="translate(-6117.267 -9255.121)" fill="#12263f"/>
    </g>
  </g>
</svg>
