<svg xmlns="http://www.w3.org/2000/svg" xmlns:xlink="http://www.w3.org/1999/xlink" width="451" height="483.696" viewBox="0 0 451 483.696">
  <defs>
    <clipPath id="clip-path">
      <rect id="Rectángulo_49831" data-name="Rectángulo 49831" width="308.357" height="283.848" fill="#25ffff"/>
    </clipPath>
    <clipPath id="clip-path-2">
      <rect id="Rectángulo_49830" data-name="Rectángulo 49830" width="308.357" height="283.524" fill="#25ffff"/>
    </clipPath>
    <clipPath id="clip-path-3">
      <rect id="Rectángulo_49874" data-name="Rectángulo 49874" width="239.479" height="451.54" fill="none"/>
    </clipPath>
    <clipPath id="clip-path-4">
      <rect id="Rectángulo_49873" data-name="Rectángulo 49873" width="239.479" height="451.539" fill="none"/>
    </clipPath>
    <clipPath id="clip-path-5">
      <rect id="Rectángulo_49846" data-name="Rectángulo 49846" width="28.771" height="28.77" fill="none"/>
    </clipPath>
    <clipPath id="clip-path-6">
      <rect id="Rectángulo_49848" data-name="Rectángulo 49848" width="28.771" height="28.771" fill="#43a99b"/>
    </clipPath>
    <clipPath id="clip-path-7">
      <rect id="Rectángulo_49851" data-name="Rectángulo 49851" width="28.771" height="28.771" fill="none"/>
    </clipPath>
    <clipPath id="clip-path-11">
      <rect id="Rectángulo_49868" data-name="Rectángulo 49868" width="21.32" height="4.383" fill="none"/>
    </clipPath>
    <clipPath id="clip-path-12">
      <rect id="Rectángulo_49869" data-name="Rectángulo 49869" width="2.853" height="2.841" fill="none"/>
    </clipPath>
    <clipPath id="clip-path-13">
      <rect id="Rectángulo_49870" data-name="Rectángulo 49870" width="36.741" height="2.957" fill="none"/>
    </clipPath>
    <clipPath id="clip-path-14">
      <rect id="Rectángulo_49871" data-name="Rectángulo 49871" width="18.168" height="3.729" fill="none"/>
    </clipPath>
    <clipPath id="clip-path-15">
      <rect id="Rectángulo_49872" data-name="Rectángulo 49872" width="11.903" height="41.15" fill="none"/>
    </clipPath>
  </defs>
  <g id="Grupo_973936" data-name="Grupo 973936" transform="translate(-180.318 -27553)">
    <rect id="Rectángulo_49842" data-name="Rectángulo 49842" width="451" height="371" transform="translate(180.318 27655)" fill="none"/>
    <rect id="Rectángulo_49875" data-name="Rectángulo 49875" width="451" height="483" transform="translate(180.318 27553)" fill="#fff"/>
    <g id="Grupo_165821" data-name="Grupo 165821" transform="translate(274.725 27740.777)" style="isolation: isolate">
      <g id="Grupo_165802" data-name="Grupo 165802" clip-path="url(#clip-path)">
        <path id="Trazado_178028" data-name="Trazado 178028" d="M307.079,147.65c-3.8-30.154-15.729-60.15-31.253-84.679-20.2-31.909-52.462-57.51-90.743-62.254-27.095-3.358-57.989,5.2-78.943,23.544A81.635,81.635,0,0,0,82.952,57.75c-5.128,14.078-7.313,30.213-18.363,41.265C51.31,112.3,32.969,118.652,19.25,131.33c-30.419,28.111-21.539,78.888,4.087,106.935C46.4,263.511,80.625,258.841,111.4,263.6c23.359,3.612,43.576,16.784,67.449,19.277,34.539,3.607,70.2-7.957,95.531-31.836,29.5-27.8,37.447-65.719,32.7-103.391" transform="translate(0 0)" fill="#25ffff"/>
        <g id="Grupo_165801" data-name="Grupo 165801" opacity="0.7">
          <g id="Grupo_165800" data-name="Grupo 165800" style="isolation: isolate">
            <g id="Grupo_165799" data-name="Grupo 165799" clip-path="url(#clip-path-2)">
              <path id="Trazado_178029" data-name="Trazado 178029" d="M307.079,147.65c-3.8-30.154-15.729-60.15-31.253-84.679-20.2-31.909-52.462-57.51-90.743-62.254-27.095-3.358-57.989,5.2-78.943,23.544A81.635,81.635,0,0,0,82.952,57.75c-5.128,14.078-7.313,30.213-18.363,41.265C51.31,112.3,32.969,118.652,19.25,131.33c-30.419,28.111-21.539,78.888,4.087,106.935C46.4,263.511,80.625,258.841,111.4,263.6c23.359,3.612,43.576,16.784,67.449,19.277,34.539,3.607,70.2-7.957,95.531-31.836,29.5-27.8,37.447-65.719,32.7-103.391" transform="translate(0 0)" fill="#25ffff"/>
            </g>
          </g>
        </g>
      </g>
    </g>
    <g id="Grupo_165889" data-name="Grupo 165889" transform="translate(343.603 27585.156)">
      <g id="Grupo_165888" data-name="Grupo 165888" clip-path="url(#clip-path-3)">
        <g id="Grupo_165887" data-name="Grupo 165887" transform="translate(0 0.001)">
          <g id="Grupo_165886" data-name="Grupo 165886" clip-path="url(#clip-path-4)">
            <path id="Trazado_178137" data-name="Trazado 178137" d="M15.59,132.3s2.765-16.56,3.423-17.821,8.292-9,9.193-9.162,12.934-3.938,12.267-2.06-9.107,4.41-9.107,4.41l-.8,1.008s7.212-2.346,9.006-2.287c1.65.055,1.944,1.769.655,2.263s-7.649,2.347-7.884,2.744,7.078-1.693,8-1.653c1.236.053,2.133,1.618.87,2.15-.744.314-7.815,1.936-7.815,1.936a62.384,62.384,0,0,1,6.567-.511c1.088.294,1,1.614-.2,1.93-.82.218-5.14.4-6.238.7,0,0-.816.7-.786,2.885s-2.813,8.015-2.813,8.015Z" transform="translate(0.239 1.576)" fill="#ffbe9d"/>
            <path id="Trazado_178138" data-name="Trazado 178138" d="M40.287,103.284a6.047,6.047,0,0,1-1.771,1.538,14.318,14.318,0,0,1-2.252,1.236c-.9.336-1.889.677-2.93,1.04l-2.221.751.12-.073a35.242,35.242,0,0,1-4.107,3.81,34.786,34.786,0,0,1,3.718-4.166l.046-.047.075-.026,2.192-.769,2.916-.987a17.614,17.614,0,0,0,2.234-1.095c1.23-.716,1.923-1.275,1.98-1.212" transform="translate(0.416 1.585)" fill="#eb996e"/>
            <path id="Trazado_178139" data-name="Trazado 178139" d="M200.574,315.758l-163.9-16.884a9.126,9.126,0,0,1-8.142-10.012L56.919,13.313A12.962,12.962,0,0,1,71.14,1.747l156.268,16.1a12.963,12.963,0,0,1,11.565,14.222L210.587,307.616a9.126,9.126,0,0,1-10.012,8.142" transform="translate(0.437 0.025)" fill="#e8505b"/>
            <g id="Grupo_165825" data-name="Grupo 165825" transform="translate(28.921 1.703)">
              <g id="Grupo_165824" data-name="Grupo 165824" transform="translate(0 0)">
                <g id="Grupo_166877" data-name="Grupo 166877">
                  <path id="Trazado_178140" data-name="Trazado 178140" d="M200.574,315.758l-163.9-16.884a9.126,9.126,0,0,1-8.142-10.012L56.919,13.313A12.962,12.962,0,0,1,71.14,1.747l156.268,16.1a12.963,12.963,0,0,1,11.565,14.222L210.587,307.616a9.126,9.126,0,0,1-10.012,8.142" transform="translate(-28.484 -1.678)" fill="#12263f"/>
                </g>
              </g>
            </g>
            <path id="Trazado_178141" data-name="Trazado 178141" d="M184.286,314.08,20.387,297.2a9.126,9.126,0,0,1-8.142-10.012L40.631,11.635A12.962,12.962,0,0,1,54.852.069l156.268,16.1A12.963,12.963,0,0,1,222.685,30.39L194.3,305.938a9.126,9.126,0,0,1-10.012,8.142" transform="translate(0.187 -0.001)" fill="#e8e8e8"/>
            <path id="Trazado_178142" data-name="Trazado 178142" d="M97.732,262.68l-56.516-5.822a2.457,2.457,0,0,1-2.192-2.7l2.291-22.239a2.457,2.457,0,0,1,2.7-2.193l56.516,5.822a2.458,2.458,0,0,1,2.193,2.7l-2.292,22.239a2.457,2.457,0,0,1-2.7,2.192" transform="translate(0.599 3.526)" fill="#43a99b"/>
            <rect id="Rectángulo_49845" data-name="Rectángulo 49845" width="61.377" height="156.47" transform="matrix(0.102, -0.995, 0.995, 0.102, 45.944, 91.927)" fill="#fafafa"/>
            <path id="Trazado_178144" data-name="Trazado 178144" d="M200.9,107.5s.026-.376.093-1.089.172-1.779.306-3.161c.276-2.78.681-6.865,1.2-12.13,1.061-10.528,2.6-25.773,4.5-44.693l.165.2L51.527,30.675h-.01l.289-.236c-2.2,21.353-4.333,41.984-6.3,61.053l-.226-.278,111.538,11.61,32.392,3.409,8.674.926,2.245.247c.507.058.772.1.772.1s-.247-.014-.743-.061l-2.22-.212-8.626-.857-32.349-3.261L45.228,91.718l-.252-.025L45,91.44c1.962-19.07,4.083-39.7,6.279-61.056l.027-.263.263.027h.01L207.208,46.263l.183.018-.019.183c-2,18.959-3.6,34.234-4.713,44.782-.559,5.245-.994,9.313-1.291,12.082l-.341,3.123c-.078.7-.127,1.049-.127,1.049" transform="translate(0.691 0.461)" fill="#263238"/>
            <path id="Trazado_178145" data-name="Trazado 178145" d="M73.013,144.36l-22.25-2.293a2.113,2.113,0,0,1-1.887-2.319l2.293-22.25a2.113,2.113,0,0,1,2.319-1.886l22.25,2.292a2.114,2.114,0,0,1,1.887,2.319l-2.293,22.251a2.113,2.113,0,0,1-2.319,1.886" transform="translate(0.75 1.774)" fill="#e8505b"/>
            <g id="Grupo_165831" data-name="Grupo 165831" transform="translate(49.615 117.375)" opacity="0.4">
              <g id="Grupo_165830" data-name="Grupo 165830">
                <g id="Grupo_165829" data-name="Grupo 165829" clip-path="url(#clip-path-5)">
                  <path id="Trazado_178146" data-name="Trazado 178146" d="M73.013,144.36l-22.25-2.293a2.113,2.113,0,0,1-1.887-2.319l2.293-22.25a2.113,2.113,0,0,1,2.319-1.886l22.25,2.292a2.114,2.114,0,0,1,1.887,2.319l-2.293,22.251a2.113,2.113,0,0,1-2.319,1.886" transform="translate(-48.865 -115.601)"/>
                </g>
              </g>
            </g>
            <path id="Trazado_178147" data-name="Trazado 178147" d="M68.989,143.946l-22.25-2.293a2.113,2.113,0,0,1-1.887-2.319l2.293-22.25a2.113,2.113,0,0,1,2.319-1.886l22.25,2.292a2.113,2.113,0,0,1,1.887,2.319L71.308,142.06a2.114,2.114,0,0,1-2.319,1.886" transform="translate(0.688 1.767)" fill="#263238"/>
            <path id="Trazado_178148" data-name="Trazado 178148" d="M61.493,124l-1.136,11.026-2.551-.263.925-8.978-2.205-.227.21-2.047Z" transform="translate(0.868 1.895)" fill="#fff"/>
            <path id="Trazado_178149" data-name="Trazado 178149" d="M109.346,148.1,87.1,145.81a2.113,2.113,0,0,1-1.887-2.319l2.293-22.25a2.113,2.113,0,0,1,2.319-1.885l22.25,2.292a2.115,2.115,0,0,1,1.887,2.319l-2.293,22.251a2.113,2.113,0,0,1-2.319,1.885" transform="translate(1.308 1.831)" fill="#43a99b"/>
            <path id="Trazado_178151" data-name="Trazado 178151" d="M105.323,147.689,83.073,145.4a2.115,2.115,0,0,1-1.887-2.32l2.293-22.25a2.113,2.113,0,0,1,2.319-1.885l22.25,2.292a2.114,2.114,0,0,1,1.887,2.319L107.642,145.8a2.114,2.114,0,0,1-2.319,1.886" transform="translate(1.246 1.825)" fill="#263238"/>
            <path id="Trazado_178152" data-name="Trazado 178152" d="M100.9,137.1l-.214,2.079-8.332-.858.171-1.654,4.668-3.579c1.071-.829,1.3-1.378,1.358-1.913.089-.866-.457-1.433-1.622-1.552a2.71,2.71,0,0,0-2.4.868L92.793,129.1a5.151,5.151,0,0,1,4.59-1.6c2.456.253,3.965,1.683,3.759,3.683-.111,1.071-.511,2.018-2.2,3.292l-2.783,2.132Z" transform="translate(1.418 1.956)" fill="#fff"/>
            <path id="Trazado_178153" data-name="Trazado 178153" d="M147.012,151.983l-22.25-2.293a2.113,2.113,0,0,1-1.887-2.318l2.293-22.251a2.111,2.111,0,0,1,2.319-1.884l22.25,2.291a2.115,2.115,0,0,1,1.887,2.319L149.331,150.1a2.112,2.112,0,0,1-2.319,1.886" transform="translate(1.886 1.891)" fill="#e8505b"/>
            <g id="Grupo_165837" data-name="Grupo 165837" transform="translate(124.75 125.115)" opacity="0.4">
              <g id="Grupo_165836" data-name="Grupo 165836">
                <g id="Grupo_165835" data-name="Grupo 165835" clip-path="url(#clip-path-6)">
                  <path id="Trazado_178154" data-name="Trazado 178154" d="M147.012,151.983l-22.25-2.293a2.113,2.113,0,0,1-1.887-2.318l2.293-22.251a2.111,2.111,0,0,1,2.319-1.884l22.25,2.291a2.115,2.115,0,0,1,1.887,2.319L149.331,150.1a2.112,2.112,0,0,1-2.319,1.886" transform="translate(-122.864 -123.224)" fill="#43a99b"/>
                </g>
              </g>
            </g>
            <path id="Trazado_178155" data-name="Trazado 178155" d="M142.989,151.569l-22.25-2.293a2.113,2.113,0,0,1-1.887-2.319l2.293-22.25a2.114,2.114,0,0,1,2.319-1.887l22.25,2.293a2.114,2.114,0,0,1,1.887,2.319l-2.293,22.251a2.114,2.114,0,0,1-2.319,1.886" transform="translate(1.825 1.885)" fill="#263238"/>
            <path id="Trazado_178156" data-name="Trazado 178156" d="M138.609,139.68c-.191,1.859-1.8,3.412-4.933,3.09a7.626,7.626,0,0,1-4.086-1.615l1.2-1.851a5.372,5.372,0,0,0,3.048,1.317c1.274.132,2.116-.307,2.208-1.2.087-.835-.475-1.418-1.924-1.568l-1.166-.12.175-1.685,2.532-2.333-4.694-.483.211-2.048,7.719.8-.171,1.654-2.782,2.578a3.148,3.148,0,0,1,2.666,3.475" transform="translate(1.99 2.013)" fill="#fff"/>
            <path id="Trazado_178157" data-name="Trazado 178157" d="M184.678,155.864l-22.25-2.293a2.113,2.113,0,0,1-1.887-2.319L162.834,129a2.114,2.114,0,0,1,2.319-1.887l22.25,2.293a2.115,2.115,0,0,1,1.887,2.319L187,153.978a2.113,2.113,0,0,1-2.319,1.885" transform="translate(2.465 1.95)" fill="#43a99b"/>
            <path id="Trazado_178159" data-name="Trazado 178159" d="M180.746,155.449l-22.25-2.292a2.115,2.115,0,0,1-1.887-2.32l2.293-22.25a2.113,2.113,0,0,1,2.319-1.886l22.25,2.292a2.114,2.114,0,0,1,1.887,2.319l-2.293,22.251a2.114,2.114,0,0,1-2.319,1.886" transform="translate(2.404 1.944)" fill="#263238"/>
            <rect id="Rectángulo_49850" data-name="Rectángulo 49850" width="1.016" height="11.876" transform="translate(167.314 142.479) rotate(-84.116)" fill="#fff"/>
            <path id="Trazado_178160" data-name="Trazado 178160" d="M173.119,135.581a1.925,1.925,0,1,1-1.718-2.112,1.925,1.925,0,0,1,1.718,2.112" transform="translate(2.599 2.048)" fill="#fff"/>
            <path id="Trazado_178161" data-name="Trazado 178161" d="M172.074,145.727a1.925,1.925,0,1,1-1.718-2.112,1.925,1.925,0,0,1,1.718,2.112" transform="translate(2.583 2.204)" fill="#fff"/>
            <path id="Trazado_178162" data-name="Trazado 178162" d="M69.081,182.529l-22.25-2.292a2.115,2.115,0,0,1-1.887-2.32l2.293-22.25a2.113,2.113,0,0,1,2.319-1.885l22.25,2.292a2.115,2.115,0,0,1,1.887,2.319L71.4,180.643a2.114,2.114,0,0,1-2.319,1.885" transform="translate(0.69 2.36)" fill="#e8505b"/>
            <g id="Grupo_165843" data-name="Grupo 165843" transform="translate(45.623 156.13)" opacity="0.4">
              <g id="Grupo_165842" data-name="Grupo 165842">
                <g id="Grupo_165841" data-name="Grupo 165841" clip-path="url(#clip-path-7)">
                  <path id="Trazado_178163" data-name="Trazado 178163" d="M69.081,182.529l-22.25-2.292a2.115,2.115,0,0,1-1.887-2.32l2.293-22.25a2.113,2.113,0,0,1,2.319-1.885l22.25,2.292a2.115,2.115,0,0,1,1.887,2.319L71.4,180.643a2.114,2.114,0,0,1-2.319,1.885" transform="translate(-44.933 -153.77)"/>
                </g>
              </g>
            </g>
            <path id="Trazado_178164" data-name="Trazado 178164" d="M65.057,182.115l-22.25-2.293A2.113,2.113,0,0,1,40.92,177.5l2.293-22.25a2.113,2.113,0,0,1,2.319-1.886l22.25,2.292a2.114,2.114,0,0,1,1.887,2.319l-2.293,22.251a2.113,2.113,0,0,1-2.319,1.886" transform="translate(0.628 2.354)" fill="#263238"/>
            <path id="Trazado_178165" data-name="Trazado 178165" d="M59.928,171.208l-1.8-.185-.238,2.315-2.489-.256.239-2.316-5.938-.611.176-1.717,5.92-6.458,2.676.276-5.5,6.134,2.961.3.212-2.062,2.409.248-.212,2.063,1.8.185Z" transform="translate(0.763 2.486)" fill="#fff"/>
            <path id="Trazado_178166" data-name="Trazado 178166" d="M105.414,186.272l-22.25-2.293a2.113,2.113,0,0,1-1.887-2.319l2.293-22.25a2.114,2.114,0,0,1,2.319-1.887l22.25,2.293a2.114,2.114,0,0,1,1.887,2.319l-2.293,22.251a2.113,2.113,0,0,1-2.319,1.886" transform="translate(1.248 2.417)" fill="#e8505b"/>
            <g id="Grupo_165846" data-name="Grupo 165846" transform="translate(82.514 159.93)" opacity="0.4">
              <g id="Grupo_165845" data-name="Grupo 165845">
                <g id="Grupo_165844" data-name="Grupo 165844" clip-path="url(#clip-path-7)">
                  <path id="Trazado_178167" data-name="Trazado 178167" d="M105.414,186.272l-22.25-2.293a2.113,2.113,0,0,1-1.887-2.319l2.293-22.25a2.114,2.114,0,0,1,2.319-1.887l22.25,2.293a2.114,2.114,0,0,1,1.887,2.319l-2.293,22.251a2.113,2.113,0,0,1-2.319,1.886" transform="translate(-81.266 -157.513)"/>
                </g>
              </g>
            </g>
            <path id="Trazado_178168" data-name="Trazado 178168" d="M101.391,185.858l-22.25-2.293a2.113,2.113,0,0,1-1.887-2.319L79.547,159a2.114,2.114,0,0,1,2.319-1.887l22.25,2.293A2.115,2.115,0,0,1,106,161.721l-2.293,22.25a2.114,2.114,0,0,1-2.319,1.887" transform="translate(1.186 2.411)" fill="#263238"/>
            <path id="Trazado_178169" data-name="Trazado 178169" d="M95.915,173.759c-.2,1.953-1.809,3.506-4.96,3.182a7.656,7.656,0,0,1-4.083-1.614l1.209-1.85a5.325,5.325,0,0,0,3.031,1.316c1.276.132,2.119-.324,2.211-1.221.089-.866-.419-1.492-2.42-1.7l-2.819-.29,1.206-6.147,6.726.692-.211,2.048-4.6-.473-.389,2.075.9.092c3.26.336,4.4,1.935,4.2,3.888" transform="translate(1.334 2.539)" fill="#fff"/>
            <path id="Trazado_178170" data-name="Trazado 178170" d="M143.08,190.153l-22.25-2.293a2.113,2.113,0,0,1-1.887-2.319l2.293-22.25a2.113,2.113,0,0,1,2.319-1.886l22.25,2.292a2.114,2.114,0,0,1,1.887,2.319L145.4,188.267a2.113,2.113,0,0,1-2.319,1.886" transform="translate(1.826 2.477)" fill="#43a99b"/>
            <path id="Trazado_178172" data-name="Trazado 178172" d="M139.057,189.738l-22.25-2.293a2.113,2.113,0,0,1-1.887-2.319l2.293-22.25a2.114,2.114,0,0,1,2.319-1.887l22.25,2.293a2.115,2.115,0,0,1,1.887,2.319l-2.293,22.251a2.113,2.113,0,0,1-2.319,1.885" transform="translate(1.764 2.471)" fill="#263238"/>
            <path id="Trazado_178173" data-name="Trazado 178173" d="M134.343,177.7c-.231,2.252-2.221,3.48-4.552,3.24-3.039-.314-4.733-2.414-4.366-5.973.393-3.812,2.91-5.7,6.235-5.359a5.979,5.979,0,0,1,2.992,1.073l-1.138,1.777a3.646,3.646,0,0,0-2.007-.765c-1.842-.19-3.136.776-3.431,2.878a3.744,3.744,0,0,1,2.825-.7,3.516,3.516,0,0,1,3.442,3.825m-2.486-.129a1.672,1.672,0,0,0-1.7-1.847,1.735,1.735,0,0,0-2.076,1.458c-.1.945.541,1.711,1.769,1.837a1.657,1.657,0,0,0,2.012-1.448" transform="translate(1.925 2.602)" fill="#fff"/>
            <path id="Trazado_178174" data-name="Trazado 178174" d="M180.746,194.033,158.5,191.74a2.113,2.113,0,0,1-1.887-2.319l2.293-22.25a2.113,2.113,0,0,1,2.319-1.886l22.25,2.292a2.114,2.114,0,0,1,1.887,2.319l-2.293,22.251a2.113,2.113,0,0,1-2.319,1.885" transform="translate(2.404 2.537)" fill="#43a99b"/>
            <path id="Trazado_178176" data-name="Trazado 178176" d="M176.723,193.618l-22.25-2.292a2.115,2.115,0,0,1-1.887-2.32l2.293-22.25a2.113,2.113,0,0,1,2.319-1.886l22.25,2.292a2.115,2.115,0,0,1,1.887,2.319l-2.293,22.251a2.114,2.114,0,0,1-2.319,1.885" transform="translate(2.343 2.53)" fill="#263238"/>
            <rect id="Rectángulo_49855" data-name="Rectángulo 49855" width="11.876" height="1.015" transform="translate(164.326 185.053) rotate(-38.257)" fill="#fff"/>
            <rect id="Rectángulo_49856" data-name="Rectángulo 49856" width="1.015" height="11.876" transform="matrix(0.776, -0.631, 0.631, 0.776, 165.162, 177.488)" fill="#fff"/>
            <path id="Trazado_178177" data-name="Trazado 178177" d="M65.181,220.388,42.931,218.1a2.113,2.113,0,0,1-1.887-2.319l2.293-22.25a2.114,2.114,0,0,1,2.319-1.887l22.25,2.293a2.115,2.115,0,0,1,1.887,2.319L67.5,218.5a2.113,2.113,0,0,1-2.319,1.886" transform="translate(0.63 2.941)" fill="#e8505b"/>
            <g id="Grupo_165855" data-name="Grupo 165855" transform="translate(41.663 194.569)" opacity="0.4">
              <g id="Grupo_165854" data-name="Grupo 165854">
                <g id="Grupo_165853" data-name="Grupo 165853" clip-path="url(#clip-path-7)">
                  <path id="Trazado_178178" data-name="Trazado 178178" d="M65.181,220.388,42.931,218.1a2.113,2.113,0,0,1-1.887-2.319l2.293-22.25a2.114,2.114,0,0,1,2.319-1.887l22.25,2.293a2.115,2.115,0,0,1,1.887,2.319L67.5,218.5a2.113,2.113,0,0,1-2.319,1.886" transform="translate(-41.033 -191.628)"/>
                </g>
              </g>
            </g>
            <path id="Trazado_178179" data-name="Trazado 178179" d="M61.157,219.974l-22.25-2.292a2.114,2.114,0,0,1-1.887-2.32l2.293-22.25a2.113,2.113,0,0,1,2.319-1.885l22.25,2.292a2.114,2.114,0,0,1,1.887,2.319l-2.293,22.251a2.114,2.114,0,0,1-2.319,1.886" transform="translate(0.568 2.935)" fill="#263238"/>
            <path id="Trazado_178180" data-name="Trazado 178180" d="M55.454,200.214l-.171,1.654-5.062,8.949-2.772-.285,4.875-8.539-3.653-.377-.185,1.8-2.268-.234.4-3.874Z" transform="translate(0.71 3.059)" fill="#fff"/>
            <path id="Trazado_178181" data-name="Trazado 178181" d="M101.514,224.131l-22.25-2.292a2.114,2.114,0,0,1-1.887-2.32l2.293-22.25a2.113,2.113,0,0,1,2.319-1.885l22.25,2.292a2.115,2.115,0,0,1,1.887,2.319l-2.293,22.251a2.114,2.114,0,0,1-2.319,1.886" transform="translate(1.188 2.999)" fill="#43a99b"/>
            <path id="Trazado_178183" data-name="Trazado 178183" d="M97.491,223.717l-22.25-2.293a2.113,2.113,0,0,1-1.887-2.319l2.293-22.25a2.113,2.113,0,0,1,2.319-1.886l22.25,2.292a2.115,2.115,0,0,1,1.887,2.319L99.81,221.831a2.114,2.114,0,0,1-2.319,1.886" transform="translate(1.126 2.992)" fill="#263238"/>
            <path id="Trazado_178184" data-name="Trazado 178184" d="M92.876,211.976c-.214,2.078-2.207,3.194-5.01,2.906s-4.5-1.785-4.282-3.863a2.815,2.815,0,0,1,1.937-2.427,2.561,2.561,0,0,1-1.043-2.4c.2-1.937,2.058-2.972,4.562-2.713,2.536.261,4.143,1.652,3.944,3.59a2.575,2.575,0,0,1-1.525,2.134,2.806,2.806,0,0,1,1.416,2.773m-2.574-.345c.1-.977-.641-1.658-1.917-1.789-1.26-.13-2.109.387-2.21,1.364s.623,1.672,1.883,1.8c1.276.132,2.143-.4,2.244-1.377M87,206.563c-.086.835.523,1.423,1.562,1.53,1.057.109,1.786-.341,1.872-1.176.089-.866-.549-1.458-1.59-1.565-1.022-.106-1.755.344-1.844,1.21" transform="translate(1.283 3.122)" fill="#fff"/>
            <path id="Trazado_178185" data-name="Trazado 178185" d="M139.18,228.011l-22.25-2.293a2.113,2.113,0,0,1-1.887-2.319l2.293-22.25a2.114,2.114,0,0,1,2.319-1.887l22.25,2.293a2.115,2.115,0,0,1,1.887,2.319L141.5,226.125a2.113,2.113,0,0,1-2.319,1.886" transform="translate(1.766 3.058)" fill="#43a99b"/>
            <path id="Trazado_178187" data-name="Trazado 178187" d="M135.157,227.6l-22.25-2.292a2.115,2.115,0,0,1-1.887-2.32l2.293-22.25a2.113,2.113,0,0,1,2.319-1.885l22.25,2.292a2.115,2.115,0,0,1,1.887,2.319l-2.293,22.251a2.114,2.114,0,0,1-2.319,1.886" transform="translate(1.704 3.052)" fill="#263238"/>
            <path id="Trazado_178188" data-name="Trazado 178188" d="M130.381,213.261c-.393,3.812-2.894,5.7-6.233,5.359a5.933,5.933,0,0,1-2.978-1.071l1.138-1.777a3.583,3.583,0,0,0,2.006.765c1.827.188,3.135-.776,3.432-2.895a3.777,3.777,0,0,1-2.841.71,3.515,3.515,0,0,1-3.443-3.824c.232-2.253,2.222-3.481,4.552-3.241,3.056.316,4.735,2.415,4.367,5.974m-2.652-2.215c.1-.944-.54-1.711-1.754-1.836a1.667,1.667,0,1,0-.307,3.295,1.719,1.719,0,0,0,2.06-1.459" transform="translate(1.86 3.181)" fill="#fff"/>
            <path id="Trazado_178189" data-name="Trazado 178189" d="M176.846,231.892,154.6,229.6a2.113,2.113,0,0,1-1.887-2.319L155,205.03a2.114,2.114,0,0,1,2.319-1.887l22.25,2.293a2.114,2.114,0,0,1,1.887,2.319l-2.293,22.251a2.113,2.113,0,0,1-2.319,1.886" transform="translate(2.344 3.118)" fill="#43a99b"/>
            <path id="Trazado_178191" data-name="Trazado 178191" d="M172.823,231.477l-22.25-2.293a2.113,2.113,0,0,1-1.887-2.319l2.293-22.25a2.113,2.113,0,0,1,2.319-1.885l22.25,2.292a2.115,2.115,0,0,1,1.887,2.319l-2.293,22.251a2.114,2.114,0,0,1-2.319,1.886" transform="translate(2.283 3.111)" fill="#263238"/>
            <rect id="Rectángulo_49861" data-name="Rectángulo 49861" width="1.016" height="11.876" transform="matrix(0.102, -0.995, 0.995, 0.102, 159.384, 220.111)" fill="#fff"/>
            <path id="Trazado_178192" data-name="Trazado 178192" d="M135.246,266.2,113,263.908a2.113,2.113,0,0,1-1.887-2.319l2.293-22.25a2.113,2.113,0,0,1,2.319-1.885l22.25,2.292a2.114,2.114,0,0,1,1.887,2.319l-2.293,22.251a2.114,2.114,0,0,1-2.319,1.885" transform="translate(1.706 3.645)" fill="#e8505b"/>
            <g id="Grupo_165867" data-name="Grupo 165867" transform="translate(112.804 241.086)" opacity="0.4">
              <g id="Grupo_165866" data-name="Grupo 165866">
                <g id="Grupo_165865" data-name="Grupo 165865" clip-path="url(#clip-path-6)">
                  <path id="Trazado_178193" data-name="Trazado 178193" d="M135.246,266.2,113,263.908a2.113,2.113,0,0,1-1.887-2.319l2.293-22.25a2.113,2.113,0,0,1,2.319-1.885l22.25,2.292a2.114,2.114,0,0,1,1.887,2.319l-2.293,22.251a2.114,2.114,0,0,1-2.319,1.885" transform="translate(-111.098 -237.441)" fill="#43a99b"/>
                </g>
              </g>
            </g>
            <path id="Trazado_178194" data-name="Trazado 178194" d="M131.223,265.786l-22.25-2.293a2.113,2.113,0,0,1-1.887-2.319l2.293-22.25a2.114,2.114,0,0,1,2.319-1.887l22.25,2.293a2.114,2.114,0,0,1,1.887,2.319L133.542,263.9a2.113,2.113,0,0,1-2.319,1.886" transform="translate(1.644 3.638)" fill="#263238"/>
            <path id="Trazado_178195" data-name="Trazado 178195" d="M172.912,270.081l-22.25-2.293a2.113,2.113,0,0,1-1.887-2.319l2.293-22.25a2.113,2.113,0,0,1,2.319-1.886l22.25,2.292a2.114,2.114,0,0,1,1.887,2.319L175.231,268.2a2.113,2.113,0,0,1-2.319,1.885" transform="translate(2.284 3.704)" fill="#43a99b"/>
            <path id="Trazado_178197" data-name="Trazado 178197" d="M168.889,269.666l-22.25-2.292a2.115,2.115,0,0,1-1.887-2.32l2.293-22.251a2.113,2.113,0,0,1,2.319-1.885l22.25,2.292a2.114,2.114,0,0,1,1.887,2.319l-2.293,22.251a2.113,2.113,0,0,1-2.319,1.886" transform="translate(2.222 3.698)" fill="#455a64"/>
            <rect id="Rectángulo_49864" data-name="Rectángulo 49864" width="1.015" height="11.876" transform="translate(155.54 257.43) rotate(-84.126)" fill="#fff"/>
            <rect id="Rectángulo_49865" data-name="Rectángulo 49865" width="1.015" height="11.876" transform="translate(155.077 261.926) rotate(-84.126)" fill="#fff"/>
            <path id="Trazado_178198" data-name="Trazado 178198" d="M92.8,262.172l-58.808-6.059a2.539,2.539,0,0,1-2.265-2.785L34,231.251a2.539,2.539,0,0,1,2.786-2.265L95.6,235.044a2.539,2.539,0,0,1,2.265,2.786l-2.274,22.077a2.538,2.538,0,0,1-2.785,2.265" transform="translate(0.487 3.514)" fill="#263238"/>
            <path id="Trazado_178199" data-name="Trazado 178199" d="M61.959,244.644c.375-3.639,2.6-5.5,5.312-5.216,2.725.28,4.512,2.551,4.138,6.189s-2.587,5.5-5.312,5.214c-2.708-.278-4.512-2.55-4.138-6.187m6.883.709c.258-2.5-.517-3.635-1.793-3.767-1.259-.129-2.248.819-2.506,3.324s.516,3.634,1.776,3.763c1.275.132,2.265-.816,2.523-3.32" transform="translate(0.951 3.675)" fill="#fff"/>
            <rect id="Rectángulo_49866" data-name="Rectángulo 49866" width="11.876" height="1.014" transform="translate(121.905 260.889) rotate(-83.273)" fill="#fff"/>
            <rect id="Rectángulo_49867" data-name="Rectángulo 49867" width="1.015" height="11.877" transform="translate(117.145 254.948) rotate(-84.122)" fill="#fff"/>
            <path id="Trazado_178200" data-name="Trazado 178200" d="M110.11,67.13l-1.7,16.484-.777-.08,1.623-15.754-4.145-.426.075-.73Z" transform="translate(1.614 1.022)" fill="#263238"/>
            <path id="Trazado_178201" data-name="Trazado 178201" d="M123.54,84.427l-.075.73L112.3,84.007l.058-.565,7.8-6.384c2.234-1.816,2.781-2.975,2.919-4.316.226-2.191-1.16-3.762-4.032-4.057a6.116,6.116,0,0,0-5.15,1.468l-.488-.573a7,7,0,0,1,5.737-1.624c3.156.326,4.989,2.157,4.714,4.817-.159,1.556-.794,2.87-3.183,4.813l-7.1,5.814Z" transform="translate(1.724 1.041)" fill="#263238"/>
            <path id="Trazado_178202" data-name="Trazado 178202" d="M136.41,81.879c-.281,2.732-2.412,4.465-6.037,4.091a7.456,7.456,0,0,1-5.488-2.874l.482-.521a6.872,6.872,0,0,0,5.057,2.663c3.155.325,4.963-1.06,5.208-3.439.248-2.4-1.2-4.1-4.682-4.456l-.918-.094.058-.566,5.824-6.159-9.09-.936.075-.73L137.025,69.9l-.058.565-5.847,6.18c3.861.4,5.574,2.478,5.291,5.233" transform="translate(1.917 1.056)" fill="#263238"/>
            <path id="Trazado_178203" data-name="Trazado 178203" d="M152.419,83.325l-3.579-.369-.49,4.757-.777-.08.489-4.757-9.467-.976.058-.565,10.265-10.224.918.1L139.706,81.3l8.429.868.432-4.192.778.081-.432,4.191,3.579.369Z" transform="translate(2.128 1.091)" fill="#263238"/>
            <path id="Trazado_178204" data-name="Trazado 178204" d="M155.631,87.534a4.59,4.59,0,0,1-.23.856l-1.175,3.069-.611-.063,1.066-3.175a.79.79,0,0,1-.6-.848.772.772,0,0,1,.857-.7.788.788,0,0,1,.7.857" transform="translate(2.359 1.33)" fill="#263238"/>
            <path id="Trazado_178205" data-name="Trazado 178205" d="M171.9,85.331l-3.579-.369-.49,4.757-.777-.08.489-4.757-9.466-.975.058-.566L168.4,73.12l.918.094-10.13,10.094,8.429.868.432-4.191.778.08-.432,4.191,3.579.369Z" transform="translate(2.427 1.122)" fill="#263238"/>
            <path id="Trazado_178206" data-name="Trazado 178206" d="M183.915,86.675c-.276,2.685-2.351,4.565-6.1,4.179a7.471,7.471,0,0,1-5.464-2.871l.506-.519a6.815,6.815,0,0,0,5.033,2.661c3.226.332,4.979-1.2,5.22-3.532.262-2.543-1.09-4.207-5.8-4.691l-3.2-.33,1.672-7.681,8.5.876-.075.729-7.842-.808-1.357,6.238,2.542.263c5.039.519,6.662,2.566,6.361,5.486" transform="translate(2.646 1.133)" fill="#263238"/>
            <path id="Trazado_178207" data-name="Trazado 178207" d="M6.455,419.057,0,442.926l20.981,1.915,4.409-22.724Z" transform="translate(0 6.433)" fill="#a4a3ff"/>
            <path id="Trazado_178208" data-name="Trazado 178208" d="M21.578,442.573a14.825,14.825,0,0,1-3.072-.1c-1.892-.152-4.495-.441-7.361-.809l-7.334-.984a17.378,17.378,0,0,1-3.026-.524,14.953,14.953,0,0,1,3.072.113c1.89.156,4.494.448,7.361.816l7.332.977a17.563,17.563,0,0,1,3.028.515" transform="translate(0.012 6.756)" fill="#263238"/>
            <g id="Grupo_165873" data-name="Grupo 165873" transform="translate(0 446.891)" opacity="0.6">
              <g id="Grupo_165872" data-name="Grupo 165872">
                <g id="Grupo_165871" data-name="Grupo 165871" clip-path="url(#clip-path-11)">
                  <path id="Trazado_178209" data-name="Trazado 178209" d="M0,442.6l20.98,1.915.34-1.75L.606,440.134l-.585,2.231" transform="translate(0 -440.135)" fill="#fff"/>
                </g>
              </g>
            </g>
            <path id="Trazado_178210" data-name="Trazado 178210" d="M10.266,441.794a88.875,88.875,0,0,1,2-9.145,88.967,88.967,0,0,1,2.473-9.028,88.932,88.932,0,0,1-2,9.145,89.057,89.057,0,0,1-2.473,9.028" transform="translate(0.157 6.503)" fill="#263238"/>
            <path id="Trazado_178211" data-name="Trazado 178211" d="M20.389,442.557a10.065,10.065,0,0,0,.048-4.437,8.818,8.818,0,0,0-2.3-4.153,8.586,8.586,0,0,0-5.221-2.4,8.943,8.943,0,0,0-5.62,1.277,9.733,9.733,0,0,0-3.266,3.47,12.463,12.463,0,0,0-1.325,4.257c-.017,0-.026-.109-.03-.317a6.3,6.3,0,0,1,.049-.909,9.564,9.564,0,0,1,1-3.2,9.794,9.794,0,0,1,3.331-3.69,9.239,9.239,0,0,1,5.911-1.384,8.9,8.9,0,0,1,5.5,2.57,8.957,8.957,0,0,1,2.314,4.4,8.3,8.3,0,0,1,.007,3.351,5.578,5.578,0,0,1-.259.874c-.074.194-.121.292-.137.287" transform="translate(0.041 6.617)" fill="#263238"/>
            <path id="Trazado_178212" data-name="Trazado 178212" d="M91.887,416.389l-1.245,18.8s18.709,6.209,18.817,9.7l-36.554.265.738-29.368Z" transform="translate(1.119 6.383)" fill="#a4a3ff"/>
            <g id="Grupo_165876" data-name="Grupo 165876" transform="translate(79.405 439.592)" opacity="0.6">
              <g id="Grupo_165875" data-name="Grupo 165875">
                <g id="Grupo_165874" data-name="Grupo 165874" clip-path="url(#clip-path-12)">
                  <path id="Trazado_178213" data-name="Trazado 178213" d="M79.312,433a1.493,1.493,0,0,0-1.083,1.671,1.436,1.436,0,0,0,1.648,1.088,1.575,1.575,0,0,0,1.137-1.776,1.487,1.487,0,0,0-1.839-.942" transform="translate(-78.205 -432.945)" fill="#fff"/>
                </g>
              </g>
            </g>
            <g id="Grupo_165879" data-name="Grupo 165879" transform="translate(74.024 448.582)" opacity="0.6">
              <g id="Grupo_165878" data-name="Grupo 165878">
                <g id="Grupo_165877" data-name="Grupo 165877" clip-path="url(#clip-path-13)">
                  <path id="Trazado_178214" data-name="Trazado 178214" d="M72.9,444.757l.19-2.958,35.19.972a2.529,2.529,0,0,1,1.361,1.986Z" transform="translate(-72.905 -441.799)" fill="#fff"/>
                </g>
              </g>
            </g>
            <path id="Trazado_178215" data-name="Trazado 178215" d="M91.014,434.731c-.012.178-.906.233-1.8.779-.908.524-1.384,1.283-1.546,1.207-.162-.04.135-1.1,1.231-1.741s2.162-.407,2.118-.245" transform="translate(1.345 6.671)" fill="#263238"/>
            <path id="Trazado_178216" data-name="Trazado 178216" d="M94.727,436.4c.036.174-.746.454-1.375,1.19-.651.718-.828,1.529-1.005,1.516-.169.023-.261-1.025.539-1.926s1.842-.95,1.841-.78" transform="translate(1.416 6.698)" fill="#263238"/>
            <path id="Trazado_178217" data-name="Trazado 178217" d="M96.7,441.03c-.163.034-.385-.866.1-1.829s1.333-1.327,1.4-1.176c.1.149-.461.657-.85,1.454-.406.788-.48,1.538-.658,1.55" transform="translate(1.482 6.724)" fill="#263238"/>
            <path id="Trazado_178218" data-name="Trazado 178218" d="M90.832,430.488c-.079.16-.89-.111-1.9-.073-1.011.018-1.806.333-1.895.177-.1-.132.686-.769,1.877-.8s2.01.556,1.918.693" transform="translate(1.336 6.598)" fill="#263238"/>
            <g id="Grupo_165882" data-name="Grupo 165882" transform="translate(74.587 426.116)" opacity="0.3">
              <g id="Grupo_165881" data-name="Grupo 165881">
                <g id="Grupo_165880" data-name="Grupo 165880" clip-path="url(#clip-path-14)">
                  <path id="Trazado_178219" data-name="Trazado 178219" d="M91.627,420.052l-.217,3.35L73.46,422.7l.068-3.022Z" transform="translate(-73.46 -419.673)"/>
                </g>
              </g>
            </g>
            <path id="Trazado_178220" data-name="Trazado 178220" d="M91.035,426.785a3.431,3.431,0,0,1-1.83-.065,8.209,8.209,0,0,1-1.9-.646,8.583,8.583,0,0,1-1.034-.589,2.247,2.247,0,0,1-.539-.448.777.777,0,0,1-.053-.951.981.981,0,0,1,.794-.384,2.359,2.359,0,0,1,.683.116,6.523,6.523,0,0,1,1.125.424,6.445,6.445,0,0,1,1.654,1.159c.823.81,1.093,1.486,1.031,1.518-.082.057-.478-.514-1.321-1.188a7.3,7.3,0,0,0-1.6-.969,6.791,6.791,0,0,0-1.04-.356c-.385-.113-.714-.126-.818.044-.038.064-.043.09.035.206a1.845,1.845,0,0,0,.4.326,9.525,9.525,0,0,0,.949.582,10.148,10.148,0,0,0,1.748.732,12.528,12.528,0,0,1,1.719.489" transform="translate(1.313 6.504)" fill="#263238"/>
            <path id="Trazado_178221" data-name="Trazado 178221" d="M90.723,427.07a2.916,2.916,0,0,1-.429-1.782,5.936,5.936,0,0,1,.81-3.093,1.514,1.514,0,0,1,1.2-.888.856.856,0,0,1,.748.534,2.46,2.46,0,0,1,.168.676,4.075,4.075,0,0,1-.036,1.233,4.213,4.213,0,0,1-.839,1.866c-.742.925-1.494,1.116-1.507,1.055-.057-.091.576-.417,1.149-1.311a4.2,4.2,0,0,0,.631-1.7,3.768,3.768,0,0,0,0-1.058c-.046-.39-.182-.708-.329-.672-.181-.008-.5.274-.658.58a6.191,6.191,0,0,0-.483.978,6.583,6.583,0,0,0-.409,1.815c-.082,1.071.087,1.744-.01,1.769" transform="translate(1.386 6.467)" fill="#263238"/>
            <path id="Trazado_178222" data-name="Trazado 178222" d="M13.709,128.082S9.748,149.711,6.564,162.8c-2.472,10.164-8.875,29.215,2.71,34.749s27.166-16.8,27.166-16.8l6.611-50.9c-4.606.862-9.818,6.2-15.372,14.048l1.008-19.31Z" transform="translate(0.039 1.912)" fill="#a4a3ff"/>
            <path id="Trazado_178223" data-name="Trazado 178223" d="M170.741,159.847l-6.1,2.906-5.609-8.8,3.28-6.794c.312-.631.645-1.338.994-2.15a9.288,9.288,0,0,0,.723-2.989,14.167,14.167,0,0,0-.1-3.823c-.3-1.133.9-2.062,1.713-1.4s1.724,3.764,1.12,7.507,3.753-.228,5.366-1.646,6.8-5.566,7.619-5.4c1.2.238,1.163,1.6-.48,2.973-1.663,1.4-6.289,5.865-5.522,6.7l.038,0a4.579,4.579,0,0,1,3.975,3.556c.416,1.844.751,4.388-.285,5.228a60.234,60.234,0,0,1-6.737,4.135" transform="translate(2.442 2.096)" fill="#ffbe9d"/>
            <path id="Trazado_178224" data-name="Trazado 178224" d="M54.222,78.77l-.162,52.912,22.7,1.082.656-12.87s8.063,1.6,10.143-5.887c1.329-4.783,1-41.75,1-41.75Z" transform="translate(0.83 1.108)" fill="#ffbe9d"/>
            <path id="Trazado_178225" data-name="Trazado 178225" d="M93.81,77.6C92.281,80.764,85,86.55,85,86.55l-3.289,8.814c-2.857-2.237-6.693-2.108-7.419,2.912-.525,3.629,3.985,4.362,3.985,4.362-2.626,4.469-4.407,8.083-8.229,12.334-4.139,4.6-6.457,5.064-10.944,5.139H54.155s-10.126-8.462-8.125-30.748S68.067,73.578,72.85,68.009c7.789-9.069,26.065-.962,20.961,9.593" transform="translate(0.703 0.983)" fill="#263238"/>
            <path id="Trazado_178226" data-name="Trazado 178226" d="M47.134,107.867s.219-.007.634,0a10.007,10.007,0,0,0,1.8-.207,12.842,12.842,0,0,0,5.815-3.079,32.429,32.429,0,0,0,5.894-7.888c.961-1.6,1.968-3.286,3.184-4.921a18.892,18.892,0,0,1,4.454-4.44A18.412,18.412,0,0,1,74.7,84.866c1.972-.514,3.91-.829,5.739-1.185,3.651-.672,6.932-1.692,9.167-3.426a9.923,9.923,0,0,0,3.711-5.361,7.755,7.755,0,0,0,.217-1.792c-.021-.413-.022-.633-.022-.633s.029.216.065.632a7.3,7.3,0,0,1-.18,1.812,9.915,9.915,0,0,1-3.7,5.46c-2.254,1.774-5.564,2.815-9.22,3.5-1.832.361-3.765.68-5.724,1.193a18.294,18.294,0,0,0-5.722,2.441A18.764,18.764,0,0,0,64.622,91.9c-1.21,1.623-2.217,3.3-3.182,4.9a32.185,32.185,0,0,1-5.963,7.9,12.748,12.748,0,0,1-5.9,3.048,9.232,9.232,0,0,1-1.812.169c-.416-.021-.634-.043-.634-.043" transform="translate(0.724 1.112)" fill="#455a64"/>
            <path id="Trazado_178227" data-name="Trazado 178227" d="M45.983,89.785s.358-.139,1.051-.371a15.278,15.278,0,0,1,3.111-.739,7.047,7.047,0,0,1,4.87,1.052,4.066,4.066,0,0,1,1.737,2.6,3.652,3.652,0,0,1-1,3.316,2.841,2.841,0,0,1-1.779.715,3.7,3.7,0,0,1-1.939-.52,5.837,5.837,0,0,1-2.6-3.286,8.262,8.262,0,0,1-.2-4.509,7.853,7.853,0,0,1,2.446-4.1,8.17,8.17,0,0,1,4.58-2.049,14.021,14.021,0,0,1,5.217.675,36.154,36.154,0,0,0,5.276,1.264,21.392,21.392,0,0,0,5.564.013,18.411,18.411,0,0,0,5.352-1.48A6.326,6.326,0,0,0,81.262,78.6a4.884,4.884,0,0,0-1.192-4.76,4.176,4.176,0,0,0-4.585-.679,3.472,3.472,0,0,0-1.693,1.585,3.822,3.822,0,0,0-.364,2.243,5.184,5.184,0,0,0,2.309,3.636,7.568,7.568,0,0,0,3.968,1.115,11.815,11.815,0,0,0,3.809-.572,13.737,13.737,0,0,0,5.634-3.432,14.58,14.58,0,0,0,2.912-4.082,15.439,15.439,0,0,0,1.066-3c.138-.716.221-1.092.221-1.092s-.055.38-.18,1.1a14.845,14.845,0,0,1-1.034,3.025,14.542,14.542,0,0,1-2.9,4.129,13.824,13.824,0,0,1-5.674,3.492,11.993,11.993,0,0,1-3.856.592,7.716,7.716,0,0,1-4.059-1.131,5.362,5.362,0,0,1-2.4-3.759,4.016,4.016,0,0,1,.379-2.354,3.659,3.659,0,0,1,1.78-1.675,4.373,4.373,0,0,1,4.808.71,5.084,5.084,0,0,1,1.251,4.962,6.525,6.525,0,0,1-3.695,3.893,18.574,18.574,0,0,1-5.417,1.5,21.539,21.539,0,0,1-5.618-.013,36.148,36.148,0,0,1-5.3-1.274,13.89,13.89,0,0,0-5.142-.674,7.93,7.93,0,0,0-6.683,10.4,5.673,5.673,0,0,0,2.51,3.2,3.546,3.546,0,0,0,1.853.5,2.69,2.69,0,0,0,1.684-.67,3.514,3.514,0,0,0,.968-3.181,3.944,3.944,0,0,0-1.673-2.522,6.982,6.982,0,0,0-4.792-1.067,15.941,15.941,0,0,0-3.106.7c-.7.218-1.064.33-1.064.33" transform="translate(0.706 1.067)" fill="#455a64"/>
            <path id="Trazado_178228" data-name="Trazado 178228" d="M31.7,231.339,1.483,429.814,26.581,433,61.995,266.525l8.917,167.593,27.2-.475L93.6,231.8Z" transform="translate(0.023 3.551)" fill="#263238"/>
            <path id="Trazado_178229" data-name="Trazado 178229" d="M70.439,434.643l-.026-.489L61.7,270.394,26.989,433.57.912,430.261,31.275,230.835l62.834.473L98.642,434.15ZM62.306,262.668,71.4,433.61l26.2-.458L93.116,232.316l-60.97-.46L2.072,429.383l24.119,3.062Z" transform="translate(0.014 3.543)" fill="#263238"/>
            <path id="Trazado_178230" data-name="Trazado 178230" d="M88.695,432.957c-.146,0-.264-39.767-.264-88.811,0-49.061.118-88.82.264-88.82s.264,39.759.264,88.82c0,49.044-.118,88.811-.264,88.811" transform="translate(1.358 3.919)" fill="#455a64"/>
            <path id="Trazado_178231" data-name="Trazado 178231" d="M20.764,432.05a2.669,2.669,0,0,1,.061-.432c.056-.308.132-.724.229-1.258.218-1.129.531-2.75.932-4.824l3.559-17.716c3.047-14.95,7.364-35.582,12.319-58.328s9.617-43.314,13.067-58.177c1.741-7.407,3.152-13.41,4.135-17.589.5-2.053.887-3.656,1.159-4.774.133-.526.238-.936.314-1.239a2.691,2.691,0,0,1,.125-.418,2.542,2.542,0,0,1-.072.431c-.064.306-.151.72-.263,1.251l-1.062,4.8c-.943,4.188-2.3,10.2-3.97,17.627-3.356,14.884-7.956,35.454-12.914,58.205S29.052,392.967,25.911,407.9c-1.568,7.446-2.838,13.48-3.722,17.681-.443,2.065-.789,3.679-1.031,4.8-.119.529-.212.942-.28,1.247a2.58,2.58,0,0,1-.114.421" transform="translate(0.319 4.103)" fill="#455a64"/>
            <path id="Trazado_178232" data-name="Trazado 178232" d="M70.3,265.82a4.915,4.915,0,0,1-1.147.152l-3.136.221c-2.648.177-6.309.358-10.331.752s-7.649.939-10.28,1.284l-3.118.4a4.918,4.918,0,0,1-1.155.076,4.843,4.843,0,0,1,1.123-.279c.729-.146,1.786-.338,3.095-.562,2.618-.44,6.242-1.038,10.285-1.442s7.713-.518,10.366-.6c1.327-.036,2.4-.055,3.145-.054a4.872,4.872,0,0,1,1.156.054" transform="translate(0.632 4.079)" fill="#455a64"/>
            <path id="Trazado_178233" data-name="Trazado 178233" d="M92.955,253.286a2.156,2.156,0,0,1-.781.2,10.758,10.758,0,0,1-2.19.1,12.715,12.715,0,0,1-11.205-8.053,10.87,10.87,0,0,1-.605-2.108,2.143,2.143,0,0,1-.062-.8c.093-.019.267,1.113,1.011,2.764a13.229,13.229,0,0,0,10.89,7.826c1.8.18,2.931-.016,2.942.078" transform="translate(1.199 3.724)" fill="#455a64"/>
            <path id="Trazado_178234" data-name="Trazado 178234" d="M26.157,236.851l69.524-.224-3.8-45.884c-.421-10.5-.357-11.752-.617-21.444,0,0,9.87,11.933,17.632,20.3a15.818,15.818,0,0,0,18.361,3.522l40.62-28.339-7.606-19.458-36.914,22.6c-1.691-1.051-16.064-21.551-26-31.562A35.142,35.142,0,0,0,73.411,126a175.046,175.046,0,0,0-22.425.9A23.464,23.464,0,0,0,30.1,148.289c-.719,8.579-.141,18.538-.141,35.466Z" transform="translate(0.402 1.933)" fill="#a4a3ff"/>
            <path id="Trazado_178235" data-name="Trazado 178235" d="M29.377,152.52s.011.185.011.536c0,.411-.006.919-.009,1.536-.019,1.334-.018,3.264,0,5.648.026,4.77.219,11.357.424,18.634s.245,13.876.062,18.646c-.083,2.385-.189,4.313-.3,5.643-.051.615-.092,1.121-.126,1.531-.03.35-.058.533-.058.533s0-.186.015-.536c.023-.41.052-.917.086-1.533.087-1.331.17-3.259.234-5.643.144-4.767.081-11.358-.124-18.636s-.375-13.866-.362-18.638c0-2.386.026-4.317.071-5.65.019-.617.036-1.125.049-1.536.013-.351.031-.535.031-.535" transform="translate(0.449 2.341)" fill="#263238"/>
            <path id="Trazado_178236" data-name="Trazado 178236" d="M120.385,173.852a4.426,4.426,0,0,1,.146-.956c.118-.586.293-1.393.5-2.281s.407-1.691.561-2.268a4.335,4.335,0,0,1,.292-.922,4.51,4.51,0,0,1-.148.961c-.117.587-.292,1.392-.5,2.277s-.406,1.687-.56,2.263a4.474,4.474,0,0,1-.293.927" transform="translate(1.848 2.569)" fill="#263238"/>
            <path id="Trazado_178237" data-name="Trazado 178237" d="M124.055,174.427a33.693,33.693,0,0,1-.942-3.656,33.651,33.651,0,0,1-.736-3.7,33.964,33.964,0,0,1,.942,3.657,33.906,33.906,0,0,1,.736,3.7" transform="translate(1.879 2.564)" fill="#263238"/>
            <path id="Trazado_178238" data-name="Trazado 178238" d="M92.218,170.989s-.136-.115-.381-.348c-.285-.278-.636-.618-1.061-1.031-.916-.9-2.239-2.206-3.815-3.879a63.284,63.284,0,0,1-5.185-6.186,35.818,35.818,0,0,1-4.717-8.673,24.221,24.221,0,0,1-1.555-9.727,20.068,20.068,0,0,1,1.748-7.852,11.551,11.551,0,0,1,3.416-4.2,11.2,11.2,0,0,1,1.238-.814c.292-.17.452-.249.452-.249.02.034-.627.341-1.639,1.129a11.667,11.667,0,0,0-3.331,4.2,20.119,20.119,0,0,0-1.689,7.8,24.2,24.2,0,0,0,1.559,9.645,36.11,36.11,0,0,0,4.676,8.633,65.763,65.763,0,0,0,5.138,6.2c1.56,1.682,2.866,3,3.764,3.922l1.033,1.058c.235.244.35.379.35.379" transform="translate(1.159 1.965)" fill="#263238"/>
            <path id="Trazado_178239" data-name="Trazado 178239" d="M47.521,151.828a11.864,11.864,0,0,1-2.386-2.583,11.822,11.822,0,0,1-1.971-2.913,11.885,11.885,0,0,1,2.386,2.584,11.863,11.863,0,0,1,1.971,2.912" transform="translate(0.663 2.246)" fill="#fafafa"/>
            <path id="Trazado_178240" data-name="Trazado 178240" d="M63.122,169.407a23.028,23.028,0,0,1-3.294,3.659,22.982,22.982,0,0,1-3.667,3.286,23.171,23.171,0,0,1,3.295-3.659,23.012,23.012,0,0,1,3.666-3.286" transform="translate(0.862 2.6)" fill="#fafafa"/>
            <path id="Trazado_178241" data-name="Trazado 178241" d="M78.135,194.85c-.149.046-.707-1.524-1.738-3.272s-2.114-3.013-2-3.12a10.419,10.419,0,0,1,3.74,6.393" transform="translate(1.142 2.892)" fill="#fafafa"/>
            <path id="Trazado_178242" data-name="Trazado 178242" d="M39.065,192.04a19.621,19.621,0,0,1-1.828-10.415c.156,0,.207,2.375.72,5.242.494,2.868,1.256,5.119,1.108,5.173" transform="translate(0.569 2.788)" fill="#fafafa"/>
            <path id="Trazado_178243" data-name="Trazado 178243" d="M59.786,203.176a12.883,12.883,0,0,1-.779-8.707c.156.022-.068,1.98.155,4.374.205,2.4.774,4.283.623,4.333" transform="translate(0.899 2.985)" fill="#fafafa"/>
            <path id="Trazado_178244" data-name="Trazado 178244" d="M51.709,219.35a28.671,28.671,0,0,1-4.775-2.673,28.482,28.482,0,0,1-4.495-3.121,28.448,28.448,0,0,1,4.775,2.673,28.44,28.44,0,0,1,4.495,3.121" transform="translate(0.652 3.278)" fill="#fafafa"/>
            <path id="Trazado_178245" data-name="Trazado 178245" d="M83.957,214.464c.065.141-2.292,1.312-5.022,3.042s-4.809,3.343-4.908,3.224a19.555,19.555,0,0,1,4.626-3.671,19.577,19.577,0,0,1,5.3-2.6" transform="translate(1.137 3.292)" fill="#fafafa"/>
            <path id="Trazado_178246" data-name="Trazado 178246" d="M43.411,232.825a25.524,25.524,0,0,1-5.121-.752,25.517,25.517,0,0,1-5.019-1.271,25.447,25.447,0,0,1,5.121.752,25.48,25.48,0,0,1,5.019,1.271" transform="translate(0.511 3.542)" fill="#fafafa"/>
            <path id="Trazado_178247" data-name="Trazado 178247" d="M64.929,229.38a13.181,13.181,0,0,1-3.766-6.953c.146-.048.776,1.608,1.814,3.514s2.071,3.342,1.952,3.439" transform="translate(0.939 3.414)" fill="#fafafa"/>
            <path id="Trazado_178248" data-name="Trazado 178248" d="M89.248,230.969a7.563,7.563,0,0,1-1.581,2.3c-.985,1.18-1.874,2.059-1.987,1.966a7.555,7.555,0,0,1,1.582-2.3c.985-1.18,1.874-2.059,1.986-1.966" transform="translate(1.315 3.545)" fill="#fafafa"/>
            <path id="Trazado_178249" data-name="Trazado 178249" d="M44.773,162.227c.081.121-.825.868-2.025,1.669a6.673,6.673,0,0,1-2.319,1.231c-.081-.121.825-.868,2.026-1.669a6.665,6.665,0,0,1,2.318-1.231" transform="translate(0.621 2.489)" fill="#fafafa"/>
            <path id="Trazado_178250" data-name="Trazado 178250" d="M61.628,143.536a22.857,22.857,0,0,1-1.828-5.224,22.812,22.812,0,0,1-1.031-5.437,39.968,39.968,0,0,1,1.541,5.3,40.037,40.037,0,0,1,1.317,5.36" transform="translate(0.902 2.039)" fill="#fafafa"/>
            <path id="Trazado_178251" data-name="Trazado 178251" d="M77.9,160.561c-.063.142-1.545-.427-3.449-.785s-3.49-.388-3.5-.543a7.172,7.172,0,0,1,3.6.024,7.179,7.179,0,0,1,3.35,1.3" transform="translate(1.089 2.441)" fill="#fafafa"/>
            <path id="Trazado_178252" data-name="Trazado 178252" d="M89.044,145.976a7.784,7.784,0,0,1-3.875.127,7.805,7.805,0,0,1-3.658-1.285c.061-.145,1.669.453,3.739.763,2.066.326,3.78.24,3.794.4" transform="translate(1.251 2.222)" fill="#fafafa"/>
            <path id="Trazado_178253" data-name="Trazado 178253" d="M100.331,162.387a17.983,17.983,0,0,1,.281-5.6,18.026,18.026,0,0,1,1.5-5.4c.149.045-.493,2.457-.978,5.486s-.648,5.518-.8,5.514" transform="translate(1.539 2.323)" fill="#fafafa"/>
            <path id="Trazado_178254" data-name="Trazado 178254" d="M113.824,181.479a23.082,23.082,0,0,1-3.612-3.346,23.109,23.109,0,0,1-3.232-3.714,23.114,23.114,0,0,1,3.612,3.347,23.081,23.081,0,0,1,3.232,3.713" transform="translate(1.642 2.677)" fill="#fafafa"/>
            <path id="Trazado_178255" data-name="Trazado 178255" d="M124.929,179.9a27.152,27.152,0,0,1-4.093,6.35,27.155,27.155,0,0,1,4.093-6.35" transform="translate(1.855 2.761)" fill="#fafafa"/>
            <path id="Trazado_178256" data-name="Trazado 178256" d="M137.85,173.724a19.154,19.154,0,0,1-2.19-3.907,19.089,19.089,0,0,1-1.714-4.138,19.118,19.118,0,0,1,2.19,3.907,19.171,19.171,0,0,1,1.714,4.138" transform="translate(2.056 2.543)" fill="#fafafa"/>
            <path id="Trazado_178257" data-name="Trazado 178257" d="M155.535,166.344a21.04,21.04,0,0,1-4.665-.56A21.007,21.007,0,0,1,146.3,164.7a21.081,21.081,0,0,1,4.665.561,21.043,21.043,0,0,1,4.572,1.081" transform="translate(2.246 2.527)" fill="#fafafa"/>
            <path id="Trazado_178258" data-name="Trazado 178258" d="M15.59,185.181a23.755,23.755,0,0,1,1.886-4.626,23.764,23.764,0,0,1,2.365-4.4,23.774,23.774,0,0,1-1.887,4.626,23.731,23.731,0,0,1-2.364,4.4" transform="translate(0.239 2.704)" fill="#fafafa"/>
            <path id="Trazado_178259" data-name="Trazado 178259" d="M25.008,168.681a17.773,17.773,0,0,1-3.076-3.026,17.8,17.8,0,0,1-2.683-3.38,17.725,17.725,0,0,1,3.076,3.026,17.764,17.764,0,0,1,2.683,3.38" transform="translate(0.295 2.49)" fill="#fafafa"/>
            <path id="Trazado_178260" data-name="Trazado 178260" d="M24.2,195.02c.093.113-.61.851-1.571,1.65s-1.816,1.355-1.91,1.243.61-.851,1.572-1.65,1.815-1.355,1.909-1.243" transform="translate(0.318 2.993)" fill="#fafafa"/>
            <path id="Trazado_178261" data-name="Trazado 178261" d="M27.333,151.094c.114.091-.313.814-.952,1.613s-1.251,1.375-1.366,1.283.313-.813.952-1.613,1.252-1.375,1.366-1.283" transform="translate(0.384 2.319)" fill="#fafafa"/>
            <g id="Grupo_165885" data-name="Grupo 165885" transform="translate(80.783 158.03)" opacity="0.3">
              <g id="Grupo_165884" data-name="Grupo 165884">
                <g id="Grupo_165883" data-name="Grupo 165883" clip-path="url(#clip-path-15)">
                  <path id="Trazado_178262" data-name="Trazado 178262" d="M79.562,155.641c4.294,13.493,7.609,27.657,11.9,41.15l-1.023-27.949a67.005,67.005,0,0,1-10.88-13.2" transform="translate(-79.562 -155.641)"/>
                </g>
              </g>
            </g>
            <path id="Trazado_178263" data-name="Trazado 178263" d="M10.753,173.491a2.147,2.147,0,0,1,.131-.332l.413-.936c.361-.811.9-1.976,1.592-3.408,1.377-2.862,3.372-6.773,5.76-10.992s4.721-7.941,6.469-10.592c.874-1.326,1.594-2.391,2.1-3.117l.59-.836a2.107,2.107,0,0,1,.218-.283,2.568,2.568,0,0,1-.183.308l-.557.857c-.539.831-1.226,1.889-2.047,3.153-1.715,2.67-4.022,6.4-6.411,10.616s-4.4,8.11-5.809,10.954c-.663,1.353-1.216,2.487-1.652,3.377-.172.349-.319.652-.45.918a2.192,2.192,0,0,1-.17.315" transform="translate(0.165 2.194)" fill="#263238"/>
            <path id="Trazado_178264" data-name="Trazado 178264" d="M17.6,160.3c.01.034-.428.176-1.109.467a14.127,14.127,0,0,0-4.707,3.276c-.511.536-.8.9-.823.876-.012-.009.048-.108.167-.28a7.959,7.959,0,0,1,.546-.7,11.862,11.862,0,0,1,4.762-3.313,7.973,7.973,0,0,1,.844-.27.953.953,0,0,1,.321-.059" transform="translate(0.168 2.46)" fill="#263238"/>
            <path id="Trazado_178265" data-name="Trazado 178265" d="M18.541,139.789a30.264,30.264,0,0,1-3.087,4.719,30.3,30.3,0,0,1-3.516,4.41,30.229,30.229,0,0,1,3.088-4.719,30.168,30.168,0,0,1,3.515-4.41" transform="translate(0.183 2.145)" fill="#fafafa"/>
            <path id="Trazado_178266" data-name="Trazado 178266" d="M25.662,123.7a2.446,2.446,0,0,0,2.579-1.218c.568-.849.831-1.865,1.335-2.753,1.509-2.655,4.941-3.811,6.321-6.535.193-.38.311-.909-.019-1.177-.307-.25-.759-.081-1.112.1l-9.045,4.529" transform="translate(0.394 1.717)" fill="#ffbe9d"/>
            <path id="Trazado_178267" data-name="Trazado 178267" d="M25.721,116.647a4.056,4.056,0,0,1,.928-.59c.614-.346,1.512-.831,2.626-1.417L33.2,112.6l1.139-.581a2.007,2.007,0,0,1,1.474-.354.853.853,0,0,1,.55.783,1.752,1.752,0,0,1-.18.807,6.639,6.639,0,0,1-.815,1.249,38.709,38.709,0,0,1-4.1,3.588,7.611,7.611,0,0,0-1.474,1.738c-.361.612-.6,1.262-.88,1.838a3.557,3.557,0,0,1-2.143,2.12,1.277,1.277,0,0,1-1.11-.086,2.963,2.963,0,0,0,1.041-.127,3.448,3.448,0,0,0,1.842-2.077c.249-.565.463-1.228.836-1.9a7.867,7.867,0,0,1,1.528-1.891,45.053,45.053,0,0,0,4.017-3.563,6.242,6.242,0,0,0,.741-1.126c.184-.378.178-.769-.044-.816-.233-.09-.649.118-1.035.315l-1.147.565L29.457,115c-1.138.54-2.063.969-2.708,1.254a4.05,4.05,0,0,1-1.029.389" transform="translate(0.394 1.713)" fill="#eb996e"/>
          </g>
        </g>
      </g>
    </g>
  </g>
</svg>
