<svg xmlns="http://www.w3.org/2000/svg" width="483" height="109" viewBox="0 0 483 109">
  <g id="Grupo_166659" data-name="Grupo 166659" transform="translate(9312 11061)">
    <g id="Rectángulo_50071" data-name="Rectángulo 50071" transform="translate(-9312 -11061)" fill="#fff" stroke="#707070" stroke-width="1">
      <rect width="483" height="109" stroke="none"/>
      <rect x="0.5" y="0.5" width="482" height="108" fill="none"/>
    </g>
    <g id="Grupo_166642" data-name="Grupo 166642" transform="translate(-48.214 -397.595)">
      <path id="Trazado_704864" data-name="Trazado 704864" d="M6.407,0H4.772V-10.837l-3.278,1.2v-1.477l4.658-1.749h.255Zm7.128-7.189h1.222A2.685,2.685,0,0,0,16.567-7.8a2.026,2.026,0,0,0,.659-1.591,1.985,1.985,0,0,0-2.241-2.25,2.331,2.331,0,0,0-1.683.6,2.107,2.107,0,0,0-.628,1.6H11.048a3.264,3.264,0,0,1,1.112-2.527,4.05,4.05,0,0,1,2.826-1.006,4,4,0,0,1,2.839.958,3.461,3.461,0,0,1,1.028,2.663,2.809,2.809,0,0,1-.541,1.617A3.264,3.264,0,0,1,16.84-6.565a3.145,3.145,0,0,1,1.63,1.107,3.076,3.076,0,0,1,.576,1.89A3.491,3.491,0,0,1,17.921-.835,4.213,4.213,0,0,1,14.994.176,4.324,4.324,0,0,1,12.063-.8a3.236,3.236,0,0,1-1.129-2.575h1.635a2.092,2.092,0,0,0,.659,1.617,2.507,2.507,0,0,0,1.767.606,2.46,2.46,0,0,0,1.8-.615,2.371,2.371,0,0,0,.624-1.767,2.151,2.151,0,0,0-.686-1.714,2.987,2.987,0,0,0-1.978-.615H13.535Z" transform="translate(-9251.785 -10639.405)" fill="#12263f"/>
      <path id="Trazado_704865" data-name="Trazado 704865" d="M3.428-7.189H4.649A2.685,2.685,0,0,0,6.46-7.8a2.026,2.026,0,0,0,.659-1.591,1.985,1.985,0,0,0-2.241-2.25,2.331,2.331,0,0,0-1.683.6,2.107,2.107,0,0,0-.628,1.6H.94a3.264,3.264,0,0,1,1.112-2.527,4.05,4.05,0,0,1,2.826-1.006,4,4,0,0,1,2.839.958A3.461,3.461,0,0,1,8.745-9.352,2.809,2.809,0,0,1,8.2-7.734,3.264,3.264,0,0,1,6.732-6.565a3.145,3.145,0,0,1,1.63,1.107,3.076,3.076,0,0,1,.576,1.89A3.491,3.491,0,0,1,7.813-.835,4.213,4.213,0,0,1,4.887.176,4.324,4.324,0,0,1,1.956-.8,3.236,3.236,0,0,1,.826-3.375H2.461A2.092,2.092,0,0,0,3.12-1.758a2.507,2.507,0,0,0,1.767.606,2.46,2.46,0,0,0,1.8-.615,2.371,2.371,0,0,0,.624-1.767,2.151,2.151,0,0,0-.686-1.714,2.987,2.987,0,0,0-1.978-.615H3.428Zm15.5-2.268a2.972,2.972,0,0,1-.505,1.705A3.439,3.439,0,0,1,17.06-6.583a3.668,3.668,0,0,1,1.586,1.257,3.163,3.163,0,0,1,.584,1.872A3.344,3.344,0,0,1,18.11-.809a4.305,4.305,0,0,1-2.949.984A4.286,4.286,0,0,1,12.2-.813a3.36,3.36,0,0,1-1.112-2.641,3.257,3.257,0,0,1,.567-1.872,3.528,3.528,0,0,1,1.569-1.266,3.354,3.354,0,0,1-1.345-1.169,3.014,3.014,0,0,1-.492-1.7,3.308,3.308,0,0,1,1.037-2.566,3.89,3.89,0,0,1,2.733-.949,3.894,3.894,0,0,1,2.729.949A3.3,3.3,0,0,1,18.932-9.457ZM17.6-3.489a2.359,2.359,0,0,0-.681-1.749,2.416,2.416,0,0,0-1.78-.677,2.373,2.373,0,0,0-1.762.668,2.385,2.385,0,0,0-.664,1.758,2.271,2.271,0,0,0,.646,1.714,2.48,2.48,0,0,0,1.8.624,2.472,2.472,0,0,0,1.793-.628A2.266,2.266,0,0,0,17.6-3.489Zm-2.443-8.147a2.1,2.1,0,0,0-1.551.593,2.179,2.179,0,0,0-.593,1.613A2.169,2.169,0,0,0,13.6-7.853a2.074,2.074,0,0,0,1.56.6,2.074,2.074,0,0,0,1.56-.6,2.169,2.169,0,0,0,.584-1.578,2.17,2.17,0,0,0-.606-1.591A2.068,2.068,0,0,0,15.161-11.637Z" transform="translate(-9076.785 -10639.405)" fill="#12263f"/>
      <path id="Trazado_704866" data-name="Trazado 704866" d="M9.448,0H1.063V-1.169l4.43-4.922A10.524,10.524,0,0,0,6.851-7.906a3.029,3.029,0,0,0,.374-1.446A2.3,2.3,0,0,0,6.618-11,2.12,2.12,0,0,0,5-11.637a2.511,2.511,0,0,0-1.885.69,2.635,2.635,0,0,0-.672,1.92H.817a3.774,3.774,0,0,1,1.138-2.856A4.219,4.219,0,0,1,5-12.973a4.054,4.054,0,0,1,2.821.936A3.193,3.193,0,0,1,8.859-9.545q0,1.89-2.408,4.5L3.023-1.327H9.448Zm8.1-12.806v1.38h-.3A4.281,4.281,0,0,0,14.229-10.3a4.681,4.681,0,0,0-1.3,3.067,3.471,3.471,0,0,1,2.76-1.16,3.319,3.319,0,0,1,2.667,1.178,4.543,4.543,0,0,1,1,3.041,4.528,4.528,0,0,1-1.077,3.164A3.707,3.707,0,0,1,15.39.176,3.653,3.653,0,0,1,12.41-1.235a5.591,5.591,0,0,1-1.143-3.634v-.624a8.424,8.424,0,0,1,1.507-5.4,5.536,5.536,0,0,1,4.487-1.912ZM15.416-7.04a2.594,2.594,0,0,0-1.538.5A2.61,2.61,0,0,0,12.9-5.282v.6a4.2,4.2,0,0,0,.712,2.549,2.133,2.133,0,0,0,1.775.967,2.067,2.067,0,0,0,1.727-.809A3.355,3.355,0,0,0,17.745-4.1a3.356,3.356,0,0,0-.637-2.131A2.042,2.042,0,0,0,15.416-7.04Z" transform="translate(-9163.785 -10639.405)" fill="#12263f"/>
      <path id="Trazado_704867" data-name="Trazado 704867" d="M7.928-4.3H9.7v1.327H7.928V0H6.293V-2.971H.466v-.958L6.2-12.8H7.928Zm-5.616,0H6.293v-6.275l-.193.352ZM17.4-5.625a3.978,3.978,0,0,1-1.217.976,3.3,3.3,0,0,1-1.551.369A3.41,3.41,0,0,1,12.7-4.825a3.543,3.543,0,0,1-1.27-1.534,5.229,5.229,0,0,1-.448-2.184,5.327,5.327,0,0,1,.488-2.312,3.583,3.583,0,0,1,1.384-1.573,3.947,3.947,0,0,1,2.092-.545,3.574,3.574,0,0,1,2.993,1.419,6.191,6.191,0,0,1,1.094,3.872v.475q0,3.735-1.477,5.454A5.673,5.673,0,0,1,13.1.009h-.316v-1.38h.343a4.476,4.476,0,0,0,3.094-1.048A4.5,4.5,0,0,0,17.4-5.625Zm-2.5,0a2.511,2.511,0,0,0,1.507-.5,2.953,2.953,0,0,0,1.006-1.239v-.65a4.474,4.474,0,0,0-.694-2.6,2.072,2.072,0,0,0-1.758-1,2.088,2.088,0,0,0-1.723.822,3.39,3.39,0,0,0-.65,2.167,3.528,3.528,0,0,0,.628,2.158A1.99,1.99,0,0,0,14.9-5.625Z" transform="translate(-8988.785 -10639.405)" fill="#12263f"/>
      <path id="Trazado_704868" data-name="Trazado 704868" d="M8.824-9.457a2.972,2.972,0,0,1-.505,1.705A3.439,3.439,0,0,1,6.952-6.583,3.668,3.668,0,0,1,8.539-5.326a3.163,3.163,0,0,1,.584,1.872A3.344,3.344,0,0,1,8-.809,4.305,4.305,0,0,1,5.054.176,4.286,4.286,0,0,1,2.1-.813,3.36,3.36,0,0,1,.984-3.454a3.257,3.257,0,0,1,.567-1.872A3.528,3.528,0,0,1,3.12-6.592,3.354,3.354,0,0,1,1.775-7.761a3.014,3.014,0,0,1-.492-1.7A3.308,3.308,0,0,1,2.32-12.023a3.89,3.89,0,0,1,2.733-.949,3.894,3.894,0,0,1,2.729.949A3.3,3.3,0,0,1,8.824-9.457ZM7.5-3.489a2.359,2.359,0,0,0-.681-1.749,2.416,2.416,0,0,0-1.78-.677,2.373,2.373,0,0,0-1.762.668A2.385,2.385,0,0,0,2.61-3.489a2.271,2.271,0,0,0,.646,1.714,2.48,2.48,0,0,0,1.8.624A2.472,2.472,0,0,0,6.847-1.78,2.266,2.266,0,0,0,7.5-3.489ZM5.054-11.637a2.1,2.1,0,0,0-1.551.593,2.179,2.179,0,0,0-.593,1.613,2.169,2.169,0,0,0,.584,1.578,2.074,2.074,0,0,0,1.56.6,2.074,2.074,0,0,0,1.56-.6A2.169,2.169,0,0,0,7.2-9.431a2.17,2.17,0,0,0-.606-1.591A2.068,2.068,0,0,0,5.054-11.637ZM16.515,0H14.88V-10.837L11.6-9.633v-1.477l4.658-1.749h.255Z" transform="translate(-8856.785 -10639.405)" fill="#12263f"/>
      <path id="Trazado_704869" data-name="Trazado 704869" d="M9.448,0H1.063V-1.169l4.43-4.922A10.524,10.524,0,0,0,6.851-7.906a3.029,3.029,0,0,0,.374-1.446A2.3,2.3,0,0,0,6.618-11,2.12,2.12,0,0,0,5-11.637a2.511,2.511,0,0,0-1.885.69,2.635,2.635,0,0,0-.672,1.92H.817a3.774,3.774,0,0,1,1.138-2.856A4.219,4.219,0,0,1,5-12.973a4.054,4.054,0,0,1,2.821.936A3.193,3.193,0,0,1,8.859-9.545q0,1.89-2.408,4.5L3.023-1.327H9.448ZM19.556,0H11.171V-1.169L15.6-6.091a10.524,10.524,0,0,0,1.358-1.815,3.029,3.029,0,0,0,.374-1.446A2.3,2.3,0,0,0,16.726-11a2.12,2.12,0,0,0-1.617-.642,2.511,2.511,0,0,0-1.885.69,2.635,2.635,0,0,0-.672,1.92H10.925a3.774,3.774,0,0,1,1.138-2.856,4.219,4.219,0,0,1,3.045-1.09,4.054,4.054,0,0,1,2.821.936,3.193,3.193,0,0,1,1.037,2.492q0,1.89-2.408,4.5L13.131-1.327h6.425Z" transform="translate(-9207.785 -10639.405)" fill="#12263f"/>
      <path id="Trazado_704870" data-name="Trazado 704870" d="M7.928-4.3H9.7v1.327H7.928V0H6.293V-2.971H.466v-.958L6.2-12.8H7.928Zm-5.616,0H6.293v-6.275l-.193.352ZM19.556,0H11.171V-1.169L15.6-6.091a10.524,10.524,0,0,0,1.358-1.815,3.029,3.029,0,0,0,.374-1.446A2.3,2.3,0,0,0,16.726-11a2.12,2.12,0,0,0-1.617-.642,2.511,2.511,0,0,0-1.885.69,2.635,2.635,0,0,0-.672,1.92H10.925a3.774,3.774,0,0,1,1.138-2.856,4.219,4.219,0,0,1,3.045-1.09,4.054,4.054,0,0,1,2.821.936,3.193,3.193,0,0,1,1.037,2.492q0,1.89-2.408,4.5L13.131-1.327h6.425Z" transform="translate(-9032.785 -10639.405)" fill="#12263f"/>
      <path id="Trazado_704871" data-name="Trazado 704871" d="M9.325-11.883,4.025,0H2.32L7.6-11.461H.677V-12.8H9.325Zm10.107,0L14.133,0H12.428L17.71-11.461H10.784V-12.8h8.648Z" transform="translate(-8900.785 -10639.405)" fill="#12263f"/>
      <path id="Trazado_704872" data-name="Trazado 704872" d="M3.428-7.189H4.649A2.685,2.685,0,0,0,6.46-7.8a2.026,2.026,0,0,0,.659-1.591,1.985,1.985,0,0,0-2.241-2.25,2.331,2.331,0,0,0-1.683.6,2.107,2.107,0,0,0-.628,1.6H.94a3.264,3.264,0,0,1,1.112-2.527,4.05,4.05,0,0,1,2.826-1.006,4,4,0,0,1,2.839.958A3.461,3.461,0,0,1,8.745-9.352,2.809,2.809,0,0,1,8.2-7.734,3.264,3.264,0,0,1,6.732-6.565a3.145,3.145,0,0,1,1.63,1.107,3.076,3.076,0,0,1,.576,1.89A3.491,3.491,0,0,1,7.813-.835,4.213,4.213,0,0,1,4.887.176,4.324,4.324,0,0,1,1.956-.8,3.236,3.236,0,0,1,.826-3.375H2.461A2.092,2.092,0,0,0,3.12-1.758a2.507,2.507,0,0,0,1.767.606,2.46,2.46,0,0,0,1.8-.615,2.371,2.371,0,0,0,.624-1.767,2.151,2.151,0,0,0-.686-1.714,2.987,2.987,0,0,0-1.978-.615H3.428Zm14.124-5.616v1.38h-.3A4.281,4.281,0,0,0,14.229-10.3a4.681,4.681,0,0,0-1.3,3.067,3.471,3.471,0,0,1,2.76-1.16,3.319,3.319,0,0,1,2.667,1.178,4.543,4.543,0,0,1,1,3.041,4.528,4.528,0,0,1-1.077,3.164A3.707,3.707,0,0,1,15.39.176,3.653,3.653,0,0,1,12.41-1.235a5.591,5.591,0,0,1-1.143-3.634v-.624a8.424,8.424,0,0,1,1.507-5.4,5.536,5.536,0,0,1,4.487-1.912ZM15.416-7.04a2.594,2.594,0,0,0-1.538.5A2.61,2.61,0,0,0,12.9-5.282v.6a4.2,4.2,0,0,0,.712,2.549,2.133,2.133,0,0,0,1.775.967,2.067,2.067,0,0,0,1.727-.809A3.355,3.355,0,0,0,17.745-4.1a3.356,3.356,0,0,0-.637-2.131A2.042,2.042,0,0,0,15.416-7.04Z" transform="translate(-9119.785 -10639.405)" fill="#12263f"/>
      <path id="Trazado_704873" data-name="Trazado 704873" d="M1.811-6.416l.65-6.381H9.018v1.5H3.841L3.454-7.8A4.13,4.13,0,0,1,5.59-8.358,3.531,3.531,0,0,1,8.367-7.2,4.53,4.53,0,0,1,9.4-4.078,4.372,4.372,0,0,1,8.328-.962,3.892,3.892,0,0,1,5.344.176a4.045,4.045,0,0,1-2.769-.94,3.754,3.754,0,0,1-1.222-2.6H2.892a2.582,2.582,0,0,0,.782,1.657,2.432,2.432,0,0,0,1.67.558,2.194,2.194,0,0,0,1.78-.773A3.233,3.233,0,0,0,7.77-4.061a2.968,2.968,0,0,0-.7-2.061A2.377,2.377,0,0,0,5.212-6.9a2.681,2.681,0,0,0-1.67.466l-.431.352ZM19.2-5.458a7.436,7.436,0,0,1-.976,4.245A3.47,3.47,0,0,1,15.17.176a3.5,3.5,0,0,1-3.032-1.358,7.058,7.058,0,0,1-1.02-4.056V-7.409a7.271,7.271,0,0,1,.976-4.192,3.5,3.5,0,0,1,3.059-1.371,3.528,3.528,0,0,1,3.041,1.323,7.017,7.017,0,0,1,1,4.083ZM17.569-7.682a5.958,5.958,0,0,0-.58-3.01,2,2,0,0,0-1.837-.945,1.97,1.97,0,0,0-1.819.94A5.817,5.817,0,0,0,12.744-7.8v2.6a6.053,6.053,0,0,0,.6,3.063,1.993,1.993,0,0,0,1.824.989,1.966,1.966,0,0,0,1.789-.932,5.834,5.834,0,0,0,.611-2.936Z" transform="translate(-8944.785 -10639.405)" fill="#12263f"/>
      <path id="Trazado_704874" data-name="Trazado 704874" d="M7.295-5.625a3.978,3.978,0,0,1-1.217.976,3.3,3.3,0,0,1-1.551.369A3.41,3.41,0,0,1,2.6-4.825a3.543,3.543,0,0,1-1.27-1.534A5.229,5.229,0,0,1,.879-8.543a5.327,5.327,0,0,1,.488-2.312,3.583,3.583,0,0,1,1.384-1.573,3.947,3.947,0,0,1,2.092-.545,3.574,3.574,0,0,1,2.993,1.419A6.191,6.191,0,0,1,8.93-7.682v.475q0,3.735-1.477,5.454A5.673,5.673,0,0,1,3,.009H2.681v-1.38h.343A4.476,4.476,0,0,0,6.117-2.419,4.5,4.5,0,0,0,7.295-5.625Zm-2.5,0a2.511,2.511,0,0,0,1.507-.5A2.953,2.953,0,0,0,7.3-7.365v-.65a4.474,4.474,0,0,0-.694-2.6,2.072,2.072,0,0,0-1.758-1,2.088,2.088,0,0,0-1.723.822,3.39,3.39,0,0,0-.65,2.167,3.528,3.528,0,0,0,.628,2.158A1.99,1.99,0,0,0,4.79-5.625ZM18.932-9.457a2.972,2.972,0,0,1-.505,1.705A3.439,3.439,0,0,1,17.06-6.583a3.668,3.668,0,0,1,1.586,1.257,3.163,3.163,0,0,1,.584,1.872A3.344,3.344,0,0,1,18.11-.809a4.305,4.305,0,0,1-2.949.984A4.286,4.286,0,0,1,12.2-.813a3.36,3.36,0,0,1-1.112-2.641,3.257,3.257,0,0,1,.567-1.872,3.528,3.528,0,0,1,1.569-1.266,3.354,3.354,0,0,1-1.345-1.169,3.014,3.014,0,0,1-.492-1.7,3.308,3.308,0,0,1,1.037-2.566,3.89,3.89,0,0,1,2.733-.949,3.894,3.894,0,0,1,2.729.949A3.3,3.3,0,0,1,18.932-9.457ZM17.6-3.489a2.359,2.359,0,0,0-.681-1.749,2.416,2.416,0,0,0-1.78-.677,2.373,2.373,0,0,0-1.762.668,2.385,2.385,0,0,0-.664,1.758,2.271,2.271,0,0,0,.646,1.714,2.48,2.48,0,0,0,1.8.624,2.472,2.472,0,0,0,1.793-.628A2.266,2.266,0,0,0,17.6-3.489Zm-2.443-8.147a2.1,2.1,0,0,0-1.551.593,2.179,2.179,0,0,0-.593,1.613A2.169,2.169,0,0,0,13.6-7.853a2.074,2.074,0,0,0,1.56.6,2.074,2.074,0,0,0,1.56-.6,2.169,2.169,0,0,0,.584-1.578,2.17,2.17,0,0,0-.606-1.591A2.068,2.068,0,0,0,15.161-11.637Z" transform="translate(-8813.785 -10639.405)" fill="#12263f"/>
      <g id="Trazado_704875" data-name="Trazado 704875" transform="translate(-9263.785 -10663.405)" fill="none">
        <path d="M0,0H483V109H0Z" stroke="none"/>
        <path d="M 1 1 L 1 108 L 482 108 L 482 1 L 1 1 M 0 0 L 483 0 L 483 109 L 0 109 L 0 0 Z" stroke="none" fill="#12263f"/>
      </g>
      <g id="Trazado_704876" data-name="Trazado 704876" transform="translate(-9263.785 -10663.405)" fill="none">
        <path d="M0,0H45V37H0Z" stroke="none"/>
        <path d="M 1 1 L 1 36 L 44 36 L 44 1 L 1 1 M 0 0 L 45 0 L 45 37 L 0 37 L 0 0 Z" stroke="none" fill="#12263f"/>
      </g>
      <g id="Trazado_704877" data-name="Trazado 704877" transform="translate(-9263.785 -10627.405)" fill="none">
        <path d="M0,0H45V37H0Z" stroke="none"/>
        <path d="M 1 1 L 1 36 L 44 36 L 44 1 L 1 1 M 0 0 L 45 0 L 45 37 L 0 37 L 0 0 Z" stroke="none" fill="#12263f"/>
      </g>
      <g id="Trazado_704878" data-name="Trazado 704878" transform="translate(-9263.785 -10591.405)" fill="none">
        <path d="M0,0H45V37H0Z" stroke="none"/>
        <path d="M 1 1 L 1 36 L 44 36 L 44 1 L 1 1 M 0 0 L 45 0 L 45 37 L 0 37 L 0 0 Z" stroke="none" fill="#12263f"/>
      </g>
      <g id="Trazado_704879" data-name="Trazado 704879" transform="translate(-9088.785 -10663.405)" fill="none">
        <path d="M0,0H45V37H0Z" stroke="none"/>
        <path d="M 1 1 L 1 36 L 44 36 L 44 1 L 1 1 M 0 0 L 45 0 L 45 37 L 0 37 L 0 0 Z" stroke="none" fill="#12263f"/>
      </g>
      <g id="Trazado_704880" data-name="Trazado 704880" transform="translate(-9176.785 -10663.405)" fill="none">
        <path d="M0,0H46V37H0Z" stroke="none"/>
        <path d="M 1 1 L 1 36 L 45 36 L 45 1 L 1 1 M 0 0 L 46 0 L 46 37 L 0 37 L 0 0 Z" stroke="none" fill="#12263f"/>
      </g>
      <g id="Trazado_704881" data-name="Trazado 704881" transform="translate(-9176.785 -10627.405)" fill="none">
        <path d="M0,0H46V37H0Z" stroke="none"/>
        <path d="M 1 1 L 1 36 L 45 36 L 45 1 L 1 1 M 0 0 L 46 0 L 46 37 L 0 37 L 0 0 Z" stroke="none" fill="#12263f"/>
      </g>
      <g id="Trazado_704882" data-name="Trazado 704882" transform="translate(-9176.785 -10591.405)" fill="none">
        <path d="M0,0H46V37H0Z" stroke="none"/>
        <path d="M 1 1 L 1 36 L 45 36 L 45 1 L 1 1 M 0 0 L 46 0 L 46 37 L 0 37 L 0 0 Z" stroke="none" fill="#12263f"/>
      </g>
      <g id="Trazado_704883" data-name="Trazado 704883" transform="translate(-9000.785 -10663.405)" fill="none">
        <path d="M0,0H45V37H0Z" stroke="none"/>
        <path d="M 1 1 L 1 36 L 44 36 L 44 1 L 1 1 M 0 0 L 45 0 L 45 37 L 0 37 L 0 0 Z" stroke="none" fill="#12263f"/>
      </g>
      <g id="Trazado_704884" data-name="Trazado 704884" transform="translate(-9088.785 -10627.405)" fill="none">
        <path d="M0,0H133V37H0Z" stroke="none"/>
        <path d="M 1 1 L 1 36 L 132 36 L 132 1 L 1 1 M 0 0 L 133 0 L 133 37 L 0 37 L 0 0 Z" stroke="none" fill="#12263f"/>
      </g>
      <g id="Trazado_704885" data-name="Trazado 704885" transform="translate(-9088.785 -10591.405)" fill="none">
        <path d="M0,0H133V37H0Z" stroke="none"/>
        <path d="M 1 1 L 1 36 L 132 36 L 132 1 L 1 1 M 0 0 L 133 0 L 133 37 L 0 37 L 0 0 Z" stroke="none" fill="#12263f"/>
      </g>
      <g id="Trazado_704886" data-name="Trazado 704886" transform="translate(-8869.785 -10663.405)" fill="none">
        <path d="M0,0H45V37H0Z" stroke="none"/>
        <path d="M 1 1 L 1 36 L 44 36 L 44 1 L 1 1 M 0 0 L 45 0 L 45 37 L 0 37 L 0 0 Z" stroke="none" fill="#12263f"/>
      </g>
      <g id="Trazado_704887" data-name="Trazado 704887" transform="translate(-8869.785 -10627.405)" fill="none">
        <path d="M0,0H45V37H0Z" stroke="none"/>
        <path d="M 1 1 L 1 36 L 44 36 L 44 1 L 1 1 M 0 0 L 45 0 L 45 37 L 0 37 L 0 0 Z" stroke="none" fill="#12263f"/>
      </g>
      <g id="Trazado_704888" data-name="Trazado 704888" transform="translate(-8869.785 -10591.405)" fill="none">
        <path d="M0,0H45V37H0Z" stroke="none"/>
        <path d="M 1 1 L 1 36 L 44 36 L 44 1 L 1 1 M 0 0 L 45 0 L 45 37 L 0 37 L 0 0 Z" stroke="none" fill="#12263f"/>
      </g>
      <g id="Trazado_704889" data-name="Trazado 704889" transform="translate(-9219.785 -10663.405)" fill="none">
        <path d="M0,0H45V37H0Z" stroke="none"/>
        <path d="M 1 1 L 1 36 L 44 36 L 44 1 L 1 1 M 0 0 L 45 0 L 45 37 L 0 37 L 0 0 Z" stroke="none" fill="#12263f"/>
      </g>
      <g id="Trazado_704890" data-name="Trazado 704890" transform="translate(-9219.785 -10627.405)" fill="none">
        <path d="M0,0H45V37H0Z" stroke="none"/>
        <path d="M 1 1 L 1 36 L 44 36 L 44 1 L 1 1 M 0 0 L 45 0 L 45 37 L 0 37 L 0 0 Z" stroke="none" fill="#12263f"/>
      </g>
      <g id="Trazado_704891" data-name="Trazado 704891" transform="translate(-9219.785 -10591.405)" fill="none">
        <path d="M0,0H45V37H0Z" stroke="none"/>
        <path d="M 1 1 L 1 36 L 44 36 L 44 1 L 1 1 M 0 0 L 45 0 L 45 37 L 0 37 L 0 0 Z" stroke="none" fill="#12263f"/>
      </g>
      <g id="Trazado_704892" data-name="Trazado 704892" transform="translate(-9044.785 -10663.405)" fill="none">
        <path d="M0,0H45V37H0Z" stroke="none"/>
        <path d="M 1 1 L 1 36 L 44 36 L 44 1 L 1 1 M 0 0 L 45 0 L 45 37 L 0 37 L 0 0 Z" stroke="none" fill="#12263f"/>
      </g>
      <g id="Trazado_704893" data-name="Trazado 704893" transform="translate(-8913.785 -10663.405)" fill="none">
        <path d="M0,0H46V37H0Z" stroke="none"/>
        <path d="M 1 1 L 1 36 L 45 36 L 45 1 L 1 1 M 0 0 L 46 0 L 46 37 L 0 37 L 0 0 Z" stroke="none" fill="#12263f"/>
      </g>
      <g id="Trazado_704894" data-name="Trazado 704894" transform="translate(-8913.785 -10627.405)" fill="none">
        <path d="M0,0H46V37H0Z" stroke="none"/>
        <path d="M 1 1 L 1 36 L 45 36 L 45 1 L 1 1 M 0 0 L 46 0 L 46 37 L 0 37 L 0 0 Z" stroke="none" fill="#12263f"/>
      </g>
      <g id="Trazado_704895" data-name="Trazado 704895" transform="translate(-8913.785 -10591.405)" fill="none">
        <path d="M0,0H46V37H0Z" stroke="none"/>
        <path d="M 1 1 L 1 36 L 45 36 L 45 1 L 1 1 M 0 0 L 46 0 L 46 37 L 0 37 L 0 0 Z" stroke="none" fill="#12263f"/>
      </g>
      <g id="Trazado_704896" data-name="Trazado 704896" transform="translate(-9132.785 -10663.405)" fill="none">
        <path d="M0,0H45V37H0Z" stroke="none"/>
        <path d="M 1 1 L 1 36 L 44 36 L 44 1 L 1 1 M 0 0 L 45 0 L 45 37 L 0 37 L 0 0 Z" stroke="none" fill="#12263f"/>
      </g>
      <g id="Trazado_704897" data-name="Trazado 704897" transform="translate(-9132.785 -10627.405)" fill="none">
        <path d="M0,0H45V37H0Z" stroke="none"/>
        <path d="M 1 1 L 1 36 L 44 36 L 44 1 L 1 1 M 0 0 L 45 0 L 45 37 L 0 37 L 0 0 Z" stroke="none" fill="#12263f"/>
      </g>
      <g id="Trazado_704898" data-name="Trazado 704898" transform="translate(-9132.785 -10591.405)" fill="none">
        <path d="M0,0H45V37H0Z" stroke="none"/>
        <path d="M 1 1 L 1 36 L 44 36 L 44 1 L 1 1 M 0 0 L 45 0 L 45 37 L 0 37 L 0 0 Z" stroke="none" fill="#12263f"/>
      </g>
      <g id="Trazado_704899" data-name="Trazado 704899" transform="translate(-8956.785 -10663.405)" fill="none">
        <path d="M0,0H45V37H0Z" stroke="none"/>
        <path d="M 1 1 L 1 36 L 44 36 L 44 1 L 1 1 M 0 0 L 45 0 L 45 37 L 0 37 L 0 0 Z" stroke="none" fill="#12263f"/>
      </g>
      <g id="Trazado_704900" data-name="Trazado 704900" transform="translate(-8956.785 -10627.405)" fill="none">
        <path d="M0,0H45V37H0Z" stroke="none"/>
        <path d="M 1 1 L 1 36 L 44 36 L 44 1 L 1 1 M 0 0 L 45 0 L 45 37 L 0 37 L 0 0 Z" stroke="none" fill="#12263f"/>
      </g>
      <g id="Trazado_704901" data-name="Trazado 704901" transform="translate(-8956.785 -10591.405)" fill="none">
        <path d="M0,0H45V37H0Z" stroke="none"/>
        <path d="M 1 1 L 1 36 L 44 36 L 44 1 L 1 1 M 0 0 L 45 0 L 45 37 L 0 37 L 0 0 Z" stroke="none" fill="#12263f"/>
      </g>
      <g id="Trazado_704902" data-name="Trazado 704902" transform="translate(-8825.785 -10663.405)" fill="none">
        <path d="M0,0H45V37H0Z" stroke="none"/>
        <path d="M 1 1 L 1 36 L 44 36 L 44 1 L 1 1 M 0 0 L 45 0 L 45 37 L 0 37 L 0 0 Z" stroke="none" fill="#12263f"/>
      </g>
      <g id="Trazado_704903" data-name="Trazado 704903" transform="translate(-8825.785 -10627.405)" fill="none">
        <path d="M0,0H45V37H0Z" stroke="none"/>
        <path d="M 1 1 L 1 36 L 44 36 L 44 1 L 1 1 M 0 0 L 45 0 L 45 37 L 0 37 L 0 0 Z" stroke="none" fill="#12263f"/>
      </g>
      <g id="Trazado_704904" data-name="Trazado 704904" transform="translate(-8825.785 -10591.405)" fill="none">
        <path d="M0,0H45V37H0Z" stroke="none"/>
        <path d="M 1 1 L 1 36 L 44 36 L 44 1 L 1 1 M 0 0 L 45 0 L 45 37 L 0 37 L 0 0 Z" stroke="none" fill="#12263f"/>
      </g>
      <path id="Trazado_704905" data-name="Trazado 704905" d="M3.665-12.8,7.849-2.355,12.032-12.8h2.188V0H12.533V-4.983l.158-5.379L8.49,0H7.2L3.006-10.336l.167,5.353V0H1.485V-12.8ZM24.434-5.915H18.888V-1.38H25.33V0H17.2V-12.8h8.042v1.38H18.888v4.122h5.546Zm3,5.915V-12.8h3.612A5.815,5.815,0,0,1,34-12.059a4.993,4.993,0,0,1,1.982,2.1,6.837,6.837,0,0,1,.708,3.129v.817a6.861,6.861,0,0,1-.7,3.173,4.915,4.915,0,0,1-2,2.092A6.185,6.185,0,0,1,30.973,0Zm1.688-11.417V-1.38h1.775A3.863,3.863,0,0,0,33.93-2.594a5.016,5.016,0,0,0,1.085-3.457V-6.8a5.1,5.1,0,0,0-1.024-3.391,3.644,3.644,0,0,0-2.9-1.227ZM41.045,0H39.357V-12.8h1.688Zm10.31-3.349H45.993L44.789,0h-1.74l4.887-12.8h1.477L54.308,0H52.576ZM46.5-4.729h4.351l-2.18-5.985ZM65.865,0h-1.7L57.727-9.861V0h-1.7V-12.8h1.7l6.46,9.905V-12.8h1.679ZM76.087-3.349H70.726L69.521,0h-1.74l4.887-12.8h1.477L79.04,0H77.309Zm-4.852-1.38h4.351l-2.18-5.985Z" transform="translate(-9062.785 -10602.405)" fill="#12263f"/>
      <path id="Trazado_704906" data-name="Trazado 704906" d="M7.928-4.3H9.7v1.327H7.928V0H6.293V-2.971H.466v-.958L6.2-12.8H7.928Zm-5.616,0H6.293v-6.275l-.193.352ZM19.556,0H11.171V-1.169L15.6-6.091a10.524,10.524,0,0,0,1.358-1.815,3.029,3.029,0,0,0,.374-1.446A2.3,2.3,0,0,0,16.726-11a2.12,2.12,0,0,0-1.617-.642,2.511,2.511,0,0,0-1.885.69,2.635,2.635,0,0,0-.672,1.92H10.925a3.774,3.774,0,0,1,1.138-2.856,4.219,4.219,0,0,1,3.045-1.09,4.054,4.054,0,0,1,2.821.936,3.193,3.193,0,0,1,1.037,2.492q0,1.89-2.408,4.5L13.131-1.327h6.425Z" transform="translate(-9032.785 -10566.405)" fill="#12263f"/>
    </g>
  </g>
</svg>
