<svg xmlns="http://www.w3.org/2000/svg" width="61" height="61" viewBox="0 0 61 61">
  <g id="Grupo_166866" data-name="Grupo 166866" transform="translate(-0.266 0.499)">
    <circle id="Elipse_4868" data-name="Elipse 4868" cx="30.5" cy="30.5" r="30.5" transform="translate(0.266 -0.499)" fill="#7125c8"/>
    <g id="ED5lZK.tif" transform="translate(-291.21 990.121)">
      <g id="Grupo_169179" data-name="Grupo 169179" transform="translate(300.711 -982.38)">
        <path id="Trazado_204617" data-name="Trazado 204617" d="M300.711-952.516v-15.946a.231.231,0,0,0,.044-.063,3.142,3.142,0,0,1,3.391-2.6H320.72v-.474c0-1.146.008-2.292-.006-3.438,0-.256.07-.366.33-.412.383-.068.758-.182,1.135-.28a.629.629,0,0,0,.383-.96c-.251-.421-.506-.841-.74-1.23l3.358-3.361c.379.229.78.469,1.179.711a.639.639,0,0,0,1.024-.407c.1-.378.2-.754.28-1.136a.285.285,0,0,1,.337-.274q2.09.012,4.18,0c.231,0,.315.079.358.3.075.382.184.758.28,1.135a.631.631,0,0,0,.972.412l1.215-.732,3.364,3.365c-.238.393-.5.814-.749,1.237a.64.64,0,0,0,.381.938c.488.126.978.247,1.476.372,0,1.519.005,3-.011,4.487a.421.421,0,0,1-.253.29c-.4.126-.8.209-1.207.313a.634.634,0,0,0-.385.934c.257.431.517.861.742,1.235L335-964.729l-1.1-.664c-.544-.329-.952-.161-1.108.458-.067.265-.107.538-.2.794a.413.413,0,0,0,.164.521,4.965,4.965,0,0,1,.248,7.291c-.207.207-.435.392-.688.619.172.062.3.107.433.157a9.727,9.727,0,0,1,6.556,7.783,30.646,30.646,0,0,1,.176,4.166H306.026a1.47,1.47,0,0,1-.942-1.649c.025-.271-.011-.547.009-.819a1.615,1.615,0,0,1,.125-.563,1.222,1.222,0,0,1,1.194-.721h2.4v-2.5c-1.667,0-3.305.015-4.943,0a3.026,3.026,0,0,1-2.825-1.746A7.439,7.439,0,0,1,300.711-952.516Zm3.772-14.835v12.466h5v-6.209h3.742v6.2h1.255v-8.7h3.756v8.711h1.241v-11.208h3.769v11.2h1.2v-12.467Zm20.289-3.783a5.669,5.669,0,0,1,2.594-6.778,5.616,5.616,0,0,1,6.669.9,5.587,5.587,0,0,1,1.044,6.615,5.436,5.436,0,0,1-2.43,2.4,5.513,5.513,0,0,1-4.4.3v2.984a5.132,5.132,0,0,1,3.138.2,7.289,7.289,0,0,0,.2-.847,1.262,1.262,0,0,1,1.113-1.3,5.556,5.556,0,0,0,.638-.282.661.661,0,0,1,.449.021c.367.188.714.416,1.026.6l1.975-1.972c-.188-.313-.413-.648-.592-1.006a.689.689,0,0,1-.026-.483,10.477,10.477,0,0,1,.508-1.221.7.7,0,0,1,.366-.323c.378-.127.772-.206,1.165-.3v-2.764c-.41-.1-.816-.192-1.209-.317a.581.581,0,0,1-.312-.279,12.451,12.451,0,0,1-.52-1.259.687.687,0,0,1,.032-.482c.179-.358.4-.693.565-.965l-1.98-1.995c-.3.178-.621.4-.969.572a.689.689,0,0,1-.483.034,12.431,12.431,0,0,1-1.258-.521.583.583,0,0,1-.28-.311c-.126-.394-.213-.8-.316-1.2h-2.771c-.1.412-.189.808-.31,1.191a.583.583,0,0,1-.272.318c-.421.2-.854.38-1.292.54a.574.574,0,0,1-.417-.022c-.375-.2-.732-.428-1.021-.6l-1.98,1.982a2.281,2.281,0,0,0,.216.361,1.222,1.222,0,0,1,.126,1.7,1.458,1.458,0,0,0-.22.58.484.484,0,0,1-.447.4c-.376.08-.747.182-1.1.271v3.246Zm.951,7.9c.357-.287.647-.553.969-.769a.55.55,0,0,0,.288-.531c-.016-1.107-.006-2.215-.007-3.322a1.888,1.888,0,0,0-2.032-2.017H303.994a1.884,1.884,0,0,0-2.032,2.016q0,6.292,0,12.585c0,.126.011.252.017.379h1.233v-.493q0-5.862,0-11.725c0-1.053.465-1.512,1.529-1.512h19.423c1.113,0,1.559.446,1.559,1.562C325.723-965.8,325.722-964.537,325.722-963.23Zm-3.017,9.646H301.989a2.038,2.038,0,0,0,2.23,2.494c2.655-.065,5.312-.019,7.968-.019,2.76,0,5.521,0,8.281-.008a.655.655,0,0,0,.459-.176C321.537-952.048,322.121-952.825,322.705-953.584Zm6.777-2.527a3.77,3.77,0,0,0,3.743-3.761,3.766,3.766,0,0,0-3.761-3.742,3.764,3.764,0,0,0-3.742,3.761A3.764,3.764,0,0,0,329.483-956.111Zm.635-21.261a4.372,4.372,0,0,0-3.983,6.2.887.887,0,0,0,.357.377,3.418,3.418,0,0,1,1.41,1.417.655.655,0,0,0,.315.312,7.316,7.316,0,0,0,1.607.428,4.369,4.369,0,0,0,4.65-4.23A4.4,4.4,0,0,0,330.118-977.372Zm-4.532,27.59a7.713,7.713,0,0,1-.752-.714,1.873,1.873,0,0,1-.376-.727c-.136-.574-.212-1.162-.316-1.762a8.784,8.784,0,0,0-3.379,8.1h1.85v-4.957h1.241v4.964h3.28c-.529-.926-.986-1.849-1.56-2.692a1.529,1.529,0,0,1-.07-2.02A1.035,1.035,0,0,0,325.586-949.782Zm12.617,4.911a8.737,8.737,0,0,0-3.406-8.1c-.084.507-.182,1-.244,1.507a1.694,1.694,0,0,1-.554,1.109c-.648.6-.641.622-.225,1.417a.606.606,0,0,1-.018.674c-.6,1.019-1.183,2.051-1.769,3.08-.053.094-.093.195-.144.3h3.27v-4.961h1.241v4.969Zm-18.7-2.5.635-2.461H310.122v2.461Zm9.919.615h.1l2.164-7.8a8.31,8.31,0,0,0-4.434.007Zm-9.971.675H306.37v1.2h13.081Zm1.287-18.771v9.966h1.207v-9.966Zm-4.995,2.5v7.454h1.205v-7.454Zm11.38,12.336c-.2.4-.359.759-.55,1.1a.5.5,0,0,0,.014.57c.5.851.985,1.713,1.476,2.571.163.285.329.57.493.854l.069-.031-2.558-9.208a2.727,2.727,0,0,1-.312.128c-.414.11-.483.366-.392.759.12.518.174,1.051.282,1.573a.991.991,0,0,0,.233.466C326.273-950.818,326.693-950.429,327.124-950.01Zm3.2,5.052.07.039c.49-.856.924-1.75,1.485-2.556a1.682,1.682,0,0,0,.079-2.26c-.147-.183-.073-.316.082-.462.36-.339.705-.693,1.05-1.048a.633.633,0,0,0,.19-.283q.187-1.036.337-2.078a.3.3,0,0,0-.106-.249,6.8,6.8,0,0,0-.631-.307Zm-19.583-14.888v4.953h1.2v-4.953Zm14.991,4.461.907-.329-.907-.782Z" transform="translate(-300.711 982.38)" fill="#fff"/>
        <path id="Trazado_204618" data-name="Trazado 204618" d="M371.2-742.427v1.2h-6.2v-1.2Z" transform="translate(-359.959 761.22)" fill="#fff"/>
        <path id="Trazado_204619" data-name="Trazado 204619" d="M364.942-774.5h1.2v1.2h-1.2Z" transform="translate(-359.911 790.785)" fill="#fff"/>
        <path id="Trazado_204620" data-name="Trazado 204620" d="M396.725-773.175v-1.2h1.211v1.2Z" transform="translate(-389.205 790.669)" fill="#fff"/>
        <path id="Trazado_204621" data-name="Trazado 204621" d="M430.059-774.358v1.2h-1.2v-1.2Z" transform="translate(-418.821 790.65)" fill="#fff"/>
        <path id="Trazado_204622" data-name="Trazado 204622" d="M636.039-899.356a3.131,3.131,0,0,1,3.11-3.107,3.146,3.146,0,0,1,3.141,3.125,3.15,3.15,0,0,1-3.1,3.127A3.127,3.127,0,0,1,636.039-899.356Zm1.25,0a1.873,1.873,0,0,0,1.871,1.9,1.891,1.891,0,0,0,1.879-1.855,1.887,1.887,0,0,0-1.877-1.9A1.872,1.872,0,0,0,637.289-899.358Z" transform="translate(-609.776 908.721)" fill="#fff"/>
      </g>
    </g>
  </g>
</svg>
