<svg xmlns="http://www.w3.org/2000/svg" width="292" height="82" viewBox="0 0 292 82">
  <g id="Grupo_974109" data-name="Grupo 974109" transform="translate(-848 -2541.278)">
    <path id="Trazado_704862" data-name="Trazado 704862" d="M10,0H282a10,10,0,0,1,10,10V72a10,10,0,0,1-10,10H10A10,10,0,0,1,0,72V10A10,10,0,0,1,10,0Z" transform="translate(848 2541.278)" fill="#0b428a"/>
    <path id="Trazado_704861" data-name="Trazado 704861" d="M66.488,19H63.666V8.121L60.3,9.166V6.871l5.889-2.109h.3Zm7.49-8.359h1.5a2.119,2.119,0,0,0,1.592-.537,1.968,1.968,0,0,0,.518-1.426,1.74,1.74,0,0,0-.513-1.338,1.987,1.987,0,0,0-1.411-.479,2.083,2.083,0,0,0-1.357.444,1.421,1.421,0,0,0-.547,1.157H70.941a3.471,3.471,0,0,1,.6-2,4,4,0,0,1,1.68-1.382,5.606,5.606,0,0,1,2.378-.5,5.316,5.316,0,0,1,3.535,1.079,3.682,3.682,0,0,1,1.279,2.974,2.992,2.992,0,0,1-.6,1.8,3.87,3.87,0,0,1-1.562,1.26,3.533,3.533,0,0,1,1.792,1.289,3.5,3.5,0,0,1,.591,2.031,3.743,3.743,0,0,1-1.382,3.037A5.556,5.556,0,0,1,75.6,19.2a5.268,5.268,0,0,1-3.481-1.123A3.668,3.668,0,0,1,70.766,15.1h2.822a1.635,1.635,0,0,0,.6,1.309,2.505,2.505,0,0,0,3.057-.024,1.837,1.837,0,0,0,.571-1.411q0-2.129-2.344-2.129H73.979Zm16.455,0h1.5a2.119,2.119,0,0,0,1.592-.537,1.968,1.968,0,0,0,.518-1.426,1.74,1.74,0,0,0-.513-1.338,1.987,1.987,0,0,0-1.411-.479,2.083,2.083,0,0,0-1.357.444,1.421,1.421,0,0,0-.547,1.157H87.4a3.471,3.471,0,0,1,.6-2,4,4,0,0,1,1.68-1.382,5.606,5.606,0,0,1,2.378-.5A5.316,5.316,0,0,1,95.59,5.665a3.682,3.682,0,0,1,1.279,2.974,2.992,2.992,0,0,1-.6,1.8,3.87,3.87,0,0,1-1.562,1.26A3.533,3.533,0,0,1,96.5,12.984a3.5,3.5,0,0,1,.591,2.031,3.743,3.743,0,0,1-1.382,3.037A5.556,5.556,0,0,1,92.055,19.2a5.268,5.268,0,0,1-3.481-1.123A3.668,3.668,0,0,1,87.221,15.1h2.822a1.635,1.635,0,0,0,.6,1.309,2.505,2.505,0,0,0,3.057-.024,1.837,1.837,0,0,0,.571-1.411q0-2.129-2.344-2.129H90.434Zm16.26-6.006V6.959h-.273a4.8,4.8,0,0,0-3.081,1,4.047,4.047,0,0,0-1.4,2.686A3.844,3.844,0,0,1,104.8,9.488a3.622,3.622,0,0,1,2.949,1.328,5.324,5.324,0,0,1,1.094,3.5,5.237,5.237,0,0,1-.6,2.51,4.307,4.307,0,0,1-1.7,1.748,4.937,4.937,0,0,1-2.485.625,4.611,4.611,0,0,1-3.628-1.562,6.065,6.065,0,0,1-1.382-4.17V12.447a9.128,9.128,0,0,1,.874-4.087,6.409,6.409,0,0,1,2.51-2.744,7.354,7.354,0,0,1,3.794-.981Zm-2.754,7.129a2.255,2.255,0,0,0-1.24.356,2.143,2.143,0,0,0-.82.941v.858a3.8,3.8,0,0,0,.557,2.208A1.8,1.8,0,0,0,104,16.92a1.779,1.779,0,0,0,1.47-.716,2.922,2.922,0,0,0,.562-1.857,2.916,2.916,0,0,0-.566-1.871A1.846,1.846,0,0,0,103.939,11.764Zm18.154,1.553a3.564,3.564,0,0,1-2.578,1.084,3.811,3.811,0,0,1-3.018-1.294,5.114,5.114,0,0,1-1.133-3.491,5.447,5.447,0,0,1,.61-2.563,4.477,4.477,0,0,1,1.7-1.816,4.728,4.728,0,0,1,2.461-.649,4.522,4.522,0,0,1,2.5.7,4.623,4.623,0,0,1,1.7,2.021,7.258,7.258,0,0,1,.615,3.018v1.045a8.224,8.224,0,0,1-1.768,5.586,6.683,6.683,0,0,1-5.01,2.168l-.693.01V16.783l.625-.01Q121.791,16.607,122.094,13.316Zm-1.885-1.074a1.974,1.974,0,0,0,1.177-.352,2.349,2.349,0,0,0,.747-.85V9.879a3.881,3.881,0,0,0-.547-2.227,1.7,1.7,0,0,0-1.465-.791,1.648,1.648,0,0,0-1.4.776,3.3,3.3,0,0,0-.547,1.948,3.212,3.212,0,0,0,.532,1.909A1.734,1.734,0,0,0,120.209,12.242Zm16.025-3.682a3.307,3.307,0,0,1-.518,1.836,3.725,3.725,0,0,1-1.426,1.279,4.123,4.123,0,0,1,1.641,1.372,3.52,3.52,0,0,1,.605,2.056,3.727,3.727,0,0,1-1.289,2.993,6.147,6.147,0,0,1-7.021,0,3.718,3.718,0,0,1-1.3-2.988,3.542,3.542,0,0,1,.605-2.061,4.049,4.049,0,0,1,1.631-1.367,3.687,3.687,0,0,1-1.421-1.279,3.331,3.331,0,0,1-.513-1.836,3.685,3.685,0,0,1,1.211-2.9,5.571,5.571,0,0,1,6.577-.01A3.671,3.671,0,0,1,136.234,8.561ZM133.705,14.9a2.047,2.047,0,0,0-.537-1.484,2.149,2.149,0,0,0-2.881,0,2.044,2.044,0,0,0-.537,1.489,2.042,2.042,0,0,0,.527,1.465,2.2,2.2,0,0,0,2.905.02A2.039,2.039,0,0,0,133.705,14.9Zm-.293-6.2a1.953,1.953,0,0,0-.439-1.333A1.788,1.788,0,0,0,130.5,7.35a1.942,1.942,0,0,0-.439,1.348,2.041,2.041,0,0,0,.439,1.367,1.739,1.739,0,0,0,2.476,0A2.056,2.056,0,0,0,133.412,8.7ZM153.09,6.357,147.592,19h-2.979l5.508-11.943h-7.07V4.781H153.09Zm11.475,0L159.066,19h-2.979L161.6,7.057h-7.07V4.781h10.039ZM179.7,13.648h1.611v2.275H179.7V19h-2.822V15.924h-5.83l-.127-1.777,5.928-9.365H179.7Zm-5.967,0h3.145V8.629l-.186.322ZM192.572,19h-9.746V17.066l4.6-4.9a11.347,11.347,0,0,0,1.4-1.807,2.9,2.9,0,0,0,.454-1.465A2.172,2.172,0,0,0,188.8,7.4a1.727,1.727,0,0,0-1.367-.542,1.863,1.863,0,0,0-1.509.659,2.611,2.611,0,0,0-.552,1.733h-2.832a4.661,4.661,0,0,1,.62-2.373A4.371,4.371,0,0,1,184.916,5.2a5.328,5.328,0,0,1,2.568-.61A5.045,5.045,0,0,1,190.9,5.641a3.731,3.731,0,0,1,1.216,2.979,4.781,4.781,0,0,1-.547,2.148,11.939,11.939,0,0,1-1.875,2.549l-3.232,3.408h6.113ZM28.876,36.008l.82-7.227h7.969v2.354H32.011l-.352,3.057a4.474,4.474,0,0,1,2.139-.537,4.1,4.1,0,0,1,3.184,1.26,5.032,5.032,0,0,1,1.152,3.525,5.155,5.155,0,0,1-.581,2.466,4.1,4.1,0,0,1-1.665,1.689,5.2,5.2,0,0,1-2.559.6,5.52,5.52,0,0,1-2.393-.522,4.244,4.244,0,0,1-1.743-1.47,4.006,4.006,0,0,1-.679-2.158h2.793a2.086,2.086,0,0,0,.62,1.382,1.966,1.966,0,0,0,1.392.493,1.735,1.735,0,0,0,1.475-.688,3.189,3.189,0,0,0,.518-1.948,2.637,2.637,0,0,0-.6-1.855,2.186,2.186,0,0,0-1.689-.645,2.443,2.443,0,0,0-1.631.527l-.273.254ZM49.5,37.121a7.2,7.2,0,0,1-1.221,4.512A4.261,4.261,0,0,1,44.706,43.2a4.291,4.291,0,0,1-3.555-1.533,6.992,6.992,0,0,1-1.26-4.395V34.65a7.109,7.109,0,0,1,1.235-4.521,4.293,4.293,0,0,1,3.56-1.543,4.3,4.3,0,0,1,3.555,1.528A6.971,6.971,0,0,1,49.5,34.5Zm-2.822-2.878a5.207,5.207,0,0,0-.483-2.576,1.634,1.634,0,0,0-1.509-.806,1.6,1.6,0,0,0-1.47.767,4.873,4.873,0,0,0-.5,2.4v3.46a5.466,5.466,0,0,0,.474,2.586,1.612,1.612,0,0,0,1.519.846,1.585,1.585,0,0,0,1.494-.811,5.335,5.335,0,0,0,.479-2.483ZM58.261,43H55.438V32.121l-3.369,1.045V30.871l5.889-2.109h.3Zm11.475,0H66.913V32.121l-3.369,1.045V30.871l5.889-2.109h.3Zm14.189-5.879A7.2,7.2,0,0,1,82.7,41.633a4.878,4.878,0,0,1-7.129.029,6.992,6.992,0,0,1-1.26-4.395V34.65a7.109,7.109,0,0,1,1.235-4.521,4.888,4.888,0,0,1,7.114-.015,6.971,6.971,0,0,1,1.26,4.39ZM81.1,34.244a5.207,5.207,0,0,0-.483-2.576,1.634,1.634,0,0,0-1.509-.806,1.6,1.6,0,0,0-1.47.767,4.873,4.873,0,0,0-.5,2.4v3.46a5.466,5.466,0,0,0,.474,2.586,1.612,1.612,0,0,0,1.519.846,1.585,1.585,0,0,0,1.494-.811,5.335,5.335,0,0,0,.479-2.483ZM100.556,43H90.81V41.066l4.6-4.9a11.347,11.347,0,0,0,1.4-1.807,2.9,2.9,0,0,0,.454-1.465,2.172,2.172,0,0,0-.479-1.489,1.727,1.727,0,0,0-1.367-.542,1.863,1.863,0,0,0-1.509.659,2.611,2.611,0,0,0-.552,1.733H90.526a4.661,4.661,0,0,1,.62-2.373A4.371,4.371,0,0,1,92.9,29.2a5.328,5.328,0,0,1,2.568-.61,5.045,5.045,0,0,1,3.413,1.055,3.731,3.731,0,0,1,1.216,2.979,4.781,4.781,0,0,1-.547,2.148,11.939,11.939,0,0,1-1.875,2.549l-3.232,3.408h6.113Zm11.475,0h-9.746V41.066l4.6-4.9a11.347,11.347,0,0,0,1.4-1.807,2.9,2.9,0,0,0,.454-1.465,2.172,2.172,0,0,0-.479-1.489,1.727,1.727,0,0,0-1.367-.542,1.863,1.863,0,0,0-1.509.659,2.611,2.611,0,0,0-.552,1.733H102a4.661,4.661,0,0,1,.62-2.373,4.371,4.371,0,0,1,1.753-1.685,5.328,5.328,0,0,1,2.568-.61,5.045,5.045,0,0,1,3.413,1.055,3.731,3.731,0,0,1,1.216,2.979,4.781,4.781,0,0,1-.547,2.148,11.939,11.939,0,0,1-1.875,2.549l-3.232,3.408h6.113Zm15.059-5.352H128.7v2.275h-1.611V43h-2.822V39.924h-5.83l-.127-1.777,5.928-9.365h2.852Zm-5.967,0h3.145v-5.02l-.186.322Zm15.693-.332a3.564,3.564,0,0,1-2.578,1.084,3.811,3.811,0,0,1-3.018-1.294,5.114,5.114,0,0,1-1.133-3.491,5.447,5.447,0,0,1,.61-2.563,4.477,4.477,0,0,1,1.7-1.816,4.728,4.728,0,0,1,2.461-.649,4.522,4.522,0,0,1,2.5.7,4.623,4.623,0,0,1,1.7,2.021,7.258,7.258,0,0,1,.615,3.018v1.045a8.224,8.224,0,0,1-1.768,5.586,6.683,6.683,0,0,1-5.01,2.168l-.693.01V40.783l.625-.01Q136.513,40.607,136.815,37.316Zm-1.885-1.074a1.974,1.974,0,0,0,1.177-.352,2.349,2.349,0,0,0,.747-.85V33.879a3.881,3.881,0,0,0-.547-2.227,1.7,1.7,0,0,0-1.465-.791,1.648,1.648,0,0,0-1.4.776,3.3,3.3,0,0,0-.547,1.948,3.212,3.212,0,0,0,.532,1.909A1.734,1.734,0,0,0,134.931,36.242Zm21.006-3.682a3.307,3.307,0,0,1-.518,1.836,3.725,3.725,0,0,1-1.426,1.279,4.123,4.123,0,0,1,1.641,1.372,3.52,3.52,0,0,1,.605,2.056A3.727,3.727,0,0,1,154.95,42.1a6.147,6.147,0,0,1-7.021,0,3.718,3.718,0,0,1-1.3-2.988,3.542,3.542,0,0,1,.605-2.061,4.049,4.049,0,0,1,1.631-1.367,3.687,3.687,0,0,1-1.421-1.279,3.331,3.331,0,0,1-.513-1.836,3.685,3.685,0,0,1,1.211-2.9,5.571,5.571,0,0,1,6.577-.01A3.671,3.671,0,0,1,155.937,32.561ZM153.407,38.9a2.047,2.047,0,0,0-.537-1.484,2.149,2.149,0,0,0-2.881,0,2.316,2.316,0,0,0-.01,2.954,2.2,2.2,0,0,0,2.905.02A2.039,2.039,0,0,0,153.407,38.9Zm-.293-6.2a1.953,1.953,0,0,0-.439-1.333,1.788,1.788,0,0,0-2.471-.015,1.942,1.942,0,0,0-.439,1.348,2.041,2.041,0,0,0,.439,1.367,1.739,1.739,0,0,0,2.476,0A2.056,2.056,0,0,0,153.114,32.7ZM165,43h-2.822V32.121l-3.369,1.045V30.871l5.889-2.109h.3Zm19.346,0H174.6V41.066l4.6-4.9a11.347,11.347,0,0,0,1.4-1.807,2.9,2.9,0,0,0,.454-1.465,2.172,2.172,0,0,0-.479-1.489,1.727,1.727,0,0,0-1.367-.542,1.863,1.863,0,0,0-1.509.659,2.611,2.611,0,0,0-.552,1.733h-2.832a4.661,4.661,0,0,1,.62-2.373,4.371,4.371,0,0,1,1.753-1.685,5.328,5.328,0,0,1,2.568-.61,5.045,5.045,0,0,1,3.413,1.055,3.731,3.731,0,0,1,1.216,2.979,4.781,4.781,0,0,1-.547,2.148,11.939,11.939,0,0,1-1.875,2.549l-3.232,3.408h6.113Zm9.385-14.365v2.324h-.273a4.8,4.8,0,0,0-3.081,1,4.047,4.047,0,0,0-1.4,2.686,3.844,3.844,0,0,1,2.861-1.152,3.622,3.622,0,0,1,2.949,1.328,5.324,5.324,0,0,1,1.094,3.5,5.237,5.237,0,0,1-.6,2.51,4.307,4.307,0,0,1-1.7,1.748,4.937,4.937,0,0,1-2.485.625,4.611,4.611,0,0,1-3.628-1.562,6.065,6.065,0,0,1-1.382-4.17V36.447a9.127,9.127,0,0,1,.874-4.087,6.409,6.409,0,0,1,2.51-2.744,7.354,7.354,0,0,1,3.794-.981Zm-2.754,7.129a2.255,2.255,0,0,0-1.24.356,2.143,2.143,0,0,0-.82.941v.858a3.8,3.8,0,0,0,.557,2.208,1.8,1.8,0,0,0,1.563.794,1.779,1.779,0,0,0,1.47-.716,3.363,3.363,0,0,0,0-3.728A1.846,1.846,0,0,0,190.976,35.764ZM205.4,34.641h1.5A2.119,2.119,0,0,0,208.5,34.1a1.968,1.968,0,0,0,.518-1.426,1.74,1.74,0,0,0-.513-1.338,1.987,1.987,0,0,0-1.411-.479,2.083,2.083,0,0,0-1.357.444,1.421,1.421,0,0,0-.547,1.157h-2.822a3.471,3.471,0,0,1,.6-2,4,4,0,0,1,1.68-1.382,5.606,5.606,0,0,1,2.378-.5,5.316,5.316,0,0,1,3.535,1.079,3.682,3.682,0,0,1,1.279,2.974,2.992,2.992,0,0,1-.6,1.8,3.87,3.87,0,0,1-1.562,1.26,3.533,3.533,0,0,1,1.792,1.289,3.5,3.5,0,0,1,.591,2.031,3.743,3.743,0,0,1-1.382,3.037,5.556,5.556,0,0,1-3.657,1.143,5.268,5.268,0,0,1-3.481-1.123,3.668,3.668,0,0,1-1.353-2.969h2.822a1.635,1.635,0,0,0,.6,1.309,2.505,2.505,0,0,0,3.057-.024,1.837,1.837,0,0,0,.571-1.411q0-2.129-2.344-2.129H205.4Zm17.871-2.08a3.307,3.307,0,0,1-.518,1.836,3.725,3.725,0,0,1-1.426,1.279,4.123,4.123,0,0,1,1.641,1.372,3.52,3.52,0,0,1,.605,2.056,3.727,3.727,0,0,1-1.289,2.993,6.147,6.147,0,0,1-7.021,0,3.718,3.718,0,0,1-1.3-2.988,3.542,3.542,0,0,1,.605-2.061,4.049,4.049,0,0,1,1.631-1.367,3.687,3.687,0,0,1-1.421-1.279,3.331,3.331,0,0,1-.513-1.836,3.685,3.685,0,0,1,1.211-2.9,5.571,5.571,0,0,1,6.577-.01A3.671,3.671,0,0,1,223.271,32.561ZM220.741,38.9a2.047,2.047,0,0,0-.537-1.484,2.149,2.149,0,0,0-2.881,0,2.316,2.316,0,0,0-.01,2.954,2.2,2.2,0,0,0,2.905.02A2.039,2.039,0,0,0,220.741,38.9Zm-.293-6.2a1.953,1.953,0,0,0-.439-1.333,1.788,1.788,0,0,0-2.471-.015A1.942,1.942,0,0,0,217.1,32.7a2.041,2.041,0,0,0,.439,1.367,1.739,1.739,0,0,0,2.476,0A2.056,2.056,0,0,0,220.448,32.7Z" transform="translate(868 2557.821)" fill="#fff"/>
  </g>
</svg>
