<svg xmlns="http://www.w3.org/2000/svg" width="715" height="81" viewBox="0 0 715 81">
  <g id="Grupo_974126" data-name="Grupo 974126" transform="translate(-639 -20134)">
    <rect id="Rectángulo_50171" data-name="Rectángulo 50171" width="715" height="81" rx="10" transform="translate(639 20134)" fill="#25ffff"/>
    <path id="Trazado_705243" data-name="Trazado 705243" d="M3.647,17H1.433V4.2H3.647Zm3.278,0V9.072H5.476V7.49h1.45V6.62A3.266,3.266,0,0,1,7.8,4.177a3.367,3.367,0,0,1,2.461-.861,4.936,4.936,0,0,1,1.2.158l-.053,1.67a4.207,4.207,0,0,0-.817-.07A1.371,1.371,0,0,0,9.062,6.646V7.49H11V9.072H9.062V17Zm50.66,0V4.2h4.386a5.354,5.354,0,0,1,3.3.87A3.065,3.065,0,0,1,66.41,7.666a2.763,2.763,0,0,1-.475,1.582,3.055,3.055,0,0,1-1.389,1.09,2.825,2.825,0,0,1,1.6,1.059,3.085,3.085,0,0,1,.567,1.868,3.407,3.407,0,0,1-1.156,2.769A5.025,5.025,0,0,1,62.253,17Zm2.224-5.774v4h2.47a2.39,2.39,0,0,0,1.635-.519,1.82,1.82,0,0,0,.589-1.441,1.826,1.826,0,0,0-2.039-2.039Zm0-1.635h2.18a2.521,2.521,0,0,0,1.622-.47A1.611,1.611,0,0,0,64.2,7.789a1.633,1.633,0,0,0-.541-1.371A2.73,2.73,0,0,0,61.972,6H59.81ZM71.007,17H68.871V7.49h2.136ZM68.739,5.021a1.133,1.133,0,0,1,.312-.817,1.179,1.179,0,0,1,.892-.325,1.193,1.193,0,0,1,.9.325,1.125,1.125,0,0,1,.316.817,1.1,1.1,0,0,1-.316.8,1.2,1.2,0,0,1-.9.321,1.188,1.188,0,0,1-.892-.321A1.107,1.107,0,0,1,68.739,5.021Zm6.574,2.47.062,1.1a3.419,3.419,0,0,1,2.769-1.274q2.971,0,3.023,3.4V17H79.031V10.839A1.958,1.958,0,0,0,78.64,9.5a1.645,1.645,0,0,0-1.279-.435,2.058,2.058,0,0,0-1.925,1.169V17H73.3V7.49ZM87.855,11.8A13.393,13.393,0,0,1,88.4,7.943,10.578,10.578,0,0,1,90,4.682a6.351,6.351,0,0,1,2.232-2.017l.422,1.248a6.524,6.524,0,0,0-2.008,2.87,12.852,12.852,0,0,0-.839,4.417l-.009.756a13.972,13.972,0,0,0,.751,4.75,7,7,0,0,0,2.1,3.177l-.422,1.187A6.362,6.362,0,0,1,90,19.043a10.577,10.577,0,0,1-1.6-3.261A13.921,13.921,0,0,1,87.855,11.8ZM100.564,7.49l.062,1.1a3.419,3.419,0,0,1,2.769-1.274q2.971,0,3.023,3.4V17h-2.136V10.839a1.958,1.958,0,0,0-.391-1.34,1.645,1.645,0,0,0-1.279-.435,2.058,2.058,0,0,0-1.925,1.169V17H98.552V7.49ZM111.431,23h-1.241V17l-1.83.624V16.581l2.912-1.071h.159Zm7.915-3.117-1.151-.686a6.21,6.21,0,0,0,.7-1.393,4.157,4.157,0,0,0,.2-1.208V14.935h1.925l-.009,1.538a4.287,4.287,0,0,1-.47,1.868A4.64,4.64,0,0,1,119.346,19.883ZM136.872,9.16h-1.4v5.15a1.169,1.169,0,0,0,.215.787,1,1,0,0,0,.769.242,3.622,3.622,0,0,0,.747-.088V16.9a4.715,4.715,0,0,1-1.406.2q-2.461,0-2.461-2.716V9.16h-2.918V17h-2.136V9.16h-1.5V7.49h10.09Zm10.345,2.777a13.224,13.224,0,0,1-.536,3.766,10.671,10.671,0,0,1-1.626,3.3,6.367,6.367,0,0,1-2.276,2.061l-.422-1.187a6.754,6.754,0,0,0,2.087-3.116,13.84,13.84,0,0,0,.769-4.786v-.2a14.044,14.044,0,0,0-.668-4.452,7.852,7.852,0,0,0-1.916-3.221l-.272-.246.422-1.2a6.3,6.3,0,0,1,2.18,1.934,10.491,10.491,0,0,1,1.617,3.107,12.941,12.941,0,0,1,.633,3.546ZM159.609,17a3.3,3.3,0,0,1-.246-.888,3.593,3.593,0,0,1-4.834.246,2.615,2.615,0,0,1-.905-2.021A2.7,2.7,0,0,1,154.753,12a5.473,5.473,0,0,1,3.23-.813h1.31v-.624a1.666,1.666,0,0,0-.413-1.182,1.638,1.638,0,0,0-1.257-.444,1.881,1.881,0,0,0-1.2.365,1.129,1.129,0,0,0-.466.927h-2.136a2.37,2.37,0,0,1,.519-1.463A3.455,3.455,0,0,1,155.755,7.7a4.955,4.955,0,0,1,1.991-.387,3.99,3.99,0,0,1,2.663.839,2.993,2.993,0,0,1,1.02,2.36V14.8a4.861,4.861,0,0,0,.36,2.048V17Zm-2.347-1.538a2.429,2.429,0,0,0,1.191-.308,2.055,2.055,0,0,0,.839-.826V12.535h-1.151a3.148,3.148,0,0,0-1.784.413,1.338,1.338,0,0,0-.6,1.169,1.248,1.248,0,0,0,.409.98A1.583,1.583,0,0,0,157.262,15.462Zm8.385-7.972.062,1.1a3.419,3.419,0,0,1,2.769-1.274q2.971,0,3.023,3.4V17h-2.136V10.839a1.958,1.958,0,0,0-.391-1.34,1.645,1.645,0,0,0-1.279-.435,2.058,2.058,0,0,0-1.925,1.169V17h-2.136V7.49Zm7.629,4.685a5.654,5.654,0,0,1,1.02-3.529,3.267,3.267,0,0,1,2.733-1.332,3.1,3.1,0,0,1,2.443,1.055V3.5h2.136V17h-1.934l-.105-.984a3.148,3.148,0,0,1-2.558,1.16,3.248,3.248,0,0,1-2.7-1.345A5.861,5.861,0,0,1,173.276,12.175Zm2.136.185a3.958,3.958,0,0,0,.558,2.263,1.811,1.811,0,0,0,1.586.813,2.017,2.017,0,0,0,1.916-1.169V10.206a1.986,1.986,0,0,0-1.9-1.143,1.824,1.824,0,0,0-1.6.822A4.408,4.408,0,0,0,175.412,12.359Zm17.517-3.533L195.618,4.2h2.566l-3.867,6.346L198.272,17h-2.593l-2.751-4.693L190.169,17h-2.584l3.964-6.451L187.673,4.2h2.566ZM204.193,23h-5.019v-.856l2.486-2.712a6.191,6.191,0,0,0,.766-1,1.624,1.624,0,0,0,.228-.807,1.227,1.227,0,0,0-.3-.861,1.04,1.04,0,0,0-.807-.328,1.2,1.2,0,0,0-.938.369,1.452,1.452,0,0,0-.333,1.01H199.03a2.442,2.442,0,0,1,.31-1.228,2.136,2.136,0,0,1,.887-.848,2.823,2.823,0,0,1,1.33-.3,2.525,2.525,0,0,1,1.715.546,1.9,1.9,0,0,1,.628,1.51,2.562,2.562,0,0,1-.315,1.171,6.661,6.661,0,0,1-1.033,1.392l-1.825,1.953h3.466Zm20.288-12.908a3.76,3.76,0,0,1-.835,2.527,2.626,2.626,0,0,1-2.083.98,2.9,2.9,0,0,1-1.2-.246,5.02,5.02,0,0,1-1.226-.848,5.5,5.5,0,0,0-.971-.747,1.4,1.4,0,0,0-.628-.145,1.091,1.091,0,0,0-.927.457,1.959,1.959,0,0,0-.338,1.2h-1.7a3.728,3.728,0,0,1,.8-2.465,2.6,2.6,0,0,1,2.1-.962,3.023,3.023,0,0,1,1.235.258,4.686,4.686,0,0,1,1.222.836,5.212,5.212,0,0,0,.932.726,1.393,1.393,0,0,0,.637.149,1.147,1.147,0,0,0,.958-.49,1.976,1.976,0,0,0,.369-1.224ZM235.775,17V4.2h4.386a5.354,5.354,0,0,1,3.3.87A3.065,3.065,0,0,1,244.6,7.666a2.763,2.763,0,0,1-.475,1.582,3.055,3.055,0,0,1-1.389,1.09,2.825,2.825,0,0,1,1.6,1.059,3.085,3.085,0,0,1,.567,1.868,3.407,3.407,0,0,1-1.156,2.769,5.025,5.025,0,0,1-3.309.967ZM238,11.226v4h2.47a2.39,2.39,0,0,0,1.635-.519,1.82,1.82,0,0,0,.589-1.441,1.826,1.826,0,0,0-2.039-2.039Zm0-1.635h2.18a2.521,2.521,0,0,0,1.622-.47,1.611,1.611,0,0,0,.584-1.332,1.633,1.633,0,0,0-.541-1.371A2.73,2.73,0,0,0,240.16,6H238ZM249.2,17H247.06V7.49H249.2ZM246.928,5.021a1.133,1.133,0,0,1,.312-.817,1.179,1.179,0,0,1,.892-.325,1.193,1.193,0,0,1,.9.325,1.125,1.125,0,0,1,.316.817,1.1,1.1,0,0,1-.316.8,1.2,1.2,0,0,1-.9.321,1.188,1.188,0,0,1-.892-.321A1.107,1.107,0,0,1,246.928,5.021ZM253.5,7.49l.062,1.1a3.419,3.419,0,0,1,2.769-1.274q2.971,0,3.023,3.4V17H257.22V10.839a1.958,1.958,0,0,0-.391-1.34,1.645,1.645,0,0,0-1.279-.435,2.058,2.058,0,0,0-1.925,1.169V17H251.49V7.49ZM266.044,11.8a13.393,13.393,0,0,1,.545-3.854,10.578,10.578,0,0,1,1.6-3.261,6.351,6.351,0,0,1,2.232-2.017l.422,1.248a6.524,6.524,0,0,0-2.008,2.87A12.852,12.852,0,0,0,268,11.2l-.009.756a13.972,13.972,0,0,0,.751,4.75,7,7,0,0,0,2.1,3.177l-.422,1.187a6.362,6.362,0,0,1-2.237-2.026,10.577,10.577,0,0,1-1.6-3.261A13.921,13.921,0,0,1,266.044,11.8ZM278.753,7.49l.062,1.1a3.419,3.419,0,0,1,2.769-1.274q2.971,0,3.023,3.4V17h-2.136V10.839a1.958,1.958,0,0,0-.391-1.34,1.645,1.645,0,0,0-1.279-.435,2.058,2.058,0,0,0-1.925,1.169V17h-2.136V7.49ZM291.266,23h-5.019v-.856l2.486-2.712a6.193,6.193,0,0,0,.766-1,1.624,1.624,0,0,0,.228-.807,1.227,1.227,0,0,0-.3-.861,1.04,1.04,0,0,0-.807-.328,1.2,1.2,0,0,0-.938.369,1.452,1.452,0,0,0-.333,1.01H286.1a2.441,2.441,0,0,1,.31-1.228,2.136,2.136,0,0,1,.887-.848,2.823,2.823,0,0,1,1.33-.3,2.525,2.525,0,0,1,1.715.546,1.9,1.9,0,0,1,.628,1.51,2.562,2.562,0,0,1-.315,1.171,6.662,6.662,0,0,1-1.033,1.392L287.8,22.005h3.466Zm1.787-3.117L291.9,19.2a6.21,6.21,0,0,0,.7-1.393,4.157,4.157,0,0,0,.2-1.208V14.935h1.925l-.009,1.538a4.287,4.287,0,0,1-.47,1.868A4.64,4.64,0,0,1,293.053,19.883ZM310.578,9.16h-1.4v5.15a1.169,1.169,0,0,0,.215.787,1,1,0,0,0,.769.242,3.622,3.622,0,0,0,.747-.088V16.9a4.715,4.715,0,0,1-1.406.2q-2.461,0-2.461-2.716V9.16h-2.918V17h-2.136V9.16h-1.5V7.49h10.09Zm10.345,2.777a13.224,13.224,0,0,1-.536,3.766,10.671,10.671,0,0,1-1.626,3.3,6.367,6.367,0,0,1-2.276,2.061l-.422-1.187a6.754,6.754,0,0,0,2.087-3.116,13.84,13.84,0,0,0,.769-4.786v-.2a14.044,14.044,0,0,0-.668-4.452,7.852,7.852,0,0,0-1.916-3.221l-.272-.246.422-1.2a6.3,6.3,0,0,1,2.18,1.934,10.491,10.491,0,0,1,1.617,3.107,12.941,12.941,0,0,1,.633,3.546Zm2.531,7.945L322.3,19.2A6.21,6.21,0,0,0,323,17.8a4.157,4.157,0,0,0,.2-1.208V14.935h1.925l-.009,1.538a4.287,4.287,0,0,1-.47,1.868A4.64,4.64,0,0,1,323.454,19.883Zm15.293-14.7V7.49h1.679V9.072h-1.679v5.309a1.169,1.169,0,0,0,.215.787,1,1,0,0,0,.769.242,3.29,3.29,0,0,0,.747-.088v1.652a5.26,5.26,0,0,1-1.406.2q-2.461,0-2.461-2.716V9.072h-1.564V7.49h1.564V5.179Zm5.414,3.349a3.343,3.343,0,0,1,2.646-1.213q3.041,0,3.085,3.472V17h-2.136V10.865a1.878,1.878,0,0,0-.426-1.393,1.743,1.743,0,0,0-1.252-.409,2.057,2.057,0,0,0-1.916,1.143V17h-2.136V3.5h2.136Zm12.076,8.648a4.419,4.419,0,0,1-3.292-1.279,4.639,4.639,0,0,1-1.261-3.406v-.264a5.706,5.706,0,0,1,.549-2.544,4.181,4.181,0,0,1,1.542-1.745,4.078,4.078,0,0,1,2.215-.624,3.733,3.733,0,0,1,3,1.239,5.24,5.24,0,0,1,1.059,3.507v.861h-6.214a2.856,2.856,0,0,0,.787,1.863,2.362,2.362,0,0,0,1.736.686,2.892,2.892,0,0,0,2.391-1.187l1.151,1.1a3.845,3.845,0,0,1-1.525,1.323A4.774,4.774,0,0,1,356.237,17.176Zm-.255-8.147a1.8,1.8,0,0,0-1.419.615,3.189,3.189,0,0,0-.69,1.714h4.069V11.2a2.6,2.6,0,0,0-.571-1.622A1.785,1.785,0,0,0,355.982,9.028ZM363.69,7.49l.062,1.1a3.419,3.419,0,0,1,2.769-1.274q2.971,0,3.023,3.4V17h-2.136V10.839a1.958,1.958,0,0,0-.391-1.34,1.645,1.645,0,0,0-1.279-.435,2.058,2.058,0,0,0-1.925,1.169V17h-2.136V7.49Zm17.121,1.336L383.5,4.2h2.566L382.2,10.549,386.155,17h-2.593l-2.751-4.693L378.052,17h-2.584l3.964-6.451L375.556,4.2h2.566ZM390.43,23H389.19V17l-1.83.624V16.581l2.912-1.071h.159ZM402.977,9.96h3.34v1.951h-3.34v3.806H400.9V11.911h-3.357V9.96H400.9V6.4h2.074Zm14.186-1.134L419.852,4.2h2.566l-3.867,6.346L422.506,17h-2.593l-2.751-4.693L414.4,17h-2.584l3.964-6.451L411.907,4.2h2.566ZM428.427,23h-5.019v-.856l2.486-2.712a6.193,6.193,0,0,0,.766-1,1.624,1.624,0,0,0,.228-.807,1.227,1.227,0,0,0-.3-.861,1.04,1.04,0,0,0-.807-.328,1.2,1.2,0,0,0-.938.369,1.452,1.452,0,0,0-.333,1.01h-1.246a2.441,2.441,0,0,1,.31-1.228,2.136,2.136,0,0,1,.887-.848,2.823,2.823,0,0,1,1.33-.3,2.525,2.525,0,0,1,1.715.546,1.9,1.9,0,0,1,.628,1.51,2.562,2.562,0,0,1-.315,1.171,6.662,6.662,0,0,1-1.033,1.392l-1.825,1.953h3.466Zm20.288-12.908a3.76,3.76,0,0,1-.835,2.527,2.626,2.626,0,0,1-2.083.98,2.9,2.9,0,0,1-1.2-.246,5.02,5.02,0,0,1-1.226-.848,5.5,5.5,0,0,0-.971-.747,1.4,1.4,0,0,0-.628-.145,1.091,1.091,0,0,0-.927.457,1.959,1.959,0,0,0-.338,1.2h-1.7a3.728,3.728,0,0,1,.8-2.465,2.6,2.6,0,0,1,2.1-.962,3.023,3.023,0,0,1,1.235.258,4.686,4.686,0,0,1,1.222.836,5.212,5.212,0,0,0,.932.726,1.393,1.393,0,0,0,.637.149,1.147,1.147,0,0,0,.958-.49,1.976,1.976,0,0,0,.369-1.224ZM464.491,17V4.2h4.386a5.354,5.354,0,0,1,3.3.87,3.065,3.065,0,0,1,1.134,2.593,2.763,2.763,0,0,1-.475,1.582,3.055,3.055,0,0,1-1.389,1.09,2.825,2.825,0,0,1,1.6,1.059,3.085,3.085,0,0,1,.567,1.868,3.407,3.407,0,0,1-1.156,2.769,5.025,5.025,0,0,1-3.309.967Zm2.224-5.774v4h2.47a2.39,2.39,0,0,0,1.635-.519,1.82,1.82,0,0,0,.589-1.441,1.826,1.826,0,0,0-2.039-2.039Zm0-1.635h2.18a2.521,2.521,0,0,0,1.622-.47,1.611,1.611,0,0,0,.584-1.332,1.633,1.633,0,0,0-.541-1.371A2.73,2.73,0,0,0,468.877,6h-2.162ZM477.912,17h-2.136V7.49h2.136ZM475.645,5.021a1.133,1.133,0,0,1,.312-.817,1.179,1.179,0,0,1,.892-.325,1.193,1.193,0,0,1,.9.325,1.125,1.125,0,0,1,.316.817,1.1,1.1,0,0,1-.316.8,1.2,1.2,0,0,1-.9.321,1.188,1.188,0,0,1-.892-.321A1.107,1.107,0,0,1,475.645,5.021Zm6.574,2.47.062,1.1a3.419,3.419,0,0,1,2.769-1.274q2.971,0,3.023,3.4V17h-2.136V10.839a1.958,1.958,0,0,0-.391-1.34,1.645,1.645,0,0,0-1.279-.435,2.058,2.058,0,0,0-1.925,1.169V17h-2.136V7.49ZM494.761,11.8a13.393,13.393,0,0,1,.545-3.854,10.578,10.578,0,0,1,1.6-3.261,6.351,6.351,0,0,1,2.232-2.017l.422,1.248a6.524,6.524,0,0,0-2.008,2.87,12.852,12.852,0,0,0-.839,4.417l-.009.756a13.972,13.972,0,0,0,.751,4.75,7,7,0,0,0,2.1,3.177l-.422,1.187a6.362,6.362,0,0,1-2.237-2.026,10.577,10.577,0,0,1-1.6-3.261A13.921,13.921,0,0,1,494.761,11.8ZM507.47,7.49l.062,1.1A3.419,3.419,0,0,1,510.3,7.314q2.971,0,3.023,3.4V17h-2.136V10.839A1.958,1.958,0,0,0,510.8,9.5a1.645,1.645,0,0,0-1.279-.435,2.058,2.058,0,0,0-1.925,1.169V17h-2.136V7.49ZM518.337,23H517.1V17l-1.83.624V16.581l2.912-1.071h.159ZM529.016,9.96h3.34v1.951h-3.34v3.806h-2.074V11.911h-3.357V9.96h3.357V6.4h2.074Zm15.39,4.79a1.22,1.22,0,0,1,.923.338,1.175,1.175,0,0,1,.325.848,1.134,1.134,0,0,1-.325.831,1.44,1.44,0,0,1-1.828,0,1.115,1.115,0,0,1-.334-.835,1.175,1.175,0,0,1,.325-.848A1.208,1.208,0,0,1,544.406,14.75Zm4,5.133-1.151-.686a6.21,6.21,0,0,0,.7-1.393,4.157,4.157,0,0,0,.2-1.208V14.935h1.925l-.009,1.538a4.287,4.287,0,0,1-.47,1.868A4.64,4.64,0,0,1,548.4,19.883ZM565.93,9.16h-1.4v5.15a1.169,1.169,0,0,0,.215.787,1,1,0,0,0,.769.242,3.622,3.622,0,0,0,.747-.088V16.9a4.715,4.715,0,0,1-1.406.2q-2.461,0-2.461-2.716V9.16h-2.918V17h-2.136V9.16h-1.5V7.49h10.09Zm10.345,2.777a13.224,13.224,0,0,1-.536,3.766,10.671,10.671,0,0,1-1.626,3.3,6.367,6.367,0,0,1-2.276,2.061l-.422-1.187a6.754,6.754,0,0,0,2.087-3.116,13.84,13.84,0,0,0,.769-4.786v-.2a14.044,14.044,0,0,0-.668-4.452,7.852,7.852,0,0,0-1.916-3.221l-.272-.246.422-1.2a6.3,6.3,0,0,1,2.18,1.934,10.491,10.491,0,0,1,1.617,3.107,12.941,12.941,0,0,1,.633,3.546Z" transform="translate(692 20158)" fill="#12263f"/>
  </g>
</svg>
