<svg xmlns="http://www.w3.org/2000/svg" width="820" height="417" viewBox="0 0 820 417">
  <g id="Grupo_166694" data-name="Grupo 166694" transform="translate(-390 -9333)">
    <g id="Trazado_705216" data-name="Trazado 705216" transform="translate(526 9333)" fill="none">
      <path d="M0,0H569V331H0Z" stroke="none"/>
      <path d="M 2 2 L 2 329 L 567 329 L 567 2 L 2 2 M 0 0 L 569 0 L 569 331 L 0 331 L 0 0 Z" stroke="none" fill="#000"/>
    </g>
    <path id="Trazado_705217" data-name="Trazado 705217" d="M6.963,0H.628V-1.257l2.99-3.187a7.376,7.376,0,0,0,.911-1.174,1.887,1.887,0,0,0,.3-.952,1.412,1.412,0,0,0-.311-.968,1.123,1.123,0,0,0-.889-.352,1.211,1.211,0,0,0-.981.428,1.7,1.7,0,0,0-.359,1.127H.444a3.03,3.03,0,0,1,.4-1.542A2.841,2.841,0,0,1,1.987-8.972a3.463,3.463,0,0,1,1.669-.4,3.279,3.279,0,0,1,2.219.686,2.425,2.425,0,0,1,.79,1.936,3.108,3.108,0,0,1-.355,1.4A7.76,7.76,0,0,1,5.091-3.694L2.99-1.479H6.963Zm7.344-3.821a4.682,4.682,0,0,1-.793,2.933A2.77,2.77,0,0,1,11.191.127a2.789,2.789,0,0,1-2.311-1,4.545,4.545,0,0,1-.819-2.856v-1.7a4.621,4.621,0,0,1,.8-2.939,2.79,2.79,0,0,1,2.314-1,2.793,2.793,0,0,1,2.311.993,4.531,4.531,0,0,1,.819,2.853Zm-1.834-1.87a3.384,3.384,0,0,0-.314-1.674,1.062,1.062,0,0,0-.981-.524,1.043,1.043,0,0,0-.955.5A3.167,3.167,0,0,0,9.9-5.832v2.249A3.553,3.553,0,0,0,10.2-1.9a1.048,1.048,0,0,0,.987.55,1.03,1.03,0,0,0,.971-.527,3.468,3.468,0,0,0,.311-1.614Zm9.293,1.87a4.682,4.682,0,0,1-.793,2.933A2.77,2.77,0,0,1,18.649.127a2.789,2.789,0,0,1-2.311-1,4.545,4.545,0,0,1-.819-2.856v-1.7a4.621,4.621,0,0,1,.8-2.939,2.79,2.79,0,0,1,2.314-1,2.793,2.793,0,0,1,2.311.993,4.531,4.531,0,0,1,.819,2.853Zm-1.834-1.87a3.384,3.384,0,0,0-.314-1.674,1.062,1.062,0,0,0-.981-.524,1.043,1.043,0,0,0-.955.5,3.167,3.167,0,0,0-.327,1.56v2.249A3.553,3.553,0,0,0,17.662-1.9a1.048,1.048,0,0,0,.987.55,1.03,1.03,0,0,0,.971-.527,3.468,3.468,0,0,0,.311-1.614Z" transform="translate(475 9626)" fill="#2e0877"/>
    <path id="Trazado_705218" data-name="Trazado 705218" d="M6.963,0H.628V-1.257l2.99-3.187a7.376,7.376,0,0,0,.911-1.174,1.887,1.887,0,0,0,.3-.952,1.412,1.412,0,0,0-.311-.968,1.123,1.123,0,0,0-.889-.352,1.211,1.211,0,0,0-.981.428,1.7,1.7,0,0,0-.359,1.127H.444a3.03,3.03,0,0,1,.4-1.542A2.841,2.841,0,0,1,1.987-8.972a3.463,3.463,0,0,1,1.669-.4,3.279,3.279,0,0,1,2.219.686,2.425,2.425,0,0,1,.79,1.936,3.108,3.108,0,0,1-.355,1.4A7.76,7.76,0,0,1,5.091-3.694L2.99-1.479H6.963Zm1.4-4.545.533-4.7h5.18v1.53H10.4l-.229,1.987a2.908,2.908,0,0,1,1.39-.349,2.664,2.664,0,0,1,2.069.819,3.271,3.271,0,0,1,.749,2.292A3.351,3.351,0,0,1,14-1.362a2.666,2.666,0,0,1-1.082,1.1,3.379,3.379,0,0,1-1.663.39A3.588,3.588,0,0,1,9.7-.213a2.758,2.758,0,0,1-1.133-.955,2.6,2.6,0,0,1-.441-1.4H9.94a1.356,1.356,0,0,0,.4.9,1.278,1.278,0,0,0,.9.321,1.128,1.128,0,0,0,.958-.448,2.073,2.073,0,0,0,.336-1.266,1.714,1.714,0,0,0-.387-1.206,1.421,1.421,0,0,0-1.1-.419A1.588,1.588,0,0,0,10-4.348l-.178.165Zm13.406.724a4.682,4.682,0,0,1-.793,2.933A2.77,2.77,0,0,1,18.649.127a2.789,2.789,0,0,1-2.311-1,4.545,4.545,0,0,1-.819-2.856v-1.7a4.621,4.621,0,0,1,.8-2.939,2.79,2.79,0,0,1,2.314-1,2.793,2.793,0,0,1,2.311.993,4.531,4.531,0,0,1,.819,2.853Zm-1.834-1.87a3.384,3.384,0,0,0-.314-1.674,1.062,1.062,0,0,0-.981-.524,1.043,1.043,0,0,0-.955.5,3.167,3.167,0,0,0-.327,1.56v2.249A3.553,3.553,0,0,0,17.662-1.9a1.048,1.048,0,0,0,.987.55,1.03,1.03,0,0,0,.971-.527,3.468,3.468,0,0,0,.311-1.614Z" transform="translate(475 9578)" fill="#2e0877"/>
    <path id="Trazado_705219" data-name="Trazado 705219" d="M2.495-5.434h.978a1.377,1.377,0,0,0,1.035-.349,1.279,1.279,0,0,0,.336-.927,1.131,1.131,0,0,0-.333-.87,1.292,1.292,0,0,0-.917-.311A1.354,1.354,0,0,0,2.71-7.6a.923.923,0,0,0-.355.752H.521a2.256,2.256,0,0,1,.39-1.3A2.6,2.6,0,0,1,2-9.045a3.644,3.644,0,0,1,1.546-.324,3.456,3.456,0,0,1,2.3.7,2.393,2.393,0,0,1,.832,1.933,1.945,1.945,0,0,1-.387,1.168,2.516,2.516,0,0,1-1.016.819A2.3,2.3,0,0,1,6.44-3.91a2.273,2.273,0,0,1,.384,1.32,2.433,2.433,0,0,1-.9,1.974A3.611,3.611,0,0,1,3.548.127,3.424,3.424,0,0,1,1.285-.6a2.384,2.384,0,0,1-.879-1.93H2.241a1.063,1.063,0,0,0,.39.851,1.439,1.439,0,0,0,.962.33A1.445,1.445,0,0,0,4.618-1.7a1.194,1.194,0,0,0,.371-.917Q4.989-4,3.466-4H2.495ZM14.308-3.821a4.682,4.682,0,0,1-.793,2.933A2.77,2.77,0,0,1,11.191.127a2.789,2.789,0,0,1-2.311-1,4.545,4.545,0,0,1-.819-2.856v-1.7a4.621,4.621,0,0,1,.8-2.939,2.79,2.79,0,0,1,2.314-1,2.793,2.793,0,0,1,2.311.993,4.531,4.531,0,0,1,.819,2.853Zm-1.834-1.87a3.384,3.384,0,0,0-.314-1.674,1.062,1.062,0,0,0-.981-.524,1.043,1.043,0,0,0-.955.5A3.167,3.167,0,0,0,9.9-5.832v2.249A3.553,3.553,0,0,0,10.2-1.9a1.048,1.048,0,0,0,.987.55,1.03,1.03,0,0,0,.971-.527,3.468,3.468,0,0,0,.311-1.614Zm9.293,1.87a4.682,4.682,0,0,1-.793,2.933A2.77,2.77,0,0,1,18.649.127a2.789,2.789,0,0,1-2.311-1,4.545,4.545,0,0,1-.819-2.856v-1.7a4.621,4.621,0,0,1,.8-2.939,2.79,2.79,0,0,1,2.314-1,2.793,2.793,0,0,1,2.311.993,4.531,4.531,0,0,1,.819,2.853Zm-1.834-1.87a3.384,3.384,0,0,0-.314-1.674,1.062,1.062,0,0,0-.981-.524,1.043,1.043,0,0,0-.955.5,3.167,3.167,0,0,0-.327,1.56v2.249A3.553,3.553,0,0,0,17.662-1.9a1.048,1.048,0,0,0,.987.55,1.03,1.03,0,0,0,.971-.527,3.468,3.468,0,0,0,.311-1.614Z" transform="translate(475 9531)" fill="#2e0877"/>
    <path id="Trazado_705220" data-name="Trazado 705220" d="M2.495-5.434h.978a1.377,1.377,0,0,0,1.035-.349,1.279,1.279,0,0,0,.336-.927,1.131,1.131,0,0,0-.333-.87,1.292,1.292,0,0,0-.917-.311A1.354,1.354,0,0,0,2.71-7.6a.923.923,0,0,0-.355.752H.521a2.256,2.256,0,0,1,.39-1.3A2.6,2.6,0,0,1,2-9.045a3.644,3.644,0,0,1,1.546-.324,3.456,3.456,0,0,1,2.3.7,2.393,2.393,0,0,1,.832,1.933,1.945,1.945,0,0,1-.387,1.168,2.516,2.516,0,0,1-1.016.819A2.3,2.3,0,0,1,6.44-3.91a2.273,2.273,0,0,1,.384,1.32,2.433,2.433,0,0,1-.9,1.974A3.611,3.611,0,0,1,3.548.127,3.424,3.424,0,0,1,1.285-.6a2.384,2.384,0,0,1-.879-1.93H2.241a1.063,1.063,0,0,0,.39.851,1.439,1.439,0,0,0,.962.33A1.445,1.445,0,0,0,4.618-1.7a1.194,1.194,0,0,0,.371-.917Q4.989-4,3.466-4H2.495Zm5.865.889.533-4.7h5.18v1.53H10.4l-.229,1.987a2.908,2.908,0,0,1,1.39-.349,2.664,2.664,0,0,1,2.069.819,3.271,3.271,0,0,1,.749,2.292A3.351,3.351,0,0,1,14-1.362a2.666,2.666,0,0,1-1.082,1.1,3.379,3.379,0,0,1-1.663.39A3.588,3.588,0,0,1,9.7-.213a2.758,2.758,0,0,1-1.133-.955,2.6,2.6,0,0,1-.441-1.4H9.94a1.356,1.356,0,0,0,.4.9,1.278,1.278,0,0,0,.9.321,1.128,1.128,0,0,0,.958-.448,2.073,2.073,0,0,0,.336-1.266,1.714,1.714,0,0,0-.387-1.206,1.421,1.421,0,0,0-1.1-.419A1.588,1.588,0,0,0,10-4.348l-.178.165Zm13.406.724a4.682,4.682,0,0,1-.793,2.933A2.77,2.77,0,0,1,18.649.127a2.789,2.789,0,0,1-2.311-1,4.545,4.545,0,0,1-.819-2.856v-1.7a4.621,4.621,0,0,1,.8-2.939,2.79,2.79,0,0,1,2.314-1,2.793,2.793,0,0,1,2.311.993,4.531,4.531,0,0,1,.819,2.853Zm-1.834-1.87a3.384,3.384,0,0,0-.314-1.674,1.062,1.062,0,0,0-.981-.524,1.043,1.043,0,0,0-.955.5,3.167,3.167,0,0,0-.327,1.56v2.249A3.553,3.553,0,0,0,17.662-1.9a1.048,1.048,0,0,0,.987.55,1.03,1.03,0,0,0,.971-.527,3.468,3.468,0,0,0,.311-1.614Z" transform="translate(475 9483)" fill="#2e0877"/>
    <path id="Trazado_705221" data-name="Trazado 705221" d="M6.056-3.479H7.1V-2H6.056V0H4.221V-2H.432L.349-3.155,4.2-9.242H6.056Zm-3.878,0H4.221V-6.741L4.1-6.532Zm12.13-.343a4.682,4.682,0,0,1-.793,2.933A2.77,2.77,0,0,1,11.191.127a2.789,2.789,0,0,1-2.311-1,4.545,4.545,0,0,1-.819-2.856v-1.7a4.621,4.621,0,0,1,.8-2.939,2.79,2.79,0,0,1,2.314-1,2.793,2.793,0,0,1,2.311.993,4.531,4.531,0,0,1,.819,2.853Zm-1.834-1.87a3.384,3.384,0,0,0-.314-1.674,1.062,1.062,0,0,0-.981-.524,1.043,1.043,0,0,0-.955.5A3.167,3.167,0,0,0,9.9-5.832v2.249A3.553,3.553,0,0,0,10.2-1.9a1.048,1.048,0,0,0,.987.55,1.03,1.03,0,0,0,.971-.527,3.468,3.468,0,0,0,.311-1.614Zm9.293,1.87a4.682,4.682,0,0,1-.793,2.933A2.77,2.77,0,0,1,18.649.127a2.789,2.789,0,0,1-2.311-1,4.545,4.545,0,0,1-.819-2.856v-1.7a4.621,4.621,0,0,1,.8-2.939,2.79,2.79,0,0,1,2.314-1,2.793,2.793,0,0,1,2.311.993,4.531,4.531,0,0,1,.819,2.853Zm-1.834-1.87a3.384,3.384,0,0,0-.314-1.674,1.062,1.062,0,0,0-.981-.524,1.043,1.043,0,0,0-.955.5,3.167,3.167,0,0,0-.327,1.56v2.249A3.553,3.553,0,0,0,17.662-1.9a1.048,1.048,0,0,0,.987.55,1.03,1.03,0,0,0,.971-.527,3.468,3.468,0,0,0,.311-1.614Z" transform="translate(475 9440)" fill="#2e0877"/>
    <path id="Trazado_705222" data-name="Trazado 705222" d="M6.056-3.479H7.1V-2H6.056V0H4.221V-2H.432L.349-3.155,4.2-9.242H6.056Zm-3.878,0H4.221V-6.741L4.1-6.532ZM8.36-4.545l.533-4.7h5.18v1.53H10.4l-.229,1.987a2.908,2.908,0,0,1,1.39-.349,2.664,2.664,0,0,1,2.069.819,3.271,3.271,0,0,1,.749,2.292A3.351,3.351,0,0,1,14-1.362a2.666,2.666,0,0,1-1.082,1.1,3.379,3.379,0,0,1-1.663.39A3.588,3.588,0,0,1,9.7-.213a2.758,2.758,0,0,1-1.133-.955,2.6,2.6,0,0,1-.441-1.4H9.94a1.356,1.356,0,0,0,.4.9,1.278,1.278,0,0,0,.9.321,1.128,1.128,0,0,0,.958-.448,2.073,2.073,0,0,0,.336-1.266,1.714,1.714,0,0,0-.387-1.206,1.421,1.421,0,0,0-1.1-.419A1.588,1.588,0,0,0,10-4.348l-.178.165Zm13.406.724a4.682,4.682,0,0,1-.793,2.933A2.77,2.77,0,0,1,18.649.127a2.789,2.789,0,0,1-2.311-1,4.545,4.545,0,0,1-.819-2.856v-1.7a4.621,4.621,0,0,1,.8-2.939,2.79,2.79,0,0,1,2.314-1,2.793,2.793,0,0,1,2.311.993,4.531,4.531,0,0,1,.819,2.853Zm-1.834-1.87a3.384,3.384,0,0,0-.314-1.674,1.062,1.062,0,0,0-.981-.524,1.043,1.043,0,0,0-.955.5,3.167,3.167,0,0,0-.327,1.56v2.249A3.553,3.553,0,0,0,17.662-1.9a1.048,1.048,0,0,0,.987.55,1.03,1.03,0,0,0,.971-.527,3.468,3.468,0,0,0,.311-1.614Z" transform="translate(475 9394)" fill="#2e0877"/>
    <path id="Trazado_705223" data-name="Trazado 705223" d="M6.428,0H.58V-1.16L3.34-4.1a6.808,6.808,0,0,0,.841-1.084,1.742,1.742,0,0,0,.272-.879,1.3,1.3,0,0,0-.287-.894,1.036,1.036,0,0,0-.82-.325,1.118,1.118,0,0,0-.905.4,1.567,1.567,0,0,0-.331,1.04H.41A2.8,2.8,0,0,1,.782-7.271,2.622,2.622,0,0,1,1.834-8.282a3.2,3.2,0,0,1,1.541-.366,3.027,3.027,0,0,1,2.048.633,2.239,2.239,0,0,1,.729,1.787,2.868,2.868,0,0,1-.328,1.289A7.164,7.164,0,0,1,4.7-3.41L2.76-1.365H6.428Zm6.779-3.527A4.322,4.322,0,0,1,12.475-.82,2.557,2.557,0,0,1,10.33.117,2.574,2.574,0,0,1,8.2-.8a4.2,4.2,0,0,1-.756-2.637V-5.01a4.265,4.265,0,0,1,.741-2.713,2.576,2.576,0,0,1,2.136-.926,2.578,2.578,0,0,1,2.133.917A4.182,4.182,0,0,1,13.207-5.1ZM11.514-5.254a3.124,3.124,0,0,0-.29-1.546.98.98,0,0,0-.905-.484.963.963,0,0,0-.882.46,2.924,2.924,0,0,0-.3,1.44v2.076a3.279,3.279,0,0,0,.284,1.551.967.967,0,0,0,.911.507.951.951,0,0,0,.9-.487,3.2,3.2,0,0,0,.287-1.49Z" transform="translate(572 9708)" fill="#2e0877"/>
    <path id="Trazado_705224" data-name="Trazado 705224" d="M2.3-5.016h.9a1.271,1.271,0,0,0,.955-.322,1.181,1.181,0,0,0,.311-.855A1.044,1.044,0,0,0,4.163-7a1.192,1.192,0,0,0-.847-.287,1.25,1.25,0,0,0-.814.267.852.852,0,0,0-.328.694H.48a2.083,2.083,0,0,1,.36-1.2A2.4,2.4,0,0,1,1.849-8.35a3.364,3.364,0,0,1,1.427-.3A3.19,3.19,0,0,1,5.4-8a2.209,2.209,0,0,1,.768,1.784,1.8,1.8,0,0,1-.357,1.078,2.322,2.322,0,0,1-.937.756,2.12,2.12,0,0,1,1.075.773A2.1,2.1,0,0,1,6.3-2.391,2.246,2.246,0,0,1,5.47-.568,3.334,3.334,0,0,1,3.275.117,3.161,3.161,0,0,1,1.187-.557,2.2,2.2,0,0,1,.375-2.338H2.068a.981.981,0,0,0,.36.785,1.328,1.328,0,0,0,.888.3,1.334,1.334,0,0,0,.946-.319,1.1,1.1,0,0,0,.343-.847q0-1.277-1.406-1.277H2.3Zm10.9,1.488A4.322,4.322,0,0,1,12.475-.82,2.557,2.557,0,0,1,10.33.117,2.574,2.574,0,0,1,8.2-.8a4.2,4.2,0,0,1-.756-2.637V-5.01a4.265,4.265,0,0,1,.741-2.713,2.576,2.576,0,0,1,2.136-.926,2.578,2.578,0,0,1,2.133.917A4.182,4.182,0,0,1,13.207-5.1ZM11.514-5.254a3.124,3.124,0,0,0-.29-1.546.98.98,0,0,0-.905-.484.963.963,0,0,0-.882.46,2.924,2.924,0,0,0-.3,1.44v2.076a3.279,3.279,0,0,0,.284,1.551.967.967,0,0,0,.911.507.951.951,0,0,0,.9-.487,3.2,3.2,0,0,0,.287-1.49Z" transform="translate(699 9708)" fill="#2e0877"/>
    <path id="Trazado_705225" data-name="Trazado 705225" d="M5.59-3.211h.967v1.365H5.59V0H3.9V-1.846H.4L.322-2.912,3.879-8.531H5.59Zm-3.58,0H3.9V-6.223l-.111.193Zm11.2-.316A4.322,4.322,0,0,1,12.475-.82,2.557,2.557,0,0,1,10.33.117,2.574,2.574,0,0,1,8.2-.8a4.2,4.2,0,0,1-.756-2.637V-5.01a4.265,4.265,0,0,1,.741-2.713,2.576,2.576,0,0,1,2.136-.926,2.578,2.578,0,0,1,2.133.917A4.182,4.182,0,0,1,13.207-5.1ZM11.514-5.254a3.124,3.124,0,0,0-.29-1.546.98.98,0,0,0-.905-.484.963.963,0,0,0-.882.46,2.924,2.924,0,0,0-.3,1.44v2.076a3.279,3.279,0,0,0,.284,1.551.967.967,0,0,0,.911.507.951.951,0,0,0,.9-.487,3.2,3.2,0,0,0,.287-1.49Z" transform="translate(827 9708)" fill="#2e0877"/>
    <path id="Trazado_705226" data-name="Trazado 705226" d="M.832-4.2l.492-4.336H6.105v1.412H2.713L2.5-5.285a2.685,2.685,0,0,1,1.283-.322,2.459,2.459,0,0,1,1.91.756,3.019,3.019,0,0,1,.691,2.115,3.093,3.093,0,0,1-.349,1.479,2.461,2.461,0,0,1-1,1.014A3.119,3.119,0,0,1,3.5.117,3.312,3.312,0,0,1,2.068-.2a2.546,2.546,0,0,1-1.046-.882A2.4,2.4,0,0,1,.615-2.373H2.291a1.252,1.252,0,0,0,.372.829,1.18,1.18,0,0,0,.835.3,1.041,1.041,0,0,0,.885-.413A1.914,1.914,0,0,0,4.693-2.83a1.582,1.582,0,0,0-.357-1.113A1.312,1.312,0,0,0,3.322-4.33a1.466,1.466,0,0,0-.979.316l-.164.152Zm12.375.668A4.322,4.322,0,0,1,12.475-.82,2.557,2.557,0,0,1,10.33.117,2.574,2.574,0,0,1,8.2-.8a4.2,4.2,0,0,1-.756-2.637V-5.01a4.265,4.265,0,0,1,.741-2.713,2.576,2.576,0,0,1,2.136-.926,2.578,2.578,0,0,1,2.133.917A4.182,4.182,0,0,1,13.207-5.1ZM11.514-5.254a3.124,3.124,0,0,0-.29-1.546.98.98,0,0,0-.905-.484.963.963,0,0,0-.882.46,2.924,2.924,0,0,0-.3,1.44v2.076a3.279,3.279,0,0,0,.284,1.551.967.967,0,0,0,.911.507.951.951,0,0,0,.9-.487,3.2,3.2,0,0,0,.287-1.49Z" transform="translate(953 9708)" fill="#2e0877"/>
    <path id="Trazado_705227" data-name="Trazado 705227" d="M5.174-8.619v1.395H5.01a2.877,2.877,0,0,0-1.849.6A2.428,2.428,0,0,0,2.32-5.016a2.306,2.306,0,0,1,1.717-.691,2.173,2.173,0,0,1,1.77.8,3.194,3.194,0,0,1,.656,2.1A3.142,3.142,0,0,1,6.1-1.307,2.584,2.584,0,0,1,5.083-.258,2.962,2.962,0,0,1,3.592.117,2.766,2.766,0,0,1,1.415-.82a3.639,3.639,0,0,1-.829-2.5v-.609A5.477,5.477,0,0,1,1.11-6.384,3.845,3.845,0,0,1,2.616-8.03a4.413,4.413,0,0,1,2.276-.589ZM3.521-4.342a1.353,1.353,0,0,0-.744.213,1.286,1.286,0,0,0-.492.564v.515a2.28,2.28,0,0,0,.334,1.325,1.079,1.079,0,0,0,.938.477,1.067,1.067,0,0,0,.882-.43,1.753,1.753,0,0,0,.337-1.114,1.75,1.75,0,0,0-.34-1.123A1.108,1.108,0,0,0,3.521-4.342Zm9.686.814A4.322,4.322,0,0,1,12.475-.82,2.557,2.557,0,0,1,10.33.117,2.574,2.574,0,0,1,8.2-.8a4.2,4.2,0,0,1-.756-2.637V-5.01a4.265,4.265,0,0,1,.741-2.713,2.576,2.576,0,0,1,2.136-.926,2.578,2.578,0,0,1,2.133.917A4.182,4.182,0,0,1,13.207-5.1ZM11.514-5.254a3.124,3.124,0,0,0-.29-1.546.98.98,0,0,0-.905-.484.963.963,0,0,0-.882.46,2.924,2.924,0,0,0-.3,1.44v2.076a3.279,3.279,0,0,0,.284,1.551.967.967,0,0,0,.911.507.951.951,0,0,0,.9-.487,3.2,3.2,0,0,0,.287-1.49Z" transform="translate(1062 9708)" fill="#2e0877"/>
    <path id="Trazado_177284" data-name="Trazado 177284" d="M-8258-2046.5h15.92" transform="translate(8768.023 11668.156)" fill="none" stroke="#000" stroke-width="2"/>
    <path id="Trazado_177285" data-name="Trazado 177285" d="M-8258-2046.5h15.92" transform="translate(8768.023 11620.396)" fill="none" stroke="#000" stroke-width="2"/>
    <path id="Trazado_177286" data-name="Trazado 177286" d="M-8258-2046.5h15.92" transform="translate(8768.023 11572.638)" fill="none" stroke="#000" stroke-width="2"/>
    <path id="Trazado_177287" data-name="Trazado 177287" d="M-8258-2046.5h15.92" transform="translate(8768.023 11524.878)" fill="none" stroke="#000" stroke-width="2"/>
    <path id="Trazado_177288" data-name="Trazado 177288" d="M-8258-2046.5h15.92" transform="translate(8768.023 11479.904)" fill="none" stroke="#000" stroke-width="2"/>
    <path id="Trazado_177289" data-name="Trazado 177289" d="M-8258-2046.5h15.92" transform="translate(8768.023 11435.329)" fill="none" stroke="#000" stroke-width="2"/>
    <path id="Trazado_177290" data-name="Trazado 177290" d="M-8166.543-1993v19.75" transform="translate(8749.365 11657.241)" fill="none" stroke="#000" stroke-width="2"/>
    <path id="Trazado_177291" data-name="Trazado 177291" d="M-8166.543-1993v19.75" transform="translate(8873.176 11657.241)" fill="none" stroke="#000" stroke-width="2"/>
    <path id="Trazado_177292" data-name="Trazado 177292" d="M-8166.543-1993v19.75" transform="translate(9000.533 11657.241)" fill="none" stroke="#000" stroke-width="2"/>
    <path id="Trazado_177293" data-name="Trazado 177293" d="M-8166.543-1993v19.75" transform="translate(9127.892 11657.241)" fill="none" stroke="#000" stroke-width="2"/>
    <path id="Trazado_177294" data-name="Trazado 177294" d="M-8166.543-1993v19.75" transform="translate(9236.146 11657.241)" fill="none" stroke="#000" stroke-width="2"/>
    <g id="Trazado_705228" data-name="Trazado 705228" transform="translate(575 9608)" fill="none">
      <path d="M7.5,0A7.263,7.263,0,0,1,15,7a7.263,7.263,0,0,1-7.5,7A7.263,7.263,0,0,1,0,7,7.263,7.263,0,0,1,7.5,0Z" stroke="none"/>
      <path d="M 7.5 2 C 4.467289924621582 2 2 4.242989540100098 2 7 C 2 9.757009506225586 4.467289924621582 12 7.5 12 C 10.53271007537842 12 13 9.757009506225586 13 7 C 13 4.242989540100098 10.53271007537842 2 7.5 2 M 7.5 0 C 11.64213943481445 0 15 3.134010314941406 15 7 C 15 10.86598968505859 11.64213943481445 14 7.5 14 C 3.35785961151123 14 0 10.86598968505859 0 7 C 0 3.134010314941406 3.35785961151123 0 7.5 0 Z" stroke="none" fill="#7125c8"/>
    </g>
    <g id="Trazado_705229" data-name="Trazado 705229" transform="translate(610 9618)" fill="none">
      <path d="M7,0A7,7,0,1,1,0,7,7,7,0,0,1,7,0Z" stroke="none"/>
      <path d="M 7 2 C 4.242989540100098 2 2 4.242989540100098 2 7 C 2 9.757009506225586 4.242989540100098 12 7 12 C 9.757009506225586 12 12 9.757009506225586 12 7 C 12 4.242989540100098 9.757009506225586 2 7 2 M 7 0 C 10.86598968505859 0 14 3.134010314941406 14 7 C 14 10.86598968505859 10.86598968505859 14 7 14 C 3.134010314941406 14 0 10.86598968505859 0 7 C 0 3.134010314941406 3.134010314941406 0 7 0 Z" stroke="none" fill="#7125c8"/>
    </g>
    <g id="Trazado_705230" data-name="Trazado 705230" transform="translate(644 9581)" fill="none">
      <path d="M7,0a7.263,7.263,0,0,1,7,7.5A7.263,7.263,0,0,1,7,15,7.263,7.263,0,0,1,0,7.5,7.263,7.263,0,0,1,7,0Z" stroke="none"/>
      <path d="M 7 2 C 4.242989540100098 2 2 4.467289924621582 2 7.5 C 2 10.53271007537842 4.242989540100098 13 7 13 C 9.757009506225586 13 12 10.53271007537842 12 7.5 C 12 4.467289924621582 9.757009506225586 2 7 2 M 7 0 C 10.86598968505859 0 14 3.35785961151123 14 7.5 C 14 11.64213943481445 10.86598968505859 15 7 15 C 3.134010314941406 15 0 11.64213943481445 0 7.5 C 0 3.35785961151123 3.134010314941406 0 7 0 Z" stroke="none" fill="#7125c8"/>
    </g>
    <g id="Trazado_705231" data-name="Trazado 705231" transform="translate(610 9552)" fill="none">
      <path d="M7,0A7,7,0,1,1,0,7,7,7,0,0,1,7,0Z" stroke="none"/>
      <path d="M 7 2 C 4.242989540100098 2 2 4.242989540100098 2 7 C 2 9.757009506225586 4.242989540100098 12 7 12 C 9.757009506225586 12 12 9.757009506225586 12 7 C 12 4.242989540100098 9.757009506225586 2 7 2 M 7 0 C 10.86598968505859 0 14 3.134010314941406 14 7 C 14 10.86598968505859 10.86598968505859 14 7 14 C 3.134010314941406 14 0 10.86598968505859 0 7 C 0 3.134010314941406 3.134010314941406 0 7 0 Z" stroke="none" fill="#7125c8"/>
    </g>
    <g id="Trazado_705232" data-name="Trazado 705232" transform="translate(629 9504)" fill="none">
      <path d="M7.5,0A7.5,7.5,0,1,1,0,7.5,7.5,7.5,0,0,1,7.5,0Z" stroke="none"/>
      <path d="M 7.5 2 C 4.467289924621582 2 2 4.467289924621582 2 7.5 C 2 10.53271007537842 4.467289924621582 13 7.5 13 C 10.53271007537842 13 13 10.53271007537842 13 7.5 C 13 4.467289924621582 10.53271007537842 2 7.5 2 M 7.5 0 C 11.64213943481445 0 15 3.35785961151123 15 7.5 C 15 11.64213943481445 11.64213943481445 15 7.5 15 C 3.35785961151123 15 0 11.64213943481445 0 7.5 C 0 3.35785961151123 3.35785961151123 0 7.5 0 Z" stroke="none" fill="#7125c8"/>
    </g>
    <g id="Trazado_705233" data-name="Trazado 705233" transform="translate(663 9519)" fill="none">
      <path d="M7,0A7,7,0,1,1,0,7,7,7,0,0,1,7,0Z" stroke="none"/>
      <path d="M 7 2 C 4.242989540100098 2 2 4.242989540100098 2 7 C 2 9.757009506225586 4.242989540100098 12 7 12 C 9.757009506225586 12 12 9.757009506225586 12 7 C 12 4.242989540100098 9.757009506225586 2 7 2 M 7 0 C 10.86598968505859 0 14 3.134010314941406 14 7 C 14 10.86598968505859 10.86598968505859 14 7 14 C 3.134010314941406 14 0 10.86598968505859 0 7 C 0 3.134010314941406 3.134010314941406 0 7 0 Z" stroke="none" fill="#7125c8"/>
    </g>
    <g id="Trazado_705234" data-name="Trazado 705234" transform="translate(746 9429)" fill="none">
      <path d="M7.5,0A7.263,7.263,0,0,1,15,7a7.263,7.263,0,0,1-7.5,7A7.263,7.263,0,0,1,0,7,7.263,7.263,0,0,1,7.5,0Z" stroke="none"/>
      <path d="M 7.5 2 C 4.467289924621582 2 2 4.242989540100098 2 7 C 2 9.757009506225586 4.467289924621582 12 7.5 12 C 10.53271007537842 12 13 9.757009506225586 13 7 C 13 4.242989540100098 10.53271007537842 2 7.5 2 M 7.5 0 C 11.64213943481445 0 15 3.134010314941406 15 7 C 15 10.86598968505859 11.64213943481445 14 7.5 14 C 3.35785961151123 14 0 10.86598968505859 0 7 C 0 3.134010314941406 3.35785961151123 0 7.5 0 Z" stroke="none" fill="#7125c8"/>
    </g>
    <g id="Trazado_705235" data-name="Trazado 705235" transform="translate(914 9360)" fill="none">
      <path d="M7,0a7.263,7.263,0,0,1,7,7.5A7.263,7.263,0,0,1,7,15,7.263,7.263,0,0,1,0,7.5,7.263,7.263,0,0,1,7,0Z" stroke="none"/>
      <path d="M 7 2 C 4.242989540100098 2 2 4.467289924621582 2 7.5 C 2 10.53271007537842 4.242989540100098 13 7 13 C 9.757009506225586 13 12 10.53271007537842 12 7.5 C 12 4.467289924621582 9.757009506225586 2 7 2 M 7 0 C 10.86598968505859 0 14 3.35785961151123 14 7.5 C 14 11.64213943481445 10.86598968505859 15 7 15 C 3.134010314941406 15 0 11.64213943481445 0 7.5 C 0 3.35785961151123 3.134010314941406 0 7 0 Z" stroke="none" fill="#7125c8"/>
    </g>
    <g id="Trazado_705236" data-name="Trazado 705236" transform="translate(997 9346)" fill="none">
      <path d="M7,0A7,7,0,1,1,0,7,7,7,0,0,1,7,0Z" stroke="none"/>
      <path d="M 7 2 C 4.242989540100098 2 2 4.242989540100098 2 7 C 2 9.757009506225586 4.242989540100098 12 7 12 C 9.757009506225586 12 12 9.757009506225586 12 7 C 12 4.242989540100098 9.757009506225586 2 7 2 M 7 0 C 10.86598968505859 0 14 3.134010314941406 14 7 C 14 10.86598968505859 10.86598968505859 14 7 14 C 3.134010314941406 14 0 10.86598968505859 0 7 C 0 3.134010314941406 3.134010314941406 0 7 0 Z" stroke="none" fill="#7125c8"/>
    </g>
    <g id="Trazado_705237" data-name="Trazado 705237" transform="translate(777 9526)" fill="none">
      <path d="M7,0A7,7,0,1,1,0,7,7,7,0,0,1,7,0Z" stroke="none"/>
      <path d="M 7 2 C 4.242989540100098 2 2 4.242989540100098 2 7 C 2 9.757009506225586 4.242989540100098 12 7 12 C 9.757009506225586 12 12 9.757009506225586 12 7 C 12 4.242989540100098 9.757009506225586 2 7 2 M 7 0 C 10.86598968505859 0 14 3.134010314941406 14 7 C 14 10.86598968505859 10.86598968505859 14 7 14 C 3.134010314941406 14 0 10.86598968505859 0 7 C 0 3.134010314941406 3.134010314941406 0 7 0 Z" stroke="none" fill="#7125c8"/>
    </g>
    <g id="Trazado_705238" data-name="Trazado 705238" transform="translate(732 9601)" fill="none">
      <path d="M7,0A7,7,0,1,1,0,7,7,7,0,0,1,7,0Z" stroke="none"/>
      <path d="M 7 2 C 4.242989540100098 2 2 4.242989540100098 2 7 C 2 9.757009506225586 4.242989540100098 12 7 12 C 9.757009506225586 12 12 9.757009506225586 12 7 C 12 4.242989540100098 9.757009506225586 2 7 2 M 7 0 C 10.86598968505859 0 14 3.134010314941406 14 7 C 14 10.86598968505859 10.86598968505859 14 7 14 C 3.134010314941406 14 0 10.86598968505859 0 7 C 0 3.134010314941406 3.134010314941406 0 7 0 Z" stroke="none" fill="#7125c8"/>
    </g>
    <g id="Trazado_705239" data-name="Trazado 705239" transform="translate(699 9534)" fill="none">
      <path d="M7.5,0A7.263,7.263,0,0,1,15,7a7.263,7.263,0,0,1-7.5,7A7.263,7.263,0,0,1,0,7,7.263,7.263,0,0,1,7.5,0Z" stroke="none"/>
      <path d="M 7.5 2 C 4.467289924621582 2 2 4.242989540100098 2 7 C 2 9.757009506225586 4.467289924621582 12 7.5 12 C 10.53271007537842 12 13 9.757009506225586 13 7 C 13 4.242989540100098 10.53271007537842 2 7.5 2 M 7.5 0 C 11.64213943481445 0 15 3.134010314941406 15 7 C 15 10.86598968505859 11.64213943481445 14 7.5 14 C 3.35785961151123 14 0 10.86598968505859 0 7 C 0 3.134010314941406 3.35785961151123 0 7.5 0 Z" stroke="none" fill="#7125c8"/>
    </g>
    <g id="Trazado_705240" data-name="Trazado 705240" transform="translate(914 9484)" fill="none">
      <path d="M7,0a7.263,7.263,0,0,1,7,7.5A7.263,7.263,0,0,1,7,15,7.263,7.263,0,0,1,0,7.5,7.263,7.263,0,0,1,7,0Z" stroke="none"/>
      <path d="M 7 2 C 4.242989540100098 2 2 4.467289924621582 2 7.5 C 2 10.53271007537842 4.242989540100098 13 7 13 C 9.757009506225586 13 12 10.53271007537842 12 7.5 C 12 4.467289924621582 9.757009506225586 2 7 2 M 7 0 C 10.86598968505859 0 14 3.35785961151123 14 7.5 C 14 11.64213943481445 10.86598968505859 15 7 15 C 3.134010314941406 15 0 11.64213943481445 0 7.5 C 0 3.35785961151123 3.134010314941406 0 7 0 Z" stroke="none" fill="#7125c8"/>
    </g>
    <g id="Trazado_705241" data-name="Trazado 705241" transform="translate(983 9436)" fill="none">
      <path d="M7,0A7,7,0,1,1,0,7,7,7,0,0,1,7,0Z" stroke="none"/>
      <path d="M 7 2 C 4.242989540100098 2 2 4.242989540100098 2 7 C 2 9.757009506225586 4.242989540100098 12 7 12 C 9.757009506225586 12 12 9.757009506225586 12 7 C 12 4.242989540100098 9.757009506225586 2 7 2 M 7 0 C 10.86598968505859 0 14 3.134010314941406 14 7 C 14 10.86598968505859 10.86598968505859 14 7 14 C 3.134010314941406 14 0 10.86598968505859 0 7 C 0 3.134010314941406 3.134010314941406 0 7 0 Z" stroke="none" fill="#7125c8"/>
    </g>
    <g id="Trazado_705242" data-name="Trazado 705242" transform="translate(968 9479)" fill="none">
      <path d="M7,0A7,7,0,1,1,0,7,7,7,0,0,1,7,0Z" stroke="none"/>
      <path d="M 7 2 C 4.242989540100098 2 2 4.242989540100098 2 7 C 2 9.757009506225586 4.242989540100098 12 7 12 C 9.757009506225586 12 12 9.757009506225586 12 7 C 12 4.242989540100098 9.757009506225586 2 7 2 M 7 0 C 10.86598968505859 0 14 3.134010314941406 14 7 C 14 10.86598968505859 10.86598968505859 14 7 14 C 3.134010314941406 14 0 10.86598968505859 0 7 C 0 3.134010314941406 3.134010314941406 0 7 0 Z" stroke="none" fill="#7125c8"/>
    </g>
    <g id="Trazado_705243" data-name="Trazado 705243" transform="translate(1073 9397)" fill="none">
      <path d="M7,0A7,7,0,1,1,0,7,7,7,0,0,1,7,0Z" stroke="none"/>
      <path d="M 7 2 C 4.242989540100098 2 2 4.242989540100098 2 7 C 2 9.757009506225586 4.242989540100098 12 7 12 C 9.757009506225586 12 12 9.757009506225586 12 7 C 12 4.242989540100098 9.757009506225586 2 7 2 M 7 0 C 10.86598968505859 0 14 3.134010314941406 14 7 C 14 10.86598968505859 10.86598968505859 14 7 14 C 3.134010314941406 14 0 10.86598968505859 0 7 C 0 3.134010314941406 3.134010314941406 0 7 0 Z" stroke="none" fill="#7125c8"/>
    </g>
    <path id="Trazado_177295" data-name="Trazado 177295" d="M-7668.869-2366-8238-2110.547" transform="translate(8763.943 11733.338)" fill="none" stroke="#2e0877" stroke-width="2"/>
    <path id="Trazado_705244" data-name="Trazado 705244" d="M0,0H820V5H0Z" transform="translate(390 9745)" fill="#25ffff"/>
  </g>
</svg>
