<svg xmlns="http://www.w3.org/2000/svg" width="400" height="81" viewBox="0 0 400 81">
  <g id="Grupo_974149" data-name="Grupo 974149" transform="translate(-495.995 -4012.762)">
    <path id="Trazado_705325" data-name="Trazado 705325" d="M10,0H390a10,10,0,0,1,10,10V71a10,10,0,0,1-10,10H10A10,10,0,0,1,0,71V10A10,10,0,0,1,10,0Z" transform="translate(495.995 4012.762)" fill="#7125c8"/>
    <path id="Trazado_705326" data-name="Trazado 705326" d="M6.741,0H4.614V-10.281L1.477-9.211V-11l4.992-1.837h.272Z" transform="translate(583.995 4047.762)" fill="#fff"/>
    <path id="Trazado_704713" data-name="Trazado 704713" d="M-8334.53,21212.5h28.386" transform="translate(8908.995 -17159.238)" fill="#fff" stroke="#fff" stroke-width="1"/>
    <path id="Trazado_705327" data-name="Trazado 705327" d="M8.183-4.562H9.773v1.714H8.183V0H6.047V-2.848H.519l-.062-1.3L5.977-12.8H8.183Zm-5.484,0H6.047V-9.905l-.158.281Z" transform="translate(583.995 4071.762)" fill="#fff"/>
    <path id="Trazado_705328" data-name="Trazado 705328" d="M6.741,0H4.614V-10.281L1.477-9.211V-11l4.992-1.837h.272Z" transform="translate(658.64 4047.762)" fill="#fff"/>
    <path id="Trazado_704714" data-name="Trazado 704714" d="M-8334.53,21212.5h28.386" transform="translate(8983.64 -17159.238)" fill="#fff" stroke="#fff" stroke-width="1"/>
    <path id="Trazado_705329" data-name="Trazado 705329" d="M8.183-4.562H9.773v1.714H8.183V0H6.047V-2.848H.519l-.062-1.3L5.977-12.8H8.183Zm-5.484,0H6.047V-9.905l-.158.281Z" transform="translate(658.64 4071.762)" fill="#fff"/>
    <path id="Trazado_705330" data-name="Trazado 705330" d="M9.563,0H.958V-1.468L5.221-6.117A10.615,10.615,0,0,0,6.535-7.835,2.784,2.784,0,0,0,6.926-9.22,2.1,2.1,0,0,0,6.412-10.7a1.783,1.783,0,0,0-1.384-.562,2.056,2.056,0,0,0-1.608.633,2.489,2.489,0,0,0-.571,1.731H.712A4.186,4.186,0,0,1,1.244-11a3.662,3.662,0,0,1,1.521-1.455,4.84,4.84,0,0,1,2.281-.519,4.329,4.329,0,0,1,2.94.936A3.249,3.249,0,0,1,9.062-9.448,4.392,4.392,0,0,1,8.521-7.44,11.42,11.42,0,0,1,6.75-5.054L3.621-1.705H9.563Z" transform="translate(742.333 4047.762)" fill="#fff"/>
    <path id="Trazado_704715" data-name="Trazado 704715" d="M-8334.53,21212.5h28.386" transform="translate(9067.333 -17159.238)" fill="#fff" stroke="#fff" stroke-width="1"/>
    <path id="Trazado_705331" data-name="Trazado 705331" d="M8.183-4.562H9.773v1.714H8.183V0H6.047V-2.848H.519l-.062-1.3L5.977-12.8H8.183Zm-5.484,0H6.047V-9.905l-.158.281Z" transform="translate(742.333 4071.762)" fill="#fff"/>
    <path id="Trazado_705332" data-name="Trazado 705332" d="M13.333-6.855H5.757V-8.631h7.576Zm0,3.727H5.757V-4.9h7.576Z" transform="translate(537.995 4058.762)" fill="#fff"/>
    <path id="Trazado_705333" data-name="Trazado 705333" d="M6.029-7.04h3.34v1.951H6.029v3.806H3.955V-5.089H.6V-7.04H3.955V-10.6H6.029Z" transform="translate(623.995 4058.762)" fill="#fff"/>
    <path id="Trazado_705334" data-name="Trazado 705334" d="M8.851-6.855H1.274V-8.631H8.851Zm0,3.727H1.274V-4.9H8.851Z" transform="translate(700.995 4058.762)" fill="#fff"/>
    <path id="Trazado_705335" data-name="Trazado 705335" d="M8.851-6.855H1.274V-8.631H8.851Zm0,3.727H1.274V-4.9H8.851Z" transform="translate(780.995 4058.762)" fill="#fff"/>
    <path id="Trazado_705336" data-name="Trazado 705336" d="M9.3-5.388A6.979,6.979,0,0,1,8.266-1.226,3.647,3.647,0,0,1,5.124.176,3.7,3.7,0,0,1,2-1.191,6.683,6.683,0,0,1,.923-5.238V-7.453a6.874,6.874,0,0,1,1.033-4.14,3.681,3.681,0,0,1,3.151-1.38A3.7,3.7,0,0,1,8.24-11.628,6.664,6.664,0,0,1,9.3-7.6ZM7.163-7.778a5.415,5.415,0,0,0-.492-2.641,1.68,1.68,0,0,0-1.564-.839,1.679,1.679,0,0,0-1.538.8A5,5,0,0,0,3.05-7.98v2.9a5.555,5.555,0,0,0,.5,2.672,1.683,1.683,0,0,0,1.573.879,1.653,1.653,0,0,0,1.521-.813,5.226,5.226,0,0,0,.519-2.544ZM11.628,2.883,10.477,2.2A6.21,6.21,0,0,0,11.175.8a4.157,4.157,0,0,0,.2-1.208V-2.065H13.3L13.289-.527a4.287,4.287,0,0,1-.47,1.868A4.64,4.64,0,0,1,11.628,2.883Zm4.087-9.229.694-6.451h6.873v1.846h-5.1l-.352,3.059a3.951,3.951,0,0,1,2-.51A3.565,3.565,0,0,1,22.68-7.233,4.632,4.632,0,0,1,23.7-4.087,4.264,4.264,0,0,1,22.57-.98,4.106,4.106,0,0,1,19.485.176a4.3,4.3,0,0,1-2.914-1,3.606,3.606,0,0,1-1.252-2.632h2.065a2.256,2.256,0,0,0,.668,1.428,2.032,2.032,0,0,0,1.424.5,1.836,1.836,0,0,0,1.534-.7,3.035,3.035,0,0,0,.549-1.916A2.682,2.682,0,0,0,20.953-6a2.121,2.121,0,0,0-1.67-.681,2.778,2.778,0,0,0-.984.154,2.788,2.788,0,0,0-.879.6Z" transform="translate(803.995 4058.762)" fill="#fff"/>
  </g>
</svg>
