<svg xmlns="http://www.w3.org/2000/svg" width="332" height="81" viewBox="0 0 332 81">
  <g id="Grupo_974154" data-name="Grupo 974154" transform="translate(-270.995 -4646.762)">
    <rect id="Rectángulo_339760" data-name="Rectángulo 339760" width="332" height="81" rx="10" transform="translate(270.995 4646.762)" fill="#7125c8"/>
    <path id="Trazado_704732" data-name="Trazado 704732" d="M3.524-4.755V0H1.3V-12.8H6.2A4.954,4.954,0,0,1,9.6-11.681a3.751,3.751,0,0,1,1.261,2.953A3.627,3.627,0,0,1,9.628-5.8,5.194,5.194,0,0,1,6.17-4.755Zm0-1.784H6.2A2.632,2.632,0,0,0,8.007-7.1,2.051,2.051,0,0,0,8.631-8.71,2.213,2.213,0,0,0,8-10.367,2.439,2.439,0,0,0,6.258-11H3.524ZM12.63-5.2a13.393,13.393,0,0,1,.545-3.854,10.578,10.578,0,0,1,1.6-3.261,6.351,6.351,0,0,1,2.232-2.017l.422,1.248a6.524,6.524,0,0,0-2.008,2.87A12.852,12.852,0,0,0,14.581-5.8l-.009.756a13.972,13.972,0,0,0,.751,4.75,7,7,0,0,0,2.1,3.177l-.422,1.187A6.362,6.362,0,0,1,14.77,2.043a10.577,10.577,0,0,1-1.6-3.261A13.921,13.921,0,0,1,12.63-5.2ZM26.244-2.979H21.287L20.25,0H17.938l4.834-12.8h2L29.61,0H27.29ZM21.911-4.772H25.62l-1.854-5.309ZM40.271-12.8v8.552a4.156,4.156,0,0,1-1.305,3.23A4.958,4.958,0,0,1,35.49.176,4.993,4.993,0,0,1,32-1a4.176,4.176,0,0,1-1.292-3.256V-12.8h2.215v8.561a2.719,2.719,0,0,0,.65,1.96A2.537,2.537,0,0,0,35.49-1.6q2.566,0,2.566-2.707V-12.8ZM42.645,0V-12.8H47.03a5.354,5.354,0,0,1,3.3.87,3.065,3.065,0,0,1,1.134,2.593,2.763,2.763,0,0,1-.475,1.582,3.055,3.055,0,0,1-1.389,1.09,2.825,2.825,0,0,1,1.6,1.059,3.085,3.085,0,0,1,.567,1.868A3.407,3.407,0,0,1,50.621-.967,5.025,5.025,0,0,1,47.312,0Zm2.224-5.774v4h2.47a2.39,2.39,0,0,0,1.635-.519,1.82,1.82,0,0,0,.589-1.441,1.826,1.826,0,0,0-2.039-2.039Zm0-1.635h2.18a2.521,2.521,0,0,0,1.622-.47,1.611,1.611,0,0,0,.584-1.332,1.633,1.633,0,0,0-.541-1.371A2.73,2.73,0,0,0,47.03-11H44.868ZM57.911-5.062A13.224,13.224,0,0,1,57.375-1.3a10.671,10.671,0,0,1-1.626,3.3,6.367,6.367,0,0,1-2.276,2.061l-.422-1.187A6.754,6.754,0,0,0,55.138-.233a13.84,13.84,0,0,0,.769-4.786v-.2a14.044,14.044,0,0,0-.668-4.452,7.852,7.852,0,0,0-1.916-3.221l-.272-.246.422-1.2a6.3,6.3,0,0,1,2.18,1.934A10.491,10.491,0,0,1,57.27-9.294,12.941,12.941,0,0,1,57.9-5.748ZM67.9-6.855H60.319V-8.631H67.9Zm0,3.727H60.319V-4.9H67.9Zm9.229-1.626V0H74.9V-12.8h4.9A4.954,4.954,0,0,1,83.2-11.681a3.751,3.751,0,0,1,1.261,2.953A3.627,3.627,0,0,1,83.228-5.8,5.194,5.194,0,0,1,79.77-4.755Zm0-1.784H79.8A2.632,2.632,0,0,0,81.606-7.1,2.051,2.051,0,0,0,82.23-8.71a2.213,2.213,0,0,0-.633-1.657A2.439,2.439,0,0,0,79.857-11H77.124ZM86.229-5.2a13.393,13.393,0,0,1,.545-3.854,10.578,10.578,0,0,1,1.6-3.261,6.351,6.351,0,0,1,2.232-2.017l.422,1.248a6.524,6.524,0,0,0-2.008,2.87A12.852,12.852,0,0,0,88.181-5.8l-.009.756a13.972,13.972,0,0,0,.751,4.75,7,7,0,0,0,2.1,3.177l-.422,1.187A6.362,6.362,0,0,1,88.37,2.043a10.577,10.577,0,0,1-1.6-3.261A13.921,13.921,0,0,1,86.229-5.2ZM99.844-2.979H94.887L93.85,0H91.538l4.834-12.8h2L103.21,0h-2.32ZM95.511-4.772H99.22l-1.854-5.309Zm13.061-.29a13.224,13.224,0,0,1-.536,3.766,10.671,10.671,0,0,1-1.626,3.3,6.367,6.367,0,0,1-2.276,2.061l-.422-1.187A6.754,6.754,0,0,0,105.8-.233a13.84,13.84,0,0,0,.769-4.786v-.2a14.044,14.044,0,0,0-.668-4.452,7.852,7.852,0,0,0-1.916-3.221l-.272-.246.422-1.2a6.3,6.3,0,0,1,2.18,1.934,10.491,10.491,0,0,1,1.617,3.107,12.941,12.941,0,0,1,.633,3.546ZM120.217-7.04h3.34v1.951h-3.34v3.806h-2.074V-5.089h-3.357V-7.04h3.357V-10.6h2.074Zm12.006,2.285V0H130V-12.8h4.9a4.954,4.954,0,0,1,3.406,1.116,3.751,3.751,0,0,1,1.261,2.953A3.627,3.627,0,0,1,138.327-5.8a5.194,5.194,0,0,1-3.458,1.046Zm0-1.784h2.672a2.632,2.632,0,0,0,1.811-.558,2.051,2.051,0,0,0,.624-1.613,2.213,2.213,0,0,0-.633-1.657,2.439,2.439,0,0,0-1.74-.637h-2.733ZM141.328-5.2a13.393,13.393,0,0,1,.545-3.854,10.578,10.578,0,0,1,1.6-3.261,6.351,6.351,0,0,1,2.232-2.017l.422,1.248a6.524,6.524,0,0,0-2.008,2.87,12.852,12.852,0,0,0-.839,4.417l-.009.756a13.972,13.972,0,0,0,.751,4.75,7,7,0,0,0,2.1,3.177l-.422,1.187a6.362,6.362,0,0,1-2.237-2.026,10.577,10.577,0,0,1-1.6-3.261A13.921,13.921,0,0,1,141.328-5.2ZM147.779,0V-12.8h4.386a5.354,5.354,0,0,1,3.3.87A3.065,3.065,0,0,1,156.6-9.334a2.763,2.763,0,0,1-.475,1.582,3.055,3.055,0,0,1-1.389,1.09,2.825,2.825,0,0,1,1.6,1.059,3.085,3.085,0,0,1,.567,1.868,3.407,3.407,0,0,1-1.156,2.769A5.025,5.025,0,0,1,152.446,0ZM150-5.774v4h2.47a2.39,2.39,0,0,0,1.635-.519,1.82,1.82,0,0,0,.589-1.441,1.826,1.826,0,0,0-2.039-2.039Zm0-1.635h2.18a2.521,2.521,0,0,0,1.622-.47,1.611,1.611,0,0,0,.584-1.332,1.633,1.633,0,0,0-.541-1.371A2.73,2.73,0,0,0,152.165-11H150Zm13.043,2.347A13.224,13.224,0,0,1,162.51-1.3a10.671,10.671,0,0,1-1.626,3.3,6.367,6.367,0,0,1-2.276,2.061l-.422-1.187a6.754,6.754,0,0,0,2.087-3.116,13.84,13.84,0,0,0,.769-4.786v-.2a14.044,14.044,0,0,0-.668-4.452,7.852,7.852,0,0,0-1.916-3.221l-.272-.246.422-1.2a6.3,6.3,0,0,1,2.18,1.934A10.491,10.491,0,0,1,162.4-9.294a12.941,12.941,0,0,1,.633,3.546Zm10.854.483h-4.614V-6.3H173.9Zm8.675-.176V0h-2.224V-12.8h4.9a4.954,4.954,0,0,1,3.406,1.116,3.751,3.751,0,0,1,1.261,2.953A3.627,3.627,0,0,1,188.679-5.8a5.194,5.194,0,0,1-3.458,1.046Zm0-1.784h2.672a2.632,2.632,0,0,0,1.811-.558,2.051,2.051,0,0,0,.624-1.613,2.213,2.213,0,0,0-.633-1.657,2.439,2.439,0,0,0-1.74-.637h-2.733ZM191.681-5.2a13.393,13.393,0,0,1,.545-3.854,10.578,10.578,0,0,1,1.6-3.261,6.351,6.351,0,0,1,2.232-2.017l.422,1.248a6.524,6.524,0,0,0-2.008,2.87,12.852,12.852,0,0,0-.839,4.417l-.009.756a13.972,13.972,0,0,0,.751,4.75,7,7,0,0,0,2.1,3.177l-.422,1.187a6.362,6.362,0,0,1-2.237-2.026,10.577,10.577,0,0,1-1.6-3.261A13.921,13.921,0,0,1,191.681-5.2Zm13.614,2.224h-4.957L199.3,0h-2.312l4.834-12.8h2L208.661,0h-2.32Zm-4.333-1.793h3.709l-1.854-5.309ZM228.041,0V-12.8h4.386a5.354,5.354,0,0,1,3.3.87,3.065,3.065,0,0,1,1.134,2.593,2.763,2.763,0,0,1-.475,1.582A3.055,3.055,0,0,1,235-6.662a2.825,2.825,0,0,1,1.6,1.059,3.085,3.085,0,0,1,.567,1.868,3.407,3.407,0,0,1-1.156,2.769A5.025,5.025,0,0,1,232.708,0Zm2.224-5.774v4h2.47a2.39,2.39,0,0,0,1.635-.519,1.82,1.82,0,0,0,.589-1.441,1.826,1.826,0,0,0-2.039-2.039Zm0-1.635h2.18a2.521,2.521,0,0,0,1.622-.47,1.611,1.611,0,0,0,.584-1.332,1.633,1.633,0,0,0-.541-1.371A2.73,2.73,0,0,0,232.427-11h-2.162Zm13.043,2.347a13.224,13.224,0,0,1-.536,3.766,10.671,10.671,0,0,1-1.626,3.3,6.367,6.367,0,0,1-2.276,2.061l-.422-1.187a6.754,6.754,0,0,0,2.087-3.116,13.84,13.84,0,0,0,.769-4.786v-.2a14.044,14.044,0,0,0-.668-4.452,7.852,7.852,0,0,0-1.916-3.221l-.272-.246.422-1.2a6.3,6.3,0,0,1,2.18,1.934,10.491,10.491,0,0,1,1.617,3.107,12.941,12.941,0,0,1,.633,3.546Z" transform="translate(315.995 4692.762)" fill="#fff"/>
    <path id="Trazado_704733" data-name="Trazado 704733" d="M10.661-12.8v8.552a4.156,4.156,0,0,1-1.305,3.23A4.958,4.958,0,0,1,5.88.176,4.993,4.993,0,0,1,2.391-1,4.176,4.176,0,0,1,1.1-4.254V-12.8H3.313v8.561a2.719,2.719,0,0,0,.65,1.96A2.537,2.537,0,0,0,5.88-1.6q2.566,0,2.566-2.707V-12.8Z" transform="translate(539.995 4679.762) rotate(180)" fill="#fff"/>
  </g>
</svg>
