<svg xmlns="http://www.w3.org/2000/svg" width="490.904" height="243.143" viewBox="0 0 490.904 243.143">
  <g id="Grupo_166625" data-name="Grupo 166625" transform="translate(-823.85 -4929.322)">
    <path id="Trazado_197172" data-name="Trazado 197172" d="M-7974.2-9088.2h406.146" transform="translate(8809.791 14212.063)" fill="none" stroke="#12263f" stroke-width="4"/>
    <path id="Trazado_197174" data-name="Trazado 197174" d="M-7728.5-9127.185v-165.55" transform="translate(8762.963 14251.044)" fill="none" stroke="#12263f" stroke-width="2"/>
    <path id="Trazado_197173" data-name="Trazado 197173" d="M-7988.521-9122.31s117.651,8.877,145.015-12.825,47.106-128.471,65.938-122.873,58.6,107.985,66.625,113.583-5.716,29.205,148.476,23.818" transform="translate(8812.521 14244.466)" fill="none" stroke="#25ffff" stroke-width="4"/>
    <path id="Trazado_705004" data-name="Trazado 705004" d="M2.82-4.453V0H1.32V-11.375h4.2a4.215,4.215,0,0,1,2.926.953A3.231,3.231,0,0,1,9.5-7.9,3.189,3.189,0,0,1,8.465-5.348,4.4,4.4,0,0,1,5.5-4.453Zm0-1.227h2.7a2.7,2.7,0,0,0,1.844-.567A2.075,2.075,0,0,0,8-7.887a2.143,2.143,0,0,0-.641-1.628A2.525,2.525,0,0,0,5.6-10.148H2.82Zm19.125.313L23.82-8.453h1.688l-2.766,4.18L25.594,0H23.922L21.969-3.164,20.016,0h-1.68l2.852-4.273-2.766-4.18h1.672Zm8.1,1.125H26.234v-1.18h3.813Z" transform="translate(1103.163 5007.351)" fill="#12263f"/>
    <path id="Trazado_705005" data-name="Trazado 705005" d="M3.93-5.367,5.8-8.453H7.492L4.727-4.273,7.578,0H5.906L3.953-3.164,2,0H.32L3.172-4.273.406-8.453H2.078Zm8.1,1.125H8.219v-1.18h3.813Z" transform="translate(975.978 5164.557)" fill="#12263f"/>
    <path id="Trazado_705006" data-name="Trazado 705006" d="M3.93-5.367,5.8-8.453H7.492L4.727-4.273,7.578,0H5.906L3.953-3.164,2,0H.32L3.172-4.273.406-8.453H2.078ZM13.164-6.1h3.172v1.367H13.164v3.594H11.711V-4.734H8.539V-6.1h3.172v-3.32h1.453Z" transform="translate(1079.385 5164.557)" fill="#12263f"/>
    <path id="Trazado_705007" data-name="Trazado 705007" d="M.742-4.3a4.952,4.952,0,0,1,.922-3.129A2.915,2.915,0,0,1,4.078-8.609,2.932,2.932,0,0,1,6.43-7.594V-12H7.875V0H6.547l-.07-.906A2.943,2.943,0,0,1,4.063.156a2.887,2.887,0,0,1-2.395-1.2A5.008,5.008,0,0,1,.742-4.187Zm1.445.164a3.749,3.749,0,0,0,.594,2.25,1.92,1.92,0,0,0,1.641.813A2.108,2.108,0,0,0,6.43-2.3V-6.187a2.125,2.125,0,0,0-1.992-1.2,1.929,1.929,0,0,0-1.656.82A4.128,4.128,0,0,0,2.188-4.133ZM12.953-5.367l1.875-3.086h1.688L13.75-4.273,16.6,0H14.93L12.977-3.164,11.023,0H9.344L12.2-4.273,9.43-8.453H11.1Zm10.023.083,4.891,1.779v1.378L21.477-4.792V-5.819l6.391-2.658V-7.1ZM27.922-.016H21.4V-1.2h6.523Zm10.117-7,2.727-4.359h1.766L38.938-5.734,42.617,0H40.836l-2.8-4.437L35.227,0H33.453l3.688-5.734-3.6-5.641H35.3ZM50.93-5.367,52.8-8.453h1.688l-2.766,4.18L54.578,0H52.906L50.953-3.164,49,0H47.32l2.852-4.273-2.766-4.18h1.672Zm13.2-.734H67.3v1.367H64.125v3.594H62.672V-4.734H59.5V-6.1h3.172v-3.32h1.453Z" transform="translate(1176.209 5007.351)" fill="#12263f"/>
    <path id="Trazado_705008" data-name="Trazado 705008" d="M.742-4.3a4.952,4.952,0,0,1,.922-3.129A2.915,2.915,0,0,1,4.078-8.609,2.932,2.932,0,0,1,6.43-7.594V-12H7.875V0H6.547l-.07-.906A2.943,2.943,0,0,1,4.063.156a2.887,2.887,0,0,1-2.395-1.2A5.008,5.008,0,0,1,.742-4.187Zm1.445.164a3.749,3.749,0,0,0,.594,2.25,1.92,1.92,0,0,0,1.641.813A2.108,2.108,0,0,0,6.43-2.3V-6.187a2.125,2.125,0,0,0-1.992-1.2,1.929,1.929,0,0,0-1.656.82A4.128,4.128,0,0,0,2.188-4.133ZM12.953-5.367l1.875-3.086h1.688L13.75-4.273,16.6,0H14.93L12.977-3.164,11.023,0H9.344L12.2-4.273,9.43-8.453H11.1Z" transform="translate(1027.979 5164.557)" fill="#12263f"/>
    <path id="Trazado_705009" data-name="Trazado 705009" d="M.742-4.3a4.952,4.952,0,0,1,.922-3.129A2.915,2.915,0,0,1,4.078-8.609,2.932,2.932,0,0,1,6.43-7.594V-12H7.875V0H6.547l-.07-.906A2.943,2.943,0,0,1,4.063.156a2.887,2.887,0,0,1-2.395-1.2A5.008,5.008,0,0,1,.742-4.187Zm1.445.164a3.749,3.749,0,0,0,.594,2.25,1.92,1.92,0,0,0,1.641.813A2.108,2.108,0,0,0,6.43-2.3V-6.187a2.125,2.125,0,0,0-1.992-1.2,1.929,1.929,0,0,0-1.656.82A4.128,4.128,0,0,0,2.188-4.133ZM12.953-5.367l1.875-3.086h1.688L13.75-4.273,16.6,0H14.93L12.977-3.164,11.023,0H9.344L12.2-4.273,9.43-8.453H11.1Z" transform="translate(1131.386 5164.557)" fill="#12263f"/>
    <path id="Trazado_705010" data-name="Trazado 705010" d="M.742-4.3a4.952,4.952,0,0,1,.922-3.129A2.915,2.915,0,0,1,4.078-8.609,2.932,2.932,0,0,1,6.43-7.594V-12H7.875V0H6.547l-.07-.906A2.943,2.943,0,0,1,4.063.156a2.887,2.887,0,0,1-2.395-1.2A5.008,5.008,0,0,1,.742-4.187Zm1.445.164a3.749,3.749,0,0,0,.594,2.25,1.92,1.92,0,0,0,1.641.813A2.108,2.108,0,0,0,6.43-2.3V-6.187a2.125,2.125,0,0,0-1.992-1.2,1.929,1.929,0,0,0-1.656.82A4.128,4.128,0,0,0,2.188-4.133ZM12.953-5.367l1.875-3.086h1.688L13.75-4.273,16.6,0H14.93L12.977-3.164,11.023,0H9.344L12.2-4.273,9.43-8.453H11.1Z" transform="translate(1284.67 5007.351)" fill="#12263f"/>
    <path id="Trazado_705011" data-name="Trazado 705011" d="M2.6-11.543A30.2,30.2,0,0,1,3.779-20.02,24.624,24.624,0,0,1,7.3-27.4a15,15,0,0,1,4.863-4.687l.742,2.383a15.556,15.556,0,0,0-4.678,6.68,28.957,28.957,0,0,0-2,10.059l-.02,1.66A29.108,29.108,0,0,0,8.965,1.777a15.629,15.629,0,0,0,3.945,5.2L12.168,9.18A15.479,15.479,0,0,1,7.207,4.336,27.148,27.148,0,0,1,2.6-11.543Z" transform="translate(1114.19 5012.902)" fill="#12263f"/>
    <path id="Trazado_705012" data-name="Trazado 705012" d="M2.6-11.543A30.2,30.2,0,0,1,3.779-20.02,24.624,24.624,0,0,1,7.3-27.4a15,15,0,0,1,4.863-4.687l.742,2.383a15.556,15.556,0,0,0-4.678,6.68,28.957,28.957,0,0,0-2,10.059l-.02,1.66A29.108,29.108,0,0,0,8.965,1.777a15.629,15.629,0,0,0,3.945,5.2L12.168,9.18A15.479,15.479,0,0,1,7.207,4.336,27.148,27.148,0,0,1,2.6-11.543Z" transform="translate(1317.352 4990.705) rotate(180)" fill="#12263f"/>
    <path id="Trazado_705013" data-name="Trazado 705013" d="M5.049-3.032A4.131,4.131,0,0,1,4.507-.674,1.928,1.928,0,0,1,2.813.1,1.942,1.942,0,0,1,1.128-.657,3.921,3.921,0,0,1,.562-2.91V-4.116A4.039,4.039,0,0,1,1.1-6.445a1.942,1.942,0,0,1,1.7-.762,1.96,1.96,0,0,1,1.689.735A3.9,3.9,0,0,1,5.049-4.2Zm-.9-1.235A3.31,3.31,0,0,0,3.823-5.94,1.109,1.109,0,0,0,2.8-6.465a1.1,1.1,0,0,0-1.011.522,3.232,3.232,0,0,0-.327,1.606v1.445a3.363,3.363,0,0,0,.334,1.7A1.107,1.107,0,0,0,2.813-.64a1.092,1.092,0,0,0,.994-.518,3.241,3.241,0,0,0,.339-1.631ZM6.27,1.416l-.513-.352A2.356,2.356,0,0,0,6.235-.254v-.815h.884v.708a2.224,2.224,0,0,1-.242.986A2.309,2.309,0,0,1,6.27,1.416Zm2.314-4.98.361-3.545h3.643v.835H9.712L9.5-4.336a2.294,2.294,0,0,1,1.187-.308A1.961,1.961,0,0,1,12.227-4,2.516,2.516,0,0,1,12.8-2.266,2.429,2.429,0,0,1,12.2-.535,2.162,2.162,0,0,1,10.547.1,2.247,2.247,0,0,1,9.009-.425,2.085,2.085,0,0,1,8.33-1.87h.854a1.435,1.435,0,0,0,.435.92,1.351,1.351,0,0,0,.928.31,1.219,1.219,0,0,0,.989-.43,1.8,1.8,0,0,0,.359-1.187A1.649,1.649,0,0,0,11.506-3.4a1.32,1.32,0,0,0-1.033-.432,1.489,1.489,0,0,0-.928.259l-.239.2Z" transform="translate(1010.585 4959.811)" fill="#12263f"/>
    <path id="Trazado_705014" data-name="Trazado 705014" d="M5.554-3.335a4.545,4.545,0,0,1-.6,2.594A2.12,2.12,0,0,1,3.094.107a2.136,2.136,0,0,1-1.853-.83A4.313,4.313,0,0,1,.618-3.2V-4.528a4.443,4.443,0,0,1,.6-2.562,2.137,2.137,0,0,1,1.869-.838,2.156,2.156,0,0,1,1.858.808,4.288,4.288,0,0,1,.612,2.495ZM4.56-4.694a3.641,3.641,0,0,0-.354-1.84,1.22,1.22,0,0,0-1.123-.577,1.2,1.2,0,0,0-1.112.575,3.555,3.555,0,0,0-.36,1.767v1.59a3.7,3.7,0,0,0,.368,1.872,1.218,1.218,0,0,0,1.115.6,1.2,1.2,0,0,0,1.093-.569A3.566,3.566,0,0,0,4.56-3.067Z" transform="translate(1020.298 5119.455)" fill="#12263f"/>
    <path id="Trazado_705015" data-name="Trazado 705015" d="M4.549-7.826v.843H4.367a2.616,2.616,0,0,0-1.848.688A2.861,2.861,0,0,0,1.724-4.42a2.121,2.121,0,0,1,1.687-.709,2.028,2.028,0,0,1,1.63.72,2.776,2.776,0,0,1,.61,1.858A2.767,2.767,0,0,1,4.992-.618,2.266,2.266,0,0,1,3.228.107,2.232,2.232,0,0,1,1.407-.755a3.417,3.417,0,0,1-.7-2.221v-.381a5.148,5.148,0,0,1,.921-3.3A3.383,3.383,0,0,1,4.372-7.826ZM3.244-4.3A1.585,1.585,0,0,0,2.3-4a1.6,1.6,0,0,0-.6.768v.365a2.565,2.565,0,0,0,.435,1.558,1.3,1.3,0,0,0,1.085.591,1.263,1.263,0,0,0,1.055-.494A2.05,2.05,0,0,0,4.667-2.5a2.051,2.051,0,0,0-.389-1.3A1.248,1.248,0,0,0,3.244-4.3Z" transform="translate(1243.695 5144.547)" fill="#12263f"/>
    <path id="Trazado_705016" data-name="Trazado 705016" d="M2.82-2.917H.2v-.811H2.82ZM7.584-7.826v.843H7.4a2.616,2.616,0,0,0-1.848.688A2.861,2.861,0,0,0,4.759-4.42a2.121,2.121,0,0,1,1.687-.709,2.028,2.028,0,0,1,1.63.72,2.776,2.776,0,0,1,.61,1.858A2.767,2.767,0,0,1,8.027-.618,2.266,2.266,0,0,1,6.263.107,2.232,2.232,0,0,1,4.442-.755a3.417,3.417,0,0,1-.7-2.221v-.381a5.148,5.148,0,0,1,.921-3.3A3.383,3.383,0,0,1,7.407-7.826ZM6.279-4.3A1.585,1.585,0,0,0,5.339-4a1.6,1.6,0,0,0-.6.768v.365a2.565,2.565,0,0,0,.435,1.558,1.3,1.3,0,0,0,1.085.591,1.263,1.263,0,0,0,1.055-.494A2.05,2.05,0,0,0,7.7-2.5a2.051,2.051,0,0,0-.389-1.3A1.248,1.248,0,0,0,6.279-4.3Z" transform="translate(824 5144.547)" fill="#12263f"/>
    <path id="Trazado_705017" data-name="Trazado 705017" d="M3.266-5.043H2.175V.467a1.979,1.979,0,0,1-.451,1.388,1.648,1.648,0,0,1-1.278.491,1.75,1.75,0,0,1-.6-.1l.075-.79a1.412,1.412,0,0,0,.521.07.616.616,0,0,0,.54-.279A1.357,1.357,0,0,0,1.176.478V-5.043H.258v-.768h.918v-.645a2.015,2.015,0,0,1,.481-1.4,1.734,1.734,0,0,1,1.335-.5,3.274,3.274,0,0,1,.768.112l-.118.785a2.124,2.124,0,0,0-.526-.054q-.918,0-.94,1.051v.657h1.09ZM4.458-3.174a8.3,8.3,0,0,1,.325-2.331,6.772,6.772,0,0,1,.969-2.03A4.124,4.124,0,0,1,7.09-8.825l.2.655A4.278,4.278,0,0,0,6.008-6.333a7.963,7.963,0,0,0-.551,2.766l-.005.457a8,8,0,0,0,.757,3.6A4.3,4.3,0,0,0,7.294,1.917l-.2.607A4.257,4.257,0,0,1,5.726,1.192,7.466,7.466,0,0,1,4.458-3.174Zm5.747-.516,1.289-2.122h1.16l-1.9,2.874L12.713,0H11.564L10.221-2.175,8.878,0H7.724l1.96-2.938-1.9-2.874H8.932Zm5.8.569a8.308,8.308,0,0,1-.314,2.3A6.79,6.79,0,0,1,14.725,1.2a4.212,4.212,0,0,1-1.356,1.321l-.209-.607A4.318,4.318,0,0,0,14.489-.051,8.516,8.516,0,0,0,15-3.013v-.172a8.842,8.842,0,0,0-.236-2.1,7.079,7.079,0,0,0-.658-1.738,4.013,4.013,0,0,0-.948-1.2l.209-.607a4.2,4.2,0,0,1,1.351,1.311,6.8,6.8,0,0,1,.961,2.025A8.5,8.5,0,0,1,16-3.121Z" transform="translate(1000.253 4938.146)" fill="#12263f"/>
    <path id="Trazado_197178" data-name="Trazado 197178" d="M-8279.633-10154h22.38" transform="translate(9424.885 15157.971)" fill="none" stroke="#12263f" stroke-width="1"/>
    <path id="Trazado_197182" data-name="Trazado 197182" d="M-8279.633-10154h22.38" transform="translate(9279.893 15315.174)" fill="none" stroke="#12263f" stroke-width="1"/>
    <path id="Trazado_197183" data-name="Trazado 197183" d="M-8279.633-10154h22.38" transform="translate(9383.301 15315.174)" fill="none" stroke="#12263f" stroke-width="1"/>
    <path id="Trazado_197179" data-name="Trazado 197179" d="M-8279.633-10154h22.38" transform="translate(9538.18 15157.971)" fill="none" stroke="#12263f" stroke-width="1"/>
    <path id="Trazado_705018" data-name="Trazado 705018" d="M6.824,0H.768V-.844L3.967-4.4A7.6,7.6,0,0,0,4.948-5.71a2.188,2.188,0,0,0,.27-1.044A1.658,1.658,0,0,0,4.78-7.941,1.531,1.531,0,0,0,3.612-8.4a1.814,1.814,0,0,0-1.362.5,1.9,1.9,0,0,0-.486,1.387H.59a2.726,2.726,0,0,1,.822-2.063,3.047,3.047,0,0,1,2.2-.787,2.928,2.928,0,0,1,2.038.676,2.306,2.306,0,0,1,.749,1.8,5.287,5.287,0,0,1-1.739,3.25L2.184-.958h4.64Z" transform="translate(1151.622 5015.262)" fill="#12263f"/>
    <path id="Trazado_705019" data-name="Trazado 705019" d="M6.824,0H.768V-.844L3.967-4.4A7.6,7.6,0,0,0,4.948-5.71a2.188,2.188,0,0,0,.27-1.044A1.658,1.658,0,0,0,4.78-7.941,1.531,1.531,0,0,0,3.612-8.4a1.814,1.814,0,0,0-1.362.5,1.9,1.9,0,0,0-.486,1.387H.59a2.726,2.726,0,0,1,.822-2.063,3.047,3.047,0,0,1,2.2-.787,2.928,2.928,0,0,1,2.038.676,2.306,2.306,0,0,1,.749,1.8,5.287,5.287,0,0,1-1.739,3.25L2.184-.958h4.64Z" transform="translate(1006.629 5172.465)" fill="#12263f"/>
    <path id="Trazado_705020" data-name="Trazado 705020" d="M6.824,0H.768V-.844L3.967-4.4A7.6,7.6,0,0,0,4.948-5.71a2.188,2.188,0,0,0,.27-1.044A1.658,1.658,0,0,0,4.78-7.941,1.531,1.531,0,0,0,3.612-8.4a1.814,1.814,0,0,0-1.362.5,1.9,1.9,0,0,0-.486,1.387H.59a2.726,2.726,0,0,1,.822-2.063,3.047,3.047,0,0,1,2.2-.787,2.928,2.928,0,0,1,2.038.676,2.306,2.306,0,0,1,.749,1.8,5.287,5.287,0,0,1-1.739,3.25L2.184-.958h4.64Z" transform="translate(1110.037 5172.465)" fill="#12263f"/>
    <path id="Trazado_705021" data-name="Trazado 705021" d="M6.824,0H.768V-.844L3.967-4.4A7.6,7.6,0,0,0,4.948-5.71a2.188,2.188,0,0,0,.27-1.044A1.658,1.658,0,0,0,4.78-7.941,1.531,1.531,0,0,0,3.612-8.4a1.814,1.814,0,0,0-1.362.5,1.9,1.9,0,0,0-.486,1.387H.59a2.726,2.726,0,0,1,.822-2.063,3.047,3.047,0,0,1,2.2-.787,2.928,2.928,0,0,1,2.038.676,2.306,2.306,0,0,1,.749,1.8,5.287,5.287,0,0,1-1.739,3.25L2.184-.958h4.64Z" transform="translate(1264.917 5015.262)" fill="#12263f"/>
    <path id="Trazado_705022" data-name="Trazado 705022" d="M4.627,0H3.447V-7.827l-2.368.87V-8.023L4.443-9.287h.184Z" transform="translate(1151.622 4996.627)" fill="#12263f"/>
    <path id="Trazado_705023" data-name="Trazado 705023" d="M4.627,0H3.447V-7.827l-2.368.87V-8.023L4.443-9.287h.184Z" transform="translate(1006.629 5153.831)" fill="#12263f"/>
    <path id="Trazado_705024" data-name="Trazado 705024" d="M4.627,0H3.447V-7.827l-2.368.87V-8.023L4.443-9.287h.184Z" transform="translate(1110.037 5153.831)" fill="#12263f"/>
    <path id="Trazado_705025" data-name="Trazado 705025" d="M4.627,0H3.447V-7.827l-2.368.87V-8.023L4.443-9.287h.184Z" transform="translate(1264.917 4996.627)" fill="#12263f"/>
    <path id="Trazado_197180" data-name="Trazado 197180" d="M-7708.483-9236.324c-1.894-.553,0,116.481,0,116.481h27.052V-9190.3S-7706.589-9235.771-7708.483-9236.324Z" transform="translate(8759.309 14243.895)" fill="#12263f"/>
    <path id="Trazado_705026" data-name="Trazado 705026" d="M0,0H3.238V9.713H0Z" transform="translate(1047.818 5119.168)" fill="#ff8578"/>
    <path id="Trazado_705027" data-name="Trazado 705027" d="M0,0H3.238V9.713H0Z" transform="translate(1077.766 5119.168)" fill="#ff8578"/>
    <path id="Trazado_197181" data-name="Trazado 197181" d="M-7675-9215.523l17.143-27.7" transform="translate(8752.768 14241.608)" fill="none" stroke="#12263f" stroke-width="3"/>
    <path id="Trazado_705028" data-name="Trazado 705028" d="M5.6,0l5.6,10.077H0Z" transform="matrix(-0.809, -0.588, 0.588, -0.809, 1079.334, 5033.453)" fill="#12263f"/>
  </g>
</svg>
