<svg xmlns="http://www.w3.org/2000/svg" width="902.063" height="457.988" viewBox="0 0 902.063 457.988">
  <g id="Grupo_165619" data-name="Grupo 165619" transform="translate(-215 -21514.025)">
    <path id="Trazado_177537" data-name="Trazado 177537" d="M-8132.458,10025.674c64.93-.468-200.331,0-200.331,0s41.411-16.8,86.105-81.924S-8197.388,10026.141-8132.458,10025.674Z" transform="translate(8573.443 11735.956)" fill="#ad84ff"/>
    <path id="Trazado_177538" data-name="Trazado 177538" d="M-8371.82,10077.049h281.854" transform="translate(8586.82 11684.582)" fill="none" stroke="#12263f" stroke-width="1"/>
    <path id="Trazado_177539" data-name="Trazado 177539" d="M-8330.744,10053.252v-75.967" transform="translate(8572.904 11718.773)" fill="none" stroke="#12263f" stroke-width="1"/>
    <path id="Trazado_705292" data-name="Trazado 705292" d="M5.587,0l5.587,9.859H0Z" transform="translate(236.572 21689.299)" fill="#12263f"/>
    <path id="Trazado_177540" data-name="Trazado 177540" d="M-8330.744,10095.925v-118.64" transform="translate(8695.158 11678.021)" fill="none" stroke="#12263f" stroke-width="1"/>
    <path id="Trazado_705293" data-name="Trazado 705293" d="M5.587,0l5.587,9.859H0Z" transform="translate(358.826 21648.547)" fill="#12263f"/>
    <path id="Trazado_705294" data-name="Trazado 705294" d="M5.587,0l5.587,9.859H0Z" transform="translate(370 21776.059) rotate(180)" fill="#12263f"/>
    <path id="Trazado_177541" data-name="Trazado 177541" d="M-8330.744,10095.925v-118.64" transform="translate(8682.012 11678.021)" fill="none" stroke="#12263f" stroke-width="1"/>
    <path id="Trazado_705295" data-name="Trazado 705295" d="M5.587,0l5.587,9.859H0Z" transform="translate(500.141 21756.34) rotate(90)" fill="#12263f"/>
    <path id="Trazado_705296" data-name="Trazado 705296" d="M3.93-5.367,5.8-8.453H7.492L4.727-4.273,7.578,0H5.906L3.953-3.164,2,0H.32L3.172-4.273.406-8.453H2.078Z" transform="translate(504.742 21768.025)" fill="#12263f"/>
    <path id="Trazado_705297" data-name="Trazado 705297" d="M6.313-.836A3.07,3.07,0,0,1,3.836.156,2.628,2.628,0,0,1,1.777-.629a3.4,3.4,0,0,1-.715-2.324v-5.5H2.508v5.461q0,1.922,1.563,1.922A2.163,2.163,0,0,0,6.273-2.3V-8.453H7.719V0H6.344Z" transform="translate(374.602 21776.885)" fill="#12263f"/>
    <path id="Trazado_177542" data-name="Trazado 177542" d="M-8132.458,10025.674c64.93-.468-200.331,0-200.331,0s41.411-16.8,86.105-81.924S-8197.388,10026.141-8132.458,10025.674Z" transform="translate(8888.443 11619.929)" fill="#81ffff"/>
    <path id="Trazado_177543" data-name="Trazado 177543" d="M-8371.82,10077.049h281.854" transform="translate(8901.82 11568.555)" fill="none" stroke="#12263f" stroke-width="1"/>
    <g id="Grupo_165612" data-name="Grupo 165612">
      <path id="Trazado_177544" data-name="Trazado 177544" d="M-8330.744,10052.611v-75.326" transform="translate(8887.904 11602.746)" fill="none" stroke="#12263f" stroke-width="1"/>
      <path id="Polígono_13" data-name="Polígono 13" d="M5.587,0l5.587,9.859H0Z" transform="translate(551.572 21573.271)" fill="#12263f"/>
    </g>
    <g id="Grupo_165609" data-name="Grupo 165609" transform="translate(-18.477 19)">
      <path id="Trazado_177545" data-name="Trazado 177545" d="M-8330.744,10095.925v-118.64" transform="translate(9010.158 11542.994)" fill="none" stroke="#12263f" stroke-width="1"/>
      <path id="Polígono_14" data-name="Polígono 14" d="M5.587,0l5.587,9.859H0Z" transform="translate(673.826 21513.52)" fill="#12263f"/>
      <path id="Polígono_15" data-name="Polígono 15" d="M5.587,0l5.587,9.859H0Z" transform="translate(685 21641.031) rotate(180)" fill="#12263f"/>
    </g>
    <path id="Trazado_705298" data-name="Trazado 705298" d="M5.587,0l5.587,9.859H0Z" transform="translate(815.141 21640.313) rotate(90)" fill="#12263f"/>
    <path id="Trazado_705299" data-name="Trazado 705299" d="M3.93-5.367,5.8-8.453H7.492L4.727-4.273,7.578,0H5.906L3.953-3.164,2,0H.32L3.172-4.273.406-8.453H2.078Z" transform="translate(819.742 21651.998)" fill="#12263f"/>
    <path id="Trazado_705300" data-name="Trazado 705300" d="M6.313-.836A3.07,3.07,0,0,1,3.836.156,2.628,2.628,0,0,1,1.777-.629a3.4,3.4,0,0,1-.715-2.324v-5.5H2.508v5.461q0,1.922,1.563,1.922A2.163,2.163,0,0,0,6.273-2.3V-8.453H7.719V0H6.344Z" transform="translate(676 21660.857)" fill="#12263f"/>
    <path id="Trazado_705301" data-name="Trazado 705301" d="M3.133-4.219V0H1.156V-11.375H5.508a4.4,4.4,0,0,1,3.027.993A3.34,3.34,0,0,1,9.656-7.754a3.229,3.229,0,0,1-1.1,2.6,4.613,4.613,0,0,1-3.074.931Zm0-1.594H5.508a2.339,2.339,0,0,0,1.609-.5,1.823,1.823,0,0,0,.555-1.434,1.967,1.967,0,0,0-.562-1.473,2.168,2.168,0,0,0-1.547-.566H3.133ZM10.742-4.3a4.984,4.984,0,0,1,.492-2.238,3.6,3.6,0,0,1,1.383-1.531,3.9,3.9,0,0,1,2.047-.535,3.692,3.692,0,0,1,2.777,1.1,4.333,4.333,0,0,1,1.152,2.922l.008.445a5.029,5.029,0,0,1-.48,2.234A3.551,3.551,0,0,1,16.746-.383,3.925,3.925,0,0,1,14.68.156a3.667,3.667,0,0,1-2.863-1.191,4.563,4.563,0,0,1-1.074-3.176Zm1.9.164A3.406,3.406,0,0,0,13.18-2.1a1.752,1.752,0,0,0,1.5.738,1.733,1.733,0,0,0,1.5-.75,3.762,3.762,0,0,0,.535-2.2,3.362,3.362,0,0,0-.551-2.031,1.759,1.759,0,0,0-1.5-.75,1.743,1.743,0,0,0-1.477.738A3.691,3.691,0,0,0,12.641-4.141Zm14.984,0a5.078,5.078,0,0,1-.879,3.133A2.863,2.863,0,0,1,24.328.156a2.758,2.758,0,0,1-2.312-1.07L21.922,0H20.2V-12h1.9v4.359a2.748,2.748,0,0,1,2.211-.969,2.9,2.9,0,0,1,2.43,1.148,5.162,5.162,0,0,1,.883,3.211Zm-1.9-.164a3.589,3.589,0,0,0-.484-2.062,1.613,1.613,0,0,0-1.406-.687A1.763,1.763,0,0,0,22.1-5.977v3.484a1.781,1.781,0,0,0,1.75,1.1,1.6,1.6,0,0,0,1.375-.664,3.477,3.477,0,0,0,.5-2.008ZM31.234,0h-1.9V-12h1.9Zm7.117,0a2.93,2.93,0,0,1-.219-.789,2.955,2.955,0,0,1-2.219.945A2.982,2.982,0,0,1,33.836-.57a2.325,2.325,0,0,1-.8-1.8,2.4,2.4,0,0,1,1-2.074,4.865,4.865,0,0,1,2.871-.723H38.07v-.555A1.481,1.481,0,0,0,37.7-6.77a1.456,1.456,0,0,0-1.117-.395,1.672,1.672,0,0,0-1.062.324,1,1,0,0,0-.414.824h-1.9a2.107,2.107,0,0,1,.461-1.3,3.071,3.071,0,0,1,1.254-.949,4.4,4.4,0,0,1,1.77-.344,3.547,3.547,0,0,1,2.367.746,2.661,2.661,0,0,1,.906,2.1v3.813a4.321,4.321,0,0,0,.32,1.82V0ZM36.266-1.367a2.16,2.16,0,0,0,1.059-.273,1.827,1.827,0,0,0,.746-.734V-3.969H37.047a2.8,2.8,0,0,0-1.586.367,1.189,1.189,0,0,0-.531,1.039,1.109,1.109,0,0,0,.363.871A1.407,1.407,0,0,0,36.266-1.367Zm9.164.008a1.716,1.716,0,0,0,1.18-.414,1.415,1.415,0,0,0,.5-1.023H48.9a2.789,2.789,0,0,1-.492,1.473,3.228,3.228,0,0,1-1.25,1.082,3.725,3.725,0,0,1-1.7.4A3.6,3.6,0,0,1,42.641-.992,4.555,4.555,0,0,1,41.6-4.164v-.2a4.479,4.479,0,0,1,1.031-3.09,3.571,3.571,0,0,1,2.813-1.16A3.473,3.473,0,0,1,47.9-7.73a3.148,3.148,0,0,1,1,2.309H47.109a1.738,1.738,0,0,0-.5-1.2,1.6,1.6,0,0,0-1.184-.469,1.671,1.671,0,0,0-1.422.668A3.408,3.408,0,0,0,43.5-4.391v.3A3.465,3.465,0,0,0,44-2.035,1.669,1.669,0,0,0,45.43-1.359ZM52.352,0h-1.9V-8.453h1.9ZM50.336-10.648a1.008,1.008,0,0,1,.277-.727,1.048,1.048,0,0,1,.793-.289,1.061,1.061,0,0,1,.8.289,1,1,0,0,1,.281.727.977.977,0,0,1-.281.715,1.069,1.069,0,0,1-.8.285,1.056,1.056,0,0,1-.793-.285A.984.984,0,0,1,50.336-10.648ZM54.063-4.3a4.984,4.984,0,0,1,.492-2.238,3.6,3.6,0,0,1,1.383-1.531,3.9,3.9,0,0,1,2.047-.535,3.692,3.692,0,0,1,2.777,1.1,4.333,4.333,0,0,1,1.152,2.922l.008.445a5.029,5.029,0,0,1-.48,2.234A3.551,3.551,0,0,1,60.066-.383,3.925,3.925,0,0,1,58,.156a3.667,3.667,0,0,1-2.863-1.191,4.563,4.563,0,0,1-1.074-3.176Zm1.9.164A3.406,3.406,0,0,0,56.5-2.1a1.752,1.752,0,0,0,1.5.738,1.733,1.733,0,0,0,1.5-.75,3.762,3.762,0,0,0,.535-2.2,3.362,3.362,0,0,0-.551-2.031,1.759,1.759,0,0,0-1.5-.75,1.743,1.743,0,0,0-1.477.738A3.691,3.691,0,0,0,55.961-4.141ZM58.508-12h2.164L58.508-9.633l-1.523,0Zm6.781,3.547.055.977A3.039,3.039,0,0,1,67.8-8.609q2.641,0,2.688,3.023V0h-1.9V-5.477a1.741,1.741,0,0,0-.348-1.191,1.462,1.462,0,0,0-1.137-.387A1.829,1.829,0,0,0,65.4-6.016V0H63.5V-8.453Z" transform="translate(623.016 21526.025)" fill="#12263f"/>
    <path id="Trazado_177546" data-name="Trazado 177546" d="M-8203.731,10025.674c41.829-.468-129.058,0-129.058,0s26.679-16.8,55.472-81.924S-8245.561,10026.141-8203.731,10025.674Z" transform="translate(8924.789 11930.929)" fill="#bbe1ff"/>
    <path id="Trazado_177547" data-name="Trazado 177547" d="M-8371.82,10077.049h281.854" transform="translate(8901.82 11879.555)" fill="none" stroke="#12263f" stroke-width="1"/>
    <path id="Trazado_177548" data-name="Trazado 177548" d="M-8330.744,10052.611v-75.326" transform="translate(8887.904 11913.746)" fill="none" stroke="#12263f" stroke-width="1"/>
    <path id="Trazado_705302" data-name="Trazado 705302" d="M5.587,0l5.587,9.859H0Z" transform="translate(551.572 21884.271)" fill="#12263f"/>
    <g id="Grupo_165610" data-name="Grupo 165610" transform="translate(-18.477 330)">
      <path id="Trazado_177545-2" data-name="Trazado 177545" d="M-8330.744,10095.925v-118.64" transform="translate(9010.158 11542.994)" fill="none" stroke="#12263f" stroke-width="1"/>
      <path id="Polígono_14-2" data-name="Polígono 14" d="M5.587,0l5.587,9.859H0Z" transform="translate(673.826 21513.52)" fill="#12263f"/>
      <path id="Polígono_15-2" data-name="Polígono 15" d="M5.587,0l5.587,9.859H0Z" transform="translate(685 21641.031) rotate(180)" fill="#12263f"/>
    </g>
    <path id="Trazado_705303" data-name="Trazado 705303" d="M5.587,0l5.587,9.859H0Z" transform="translate(815.141 21951.313) rotate(90)" fill="#12263f"/>
    <path id="Trazado_705304" data-name="Trazado 705304" d="M3.93-5.367,5.8-8.453H7.492L4.727-4.273,7.578,0H5.906L3.953-3.164,2,0H.32L3.172-4.273.406-8.453H2.078ZM11.252,5H10.4V-.619L8.7.005V-.76l2.415-.907h.132Z" transform="translate(819.742 21962.998)" fill="#12263f"/>
    <path id="Trazado_705305" data-name="Trazado 705305" d="M6.313-.836A3.07,3.07,0,0,1,3.836.156,2.628,2.628,0,0,1,1.777-.629a3.4,3.4,0,0,1-.715-2.324v-5.5H2.508v5.461q0,1.922,1.563,1.922A2.163,2.163,0,0,0,6.273-2.3V-8.453H7.719V0H6.344Z" transform="translate(676 21971.857)" fill="#12263f"/>
    <path id="Trazado_177549" data-name="Trazado 177549" d="M-8132.458,10025.674c64.93-.468-200.331,0-200.331,0s41.411-16.8,86.105-81.924S-8197.388,10026.141-8132.458,10025.674Z" transform="translate(9178.186 11735.956)" fill="#ad84ff"/>
    <path id="Trazado_177550" data-name="Trazado 177550" d="M-8371.82,10077.049h281.854" transform="translate(9191.563 11684.582)" fill="none" stroke="#12263f" stroke-width="1"/>
    <g id="Grupo_165617" data-name="Grupo 165617">
      <path id="Trazado_177551" data-name="Trazado 177551" d="M-8330.744,10052.355v-75.07" transform="translate(9177.646 11718.773)" fill="none" stroke="#12263f" stroke-width="1"/>
      <path id="Polígono_19" data-name="Polígono 19" d="M5.587,0l5.587,9.859H0Z" transform="translate(841.314 21689.299)" fill="#12263f"/>
    </g>
    <g id="Grupo_165611" data-name="Grupo 165611" transform="translate(-115.85)">
      <path id="Trazado_177552" data-name="Trazado 177552" d="M-8330.744,10095.925v-118.64" transform="translate(9392.416 11678.021)" fill="none" stroke="#12263f" stroke-width="1"/>
      <path id="Polígono_20" data-name="Polígono 20" d="M5.587,0l5.587,9.859H0Z" transform="translate(1056.084 21648.547)" fill="#12263f"/>
      <path id="Polígono_21" data-name="Polígono 21" d="M5.587,0l5.587,9.859H0Z" transform="translate(1067.258 21776.059) rotate(180)" fill="#12263f"/>
    </g>
    <path id="Trazado_177553" data-name="Trazado 177553" d="M-8330.744,10095.925v-118.64" transform="translate(9288.754 11678.021)" fill="none" stroke="#12263f" stroke-width="1"/>
    <path id="Trazado_705306" data-name="Trazado 705306" d="M5.587,0l5.587,9.859H0Z" transform="translate(1104.883 21756.34) rotate(90)" fill="#12263f"/>
    <path id="Trazado_705307" data-name="Trazado 705307" d="M3.93-5.367,5.8-8.453H7.492L4.727-4.273,7.578,0H5.906L3.953-3.164,2,0H.32L3.172-4.273.406-8.453H2.078Z" transform="translate(1109.484 21768.025)" fill="#12263f"/>
    <path id="Trazado_705308" data-name="Trazado 705308" d="M6.313-.836A3.07,3.07,0,0,1,3.836.156,2.628,2.628,0,0,1,1.777-.629a3.4,3.4,0,0,1-.715-2.324v-5.5H2.508v5.461q0,1.922,1.563,1.922A2.163,2.163,0,0,0,6.273-2.3V-8.453H7.719V0H6.344Z" transform="translate(927.484 21776.885)" fill="#12263f"/>
    <path id="Trazado_705309" data-name="Trazado 705309" d="M3.719-11.375,7-2.656l3.273-8.719h2.555V0H10.859V-3.75l.2-5.016L7.7,0H6.281L2.93-8.758l.2,5.008V0H1.156V-11.375ZM20.1-.828a2.944,2.944,0,0,1-2.375.984,2.624,2.624,0,0,1-2.082-.8,3.423,3.423,0,0,1-.707-2.328V-8.453h1.9V-3q0,1.609,1.336,1.609a1.876,1.876,0,0,0,1.867-.992v-6.07h1.9V0H20.148Zm7.492.984A3.928,3.928,0,0,1,24.668-.98a4.124,4.124,0,0,1-1.121-3.027v-.234A5.072,5.072,0,0,1,24.035-6.5a3.716,3.716,0,0,1,1.371-1.551,3.625,3.625,0,0,1,1.969-.555,3.318,3.318,0,0,1,2.668,1.1,4.658,4.658,0,0,1,.941,3.117v.766H25.461a2.539,2.539,0,0,0,.7,1.656,2.1,2.1,0,0,0,1.543.609,2.571,2.571,0,0,0,2.125-1.055l1.023.977A3.418,3.418,0,0,1,29.5-.262,4.244,4.244,0,0,1,27.594.156Zm-.227-7.242a1.6,1.6,0,0,0-1.262.547,2.835,2.835,0,0,0-.613,1.523h3.617v-.141A2.307,2.307,0,0,0,28.6-6.6,1.586,1.586,0,0,0,27.367-7.086ZM37.2-2.3a.861.861,0,0,0-.418-.773,4.445,4.445,0,0,0-1.387-.469,7.129,7.129,0,0,1-1.617-.516,2.158,2.158,0,0,1-1.422-1.992,2.25,2.25,0,0,1,.922-1.828,3.644,3.644,0,0,1,2.344-.734,3.792,3.792,0,0,1,2.449.75A2.38,2.38,0,0,1,39-5.914H37.1a1.17,1.17,0,0,0-.406-.91,1.557,1.557,0,0,0-1.078-.363A1.682,1.682,0,0,0,34.6-6.9a.911.911,0,0,0-.395.773.769.769,0,0,0,.367.68,5.049,5.049,0,0,0,1.484.488,7.027,7.027,0,0,1,1.754.586,2.484,2.484,0,0,1,.945.816A2.082,2.082,0,0,1,39.063-2.4a2.2,2.2,0,0,1-.945,1.848,4.031,4.031,0,0,1-2.477.707,4.371,4.371,0,0,1-1.852-.375A3.047,3.047,0,0,1,32.523-1.25a2.441,2.441,0,0,1-.453-1.414h1.844a1.338,1.338,0,0,0,.508,1.035,1.973,1.973,0,0,0,1.242.363A1.92,1.92,0,0,0,36.8-1.551.883.883,0,0,0,37.2-2.3Zm5.9-8.211v2.055h1.492v1.406H43.094v4.719a1.039,1.039,0,0,0,.191.7.888.888,0,0,0,.684.215,2.924,2.924,0,0,0,.664-.078V-.023a4.676,4.676,0,0,1-1.25.18Q41.2.156,41.2-2.258V-7.047H39.8V-8.453H41.2v-2.055Zm7.367,3.789a4.7,4.7,0,0,0-.773-.062,1.741,1.741,0,0,0-1.758,1V0h-1.9V-8.453h1.813l.047.945a2.139,2.139,0,0,1,1.906-1.1,1.777,1.777,0,0,1,.672.109ZM56.477,0a2.93,2.93,0,0,1-.219-.789,2.955,2.955,0,0,1-2.219.945A2.982,2.982,0,0,1,51.961-.57a2.325,2.325,0,0,1-.8-1.8,2.4,2.4,0,0,1,1-2.074,4.865,4.865,0,0,1,2.871-.723H56.2v-.555a1.481,1.481,0,0,0-.367-1.051,1.456,1.456,0,0,0-1.117-.395,1.672,1.672,0,0,0-1.062.324,1,1,0,0,0-.414.824h-1.9a2.107,2.107,0,0,1,.461-1.3,3.071,3.071,0,0,1,1.254-.949,4.4,4.4,0,0,1,1.77-.344,3.547,3.547,0,0,1,2.367.746,2.661,2.661,0,0,1,.906,2.1v3.813a4.321,4.321,0,0,0,.32,1.82V0ZM54.391-1.367a2.16,2.16,0,0,0,1.059-.273,1.827,1.827,0,0,0,.746-.734V-3.969H55.172a2.8,2.8,0,0,0-1.586.367,1.189,1.189,0,0,0-.531,1.039,1.109,1.109,0,0,0,.363.871A1.407,1.407,0,0,0,54.391-1.367ZM64.82-2.3A.861.861,0,0,0,64.4-3.07a4.445,4.445,0,0,0-1.387-.469A7.129,7.129,0,0,1,61.4-4.055a2.158,2.158,0,0,1-1.422-1.992A2.25,2.25,0,0,1,60.9-7.875a3.644,3.644,0,0,1,2.344-.734,3.792,3.792,0,0,1,2.449.75,2.38,2.38,0,0,1,.934,1.945h-1.9a1.17,1.17,0,0,0-.406-.91,1.557,1.557,0,0,0-1.078-.363,1.682,1.682,0,0,0-1.02.289.911.911,0,0,0-.395.773.769.769,0,0,0,.367.68,5.049,5.049,0,0,0,1.484.488,7.027,7.027,0,0,1,1.754.586,2.484,2.484,0,0,1,.945.816A2.082,2.082,0,0,1,66.688-2.4a2.2,2.2,0,0,1-.945,1.848,4.031,4.031,0,0,1-2.477.707,4.371,4.371,0,0,1-1.852-.375A3.047,3.047,0,0,1,60.148-1.25,2.441,2.441,0,0,1,59.7-2.664h1.844a1.338,1.338,0,0,0,.508,1.035,1.973,1.973,0,0,0,1.242.363,1.92,1.92,0,0,0,1.141-.285A.883.883,0,0,0,64.82-2.3Zm7.148-1.992a5.026,5.026,0,0,1,.906-3.137A2.9,2.9,0,0,1,75.3-8.609a2.759,2.759,0,0,1,2.172.938V-12h1.9V0H77.656l-.094-.875A2.8,2.8,0,0,1,75.289.156a2.887,2.887,0,0,1-2.4-1.2A5.21,5.21,0,0,1,71.969-4.289Zm1.9.164a3.519,3.519,0,0,0,.5,2.012,1.61,1.61,0,0,0,1.41.723,1.793,1.793,0,0,0,1.7-1.039V-6.039a1.766,1.766,0,0,0-1.687-1.016,1.622,1.622,0,0,0-1.422.73A3.918,3.918,0,0,0,73.867-4.125ZM85.078.156A3.928,3.928,0,0,1,82.152-.98a4.124,4.124,0,0,1-1.121-3.027v-.234A5.072,5.072,0,0,1,81.52-6.5a3.716,3.716,0,0,1,1.371-1.551,3.625,3.625,0,0,1,1.969-.555,3.318,3.318,0,0,1,2.668,1.1,4.658,4.658,0,0,1,.941,3.117v.766H82.945a2.539,2.539,0,0,0,.7,1.656,2.1,2.1,0,0,0,1.543.609,2.571,2.571,0,0,0,2.125-1.055l1.023.977A3.418,3.418,0,0,1,86.98-.262,4.244,4.244,0,0,1,85.078.156Zm-.227-7.242a1.6,1.6,0,0,0-1.262.547,2.835,2.835,0,0,0-.613,1.523h3.617v-.141A2.307,2.307,0,0,0,86.086-6.6,1.586,1.586,0,0,0,84.852-7.086Zm17.008-2.7H98.313V0H96.352V-9.781H92.836v-1.594h9.023ZM106.906,0a2.93,2.93,0,0,1-.219-.789,2.955,2.955,0,0,1-2.219.945,2.982,2.982,0,0,1-2.078-.727,2.325,2.325,0,0,1-.8-1.8,2.4,2.4,0,0,1,1-2.074,4.865,4.865,0,0,1,2.871-.723h1.164v-.555a1.481,1.481,0,0,0-.367-1.051,1.456,1.456,0,0,0-1.117-.395,1.672,1.672,0,0,0-1.062.324,1,1,0,0,0-.414.824h-1.9a2.107,2.107,0,0,1,.461-1.3,3.071,3.071,0,0,1,1.254-.949,4.4,4.4,0,0,1,1.77-.344,3.547,3.547,0,0,1,2.367.746,2.661,2.661,0,0,1,.906,2.1v3.813a4.321,4.321,0,0,0,.32,1.82V0ZM104.82-1.367a2.159,2.159,0,0,0,1.059-.273,1.827,1.827,0,0,0,.746-.734V-3.969H105.6a2.8,2.8,0,0,0-1.586.367,1.189,1.189,0,0,0-.531,1.039,1.109,1.109,0,0,0,.363.871A1.407,1.407,0,0,0,104.82-1.367ZM112.3-8.453l.055.883a3.042,3.042,0,0,1,2.438-1.039,2.337,2.337,0,0,1,2.32,1.3,3,3,0,0,1,2.594-1.3,2.636,2.636,0,0,1,2.082.773,3.405,3.405,0,0,1,.7,2.281V0h-1.9V-5.5a1.681,1.681,0,0,0-.352-1.18,1.539,1.539,0,0,0-1.164-.375,1.581,1.581,0,0,0-1.059.348,1.833,1.833,0,0,0-.574.91l.008,5.8h-1.9V-5.562a1.354,1.354,0,0,0-1.523-1.492,1.671,1.671,0,0,0-1.617.93V0h-1.9V-8.453ZM129.484,0a2.93,2.93,0,0,1-.219-.789,2.955,2.955,0,0,1-2.219.945,2.982,2.982,0,0,1-2.078-.727,2.325,2.325,0,0,1-.8-1.8,2.4,2.4,0,0,1,1-2.074,4.865,4.865,0,0,1,2.871-.723H129.2v-.555a1.481,1.481,0,0,0-.367-1.051,1.456,1.456,0,0,0-1.117-.395,1.672,1.672,0,0,0-1.062.324,1,1,0,0,0-.414.824h-1.9a2.107,2.107,0,0,1,.461-1.3,3.071,3.071,0,0,1,1.254-.949,4.4,4.4,0,0,1,1.77-.344,3.547,3.547,0,0,1,2.367.746,2.661,2.661,0,0,1,.906,2.1v3.813a4.321,4.321,0,0,0,.32,1.82V0ZM127.4-1.367a2.16,2.16,0,0,0,1.059-.273,1.827,1.827,0,0,0,.746-.734V-3.969H128.18a2.8,2.8,0,0,0-1.586.367,1.189,1.189,0,0,0-.531,1.039,1.109,1.109,0,0,0,.363.871A1.407,1.407,0,0,0,127.4-1.367Zm7.453-7.086.055.977a3.039,3.039,0,0,1,2.461-1.133q2.641,0,2.688,3.023V0h-1.9V-5.477a1.741,1.741,0,0,0-.348-1.191,1.462,1.462,0,0,0-1.137-.387,1.829,1.829,0,0,0-1.711,1.039V0h-1.9V-8.453Zm4.609-3.375a2.1,2.1,0,0,1-.5,1.43,1.582,1.582,0,0,1-1.246.57,1.856,1.856,0,0,1-.527-.066,3.354,3.354,0,0,1-.633-.3,3.128,3.128,0,0,0-.578-.281,1.378,1.378,0,0,0-.371-.047.662.662,0,0,0-.5.223.821.821,0,0,0-.207.582l-1.164-.062a2.16,2.16,0,0,1,.5-1.445,1.557,1.557,0,0,1,1.238-.586,2.305,2.305,0,0,1,1.074.352,2.271,2.271,0,0,0,1.035.352.674.674,0,0,0,.508-.223.822.822,0,0,0,.211-.59ZM141.633-4.3a4.984,4.984,0,0,1,.492-2.238,3.6,3.6,0,0,1,1.383-1.531,3.9,3.9,0,0,1,2.047-.535,3.692,3.692,0,0,1,2.777,1.1,4.333,4.333,0,0,1,1.152,2.922l.008.445a5.029,5.029,0,0,1-.48,2.234,3.551,3.551,0,0,1-1.375,1.523,3.925,3.925,0,0,1-2.066.539,3.667,3.667,0,0,1-2.863-1.191,4.563,4.563,0,0,1-1.074-3.176Zm1.9.164A3.406,3.406,0,0,0,144.07-2.1a1.752,1.752,0,0,0,1.5.738,1.733,1.733,0,0,0,1.5-.75,3.762,3.762,0,0,0,.535-2.2,3.362,3.362,0,0,0-.551-2.031,1.759,1.759,0,0,0-1.5-.75,1.743,1.743,0,0,0-1.477.738A3.691,3.691,0,0,0,143.531-4.141ZM152.242-2a1.084,1.084,0,0,1,.82.3,1.045,1.045,0,0,1,.289.754,1.008,1.008,0,0,1-.289.738,1.1,1.1,0,0,1-.82.293,1.1,1.1,0,0,1-.8-.289.991.991,0,0,1-.3-.742,1.045,1.045,0,0,1,.289-.754A1.074,1.074,0,0,1,152.242-2Zm0-6.633a1.084,1.084,0,0,1,.82.3,1.045,1.045,0,0,1,.289.754,1.008,1.008,0,0,1-.289.738,1.1,1.1,0,0,1-.82.293,1.1,1.1,0,0,1-.8-.289.991.991,0,0,1-.3-.742,1.045,1.045,0,0,1,.289-.754A1.074,1.074,0,0,1,152.242-8.633ZM168.531,0h-1.977l-5.07-8.07V0h-1.977V-11.375h1.977l5.086,8.1v-8.1h1.961Z" transform="translate(573.516 21752.34)" fill="#12263f"/>
    <g id="Grupo_165613" data-name="Grupo 165613" transform="translate(-14339.648 37381.969) rotate(-135)">
      <path id="Trazado_177544-2" data-name="Trazado 177544" d="M-8330.744,10052.611v-75.326" transform="translate(8887.904 11602.746)" fill="none" stroke="#a7a7a7" stroke-width="1"/>
      <path id="Polígono_13-2" data-name="Polígono 13" d="M5.587,0l5.587,9.859H0Z" transform="translate(551.572 21573.271)" fill="#a8a8a8"/>
    </g>
    <g id="Grupo_165614" data-name="Grupo 165614" transform="translate(16238.85 36709.027) rotate(135)">
      <path id="Trazado_177544-3" data-name="Trazado 177544" d="M-8330.744,10052.611v-75.326" transform="translate(8887.904 11602.746)" fill="none" stroke="#a7a7a7" stroke-width="1"/>
      <path id="Polígono_13-3" data-name="Polígono 13" d="M5.587,0l5.587,9.859H0Z" transform="translate(551.572 21573.271)" fill="#a8a8a8"/>
    </g>
    <g id="Grupo_165615" data-name="Grupo 165615" transform="translate(732.252 21679.299) rotate(-45)">
      <path id="Trazado_177544-4" data-name="Trazado 177544" d="M0,0V75.325" transform="translate(5.588)" fill="none" stroke="#a7a7a7" stroke-width="1"/>
      <path id="Polígono_13-4" data-name="Polígono 13" d="M5.587,0l5.587,9.859H0Z" transform="translate(11.174 82.086) rotate(180)" fill="#a8a8a8"/>
    </g>
    <g id="Grupo_165616" data-name="Grupo 165616" transform="translate(785.694 21786.398) rotate(45)">
      <path id="Trazado_177544-5" data-name="Trazado 177544" d="M0,0V75.325" transform="translate(5.588)" fill="none" stroke="#a7a7a7" stroke-width="1"/>
      <path id="Polígono_13-5" data-name="Polígono 13" d="M5.587,0l5.587,9.859H0Z" transform="translate(11.174 82.086) rotate(180)" fill="#a8a8a8"/>
    </g>
    <g id="Grupo_165618" data-name="Grupo 165618" transform="translate(1507.838 43483.238) rotate(180)">
      <path id="Trazado_177551-2" data-name="Trazado 177551" d="M-8330.744,10052.355v-75.07" transform="translate(9177.646 11718.773)" fill="none" stroke="#c4c4c4" stroke-width="1"/>
      <path id="Polígono_19-2" data-name="Polígono 19" d="M5.587,0l5.587,9.859H0Z" transform="translate(841.314 21689.299)" fill="#ccc"/>
    </g>
    <path id="Trazado_177556" data-name="Trazado 177556" d="M11.452,0H9.229l-5.7-9.079V0H1.3V-12.8H3.524L9.246-3.683V-12.8h2.206Zm6.935-5.2a13.393,13.393,0,0,1,.545-3.854,10.578,10.578,0,0,1,1.6-3.261,6.351,6.351,0,0,1,2.232-2.017l.422,1.248a6.524,6.524,0,0,0-2.008,2.87A12.852,12.852,0,0,0,20.338-5.8l-.009.756a13.972,13.972,0,0,0,.751,4.75,7,7,0,0,0,2.1,3.177l-.422,1.187a6.362,6.362,0,0,1-2.237-2.026,10.577,10.577,0,0,1-1.6-3.261A13.921,13.921,0,0,1,18.387-5.2ZM34.875-.932A3.312,3.312,0,0,1,32.2.176a2.952,2.952,0,0,1-2.342-.905,3.851,3.851,0,0,1-.8-2.619V-9.51H31.2v6.135q0,1.811,1.5,1.811a2.111,2.111,0,0,0,2.1-1.116V-9.51H36.94V0H34.928Zm4.544,3.814L38.268,2.2A6.21,6.21,0,0,0,38.966.8a4.157,4.157,0,0,0,.2-1.208V-2.065h1.925L41.08-.527a4.287,4.287,0,0,1-.47,1.868A4.64,4.64,0,0,1,39.419,2.883Z" transform="translate(763.923 21897)" fill="#12263f"/>
    <path id="Trazado_177557" data-name="Trazado 177557" d="M11.514-6.064a7.851,7.851,0,0,1-.65,3.3A4.918,4.918,0,0,1,9-.584a5.113,5.113,0,0,1-2.782.76A5.125,5.125,0,0,1,3.45-.584,4.993,4.993,0,0,1,1.569-2.751,7.606,7.606,0,0,1,.9-5.994v-.721a7.784,7.784,0,0,1,.664-3.3,4.987,4.987,0,0,1,1.872-2.193,5.1,5.1,0,0,1,2.773-.76,5.142,5.142,0,0,1,2.773.751,4.924,4.924,0,0,1,1.868,2.162,7.767,7.767,0,0,1,.668,3.283ZM9.29-6.732a5.594,5.594,0,0,0-.8-3.261,2.631,2.631,0,0,0-2.281-1.134A2.623,2.623,0,0,0,3.951-10,5.486,5.486,0,0,0,3.12-6.8v.738A5.552,5.552,0,0,0,3.942-2.8,2.646,2.646,0,0,0,6.223-1.652,2.615,2.615,0,0,0,8.495-2.777a5.671,5.671,0,0,0,.8-3.287Z" transform="translate(819.674 21893.201)" fill="#12263f"/>
    <path id="Trazado_177554" data-name="Trazado 177554" d="M-8315.884,8036h24.243" transform="translate(9130.673 13860.201)" fill="none" stroke="#12263f" stroke-width="1"/>
    <path id="Trazado_177555" data-name="Trazado 177555" d="M-8312.862,8041l5.111,9.084,3.25-12.42h15.659" transform="translate(9126.651 13862.537)" fill="none" stroke="#12263f" stroke-linecap="round" stroke-width="1"/>
    <path id="Trazado_177558" data-name="Trazado 177558" d="M3.076-9.51l.062,1.1A3.419,3.419,0,0,1,5.906-9.686q2.971,0,3.023,3.4V0H6.794V-6.161A1.958,1.958,0,0,0,6.4-7.5a1.645,1.645,0,0,0-1.279-.435A2.058,2.058,0,0,0,3.2-6.768V0H1.063V-9.51Z" transform="translate(825.674 21913.201)" fill="#12263f"/>
    <path id="Trazado_177559" data-name="Trazado 177559" d="M5.353-5a12.8,12.8,0,0,1-.571,3.823A10.378,10.378,0,0,1,3.138,2.065,5.921,5.921,0,0,1,.844,4L.352,2.654A6.18,6.18,0,0,0,2.32-.246a13.431,13.431,0,0,0,.747-4.509v-.466a13.735,13.735,0,0,0-.716-4.632,6.442,6.442,0,0,0-2-3.006L.844-14.2A5.923,5.923,0,0,1,3.1-12.322,10.244,10.244,0,0,1,4.742-9.149,12.708,12.708,0,0,1,5.353-5.4Z" transform="translate(846.923 21897)" fill="#12263f"/>
  </g>
</svg>
