<svg xmlns="http://www.w3.org/2000/svg" width="295" height="81" viewBox="0 0 295 81">
  <g id="Grupo_974148" data-name="Grupo 974148" transform="translate(-180.995 -4012.762)">
    <rect id="Rectángulo_339752" data-name="Rectángulo 339752" width="295" height="81" rx="10" transform="translate(180.995 4012.762)" fill="#7125c8"/>
    <path id="Trazado_705324" data-name="Trazado 705324" d="M3.524-4.746V0H1.3V-12.8H6.2A4.95,4.95,0,0,1,9.6-11.679a3.757,3.757,0,0,1,1.261,2.956,3.633,3.633,0,0,1-1.235,2.93A5.19,5.19,0,0,1,6.17-4.746Zm0-1.793H6.2A2.632,2.632,0,0,0,8.007-7.1,2.051,2.051,0,0,0,8.631-8.71,2.213,2.213,0,0,0,8-10.367,2.439,2.439,0,0,0,6.258-11H3.524ZM17.112-5.2a13.393,13.393,0,0,1,.545-3.854,10.578,10.578,0,0,1,1.6-3.261,6.351,6.351,0,0,1,2.232-2.017l.422,1.248a6.524,6.524,0,0,0-2.008,2.87A12.852,12.852,0,0,0,19.063-5.8l-.009.756a13.972,13.972,0,0,0,.751,4.75,7,7,0,0,0,2.1,3.177l-.422,1.187a6.362,6.362,0,0,1-2.237-2.026,10.577,10.577,0,0,1-1.6-3.261A13.921,13.921,0,0,1,17.112-5.2ZM23.563,0V-12.8h4.386a5.354,5.354,0,0,1,3.3.87,3.065,3.065,0,0,1,1.134,2.593,2.763,2.763,0,0,1-.475,1.582,3.055,3.055,0,0,1-1.389,1.09,2.825,2.825,0,0,1,1.6,1.059A3.085,3.085,0,0,1,32.7-3.735,3.407,3.407,0,0,1,31.54-.967,5.025,5.025,0,0,1,28.23,0Zm2.224-5.774v4h2.47a2.39,2.39,0,0,0,1.635-.519,1.82,1.82,0,0,0,.589-1.441,1.826,1.826,0,0,0-2.039-2.039Zm0-1.635h2.18a2.521,2.521,0,0,0,1.622-.47,1.611,1.611,0,0,0,.584-1.332,1.633,1.633,0,0,0-.541-1.371A2.73,2.73,0,0,0,27.949-11H25.787ZM44.279-12.8v8.552a4.156,4.156,0,0,1-1.305,3.23A4.958,4.958,0,0,1,39.5.176,4.993,4.993,0,0,1,36.009-1a4.176,4.176,0,0,1-1.292-3.256V-12.8h2.215v8.561a2.719,2.719,0,0,0,.65,1.96A2.537,2.537,0,0,0,39.5-1.6q2.566,0,2.566-2.707V-12.8ZM56.8,0H54.58l-5.7-9.079V0H46.652V-12.8h2.224L54.6-3.683V-12.8H56.8Zm6.539-5.062A13.224,13.224,0,0,1,62.807-1.3a10.671,10.671,0,0,1-1.626,3.3A6.367,6.367,0,0,1,58.9,4.069l-.422-1.187A6.754,6.754,0,0,0,60.57-.233a13.84,13.84,0,0,0,.769-4.786v-.2a14.044,14.044,0,0,0-.668-4.452,7.852,7.852,0,0,0-1.916-3.221l-.272-.246.422-1.2a6.3,6.3,0,0,1,2.18,1.934A10.491,10.491,0,0,1,62.7-9.294a12.941,12.941,0,0,1,.633,3.546ZM77.81-6.855H70.233V-8.631H77.81Zm0,3.727H70.233V-4.9H77.81Zm9.229-1.617V0H84.814V-12.8h4.9a4.95,4.95,0,0,1,3.406,1.117,3.757,3.757,0,0,1,1.261,2.956,3.633,3.633,0,0,1-1.235,2.93,5.19,5.19,0,0,1-3.458,1.047Zm0-1.793H89.71A2.632,2.632,0,0,0,91.521-7.1a2.051,2.051,0,0,0,.624-1.613,2.213,2.213,0,0,0-.633-1.657A2.439,2.439,0,0,0,89.771-11H87.038ZM96.144-5.2a13.393,13.393,0,0,1,.545-3.854,10.578,10.578,0,0,1,1.6-3.261,6.351,6.351,0,0,1,2.232-2.017l.422,1.248a6.524,6.524,0,0,0-2.008,2.87A12.852,12.852,0,0,0,98.095-5.8l-.009.756a13.972,13.972,0,0,0,.751,4.75,7,7,0,0,0,2.1,3.177l-.422,1.187a6.362,6.362,0,0,1-2.237-2.026,10.577,10.577,0,0,1-1.6-3.261A13.921,13.921,0,0,1,96.144-5.2ZM102.595,0V-12.8h4.386a5.354,5.354,0,0,1,3.3.87,3.065,3.065,0,0,1,1.134,2.593,2.763,2.763,0,0,1-.475,1.582,3.055,3.055,0,0,1-1.389,1.09,2.825,2.825,0,0,1,1.6,1.059,3.085,3.085,0,0,1,.567,1.868,3.407,3.407,0,0,1-1.156,2.769A5.025,5.025,0,0,1,107.262,0Zm2.224-5.774v4h2.47a2.39,2.39,0,0,0,1.635-.519,1.82,1.82,0,0,0,.589-1.441,1.826,1.826,0,0,0-2.039-2.039Zm0-1.635H107a2.521,2.521,0,0,0,1.622-.47,1.611,1.611,0,0,0,.584-1.332,1.633,1.633,0,0,0-.541-1.371A2.73,2.73,0,0,0,106.98-11h-2.162Zm13.043,2.347a13.224,13.224,0,0,1-.536,3.766,10.671,10.671,0,0,1-1.626,3.3,6.367,6.367,0,0,1-2.276,2.061L113,2.883a6.754,6.754,0,0,0,2.087-3.116,13.84,13.84,0,0,0,.769-4.786v-.2a14.044,14.044,0,0,0-.668-4.452,7.852,7.852,0,0,0-1.916-3.221L113-13.14l.422-1.2A6.3,6.3,0,0,1,115.6-12.4a10.491,10.491,0,0,1,1.617,3.107,12.941,12.941,0,0,1,.633,3.546ZM129.507-7.04h3.34v1.951h-3.34v3.806h-2.074V-5.089h-3.357V-7.04h3.357V-10.6h2.074Zm12.006,2.294V0h-2.224V-12.8h4.9a4.95,4.95,0,0,1,3.406,1.117,3.757,3.757,0,0,1,1.261,2.956,3.633,3.633,0,0,1-1.235,2.93,5.19,5.19,0,0,1-3.458,1.047Zm0-1.793h2.672A2.632,2.632,0,0,0,146-7.1a2.051,2.051,0,0,0,.624-1.613,2.213,2.213,0,0,0-.633-1.657,2.439,2.439,0,0,0-1.74-.637h-2.733ZM150.618-5.2a13.393,13.393,0,0,1,.545-3.854,10.578,10.578,0,0,1,1.6-3.261A6.351,6.351,0,0,1,155-14.335l.422,1.248a6.524,6.524,0,0,0-2.008,2.87,12.852,12.852,0,0,0-.839,4.417l-.009.756a13.972,13.972,0,0,0,.751,4.75,7,7,0,0,0,2.1,3.177L155,4.069a6.362,6.362,0,0,1-2.237-2.026,10.577,10.577,0,0,1-1.6-3.261A13.921,13.921,0,0,1,150.618-5.2Zm16.6,5.2H165l-5.7-9.079V0h-2.224V-12.8h2.224l5.722,9.114V-12.8h2.206Zm6.539-5.062a13.224,13.224,0,0,1-.536,3.766,10.671,10.671,0,0,1-1.626,3.3,6.367,6.367,0,0,1-2.276,2.061L168.9,2.883a6.754,6.754,0,0,0,2.087-3.116,13.84,13.84,0,0,0,.769-4.786v-.2a14.044,14.044,0,0,0-.668-4.452,7.852,7.852,0,0,0-1.916-3.221l-.272-.246.422-1.2A6.3,6.3,0,0,1,171.5-12.4a10.491,10.491,0,0,1,1.617,3.107,12.941,12.941,0,0,1,.633,3.546Zm14.467-1.793H180.65V-8.631h7.576Zm0,3.727H180.65V-4.9h7.576Z" transform="translate(229.995 4059.762)" fill="#fff"/>
  </g>
</svg>
