<svg id="Grupo_166866" data-name="Grupo 166866" xmlns="http://www.w3.org/2000/svg" width="88.938" height="88.938" viewBox="0 0 88.938 88.938">
  <circle id="Elipse_4868" data-name="Elipse 4868" cx="44.469" cy="44.469" r="44.469" transform="translate(0 0)" fill="#ad84ff"/>
  <g id="_9sRkqI" data-name="9sRkqI" transform="translate(16.46 17.986)">
    <g id="Grupo_166875" data-name="Grupo 166875">
      <path id="Trazado_197306" data-name="Trazado 197306" d="M796.491,327.489q0,7.135,0,14.27c0,1.968-.72,2.691-2.7,2.691q-11.364,0-22.729,0c-1.763,0-2.515-.763-2.515-2.535q0-14.312,0-28.624c0-1.8.768-2.57,2.569-2.571q11.365,0,22.729,0c1.911,0,2.647.74,2.648,2.665Q796.494,320.437,796.491,327.489ZM770.9,313.056v29.037h23.234V313.056Z" transform="translate(-742.148 -294.306)" fill="#fff"/>
      <path id="Trazado_197307" data-name="Trazado 197307" d="M609.451,262.523l10.132-4.873c.986,2.036,1.953,4.017,2.906,6q5.34,11.13,10.685,22.257a6.5,6.5,0,0,1,.687,2.934c-.01,4.065.046,8.129.077,12.194,0,.1,0,.2,0,.507-.371-.341-.622-.569-.871-.8q-4.431-4.124-8.853-8.257a4.156,4.156,0,0,1-.885-1.178Q616.5,277.222,609.7,263.118C609.614,262.949,609.552,262.769,609.451,262.523Zm21.344,23.739L618.52,260.7l-6.029,2.915,12.44,25.755c.714-1.039,1.33.248,2.044-.074l.275-2.39,2.476,1.341Zm-3.16,6.057-.087.146,3.984,3.693v-5.64l-.545,1.062-1.785-.93-.283,2.126Z" transform="translate(-609.451 -250.043)" fill="#fff"/>
      <path id="Trazado_197308" data-name="Trazado 197308" d="M649.15,409.066h2.223v20.918h36.16v2.275H649.15Z" transform="translate(-642.564 -376.337)" fill="#fff"/>
      <path id="Trazado_197309" data-name="Trazado 197309" d="M649.238,211.8h2.3c8.654,0,17.308-.015,25.962.031a2.994,2.994,0,0,1,1.844.709c3,2.741,5.92,5.563,8.887,8.337a1.717,1.717,0,0,1,.618,1.435c-.045,1.32-.014,2.643-.014,4.012h-2.277c0-1.113.034-2.186-.02-3.255a1.6,1.6,0,0,0-.422-.988q-3.943-3.792-7.946-7.521a1.639,1.639,0,0,0-1-.432q-12.525-.037-25.05-.02c-.187,0-.375.025-.628.043v4.88h-2.253Z" transform="translate(-642.637 -211.797)" fill="#fff"/>
      <path id="Trazado_197310" data-name="Trazado 197310" d="M810.868,339.927H790.049v-8.04h20.819Zm-2.3-5.748H792.341v3.437h16.231Z" transform="translate(-760.086 -311.963)" fill="#fff"/>
      <path id="Trazado_197311" data-name="Trazado 197311" d="M793.3,402.151v2.179h-3.386v-2.179Z" transform="translate(-759.973 -370.569)" fill="#fff"/>
      <path id="Trazado_197312" data-name="Trazado 197312" d="M898.774,402.23V404.4h-3.352V402.23Z" transform="translate(-847.977 -370.635)" fill="#fff"/>
      <path id="Trazado_197313" data-name="Trazado 197313" d="M793.374,439.565h-3.341v-2.192h3.341Z" transform="translate(-760.073 -399.948)" fill="#fff"/>
      <path id="Trazado_197314" data-name="Trazado 197314" d="M898.66,437.291v2.192h-3.355v-2.192Z" transform="translate(-847.879 -399.879)" fill="#fff"/>
      <path id="Trazado_197315" data-name="Trazado 197315" d="M790.093,472.311h3.321V474.5h-3.321Z" transform="translate(-760.123 -429.089)" fill="#fff"/>
      <path id="Trazado_197316" data-name="Trazado 197316" d="M846.117,402.134v2.2h-3.348v-2.2Z" transform="translate(-804.059 -370.555)" fill="#fff"/>
      <path id="Trazado_197317" data-name="Trazado 197317" d="M842.762,437.081h3.318V439.3h-3.318Z" transform="translate(-804.053 -399.704)" fill="#fff"/>
      <path id="Trazado_197318" data-name="Trazado 197318" d="M846.151,474.623h-3.323v-2.2h3.323Z" transform="translate(-804.109 -429.184)" fill="#fff"/>
      <path id="Trazado_197319" data-name="Trazado 197319" d="M898.695,472.449v2.181h-3.352v-2.181Z" transform="translate(-847.911 -429.204)" fill="#fff"/>
      <path id="Trazado_197320" data-name="Trazado 197320" d="M636.471,291.95l5.046-2.426,1,2.06L637.476,294Z" transform="translate(-631.988 -276.628)" fill="#fff"/>
    </g>
  </g>
</svg>
