<svg xmlns="http://www.w3.org/2000/svg" width="551" height="60" viewBox="0 0 551 60">
  <g id="Grupo_161023" data-name="Grupo 161023" transform="translate(9352.199 12740.257)">
    <rect id="Rectángulo_49934" data-name="Rectángulo 49934" width="551" height="60" rx="12" transform="translate(-9352.199 -12740.257)" fill="#fff"/>
    <g id="Grupo_161025" data-name="Grupo 161025" transform="translate(-2.878 3.88)">
      <path id="Trazado_704817" data-name="Trazado 704817" d="M1.429-6.306A20.335,20.335,0,0,1,2.745-11.14,14.979,14.979,0,0,1,5.1-15.152,9.687,9.687,0,0,1,8.218-17.66l.29,1.332a11.148,11.148,0,0,0-2.9,3.282A16.887,16.887,0,0,0,3.749-8.234a23.147,23.147,0,0,0-.634,5.495A12.168,12.168,0,0,0,3.69,1.176,6.18,6.18,0,0,0,5.35,3.846l-.483,1.2A7.757,7.757,0,0,1,2.122,1.364a14.211,14.211,0,0,1-.865-5.586,16.982,16.982,0,0,1,.15-1.966ZM22-5.253h2.105l-.29,1.622H21.721L21.087,0H19.132l.634-3.631H12.848l.226-1.278,8.594-10.731h2.127Zm-6.6,0h4.641l1.4-7.691-.312.451ZM35.61-7.391l3.158-4.232h2.385L36.491-5.779,39.327,0H37.211L35.288-4.34,32.012,0H29.638l4.8-5.973-2.75-5.65h2.127Zm15.222-1.4,1.289.011a3.808,3.808,0,0,0,2.39-.747,2.83,2.83,0,0,0,1.112-2.025,2.494,2.494,0,0,0-.462-1.96,2.218,2.218,0,0,0-1.751-.736,2.99,2.99,0,0,0-2.079.714,3.155,3.155,0,0,0-1.047,1.982l-1.923.011a4.456,4.456,0,0,1,1.649-3.142,5.232,5.232,0,0,1,3.5-1.187,4.18,4.18,0,0,1,3.088,1.23,3.9,3.9,0,0,1,.972,3.131,3.617,3.617,0,0,1-.849,2.02,5.653,5.653,0,0,1-2.084,1.515,3.091,3.091,0,0,1,1.59,1.359,3.791,3.791,0,0,1,.44,2.175,4.8,4.8,0,0,1-1.681,3.405A5.286,5.286,0,0,1,51.315.215a4.446,4.446,0,0,1-3.2-1.246,3.951,3.951,0,0,1-1.106-3.1l1.944.011a2.612,2.612,0,0,0,.58,1.939,2.475,2.475,0,0,0,1.869.779,3.125,3.125,0,0,0,2.288-.784A3.272,3.272,0,0,0,54.731-4.4a2.393,2.393,0,0,0-.58-1.993,2.924,2.924,0,0,0-2.084-.757l-1.493-.011Zm17.886-6.875-.172,1.687H68.17A5.689,5.689,0,0,0,64.5-12.644a8.256,8.256,0,0,0-2.363,3.8,4.53,4.53,0,0,1,3.416-1.418,3.533,3.533,0,0,1,2.116.682A3.8,3.8,0,0,1,68.959-7.75a5.985,5.985,0,0,1,.285,2.573,6.262,6.262,0,0,1-1.7,3.916A4.678,4.678,0,0,1,63.884.215a3.816,3.816,0,0,1-2.857-1.278,5.4,5.4,0,0,1-1.278-3.309,12.522,12.522,0,0,1,.269-3.051,11.068,11.068,0,0,1,2.927-6.123A7.665,7.665,0,0,1,68.5-15.662ZM65.13-8.615a3.28,3.28,0,0,0-1.955.6,4.23,4.23,0,0,0-1.407,1.59l-.075.72-.021.87a5.5,5.5,0,0,0,.269,1.708,2.612,2.612,0,0,0,.795,1.257,1.943,1.943,0,0,0,1.235.44A2.746,2.746,0,0,0,66.2-2.4a4.616,4.616,0,0,0,1.112-2.686,4.636,4.636,0,0,0-.118-1.772,2.6,2.6,0,0,0-.747-1.273A1.981,1.981,0,0,0,65.13-8.615ZM81.275-7.391l3.158-4.232h2.385L82.156-5.779,84.992,0H82.876L80.953-4.34,77.677,0H75.3l4.8-5.973-2.75-5.65h2.127Zm19.959,2.138h2.105l-.29,1.622h-2.095L100.321,0H98.366L99-3.631H92.082l.226-1.278L100.9-15.641h2.127Zm-6.6,0h4.641l1.4-7.691-.312.451Zm11.838-2.621,1.987-7.767h7.8l-.29,1.837H109.85l-1.2,4.275a4.786,4.786,0,0,1,2.557-.677,3.511,3.511,0,0,1,2.986,1.466,5.313,5.313,0,0,1,.849,3.679,5.876,5.876,0,0,1-1.708,3.867A5.02,5.02,0,0,1,109.581.226a4.091,4.091,0,0,1-3.019-1.2,4.547,4.547,0,0,1-1.214-3.147h1.815a3.116,3.116,0,0,0,.73,2,2.362,2.362,0,0,0,1.772.73,2.892,2.892,0,0,0,2.315-.978,4.513,4.513,0,0,0,1.112-2.675,3.436,3.436,0,0,0-.5-2.39,2.3,2.3,0,0,0-1.923-.983,3.3,3.3,0,0,0-1.391.236,5.167,5.167,0,0,0-1.208.741Zm20.464.483,3.158-4.232h2.385l-4.662,5.844L130.657,0h-2.116l-1.923-4.34L123.342,0h-2.374l4.8-5.973-2.75-5.65h2.127Zm13.105-.483,1.987-7.767h7.8l-.29,1.837h-6.123l-1.2,4.275a4.786,4.786,0,0,1,2.557-.677,3.511,3.511,0,0,1,2.986,1.466,5.313,5.313,0,0,1,.849,3.679A5.876,5.876,0,0,1,146.9-1.192,5.02,5.02,0,0,1,143.15.226a4.091,4.091,0,0,1-3.019-1.2,4.547,4.547,0,0,1-1.214-3.147h1.815a3.116,3.116,0,0,0,.73,2,2.362,2.362,0,0,0,1.772.73,2.892,2.892,0,0,0,2.315-.978,4.513,4.513,0,0,0,1.112-2.675,3.436,3.436,0,0,0-.5-2.39,2.3,2.3,0,0,0-1.923-.983,3.3,3.3,0,0,0-1.391.236,5.167,5.167,0,0,0-1.208.741ZM154.859.215a3.53,3.53,0,0,1-2.965-1.4,6.223,6.223,0,0,1-.9-3.916q.021-.795.118-1.568l.387-2.61a9.684,9.684,0,0,1,1.966-4.984,4.7,4.7,0,0,1,3.824-1.59,3.572,3.572,0,0,1,2.981,1.37,6.085,6.085,0,0,1,.908,3.851q-.032.806-.129,1.579l-.376,2.524a10.262,10.262,0,0,1-2.009,5.167A4.67,4.67,0,0,1,154.859.215Zm4.308-9.625a16.627,16.627,0,0,0,.14-2.02q-.054-2.729-2.116-2.8a2.823,2.823,0,0,0-2.433,1.112,7.708,7.708,0,0,0-1.294,3.658L153-6.349a15.846,15.846,0,0,0-.14,2.03q.054,2.847,2.105,2.922a2.76,2.76,0,0,0,2.358-1.053,7.465,7.465,0,0,0,1.327-3.545Zm13.438,2.02,3.158-4.232h2.385l-4.662,5.844L176.322,0h-2.116l-1.923-4.34L169.007,0h-2.374l4.8-5.973-2.75-5.65h2.127Zm23.063-7.025L187.172,0h-2.127L193.5-14.008h-8.164l.258-1.633h10.27Zm2.138,6.542,1.987-7.767h7.8L207.3-13.8H201.18l-1.2,4.275a4.786,4.786,0,0,1,2.557-.677,3.511,3.511,0,0,1,2.986,1.466,5.313,5.313,0,0,1,.849,3.679,5.876,5.876,0,0,1-1.708,3.867A5.02,5.02,0,0,1,200.911.226a4.091,4.091,0,0,1-3.019-1.2,4.547,4.547,0,0,1-1.214-3.147h1.815a3.116,3.116,0,0,0,.73,2A2.362,2.362,0,0,0,201-1.4a2.892,2.892,0,0,0,2.315-.978,4.513,4.513,0,0,0,1.112-2.675,3.436,3.436,0,0,0-.5-2.39A2.3,2.3,0,0,0,202-8.422a3.3,3.3,0,0,0-1.391.236,5.167,5.167,0,0,0-1.208.741Zm21.012,1.59a19.933,19.933,0,0,1-1.364,4.958,14.907,14.907,0,0,1-2.369,3.942,9.85,9.85,0,0,1-3.056,2.444l-.3-1.235q3.685-2.771,4.92-8.905a23.146,23.146,0,0,0,.473-4.759q-.054-4.608-2.234-6.606l.5-1.2a7.121,7.121,0,0,1,2.036,2.229,10.512,10.512,0,0,1,1.225,3.233A16.559,16.559,0,0,1,219-8.368,18.348,18.348,0,0,1,218.84-6.4Z" transform="translate(-9324.321 -12702.637)" fill="#12263f"/>
      <path id="Trazado_704818" data-name="Trazado 704818" d="M4.424,0H3.091L4.658-8.994,1.824-8l.227-1.289,3.955-1.428H6.24Z" transform="translate(-9093.174 -12724.137)" fill="#12263f"/>
      <path id="Trazado_178595" data-name="Trazado 178595" d="M-9613.245-9288.434h17.943" transform="translate(515.735 -3433.136)" fill="none" stroke="#12263f" stroke-width="1"/>
      <path id="Trazado_704819" data-name="Trazado 704819" d="M1.6-5.369l1.355-5.3H8.276l-.2,1.252H3.9L3.083-6.5a3.263,3.263,0,0,1,1.743-.461,2.394,2.394,0,0,1,2.036,1A3.623,3.623,0,0,1,7.441-3.45,4.007,4.007,0,0,1,6.277-.813,3.423,3.423,0,0,1,3.721.154a2.789,2.789,0,0,1-2.058-.82A3.1,3.1,0,0,1,.835-2.812H2.073a2.124,2.124,0,0,0,.5,1.362,1.61,1.61,0,0,0,1.208.5,1.972,1.972,0,0,0,1.578-.667,3.077,3.077,0,0,0,.758-1.824,2.343,2.343,0,0,0-.344-1.63,1.566,1.566,0,0,0-1.311-.67,2.247,2.247,0,0,0-.948.161,3.523,3.523,0,0,0-.824.505Z" transform="translate(-9095.174 -12706.137)" fill="#12263f"/>
      <path id="Trazado_704820" data-name="Trazado 704820" d="M10.678-8.744h-8.7l.3-1.729h8.712ZM9.9-4.286H1.2L1.5-6h8.712Z" transform="translate(-9069.745 -12702.637)" fill="#12263f"/>
      <path id="Trazado_178594" data-name="Trazado 178594" d="M-9585.561-9091.162l11.26,21.211,16.23-30.367H-9447" transform="translate(545.557 -3624.136)" fill="none" stroke="#12263f" stroke-width="2"/>
      <path id="Trazado_704821" data-name="Trazado 704821" d="M1.6-5.369l1.355-5.3H8.276l-.2,1.252H3.9L3.083-6.5a3.263,3.263,0,0,1,1.743-.461,2.394,2.394,0,0,1,2.036,1A3.623,3.623,0,0,1,7.441-3.45,4.007,4.007,0,0,1,6.277-.813,3.423,3.423,0,0,1,3.721.154a2.789,2.789,0,0,1-2.058-.82A3.1,3.1,0,0,1,.835-2.812H2.073a2.124,2.124,0,0,0,.5,1.362,1.61,1.61,0,0,0,1.208.5,1.972,1.972,0,0,0,1.578-.667,3.077,3.077,0,0,0,.758-1.824,2.343,2.343,0,0,0-.344-1.63,1.566,1.566,0,0,0-1.311-.67,2.247,2.247,0,0,0-.948.161,3.523,3.523,0,0,0-.824.505Z" transform="translate(-9030.174 -12719.455)" fill="#12263f"/>
      <path id="Trazado_704822" data-name="Trazado 704822" d="M10.205,0H.247L.483-1.515,6.252-7.122,7.3-8.164a6.165,6.165,0,0,0,2.009-3.352,2.485,2.485,0,0,0-.462-1.928,2.173,2.173,0,0,0-1.7-.79,3.2,3.2,0,0,0-2.353.822,3.775,3.775,0,0,0-1.149,2.369l-1.923.011a5.44,5.44,0,0,1,.886-2.551,4.937,4.937,0,0,1,1.966-1.708,5.649,5.649,0,0,1,2.648-.564,4.34,4.34,0,0,1,3.088,1.176,3.485,3.485,0,0,1,.983,2.938A7.487,7.487,0,0,1,8.927-7.4l-.988,1L2.911-1.622h7.552ZM21.3-5.253h2.105l-.29,1.622H21.022L20.389,0H18.434l.634-3.631H12.149l.226-1.278,8.594-10.731H23.1Zm-6.6,0h4.641l1.4-7.691-.312.451ZM34.053-8.787l1.289.011a3.808,3.808,0,0,0,2.39-.747,2.83,2.83,0,0,0,1.112-2.025,2.494,2.494,0,0,0-.462-1.96,2.218,2.218,0,0,0-1.751-.736,2.99,2.99,0,0,0-2.079.714A3.155,3.155,0,0,0,33.5-11.548l-1.923.011a4.456,4.456,0,0,1,1.649-3.142,5.232,5.232,0,0,1,3.5-1.187,4.18,4.18,0,0,1,3.088,1.23,3.9,3.9,0,0,1,.972,3.131,3.617,3.617,0,0,1-.849,2.02,5.653,5.653,0,0,1-2.084,1.515,3.091,3.091,0,0,1,1.59,1.359,3.791,3.791,0,0,1,.44,2.175A4.8,4.8,0,0,1,38.2-1.031,5.286,5.286,0,0,1,34.536.215a4.446,4.446,0,0,1-3.2-1.246,3.951,3.951,0,0,1-1.106-3.1l1.944.011a2.612,2.612,0,0,0,.58,1.939,2.475,2.475,0,0,0,1.869.779,3.125,3.125,0,0,0,2.288-.784A3.272,3.272,0,0,0,37.952-4.4a2.393,2.393,0,0,0-.58-1.993,2.924,2.924,0,0,0-2.084-.757l-1.493-.011Zm12.7,9a3.53,3.53,0,0,1-2.965-1.4,6.223,6.223,0,0,1-.9-3.916Q42.9-5.9,43-6.671l.387-2.61a9.684,9.684,0,0,1,1.966-4.984,4.7,4.7,0,0,1,3.824-1.59,3.572,3.572,0,0,1,2.981,1.37,6.085,6.085,0,0,1,.908,3.851q-.032.806-.129,1.579l-.376,2.524a10.262,10.262,0,0,1-2.009,5.167A4.67,4.67,0,0,1,46.75.215ZM51.058-9.41a16.627,16.627,0,0,0,.14-2.02q-.054-2.729-2.116-2.8a2.823,2.823,0,0,0-2.433,1.112,7.708,7.708,0,0,0-1.294,3.658l-.462,3.115a15.846,15.846,0,0,0-.14,2.03q.054,2.847,2.105,2.922a2.76,2.76,0,0,0,2.358-1.053,7.465,7.465,0,0,0,1.327-3.545ZM58.846.215a3.53,3.53,0,0,1-2.965-1.4,6.223,6.223,0,0,1-.9-3.916Q55-5.9,55.1-6.671l.387-2.61a9.684,9.684,0,0,1,1.966-4.984,4.7,4.7,0,0,1,3.824-1.59,3.572,3.572,0,0,1,2.981,1.37,6.085,6.085,0,0,1,.908,3.851q-.032.806-.129,1.579l-.376,2.524a10.262,10.262,0,0,1-2.009,5.167A4.67,4.67,0,0,1,58.846.215ZM63.153-9.41a16.627,16.627,0,0,0,.14-2.02q-.054-2.729-2.116-2.8a2.823,2.823,0,0,0-2.433,1.112,7.708,7.708,0,0,0-1.294,3.658l-.462,3.115a15.846,15.846,0,0,0-.14,2.03Q56.9-1.472,58.953-1.4a2.76,2.76,0,0,0,2.358-1.053,7.465,7.465,0,0,0,1.327-3.545ZM76.334.215a3.53,3.53,0,0,1-2.965-1.4,6.223,6.223,0,0,1-.9-3.916q.021-.795.118-1.568l.387-2.61a9.684,9.684,0,0,1,1.966-4.984,4.7,4.7,0,0,1,3.824-1.59,3.572,3.572,0,0,1,2.981,1.37,6.085,6.085,0,0,1,.908,3.851q-.032.806-.129,1.579l-.376,2.524a10.262,10.262,0,0,1-2.009,5.167A4.67,4.67,0,0,1,76.334.215ZM80.642-9.41a16.627,16.627,0,0,0,.14-2.02q-.054-2.729-2.116-2.8a2.823,2.823,0,0,0-2.433,1.112,7.708,7.708,0,0,0-1.294,3.658l-.462,3.115a15.846,15.846,0,0,0-.14,2.03Q74.39-1.472,76.441-1.4A2.76,2.76,0,0,0,78.8-2.449a7.465,7.465,0,0,0,1.327-3.545ZM88.43.215a3.53,3.53,0,0,1-2.965-1.4,6.223,6.223,0,0,1-.9-3.916q.021-.795.118-1.568l.387-2.61a9.684,9.684,0,0,1,1.966-4.984,4.7,4.7,0,0,1,3.824-1.59,3.572,3.572,0,0,1,2.981,1.37,6.085,6.085,0,0,1,.908,3.851q-.032.806-.129,1.579l-.376,2.524a10.262,10.262,0,0,1-2.009,5.167A4.67,4.67,0,0,1,88.43.215ZM92.737-9.41a16.627,16.627,0,0,0,.14-2.02q-.054-2.729-2.116-2.8a2.823,2.823,0,0,0-2.433,1.112,7.708,7.708,0,0,0-1.294,3.658l-.462,3.115a15.846,15.846,0,0,0-.14,2.03q.054,2.847,2.105,2.922A2.76,2.76,0,0,0,90.9-2.449a7.465,7.465,0,0,0,1.327-3.545ZM100.525.215a3.53,3.53,0,0,1-2.965-1.4,6.223,6.223,0,0,1-.9-3.916q.021-.795.118-1.568l.387-2.61a9.684,9.684,0,0,1,1.966-4.984,4.7,4.7,0,0,1,3.824-1.59,3.572,3.572,0,0,1,2.981,1.37,6.085,6.085,0,0,1,.908,3.851q-.032.806-.129,1.579l-.376,2.524a10.262,10.262,0,0,1-2.009,5.167A4.67,4.67,0,0,1,100.525.215Zm4.308-9.625a16.627,16.627,0,0,0,.14-2.02q-.054-2.729-2.116-2.8a2.823,2.823,0,0,0-2.433,1.112,7.708,7.708,0,0,0-1.294,3.658l-.462,3.115a15.846,15.846,0,0,0-.14,2.03q.054,2.847,2.105,2.922a2.76,2.76,0,0,0,2.358-1.053,7.465,7.465,0,0,0,1.327-3.545Z" transform="translate(-9012.943 -12702.637)" fill="#12263f"/>
      <path id="Trazado_704823" data-name="Trazado 704823" d="M10.678-8.744h-8.7l.3-1.729h8.712ZM9.9-4.286H1.2L1.5-6h8.712Z" transform="translate(-8887.202 -12702.637)" fill="#12263f"/>
      <path id="Trazado_704824" data-name="Trazado 704824" d="M4.469-8.787l1.289.011a3.808,3.808,0,0,0,2.39-.747A2.83,2.83,0,0,0,9.26-11.548a2.494,2.494,0,0,0-.462-1.96,2.218,2.218,0,0,0-1.751-.736,2.99,2.99,0,0,0-2.079.714,3.155,3.155,0,0,0-1.047,1.982L2-11.537a4.456,4.456,0,0,1,1.649-3.142,5.232,5.232,0,0,1,3.5-1.187,4.18,4.18,0,0,1,3.088,1.23A3.9,3.9,0,0,1,11.2-11.5a3.617,3.617,0,0,1-.849,2.02A5.653,5.653,0,0,1,8.271-7.971a3.091,3.091,0,0,1,1.59,1.359,3.791,3.791,0,0,1,.44,2.175A4.8,4.8,0,0,1,8.621-1.031,5.286,5.286,0,0,1,4.952.215a4.446,4.446,0,0,1-3.2-1.246,3.951,3.951,0,0,1-1.106-3.1l1.944.011a2.612,2.612,0,0,0,.58,1.939,2.475,2.475,0,0,0,1.869.779,3.125,3.125,0,0,0,2.288-.784A3.272,3.272,0,0,0,8.368-4.4,2.393,2.393,0,0,0,7.788-6.4,2.924,2.924,0,0,0,5.7-7.154L4.211-7.165Zm12.7,9a3.53,3.53,0,0,1-2.965-1.4A6.223,6.223,0,0,1,13.3-5.1q.021-.795.118-1.568l.387-2.61a9.684,9.684,0,0,1,1.966-4.984,4.7,4.7,0,0,1,3.824-1.59,3.572,3.572,0,0,1,2.981,1.37,6.085,6.085,0,0,1,.908,3.851q-.032.806-.129,1.579l-.376,2.524a10.262,10.262,0,0,1-2.009,5.167A4.67,4.67,0,0,1,17.166.215ZM21.474-9.41a16.627,16.627,0,0,0,.14-2.02q-.054-2.729-2.116-2.8a2.823,2.823,0,0,0-2.433,1.112A7.708,7.708,0,0,0,15.77-9.464l-.462,3.115a15.846,15.846,0,0,0-.14,2.03q.054,2.847,2.105,2.922a2.76,2.76,0,0,0,2.358-1.053,7.465,7.465,0,0,0,1.327-3.545Zm4.479,7.154a1.163,1.163,0,0,1,.87.322,1.11,1.11,0,0,1,.333.859A1.161,1.161,0,0,1,26.8-.22a1.278,1.278,0,0,1-.859.349,1.11,1.11,0,0,1-.849-.3,1.11,1.11,0,0,1-.333-.843,1.218,1.218,0,0,1,.333-.875A1.207,1.207,0,0,1,25.953-2.256Z" transform="translate(-8853.321 -12702.637)" fill="#12263f"/>
    </g>
  </g>
</svg>
