<svg xmlns="http://www.w3.org/2000/svg" xmlns:xlink="http://www.w3.org/1999/xlink" width="540.66" height="657.265" viewBox="0 0 540.66 657.265">
  <defs>
    <linearGradient id="linear-gradient" x1="0.5" x2="0.5" y2="1" gradientUnits="objectBoundingBox">
      <stop offset="0" stop-color="#7125c8"/>
      <stop offset="1" stop-color="#7125c8"/>
    </linearGradient>
  </defs>
  <g id="Grupo_166808" data-name="Grupo 166808" transform="translate(-922.218 -3168)">
    <g id="Grupo_59419" data-name="Grupo 59419" transform="translate(922.218 3168)">
      <g id="freepik--background-complete--inject-349" transform="translate(24.843 0)">
        <rect id="Rectángulo_5617" data-name="Rectángulo 5617" width="23.805" height="0.399" transform="translate(14.538 548.771)" fill="#ebebeb"/>
        <rect id="Rectángulo_5618" data-name="Rectángulo 5618" width="13.883" height="0.399" transform="translate(204.145 553.116)" fill="#ebebeb"/>
        <rect id="Rectángulo_5619" data-name="Rectángulo 5619" width="54.623" height="0.399" transform="translate(45.085 533.945)" fill="#ebebeb"/>
        <rect id="Rectángulo_5620" data-name="Rectángulo 5620" width="149.666" height="0.399" transform="translate(326.3 536.82)" fill="#ebebeb"/>
        <path id="Trazado_103697" data-name="Trazado 103697" d="M884.336,1723.722h308.5a9.138,9.138,0,0,0,9.123-9.122V1280.955a9.141,9.141,0,0,0-9.123-9.043h-308.5a9.122,9.122,0,0,0-9.09,9.043V1714.6A9.122,9.122,0,0,0,884.336,1723.722Zm308.5-451.49a8.741,8.741,0,0,1,8.723,8.723V1714.6a8.739,8.739,0,0,1-8.723,8.723h-308.5a8.738,8.738,0,0,1-8.723-8.723V1280.955a8.739,8.739,0,0,1,8.723-8.723Z" transform="translate(-875.246 -1271.912)" fill="#ebebeb"/>
        <rect id="Rectángulo_5621" data-name="Rectángulo 5621" width="29.748" height="204.289" transform="translate(360.904 318.776)" fill="#e6e6e6"/>
        <path id="Trazado_103698" data-name="Trazado 103698" d="M846.192,1613.834h10.481v-38.822H835.216Z" transform="translate(-466.004 -1090.77)" fill="#f0f0f0"/>
        <rect id="Rectángulo_5622" data-name="Rectángulo 5622" width="29.748" height="204.289" transform="translate(46.299 318.776)" fill="#e6e6e6"/>
        <rect id="Rectángulo_5623" data-name="Rectángulo 5623" width="323.744" height="193.697" transform="translate(66.908 318.76)" fill="#f0f0f0"/>
        <path id="Trazado_103699" data-name="Trazado 103699" d="M1034.917,1613.834h-10.48v-38.822h21.456Z" transform="translate(-957.528 -1090.77)" fill="#f0f0f0"/>
        <rect id="Rectángulo_5624" data-name="Rectángulo 5624" width="95.97" height="160.226" transform="translate(77.676 334.816)" fill="#e6e6e6"/>
        <path id="Trazado_103700" data-name="Trazado 103700" d="M1022.309,1488.044h-19a32.226,32.226,0,0,1-21.807-8.132h62.6A32.169,32.169,0,0,1,1022.309,1488.044Z" transform="translate(-887.15 -1147.605)" fill="#f0f0f0"/>
        <rect id="Rectángulo_5625" data-name="Rectángulo 5625" width="95.97" height="160.226" transform="translate(180.804 334.816)" fill="#e6e6e6"/>
        <path id="Trazado_103701" data-name="Trazado 103701" d="M957.133,1488.044h-18.98a32.226,32.226,0,0,1-21.808-8.132h62.6A32.225,32.225,0,0,1,957.133,1488.044Z" transform="translate(-717.888 -1147.605)" fill="#f0f0f0"/>
        <rect id="Rectángulo_5626" data-name="Rectángulo 5626" width="95.97" height="160.226" transform="translate(283.915 334.816)" fill="#e6e6e6"/>
        <path id="Trazado_103702" data-name="Trazado 103702" d="M892.584,1488.044H873.6a32.191,32.191,0,0,1-21.808-8.132h62.6A32.226,32.226,0,0,1,892.584,1488.044Z" transform="translate(-550.211 -1147.605)" fill="#f0f0f0"/>
        <rect id="Rectángulo_5627" data-name="Rectángulo 5627" width="61.844" height="180.676" transform="translate(452.049 187.451)" fill="#f5f5f5"/>
        <rect id="Rectángulo_5628" data-name="Rectángulo 5628" width="215.265" height="201.94" transform="translate(74.849 66.75)" fill="#e6e6e6"/>
        <rect id="Rectángulo_5629" data-name="Rectángulo 5629" width="215.265" height="201.94" transform="translate(80.265 66.75)" fill="#f5f5f5"/>
        <rect id="Rectángulo_5630" data-name="Rectángulo 5630" width="233.27" height="11.695" transform="translate(74.849 268.69)" fill="#e6e6e6"/>
        <rect id="Rectángulo_5631" data-name="Rectángulo 5631" width="221.256" height="11.695" transform="translate(92.966 268.69)" fill="#f5f5f5"/>
        <rect id="Rectángulo_5632" data-name="Rectángulo 5632" width="195.79" height="180.932" transform="translate(90.01 77.246)" fill="#aed3f2"/>
        <rect id="Rectángulo_5633" data-name="Rectángulo 5633" width="10.848" height="180.932" transform="translate(182.481 77.246)" fill="#f5f5f5"/>
        <rect id="Rectángulo_5634" data-name="Rectángulo 5634" width="4.106" height="180.932" transform="translate(281.694 77.262)" fill="#e6e6e6"/>
        <rect id="Rectángulo_5635" data-name="Rectángulo 5635" width="4.106" height="180.932" transform="translate(178.375 77.246)" fill="#e6e6e6"/>
      </g>
      <g id="freepik--Character--inject-349" transform="translate(291.827 137.271)">
        <path id="Trazado_103710" data-name="Trazado 103710" d="M863.226,1633.651l13.34,1.5,4.921-30.259-13.34-1.5Z" transform="translate(-791.057 -1130.609)" fill="#ffc3bd"/>
        <path id="Trazado_103711" data-name="Trazado 103711" d="M901.626,1635.693H914.95l3.307-30.85H904.933Z" transform="translate(-889.176 -1129.743)" fill="#ffc3bd"/>
        <path id="Trazado_103712" data-name="Trazado 103712" d="M907.611,1623.182H891.379a1.164,1.164,0,0,0-1.134.911l-2.636,11.838a1.949,1.949,0,0,0,1.487,2.321,1.909,1.909,0,0,0,.462.043c5.224-.08,9.043-.383,15.625-.383,4.042,0,16.248.415,21.84.415s6.391-5.527,4.026-6.023c-10.257-2.252-17.989-5.352-21.281-8.307A3.194,3.194,0,0,0,907.611,1623.182Z" transform="translate(-880.75 -1118.783)" fill="#344154"/>
        <path id="Trazado_103713" data-name="Trazado 103713" d="M870.2,1622.443l-14.379-1.6a1.15,1.15,0,0,0-1.23.783l-3.946,11.455a1.934,1.934,0,0,0,1.168,2.473,1.855,1.855,0,0,0,.43.1c5.224.512,12.781,1.055,19.347,1.805,7.668.863,8.946,2.924,17.973,2.7,5.48-.128,6.87-5.688,4.57-6.135-10.481-2.029-12.494-3.61-20.769-10.145A6.115,6.115,0,0,0,870.2,1622.443Z" transform="translate(-784.481 -1120.183)" fill="#344154"/>
        <path id="Trazado_103714" data-name="Trazado 103714" d="M794.346,1385.019c4.473,3.691,8.883,6.9,13.436,10.193s9.2,6.39,13.995,9.314,9.7,5.784,14.858,8.356a107.407,107.407,0,0,0,16.391,6.885c1.486.464,2.94.863,4.617,1.262a44.238,44.238,0,0,0,4.969.8c3,.336,5.816.463,8.627.607,5.608.256,11.183.24,16.616.208,10.991-.129,21.887-.655,32.847-1.6l.16-10c-10.752-1.374-21.552-2.572-32.24-3.77-5.336-.591-10.672-1.23-15.865-1.917-2.6-.352-5.176-.767-7.541-1.214a30.213,30.213,0,0,1-3.035-.7c-.927-.32-2.077-.687-3.2-1.119a108.836,108.836,0,0,1-13.276-6.486c-4.425-2.54-8.835-5.273-13.181-8.164s-8.675-5.9-12.973-8.947-8.563-6.3-12.59-9.363Z" transform="translate(-720.387 -1270.473)" fill="#ffc3bd"/>
        <path id="Trazado_103715" data-name="Trazado 103715" d="M852.187,1379.224c1.917,12.589,28.422,31.841,28.422,31.841l19.028-23.6a316.317,316.317,0,0,0-26.473-25.178C864.616,1355.291,850.11,1365.516,852.187,1379.224Z" transform="translate(-791.248 -1276.053)" fill="#dbfdfd"/>
        <path id="Trazado_103716" data-name="Trazado 103716" d="M791.4,1398.106l7.557-5.384.831,17.015s-4.186,0-5.8-3.067Z" transform="translate(-594.595 -1256.512)" fill="#ffc3bd"/>
        <path id="Trazado_103717" data-name="Trazado 103717" d="M793.5,1389.622l1.55,16.663-7.557,5.3-.831-17.015Z" transform="translate(-582.309 -1258.365)" fill="#ffc3bd"/>
        <path id="Trazado_103718" data-name="Trazado 103718" d="M879.1,1604.9l-2.524,15.593-13.34-1.5,2.524-15.593Z" transform="translate(-788.686 -1130.603)" opacity="0.2" style="isolation: isolate"/>
        <path id="Trazado_103719" data-name="Trazado 103719" d="M903.336,1604.843H916.66l-1.71,15.913H901.626Z" transform="translate(-887.578 -1129.743)" opacity="0.2" style="isolation: isolate"/>
        <path id="Trazado_103720" data-name="Trazado 103720" d="M866.943,1363.515a7.606,7.606,0,0,0-5.769,9.078c.016.068.032.137.049.2a313.17,313.17,0,0,1,6.518,36.41c1.262,10.321,2.013,20.178,2.476,29.109,1.118,20.929.655,36.889,1.278,42.305l71.079-4.921c7.221-56.556-1.23-92.662-5.991-107.312A12.69,12.69,0,0,0,926.2,1359.7c-2.732-.351-5.991-.7-9.442-.911-1.2,0-2.428-.112-3.659-.144a264.455,264.455,0,0,0-30.243,2.029c-1.9.223-3.818.511-5.688.8C873.446,1362.125,869.883,1362.86,866.943,1363.515Z" transform="translate(-851.377 -1276.879)" fill="#344154"/>
        <path id="Trazado_103721" data-name="Trazado 103721" d="M881.009,1338.522c2.588,9.586,5.736,27.256-.608,34.222,16.472,11.087,26.984,26.68,30.02,23.293,1.6-1.773,2.268-22.367.192-25.4-11.024-1.838-11.311-9.889-9.953-17.574Z" transform="translate(-848.923 -1288.904)" fill="#ffc3bd"/>
        <path id="Trazado_103722" data-name="Trazado 103722" d="M884.112,1357.452s26.856,11.886,30.355,38.439c-7.381-8.563-23.725-17.877-23.725-17.877l7.205-2.061a73.7,73.7,0,0,0-14.155-3.818c.8-3.675-3.467-10.992-3.467-10.992Z" transform="translate(-851.356 -1277.591)" fill="#dbfdfd"/>
        <path id="Trazado_103723" data-name="Trazado 103723" d="M875.991,1357.182s-3.563,15.177,6.183,38.87c1.518-9.042,7.892-24.172,7.892-24.172l-6.583,1.773s.336-3.051,5.656-7.125c-1.981-3.8-8.18-8.292-8.18-8.292Z" transform="translate(-819.015 -1277.752)" fill="#dbfdfd"/>
        <path id="Trazado_103724" data-name="Trazado 103724" d="M887.64,1342.232l11.631,8.6a30.264,30.264,0,0,0-.559,5.432c-4.186-.3-10.193-4.457-10.928-8.771A14.5,14.5,0,0,1,887.64,1342.232Z" transform="translate(-847.566 -1286.687)" opacity="0.2" style="isolation: isolate"/>
        <path id="Trazado_103725" data-name="Trazado 103725" d="M878.476,1321.143c6.5.272,10.081,11.471,3.5,20.769S869.737,1320.776,878.476,1321.143Z" transform="translate(-812.265 -1299.292)" fill="#344154"/>
        <path id="Trazado_103726" data-name="Trazado 103726" d="M875.905,1333.745c-.767,13.2-1.885,20.881,3.914,28.39,8.739,11.311,25.642,7.269,30.355-5.432,4.218-11.439,4.793-31.106-7.429-37.848a18.037,18.037,0,0,0-26.84,14.89Z" transform="translate(-841.727 -1302.037)" fill="#ffc3bd"/>
        <path id="Trazado_103727" data-name="Trazado 103727" d="M885.891,1349.3c10-6.391,13.532-14.81,14.3-19.044,3.882.91,23.15,9.777,29.077,0s-1.6-15.529-12.621-9.506c4.9-8.659.447-12.893-14.97-13.276s-13.34,8.563-13.34,8.563-11.663-5.081-15.8,3.866C867.758,1330.195,876.576,1347.753,885.891,1349.3Z" transform="translate(-853.645 -1307.464)" fill="#344154"/>
        <path id="Trazado_103728" data-name="Trazado 103728" d="M908.864,1313.306c-.144,0-5.831,1.374-12.4-5.224,1.166,5.623,11.359,9.378,11.359,9.378Z" transform="translate(-871.538 -1307.096)" fill="#344154"/>
        <path id="Trazado_103729" data-name="Trazado 103729" d="M896.43,1323.558c6.135-2.125,13.58,6.982,10.832,17.974S888.138,1326.418,896.43,1323.558Z" transform="translate(-866.757 -1298.031)" fill="#344154"/>
        <path id="Trazado_103730" data-name="Trazado 103730" d="M895.887,1336.793a12.492,12.492,0,0,0,5.113,8.116c3.611,2.524,6.87-.351,7.077-4.521.192-3.755-1.47-9.586-5.672-10.449S895.232,1332.767,895.887,1336.793Z" transform="translate(-869.697 -1294.109)" fill="#ffc3bd"/>
        <path id="Trazado_103731" data-name="Trazado 103731" d="M877.232,1581.945c-3.2-38.95-26.681-146.806-26.681-146.806l46.731-3.227s18.021,107.041,19.4,147.685c1.438,42.257-15.561,136.15-15.561,136.15l-22.367-2.556S880.459,1621.072,877.232,1581.945Z" transform="translate(-806.085 -1233.091)" fill="#d9a171"/>
        <path id="Trazado_103732" data-name="Trazado 103732" d="M877.232,1581.945c-3.2-38.95-26.681-146.806-26.681-146.806l46.731-3.227s18.021,107.041,19.4,147.685c1.438,42.257-15.561,136.15-15.561,136.15l-22.367-2.556S880.459,1621.072,877.232,1581.945Z" transform="translate(-806.085 -1233.091)" fill="#fff" opacity="0.5" style="isolation: isolate"/>
        <path id="Trazado_103733" data-name="Trazado 103733" d="M883.672,1456.792c9.426,12.046,9.586,54.319,5.943,85.6-3.467-22.558-8.931-51.124-13.74-75.089Z" transform="translate(-821.599 -1218.222)" opacity="0.2" style="isolation: isolate"/>
        <path id="Trazado_103734" data-name="Trazado 103734" d="M935.386,1432.992s-5.049,114.039-10.672,152.653c-6.151,42.29-21.792,134.792-21.792,134.792h-24.4s4.01-87.055,7.237-128.609c3.659-47.322,3.754-155.578,3.754-155.578Z" transform="translate(-869.398 -1232.446)" fill="#d9a171"/>
        <path id="Trazado_103735" data-name="Trazado 103735" d="M935.386,1432.992s-5.049,114.039-10.672,152.653c-6.151,42.29-21.792,134.792-21.792,134.792h-24.4s4.01-87.055,7.237-128.609c3.659-47.322,3.754-155.578,3.754-155.578Z" transform="translate(-869.398 -1232.446)" fill="#fff" opacity="0.5" style="isolation: isolate"/>
        <path id="Trazado_103736" data-name="Trazado 103736" d="M923.622,1616.621H894.9v-8.579l32.112-.559Z" transform="translate(-887.175 -1128.164)" fill="#d9a171"/>
        <path id="Trazado_103737" data-name="Trazado 103737" d="M883.829,1615.5l-26.713-3.036.975-8.627L888,1606.756Z" transform="translate(-787.806 -1130.346)" fill="#d9a171"/>
        <path id="Trazado_103738" data-name="Trazado 103738" d="M884.691,1331.757c-.128,1.07.335,2.013,1.038,2.093s1.358-.719,1.5-1.789-.336-2-1.039-2.076S884.819,1330.7,884.691,1331.757Z" transform="translate(-831.085 -1294.01)" fill="#344154"/>
        <path id="Trazado_103739" data-name="Trazado 103739" d="M877.174,1332.667c-.128,1.07.336,2,1.039,2.093s1.358-.719,1.486-1.789-.335-2-1.023-2.077S877.334,1331.6,877.174,1332.667Z" transform="translate(-811.539 -1293.465)" fill="#344154"/>
        <path id="Trazado_103740" data-name="Trazado 103740" d="M879.87,1332.052a38.449,38.449,0,0,0,4.01,9.73,6.216,6.216,0,0,1-5.224.336Z" transform="translate(-818.101 -1292.771)" fill="#ed847e"/>
        <path id="Trazado_103741" data-name="Trazado 103741" d="M885.118,1329.539a.622.622,0,0,0,.639-.16,5.051,5.051,0,0,1,4.266-1.6.638.638,0,0,0,.791-.436.683.683,0,0,0,.024-.139.609.609,0,0,0-.46-.726l-.051-.009a6.221,6.221,0,0,0-5.4,1.965.624.624,0,0,0-.014.882l.014.012A.719.719,0,0,0,885.118,1329.539Z" transform="translate(-834.788 -1296.137)" fill="#344154"/>
        <path id="Trazado_103742" data-name="Trazado 103742" d="M892.106,1343.313h0a9.675,9.675,0,0,1-6.9-5.671.337.337,0,0,1,.192-.432.353.353,0,0,1,.447.208,9.152,9.152,0,0,0,6.391,5.224.342.342,0,0,1-.128.671Z" transform="translate(-837.143 -1289.7)" fill="#344154"/>
        <path id="Trazado_103743" data-name="Trazado 103743" d="M878.746,1331.623a.515.515,0,0,0,.384,0,.64.64,0,0,0,.4-.8,6.3,6.3,0,0,0-4.074-4.074.623.623,0,0,0-.762.444l-.005.02a.608.608,0,0,0,.425.746l.023,0h0a5.021,5.021,0,0,1,3.2,3.2A.572.572,0,0,0,878.746,1331.623Z" transform="translate(-807.407 -1295.952)" fill="#344154"/>
        <path id="Trazado_103744" data-name="Trazado 103744" d="M901.972,1625.883a4.012,4.012,0,0,0,2.556-.687,1.885,1.885,0,0,0,.655-1.6.979.979,0,0,0-.543-.9c-1.47-.766-5.767,1.886-6.247,2.189a.288.288,0,0,0-.144.32.3.3,0,0,0,.24.255A15.5,15.5,0,0,0,901.972,1625.883Zm1.981-2.764a.938.938,0,0,1,.4.08.387.387,0,0,1,.207.367,1.294,1.294,0,0,1-.431,1.15c-.735.607-2.477.7-4.793.24A12.915,12.915,0,0,1,903.953,1623.119Z" transform="translate(-870.701 -1119.15)" fill="#d9a171"/>
        <path id="Trazado_103745" data-name="Trazado 103745" d="M900.24,1626.583a.275.275,0,0,0,.16,0c1.374-.751,4.042-3.675,3.754-5.145a1.04,1.04,0,0,0-1.006-.831,1.7,1.7,0,0,0-1.342.4c-1.6,1.262-1.869,5.112-1.869,5.272a.27.27,0,0,0,.143.287A.264.264,0,0,0,900.24,1626.583Zm2.636-5.4H903c.415,0,.448.24.463.319.176.879-1.6,3.084-2.892,4.121a7.465,7.465,0,0,1,1.6-4.169A1.115,1.115,0,0,1,902.876,1621.183Z" transform="translate(-872.389 -1120.33)" fill="#d9a171"/>
        <path id="Trazado_103746" data-name="Trazado 103746" d="M860.608,1623.876h0c2.077.671,5.815,1.6,7.413.5a1.729,1.729,0,0,0,.751-1.454,1.009,1.009,0,0,0-.415-.895c-1.5-1.054-7.142,1.023-7.764,1.262a.333.333,0,0,0-.208.3A.3.3,0,0,0,860.608,1623.876Zm7.365-1.374h0a.42.42,0,0,1,.16.367,1.133,1.133,0,0,1-.5.959c-.895.639-3.083.511-5.959-.3,2.317-.719,5.368-1.5,6.294-1.022Z" transform="translate(-773.803 -1119.652)" fill="#d9a171"/>
        <path id="Trazado_103747" data-name="Trazado 103747" d="M862.32,1625.174a.348.348,0,0,0,.255,0c1.678-.527,5.16-3.035,5.08-4.553,0-.367-.208-.831-1.054-1.007a2.269,2.269,0,0,0-1.806.336c-1.837,1.2-2.6,4.793-2.636,4.793a.349.349,0,0,0,.1.3Zm4.489-4.792c.208.111.224.239.224.3,0,.91-2.365,2.908-4.106,3.707a7.379,7.379,0,0,1,2.221-3.883,1.606,1.606,0,0,1,1.31-.255,1.123,1.123,0,0,1,.352.112Z" transform="translate(-775.516 -1120.951)" fill="#d9a171"/>
        <path id="Trazado_103748" data-name="Trazado 103748" d="M871.156,1374.244c.336,5.208.943,10.049,1.6,15.049s1.486,9.905,2.428,14.858a175.01,175.01,0,0,0,8.2,29.684l1.6,3.723.4.927.1.24.16.351.479.991a16.1,16.1,0,0,0,2.2,3.2,19.412,19.412,0,0,0,4.793,3.962,28.433,28.433,0,0,0,4.585,2.221,59.871,59.871,0,0,0,16.392,3.435,137.335,137.335,0,0,0,30.483-1.134l-.367-10-7.046-.8c-2.365-.272-4.713-.639-7.046-.959-4.665-.687-9.282-1.454-13.692-2.476a52.093,52.093,0,0,1-11.774-3.9,6.5,6.5,0,0,1-2.572-1.965c0-.24.463.767-.128-.831l-1.054-3.083a201.25,201.25,0,0,1-5.911-26.936c-.767-4.633-1.406-9.314-2.045-14.011s-1.134-9.474-1.6-13.964Z" transform="translate(-866.806 -1268.405)" fill="#ffc3bd"/>
        <path id="Trazado_103749" data-name="Trazado 103749" d="M900.062,1371.092c-6.518,10.928-.958,45.309-.958,45.309l34.189-6.39s1.853-19.683-4.665-34.8C921.55,1358.822,907.954,1357.831,900.062,1371.092Z" transform="translate(-896.894 -1274.902)" fill="#dbfdfd"/>
        <path id="Trazado_103750" data-name="Trazado 103750" d="M816.53,1471.649l18.133-84.355a17.063,17.063,0,0,1,15.864-13.052h69.465a17.1,17.1,0,0,0-15.864,13.052l-18.117,84.355a17.091,17.091,0,0,1-15.865,13.052H800.666A17.075,17.075,0,0,0,816.53,1471.649Z" transform="translate(-729.614 -1267.556)" fill="#344154"/>
        <path id="Trazado_103751" data-name="Trazado 103751" d="M816.53,1471.649l18.133-84.355a17.063,17.063,0,0,1,15.864-13.052h69.465a17.1,17.1,0,0,0-15.864,13.052l-18.117,84.355a17.091,17.091,0,0,1-15.865,13.052H800.666A17.075,17.075,0,0,0,816.53,1471.649Z" transform="translate(-729.614 -1267.556)" fill="#636363" opacity="0.7" style="isolation: isolate"/>
        <rect id="Rectángulo_5636" data-name="Rectángulo 5636" width="19.269" height="5.127" transform="translate(215.881 228.105) rotate(-95.143)" fill="#d9a171"/>
        <rect id="Rectángulo_5637" data-name="Rectángulo 5637" width="7.891" height="3.093" transform="matrix(-0.092, -0.996, 0.996, -0.092, 219.474, 245.959)" fill="#d9a171"/>
        <path id="Trazado_103752" data-name="Trazado 103752" d="M849.884,1374.242H780.419a14.588,14.588,0,0,1,14.235,13.052l18.021,196a14.6,14.6,0,0,0,14.251,13.053h43.36a11.727,11.727,0,0,0,11.944-11.5,11.941,11.941,0,0,0-.074-1.548l-18.021-196A14.6,14.6,0,0,0,849.884,1374.242Z" transform="translate(-659.505 -1267.556)" fill="#e8e8e8"/>
        <path id="Trazado_103753" data-name="Trazado 103753" d="M775.948,1505.092a11.726,11.726,0,0,1-10.324,12.979,11.524,11.524,0,0,1-1.547.073h69.481a11.71,11.71,0,0,0,11.93-11.487,12,12,0,0,0-.075-1.566Z" transform="translate(-596.657 -1189.356)" fill="#344154"/>
        <path id="Trazado_103754" data-name="Trazado 103754" d="M775.948,1505.092a11.726,11.726,0,0,1-10.324,12.979,11.524,11.524,0,0,1-1.547.073h69.481a11.71,11.71,0,0,0,11.93-11.487,12,12,0,0,0-.075-1.566Z" transform="translate(-596.657 -1189.356)" fill="#636363" opacity="0.7" style="isolation: isolate"/>
        <g id="Grupo_59418" data-name="Grupo 59418" transform="translate(144.079 122.965)" opacity="0.5">
          <path id="Trazado_103755" data-name="Trazado 103755" d="M799.682,1390.119h47.1a2.555,2.555,0,0,0,2.588-2.523,2.706,2.706,0,0,0-.016-.321h0a3.2,3.2,0,0,0-3.1-2.843H799.234a2.556,2.556,0,0,0-2.588,2.524,2.363,2.363,0,0,0,.016.32h0A3.193,3.193,0,0,0,799.682,1390.119Z" transform="translate(-796.646 -1384.432)" fill="#afafaf"/>
          <path id="Trazado_103756" data-name="Trazado 103756" d="M798.881,1399.74H845.9a2.557,2.557,0,0,0,2.6-2.507,2.686,2.686,0,0,0-.016-.337h0a3.2,3.2,0,0,0-3.1-2.844H798.37a2.557,2.557,0,0,0-2.6,2.508,2.592,2.592,0,0,0,.016.336h0A3.2,3.2,0,0,0,798.881,1399.74Z" transform="translate(-794.376 -1378.682)" fill="#afafaf"/>
          <path id="Trazado_103757" data-name="Trazado 103757" d="M798,1409.37h35.515a2.555,2.555,0,0,0,2.588-2.522,2.727,2.727,0,0,0-.016-.321h0a3.2,3.2,0,0,0-3.1-2.844H797.5a2.558,2.558,0,0,0-2.6,2.508,2.591,2.591,0,0,0,.016.336h0A3.194,3.194,0,0,0,798,1409.37Z" transform="translate(-780.581 -1372.928)" fill="#afafaf"/>
          <path id="Trazado_103758" data-name="Trazado 103758" d="M797.133,1419.034h12.03a2.557,2.557,0,0,0,2.6-2.508,2.722,2.722,0,0,0-.014-.32h0a3.2,3.2,0,0,0-3.1-2.844H796.605a2.557,2.557,0,0,0-2.588,2.524,2.39,2.39,0,0,0,.016.319h0A3.193,3.193,0,0,0,797.133,1419.034Z" transform="translate(-754.843 -1367.142)" fill="#afafaf"/>
          <path id="Trazado_103759" data-name="Trazado 103759" d="M796.21,1428.62h47.05a2.555,2.555,0,0,0,2.588-2.523,2.762,2.762,0,0,0-.016-.321h0a3.2,3.2,0,0,0-3.1-2.844h-47a2.556,2.556,0,0,0-2.588,2.844h0A3.194,3.194,0,0,0,796.21,1428.62Z" transform="translate(-787.502 -1361.423)" fill="#afafaf"/>
          <path id="Trazado_103760" data-name="Trazado 103760" d="M795.364,1438.25h28.518a2.556,2.556,0,0,0,2.6-2.507,2.654,2.654,0,0,0-.016-.337h0a3.2,3.2,0,0,0-3.1-2.844h-28.5a2.573,2.573,0,0,0-2.6,2.542,2.418,2.418,0,0,0,.014.3h0A3.2,3.2,0,0,0,795.364,1438.25Z" transform="translate(-766.766 -1355.668)" fill="#afafaf"/>
          <path id="Trazado_103761" data-name="Trazado 103761" d="M794.478,1447.869H841.5a2.555,2.555,0,0,0,2.588-2.522,2.732,2.732,0,0,0-.016-.321h0a3.2,3.2,0,0,0-3.1-2.844H794a2.572,2.572,0,0,0-2.6,2.541,2.321,2.321,0,0,0,.014.3h0A3.193,3.193,0,0,0,794.478,1447.869Z" transform="translate(-782.975 -1349.919)" fill="#afafaf"/>
          <path id="Trazado_103762" data-name="Trazado 103762" d="M793.632,1457.5h35.483a2.557,2.557,0,0,0,2.6-2.507,2.665,2.665,0,0,0-.016-.337h0a3.2,3.2,0,0,0-3.1-2.844H793.12a2.557,2.557,0,0,0-2.6,2.509,2.628,2.628,0,0,0,.016.335h0A3.2,3.2,0,0,0,793.632,1457.5Z" transform="translate(-769.203 -1344.164)" fill="#afafaf"/>
          <path id="Trazado_103763" data-name="Trazado 103763" d="M792.753,1467.129H804.8a2.57,2.57,0,0,0,2.6-2.54c0-.1,0-.2-.014-.3h0a3.2,3.2,0,0,0-3.115-2.844h-12.03a2.556,2.556,0,0,0-2.588,2.844h0A3.194,3.194,0,0,0,792.753,1467.129Z" transform="translate(-743.482 -1338.409)" fill="#afafaf"/>
          <path id="Trazado_103764" data-name="Trazado 103764" d="M791.882,1476.749h47a2.553,2.553,0,0,0,2.588-2.843h0a3.2,3.2,0,0,0-3.1-2.844H791.354a2.556,2.556,0,0,0-2.588,2.524,2.323,2.323,0,0,0,.016.32h0A3.194,3.194,0,0,0,791.882,1476.749Z" transform="translate(-776.176 -1332.659)" fill="#afafaf"/>
          <path id="Trazado_103765" data-name="Trazado 103765" d="M791,1486.38h28.5a2.557,2.557,0,0,0,2.6-2.507,2.644,2.644,0,0,0-.016-.337h0a3.2,3.2,0,0,0-3.1-2.844h-28.5a2.557,2.557,0,0,0-2.6,2.509,2.622,2.622,0,0,0,.016.335h0A3.2,3.2,0,0,0,791,1486.38Z" transform="translate(-755.39 -1326.904)" fill="#afafaf"/>
          <path id="Trazado_103766" data-name="Trazado 103766" d="M790.13,1496.033h47a2.557,2.557,0,0,0,2.6-2.506,2.655,2.655,0,0,0-.016-.337h0a3.2,3.2,0,0,0-3.1-2.828H789.6a2.557,2.557,0,0,0-2.587,2.526,2.372,2.372,0,0,0,.014.3h0A3.194,3.194,0,0,0,790.13,1496.033Z" transform="translate(-771.629 -1321.125)" fill="#afafaf"/>
        </g>
        <path id="Trazado_103767" data-name="Trazado 103767" d="M864.586,1419.849l10.209-8.866,4.793,16.328s-10.368,5.623-13.947.463Z" transform="translate(-791.33 -1245.6)" fill="#ffc3bd"/>
        <path id="Trazado_103768" data-name="Trazado 103768" d="M869.66,1410.582l3.323,13.692-9.65,3.275-4.777-16.327Z" transform="translate(-775.091 -1245.838)" fill="#ffc3bd"/>
      </g>
      <g id="Grupo_87379" data-name="Grupo 87379" transform="translate(41.445 337.309)">
        <g id="Grupo_58071" data-name="Grupo 58071">
          <g id="Grupo_58065" data-name="Grupo 58065">
            <g id="Grupo_58064" data-name="Grupo 58064">
              <path id="Trazado_102311" data-name="Trazado 102311" d="M434.156,5188.258a42.547,42.547,0,1,1-48.4-35.632A42.5,42.5,0,0,1,434.156,5188.258Z" transform="translate(-349.533 -5152.144)" fill="#f5f5f5"/>
            </g>
          </g>
          <g id="Grupo_58067" data-name="Grupo 58067" transform="translate(10.125 10.102)">
            <g id="Grupo_58066" data-name="Grupo 58066">
              <path id="Trazado_102312" data-name="Trazado 102312" d="M422.915,5188.542a32.424,32.424,0,1,1-36.883-27.154A32.387,32.387,0,0,1,422.915,5188.542Z" transform="translate(-358.428 -5161.02)" fill="#ececec"/>
            </g>
          </g>
          <g id="Grupo_58070" data-name="Grupo 58070" transform="translate(9.53 8.872)">
            <g id="Grupo_58069" data-name="Grupo 58069">
              <g id="Grupo_58068" data-name="Grupo 58068">
                <path id="Trazado_102313" data-name="Trazado 102313" d="M422.829,5187.686c-.193.04-.543-1.35-1.429-3.726a34.483,34.483,0,0,0-5.18-9.273,33.4,33.4,0,0,0-5.124-5.184,32.445,32.445,0,0,0-7.107-4.341,31.662,31.662,0,0,0-8.828-2.49,31.545,31.545,0,0,0-4.851-.261,35.074,35.074,0,0,0-4.978.509,34.6,34.6,0,0,0-4.837,1.29,31.573,31.573,0,0,0-4.446,1.958,31.831,31.831,0,0,0-7.374,5.454,32.5,32.5,0,0,0-5.108,6.579,33.177,33.177,0,0,0-2.954,6.665,34.408,34.408,0,0,0-1.558,10.5c.015,2.534.18,3.952-.015,3.987-.142.03-.633-1.335-.951-3.931a30.005,30.005,0,0,1,.834-11.043,32.5,32.5,0,0,1,8.12-14.362,31.367,31.367,0,0,1,3.611-3.222,31.768,31.768,0,0,1,4.234-2.768,33.175,33.175,0,0,1,4.783-2.146,33.2,33.2,0,0,1,10.587-1.937,32.952,32.952,0,0,1,5.233.315,33.214,33.214,0,0,1,9.456,2.822,32.559,32.559,0,0,1,12.682,10.556,30.035,30.035,0,0,1,4.693,10.03C422.947,5186.214,422.972,5187.664,422.829,5187.686Z" transform="translate(-357.905 -5159.938)" fill="#e1e1e1"/>
              </g>
            </g>
          </g>
        </g>
      </g>
      <g id="Grupo_87381" data-name="Grupo 87381" transform="translate(117.056 284.312) rotate(-43)">
        <g id="Grupo_81848" data-name="Grupo 81848" transform="translate(0 0)">
          <g id="Grupo_81829" data-name="Grupo 81829">
            <g id="Grupo_81828" data-name="Grupo 81828">
              <g id="Grupo_81827" data-name="Grupo 81827">
                <g id="Grupo_81826" data-name="Grupo 81826">
                  <g id="Grupo_81825" data-name="Grupo 81825">
                    <g id="Grupo_81824" data-name="Grupo 81824">
                      <path id="Trazado_139735" data-name="Trazado 139735" d="M56.528,101.77,4.718,85.01A6.813,6.813,0,0,1,.333,76.43L23.53,4.719A6.814,6.814,0,0,1,32.11.333L64.968,10.962,81.923,45.405,65.108,97.384A6.814,6.814,0,0,1,56.528,101.77Z" fill="#e2f4f6"/>
                    </g>
                  </g>
                </g>
              </g>
            </g>
          </g>
          <g id="Grupo_81835" data-name="Grupo 81835" transform="translate(58.13 10.962)">
            <g id="Grupo_81834" data-name="Grupo 81834" transform="translate(0 0)">
              <g id="Grupo_81833" data-name="Grupo 81833">
                <g id="Grupo_81832" data-name="Grupo 81832">
                  <g id="Grupo_81831" data-name="Grupo 81831">
                    <g id="Grupo_81830" data-name="Grupo 81830">
                      <path id="Trazado_139736" data-name="Trazado 139736" d="M6.838,0,.309,20.183a6.337,6.337,0,0,0,4.078,7.979l19.406,6.281Z" fill="#f2e9e4"/>
                    </g>
                  </g>
                </g>
              </g>
            </g>
          </g>
          <g id="Grupo_81841" data-name="Grupo 81841" transform="translate(57.805 33.001)" opacity="0.2">
            <g id="Grupo_81840" data-name="Grupo 81840" transform="translate(0 0)">
              <g id="Grupo_81839" data-name="Grupo 81839" transform="translate(0 0)">
                <g id="Grupo_81838" data-name="Grupo 81838">
                  <g id="Grupo_81837" data-name="Grupo 81837">
                    <g id="Grupo_81836" data-name="Grupo 81836">
                      <path id="Trazado_139737" data-name="Trazado 139737" d="M.326,0S-1.512,4.812,3.54,8.225a6.752,6.752,0,0,0,.592.35c2.387,1.272,18.108,9.635,18.231,9.252.135-.415,1.756-5.423,1.756-5.423L4.711,6.126S-.08,4.394.326,0Z"/>
                    </g>
                  </g>
                </g>
              </g>
            </g>
          </g>
        </g>
        <g id="Grupo_81853" data-name="Grupo 81853" transform="translate(30.391 21.133)">
          <g id="Grupo_81852" data-name="Grupo 81852" transform="translate(0 0)">
            <g id="Grupo_81851" data-name="Grupo 81851">
              <g id="Grupo_81850" data-name="Grupo 81850">
                <g id="Grupo_81849" data-name="Grupo 81849">
                  <path id="Trazado_139739" data-name="Trazado 139739" d="M23.97,7.782c-.084.26-5.519-1.267-12.136-3.407S-.083.287,0,.029,5.517,1.294,12.138,3.436,24.054,7.522,23.97,7.782Z" fill="#12263f"/>
                </g>
              </g>
            </g>
          </g>
        </g>
        <g id="Grupo_81858" data-name="Grupo 81858" transform="translate(26.7 32.555)">
          <g id="Grupo_81857" data-name="Grupo 81857" transform="translate(0 0)">
            <g id="Grupo_81856" data-name="Grupo 81856">
              <g id="Grupo_81855" data-name="Grupo 81855">
                <g id="Grupo_81854" data-name="Grupo 81854">
                  <path id="Trazado_139740" data-name="Trazado 139740" d="M39.451,12.779c-.084.26-8.984-2.387-19.876-5.91S-.084.277,0,.017,8.983,2.4,19.878,5.929,39.534,12.52,39.451,12.779Z" fill="#12263f"/>
                </g>
              </g>
            </g>
          </g>
        </g>
        <g id="Grupo_81863" data-name="Grupo 81863" transform="translate(23.617 42.086)">
          <g id="Grupo_81862" data-name="Grupo 81862" transform="translate(0 0)">
            <g id="Grupo_81861" data-name="Grupo 81861">
              <g id="Grupo_81860" data-name="Grupo 81860">
                <g id="Grupo_81859" data-name="Grupo 81859">
                  <path id="Trazado_139741" data-name="Trazado 139741" d="M43,13.926c-.084.26-9.779-2.645-21.653-6.485S-.083.276,0,.016,9.778,2.66,21.655,6.5,43.087,13.668,43,13.926Z" fill="#12263f"/>
                </g>
              </g>
            </g>
          </g>
        </g>
        <g id="Grupo_81868" data-name="Grupo 81868" transform="translate(20.708 51.075)">
          <g id="Grupo_81867" data-name="Grupo 81867" transform="translate(0 0)">
            <g id="Grupo_81866" data-name="Grupo 81866">
              <g id="Grupo_81865" data-name="Grupo 81865">
                <g id="Grupo_81864" data-name="Grupo 81864">
                  <path id="Trazado_139742" data-name="Trazado 139742" d="M43,13.927c-.084.26-9.779-2.645-21.653-6.486S-.083.276,0,.016,9.778,2.661,21.655,6.5,43.088,13.668,43,13.927Z" fill="#12263f"/>
                </g>
              </g>
            </g>
          </g>
        </g>
        <g id="Grupo_81873" data-name="Grupo 81873" transform="translate(17.801 60.066)">
          <g id="Grupo_81872" data-name="Grupo 81872" transform="translate(0 0)">
            <g id="Grupo_81871" data-name="Grupo 81871">
              <g id="Grupo_81870" data-name="Grupo 81870">
                <g id="Grupo_81869" data-name="Grupo 81869">
                  <path id="Trazado_139743" data-name="Trazado 139743" d="M43,13.926c-.083.26-9.779-2.644-21.651-6.485S-.084.276,0,.016,9.778,2.66,21.655,6.5,43.087,13.668,43,13.926Z" fill="#12263f"/>
                </g>
              </g>
            </g>
          </g>
        </g>
        <g id="Grupo_81878" data-name="Grupo 81878" transform="translate(14.892 69.056)">
          <g id="Grupo_81877" data-name="Grupo 81877" transform="translate(0 0)">
            <g id="Grupo_81876" data-name="Grupo 81876">
              <g id="Grupo_81875" data-name="Grupo 81875">
                <g id="Grupo_81874" data-name="Grupo 81874">
                  <path id="Trazado_139744" data-name="Trazado 139744" d="M43,13.927c-.084.26-9.779-2.645-21.653-6.486S-.083.276,0,.016,9.778,2.661,21.655,6.5,43.087,13.668,43,13.927Z" fill="#12263f"/>
                </g>
              </g>
            </g>
          </g>
        </g>
      </g>
      <g id="Grupo_87382" data-name="Grupo 87382" transform="translate(207.099 391.775) rotate(-90)">
        <path id="Trazado_141631" data-name="Trazado 141631" d="M43.55,34.674,21.579,0,0,34.674H8.858V79.011H34.688V34.674Z" fill="#a4a3ff" stroke="#000" stroke-linecap="round" stroke-linejoin="round" stroke-width="1.5"/>
      </g>
      <g id="Grupo_87383" data-name="Grupo 87383" transform="translate(477.878 80.304) rotate(90)">
        <path id="Trazado_141631-2" data-name="Trazado 141631" d="M43.55,34.674,21.579,0,0,34.674H8.858V79.011H34.688V34.674Z" fill="#a4a3ff" stroke="#000" stroke-linecap="round" stroke-linejoin="round" stroke-width="1.5"/>
      </g>
      <g id="Grupo_87384" data-name="Grupo 87384" transform="translate(0 0)">
        <g id="Grupo_82796" data-name="Grupo 82796">
          <g id="Grupo_82787" data-name="Grupo 82787">
            <g id="Grupo_82752" data-name="Grupo 82752">
              <g id="Grupo_82748" data-name="Grupo 82748" transform="translate(0.286 0.286)">
                <g id="Grupo_82747" data-name="Grupo 82747">
                  <rect id="Rectángulo_30467" data-name="Rectángulo 30467" width="252.571" height="196.57" fill="#fff"/>
                </g>
              </g>
              <g id="Grupo_82751" data-name="Grupo 82751">
                <g id="Grupo_82750" data-name="Grupo 82750">
                  <g id="Grupo_82749" data-name="Grupo 82749">
                    <path id="Trazado_139940" data-name="Trazado 139940" d="M451.248,263.376c0-1.962-.093-77.946-.235-196.57l.235.235-252.549.05h-.022l.285-.285c-.01,70.854-.02,137.872-.028,196.569l-.257-.256,252.571.257-252.571.256h-.256v-.258c-.009-58.7-.019-125.714-.029-196.569V66.52h.307l252.549.05h.236v.236C451.343,185.43,451.251,261.415,451.248,263.376Z" transform="translate(-198.392 -66.52)" fill="#263238"/>
                  </g>
                </g>
              </g>
            </g>
            <g id="Grupo_82786" data-name="Grupo 82786" transform="translate(12.605 26.111)">
              <g id="Grupo_82754" data-name="Grupo 82754">
                <g id="Grupo_82753" data-name="Grupo 82753">
                  <rect id="Rectángulo_30468" data-name="Rectángulo 30468" width="40.887" height="2.275" fill="#263238"/>
                </g>
              </g>
              <g id="Grupo_82756" data-name="Grupo 82756" transform="translate(0 5.324)">
                <g id="Grupo_82755" data-name="Grupo 82755">
                  <rect id="Rectángulo_30469" data-name="Rectángulo 30469" width="20.205" height="2.275" fill="#263238"/>
                </g>
              </g>
              <g id="Grupo_82785" data-name="Grupo 82785" transform="translate(23.311 16.605)">
                <g id="Grupo_82779" data-name="Grupo 82779">
                  <g id="Grupo_82757" data-name="Grupo 82757" transform="translate(0 125.895)">
                    <rect id="Rectángulo_30470" data-name="Rectángulo 30470" width="7.406" height="2.134" fill="#263238"/>
                  </g>
                  <g id="Grupo_82758" data-name="Grupo 82758" transform="translate(16.755 137.305)">
                    <rect id="Rectángulo_30471" data-name="Rectángulo 30471" width="9.471" height="2.134" fill="#263238"/>
                  </g>
                  <g id="Grupo_82759" data-name="Grupo 82759" transform="translate(49.727 137.305)">
                    <rect id="Rectángulo_30472" data-name="Rectángulo 30472" width="9.471" height="2.134" fill="#263238"/>
                  </g>
                  <g id="Grupo_82760" data-name="Grupo 82760" transform="translate(82.699 137.305)">
                    <rect id="Rectángulo_30473" data-name="Rectángulo 30473" width="9.471" height="2.134" fill="#263238"/>
                  </g>
                  <g id="Grupo_82761" data-name="Grupo 82761" transform="translate(115.671 137.305)">
                    <rect id="Rectángulo_30474" data-name="Rectángulo 30474" width="9.471" height="2.134" fill="#263238"/>
                  </g>
                  <g id="Grupo_82762" data-name="Grupo 82762" transform="translate(148.643 137.305)">
                    <rect id="Rectángulo_30475" data-name="Rectángulo 30475" width="9.471" height="2.134" fill="#263238"/>
                  </g>
                  <g id="Grupo_82763" data-name="Grupo 82763" transform="translate(181.614 137.305)">
                    <rect id="Rectángulo_30476" data-name="Rectángulo 30476" width="9.472" height="2.134" fill="#263238"/>
                  </g>
                  <g id="Grupo_82764" data-name="Grupo 82764" transform="translate(0 97.39)">
                    <rect id="Rectángulo_30477" data-name="Rectángulo 30477" width="7.406" height="2.134" fill="#263238"/>
                  </g>
                  <g id="Grupo_82765" data-name="Grupo 82765" transform="translate(0 43.741)">
                    <rect id="Rectángulo_30478" data-name="Rectángulo 30478" width="7.406" height="2.134" fill="#263238"/>
                  </g>
                  <g id="Grupo_82766" data-name="Grupo 82766" transform="translate(0 16.781)">
                    <rect id="Rectángulo_30479" data-name="Rectángulo 30479" width="7.406" height="2.134" fill="#263238"/>
                  </g>
                  <g id="Grupo_82767" data-name="Grupo 82767" transform="translate(0.375 70.566)">
                    <rect id="Rectángulo_30480" data-name="Rectángulo 30480" width="7.406" height="2.134" fill="#263238"/>
                  </g>
                  <g id="Grupo_82769" data-name="Grupo 82769" transform="translate(11.017)">
                    <g id="Grupo_82768" data-name="Grupo 82768">
                      <path id="Trazado_139941" data-name="Trazado 139941" d="M426.064,238.117s-.269.018-.793.026l-2.331.025-8.961.048-32.959.081-108.738.074-25.769,0h-.252v-.252c.034-36.367.064-68.368.085-91.295.032-11.448.059-20.626.076-26.959.019-3.149.033-5.589.043-7.257.01-.817.018-1.441.023-1.879s.023-.639.023-.639.016.217.024.639.013,1.062.024,1.879c.01,1.669.024,4.108.043,7.257.018,6.334.043,15.512.075,26.959.022,22.927.052,54.928.086,91.295l-.252-.251,25.769,0,108.738.075,32.959.081,8.961.048,2.331.025C425.8,238.1,426.064,238.117,426.064,238.117Z" transform="translate(-246.261 -110.088)" fill="#263238"/>
                    </g>
                  </g>
                  <g id="Grupo_82771" data-name="Grupo 82771" transform="translate(18.433 71.378)">
                    <g id="Grupo_82770" data-name="Grupo 82770">
                      <path id="Trazado_139942" data-name="Trazado 139942" d="M428.3,183.145c0,.141-39.06.255-87.232.255-48.19,0-87.241-.114-87.241-.255s39.052-.255,87.241-.255C389.238,182.89,428.3,183,428.3,183.145Z" transform="translate(-253.825 -182.89)" fill="#263238"/>
                    </g>
                  </g>
                  <g id="Grupo_82773" data-name="Grupo 82773" transform="translate(18.433 44.553)">
                    <g id="Grupo_82772" data-name="Grupo 82772">
                      <path id="Trazado_139943" data-name="Trazado 139943" d="M428.3,155.785c0,.141-39.06.256-87.232.256-48.19,0-87.241-.115-87.241-.256s39.052-.255,87.241-.255C389.238,155.53,428.3,155.645,428.3,155.785Z" transform="translate(-253.825 -155.53)" fill="#263238"/>
                    </g>
                  </g>
                  <g id="Grupo_82775" data-name="Grupo 82775" transform="translate(18.433 17.593)">
                    <g id="Grupo_82774" data-name="Grupo 82774">
                      <path id="Trazado_139944" data-name="Trazado 139944" d="M428.3,128.287c0,.141-39.06.255-87.232.255-48.19,0-87.241-.114-87.241-.255s39.052-.255,87.241-.255C389.238,128.032,428.3,128.146,428.3,128.287Z" transform="translate(-253.825 -128.032)" fill="#263238"/>
                    </g>
                  </g>
                  <g id="Grupo_82777" data-name="Grupo 82777" transform="translate(18.433 98.202)">
                    <g id="Grupo_82776" data-name="Grupo 82776">
                      <path id="Trazado_139945" data-name="Trazado 139945" d="M428.3,210.5c0,.14-39.06.255-87.232.255-48.19,0-87.241-.115-87.241-.255s39.052-.256,87.241-.256C389.238,210.249,428.3,210.364,428.3,210.5Z" transform="translate(-253.825 -210.249)" fill="#263238"/>
                    </g>
                  </g>
                  <g id="Grupo_82778" data-name="Grupo 82778" transform="translate(20.232 1.979)">
                    <path id="Trazado_139946" data-name="Trazado 139946" d="M255.66,232.385v-23.8l14.833-23.029,10.066,7.723,20.661-32.094,12.185,8.582,16.954-29.607,13.774,11.221,20.661-39.275L387.045,156l18.013-21.964,21.19-6.064V232.385Z" transform="translate(-255.66 -112.106)" fill="#25ffff"/>
                  </g>
                </g>
                <g id="Grupo_82781" data-name="Grupo 82781" transform="translate(20.232 9.255)">
                  <g id="Grupo_82780" data-name="Grupo 82780">
                    <path id="Trazado_139947" data-name="Trazado 139947" d="M428.334,119.67s-.126.014-.374.02l-1.1.02-4.3.036-16.261.067.112-.055-17.441,22.762-.061.078h-.1l-43.627.044.21-.12-18.345,30.535-18,29.933-.191.318-.219-.3-23.642-32.487.343-.011-21.53,33.6-5.995,9.3q-1.032,1.584-1.585,2.43c-.361.547-.56.821-.56.821s.163-.3.507-.855l1.533-2.462,5.9-9.357,21.38-33.7.164-.257.18.247c7.063,9.666,15.058,20.609,23.7,32.443l-.409.018c5.705-9.5,11.748-19.553,17.989-29.943l18.362-30.523.072-.12h.139l43.627.044-.16.078,17.537-22.689.043-.056h.07l16.261.066,4.3.037,1.1.019C428.208,119.657,428.334,119.67,428.334,119.67Z" transform="translate(-255.66 -119.528)" fill="#263238"/>
                  </g>
                </g>
                <g id="Grupo_82782" data-name="Grupo 82782" transform="translate(53.531 66.142)">
                  <path id="Trazado_139948" data-name="Trazado 139948" d="M292.97,179.161a1.675,1.675,0,1,1-1.674-1.612A1.643,1.643,0,0,1,292.97,179.161Z" transform="translate(-289.623 -177.549)" fill="#263238"/>
                </g>
                <g id="Grupo_82783" data-name="Grupo 82783" transform="translate(103.852 37.54)">
                  <path id="Trazado_139949" data-name="Trazado 139949" d="M344.3,149.988a1.675,1.675,0,1,1-1.675-1.611A1.644,1.644,0,0,1,344.3,149.988Z" transform="translate(-340.948 -148.377)" fill="#263238"/>
                </g>
                <g id="Grupo_82784" data-name="Grupo 82784" transform="translate(142.972 30.512)">
                  <ellipse id="Elipse_4214" data-name="Elipse 4214" cx="1.674" cy="1.612" rx="1.674" ry="1.612" fill="#263238"/>
                </g>
              </g>
            </g>
          </g>
          <g id="Grupo_82791" data-name="Grupo 82791" transform="translate(6.95 6.432)">
            <g id="Grupo_82788" data-name="Grupo 82788">
              <path id="Trazado_139950" data-name="Trazado 139950" d="M209.369,75.024a1.944,1.944,0,1,1-1.944-1.944A1.944,1.944,0,0,1,209.369,75.024Z" transform="translate(-205.481 -73.08)" fill="#263238"/>
            </g>
            <g id="Grupo_82789" data-name="Grupo 82789" transform="translate(5.654)">
              <path id="Trazado_139951" data-name="Trazado 139951" d="M215.137,75.024a1.945,1.945,0,1,1-1.945-1.944A1.945,1.945,0,0,1,215.137,75.024Z" transform="translate(-211.248 -73.08)" fill="#263238"/>
            </g>
            <g id="Grupo_82790" data-name="Grupo 82790" transform="translate(11.309)">
              <path id="Trazado_139952" data-name="Trazado 139952" d="M220.9,75.024a1.944,1.944,0,1,1-1.944-1.944A1.944,1.944,0,0,1,220.9,75.024Z" transform="translate(-217.016 -73.08)" fill="#263238"/>
            </g>
          </g>
          <g id="Grupo_82795" data-name="Grupo 82795" transform="translate(0.568 15.773)">
            <g id="Grupo_82792" data-name="Grupo 82792" transform="translate(0 0.256)">
              <line id="Línea_1799" data-name="Línea 1799" x2="252.077" fill="#263238"/>
            </g>
            <g id="Grupo_82794" data-name="Grupo 82794">
              <g id="Grupo_82793" data-name="Grupo 82793">
                <path id="Trazado_139953" data-name="Trazado 139953" d="M451.049,82.864c0,.141-56.434.255-126.033.255-69.623,0-126.045-.114-126.045-.255s56.422-.256,126.045-.256C394.615,82.608,451.049,82.723,451.049,82.864Z" transform="translate(-198.971 -82.608)" fill="#263238"/>
              </g>
            </g>
          </g>
        </g>
      </g>
    </g>
    <g id="Grupo_166806" data-name="Grupo 166806" transform="matrix(0.883, -0.469, 0.469, 0.883, 976.284, 3576.826)">
      <g id="Grupo_77157" data-name="Grupo 77157" transform="translate(11.65 0)">
        <g id="Grupo_77156" data-name="Grupo 77156">
          <g id="Grupo_77155" data-name="Grupo 77155">
            <g id="Grupo_77154" data-name="Grupo 77154">
              <g id="Grupo_77153" data-name="Grupo 77153">
                <g id="Grupo_77152" data-name="Grupo 77152">
                  <g id="Grupo_77151" data-name="Grupo 77151">
                    <g id="Grupo_77146" data-name="Grupo 77146" transform="translate(0.835 0.299)">
                      <path id="Trazado_124127" data-name="Trazado 124127" d="M65.576,11.182A48.519,48.519,0,0,1,78.031,14.47L87.185,6.8l15.724,11.968L97.955,29.636a48.319,48.319,0,0,1,6.489,11.127l11.894,1.051,2.656,19.578-11.182,4.181a48.382,48.382,0,0,1-3.291,12.455l7.669,9.157-11.965,15.721L89.358,97.955a48.423,48.423,0,0,1-11.13,6.486L77.18,116.334,57.6,118.994l-4.181-11.185a48.434,48.434,0,0,1-12.455-3.291l-9.155,7.672L16.084,100.222l4.955-10.868a48.557,48.557,0,0,1-6.489-11.13L2.659,77.177,0,57.6l11.185-4.178A48.147,48.147,0,0,1,14.476,40.96L6.8,31.805,18.768,16.081l10.871,4.955a48.486,48.486,0,0,1,11.13-6.489l1.044-11.89L61.395,0l4.181,11.182ZM57.537,38.369A21.2,21.2,0,1,0,81.393,56.523,21.2,21.2,0,0,0,57.537,38.369Z" transform="translate(0 0)" fill="url(#linear-gradient)"/>
                    </g>
                    <g id="Grupo_77148" data-name="Grupo 77148" transform="translate(39.327 38.224)">
                      <g id="Grupo_77147" data-name="Grupo 77147" transform="translate(0 0)">
                        <path id="Trazado_124128" data-name="Trazado 124128" d="M19.045.443A4.107,4.107,0,0,1,20.379.157,16.508,16.508,0,0,1,24.3.074a21.1,21.1,0,0,1,13,5.974,21.8,21.8,0,0,1-.108,31.235,21.853,21.853,0,0,1-25.812,3.5A21.808,21.808,0,0,1,2.948,10.7,21.086,21.086,0,0,1,13.881,1.488a16.481,16.481,0,0,1,3.8-.964,4.188,4.188,0,0,1,1.365-.08c.034.182-1.855.367-4.915,1.664A21.138,21.138,0,0,0,4,11.3a20.628,20.628,0,0,0-.163,19.613,20.219,20.219,0,0,0,8.341,8.4,20.316,20.316,0,0,0,23.846-3.235,20.194,20.194,0,0,0,5.8-10.316A20.625,20.625,0,0,0,36.439,6.9,21.145,21.145,0,0,0,24.225.736C20.931.3,19.06.628,19.045.443Z" fill="#344154"/>
                      </g>
                    </g>
                    <g id="Grupo_77150" data-name="Grupo 77150">
                      <g id="Grupo_77149" data-name="Grupo 77149">
                        <path id="Trazado_124129" data-name="Trazado 124129" d="M66.411,11.481a3.149,3.149,0,0,1-.314-.666l-.853-2.089L61.974.394l.293.176L42.707,3.383l.376-.391c-.3,3.611-.629,7.614-.98,11.9l-.025.3-.283.12a48.155,48.155,0,0,0-10.976,6.467l-.268.21-.311-.142L19.351,16.938l.736-.188Q14.457,24.2,8.175,32.511l-.022-.838c2.385,2.829,5.007,5.941,7.7,9.133l.277.327-.163.4A47.79,47.79,0,0,0,12.75,53.806l-.052.444-.422.157L1.1,58.609l.49-.816c.844,6.15,1.756,12.781,2.69,19.575l-.718-.687c3.7.324,7.771.675,11.891,1.032l.49.043.191.456a48.031,48.031,0,0,0,6.391,10.932l.308.394L22.629,90c-1.55,3.408-3.241,7.121-4.948,10.874l-.253-1.014c4.979,3.784,10.319,7.842,15.73,11.955l-1.06.028c2.89-2.425,6.009-5.041,9.151-7.675l.4-.333.478.2a47.759,47.759,0,0,0,12.224,3.229h.009c.311.247-.693-.548.7.552l0,.009.009.025.015.043.034.087.065.176.133.354.262.7.524,1.408,1.051,2.8q1.045,2.8,2.08,5.574l-.915-.545Q68.245,117.1,77.9,115.8l-.73.764q.531-6,1.054-11.894l.046-.505.468-.194A47.728,47.728,0,0,0,89.684,97.6l.4-.308.453.209q5.514,2.519,10.865,4.964l-.989.25q6.143-8.042,11.989-15.706l.021.983q-3.9-4.668-7.654-9.17l-.3-.357.179-.428A47.73,47.73,0,0,0,107.91,65.78l.059-.447.419-.154,11.191-4.154-.456.761c-.915-6.89-1.778-13.395-2.6-19.588l.589.564c-4.178-.382-8.1-.74-11.888-1.088l-.373-.034-.142-.342A47.9,47.9,0,0,0,98.346,30.28l-.21-.274.142-.305c1.818-3.938,3.457-7.487,5-10.843l.154.61C97.381,14.8,92.217,10.822,87.786,7.4l.481-.012c-3.676,3.023-6.7,5.509-9.225,7.589l-.129.108-.151-.065a51.2,51.2,0,0,0-9.222-2.9c-.983-.194-1.753-.345-2.351-.465a3.343,3.343,0,0,1-.777-.176,4.441,4.441,0,0,1,.8.034c.527.056,1.325.148,2.382.33a46.153,46.153,0,0,1,9.379,2.672l-.28.043L87.774,6.8l.231-.2.246.188c4.474,3.359,9.688,7.278,15.8,11.869l.32.24-.166.373c-1.516,3.371-3.121,6.936-4.9,10.889l-.068-.576a48.937,48.937,0,0,1,6.612,11.238l-.511-.376,11.9,1.007.521.043.071.521c.857,6.19,1.756,12.689,2.711,19.572l.077.564-.533.2c-3.63,1.365-7.343,2.764-11.173,4.206l.475-.6a49.1,49.1,0,0,1-3.316,12.655l-.12-.782q3.772,4.488,7.685,9.139l.407.481-.382.5q-5.824,7.677-11.943,15.739l-.394.521-.595-.271L89.848,99.005l.853-.1a49.263,49.263,0,0,1-11.318,6.609l.515-.7q-.513,5.888-1.038,11.894l-.058.675-.672.092-19.582,2.662-.675.093-.24-.638q-1.04-2.777-2.083-5.577l-1.051-2.8-.524-1.405-.265-.706-.129-.351-.068-.176-.031-.089-.018-.043-.006-.021-.006-.012c1.39,1.1.385.3.693.549h-.009a49.352,49.352,0,0,1-12.661-3.346l.872-.135c-3.143,2.631-6.264,5.247-9.158,7.669l-.521.435-.539-.41c-5.408-4.12-10.741-8.187-15.718-11.977l-.533-.407.277-.61c1.713-3.75,3.411-7.46,4.967-10.861l.1.85a49.509,49.509,0,0,1-6.585-11.324l.678.5c-4.12-.37-8.187-.733-11.891-1.063l-.635-.058-.083-.629C1.793,70.784.906,64.15.08,58l-.08-.6.57-.213,11.191-4.154-.475.6a49.067,49.067,0,0,1,3.371-12.633l.111.724c-2.675-3.207-5.281-6.335-7.648-9.176l-.345-.416L7.1,31.7q6.323-8.254,12.017-15.684l.3-.391.441.2c3.808,1.753,7.466,3.442,10.849,5l-.576.068A49.07,49.07,0,0,1,41.41,14.383L41.1,14.8c.4-4.28.777-8.283,1.116-11.885l.034-.348.342-.046C50.552,1.51,57.146.672,62.193.028L62.415,0l.071.2q1.909,5.366,2.961,8.329c.305.9.548,1.612.743,2.176A4.421,4.421,0,0,1,66.411,11.481Z" fill="#344154"/>
                      </g>
                    </g>
                  </g>
                </g>
              </g>
            </g>
          </g>
        </g>
      </g>
      <g id="Grupo_77169" data-name="Grupo 77169" transform="translate(0 136.4)">
        <g id="Grupo_77168" data-name="Grupo 77168" transform="translate(0 0)">
          <g id="Grupo_77167" data-name="Grupo 77167">
            <g id="Grupo_77166" data-name="Grupo 77166">
              <g id="Grupo_77165" data-name="Grupo 77165">
                <g id="Grupo_77164" data-name="Grupo 77164">
                  <g id="Grupo_77163" data-name="Grupo 77163">
                    <g id="Grupo_77158" data-name="Grupo 77158" transform="translate(0.524 0.188)">
                      <path id="Trazado_124130" data-name="Trazado 124130" d="M41.185,7.022A30.529,30.529,0,0,1,49,9.087l5.75-4.816,9.872,7.515-3.109,6.825A30.522,30.522,0,0,1,65.595,25.6l7.469.659,1.667,12.3-7.022,2.625A30.431,30.431,0,0,1,65.641,49l4.819,5.75-7.515,9.872L56.12,61.515a30.439,30.439,0,0,1-6.992,4.077l-.656,7.469-12.3,1.67-2.622-7.025a30.442,30.442,0,0,1-7.823-2.065l-5.75,4.816L10.1,62.942l3.112-6.825a30.644,30.644,0,0,1-4.077-6.989L1.67,48.469,0,36.171l7.022-2.625A30.461,30.461,0,0,1,9.09,25.722l-4.819-5.75L11.786,10.1l6.828,3.112A30.284,30.284,0,0,1,25.6,9.136l.659-7.469L38.556,0l2.628,7.022ZM36.134,24.1A13.313,13.313,0,1,0,51.116,35.5,13.318,13.318,0,0,0,36.134,24.1Z" fill="none"/>
                    </g>
                    <g id="Grupo_77160" data-name="Grupo 77160" transform="translate(24.697 24.006)">
                      <g id="Grupo_77159" data-name="Grupo 77159" transform="translate(0 0)">
                        <path id="Trazado_124131" data-name="Trazado 124131" d="M11.961.278A2.591,2.591,0,0,1,12.8.1,10.273,10.273,0,0,1,15.261.047,13.25,13.25,0,0,1,23.423,3.8a13.7,13.7,0,0,1-.068,19.618,13.718,13.718,0,0,1-16.211,2.2A13.693,13.693,0,0,1,1.851,6.724,13.248,13.248,0,0,1,8.72.934,10.18,10.18,0,0,1,11.1.331a2.555,2.555,0,0,1,.857-.052c.022.114-1.165.231-3.088,1.045A13.263,13.263,0,0,0,2.514,7.1a12.952,12.952,0,0,0-.1,12.316,12.7,12.7,0,0,0,5.238,5.275,12.762,12.762,0,0,0,14.978-2.034,12.715,12.715,0,0,0,3.642-6.48A12.953,12.953,0,0,0,22.884,4.336,13.267,13.267,0,0,0,15.215.463C13.147.189,11.97.4,11.961.278Z" fill="#263238"/>
                      </g>
                    </g>
                    <g id="Grupo_77162" data-name="Grupo 77162">
                      <g id="Grupo_77161" data-name="Grupo 77161">
                        <path id="Trazado_124132" data-name="Trazado 124132" d="M41.708,7.21a1.922,1.922,0,0,1-.2-.419l-.533-1.31Q40.24,3.619,38.92.246L39.1.357,26.82,2.126l.237-.246c-.188,2.268-.394,4.782-.616,7.472l-.015.188-.179.077a30.269,30.269,0,0,0-6.893,4.061l-.166.132-.2-.089-6.837-3.084.462-.117c-2.357,3.118-4.856,6.428-7.481,9.9l-.012-.527c1.494,1.778,3.143,3.731,4.835,5.737l.173.2-.1.253a29.992,29.992,0,0,0-2.015,7.709l-.034.277-.265.1c-2.175.82-4.573,1.719-7.016,2.641l.3-.515c.533,3.861,1.1,8.027,1.692,12.295l-.453-.431,7.469.65.308.024.117.287a30.18,30.18,0,0,0,4.015,6.865l.194.25-.129.286c-.974,2.138-2.034,4.471-3.106,6.828l-.16-.638c3.128,2.379,6.48,4.927,9.879,7.509l-.666.015c1.815-1.522,3.775-3.164,5.747-4.819l.25-.209.3.126a29.968,29.968,0,0,0,7.676,2.028h.006c.194.154-.434-.345.438.345l0,.006.006.016.009.028.022.055.04.111.083.222.163.441.33.884.659,1.759c.437,1.171.875,2.342,1.306,3.5l-.573-.345q6.235-.846,12.3-1.664l-.456.48q.333-3.771.659-7.469l.031-.321.293-.12a29.894,29.894,0,0,0,6.874-4l.25-.194.287.132,6.822,3.118-.622.154q3.859-5.047,7.531-9.863l.012.619L65.795,49.5l-.188-.225.111-.268a29.956,29.956,0,0,0,2.052-7.7l.034-.28.265-.1L75.1,38.325l-.286.478c-.573-4.326-1.115-8.412-1.633-12.3l.373.354-7.466-.684-.234-.021-.089-.216a30.169,30.169,0,0,0-4-6.921l-.129-.169.086-.194c1.143-2.471,2.172-4.7,3.146-6.81l.1.385c-3.8-2.93-7.044-5.432-9.829-7.577l.3-.006L49.64,9.407l-.083.068-.1-.04a31.9,31.9,0,0,0-5.79-1.821L42.2,7.321a1.927,1.927,0,0,1-.487-.111,2.781,2.781,0,0,1,.5.022c.333.034.832.093,1.5.207a29.075,29.075,0,0,1,5.888,1.676l-.176.027c1.565-1.334,3.433-2.93,5.7-4.869l.148-.123.154.117,9.922,7.454.2.151-.1.234c-.952,2.117-1.96,4.354-3.078,6.837l-.043-.361a30.736,30.736,0,0,1,4.154,7.056l-.32-.234,7.469.632.327.028.046.327c.539,3.886,1.1,7.968,1.7,12.291l.046.354-.333.126c-2.28.857-4.613,1.735-7.019,2.641l.3-.376a30.717,30.717,0,0,1-2.083,7.947l-.074-.493q2.371,2.82,4.828,5.741l.253.3-.24.318q-3.656,4.821-7.5,9.885l-.247.323-.373-.17q-3.369-1.53-6.828-3.1l.533-.061a30.96,30.96,0,0,1-7.105,4.15l.32-.441q-.319,3.7-.65,7.469l-.037.422-.422.059Q43,74.6,36.769,75.449l-.425.058-.151-.4c-.434-1.165-.872-2.329-1.31-3.5l-.656-1.76-.33-.884-.166-.444-.083-.219-.04-.111-.022-.056-.009-.028-.006-.012,0-.009c.872.69.24.191.435.345h0a30.972,30.972,0,0,1-7.953-2.1l.548-.087c-1.975,1.655-3.935,3.294-5.753,4.816l-.327.274-.339-.259-9.869-7.521-.336-.256.173-.382c1.078-2.354,2.145-4.687,3.121-6.822l.062.533A30.92,30.92,0,0,1,9.192,49.51l.425.314c-2.588-.231-5.143-.462-7.466-.669l-.4-.037L1.7,48.725C1.125,44.454.567,40.288.049,36.424L0,36.042l.357-.133L7.386,33.3l-.3.379A30.923,30.923,0,0,1,9.2,25.741l.071.456c-1.679-2.015-3.315-3.978-4.8-5.762l-.216-.262.2-.268Q8.429,14.724,12,10.057l.188-.247.277.129,6.813,3.137-.364.043a30.726,30.726,0,0,1,7.087-4.086l-.194.262.7-7.463.022-.222.216-.028L39.058.018,39.2,0l.043.126Q40.442,3.5,41.1,5.358l.465,1.365A2.909,2.909,0,0,1,41.708,7.21Z" fill="#263238"/>
                      </g>
                    </g>
                  </g>
                </g>
              </g>
            </g>
          </g>
        </g>
      </g>
    </g>
  </g>
</svg>
