<svg xmlns="http://www.w3.org/2000/svg" width="715" height="310.486" viewBox="0 0 715 310.486">
  <g id="Grupo_166697" data-name="Grupo 166697" transform="translate(-418 -10504)">
    <rect id="Rectángulo_49590" data-name="Rectángulo 49590" width="715" height="305.589" transform="translate(418 10504)" fill="#fff"/>
    <g id="Grupo_165585" data-name="Grupo 165585" transform="translate(447.858 10534.363)">
      <path id="Trazado_177297" data-name="Trazado 177297" d="M-8238-847.57l597.467-139.138" transform="translate(8238 1074.165)" fill="none" stroke="#12263f" stroke-width="2"/>
      <g id="Grupo_165575" data-name="Grupo 165575" transform="translate(77.377 207.38)">
        <path id="Trazado_177298" data-name="Trazado 177298" d="M-8048-969.27v43.413" transform="translate(8053.877 969.27)" fill="none" stroke="#12263f" stroke-width="2"/>
        <circle id="Elipse_5101" data-name="Elipse 5101" cx="5.877" cy="5.877" r="5.877" transform="translate(0 38.463)" fill="#12263f"/>
      </g>
      <g id="Grupo_165576" data-name="Grupo 165576" transform="translate(224.295 173.099)">
        <path id="Trazado_177298-2" data-name="Trazado 177298" d="M-8048-969.27v43.413" transform="translate(8053.877 969.27)" fill="none" stroke="#12263f" stroke-width="2"/>
        <circle id="Elipse_5101-2" data-name="Elipse 5101" cx="5.877" cy="5.877" r="5.877" transform="translate(0 38.463)" fill="#12263f"/>
      </g>
      <g id="Grupo_165577" data-name="Grupo 165577" transform="translate(372.192 138.818)">
        <path id="Trazado_177298-3" data-name="Trazado 177298" d="M-8048-969.27v43.413" transform="translate(8053.877 969.27)" fill="none" stroke="#12263f" stroke-width="2"/>
        <circle id="Elipse_5101-3" data-name="Elipse 5101" cx="5.877" cy="5.877" r="5.877" transform="translate(0 38.463)" fill="#12263f"/>
      </g>
      <g id="Grupo_165578" data-name="Grupo 165578" transform="translate(482.87 113.71)">
        <path id="Trazado_177298-4" data-name="Trazado 177298" d="M-8048-969.27v43.413" transform="translate(8053.877 969.27)" fill="none" stroke="#12263f" stroke-width="2"/>
        <circle id="Elipse_5101-4" data-name="Elipse 5101" cx="5.877" cy="5.877" r="5.877" transform="translate(0 38.463)" fill="#12263f"/>
      </g>
      <g id="Grupo_165579" data-name="Grupo 165579" transform="translate(155.733 190.993) rotate(180)">
        <path id="Trazado_177298-5" data-name="Trazado 177298" d="M0,0V43.413" transform="translate(5.877)" fill="none" stroke="#12263f" stroke-width="2"/>
        <circle id="Elipse_5101-5" data-name="Elipse 5101" cx="5.877" cy="5.877" r="5.877" transform="translate(0 38.463)" fill="#12263f"/>
      </g>
      <g id="Grupo_165580" data-name="Grupo 165580" transform="translate(304.61 157.026) rotate(180)">
        <path id="Trazado_177298-6" data-name="Trazado 177298" d="M0,0V43.413" transform="translate(5.877)" fill="none" stroke="#12263f" stroke-width="2"/>
        <circle id="Elipse_5101-6" data-name="Elipse 5101" cx="5.877" cy="5.877" r="5.877" transform="translate(0 38.463)" fill="#12263f"/>
      </g>
      <g id="Grupo_165581" data-name="Grupo 165581" transform="translate(436.836 126.663) rotate(180)">
        <path id="Trazado_177298-7" data-name="Trazado 177298" d="M0,0V43.413" transform="translate(5.877)" fill="none" stroke="#12263f" stroke-width="2"/>
        <circle id="Elipse_5101-7" data-name="Elipse 5101" cx="5.877" cy="5.877" r="5.877" transform="translate(0 38.463)" fill="#12263f"/>
      </g>
      <g id="Grupo_165582" data-name="Grupo 165582" transform="translate(575.918 93.362) rotate(180)">
        <path id="Trazado_177298-8" data-name="Trazado 177298" d="M0,0V43.413" transform="translate(5.877)" fill="none" stroke="#12263f" stroke-width="2"/>
        <circle id="Elipse_5101-8" data-name="Elipse 5101" cx="5.877" cy="5.877" r="5.877" transform="translate(0 38.463)" fill="#12263f"/>
      </g>
      <path id="Trazado_177300" data-name="Trazado 177300" d="M4.986-2.2l3.183-9.19H9.776L5.644-.247h-1.3L.219-11.388h1.6ZM15.806-.247a2.974,2.974,0,0,1-.2-.872A3.159,3.159,0,0,1,13.25-.094a2.923,2.923,0,0,1-2.009-.693,2.24,2.24,0,0,1-.784-1.756,2.341,2.341,0,0,1,.983-2.009,4.636,4.636,0,0,1,2.766-.715h1.377v-.65A1.59,1.59,0,0,0,15.14-7.1a1.784,1.784,0,0,0-1.308-.44,2.064,2.064,0,0,0-1.27.383,1.127,1.127,0,0,0-.513.926H10.625a1.954,1.954,0,0,1,.44-1.2,3,3,0,0,1,1.194-.914,4.016,4.016,0,0,1,1.657-.337,3.273,3.273,0,0,1,2.242.715A2.581,2.581,0,0,1,17-5.993v3.811A4.659,4.659,0,0,0,17.29-.369v.122ZM13.457-1.326a2.488,2.488,0,0,0,1.263-.344,2.083,2.083,0,0,0,.865-.9v-1.7h-1.11q-2.6,0-2.6,1.523A1.289,1.289,0,0,0,12.317-1.7,1.706,1.706,0,0,0,13.457-1.326Zm7.3,1.079H19.341V-12h1.416Zm1.89-4.216a4.89,4.89,0,0,1,.478-2.188,3.568,3.568,0,0,1,1.331-1.5A3.624,3.624,0,0,1,26.4-8.679a3.492,3.492,0,0,1,2.736,1.171,4.5,4.5,0,0,1,1.044,3.114v.1a4.933,4.933,0,0,1-.463,2.169A3.515,3.515,0,0,1,28.4-.629a3.666,3.666,0,0,1-1.978.536,3.483,3.483,0,0,1-2.728-1.171,4.481,4.481,0,0,1-1.044-3.1Zm1.423.168a3.542,3.542,0,0,0,.639,2.211,2.045,2.045,0,0,0,1.71.834,2.032,2.032,0,0,0,1.714-.846,3.873,3.873,0,0,0,.635-2.368,3.536,3.536,0,0,0-.647-2.208A2.056,2.056,0,0,0,26.4-7.516a2.033,2.033,0,0,0-1.691.834A3.844,3.844,0,0,0,24.07-4.294ZM35.961-7.256a4.242,4.242,0,0,0-.7-.054,1.865,1.865,0,0,0-1.89,1.186V-.247H31.959V-8.526h1.377l.023.956a2.2,2.2,0,0,1,1.974-1.11,1.446,1.446,0,0,1,.627.107Zm4.805,2.793a4.89,4.89,0,0,1,.478-2.188,3.568,3.568,0,0,1,1.331-1.5,3.624,3.624,0,0,1,1.947-.528,3.492,3.492,0,0,1,2.736,1.171A4.5,4.5,0,0,1,48.3-4.394v.1a4.933,4.933,0,0,1-.463,2.169,3.515,3.515,0,0,1-1.324,1.5,3.666,3.666,0,0,1-1.978.536,3.483,3.483,0,0,1-2.728-1.171,4.481,4.481,0,0,1-1.044-3.1Zm1.423.168a3.542,3.542,0,0,0,.639,2.211,2.045,2.045,0,0,0,1.71.834,2.032,2.032,0,0,0,1.714-.846,3.873,3.873,0,0,0,.635-2.368,3.536,3.536,0,0,0-.647-2.208,2.056,2.056,0,0,0-1.718-.846,2.033,2.033,0,0,0-1.691.834A3.844,3.844,0,0,0,42.19-4.294Zm14.9,0a4.923,4.923,0,0,1-.872,3.049A2.787,2.787,0,0,1,53.874-.094,2.886,2.886,0,0,1,51.449-1.2l-.069.956h-1.3V-12h1.416v4.385a2.87,2.87,0,0,1,2.364-1.064,2.8,2.8,0,0,1,2.368,1.14,5.071,5.071,0,0,1,.861,3.122Zm-1.416-.161a3.825,3.825,0,0,0-.559-2.234,1.849,1.849,0,0,0-1.607-.788,2.078,2.078,0,0,0-2.012,1.3V-2.6a2.136,2.136,0,0,0,2.028,1.3,1.839,1.839,0,0,0,1.584-.788A4.068,4.068,0,0,0,55.673-4.455Zm8.019,2.012a1.042,1.042,0,0,0-.432-.891,4.161,4.161,0,0,0-1.507-.547,7.127,7.127,0,0,1-1.706-.551,2.428,2.428,0,0,1-.934-.765,1.83,1.83,0,0,1-.3-1.056,2.148,2.148,0,0,1,.861-1.722,3.362,3.362,0,0,1,2.2-.7,3.459,3.459,0,0,1,2.284.727,2.309,2.309,0,0,1,.876,1.859H63.608a1.278,1.278,0,0,0-.494-1,1.849,1.849,0,0,0-1.243-.421,1.935,1.935,0,0,0-1.209.337,1.06,1.06,0,0,0-.436.88.859.859,0,0,0,.406.773,4.99,4.99,0,0,0,1.465.5,7.635,7.635,0,0,1,1.718.566,2.506,2.506,0,0,1,.976.792,1.947,1.947,0,0,1,.318,1.129A2.119,2.119,0,0,1,64.22-.763a3.723,3.723,0,0,1-2.3.67,4.169,4.169,0,0,1-1.76-.352,2.862,2.862,0,0,1-1.2-.983,2.37,2.37,0,0,1-.432-1.366h1.416a1.466,1.466,0,0,0,.57,1.129,2.212,2.212,0,0,0,1.4.417,2.283,2.283,0,0,0,1.289-.325A1,1,0,0,0,63.692-2.443Zm6.7,2.349A3.618,3.618,0,0,1,67.648-1.2a4.1,4.1,0,0,1-1.056-2.957v-.26a4.968,4.968,0,0,1,.471-2.2,3.671,3.671,0,0,1,1.316-1.515,3.309,3.309,0,0,1,1.833-.547,3.1,3.1,0,0,1,2.51,1.064,4.605,4.605,0,0,1,.9,3.045v.589H68.008A2.943,2.943,0,0,0,68.723-2a2.249,2.249,0,0,0,1.741.754,2.466,2.466,0,0,0,1.27-.306,3.192,3.192,0,0,0,.911-.811l.865.673A3.477,3.477,0,0,1,70.387-.094Zm-.176-7.422a1.888,1.888,0,0,0-1.439.624,3.031,3.031,0,0,0-.719,1.748H72.2v-.107a2.7,2.7,0,0,0-.582-1.672A1.778,1.778,0,0,0,70.211-7.516Zm9.045.26a4.242,4.242,0,0,0-.7-.054,1.865,1.865,0,0,0-1.89,1.186V-.247H75.254V-8.526h1.377l.023.956a2.2,2.2,0,0,1,1.974-1.11,1.446,1.446,0,0,1,.627.107Zm4.17,5.089,2.051-6.359h1.446L83.954-.247H82.875l-3-8.279h1.446ZM93.282-.247a2.974,2.974,0,0,1-.2-.872A3.159,3.159,0,0,1,90.726-.094a2.923,2.923,0,0,1-2.009-.693,2.24,2.24,0,0,1-.784-1.756,2.341,2.341,0,0,1,.983-2.009,4.636,4.636,0,0,1,2.766-.715H93.06v-.65A1.59,1.59,0,0,0,92.616-7.1a1.784,1.784,0,0,0-1.308-.44,2.064,2.064,0,0,0-1.27.383,1.127,1.127,0,0,0-.513.926H88.1a1.954,1.954,0,0,1,.44-1.2,3,3,0,0,1,1.194-.914,4.016,4.016,0,0,1,1.657-.337,3.273,3.273,0,0,1,2.242.715,2.581,2.581,0,0,1,.842,1.97v3.811a4.659,4.659,0,0,0,.291,1.814v.122ZM90.933-1.326A2.488,2.488,0,0,0,92.2-1.67a2.083,2.083,0,0,0,.865-.9v-1.7h-1.11q-2.6,0-2.6,1.523A1.289,1.289,0,0,0,89.793-1.7,1.706,1.706,0,0,0,90.933-1.326Zm5.418-3.13a4.85,4.85,0,0,1,.9-3.065,2.855,2.855,0,0,1,2.364-1.159,2.871,2.871,0,0,1,2.3.995V-12h1.416V-.247h-1.3l-.069-.888A2.883,2.883,0,0,1,99.6-.094a2.828,2.828,0,0,1-2.345-1.178,4.905,4.905,0,0,1-.907-3.076Zm1.416.161a3.672,3.672,0,0,0,.582,2.2,1.88,1.88,0,0,0,1.607.8A2.065,2.065,0,0,0,101.921-2.5v-3.8A2.081,2.081,0,0,0,99.97-7.478a1.889,1.889,0,0,0-1.622.8A4.043,4.043,0,0,0,97.766-4.294Zm7.392-.168a4.89,4.89,0,0,1,.478-2.188,3.568,3.568,0,0,1,1.331-1.5,3.624,3.624,0,0,1,1.947-.528,3.492,3.492,0,0,1,2.736,1.171A4.5,4.5,0,0,1,112.7-4.394v.1a4.933,4.933,0,0,1-.463,2.169,3.515,3.515,0,0,1-1.324,1.5,3.666,3.666,0,0,1-1.978.536A3.483,3.483,0,0,1,106.2-1.264a4.481,4.481,0,0,1-1.044-3.1Zm1.423.168a3.542,3.542,0,0,0,.639,2.211,2.045,2.045,0,0,0,1.71.834,2.032,2.032,0,0,0,1.714-.846,3.873,3.873,0,0,0,.635-2.368,3.536,3.536,0,0,0-.647-2.208,2.056,2.056,0,0,0-1.718-.846,2.033,2.033,0,0,0-1.691.834A3.844,3.844,0,0,0,106.581-4.294ZM.731,19.052a4.85,4.85,0,0,1,.9-3.065A2.855,2.855,0,0,1,4,14.828a2.871,2.871,0,0,1,2.3.995V11.507H7.718V23.26h-1.3l-.069-.888a2.883,2.883,0,0,1-2.364,1.041,2.828,2.828,0,0,1-2.345-1.178,4.905,4.905,0,0,1-.907-3.076Zm1.416.161a3.672,3.672,0,0,0,.582,2.2,1.88,1.88,0,0,0,1.607.8A2.065,2.065,0,0,0,6.3,21V17.2a2.081,2.081,0,0,0-1.951-1.171,1.889,1.889,0,0,0-1.622.8A4.043,4.043,0,0,0,2.147,19.212ZM15.025,23.26a2.974,2.974,0,0,1-.2-.872,3.159,3.159,0,0,1-2.357,1.025,2.923,2.923,0,0,1-2.009-.693,2.24,2.24,0,0,1-.784-1.756,2.341,2.341,0,0,1,.983-2.009,4.636,4.636,0,0,1,2.766-.715H14.8v-.65a1.59,1.59,0,0,0-.444-1.182,1.784,1.784,0,0,0-1.308-.44,2.064,2.064,0,0,0-1.27.383,1.127,1.127,0,0,0-.513.926H9.845a1.954,1.954,0,0,1,.44-1.2,3,3,0,0,1,1.194-.914,4.016,4.016,0,0,1,1.657-.337,3.273,3.273,0,0,1,2.242.715,2.581,2.581,0,0,1,.842,1.97v3.811a4.659,4.659,0,0,0,.291,1.814v.122Zm-2.349-1.079a2.488,2.488,0,0,0,1.263-.344,2.083,2.083,0,0,0,.865-.9v-1.7h-1.11q-2.6,0-2.6,1.523a1.289,1.289,0,0,0,.444,1.041A1.706,1.706,0,0,0,12.676,22.181Zm7.683-9.205v2H21.9v1.094H20.359V21.21a1.147,1.147,0,0,0,.207.746.87.87,0,0,0,.7.249,3.427,3.427,0,0,0,.673-.092V23.26a4.1,4.1,0,0,1-1.087.153,1.763,1.763,0,0,1-1.431-.574,2.465,2.465,0,0,1-.482-1.63V16.075H17.436V14.981h1.507v-2Zm2.671,6.068a4.89,4.89,0,0,1,.478-2.188,3.568,3.568,0,0,1,1.331-1.5,3.624,3.624,0,0,1,1.947-.528A3.492,3.492,0,0,1,29.522,16a4.5,4.5,0,0,1,1.044,3.114v.1a4.933,4.933,0,0,1-.463,2.169,3.515,3.515,0,0,1-1.324,1.5,3.666,3.666,0,0,1-1.978.536,3.483,3.483,0,0,1-2.728-1.171,4.481,4.481,0,0,1-1.044-3.1Zm1.423.168a3.542,3.542,0,0,0,.639,2.211,2.165,2.165,0,0,0,3.424-.011,3.873,3.873,0,0,0,.635-2.368,3.536,3.536,0,0,0-.647-2.208,2.056,2.056,0,0,0-1.718-.846,2.033,2.033,0,0,0-1.691.834A3.844,3.844,0,0,0,24.453,19.212Zm11.715-.474a11.83,11.83,0,0,1,.463-3.321,9.647,9.647,0,0,1,1.381-2.892,5.876,5.876,0,0,1,1.905-1.836l.291.934a6.094,6.094,0,0,0-1.833,2.617,11.345,11.345,0,0,0-.784,3.941l-.008.65a11.4,11.4,0,0,0,1.079,5.127,6.123,6.123,0,0,0,1.546,2.035l-.291.865a6.065,6.065,0,0,1-1.944-1.9A10.636,10.636,0,0,1,36.168,18.738Zm8.119,2.449,1.928-6.206H47.73L44.4,24.538Q43.628,26.6,41.945,26.6l-.268-.023-.528-.1V25.334l.383.031a1.884,1.884,0,0,0,1.121-.291,2.1,2.1,0,0,0,.662-1.064l.314-.842-2.954-8.188H42.22Zm7.973-2.372a11.836,11.836,0,0,1-.448,3.271,9.673,9.673,0,0,1-1.37,2.889,6,6,0,0,1-1.932,1.882l-.3-.865a6.152,6.152,0,0,0,1.894-2.8,12.132,12.132,0,0,0,.731-4.22v-.245a12.6,12.6,0,0,0-.337-2.988,10.085,10.085,0,0,0-.937-2.475,5.718,5.718,0,0,0-1.351-1.706l.3-.865a5.978,5.978,0,0,1,1.924,1.867A9.694,9.694,0,0,1,51.8,15.44,12.11,12.11,0,0,1,52.26,18.814Z" transform="translate(400.591 12)" fill="#12263f"/>
      <path id="Trazado_177301" data-name="Trazado 177301" d="M5.394-4.754H2.777V-.247H1.3V-11.388H4.989a4.365,4.365,0,0,1,2.9.857A3.083,3.083,0,0,1,8.9-8.036a3,3,0,0,1-.562,1.814A3.357,3.357,0,0,1,6.772-5.067L9.389-.338v.092H7.812Zm-2.617-1.2H5.035a2.549,2.549,0,0,0,1.741-.566,1.913,1.913,0,0,0,.647-1.515A2.014,2.014,0,0,0,6.806-9.62a2.612,2.612,0,0,0-1.779-.559H2.777ZM14.171-.094A3.618,3.618,0,0,1,11.432-1.2a4.1,4.1,0,0,1-1.056-2.957v-.26a4.968,4.968,0,0,1,.471-2.2,3.671,3.671,0,0,1,1.316-1.515A3.309,3.309,0,0,1,14-8.679,3.1,3.1,0,0,1,16.5-7.615a4.605,4.605,0,0,1,.9,3.045v.589H11.791A2.943,2.943,0,0,0,12.507-2a2.249,2.249,0,0,0,1.741.754,2.466,2.466,0,0,0,1.27-.306,3.192,3.192,0,0,0,.911-.811l.865.673A3.477,3.477,0,0,1,14.171-.094ZM14-7.516a1.888,1.888,0,0,0-1.439.624,3.031,3.031,0,0,0-.719,1.748h4.147v-.107A2.7,2.7,0,0,0,15.4-6.923,1.778,1.778,0,0,0,14-7.516Zm8.364,6.267a2.039,2.039,0,0,0,1.324-.459,1.615,1.615,0,0,0,.627-1.148h1.339a2.567,2.567,0,0,1-.49,1.354A3.225,3.225,0,0,1,23.954-.476a3.477,3.477,0,0,1-1.6.383,3.411,3.411,0,0,1-2.69-1.129,4.5,4.5,0,0,1-1-3.088v-.237a4.985,4.985,0,0,1,.444-2.15,3.38,3.38,0,0,1,1.274-1.462,3.619,3.619,0,0,1,1.963-.52,3.321,3.321,0,0,1,2.315.834,2.981,2.981,0,0,1,.983,2.166H24.31A1.951,1.951,0,0,0,23.7-7a1.892,1.892,0,0,0-1.351-.517,1.981,1.981,0,0,0-1.672.777,3.648,3.648,0,0,0-.593,2.246v.268a3.575,3.575,0,0,0,.589,2.2A1.991,1.991,0,0,0,22.359-1.249Zm6.8-9.282v2h1.546v1.094H29.161V-2.3a1.147,1.147,0,0,0,.207.746.87.87,0,0,0,.7.249,3.427,3.427,0,0,0,.673-.092V-.247a4.1,4.1,0,0,1-1.087.153,1.763,1.763,0,0,1-1.431-.574,2.465,2.465,0,0,1-.482-1.63V-7.432H26.238V-8.526h1.507v-2ZM37.471-.247a2.974,2.974,0,0,1-.2-.872A3.159,3.159,0,0,1,34.916-.094a2.923,2.923,0,0,1-2.009-.693,2.24,2.24,0,0,1-.784-1.756,2.341,2.341,0,0,1,.983-2.009,4.636,4.636,0,0,1,2.766-.715h1.377v-.65A1.59,1.59,0,0,0,36.806-7.1a1.784,1.784,0,0,0-1.308-.44,2.064,2.064,0,0,0-1.27.383,1.127,1.127,0,0,0-.513.926H32.291a1.954,1.954,0,0,1,.44-1.2,3,3,0,0,1,1.194-.914,4.016,4.016,0,0,1,1.657-.337,3.273,3.273,0,0,1,2.242.715,2.581,2.581,0,0,1,.842,1.97v3.811a4.659,4.659,0,0,0,.291,1.814v.122ZM35.122-1.326a2.488,2.488,0,0,0,1.263-.344,2.083,2.083,0,0,0,.865-.9v-1.7H36.14q-2.6,0-2.6,1.523A1.289,1.289,0,0,0,33.982-1.7,1.706,1.706,0,0,0,35.122-1.326Zm9.3-3.13a4.85,4.85,0,0,1,.9-3.065,2.855,2.855,0,0,1,2.364-1.159,2.871,2.871,0,0,1,2.3.995V-12h1.416V-.247H50.1l-.069-.888A2.883,2.883,0,0,1,47.671-.094a2.828,2.828,0,0,1-2.345-1.178,4.905,4.905,0,0,1-.907-3.076Zm1.416.161a3.672,3.672,0,0,0,.582,2.2,1.88,1.88,0,0,0,1.607.8A2.065,2.065,0,0,0,49.99-2.5v-3.8a2.081,2.081,0,0,0-1.951-1.171,1.889,1.889,0,0,0-1.622.8A4.043,4.043,0,0,0,45.835-4.294Zm11.2,4.2A3.618,3.618,0,0,1,54.3-1.2a4.1,4.1,0,0,1-1.056-2.957v-.26a4.968,4.968,0,0,1,.471-2.2,3.671,3.671,0,0,1,1.316-1.515,3.309,3.309,0,0,1,1.833-.547,3.1,3.1,0,0,1,2.51,1.064,4.605,4.605,0,0,1,.9,3.045v.589H54.658A2.943,2.943,0,0,0,55.373-2a2.249,2.249,0,0,0,1.741.754,2.466,2.466,0,0,0,1.27-.306,3.192,3.192,0,0,0,.911-.811l.865.673A3.477,3.477,0,0,1,57.037-.094Zm-.176-7.422a1.888,1.888,0,0,0-1.439.624A3.031,3.031,0,0,0,54.7-5.144h4.147v-.107a2.7,2.7,0,0,0-.582-1.672A1.778,1.778,0,0,0,56.861-7.516Zm12.924.26a4.242,4.242,0,0,0-.7-.054A1.865,1.865,0,0,0,67.2-6.123V-.247H65.784V-8.526h1.377l.023.956a2.2,2.2,0,0,1,1.974-1.11,1.446,1.446,0,0,1,.627.107ZM74.377-.094A3.618,3.618,0,0,1,71.637-1.2a4.1,4.1,0,0,1-1.056-2.957v-.26a4.968,4.968,0,0,1,.471-2.2,3.671,3.671,0,0,1,1.316-1.515A3.309,3.309,0,0,1,74.2-8.679a3.1,3.1,0,0,1,2.51,1.064,4.605,4.605,0,0,1,.9,3.045v.589H72A2.943,2.943,0,0,0,72.712-2a2.249,2.249,0,0,0,1.741.754,2.466,2.466,0,0,0,1.27-.306,3.191,3.191,0,0,0,.911-.811l.865.673A3.477,3.477,0,0,1,74.377-.094ZM74.2-7.516a1.888,1.888,0,0,0-1.439.624,3.031,3.031,0,0,0-.719,1.748H76.19v-.107a2.7,2.7,0,0,0-.582-1.672A1.778,1.778,0,0,0,74.2-7.516Zm4.706,3.061a4.866,4.866,0,0,1,.9-3.08,2.863,2.863,0,0,1,2.372-1.144,2.848,2.848,0,0,1,2.364,1.071l.069-.918H85.9v8.08a3.368,3.368,0,0,1-.953,2.533,3.516,3.516,0,0,1-2.56.926,4.258,4.258,0,0,1-1.752-.383,3.016,3.016,0,0,1-1.308-1.048l.735-.849a2.768,2.768,0,0,0,2.227,1.125A2.169,2.169,0,0,0,83.9,1.276a2.223,2.223,0,0,0,.578-1.638v-.712a2.91,2.91,0,0,1-2.319.979,2.828,2.828,0,0,1-2.353-1.171A5.116,5.116,0,0,1,78.907-4.455Zm1.423.161a3.712,3.712,0,0,0,.574,2.2,1.865,1.865,0,0,0,1.607.8,2.074,2.074,0,0,0,1.967-1.217v-3.78a2.1,2.1,0,0,0-1.951-1.186,1.882,1.882,0,0,0-1.615.8A4.043,4.043,0,0,0,80.33-4.294ZM92.038-7.256a4.242,4.242,0,0,0-.7-.054,1.865,1.865,0,0,0-1.89,1.186V-.247H88.036V-8.526h1.377l.023.956a2.2,2.2,0,0,1,1.974-1.11,1.446,1.446,0,0,1,.627.107ZM96.629-.094A3.618,3.618,0,0,1,93.889-1.2a4.1,4.1,0,0,1-1.056-2.957v-.26a4.968,4.968,0,0,1,.471-2.2A3.671,3.671,0,0,1,94.62-8.132a3.309,3.309,0,0,1,1.833-.547,3.1,3.1,0,0,1,2.51,1.064,4.605,4.605,0,0,1,.9,3.045v.589H94.249A2.943,2.943,0,0,0,94.964-2a2.249,2.249,0,0,0,1.741.754,2.466,2.466,0,0,0,1.27-.306,3.192,3.192,0,0,0,.911-.811l.865.673A3.477,3.477,0,0,1,96.629-.094Zm-.176-7.422a1.888,1.888,0,0,0-1.439.624,3.031,3.031,0,0,0-.719,1.748h4.147v-.107a2.7,2.7,0,0,0-.582-1.672A1.778,1.778,0,0,0,96.453-7.516Zm9.863,5.073a1.042,1.042,0,0,0-.432-.891,4.161,4.161,0,0,0-1.507-.547,7.127,7.127,0,0,1-1.706-.551,2.428,2.428,0,0,1-.934-.765,1.83,1.83,0,0,1-.3-1.056,2.148,2.148,0,0,1,.861-1.722,3.362,3.362,0,0,1,2.2-.7,3.459,3.459,0,0,1,2.284.727,2.309,2.309,0,0,1,.876,1.859h-1.423a1.278,1.278,0,0,0-.494-1,1.849,1.849,0,0,0-1.243-.421,1.935,1.935,0,0,0-1.209.337,1.06,1.06,0,0,0-.436.88.859.859,0,0,0,.406.773,4.99,4.99,0,0,0,1.465.5,7.635,7.635,0,0,1,1.718.566,2.506,2.506,0,0,1,.976.792,1.947,1.947,0,0,1,.318,1.129,2.119,2.119,0,0,1-.888,1.779,3.723,3.723,0,0,1-2.3.67,4.169,4.169,0,0,1-1.76-.352,2.862,2.862,0,0,1-1.2-.983,2.37,2.37,0,0,1-.432-1.366h1.416a1.466,1.466,0,0,0,.57,1.129,2.212,2.212,0,0,0,1.4.417,2.283,2.283,0,0,0,1.289-.325A1,1,0,0,0,106.316-2.443Zm4.8,2.2H109.7V-8.526h1.416Zm-1.53-10.476a.845.845,0,0,1,.21-.582.79.79,0,0,1,.624-.237.8.8,0,0,1,.627.237.836.836,0,0,1,.214.582.809.809,0,0,1-.214.574.817.817,0,0,1-.627.23.8.8,0,0,1-.624-.23A.817.817,0,0,1,109.583-10.722ZM113-4.463a4.89,4.89,0,0,1,.478-2.188,3.568,3.568,0,0,1,1.331-1.5,3.624,3.624,0,0,1,1.947-.528A3.492,3.492,0,0,1,119.5-7.508a4.5,4.5,0,0,1,1.044,3.114v.1a4.933,4.933,0,0,1-.463,2.169,3.515,3.515,0,0,1-1.324,1.5,3.666,3.666,0,0,1-1.978.536,3.483,3.483,0,0,1-2.728-1.171A4.481,4.481,0,0,1,113-4.363Zm1.423.168a3.542,3.542,0,0,0,.639,2.211,2.045,2.045,0,0,0,1.71.834,2.032,2.032,0,0,0,1.714-.846,3.873,3.873,0,0,0,.635-2.368,3.536,3.536,0,0,0-.647-2.208,2.056,2.056,0,0,0-1.718-.846,2.033,2.033,0,0,0-1.691.834A3.844,3.844,0,0,0,114.427-4.294ZM117.4-12h1.714l-2.051,2.25h-1.14Zm6.252,3.474.046,1.041a3.017,3.017,0,0,1,2.479-1.194q2.625,0,2.648,2.961V-.247h-1.416V-5.725A1.906,1.906,0,0,0,127-7.049a1.641,1.641,0,0,0-1.251-.429,2.043,2.043,0,0,0-1.209.367,2.494,2.494,0,0,0-.811.964v5.9h-1.416V-8.526ZM4.522,23.413a3.618,3.618,0,0,1-2.739-1.106A4.1,4.1,0,0,1,.727,19.35v-.26a4.968,4.968,0,0,1,.471-2.2,3.671,3.671,0,0,1,1.316-1.515,3.309,3.309,0,0,1,1.833-.547,3.1,3.1,0,0,1,2.51,1.064,4.605,4.605,0,0,1,.9,3.045v.589H2.142A2.943,2.943,0,0,0,2.858,21.5a2.249,2.249,0,0,0,1.741.754,2.466,2.466,0,0,0,1.27-.306,3.192,3.192,0,0,0,.911-.811l.865.673A3.477,3.477,0,0,1,4.522,23.413Zm-.176-7.422a1.888,1.888,0,0,0-1.439.624,3.031,3.031,0,0,0-.719,1.748H6.335v-.107a2.7,2.7,0,0,0-.582-1.672A1.778,1.778,0,0,0,4.346,15.991Zm9.863,5.073a1.042,1.042,0,0,0-.432-.891,4.161,4.161,0,0,0-1.507-.547,7.127,7.127,0,0,1-1.706-.551,2.428,2.428,0,0,1-.934-.765,1.83,1.83,0,0,1-.3-1.056,2.148,2.148,0,0,1,.861-1.722,3.362,3.362,0,0,1,2.2-.7,3.459,3.459,0,0,1,2.284.727,2.309,2.309,0,0,1,.876,1.859H14.125a1.278,1.278,0,0,0-.494-1,1.849,1.849,0,0,0-1.243-.421,1.935,1.935,0,0,0-1.209.337,1.06,1.06,0,0,0-.436.88.859.859,0,0,0,.406.773,4.99,4.99,0,0,0,1.465.5,7.635,7.635,0,0,1,1.718.566,2.506,2.506,0,0,1,.976.792,1.947,1.947,0,0,1,.318,1.129,2.119,2.119,0,0,1-.888,1.779,3.723,3.723,0,0,1-2.3.67,4.169,4.169,0,0,1-1.76-.352,2.862,2.862,0,0,1-1.2-.983,2.37,2.37,0,0,1-.432-1.366H10.46a1.466,1.466,0,0,0,.57,1.129,2.212,2.212,0,0,0,1.4.417,2.283,2.283,0,0,0,1.289-.325A1,1,0,0,0,14.209,21.064Zm5.18-8.088v2h1.546v1.094H19.39V21.21a1.147,1.147,0,0,0,.207.746.87.87,0,0,0,.7.249,3.427,3.427,0,0,0,.673-.092V23.26a4.1,4.1,0,0,1-1.087.153,1.763,1.763,0,0,1-1.431-.574,2.465,2.465,0,0,1-.482-1.63V16.075H16.467V14.981h1.507v-2ZM24.126,23.26H22.711V14.981h1.416ZM22.6,12.785a.845.845,0,0,1,.21-.582.79.79,0,0,1,.624-.237.8.8,0,0,1,.627.237.836.836,0,0,1,.214.582.809.809,0,0,1-.214.574.817.817,0,0,1-.627.23.8.8,0,0,1-.624-.23A.817.817,0,0,1,22.6,12.785Zm5.127,2.2.038.918a3.058,3.058,0,0,1,2.456-1.071,2.367,2.367,0,0,1,2.364,1.331,3.136,3.136,0,0,1,1.075-.964,3.175,3.175,0,0,1,1.565-.367q2.724,0,2.77,2.885V23.26H36.576V17.8a1.9,1.9,0,0,0-.406-1.328,1.786,1.786,0,0,0-1.362-.44A1.877,1.877,0,0,0,33.5,16.5a1.909,1.909,0,0,0-.6,1.266V23.26H31.472V17.835A1.579,1.579,0,0,0,29.7,16.029,1.894,1.894,0,0,0,27.8,17.215V23.26H26.384V14.981ZM45.238,23.26a2.974,2.974,0,0,1-.2-.872,3.159,3.159,0,0,1-2.357,1.025,2.923,2.923,0,0,1-2.009-.693,2.24,2.24,0,0,1-.784-1.756,2.341,2.341,0,0,1,.983-2.009,4.636,4.636,0,0,1,2.766-.715h1.377v-.65a1.59,1.59,0,0,0-.444-1.182,1.784,1.784,0,0,0-1.308-.44,2.064,2.064,0,0,0-1.27.383,1.127,1.127,0,0,0-.513.926H40.058a1.954,1.954,0,0,1,.44-1.2,3,3,0,0,1,1.194-.914,4.016,4.016,0,0,1,1.657-.337,3.273,3.273,0,0,1,2.242.715,2.581,2.581,0,0,1,.842,1.97v3.811a4.659,4.659,0,0,0,.291,1.814v.122Zm-2.349-1.079a2.488,2.488,0,0,0,1.263-.344,2.083,2.083,0,0,0,.865-.9v-1.7h-1.11q-2.6,0-2.6,1.523a1.289,1.289,0,0,0,.444,1.041A1.706,1.706,0,0,0,42.889,22.181Zm5.418-3.13a4.85,4.85,0,0,1,.9-3.065,3.072,3.072,0,0,1,4.668-.165V11.507h1.416V23.26h-1.3l-.069-.888a2.883,2.883,0,0,1-2.364,1.041,2.828,2.828,0,0,1-2.345-1.178,4.905,4.905,0,0,1-.907-3.076Zm1.416.161a3.672,3.672,0,0,0,.582,2.2,1.88,1.88,0,0,0,1.607.8A2.065,2.065,0,0,0,53.877,21V17.2a2.081,2.081,0,0,0-1.951-1.171,1.889,1.889,0,0,0-1.622.8A4.043,4.043,0,0,0,49.722,19.212ZM62.6,23.26a2.974,2.974,0,0,1-.2-.872,3.159,3.159,0,0,1-2.357,1.025,2.923,2.923,0,0,1-2.009-.693,2.24,2.24,0,0,1-.784-1.756,2.341,2.341,0,0,1,.983-2.009A4.636,4.636,0,0,1,61,18.241h1.377v-.65a1.59,1.59,0,0,0-.444-1.182,1.784,1.784,0,0,0-1.308-.44,2.064,2.064,0,0,0-1.27.383,1.127,1.127,0,0,0-.513.926H57.42a1.954,1.954,0,0,1,.44-1.2,3,3,0,0,1,1.194-.914,4.016,4.016,0,0,1,1.657-.337,3.273,3.273,0,0,1,2.242.715,2.581,2.581,0,0,1,.842,1.97v3.811a4.659,4.659,0,0,0,.291,1.814v.122Zm-2.349-1.079a2.488,2.488,0,0,0,1.263-.344,2.083,2.083,0,0,0,.865-.9v-1.7h-1.11q-2.6,0-2.6,1.523a1.289,1.289,0,0,0,.444,1.041A1.706,1.706,0,0,0,60.251,22.181Z" transform="translate(514.197 204.952)" fill="#12263f"/>
      <g id="Grupo_165583" data-name="Grupo 165583" transform="translate(527.925 110.678)">
        <path id="Trazado_177299" data-name="Trazado 177299" d="M-7586.252-1002.039v-62.32" transform="translate(7593.841 1067.925)" fill="none" stroke="#5263e2" stroke-width="2"/>
        <path id="Polígono_7" data-name="Polígono 7" d="M7.346,0l7.346,12.733H0Z" fill="#5263e2"/>
      </g>
      <g id="Grupo_165584" data-name="Grupo 165584" transform="translate(549.605 24.486) rotate(90)">
        <path id="Trazado_177299-2" data-name="Trazado 177299" d="M0,62.32V0" transform="translate(7.588 3.566)" fill="none" stroke="#5263e2" stroke-width="2"/>
        <path id="Polígono_7-2" data-name="Polígono 7" d="M7.346,0l7.346,12.733H0Z" transform="translate(0)" fill="#5263e2"/>
      </g>
    </g>
    <rect id="Rectángulo_50096" data-name="Rectángulo 50096" width="715" height="4.897" transform="translate(418 10809.589)" fill="#a4a3ff"/>
  </g>
</svg>
