<svg xmlns="http://www.w3.org/2000/svg" width="492.5" height="245.188" viewBox="0 0 492.5 245.188">
  <g id="Grupo_973924" data-name="Grupo 973924" transform="translate(6458 -13365)">
    <rect id="Rect치ngulo_49696" data-name="Rect치ngulo 49696" width="492" height="237" transform="translate(-6458 13365)" fill="#fff"/>
    <g id="Grupo_165666" data-name="Grupo 165666" transform="translate(9.982 7.706)">
      <path id="Trazado_177693" data-name="Trazado 177693" d="M-8091.509,10111.347c78.2-.875-241.28,0-241.28,0s49.878-31.412,103.708-153.162S-8169.71,10112.218-8091.509,10111.347Z" transform="translate(1979.789 3456.229)" fill="none" stroke="#25ffff" stroke-width="2"/>
      <path id="Trazado_177694" data-name="Trazado 177694" d="M-6424.68,13567.578h403.395" fill="none" stroke="#707070" stroke-width="2"/>
      <path id="Trazado_177695" data-name="Trazado 177695" d="M-6274.268,13463.292v104.919" fill="none" stroke="#25ffff" stroke-width="1"/>
      <path id="Trazado_177696" data-name="Trazado 177696" d="M-6274.268,13463.292v184.832" transform="translate(48.071 -79.914)" fill="none" stroke="#25ffff" stroke-width="1"/>
      <path id="Trazado_177697" data-name="Trazado 177697" d="M-6274.268,13463.292v104.919" transform="translate(91)" fill="none" stroke="#25ffff" stroke-width="1"/>
      <path id="Trazado_177698" data-name="Trazado 177698" d="M-6274.268,13486.406h91.182" fill="none" stroke="#25ffff" stroke-width="1"/>
      <path id="Trazado_177699" data-name="Trazado 177699" d="M-6274.268,13486.406h198.234" transform="translate(-62.25 29.345)" fill="none" stroke="#25ffff" stroke-width="1"/>
      <path id="Trazado_177700" data-name="Trazado 177700" d="M-6274.269,13486.406h258.023" transform="translate(-93.964 55.691)" fill="none" stroke="#25ffff" stroke-width="1"/>
      <path id="Trazado_177701" data-name="Trazado 177701" d="M-6368.232,13567.578v-123.742" transform="translate(11)" fill="none" stroke="#707070" stroke-width="1" stroke-dasharray="6"/>
      <path id="Trazado_177702" data-name="Trazado 177702" d="M-6368.232,13567.578v-123.742" transform="translate(42.714)" fill="none" stroke="#707070" stroke-width="1" stroke-dasharray="6"/>
      <path id="Trazado_177703" data-name="Trazado 177703" d="M-6368.232,13567.578v-123.742" transform="translate(216.679)" fill="none" stroke="#707070" stroke-width="1" stroke-dasharray="6"/>
      <path id="Trazado_177704" data-name="Trazado 177704" d="M-6368.232,13567.578v-123.742" transform="translate(244.753)" fill="none" stroke="#707070" stroke-width="1" stroke-dasharray="6"/>
      <g id="Elipse_5124" data-name="Elipse 5124" transform="translate(-6330 13537)" fill="#25ffff" stroke="#707070" stroke-width="1">
        <circle cx="4.5" cy="4.5" r="4.5" stroke="none"/>
        <circle cx="4.5" cy="4.5" r="4" fill="none"/>
      </g>
      <g id="Elipse_5125" data-name="Elipse 5125" transform="translate(-6156 13537)" fill="#25ffff" stroke="#707070" stroke-width="1">
        <circle cx="4.5" cy="4.5" r="4.5" stroke="none"/>
        <circle cx="4.5" cy="4.5" r="4" fill="none"/>
      </g>
      <path id="Trazado_177705" data-name="Trazado 177705" d="M-6370,13434.773v-11.78h20.208l6.439-6.439,6.44,6.439h18.946v11.78" transform="translate(3)" fill="none" stroke="#3c6d9d" stroke-linecap="round" stroke-width="1"/>
      <path id="Trazado_177706" data-name="Trazado 177706" d="M-6370,13434.773v-11.78h20.208l6.439-6.439,6.44,6.439h18.946v11.78" transform="translate(207.761)" fill="none" stroke="#3c6d9d" stroke-linecap="round" stroke-width="1"/>
    </g>
    <rect id="Rect치ngulo_50217" data-name="Rect치ngulo 50217" width="492" height="8" transform="translate(-6457.5 13602.188)" fill="#a4a3ff"/>
  </g>
</svg>
