<svg id="Grupo_974085" data-name="Grupo 974085" xmlns="http://www.w3.org/2000/svg" width="261.511" height="246.335" viewBox="0 0 261.511 246.335">
  <rect id="Rectángulo_49533" data-name="Rectángulo 49533" width="220" height="169" transform="translate(41.511 77.335)" fill="#ffde96"/>
  <g id="computer" transform="translate(0 0)">
    <g id="Grupo_165772" data-name="Grupo 165772" transform="translate(2.905 2.905)">
      <g id="Grupo_165758" data-name="Grupo 165758" transform="translate(142.336 162.67)">
        <path id="Trazado_177998" data-name="Trazado 177998" d="M51,58H68.429V69.619H51Z" transform="translate(-51 -58)" fill="#aab2bd"/>
      </g>
      <g id="Grupo_165759" data-name="Grupo 165759" transform="translate(78.43 162.67)">
        <path id="Trazado_177999" data-name="Trazado 177999" d="M29,58H46.429V69.619H29Z" transform="translate(-29 -58)" fill="#aab2bd"/>
      </g>
      <g id="Grupo_165760" data-name="Grupo 165760" transform="translate(14.524 162.67)">
        <path id="Trazado_178000" data-name="Trazado 178000" d="M7,58H24.429V69.619H7Z" transform="translate(-7 -58)" fill="#aab2bd"/>
      </g>
      <g id="Grupo_165761" data-name="Grupo 165761" transform="translate(127.812 151.051)">
        <path id="Trazado_178001" data-name="Trazado 178001" d="M92.477,54v5.81a5.827,5.827,0,0,1-5.81,5.81H51.81A5.827,5.827,0,0,1,46,59.81V54Z" transform="translate(-46 -54)" fill="#ccd1d9"/>
      </g>
      <g id="Grupo_165762" data-name="Grupo 165762" transform="translate(63.906 151.051)">
        <path id="Trazado_178002" data-name="Trazado 178002" d="M70.477,54v5.81a5.827,5.827,0,0,1-5.81,5.81H29.81A5.827,5.827,0,0,1,24,59.81V54Z" transform="translate(-24 -54)" fill="#ccd1d9"/>
      </g>
      <g id="Grupo_165763" data-name="Grupo 165763" transform="translate(0 151.051)">
        <path id="Trazado_178003" data-name="Trazado 178003" d="M48.477,54v5.81a5.827,5.827,0,0,1-5.81,5.81H7.81A5.827,5.827,0,0,1,2,59.81V54Z" transform="translate(-2 -54)" fill="#ccd1d9"/>
      </g>
      <g id="Grupo_165764" data-name="Grupo 165764" transform="translate(127.812 127.812)">
        <path id="Trazado_178004" data-name="Trazado 178004" d="M92.477,51.81V69.239H46V51.81A5.827,5.827,0,0,1,51.81,46H86.668A5.827,5.827,0,0,1,92.477,51.81Z" transform="translate(-46 -46)" fill="#acfcff"/>
      </g>
      <g id="Grupo_165765" data-name="Grupo 165765" transform="translate(63.906 127.812)">
        <path id="Trazado_178005" data-name="Trazado 178005" d="M70.477,57.619V69.239H24V51.81A5.827,5.827,0,0,1,29.81,46H64.668a5.827,5.827,0,0,1,5.81,5.81Z" transform="translate(-24 -46)" fill="#acfcff"/>
      </g>
      <g id="Grupo_165766" data-name="Grupo 165766" transform="translate(0 127.812)">
        <path id="Trazado_178006" data-name="Trazado 178006" d="M48.477,57.619V69.239H2V51.81A5.827,5.827,0,0,1,7.81,46H42.668a5.827,5.827,0,0,1,5.81,5.81Z" transform="translate(-2 -46)" fill="#acfcff"/>
      </g>
      <g id="Grupo_165767" data-name="Grupo 165767" transform="translate(82.265)">
        <path id="Trazado_178007" data-name="Trazado 178007" d="M57.6,91.236A17.438,17.438,0,0,0,46.819,60.1a17.245,17.245,0,0,0-5.9,1.046,32,32,0,0,0-10.6-21.96,46.482,46.482,0,1,1,51.3,55.424A46.952,46.952,0,0,1,57.6,91.236Z" transform="translate(-30.32 -2)" fill="#a4a3ff"/>
      </g>
      <g id="Grupo_165768" data-name="Grupo 165768" transform="translate(11.619 29.048)">
        <path id="Trazado_178008" data-name="Trazado 178008" d="M110.574,58.477A17.4,17.4,0,0,1,93.145,75.906H23.429a17.429,17.429,0,1,1,0-34.858h.145A31.963,31.963,0,0,1,55.382,12a31.623,31.623,0,0,1,21.263,8.134,32,32,0,0,1,10.6,21.96,17.245,17.245,0,0,1,5.9-1.046A17.443,17.443,0,0,1,110.574,58.477Z" transform="translate(-6 -12)" fill="#25ffff"/>
      </g>
      <g id="Grupo_165769" data-name="Grupo 165769" transform="translate(81.862 69.204)">
        <circle id="Elipse_5197" data-name="Elipse 5197" cx="5.806" cy="5.806" r="5.806" transform="translate(0 0)" fill="#ff826e"/>
      </g>
      <g id="Grupo_165770" data-name="Grupo 165770" transform="translate(58.638 69.204)">
        <circle id="Elipse_5198" data-name="Elipse 5198" cx="5.806" cy="5.806" r="5.806" transform="translate(0 0)" fill="#ff826e"/>
      </g>
      <g id="Grupo_165771" data-name="Grupo 165771" transform="translate(35.414 69.204)">
        <circle id="Elipse_5199" data-name="Elipse 5199" cx="5.806" cy="5.806" r="5.806" transform="translate(0 0)" fill="#ff826e"/>
      </g>
    </g>
    <g id="Grupo_165773" data-name="Grupo 165773">
      <path id="Trazado_178009" data-name="Trazado 178009" d="M172.384,128.812H157.86V111.383H140.431V98.948A49.363,49.363,0,1,0,84.444,36.093,34.779,34.779,0,0,0,30.522,59.242a20.334,20.334,0,0,0,2.431,40.522h8.714v11.619H24.239v17.429H9.714A8.725,8.725,0,0,0,1,137.527v23.239a8.725,8.725,0,0,0,8.714,8.714h5.81v5.81H9.714v5.81H44.569v-5.81H38.763v-5.81h5.81a8.725,8.725,0,0,0,8.714-8.714V146.241H64.906v14.524a8.725,8.725,0,0,0,8.714,8.714h5.81v5.81h-5.81v5.81h34.855v-5.81h-5.807v-5.81h5.81a8.725,8.725,0,0,0,8.714-8.714V146.241h11.619v14.524a8.725,8.725,0,0,0,8.714,8.714h5.81v5.81h-5.81v5.81h34.855v-5.81h-5.807v-5.81h5.81a8.725,8.725,0,0,0,8.714-8.714V137.527A8.725,8.725,0,0,0,172.384,128.812Zm2.9,8.714v14.524H134.622V137.527a2.908,2.908,0,0,1,2.9-2.9h34.858A2.908,2.908,0,0,1,175.289,137.527ZM131.717,93.954a43.34,43.34,0,0,1-13.066-2,19.849,19.849,0,0,0,4.119-15.433h25.057C144.074,87.02,138.2,93.954,131.717,93.954Zm20.264-40.668a82.39,82.39,0,0,1-2.37,17.429h-28.6a20.452,20.452,0,0,0-8.9-9.278c-.337-2.664-.537-5.388-.625-8.151Zm-40.528-5.81a82.389,82.389,0,0,1,2.37-17.429h35.784a82.389,82.389,0,0,1,2.37,17.429Zm35.073,43.831a48.379,48.379,0,0,0,7.454-14.783h12.514A43.709,43.709,0,0,1,146.526,91.308Zm23.7-20.592H155.6a88.354,88.354,0,0,0,2.184-17.429h17.356a43.218,43.218,0,0,1-4.918,17.429Zm0-40.668a43.218,43.218,0,0,1,4.918,17.429H157.785A88.353,88.353,0,0,0,155.6,30.048Zm-3.73-5.81H153.98a48.379,48.379,0,0,0-7.454-14.783A43.709,43.709,0,0,1,166.494,24.239ZM131.717,6.81c6.484,0,12.357,6.934,16.11,17.429h-32.22c3.753-10.5,9.627-17.429,16.11-17.429Zm-14.774,2.6a48.345,48.345,0,0,0-7.489,14.832H96.894A43.935,43.935,0,0,1,116.943,9.407ZM93.211,30.048h14.623a88.353,88.353,0,0,0-2.184,17.429h-10.6a34.888,34.888,0,0,0-5.656-7.317,42.876,42.876,0,0,1,3.817-10.112ZM106.053,59.4a20.3,20.3,0,0,0-3.384-.305,19.759,19.759,0,0,0-3.381.29,34.636,34.636,0,0,0-1.551-6.1h7.936c.064,2.062.186,4.1.381,6.115Zm-73.1,34.553a14.523,14.523,0,0,1-.026-29.045h.006l2.806.163.253-2.8a29.019,29.019,0,0,1,57.873.944l.224,3.884,3.66-1.316a14.517,14.517,0,1,1,4.921,28.171ZM9.714,134.622H44.572a2.908,2.908,0,0,1,2.9,2.9v14.524H6.81V137.527A2.908,2.908,0,0,1,9.714,134.622Zm23.239,40.668H21.334v-5.81H32.953ZM44.572,163.67H9.714a2.908,2.908,0,0,1-2.9-2.9v-2.9H47.477v2.9A2.908,2.908,0,0,1,44.572,163.67Zm8.714-23.239v-2.9a8.725,8.725,0,0,0-8.714-8.714H30.048V117.193H47.477V99.764H88.145v29.048H73.621a8.725,8.725,0,0,0-8.714,8.714v2.9Zm58.1,11.619H70.716V137.527a2.908,2.908,0,0,1,2.9-2.9h34.858a2.908,2.908,0,0,1,2.9,2.9ZM96.859,175.289H85.24v-5.81H96.859Zm11.619-11.619H73.621a2.908,2.908,0,0,1-2.9-2.9v-2.9h40.668v2.9A2.908,2.908,0,0,1,108.478,163.67Zm8.714-23.239v-2.9a8.725,8.725,0,0,0-8.714-8.714H93.954V99.764h8.714a20.2,20.2,0,0,0,11.207-3.384,49.025,49.025,0,0,0,17.841,3.384c.982,0,1.938-.09,2.9-.148v17.577h17.429v11.619H137.527a8.725,8.725,0,0,0-8.714,8.714v2.9Zm43.572,34.858H149.146v-5.81h11.619Zm11.619-11.619H137.527a2.908,2.908,0,0,1-2.9-2.9v-2.9h40.667v2.9A2.908,2.908,0,0,1,172.384,163.67Z" transform="translate(-1 -1)"/>
      <path id="Trazado_178010" data-name="Trazado 178010" d="M21.714,25a8.714,8.714,0,1,0,8.714,8.714A8.725,8.725,0,0,0,21.714,25Zm0,11.619a2.9,2.9,0,1,1,2.9-2.9A2.908,2.908,0,0,1,21.714,36.619Z" transform="translate(21.858 44.716)"/>
      <path id="Trazado_178011" data-name="Trazado 178011" d="M29.714,25a8.714,8.714,0,1,0,8.714,8.714A8.725,8.725,0,0,0,29.714,25Zm0,11.619a2.9,2.9,0,1,1,2.9-2.9A2.908,2.908,0,0,1,29.714,36.619Z" transform="translate(37.096 44.716)"/>
      <path id="Trazado_178012" data-name="Trazado 178012" d="M37.714,25a8.714,8.714,0,1,0,8.714,8.714A8.725,8.725,0,0,0,37.714,25Zm0,11.619a2.9,2.9,0,1,1,2.9-2.9A2.908,2.908,0,0,1,37.714,36.619Z" transform="translate(52.335 44.716)"/>
      <path id="Trazado_178013" data-name="Trazado 178013" d="M23,15v5.81A17.526,17.526,0,0,1,39.706,33.257L45.274,31.6A23.374,23.374,0,0,0,23,15Z" transform="translate(40.906 25.667)"/>
    </g>
  </g>
</svg>
