<svg xmlns="http://www.w3.org/2000/svg" width="193.839" height="193.839" viewBox="0 0 193.839 193.839">
  <g id="Grupo_166799" data-name="Grupo 166799" transform="translate(5407.703 13350.8)">
    <g id="loteria" transform="translate(-5407.703 -13350.8)">
      <ellipse id="Elipse_5103" data-name="Elipse 5103" cx="80.565" cy="80.565" rx="80.565" ry="80.565" transform="translate(0 37.06) rotate(-13.3)" fill="#d3e7f7"/>
      <path id="Trazado_177476" data-name="Trazado 177476" d="M136.751,36.62a82.243,82.243,0,1,0,82.243,82.243A82.336,82.336,0,0,0,136.751,36.62Zm0,161.13a78.886,78.886,0,1,1,78.886-78.886A78.976,78.976,0,0,1,136.751,197.75Z" transform="translate(-39.827 -21.878)" fill="#3a312a"/>
      <path id="Trazado_197296" data-name="Trazado 197296" d="M18.183,0A18.183,18.183,0,1,1,0,18.183,18.183,18.183,0,0,1,18.183,0Z" transform="matrix(0.987, -0.16, 0.16, 0.987, 99.733, 110.248)" fill="#25ffff"/>
      <path id="Trazado_177477" data-name="Trazado 177477" d="M151.306,117.647a19.861,19.861,0,1,0,19.86,19.86A19.884,19.884,0,0,0,151.306,117.647Zm0,36.365a16.5,16.5,0,1,1,16.5-16.5A16.524,16.524,0,0,1,151.306,154.012Z" transform="translate(-30.675 -12.239)" fill="#3a312a"/>
      <ellipse id="Elipse_5105" data-name="Elipse 5105" cx="18.183" cy="18.183" rx="18.183" ry="18.183" transform="translate(36.288 137.578) rotate(-85.931)" fill="#25ffff"/>
      <path id="Trazado_177478" data-name="Trazado 177478" d="M93.222,113.616a19.861,19.861,0,1,0,19.861,19.861A19.883,19.883,0,0,0,93.222,113.616Zm0,36.365a16.5,16.5,0,1,1,16.5-16.5A16.522,16.522,0,0,1,93.222,149.981Z" transform="translate(-37.584 -12.719)" fill="#3a312a"/>
      <ellipse id="Elipse_5106" data-name="Elipse 5106" cx="18.183" cy="18.183" rx="18.183" ry="18.183" transform="translate(80.39 87.564)" fill="#dbfdfd"/>
      <path id="Trazado_177479" data-name="Trazado 177479" d="M131.592,100.2a19.861,19.861,0,1,0,19.861,19.861A19.884,19.884,0,0,0,131.592,100.2Zm0,36.366a16.5,16.5,0,1,1,16.5-16.5A16.524,16.524,0,0,1,131.592,136.566Z" transform="translate(-33.02 -14.315)" fill="#3a312a"/>
      <ellipse id="Elipse_5107" data-name="Elipse 5107" cx="18.183" cy="18.183" rx="18.183" ry="18.183" transform="translate(135.016 103.867)" fill="#cfb7ff"/>
      <path id="Trazado_177480" data-name="Trazado 177480" d="M180.411,114.77a19.861,19.861,0,1,0,19.861,19.861,19.884,19.884,0,0,0-19.861-19.861Zm0,36.366a16.5,16.5,0,1,1,16.5-16.5A16.524,16.524,0,0,1,180.411,151.136Z" transform="translate(-27.212 -12.581)" fill="#3a312a"/>
      <ellipse id="Elipse_5108" data-name="Elipse 5108" cx="18.183" cy="18.183" rx="18.183" ry="18.183" transform="translate(43.297 136.529) rotate(-13.3)" fill="#dbfdfd"/>
      <path id="Trazado_177481" data-name="Trazado 177481" d="M101.728,139.848A19.861,19.861,0,1,0,121.59,159.71,19.884,19.884,0,0,0,101.728,139.848Zm0,36.365a16.5,16.5,0,1,1,16.5-16.5A16.524,16.524,0,0,1,101.728,176.213Z" transform="translate(-36.572 -9.598)" fill="#3a312a"/>
      <circle id="Elipse_5109" data-name="Elipse 5109" cx="18.183" cy="18.183" r="18.183" transform="translate(60.501 129.195) rotate(-45)" fill="#cfb7ff"/>
      <path id="Trazado_177482" data-name="Trazado 177482" d="M120.571,121.158a19.861,19.861,0,1,0,19.861,19.861,19.884,19.884,0,0,0-19.861-19.861Zm0,36.366a16.5,16.5,0,1,1,16.5-16.5A16.524,16.524,0,0,1,120.571,157.524Z" transform="translate(-34.331 -11.821)" fill="#3a312a"/>
      <ellipse id="Elipse_5110" data-name="Elipse 5110" cx="18.183" cy="18.183" rx="18.183" ry="18.183" transform="translate(77.577 141.184)" fill="#25ffff"/>
      <path id="Trazado_177483" data-name="Trazado 177483" d="M129.078,148.12a19.861,19.861,0,1,0,19.861,19.861A19.884,19.884,0,0,0,129.078,148.12Zm0,36.366a16.5,16.5,0,1,1,16.5-16.5A16.524,16.524,0,0,1,129.078,184.486Z" transform="translate(-33.319 -8.614)" fill="#3a312a"/>
      <ellipse id="Elipse_5111" data-name="Elipse 5111" cx="18.183" cy="18.183" rx="18.183" ry="18.183" transform="translate(106.895 135.971) rotate(-13.3)" fill="#dbfdfd"/>
      <g id="Grupo_165602" data-name="Grupo 165602" transform="translate(108.907 129.706)">
        <path id="Trazado_177484" data-name="Trazado 177484" d="M158.578,139.362a19.861,19.861,0,1,0,19.861,19.861A19.884,19.884,0,0,0,158.578,139.362Zm0,36.365a16.5,16.5,0,1,1,16.5-16.5A16.524,16.524,0,0,1,158.578,175.727Z" transform="translate(-138.717 -139.362)" fill="#3a312a"/>
      </g>
      <text id="_16" data-name="16" transform="translate(107.914 129.325)" fill="#12263f" font-size="18" font-family="Roboto-Medium, Roboto" font-weight="500"><tspan x="0" y="0">16</tspan></text>
    </g>
    <path id="Trazado_705268" data-name="Trazado 705268" d="M6.741,0H4.614V-10.281L1.477-9.211V-11l4.992-1.837h.272ZM19.705-11.61,14.59,0H12.349l5.106-11.083H10.837V-12.8h8.868Z" transform="translate(-5363.431 -13224.563)" fill="#12263f"/>
    <path id="Trazado_705269" data-name="Trazado 705269" d="M1.529-6.346,2.224-12.8H9.1v1.846H4L3.647-7.893a3.951,3.951,0,0,1,2-.51A3.565,3.565,0,0,1,8.495-7.233,4.632,4.632,0,0,1,9.51-4.087,4.264,4.264,0,0,1,8.385-.98,4.106,4.106,0,0,1,5.3.176a4.3,4.3,0,0,1-2.914-1A3.606,3.606,0,0,1,1.134-3.454H3.2a2.256,2.256,0,0,0,.668,1.428,2.032,2.032,0,0,0,1.424.5,1.836,1.836,0,0,0,1.534-.7,3.035,3.035,0,0,0,.549-1.916A2.682,2.682,0,0,0,6.768-6,2.121,2.121,0,0,0,5.1-6.68a2.778,2.778,0,0,0-.984.154,2.788,2.788,0,0,0-.879.6Z" transform="translate(-5314 -13241.246)" fill="#12263f"/>
    <path id="Trazado_705270" data-name="Trazado 705270" d="M6.741,0H4.614V-10.281L1.477-9.211V-11l4.992-1.837h.272Zm10.23,0H14.845V-10.281l-3.138,1.07V-11L16.7-12.841h.272Z" transform="translate(-5332.537 -13217.149)" fill="#12263f"/>
    <path id="Trazado_705271" data-name="Trazado 705271" d="M9.475-11.61,4.359,0H2.118L7.225-11.083H.606V-12.8H9.475Z" transform="translate(-5349.22 -13193.052)" fill="#12263f"/>
    <path id="Trazado_705272" data-name="Trazado 705272" d="M6.741,0H4.614V-10.281L1.477-9.211V-11l4.992-1.837h.272Z" transform="translate(-5318.326 -13186.255)" fill="#12263f"/>
    <path id="Trazado_705273" data-name="Trazado 705273" d="M8.183-4.562H9.773v1.714H8.183V0H6.047V-2.848H.519l-.062-1.3L5.977-12.8H8.183Zm-5.484,0H6.047V-9.905l-.158.281Z" transform="translate(-5285.578 -13194.905)" fill="#12263f"/>
    <path id="Trazado_705274" data-name="Trazado 705274" d="M6.741,0H4.614V-10.281L1.477-9.211V-11l4.992-1.837h.272Zm6.917-7.374h1.3a2.328,2.328,0,0,0,1.56-.51,1.819,1.819,0,0,0,.576-1.45,1.982,1.982,0,0,0-.479-1.419,1.928,1.928,0,0,0-1.463-.505,2.039,2.039,0,0,0-1.415.5,1.659,1.659,0,0,0-.554,1.3H11.048a3.233,3.233,0,0,1,.523-1.793A3.513,3.513,0,0,1,13.03-12.52a4.753,4.753,0,0,1,2.1-.453,4.4,4.4,0,0,1,3.01.962A3.377,3.377,0,0,1,19.23-9.334a2.719,2.719,0,0,1-.549,1.622,3.445,3.445,0,0,1-1.419,1.147,3.14,3.14,0,0,1,1.6,1.134,3.1,3.1,0,0,1,.549,1.846A3.437,3.437,0,0,1,18.233-.844,4.59,4.59,0,0,1,15.126.176,4.555,4.555,0,0,1,12.1-.809a3.242,3.242,0,0,1-1.178-2.619h2.136a1.787,1.787,0,0,0,.567,1.371,2.15,2.15,0,0,0,1.525.527,2.217,2.217,0,0,0,1.564-.527,1.978,1.978,0,0,0,.571-1.529,2,2,0,0,0-.6-1.556,2.555,2.555,0,0,0-1.775-.545H13.658Z" transform="translate(-5265.805 -13223.328)" fill="#12263f"/>
  </g>
</svg>
