<svg xmlns="http://www.w3.org/2000/svg" width="376" height="223" viewBox="0 0 376 223">
  <g id="Grupo_974122" data-name="Grupo 974122" transform="translate(-7292 3781)">
    <rect id="Rectángulo_339950" data-name="Rectángulo 339950" width="376" height="223" rx="16" transform="translate(7292 -3781)" fill="#fff"/>
    <g id="Grupo_974121" data-name="Grupo 974121" transform="translate(-529 2737.82)">
      <path id="Trazado_704795" data-name="Trazado 704795" d="M7860.667-6340.667H8178" transform="translate(0 2)" fill="none" stroke="#707070" stroke-width="5"/>
      <path id="Trazado_704796" data-name="Trazado 704796" d="M7868.666-6386.5H8171" transform="translate(0)" fill="none" stroke="#707070" stroke-width="1" stroke-dasharray="1"/>
      <path id="Trazado_704797" data-name="Trazado 704797" d="M7868.666-6386.5H8171" transform="translate(0 -33)" fill="none" stroke="#707070" stroke-width="1" stroke-dasharray="1"/>
      <path id="Trazado_704798" data-name="Trazado 704798" d="M7868.666-6386.5H8171" transform="translate(0 -70)" fill="none" stroke="#707070" stroke-width="1" stroke-dasharray="1"/>
      <path id="Trazado_704799" data-name="Trazado 704799" d="M7868.666-6386.5H8171" transform="translate(0 -104)" fill="none" stroke="#707070" stroke-width="1" stroke-dasharray="1"/>
      <path id="Trazado_704972" data-name="Trazado 704972" d="M8.43-4.7a5.762,5.762,0,0,1-.977,3.609A3.409,3.409,0,0,1,4.594.156,3.433,3.433,0,0,1,1.75-1.07,5.594,5.594,0,0,1,.742-4.586V-6.68A5.687,5.687,0,0,1,1.73-10.3a3.434,3.434,0,0,1,2.848-1.234,3.437,3.437,0,0,1,2.844,1.223A5.576,5.576,0,0,1,8.43-6.8Zm-2.258-2.3a4.165,4.165,0,0,0-.387-2.061,1.307,1.307,0,0,0-1.207-.645A1.284,1.284,0,0,0,3.4-9.1,3.9,3.9,0,0,0,3-7.177v2.768a4.372,4.372,0,0,0,.379,2.068,1.29,1.29,0,0,0,1.215.676,1.268,1.268,0,0,0,1.2-.649A4.268,4.268,0,0,0,6.172-4.3Z" transform="translate(7855 -6349)" fill="#707070"/>
      <path id="Trazado_704973" data-name="Trazado 704973" d="M8.43-4.7a5.762,5.762,0,0,1-.977,3.609A3.409,3.409,0,0,1,4.594.156,3.433,3.433,0,0,1,1.75-1.07,5.594,5.594,0,0,1,.742-4.586V-6.68A5.687,5.687,0,0,1,1.73-10.3a3.434,3.434,0,0,1,2.848-1.234,3.437,3.437,0,0,1,2.844,1.223A5.576,5.576,0,0,1,8.43-6.8Zm-2.258-2.3a4.165,4.165,0,0,0-.387-2.061,1.307,1.307,0,0,0-1.207-.645A1.284,1.284,0,0,0,3.4-9.1,3.9,3.9,0,0,0,3-7.177v2.768a4.372,4.372,0,0,0,.379,2.068,1.29,1.29,0,0,0,1.215.676,1.268,1.268,0,0,0,1.2-.649A4.268,4.268,0,0,0,6.172-4.3Z" transform="translate(7870.5 -6314)" fill="#707070"/>
      <path id="Trazado_704974" data-name="Trazado 704974" d="M6.258,0H4V-8.7l-2.7.836V-9.7l4.711-1.687h.242Z" transform="translate(7921.5 -6314)" fill="#707070"/>
      <path id="Trazado_704975" data-name="Trazado 704975" d="M8.57,0H.773V-1.547l3.68-3.922A9.078,9.078,0,0,0,5.574-6.914a2.322,2.322,0,0,0,.363-1.172,1.738,1.738,0,0,0-.383-1.191,1.382,1.382,0,0,0-1.094-.434,1.49,1.49,0,0,0-1.207.527A2.089,2.089,0,0,0,2.813-7.8H.547a3.729,3.729,0,0,1,.5-1.9,3.5,3.5,0,0,1,1.4-1.348A4.262,4.262,0,0,1,4.5-11.531a4.036,4.036,0,0,1,2.73.844A2.985,2.985,0,0,1,8.2-8.3a3.825,3.825,0,0,1-.437,1.719,9.551,9.551,0,0,1-1.5,2.039L3.68-1.82H8.57Z" transform="translate(7972.5 -6314)" fill="#707070"/>
      <path id="Trazado_704976" data-name="Trazado 704976" d="M3.07-6.687h1.2a1.7,1.7,0,0,0,1.273-.43,1.574,1.574,0,0,0,.414-1.141,1.392,1.392,0,0,0-.41-1.07,1.59,1.59,0,0,0-1.129-.383,1.666,1.666,0,0,0-1.086.355A1.137,1.137,0,0,0,2.9-8.43H.641a2.777,2.777,0,0,1,.48-1.6,3.2,3.2,0,0,1,1.344-1.105,4.485,4.485,0,0,1,1.9-.4,4.253,4.253,0,0,1,2.828.863A2.945,2.945,0,0,1,8.219-8.289a2.394,2.394,0,0,1-.477,1.438,3.1,3.1,0,0,1-1.25,1.008A2.826,2.826,0,0,1,7.926-4.812,2.8,2.8,0,0,1,8.4-3.187,2.994,2.994,0,0,1,7.293-.758,4.445,4.445,0,0,1,4.367.156a4.214,4.214,0,0,1-2.785-.9A2.934,2.934,0,0,1,.5-3.117H2.758a1.308,1.308,0,0,0,.48,1.047,1.771,1.771,0,0,0,1.184.406A1.779,1.779,0,0,0,5.684-2.09a1.47,1.47,0,0,0,.457-1.129q0-1.7-1.875-1.7H3.07Z" transform="translate(8018.342 -6314)" fill="#707070"/>
      <path id="Trazado_704977" data-name="Trazado 704977" d="M7.453-4.281H8.742v1.82H7.453V0H5.2V-2.461H.531L.43-3.883l4.742-7.492H7.453Zm-4.773,0H5.2V-8.3l-.148.258Z" transform="translate(8066.991 -6314)" fill="#707070"/>
      <path id="Trazado_704978" data-name="Trazado 704978" d="M1.109-5.594l.656-5.781H8.141v1.883H3.617L3.336-7.047a3.58,3.58,0,0,1,1.711-.43A3.279,3.279,0,0,1,7.594-6.469a4.026,4.026,0,0,1,.922,2.82,4.124,4.124,0,0,1-.465,1.973A3.281,3.281,0,0,1,6.719-.324a4.158,4.158,0,0,1-2.047.48A4.416,4.416,0,0,1,2.758-.262,3.4,3.4,0,0,1,1.363-1.437,3.2,3.2,0,0,1,.82-3.164H3.055a1.669,1.669,0,0,0,.5,1.105,1.573,1.573,0,0,0,1.113.395,1.388,1.388,0,0,0,1.18-.551,2.551,2.551,0,0,0,.414-1.559,2.11,2.11,0,0,0-.477-1.484A1.749,1.749,0,0,0,4.43-5.773a1.954,1.954,0,0,0-1.3.422l-.219.2Z" transform="translate(8117 -6314)" fill="#707070"/>
      <path id="Trazado_704979" data-name="Trazado 704979" d="M6.9-11.492v1.859H6.68a3.836,3.836,0,0,0-2.465.8A3.238,3.238,0,0,0,3.094-6.687a3.075,3.075,0,0,1,2.289-.922A2.9,2.9,0,0,1,7.742-6.547a4.259,4.259,0,0,1,.875,2.8,4.19,4.19,0,0,1-.48,2.008,3.446,3.446,0,0,1-1.359,1.4,3.949,3.949,0,0,1-1.988.5,3.689,3.689,0,0,1-2.9-1.25A4.852,4.852,0,0,1,.781-4.43v-.812a7.3,7.3,0,0,1,.7-3.27,5.127,5.127,0,0,1,2.008-2.2,5.884,5.884,0,0,1,3.035-.785Zm-2.2,5.7A1.8,1.8,0,0,0,3.7-5.5a1.715,1.715,0,0,0-.656.753v.686A3.04,3.04,0,0,0,3.492-2.3a1.439,1.439,0,0,0,1.25.635,1.423,1.423,0,0,0,1.176-.573,2.337,2.337,0,0,0,.449-1.485,2.333,2.333,0,0,0-.453-1.5A1.477,1.477,0,0,0,4.7-5.789Z" transform="translate(8166.184 -6314)" fill="#707070"/>
      <path id="Trazado_704980" data-name="Trazado 704980" d="M6.258,0H4V-8.7l-2.7.836V-9.7l4.711-1.687h.242ZM17.609-4.7a5.763,5.763,0,0,1-.977,3.609A3.409,3.409,0,0,1,13.773.156,3.433,3.433,0,0,1,10.93-1.07,5.594,5.594,0,0,1,9.922-4.586V-6.68A5.687,5.687,0,0,1,10.91-10.3a3.434,3.434,0,0,1,2.848-1.234A3.437,3.437,0,0,1,16.6-10.309,5.576,5.576,0,0,1,17.609-6.8Zm-2.258-2.3a4.165,4.165,0,0,0-.387-2.061,1.307,1.307,0,0,0-1.207-.645,1.284,1.284,0,0,0-1.176.614,3.9,3.9,0,0,0-.4,1.92v2.768a4.372,4.372,0,0,0,.379,2.068,1.29,1.29,0,0,0,1.215.676,1.268,1.268,0,0,0,1.2-.649A4.268,4.268,0,0,0,15.352-4.3Z" transform="translate(7849 -6381)" fill="#707070"/>
      <path id="Trazado_704981" data-name="Trazado 704981" d="M8.57,0H.773V-1.547l3.68-3.922A9.078,9.078,0,0,0,5.574-6.914a2.322,2.322,0,0,0,.363-1.172,1.738,1.738,0,0,0-.383-1.191,1.382,1.382,0,0,0-1.094-.434,1.49,1.49,0,0,0-1.207.527A2.089,2.089,0,0,0,2.813-7.8H.547a3.729,3.729,0,0,1,.5-1.9,3.5,3.5,0,0,1,1.4-1.348A4.262,4.262,0,0,1,4.5-11.531a4.036,4.036,0,0,1,2.73.844A2.985,2.985,0,0,1,8.2-8.3a3.825,3.825,0,0,1-.437,1.719,9.551,9.551,0,0,1-1.5,2.039L3.68-1.82H8.57Zm9.039-4.7a5.763,5.763,0,0,1-.977,3.609A3.409,3.409,0,0,1,13.773.156,3.433,3.433,0,0,1,10.93-1.07,5.594,5.594,0,0,1,9.922-4.586V-6.68A5.687,5.687,0,0,1,10.91-10.3a3.434,3.434,0,0,1,2.848-1.234A3.437,3.437,0,0,1,16.6-10.309,5.576,5.576,0,0,1,17.609-6.8Zm-2.258-2.3a4.165,4.165,0,0,0-.387-2.061,1.307,1.307,0,0,0-1.207-.645,1.284,1.284,0,0,0-1.176.614,3.9,3.9,0,0,0-.4,1.92v2.768a4.372,4.372,0,0,0,.379,2.068,1.29,1.29,0,0,0,1.215.676,1.268,1.268,0,0,0,1.2-.649A4.268,4.268,0,0,0,15.352-4.3Z" transform="translate(7849 -6413)" fill="#707070"/>
      <path id="Trazado_704982" data-name="Trazado 704982" d="M3.07-6.687h1.2a1.7,1.7,0,0,0,1.273-.43,1.574,1.574,0,0,0,.414-1.141,1.392,1.392,0,0,0-.41-1.07,1.59,1.59,0,0,0-1.129-.383,1.666,1.666,0,0,0-1.086.355A1.137,1.137,0,0,0,2.9-8.43H.641a2.777,2.777,0,0,1,.48-1.6,3.2,3.2,0,0,1,1.344-1.105,4.485,4.485,0,0,1,1.9-.4,4.253,4.253,0,0,1,2.828.863A2.945,2.945,0,0,1,8.219-8.289a2.394,2.394,0,0,1-.477,1.438,3.1,3.1,0,0,1-1.25,1.008A2.826,2.826,0,0,1,7.926-4.812,2.8,2.8,0,0,1,8.4-3.187,2.994,2.994,0,0,1,7.293-.758,4.445,4.445,0,0,1,4.367.156a4.214,4.214,0,0,1-2.785-.9A2.934,2.934,0,0,1,.5-3.117H2.758a1.308,1.308,0,0,0,.48,1.047,1.771,1.771,0,0,0,1.184.406A1.779,1.779,0,0,0,5.684-2.09a1.47,1.47,0,0,0,.457-1.129q0-1.7-1.875-1.7H3.07ZM17.609-4.7a5.763,5.763,0,0,1-.977,3.609A3.409,3.409,0,0,1,13.773.156,3.433,3.433,0,0,1,10.93-1.07,5.594,5.594,0,0,1,9.922-4.586V-6.68A5.687,5.687,0,0,1,10.91-10.3a3.434,3.434,0,0,1,2.848-1.234A3.437,3.437,0,0,1,16.6-10.309,5.576,5.576,0,0,1,17.609-6.8Zm-2.258-2.3a4.165,4.165,0,0,0-.387-2.061,1.307,1.307,0,0,0-1.207-.645,1.284,1.284,0,0,0-1.176.614,3.9,3.9,0,0,0-.4,1.92v2.768a4.372,4.372,0,0,0,.379,2.068,1.29,1.29,0,0,0,1.215.676,1.268,1.268,0,0,0,1.2-.649A4.268,4.268,0,0,0,15.352-4.3Z" transform="translate(7847 -6451)" fill="#707070"/>
      <path id="Trazado_704983" data-name="Trazado 704983" d="M7.453-4.281H8.742v1.82H7.453V0H5.2V-2.461H.531L.43-3.883l4.742-7.492H7.453Zm-4.773,0H5.2V-8.3l-.148.258ZM17.609-4.7a5.763,5.763,0,0,1-.977,3.609A3.409,3.409,0,0,1,13.773.156,3.433,3.433,0,0,1,10.93-1.07,5.594,5.594,0,0,1,9.922-4.586V-6.68A5.687,5.687,0,0,1,10.91-10.3a3.434,3.434,0,0,1,2.848-1.234A3.437,3.437,0,0,1,16.6-10.309,5.576,5.576,0,0,1,17.609-6.8Zm-2.258-2.3a4.165,4.165,0,0,0-.387-2.061,1.307,1.307,0,0,0-1.207-.645,1.284,1.284,0,0,0-1.176.614,3.9,3.9,0,0,0-.4,1.92v2.768a4.372,4.372,0,0,0,.379,2.068,1.29,1.29,0,0,0,1.215.676,1.268,1.268,0,0,0,1.2-.649A4.268,4.268,0,0,0,15.352-4.3Z" transform="translate(7847 -6485)" fill="#707070"/>
      <path id="Trazado_704984" data-name="Trazado 704984" d="M5,0A5,5,0,1,1,0,5,5,5,0,0,1,5,0Z" transform="translate(7919 -6385.82)" fill="#ad84ff"/>
      <path id="Trazado_704985" data-name="Trazado 704985" d="M5,0A5,5,0,1,1,0,5,5,5,0,0,1,5,0Z" transform="translate(7971 -6405.82)" fill="#ad84ff"/>
      <path id="Trazado_704986" data-name="Trazado 704986" d="M5,0A5,5,0,1,1,0,5,5,5,0,0,1,5,0Z" transform="translate(7997 -6429.82)" fill="#ad84ff"/>
      <path id="Trazado_704987" data-name="Trazado 704987" d="M5,0A5,5,0,1,1,0,5,5,5,0,0,1,5,0Z" transform="translate(8015 -6438.82)" fill="#ad84ff"/>
      <path id="Trazado_704988" data-name="Trazado 704988" d="M5,0A5,5,0,1,1,0,5,5,5,0,0,1,5,0Z" transform="translate(8084 -6462.82)" fill="#ad84ff"/>
      <path id="Trazado_704989" data-name="Trazado 704989" d="M5,0A5,5,0,1,1,0,5,5,5,0,0,1,5,0Z" transform="translate(8057 -6422.82)" fill="#ad84ff"/>
      <path id="Trazado_704990" data-name="Trazado 704990" d="M5,0A5,5,0,1,1,0,5,5,5,0,0,1,5,0Z" transform="translate(8148 -6475.82)" fill="#ad84ff"/>
      <path id="Trazado_704991" data-name="Trazado 704991" d="M5,0A5,5,0,1,1,0,5,5,5,0,0,1,5,0Z" transform="translate(8111 -6438.82)" fill="#ad84ff"/>
      <path id="Trazado_704808" data-name="Trazado 704808" d="M0,0H151.833" transform="translate(8022.842 -6338.667) rotate(-90)" fill="none" stroke="#707070" stroke-width="1" stroke-dasharray="1"/>
      <path id="Trazado_704812" data-name="Trazado 704812" d="M0,0H151.833" transform="translate(8171 -6338.667) rotate(-90)" fill="none" stroke="#707070" stroke-width="1" stroke-dasharray="1"/>
      <path id="Trazado_704809" data-name="Trazado 704809" d="M0,0H151.833" transform="translate(7975.931 -6338.667) rotate(-90)" fill="none" stroke="#707070" stroke-width="1" stroke-dasharray="1"/>
      <path id="Trazado_704813" data-name="Trazado 704813" d="M0,0H151.833" transform="translate(8121.5 -6338.667) rotate(-90)" fill="none" stroke="#707070" stroke-width="1" stroke-dasharray="1"/>
      <path id="Trazado_704810" data-name="Trazado 704810" d="M0,0H151.833" transform="translate(7926 -6338.667) rotate(-90)" fill="none" stroke="#707070" stroke-width="1" stroke-dasharray="1"/>
      <path id="Trazado_704814" data-name="Trazado 704814" d="M0,0H151.833" transform="translate(8071.491 -6338.667) rotate(-90)" fill="none" stroke="#707070" stroke-width="1" stroke-dasharray="1"/>
      <path id="Trazado_704811" data-name="Trazado 704811" d="M0,0H151.833" transform="translate(7875 -6338.667) rotate(-90)" fill="none" stroke="#707070" stroke-width="1" stroke-dasharray="1"/>
    </g>
  </g>
</svg>
