<svg xmlns="http://www.w3.org/2000/svg" width="301.402" height="276.161" viewBox="0 0 301.402 276.161">
  <g id="Grupo_170021" data-name="Grupo 170021" transform="translate(-200 -10560)">
    <path id="Trazado_204799" data-name="Trazado 204799" d="M-8924.073-3999v269.909" transform="translate(9146.708 14559)" fill="none" stroke="#12263f" stroke-width="3"/>
    <path id="Trazado_204800" data-name="Trazado 204800" d="M0,0V296.367" transform="translate(496.366 10815.017) rotate(90)" fill="none" stroke="#12263f" stroke-width="3"/>
    <path id="Trazado_204801" data-name="Trazado 204801" d="M-8923.631-3988.742h-5.863" transform="translate(9146.266 14559.838)" fill="none" stroke="#12263f" stroke-width="2"/>
    <path id="Trazado_204802" data-name="Trazado 204802" d="M-8923.631-3988.742h-5.863" transform="translate(9146.266 14608.511)" fill="none" stroke="#12263f" stroke-width="2"/>
    <path id="Trazado_204803" data-name="Trazado 204803" d="M-8923.631-3988.742h-5.863" transform="translate(9146.266 14657.184)" fill="none" stroke="#12263f" stroke-width="2"/>
    <path id="Trazado_204804" data-name="Trazado 204804" d="M-8923.631-3988.742h-5.863" transform="translate(9146.266 14705.857)" fill="none" stroke="#12263f" stroke-width="2"/>
    <path id="Trazado_204805" data-name="Trazado 204805" d="M-8923.631-3988.742h-5.863" transform="translate(9146.266 14754.53)" fill="none" stroke="#12263f" stroke-width="2"/>
    <path id="Trazado_204806" data-name="Trazado 204806" d="M5.863,0H0" transform="translate(271.622 10819.558) rotate(-90)" fill="none" stroke="#12263f" stroke-width="2"/>
    <path id="Trazado_204807" data-name="Trazado 204807" d="M5.863,0H0" transform="translate(320.608 10819.558) rotate(-90)" fill="none" stroke="#12263f" stroke-width="2"/>
    <path id="Trazado_204808" data-name="Trazado 204808" d="M5.863,0H0" transform="translate(369.594 10819.558) rotate(-90)" fill="none" stroke="#12263f" stroke-width="2"/>
    <path id="Trazado_204809" data-name="Trazado 204809" d="M5.863,0H0" transform="translate(418.58 10819.558) rotate(-90)" fill="none" stroke="#12263f" stroke-width="2"/>
    <path id="Trazado_204810" data-name="Trazado 204810" d="M5.863,0H0" transform="translate(467.566 10819.558) rotate(-90)" fill="none" stroke="#12263f" stroke-width="2"/>
    <path id="Trazado_705192" data-name="Trazado 705192" d="M6.563-3.942a5.371,5.371,0,0,1-.7,3.066,2.506,2.506,0,0,1-2.2,1,2.524,2.524,0,0,1-2.19-.981A5.1,5.1,0,0,1,.73-3.783V-5.351a5.251,5.251,0,0,1,.7-3.028,2.525,2.525,0,0,1,2.209-.99,2.548,2.548,0,0,1,2.2.955,5.068,5.068,0,0,1,.724,2.948ZM5.389-5.548A4.3,4.3,0,0,0,4.97-7.722,1.442,1.442,0,0,0,3.644-8.4a1.423,1.423,0,0,0-1.314.679A4.2,4.2,0,0,0,1.9-5.637v1.879a4.372,4.372,0,0,0,.435,2.212,1.439,1.439,0,0,0,1.317.714A1.42,1.42,0,0,0,4.948-1.5a4.214,4.214,0,0,0,.441-2.12Z" transform="translate(209.576 10811.394)" fill="#12263f"/>
    <path id="Trazado_705193" data-name="Trazado 705193" d="M6.563-3.942a5.371,5.371,0,0,1-.7,3.066,2.506,2.506,0,0,1-2.2,1,2.524,2.524,0,0,1-2.19-.981A5.1,5.1,0,0,1,.73-3.783V-5.351a5.251,5.251,0,0,1,.7-3.028,2.525,2.525,0,0,1,2.209-.99,2.548,2.548,0,0,1,2.2.955,5.068,5.068,0,0,1,.724,2.948ZM5.389-5.548A4.3,4.3,0,0,0,4.97-7.722,1.442,1.442,0,0,0,3.644-8.4a1.423,1.423,0,0,0-1.314.679A4.2,4.2,0,0,0,1.9-5.637v1.879a4.372,4.372,0,0,0,.435,2.212,1.439,1.439,0,0,0,1.317.714A1.42,1.42,0,0,0,4.948-1.5a4.214,4.214,0,0,0,.441-2.12Z" transform="translate(224.897 10831.502)" fill="#12263f"/>
    <path id="Trazado_705194" data-name="Trazado 705194" d="M6.824,0H.768V-.844L3.967-4.4A7.6,7.6,0,0,0,4.948-5.71a2.188,2.188,0,0,0,.27-1.044A1.658,1.658,0,0,0,4.78-7.941,1.531,1.531,0,0,0,3.612-8.4a1.814,1.814,0,0,0-1.362.5,1.9,1.9,0,0,0-.486,1.387H.59a2.726,2.726,0,0,1,.822-2.063,3.047,3.047,0,0,1,2.2-.787,2.928,2.928,0,0,1,2.038.676,2.306,2.306,0,0,1,.749,1.8,5.287,5.287,0,0,1-1.739,3.25L2.184-.958h4.64Z" transform="translate(267.988 10831.502)" fill="#12263f"/>
    <path id="Trazado_705195" data-name="Trazado 705195" d="M5.726-3.1H7.008v.958H5.726V0H4.545V-2.146H.336v-.692l4.139-6.4h1.25Zm-4.056,0H4.545V-7.636l-.14.254Z" transform="translate(316.824 10831.502)" fill="#12263f"/>
    <path id="Trazado_705196" data-name="Trazado 705196" d="M5.376-9.249v1H5.161a3.092,3.092,0,0,0-2.184.813,3.381,3.381,0,0,0-.939,2.215,2.507,2.507,0,0,1,1.993-.838,2.4,2.4,0,0,1,1.927.851,3.281,3.281,0,0,1,.72,2.2A3.27,3.27,0,0,1,5.9-.73,2.678,2.678,0,0,1,3.815.127,2.638,2.638,0,0,1,1.663-.892,4.038,4.038,0,0,1,.838-3.517v-.451a6.084,6.084,0,0,1,1.089-3.9,4,4,0,0,1,3.24-1.381ZM3.834-5.084a1.874,1.874,0,0,0-1.111.362,1.885,1.885,0,0,0-.7.908v.432a3.032,3.032,0,0,0,.514,1.841,1.541,1.541,0,0,0,1.282.7,1.493,1.493,0,0,0,1.247-.584,2.423,2.423,0,0,0,.454-1.53A2.424,2.424,0,0,0,5.056-4.5,1.475,1.475,0,0,0,3.834-5.084Z" transform="translate(365.66 10831.502)" fill="#12263f"/>
    <path id="Trazado_705197" data-name="Trazado 705197" d="M6.373-6.83A2.146,2.146,0,0,1,6.008-5.6a2.483,2.483,0,0,1-.987.844,2.649,2.649,0,0,1,1.146.908,2.284,2.284,0,0,1,.422,1.352A2.415,2.415,0,0,1,5.78-.584,3.109,3.109,0,0,1,3.65.127,3.1,3.1,0,0,1,1.514-.587a2.426,2.426,0,0,1-.8-1.907A2.352,2.352,0,0,1,1.12-3.847a2.548,2.548,0,0,1,1.133-.914A2.422,2.422,0,0,1,1.282-5.6,2.177,2.177,0,0,1,.927-6.83a2.389,2.389,0,0,1,.749-1.854A2.81,2.81,0,0,1,3.65-9.369a2.812,2.812,0,0,1,1.971.686A2.384,2.384,0,0,1,6.373-6.83ZM5.415-2.52a1.7,1.7,0,0,0-.492-1.263,1.745,1.745,0,0,0-1.285-.489,1.714,1.714,0,0,0-1.273.482,1.723,1.723,0,0,0-.479,1.27,1.641,1.641,0,0,0,.467,1.238,1.791,1.791,0,0,0,1.3.451,1.786,1.786,0,0,0,1.295-.454A1.637,1.637,0,0,0,5.415-2.52ZM3.65-8.4a1.515,1.515,0,0,0-1.12.428A1.574,1.574,0,0,0,2.1-6.811a1.566,1.566,0,0,0,.422,1.139,1.5,1.5,0,0,0,1.127.435,1.5,1.5,0,0,0,1.127-.435A1.566,1.566,0,0,0,5.2-6.811,1.567,1.567,0,0,0,4.761-7.96,1.494,1.494,0,0,0,3.65-8.4Z" transform="translate(414.496 10831.502)" fill="#12263f"/>
    <path id="Trazado_705198" data-name="Trazado 705198" d="M4.627,0H3.447V-7.827l-2.368.87V-8.023L4.443-9.287h.184Zm9.236-3.942a5.371,5.371,0,0,1-.7,3.066,2.506,2.506,0,0,1-2.2,1,2.524,2.524,0,0,1-2.19-.981A5.1,5.1,0,0,1,8.03-3.783V-5.351a5.251,5.251,0,0,1,.7-3.028,2.525,2.525,0,0,1,2.209-.99,2.548,2.548,0,0,1,2.2.955,5.068,5.068,0,0,1,.724,2.948ZM12.689-5.548a4.3,4.3,0,0,0-.419-2.174A1.442,1.442,0,0,0,10.943-8.4a1.423,1.423,0,0,0-1.314.679A4.2,4.2,0,0,0,9.2-5.637v1.879a4.372,4.372,0,0,0,.435,2.212,1.439,1.439,0,0,0,1.317.714A1.42,1.42,0,0,0,12.248-1.5a4.214,4.214,0,0,0,.441-2.12Z" transform="translate(459.502 10831.502)" fill="#12263f"/>
    <path id="Trazado_705199" data-name="Trazado 705199" d="M6.824,0H.768V-.844L3.967-4.4A7.6,7.6,0,0,0,4.948-5.71a2.188,2.188,0,0,0,.27-1.044A1.658,1.658,0,0,0,4.78-7.941,1.531,1.531,0,0,0,3.612-8.4a1.814,1.814,0,0,0-1.362.5,1.9,1.9,0,0,0-.486,1.387H.59a2.726,2.726,0,0,1,.822-2.063,3.047,3.047,0,0,1,2.2-.787,2.928,2.928,0,0,1,2.038.676,2.306,2.306,0,0,1,.749,1.8,5.287,5.287,0,0,1-1.739,3.25L2.184-.958h4.64Z" transform="translate(209.576 10770.218)" fill="#12263f"/>
    <path id="Trazado_705200" data-name="Trazado 705200" d="M5.726-3.1H7.008v.958H5.726V0H4.545V-2.146H.336v-.692l4.139-6.4h1.25Zm-4.056,0H4.545V-7.636l-.14.254Z" transform="translate(209.576 10721.382)" fill="#12263f"/>
    <path id="Trazado_705201" data-name="Trazado 705201" d="M5.376-9.249v1H5.161a3.092,3.092,0,0,0-2.184.813,3.381,3.381,0,0,0-.939,2.215,2.507,2.507,0,0,1,1.993-.838,2.4,2.4,0,0,1,1.927.851,3.281,3.281,0,0,1,.72,2.2A3.27,3.27,0,0,1,5.9-.73,2.678,2.678,0,0,1,3.815.127,2.638,2.638,0,0,1,1.663-.892,4.038,4.038,0,0,1,.838-3.517v-.451a6.084,6.084,0,0,1,1.089-3.9,4,4,0,0,1,3.24-1.381ZM3.834-5.084a1.874,1.874,0,0,0-1.111.362,1.885,1.885,0,0,0-.7.908v.432a3.032,3.032,0,0,0,.514,1.841,1.541,1.541,0,0,0,1.282.7,1.493,1.493,0,0,0,1.247-.584,2.423,2.423,0,0,0,.454-1.53A2.424,2.424,0,0,0,5.056-4.5,1.475,1.475,0,0,0,3.834-5.084Z" transform="translate(209.576 10672.545)" fill="#12263f"/>
    <path id="Trazado_705202" data-name="Trazado 705202" d="M6.373-6.83A2.146,2.146,0,0,1,6.008-5.6a2.483,2.483,0,0,1-.987.844,2.649,2.649,0,0,1,1.146.908,2.284,2.284,0,0,1,.422,1.352A2.415,2.415,0,0,1,5.78-.584,3.109,3.109,0,0,1,3.65.127,3.1,3.1,0,0,1,1.514-.587a2.426,2.426,0,0,1-.8-1.907A2.352,2.352,0,0,1,1.12-3.847a2.548,2.548,0,0,1,1.133-.914A2.422,2.422,0,0,1,1.282-5.6,2.177,2.177,0,0,1,.927-6.83a2.389,2.389,0,0,1,.749-1.854A2.81,2.81,0,0,1,3.65-9.369a2.812,2.812,0,0,1,1.971.686A2.384,2.384,0,0,1,6.373-6.83ZM5.415-2.52a1.7,1.7,0,0,0-.492-1.263,1.745,1.745,0,0,0-1.285-.489,1.714,1.714,0,0,0-1.273.482,1.723,1.723,0,0,0-.479,1.27,1.641,1.641,0,0,0,.467,1.238,1.791,1.791,0,0,0,1.3.451,1.786,1.786,0,0,0,1.295-.454A1.637,1.637,0,0,0,5.415-2.52ZM3.65-8.4a1.515,1.515,0,0,0-1.12.428A1.574,1.574,0,0,0,2.1-6.811a1.566,1.566,0,0,0,.422,1.139,1.5,1.5,0,0,0,1.127.435,1.5,1.5,0,0,0,1.127-.435A1.566,1.566,0,0,0,5.2-6.811,1.567,1.567,0,0,0,4.761-7.96,1.494,1.494,0,0,0,3.65-8.4Z" transform="translate(209.576 10623.709)" fill="#12263f"/>
    <path id="Trazado_705203" data-name="Trazado 705203" d="M4.627,0H3.447V-7.827l-2.368.87V-8.023L4.443-9.287h.184Zm9.236-3.942a5.371,5.371,0,0,1-.7,3.066,2.506,2.506,0,0,1-2.2,1,2.524,2.524,0,0,1-2.19-.981A5.1,5.1,0,0,1,8.03-3.783V-5.351a5.251,5.251,0,0,1,.7-3.028,2.525,2.525,0,0,1,2.209-.99,2.548,2.548,0,0,1,2.2.955,5.068,5.068,0,0,1,.724,2.948ZM12.689-5.548a4.3,4.3,0,0,0-.419-2.174A1.442,1.442,0,0,0,10.943-8.4a1.423,1.423,0,0,0-1.314.679A4.2,4.2,0,0,0,9.2-5.637v1.879a4.372,4.372,0,0,0,.435,2.212,1.439,1.439,0,0,0,1.317.714A1.42,1.42,0,0,0,12.248-1.5a4.214,4.214,0,0,0,.441-2.12Z" transform="translate(200.958 10574.873)" fill="#12263f"/>
    <path id="Trazado_204811" data-name="Trazado 204811" d="M-8922-3724.614l275.123-270.126" transform="translate(9146.878 14559.348)" fill="none" stroke="#5f9025" stroke-width="4"/>
    <g id="Trazado_705204" data-name="Trazado 705204" transform="translate(316.824 10763.006)" fill="#ff8578">
      <path d="M 4.309079647064209 8.118159294128418 C 2.208749532699585 8.118159294128418 0.4999996423721313 6.409409523010254 0.4999996423721313 4.309079647064209 C 0.4999996423721313 2.208749532699585 2.208749532699585 0.4999996423721313 4.309079647064209 0.4999996423721313 C 6.409409523010254 0.4999996423721313 8.118159294128418 2.208749532699585 8.118159294128418 4.309079647064209 C 8.118159294128418 6.409409523010254 6.409409523010254 8.118159294128418 4.309079647064209 8.118159294128418 Z" stroke="none"/>
      <path d="M 4.309079647064209 0.9999995231628418 C 2.484449863433838 0.9999995231628418 0.9999995231628418 2.484449863433838 0.9999995231628418 4.309079647064209 C 0.9999995231628418 6.133709907531738 2.484449863433838 7.618159770965576 4.309079647064209 7.618159770965576 C 6.133709907531738 7.618159770965576 7.618159770965576 6.133709907531738 7.618159770965576 4.309079647064209 C 7.618159770965576 2.484449863433838 6.133709907531738 0.9999995231628418 4.309079647064209 0.9999995231628418 M 4.309079647064209 0 C 6.688919544219971 0 8.618159294128418 1.929239749908447 8.618159294128418 4.309079647064209 C 8.618159294128418 6.688919544219971 6.688919544219971 8.618159294128418 4.309079647064209 8.618159294128418 C 1.929239749908447 8.618159294128418 0 6.688919544219971 0 4.309079647064209 C 0 1.929239749908447 1.929239749908447 0 4.309079647064209 0 Z" stroke="none" fill="#12263f"/>
    </g>
    <g id="Trazado_705205" data-name="Trazado 705205" transform="translate(267.03 10785.987)" fill="#ff8578">
      <path d="M 4.309079647064209 8.118159294128418 C 2.208749532699585 8.118159294128418 0.4999996423721313 6.409409523010254 0.4999996423721313 4.309079647064209 C 0.4999996423721313 2.208749532699585 2.208749532699585 0.4999996423721313 4.309079647064209 0.4999996423721313 C 6.409409523010254 0.4999996423721313 8.118159294128418 2.208749532699585 8.118159294128418 4.309079647064209 C 8.118159294128418 6.409409523010254 6.409409523010254 8.118159294128418 4.309079647064209 8.118159294128418 Z" stroke="none"/>
      <path d="M 4.309079647064209 0.9999995231628418 C 2.484449863433838 0.9999995231628418 0.9999995231628418 2.484449863433838 0.9999995231628418 4.309079647064209 C 0.9999995231628418 6.133709907531738 2.484449863433838 7.618159770965576 4.309079647064209 7.618159770965576 C 6.133709907531738 7.618159770965576 7.618159770965576 6.133709907531738 7.618159770965576 4.309079647064209 C 7.618159770965576 2.484449863433838 6.133709907531738 0.9999995231628418 4.309079647064209 0.9999995231628418 M 4.309079647064209 0 C 6.688919544219971 0 8.618159294128418 1.929239749908447 8.618159294128418 4.309079647064209 C 8.618159294128418 6.688919544219971 6.688919544219971 8.618159294128418 4.309079647064209 8.618159294128418 C 1.929239749908447 8.618159294128418 0 6.688919544219971 0 4.309079647064209 C 0 1.929239749908447 1.929239749908447 0 4.309079647064209 0 Z" stroke="none" fill="#12263f"/>
    </g>
    <g id="Trazado_705206" data-name="Trazado 705206" transform="translate(291.927 10737.151)" fill="#ff8578">
      <path d="M 4.309079647064209 8.118159294128418 C 2.208749532699585 8.118159294128418 0.4999996423721313 6.409409523010254 0.4999996423721313 4.309079647064209 C 0.4999996423721313 2.208749532699585 2.208749532699585 0.4999996423721313 4.309079647064209 0.4999996423721313 C 6.409409523010254 0.4999996423721313 8.118159294128418 2.208749532699585 8.118159294128418 4.309079647064209 C 8.118159294128418 6.409409523010254 6.409409523010254 8.118159294128418 4.309079647064209 8.118159294128418 Z" stroke="none"/>
      <path d="M 4.309079647064209 0.9999995231628418 C 2.484449863433838 0.9999995231628418 0.9999995231628418 2.484449863433838 0.9999995231628418 4.309079647064209 C 0.9999995231628418 6.133709907531738 2.484449863433838 7.618159770965576 4.309079647064209 7.618159770965576 C 6.133709907531738 7.618159770965576 7.618159770965576 6.133709907531738 7.618159770965576 4.309079647064209 C 7.618159770965576 2.484449863433838 6.133709907531738 0.9999995231628418 4.309079647064209 0.9999995231628418 M 4.309079647064209 0 C 6.688919544219971 0 8.618159294128418 1.929239749908447 8.618159294128418 4.309079647064209 C 8.618159294128418 6.688919544219971 6.688919544219971 8.618159294128418 4.309079647064209 8.618159294128418 C 1.929239749908447 8.618159294128418 0 6.688919544219971 0 4.309079647064209 C 0 1.929239749908447 1.929239749908447 0 4.309079647064209 0 Z" stroke="none" fill="#12263f"/>
    </g>
    <g id="Trazado_705207" data-name="Trazado 705207" transform="translate(316.824 10712.254)" fill="#ff8578">
      <path d="M 4.309079647064209 8.118159294128418 C 2.208749532699585 8.118159294128418 0.4999996423721313 6.409409523010254 0.4999996423721313 4.309079647064209 C 0.4999996423721313 2.208749532699585 2.208749532699585 0.4999996423721313 4.309079647064209 0.4999996423721313 C 6.409409523010254 0.4999996423721313 8.118159294128418 2.208749532699585 8.118159294128418 4.309079647064209 C 8.118159294128418 6.409409523010254 6.409409523010254 8.118159294128418 4.309079647064209 8.118159294128418 Z" stroke="none"/>
      <path d="M 4.309079647064209 0.9999995231628418 C 2.484449863433838 0.9999995231628418 0.9999995231628418 2.484449863433838 0.9999995231628418 4.309079647064209 C 0.9999995231628418 6.133709907531738 2.484449863433838 7.618159770965576 4.309079647064209 7.618159770965576 C 6.133709907531738 7.618159770965576 7.618159770965576 6.133709907531738 7.618159770965576 4.309079647064209 C 7.618159770965576 2.484449863433838 6.133709907531738 0.9999995231628418 4.309079647064209 0.9999995231628418 M 4.309079647064209 0 C 6.688919544219971 0 8.618159294128418 1.929239749908447 8.618159294128418 4.309079647064209 C 8.618159294128418 6.688919544219971 6.688919544219971 8.618159294128418 4.309079647064209 8.618159294128418 C 1.929239749908447 8.618159294128418 0 6.688919544219971 0 4.309079647064209 C 0 1.929239749908447 1.929239749908447 0 4.309079647064209 0 Z" stroke="none" fill="#12263f"/>
    </g>
    <g id="Trazado_705208" data-name="Trazado 705208" transform="translate(339.806 10712.254)" fill="#ff8578">
      <path d="M 4.309079647064209 8.118159294128418 C 2.208749532699585 8.118159294128418 0.4999996423721313 6.409409523010254 0.4999996423721313 4.309079647064209 C 0.4999996423721313 2.208749532699585 2.208749532699585 0.4999996423721313 4.309079647064209 0.4999996423721313 C 6.409409523010254 0.4999996423721313 8.118159294128418 2.208749532699585 8.118159294128418 4.309079647064209 C 8.118159294128418 6.409409523010254 6.409409523010254 8.118159294128418 4.309079647064209 8.118159294128418 Z" stroke="none"/>
      <path d="M 4.309079647064209 0.9999995231628418 C 2.484449863433838 0.9999995231628418 0.9999995231628418 2.484449863433838 0.9999995231628418 4.309079647064209 C 0.9999995231628418 6.133709907531738 2.484449863433838 7.618159770965576 4.309079647064209 7.618159770965576 C 6.133709907531738 7.618159770965576 7.618159770965576 6.133709907531738 7.618159770965576 4.309079647064209 C 7.618159770965576 2.484449863433838 6.133709907531738 0.9999995231628418 4.309079647064209 0.9999995231628418 M 4.309079647064209 0 C 6.688919544219971 0 8.618159294128418 1.929239749908447 8.618159294128418 4.309079647064209 C 8.618159294128418 6.688919544219971 6.688919544219971 8.618159294128418 4.309079647064209 8.618159294128418 C 1.929239749908447 8.618159294128418 0 6.688919544219971 0 4.309079647064209 C 0 1.929239749908447 1.929239749908447 0 4.309079647064209 0 Z" stroke="none" fill="#12263f"/>
    </g>
    <g id="Trazado_705209" data-name="Trazado 705209" transform="translate(365.66 10712.254)" fill="#ff8578">
      <path d="M 4.309079647064209 8.118159294128418 C 2.208749532699585 8.118159294128418 0.4999996423721313 6.409409523010254 0.4999996423721313 4.309079647064209 C 0.4999996423721313 2.208749532699585 2.208749532699585 0.4999996423721313 4.309079647064209 0.4999996423721313 C 6.409409523010254 0.4999996423721313 8.118159294128418 2.208749532699585 8.118159294128418 4.309079647064209 C 8.118159294128418 6.409409523010254 6.409409523010254 8.118159294128418 4.309079647064209 8.118159294128418 Z" stroke="none"/>
      <path d="M 4.309079647064209 0.9999995231628418 C 2.484449863433838 0.9999995231628418 0.9999995231628418 2.484449863433838 0.9999995231628418 4.309079647064209 C 0.9999995231628418 6.133709907531738 2.484449863433838 7.618159770965576 4.309079647064209 7.618159770965576 C 6.133709907531738 7.618159770965576 7.618159770965576 6.133709907531738 7.618159770965576 4.309079647064209 C 7.618159770965576 2.484449863433838 6.133709907531738 0.9999995231628418 4.309079647064209 0.9999995231628418 M 4.309079647064209 0 C 6.688919544219971 0 8.618159294128418 1.929239749908447 8.618159294128418 4.309079647064209 C 8.618159294128418 6.688919544219971 6.688919544219971 8.618159294128418 4.309079647064209 8.618159294128418 C 1.929239749908447 8.618159294128418 0 6.688919544219971 0 4.309079647064209 C 0 1.929239749908447 1.929239749908447 0 4.309079647064209 0 Z" stroke="none" fill="#12263f"/>
    </g>
    <g id="Trazado_705210" data-name="Trazado 705210" transform="translate(391.515 10712.254)" fill="#ff8578">
      <path d="M 4.309079647064209 8.118159294128418 C 2.208749532699585 8.118159294128418 0.4999996423721313 6.409409523010254 0.4999996423721313 4.309079647064209 C 0.4999996423721313 2.208749532699585 2.208749532699585 0.4999996423721313 4.309079647064209 0.4999996423721313 C 6.409409523010254 0.4999996423721313 8.118159294128418 2.208749532699585 8.118159294128418 4.309079647064209 C 8.118159294128418 6.409409523010254 6.409409523010254 8.118159294128418 4.309079647064209 8.118159294128418 Z" stroke="none"/>
      <path d="M 4.309079647064209 0.9999995231628418 C 2.484449863433838 0.9999995231628418 0.9999995231628418 2.484449863433838 0.9999995231628418 4.309079647064209 C 0.9999995231628418 6.133709907531738 2.484449863433838 7.618159770965576 4.309079647064209 7.618159770965576 C 6.133709907531738 7.618159770965576 7.618159770965576 6.133709907531738 7.618159770965576 4.309079647064209 C 7.618159770965576 2.484449863433838 6.133709907531738 0.9999995231628418 4.309079647064209 0.9999995231628418 M 4.309079647064209 0 C 6.688919544219971 0 8.618159294128418 1.929239749908447 8.618159294128418 4.309079647064209 C 8.618159294128418 6.688919544219971 6.688919544219971 8.618159294128418 4.309079647064209 8.618159294128418 C 1.929239749908447 8.618159294128418 0 6.688919544219971 0 4.309079647064209 C 0 1.929239749908447 1.929239749908447 0 4.309079647064209 0 Z" stroke="none" fill="#12263f"/>
    </g>
    <g id="Trazado_705211" data-name="Trazado 705211" transform="translate(365.66 10663.418)" fill="#ff8578">
      <path d="M 4.309079647064209 8.118159294128418 C 2.208749532699585 8.118159294128418 0.4999996423721313 6.409409523010254 0.4999996423721313 4.309079647064209 C 0.4999996423721313 2.208749532699585 2.208749532699585 0.4999996423721313 4.309079647064209 0.4999996423721313 C 6.409409523010254 0.4999996423721313 8.118159294128418 2.208749532699585 8.118159294128418 4.309079647064209 C 8.118159294128418 6.409409523010254 6.409409523010254 8.118159294128418 4.309079647064209 8.118159294128418 Z" stroke="none"/>
      <path d="M 4.309079647064209 0.9999995231628418 C 2.484449863433838 0.9999995231628418 0.9999995231628418 2.484449863433838 0.9999995231628418 4.309079647064209 C 0.9999995231628418 6.133709907531738 2.484449863433838 7.618159770965576 4.309079647064209 7.618159770965576 C 6.133709907531738 7.618159770965576 7.618159770965576 6.133709907531738 7.618159770965576 4.309079647064209 C 7.618159770965576 2.484449863433838 6.133709907531738 0.9999995231628418 4.309079647064209 0.9999995231628418 M 4.309079647064209 0 C 6.688919544219971 0 8.618159294128418 1.929239749908447 8.618159294128418 4.309079647064209 C 8.618159294128418 6.688919544219971 6.688919544219971 8.618159294128418 4.309079647064209 8.618159294128418 C 1.929239749908447 8.618159294128418 0 6.688919544219971 0 4.309079647064209 C 0 1.929239749908447 1.929239749908447 0 4.309079647064209 0 Z" stroke="none" fill="#12263f"/>
    </g>
    <g id="Trazado_705212" data-name="Trazado 705212" transform="translate(391.515 10663.418)" fill="#ff8578">
      <path d="M 4.309079647064209 8.118159294128418 C 2.208749532699585 8.118159294128418 0.4999996423721313 6.409409523010254 0.4999996423721313 4.309079647064209 C 0.4999996423721313 2.208749532699585 2.208749532699585 0.4999996423721313 4.309079647064209 0.4999996423721313 C 6.409409523010254 0.4999996423721313 8.118159294128418 2.208749532699585 8.118159294128418 4.309079647064209 C 8.118159294128418 6.409409523010254 6.409409523010254 8.118159294128418 4.309079647064209 8.118159294128418 Z" stroke="none"/>
      <path d="M 4.309079647064209 0.9999995231628418 C 2.484449863433838 0.9999995231628418 0.9999995231628418 2.484449863433838 0.9999995231628418 4.309079647064209 C 0.9999995231628418 6.133709907531738 2.484449863433838 7.618159770965576 4.309079647064209 7.618159770965576 C 6.133709907531738 7.618159770965576 7.618159770965576 6.133709907531738 7.618159770965576 4.309079647064209 C 7.618159770965576 2.484449863433838 6.133709907531738 0.9999995231628418 4.309079647064209 0.9999995231628418 M 4.309079647064209 0 C 6.688919544219971 0 8.618159294128418 1.929239749908447 8.618159294128418 4.309079647064209 C 8.618159294128418 6.688919544219971 6.688919544219971 8.618159294128418 4.309079647064209 8.618159294128418 C 1.929239749908447 8.618159294128418 0 6.688919544219971 0 4.309079647064209 C 0 1.929239749908447 1.929239749908447 0 4.309079647064209 0 Z" stroke="none" fill="#12263f"/>
    </g>
    <g id="Trazado_705213" data-name="Trazado 705213" transform="translate(414.496 10638.521)" fill="#ff8578">
      <path d="M 4.309079647064209 8.118159294128418 C 2.208749532699585 8.118159294128418 0.4999996423721313 6.409409523010254 0.4999996423721313 4.309079647064209 C 0.4999996423721313 2.208749532699585 2.208749532699585 0.4999996423721313 4.309079647064209 0.4999996423721313 C 6.409409523010254 0.4999996423721313 8.118159294128418 2.208749532699585 8.118159294128418 4.309079647064209 C 8.118159294128418 6.409409523010254 6.409409523010254 8.118159294128418 4.309079647064209 8.118159294128418 Z" stroke="none"/>
      <path d="M 4.309079647064209 0.9999995231628418 C 2.484449863433838 0.9999995231628418 0.9999995231628418 2.484449863433838 0.9999995231628418 4.309079647064209 C 0.9999995231628418 6.133709907531738 2.484449863433838 7.618159770965576 4.309079647064209 7.618159770965576 C 6.133709907531738 7.618159770965576 7.618159770965576 6.133709907531738 7.618159770965576 4.309079647064209 C 7.618159770965576 2.484449863433838 6.133709907531738 0.9999995231628418 4.309079647064209 0.9999995231628418 M 4.309079647064209 0 C 6.688919544219971 0 8.618159294128418 1.929239749908447 8.618159294128418 4.309079647064209 C 8.618159294128418 6.688919544219971 6.688919544219971 8.618159294128418 4.309079647064209 8.618159294128418 C 1.929239749908447 8.618159294128418 0 6.688919544219971 0 4.309079647064209 C 0 1.929239749908447 1.929239749908447 0 4.309079647064209 0 Z" stroke="none" fill="#12263f"/>
    </g>
    <g id="Trazado_705214" data-name="Trazado 705214" transform="translate(462.375 10591.6)" fill="#ff8578">
      <path d="M 4.787866115570068 8.118159294128418 C 2.423526048660278 8.118159294128418 0.4999961256980896 6.409409523010254 0.4999961256980896 4.309079647064209 C 0.4999961256980896 2.208749532699585 2.423526048660278 0.4999996423721313 4.787866115570068 0.4999996423721313 C 7.152205944061279 0.4999996423721313 9.075736045837402 2.208749532699585 9.075736045837402 4.309079647064209 C 9.075736045837402 6.409409523010254 7.152205944061279 8.118159294128418 4.787866115570068 8.118159294128418 Z" stroke="none"/>
      <path d="M 4.787866115570068 0.9999995231628418 C 2.699225902557373 0.9999995231628418 0.9999961853027344 2.484449863433838 0.9999961853027344 4.309079647064209 C 0.9999961853027344 6.133709907531738 2.699225902557373 7.618159770965576 4.787866115570068 7.618159770965576 C 6.876505851745605 7.618159770965576 8.575736045837402 6.133709907531738 8.575736045837402 4.309079647064209 C 8.575736045837402 2.484449863433838 6.876505851745605 0.9999995231628418 4.787866115570068 0.9999995231628418 M 4.787866115570068 0 C 7.432136058807373 0 9.575736045837402 1.929239749908447 9.575736045837402 4.309079647064209 C 9.575736045837402 6.688919544219971 7.432136058807373 8.618159294128418 4.787866115570068 8.618159294128418 C 2.143596172332764 8.618159294128418 -3.814697265625e-06 6.688919544219971 -3.814697265625e-06 4.309079647064209 C -3.814697265625e-06 1.929239749908447 2.143596172332764 0 4.787866115570068 0 Z" stroke="none" fill="#12263f"/>
    </g>
    <g id="Trazado_705215" data-name="Trazado 705215" transform="translate(462.375 10566.703)" fill="#ff8578">
      <path d="M 4.787866115570068 8.118159294128418 C 2.423526048660278 8.118159294128418 0.4999961256980896 6.409409523010254 0.4999961256980896 4.309079647064209 C 0.4999961256980896 2.208749532699585 2.423526048660278 0.4999996423721313 4.787866115570068 0.4999996423721313 C 7.152205944061279 0.4999996423721313 9.075736045837402 2.208749532699585 9.075736045837402 4.309079647064209 C 9.075736045837402 6.409409523010254 7.152205944061279 8.118159294128418 4.787866115570068 8.118159294128418 Z" stroke="none"/>
      <path d="M 4.787866115570068 0.9999995231628418 C 2.699225902557373 0.9999995231628418 0.9999961853027344 2.484449863433838 0.9999961853027344 4.309079647064209 C 0.9999961853027344 6.133709907531738 2.699225902557373 7.618159770965576 4.787866115570068 7.618159770965576 C 6.876505851745605 7.618159770965576 8.575736045837402 6.133709907531738 8.575736045837402 4.309079647064209 C 8.575736045837402 2.484449863433838 6.876505851745605 0.9999995231628418 4.787866115570068 0.9999995231628418 M 4.787866115570068 0 C 7.432136058807373 0 9.575736045837402 1.929239749908447 9.575736045837402 4.309079647064209 C 9.575736045837402 6.688919544219971 7.432136058807373 8.618159294128418 4.787866115570068 8.618159294128418 C 2.143596172332764 8.618159294128418 -3.814697265625e-06 6.688919544219971 -3.814697265625e-06 4.309079647064209 C -3.814697265625e-06 1.929239749908447 2.143596172332764 0 4.787866115570068 0 Z" stroke="none" fill="#12263f"/>
    </g>
  </g>
</svg>
