<svg xmlns="http://www.w3.org/2000/svg" width="252" height="81" viewBox="0 0 252 81">
  <g id="Grupo_974138" data-name="Grupo 974138" transform="translate(-642.995 -1048.762)">
    <rect id="Rectángulo_339735" data-name="Rectángulo 339735" width="252" height="81" rx="10" transform="translate(642.995 1048.762)" fill="#7125c8"/>
    <path id="Trazado_705314" data-name="Trazado 705314" d="M12.811-3.719H6.234L5.086,0H-.041l7.3-19.906h4.512L19.127,0H13.973ZM7.383-7.424h4.279l-2.146-6.9ZM45.363,0H40.947V-11.539q0-4.594-4.2-4.594-4.266,0-4.266,4.758V0h-4.43V-11.32q0-8.627,8.531-8.627,8.777,0,8.777,8.832ZM55.85,0V-19.906H63A10.125,10.125,0,0,1,68.845-18.5a4.686,4.686,0,0,1,2,4.088,4.736,4.736,0,0,1-.711,2.639,4.143,4.143,0,0,1-2.092,1.613,4.2,4.2,0,0,1,2.393,1.531,4.452,4.452,0,0,1,.834,2.734,5.271,5.271,0,0,1-1.853,4.4A8.816,8.816,0,0,1,63.93,0Zm4.8-8.463v4.771h3.145a2.991,2.991,0,0,0,2-.595,2.081,2.081,0,0,0,.7-1.675,2.207,2.207,0,0,0-2.475-2.5Zm0-3.145h2.5a3.555,3.555,0,0,0,2.242-.576,2.043,2.043,0,0,0,.67-1.659,2.146,2.146,0,0,0-.725-1.817A3.879,3.879,0,0,0,63-16.215H60.648ZM93.789-9.871H81.129v-3.555h12.66Zm0,6H81.129V-7.424h12.66Zm27.467-5.674a11.739,11.739,0,0,1-1.08,5.154,7.983,7.983,0,0,1-3.069,3.452,8.547,8.547,0,0,1-4.532,1.21,8.8,8.8,0,0,1-3.992-.889L107.475,1.3h-2.83l1.928-3.35q-2.721-2.721-2.721-7.6v-.7a11.779,11.779,0,0,1,1.073-5.168,8,8,0,0,1,3.063-3.445,8.561,8.561,0,0,1,4.56-1.217,8.762,8.762,0,0,1,3.924.875l.834-1.449h2.844l-1.654,2.885q2.762,2.734,2.762,7.629Zm-4.881-.834a10.9,10.9,0,0,0-.4-3.131l-5.414,9.42a3.254,3.254,0,0,0,2.01.615,3.132,3.132,0,0,0,2.81-1.545,8.422,8.422,0,0,0,.991-4.443Zm-7.656.834a11.356,11.356,0,0,0,.369,3.1l5.387-9.393a3.222,3.222,0,0,0-1.928-.588,3.158,3.158,0,0,0-2.857,1.518,8.479,8.479,0,0,0-.971,4.443Z" transform="translate(705.995 1099.762)" fill="#fff"/>
  </g>
</svg>
