<svg xmlns="http://www.w3.org/2000/svg" width="378.172" height="269" viewBox="0 0 378.172 269">
  <g id="Grupo_169195" data-name="Grupo 169195" transform="translate(6253.172 9219.379)">
    <path id="Trazado_705029" data-name="Trazado 705029" d="M4.983,0H3.712V-8.429l-2.55.937V-8.641L4.785-10h.2Z" transform="translate(-6236.172 -9132.92)" fill="#12263f"/>
    <path id="Trazado_705030" data-name="Trazado 705030" d="M7.349,0H.827V-.909L4.272-4.737A8.185,8.185,0,0,0,5.329-6.149a2.356,2.356,0,0,0,.291-1.125,1.786,1.786,0,0,0-.472-1.278,1.649,1.649,0,0,0-1.258-.5,1.953,1.953,0,0,0-1.466.537A2.05,2.05,0,0,0,1.9-7.021H.636a2.936,2.936,0,0,1,.885-2.222A3.282,3.282,0,0,1,3.89-10.09a3.153,3.153,0,0,1,2.194.728,2.483,2.483,0,0,1,.807,1.938q0,1.47-1.873,3.5L2.352-1.032h5Z" transform="translate(-6214.172 -9132.92)" fill="#12263f"/>
    <path id="Trazado_705031" data-name="Trazado 705031" d="M6.166-3.343H7.547v1.032H6.166V0H4.895V-2.311H.362v-.745l4.457-6.9H6.166Zm-4.368,0h3.1V-8.224l-.15.273Z" transform="translate(-6164.656 -9132.92)" fill="#12263f"/>
    <path id="Trazado_705032" data-name="Trazado 705032" d="M2.666-5.592h.95a2.088,2.088,0,0,0,1.408-.472A1.576,1.576,0,0,0,5.537-7.3a1.544,1.544,0,0,0-1.743-1.75,1.813,1.813,0,0,0-1.309.468A1.639,1.639,0,0,0,2-7.342H.731A2.539,2.539,0,0,1,1.6-9.307a3.15,3.15,0,0,1,2.2-.783A3.113,3.113,0,0,1,6-9.345a2.692,2.692,0,0,1,.8,2.071,2.185,2.185,0,0,1-.42,1.258,2.538,2.538,0,0,1-1.145.909A2.446,2.446,0,0,1,6.5-4.245a2.392,2.392,0,0,1,.448,1.47A2.715,2.715,0,0,1,6.077-.649,3.277,3.277,0,0,1,3.8.137a3.363,3.363,0,0,1-2.28-.759,2.517,2.517,0,0,1-.878-2H1.914a1.627,1.627,0,0,0,.513,1.258A1.95,1.95,0,0,0,3.8-.9a1.914,1.914,0,0,0,1.4-.479,1.844,1.844,0,0,0,.485-1.374,1.673,1.673,0,0,0-.533-1.333A2.323,2.323,0,0,0,3.616-4.56h-.95Z" transform="translate(-6187.656 -9132.92)" fill="#12263f"/>
    <path id="Trazado_705033" data-name="Trazado 705033" d="M7.068-4.245a5.784,5.784,0,0,1-.759,3.3A2.7,2.7,0,0,1,3.938.137,2.718,2.718,0,0,1,1.579-.919,5.49,5.49,0,0,1,.786-4.074V-5.763a5.655,5.655,0,0,1,.759-3.261A2.719,2.719,0,0,1,3.924-10.09,2.744,2.744,0,0,1,6.289-9.061a5.458,5.458,0,0,1,.779,3.175ZM5.8-5.975a4.634,4.634,0,0,0-.451-2.341,1.553,1.553,0,0,0-1.429-.735,1.532,1.532,0,0,0-1.415.731A4.525,4.525,0,0,0,2.051-6.07v2.023a4.708,4.708,0,0,0,.468,2.382A1.55,1.55,0,0,0,3.938-.9,1.529,1.529,0,0,0,5.329-1.62,4.538,4.538,0,0,0,5.8-3.9Z" transform="translate(-6149 -8994.92)" fill="#12263f"/>
    <path id="Trazado_705034" data-name="Trazado 705034" d="M4.983,0H3.712V-8.429l-2.55.937V-8.641L4.785-10h.2Z" transform="translate(-6125 -8994.92)" fill="#12263f"/>
    <path id="Trazado_705035" data-name="Trazado 705035" d="M7.349,0H.827V-.909L4.272-4.737A8.185,8.185,0,0,0,5.329-6.149a2.356,2.356,0,0,0,.291-1.125,1.786,1.786,0,0,0-.472-1.278,1.649,1.649,0,0,0-1.258-.5,1.953,1.953,0,0,0-1.466.537A2.05,2.05,0,0,0,1.9-7.021H.636a2.936,2.936,0,0,1,.885-2.222A3.282,3.282,0,0,1,3.89-10.09a3.153,3.153,0,0,1,2.194.728,2.483,2.483,0,0,1,.807,1.938q0,1.47-1.873,3.5L2.352-1.032h5Z" transform="translate(-6097 -8994.92)" fill="#12263f"/>
    <path id="Trazado_705036" data-name="Trazado 705036" d="M2.666-5.592h.95a2.088,2.088,0,0,0,1.408-.472A1.576,1.576,0,0,0,5.537-7.3a1.544,1.544,0,0,0-1.743-1.75,1.813,1.813,0,0,0-1.309.468A1.639,1.639,0,0,0,2-7.342H.731A2.539,2.539,0,0,1,1.6-9.307a3.15,3.15,0,0,1,2.2-.783A3.113,3.113,0,0,1,6-9.345a2.692,2.692,0,0,1,.8,2.071,2.185,2.185,0,0,1-.42,1.258,2.538,2.538,0,0,1-1.145.909A2.446,2.446,0,0,1,6.5-4.245a2.392,2.392,0,0,1,.448,1.47A2.715,2.715,0,0,1,6.077-.649,3.277,3.277,0,0,1,3.8.137a3.363,3.363,0,0,1-2.28-.759,2.517,2.517,0,0,1-.878-2H1.914a1.627,1.627,0,0,0,.513,1.258A1.95,1.95,0,0,0,3.8-.9a1.914,1.914,0,0,0,1.4-.479,1.844,1.844,0,0,0,.485-1.374,1.673,1.673,0,0,0-.533-1.333A2.323,2.323,0,0,0,3.616-4.56h-.95Z" transform="translate(-6073 -8994.92)" fill="#12263f"/>
    <path id="Trazado_705037" data-name="Trazado 705037" d="M6.166-3.343H7.547v1.032H6.166V0H4.895V-2.311H.362v-.745l4.457-6.9H6.166Zm-4.368,0h3.1V-8.224l-.15.273Z" transform="translate(-6049 -8994.92)" fill="#12263f"/>
    <path id="Trazado_705038" data-name="Trazado 705038" d="M1.408-4.99l.506-4.963h5.1v1.169H2.987l-.3,2.714A3.212,3.212,0,0,1,4.348-6.5a2.746,2.746,0,0,1,2.16.9,3.523,3.523,0,0,1,.8,2.43A3.4,3.4,0,0,1,6.477-.749,3.027,3.027,0,0,1,4.156.137,3.146,3.146,0,0,1,2-.595a2.919,2.919,0,0,1-.95-2.023h1.2A2.009,2.009,0,0,0,2.857-1.33a1.892,1.892,0,0,0,1.3.434,1.706,1.706,0,0,0,1.384-.6,2.515,2.515,0,0,0,.5-1.661,2.308,2.308,0,0,0-.543-1.6,1.849,1.849,0,0,0-1.446-.6A2.085,2.085,0,0,0,2.755-5L2.42-4.73Z" transform="translate(-6021 -8994.92)" fill="#12263f"/>
    <path id="Trazado_705039" data-name="Trazado 705039" d="M5.79-9.96v1.073H5.558a3.33,3.33,0,0,0-2.352.875A3.641,3.641,0,0,0,2.194-5.626a2.7,2.7,0,0,1,2.146-.9,2.581,2.581,0,0,1,2.075.916,3.533,3.533,0,0,1,.776,2.365A3.522,3.522,0,0,1,6.354-.786,2.883,2.883,0,0,1,4.108.137,2.841,2.841,0,0,1,1.791-.96,4.348,4.348,0,0,1,.9-3.787v-.485a6.552,6.552,0,0,1,1.172-4.2A4.306,4.306,0,0,1,5.564-9.96ZM4.129-5.476a2.018,2.018,0,0,0-1.2.39,2.03,2.03,0,0,0-.759.978v.465a3.265,3.265,0,0,0,.554,1.982,1.659,1.659,0,0,0,1.381.752,1.608,1.608,0,0,0,1.343-.629A2.61,2.61,0,0,0,5.94-3.186a2.61,2.61,0,0,0-.5-1.658A1.589,1.589,0,0,0,4.129-5.476Z" transform="translate(-5999.688 -8994.92)" fill="#12263f"/>
    <path id="Trazado_705040" data-name="Trazado 705040" d="M1.408-4.99l.506-4.963h5.1v1.169H2.987l-.3,2.714A3.212,3.212,0,0,1,4.348-6.5a2.746,2.746,0,0,1,2.16.9,3.523,3.523,0,0,1,.8,2.43A3.4,3.4,0,0,1,6.477-.749,3.027,3.027,0,0,1,4.156.137,3.146,3.146,0,0,1,2-.595a2.919,2.919,0,0,1-.95-2.023h1.2A2.009,2.009,0,0,0,2.857-1.33a1.892,1.892,0,0,0,1.3.434,1.706,1.706,0,0,0,1.384-.6,2.515,2.515,0,0,0,.5-1.661,2.308,2.308,0,0,0-.543-1.6,1.849,1.849,0,0,0-1.446-.6A2.085,2.085,0,0,0,2.755-5L2.42-4.73Z" transform="translate(-6142.656 -9132.92)" fill="#12263f"/>
    <path id="Trazado_705041" data-name="Trazado 705041" d="M5.79-9.96v1.073H5.558a3.33,3.33,0,0,0-2.352.875A3.641,3.641,0,0,0,2.194-5.626a2.7,2.7,0,0,1,2.146-.9,2.581,2.581,0,0,1,2.075.916,3.533,3.533,0,0,1,.776,2.365A3.522,3.522,0,0,1,6.354-.786,2.883,2.883,0,0,1,4.108.137,2.841,2.841,0,0,1,1.791-.96,4.348,4.348,0,0,1,.9-3.787v-.485a6.552,6.552,0,0,1,1.172-4.2A4.306,4.306,0,0,1,5.564-9.96ZM4.129-5.476a2.018,2.018,0,0,0-1.2.39,2.03,2.03,0,0,0-.759.978v.465a3.265,3.265,0,0,0,.554,1.982,1.659,1.659,0,0,0,1.381.752,1.608,1.608,0,0,0,1.343-.629A2.61,2.61,0,0,0,5.94-3.186a2.61,2.61,0,0,0-.5-1.658A1.589,1.589,0,0,0,4.129-5.476Z" transform="translate(-6120.656 -9132.92)" fill="#12263f"/>
    <path id="Trazado_705042" data-name="Trazado 705042" d="M7.253-9.242,3.131,0H1.8L5.913-8.914H.526V-9.953H7.253Z" transform="translate(-6098.656 -9132.92)" fill="#12263f"/>
    <path id="Trazado_705043" data-name="Trazado 705043" d="M6.863-7.355A2.311,2.311,0,0,1,6.47-6.029a2.674,2.674,0,0,1-1.063.909,2.853,2.853,0,0,1,1.234.978A2.46,2.46,0,0,1,7.1-2.687,2.6,2.6,0,0,1,6.224-.629,3.349,3.349,0,0,1,3.931.137a3.334,3.334,0,0,1-2.3-.769A2.613,2.613,0,0,1,.766-2.687a2.533,2.533,0,0,1,.441-1.456,2.744,2.744,0,0,1,1.22-.984,2.608,2.608,0,0,1-1.046-.909A2.344,2.344,0,0,1,1-7.355a2.573,2.573,0,0,1,.807-2,3.026,3.026,0,0,1,2.126-.738,3.029,3.029,0,0,1,2.123.738A2.567,2.567,0,0,1,6.863-7.355ZM5.831-2.714a1.834,1.834,0,0,0-.53-1.36A1.879,1.879,0,0,0,3.917-4.6a1.846,1.846,0,0,0-1.371.52A1.855,1.855,0,0,0,2.03-2.714a1.767,1.767,0,0,0,.5,1.333,1.929,1.929,0,0,0,1.4.485,1.923,1.923,0,0,0,1.395-.489A1.763,1.763,0,0,0,5.831-2.714Zm-1.9-6.337a1.632,1.632,0,0,0-1.207.461,1.7,1.7,0,0,0-.461,1.254,1.687,1.687,0,0,0,.455,1.227,1.613,1.613,0,0,0,1.213.468,1.613,1.613,0,0,0,1.213-.468A1.687,1.687,0,0,0,5.6-7.335a1.687,1.687,0,0,0-.472-1.237A1.609,1.609,0,0,0,3.931-9.051Z" transform="translate(-6073 -9132.92)" fill="#12263f"/>
    <path id="Trazado_705044" data-name="Trazado 705044" d="M5.674-4.375a3.094,3.094,0,0,1-.947.759,2.569,2.569,0,0,1-1.207.287,2.652,2.652,0,0,1-1.5-.424,2.755,2.755,0,0,1-.988-1.193,4.067,4.067,0,0,1-.349-1.7,4.143,4.143,0,0,1,.379-1.8A2.787,2.787,0,0,1,2.14-9.666a3.07,3.07,0,0,1,1.627-.424,2.78,2.78,0,0,1,2.328,1.1,4.815,4.815,0,0,1,.851,3.011v.369A6.434,6.434,0,0,1,5.8-1.364,4.412,4.412,0,0,1,2.331.007H2.085V-1.066h.267a3.482,3.482,0,0,0,2.406-.815A3.5,3.5,0,0,0,5.674-4.375Zm-1.948,0A1.953,1.953,0,0,0,4.9-4.765a2.3,2.3,0,0,0,.783-.964v-.506a3.48,3.48,0,0,0-.54-2.023,1.611,1.611,0,0,0-1.367-.779,1.624,1.624,0,0,0-1.34.639,2.637,2.637,0,0,0-.506,1.685,2.744,2.744,0,0,0,.489,1.678A1.548,1.548,0,0,0,3.726-4.375Z" transform="translate(-6051 -9132.92)" fill="#12263f"/>
    <path id="Trazado_705045" data-name="Trazado 705045" d="M4.983,0H3.712V-8.429l-2.55.937V-8.641L4.785-10h.2ZM14.93-4.245a5.784,5.784,0,0,1-.759,3.3A2.7,2.7,0,0,1,11.8.137,2.718,2.718,0,0,1,9.44-.919a5.49,5.49,0,0,1-.793-3.155V-5.763a5.655,5.655,0,0,1,.759-3.261,2.719,2.719,0,0,1,2.379-1.066A2.744,2.744,0,0,1,14.15-9.061a5.458,5.458,0,0,1,.779,3.175ZM13.665-5.975a4.634,4.634,0,0,0-.451-2.341,1.553,1.553,0,0,0-1.429-.735,1.532,1.532,0,0,0-1.415.731A4.525,4.525,0,0,0,9.912-6.07v2.023a4.708,4.708,0,0,0,.468,2.382A1.55,1.55,0,0,0,11.8-.9,1.529,1.529,0,0,0,13.19-1.62,4.538,4.538,0,0,0,13.665-3.9Z" transform="translate(-6025.344 -9132.92)" fill="#12263f"/>
    <path id="Trazado_705046" data-name="Trazado 705046" d="M4.983,0H3.712V-8.429l-2.55.937V-8.641L4.785-10h.2Zm7.861,0H11.573V-8.429l-2.55.937V-8.641L12.646-10h.2Z" transform="translate(-5991.688 -9132.92)" fill="#12263f"/>
    <path id="Trazado_705047" data-name="Trazado 705047" d="M4.983,0H3.712V-8.429l-2.55.937V-8.641L4.785-10h.2ZM15.21,0H8.688V-.909l3.445-3.828A8.185,8.185,0,0,0,13.19-6.149a2.356,2.356,0,0,0,.291-1.125,1.786,1.786,0,0,0-.472-1.278,1.649,1.649,0,0,0-1.258-.5,1.953,1.953,0,0,0-1.466.537,2.05,2.05,0,0,0-.523,1.494H8.5a2.936,2.936,0,0,1,.885-2.222,3.282,3.282,0,0,1,2.369-.848,3.153,3.153,0,0,1,2.194.728,2.483,2.483,0,0,1,.807,1.938q0,1.47-1.873,3.5L10.213-1.032h5Z" transform="translate(-5961.688 -9132.92)" fill="#12263f"/>
    <path id="Trazado_705048" data-name="Trazado 705048" d="M4.983,0H3.712V-8.429l-2.55.937V-8.641L4.785-10h.2Zm5.544-5.592h.95a2.088,2.088,0,0,0,1.408-.472A1.576,1.576,0,0,0,13.4-7.3a1.544,1.544,0,0,0-1.743-1.75,1.813,1.813,0,0,0-1.309.468,1.639,1.639,0,0,0-.489,1.241H8.593a2.539,2.539,0,0,1,.865-1.965,3.15,3.15,0,0,1,2.2-.783,3.113,3.113,0,0,1,2.208.745,2.692,2.692,0,0,1,.8,2.071,2.185,2.185,0,0,1-.42,1.258,2.538,2.538,0,0,1-1.145.909,2.446,2.446,0,0,1,1.268.861,2.392,2.392,0,0,1,.448,1.47,2.715,2.715,0,0,1-.875,2.126,3.277,3.277,0,0,1-2.276.786,3.363,3.363,0,0,1-2.28-.759,2.517,2.517,0,0,1-.878-2H9.775a1.627,1.627,0,0,0,.513,1.258A1.95,1.95,0,0,0,11.662-.9a1.914,1.914,0,0,0,1.4-.479,1.844,1.844,0,0,0,.485-1.374,1.673,1.673,0,0,0-.533-1.333,2.323,2.323,0,0,0-1.538-.479h-.95Z" transform="translate(-5931.688 -9132.92)" fill="#12263f"/>
    <path id="Trazado_705049" data-name="Trazado 705049" d="M4.983,0H3.712V-8.429l-2.55.937V-8.641L4.785-10h.2Zm9.044-3.343h1.381v1.032H14.027V0H12.756V-2.311H8.224v-.745l4.457-6.9h1.347Zm-4.368,0h3.1V-8.224l-.15.273Z" transform="translate(-5898.033 -9132.92)" fill="#12263f"/>
    <g id="Trazado_705050" data-name="Trazado 705050" transform="translate(-6244 -9175.379)" fill="#ece3ff">
      <path d="M 11 21.5 C 5.210279941558838 21.5 0.5 16.78972053527832 0.5 11 C 0.5 5.210279941558838 5.210279941558838 0.5 11 0.5 C 16.78972053527832 0.5 21.5 5.210279941558838 21.5 11 C 21.5 16.78972053527832 16.78972053527832 21.5 11 21.5 Z" stroke="none"/>
      <path d="M 11 1 C 5.485979080200195 1 1 5.485979080200195 1 11 C 1 16.51401901245117 5.485979080200195 21 11 21 C 16.51401901245117 21 21 16.51401901245117 21 11 C 21 5.485979080200195 16.51401901245117 1 11 1 M 11 0 C 17.07513046264648 0 22 4.924869537353516 22 11 C 22 17.07513046264648 17.07513046264648 22 11 22 C 4.924869537353516 22 0 17.07513046264648 0 11 C 0 4.924869537353516 4.924869537353516 0 11 0 Z" stroke="none" fill="#12263f"/>
    </g>
    <g id="Trazado_705051" data-name="Trazado 705051" transform="translate(-6195 -9175.379)" fill="#ece3ff">
      <path d="M 11 21.5 C 5.210279941558838 21.5 0.5 16.78972053527832 0.5 11 C 0.5 5.210279941558838 5.210279941558838 0.5 11 0.5 C 16.78972053527832 0.5 21.5 5.210279941558838 21.5 11 C 21.5 16.78972053527832 16.78972053527832 21.5 11 21.5 Z" stroke="none"/>
      <path d="M 11 1 C 5.485979080200195 1 1 5.485979080200195 1 11 C 1 16.51401901245117 5.485979080200195 21 11 21 C 16.51401901245117 21 21 16.51401901245117 21 11 C 21 5.485979080200195 16.51401901245117 1 11 1 M 11 0 C 17.07513046264648 0 22 4.924869537353516 22 11 C 22 17.07513046264648 17.07513046264648 22 11 22 C 4.924869537353516 22 0 17.07513046264648 0 11 C 0 4.924869537353516 4.924869537353516 0 11 0 Z" stroke="none" fill="#12263f"/>
    </g>
    <g id="Trazado_705052" data-name="Trazado 705052" transform="translate(-6157 -9043.379)" fill="#ece3ff">
      <path d="M 11 21.5 C 5.210279941558838 21.5 0.5 16.78972053527832 0.5 11 C 0.5 5.210279941558838 5.210279941558838 0.5 11 0.5 C 16.78972053527832 0.5 21.5 5.210279941558838 21.5 11 C 21.5 16.78972053527832 16.78972053527832 21.5 11 21.5 Z" stroke="none"/>
      <path d="M 11 1 C 5.485979080200195 1 1 5.485979080200195 1 11 C 1 16.51401901245117 5.485979080200195 21 11 21 C 16.51401901245117 21 21 16.51401901245117 21 11 C 21 5.485979080200195 16.51401901245117 1 11 1 M 11 0 C 17.07513046264648 0 22 4.924869537353516 22 11 C 22 17.07513046264648 17.07513046264648 22 11 22 C 4.924869537353516 22 0 17.07513046264648 0 11 C 0 4.924869537353516 4.924869537353516 0 11 0 Z" stroke="none" fill="#12263f"/>
    </g>
    <g id="Trazado_705053" data-name="Trazado 705053" transform="translate(-6132 -9043.379)" fill="#ece3ff">
      <path d="M 11 21.5 C 5.210279941558838 21.5 0.5 16.78972053527832 0.5 11 C 0.5 5.210279941558838 5.210279941558838 0.5 11 0.5 C 16.78972053527832 0.5 21.5 5.210279941558838 21.5 11 C 21.5 16.78972053527832 16.78972053527832 21.5 11 21.5 Z" stroke="none"/>
      <path d="M 11 1 C 5.485979080200195 1 1 5.485979080200195 1 11 C 1 16.51401901245117 5.485979080200195 21 11 21 C 16.51401901245117 21 21 16.51401901245117 21 11 C 21 5.485979080200195 16.51401901245117 1 11 1 M 11 0 C 17.07513046264648 0 22 4.924869537353516 22 11 C 22 17.07513046264648 17.07513046264648 22 11 22 C 4.924869537353516 22 0 17.07513046264648 0 11 C 0 4.924869537353516 4.924869537353516 0 11 0 Z" stroke="none" fill="#12263f"/>
    </g>
    <g id="Trazado_705054" data-name="Trazado 705054" transform="translate(-6107 -9043.379)" fill="#ece3ff">
      <path d="M 11 21.5 C 5.210279941558838 21.5 0.5 16.78972053527832 0.5 11 C 0.5 5.210279941558838 5.210279941558838 0.5 11 0.5 C 16.78972053527832 0.5 21.5 5.210279941558838 21.5 11 C 21.5 16.78972053527832 16.78972053527832 21.5 11 21.5 Z" stroke="none"/>
      <path d="M 11 1 C 5.485979080200195 1 1 5.485979080200195 1 11 C 1 16.51401901245117 5.485979080200195 21 11 21 C 16.51401901245117 21 21 16.51401901245117 21 11 C 21 5.485979080200195 16.51401901245117 1 11 1 M 11 0 C 17.07513046264648 0 22 4.924869537353516 22 11 C 22 17.07513046264648 17.07513046264648 22 11 22 C 4.924869537353516 22 0 17.07513046264648 0 11 C 0 4.924869537353516 4.924869537353516 0 11 0 Z" stroke="none" fill="#12263f"/>
    </g>
    <g id="Trazado_705055" data-name="Trazado 705055" transform="translate(-6082 -9043.379)" fill="#ece3ff">
      <path d="M 11 21.5 C 5.210279941558838 21.5 0.5 16.78972053527832 0.5 11 C 0.5 5.210279941558838 5.210279941558838 0.5 11 0.5 C 16.78972053527832 0.5 21.5 5.210279941558838 21.5 11 C 21.5 16.78972053527832 16.78972053527832 21.5 11 21.5 Z" stroke="none"/>
      <path d="M 11 1 C 5.485979080200195 1 1 5.485979080200195 1 11 C 1 16.51401901245117 5.485979080200195 21 11 21 C 16.51401901245117 21 21 16.51401901245117 21 11 C 21 5.485979080200195 16.51401901245117 1 11 1 M 11 0 C 17.07513046264648 0 22 4.924869537353516 22 11 C 22 17.07513046264648 17.07513046264648 22 11 22 C 4.924869537353516 22 0 17.07513046264648 0 11 C 0 4.924869537353516 4.924869537353516 0 11 0 Z" stroke="none" fill="#12263f"/>
    </g>
    <g id="Trazado_705056" data-name="Trazado 705056" transform="translate(-6057 -9043.379)" fill="#ece3ff">
      <path d="M 11 21.5 C 5.210279941558838 21.5 0.5 16.78972053527832 0.5 11 C 0.5 5.210279941558838 5.210279941558838 0.5 11 0.5 C 16.78972053527832 0.5 21.5 5.210279941558838 21.5 11 C 21.5 16.78972053527832 16.78972053527832 21.5 11 21.5 Z" stroke="none"/>
      <path d="M 11 1 C 5.485979080200195 1 1 5.485979080200195 1 11 C 1 16.51401901245117 5.485979080200195 21 11 21 C 16.51401901245117 21 21 16.51401901245117 21 11 C 21 5.485979080200195 16.51401901245117 1 11 1 M 11 0 C 17.07513046264648 0 22 4.924869537353516 22 11 C 22 17.07513046264648 17.07513046264648 22 11 22 C 4.924869537353516 22 0 17.07513046264648 0 11 C 0 4.924869537353516 4.924869537353516 0 11 0 Z" stroke="none" fill="#12263f"/>
    </g>
    <g id="Trazado_705057" data-name="Trazado 705057" transform="translate(-6032 -9043.379)" fill="#ece3ff">
      <path d="M 11 21.5 C 5.210279941558838 21.5 0.5 16.78972053527832 0.5 11 C 0.5 5.210279941558838 5.210279941558838 0.5 11 0.5 C 16.78972053527832 0.5 21.5 5.210279941558838 21.5 11 C 21.5 16.78972053527832 16.78972053527832 21.5 11 21.5 Z" stroke="none"/>
      <path d="M 11 1 C 5.485979080200195 1 1 5.485979080200195 1 11 C 1 16.51401901245117 5.485979080200195 21 11 21 C 16.51401901245117 21 21 16.51401901245117 21 11 C 21 5.485979080200195 16.51401901245117 1 11 1 M 11 0 C 17.07513046264648 0 22 4.924869537353516 22 11 C 22 17.07513046264648 17.07513046264648 22 11 22 C 4.924869537353516 22 0 17.07513046264648 0 11 C 0 4.924869537353516 4.924869537353516 0 11 0 Z" stroke="none" fill="#12263f"/>
    </g>
    <g id="Trazado_705058" data-name="Trazado 705058" transform="translate(-6007 -9043.379)" fill="#ece3ff">
      <path d="M 11 21.5 C 5.210279941558838 21.5 0.5 16.78972053527832 0.5 11 C 0.5 5.210279941558838 5.210279941558838 0.5 11 0.5 C 16.78972053527832 0.5 21.5 5.210279941558838 21.5 11 C 21.5 16.78972053527832 16.78972053527832 21.5 11 21.5 Z" stroke="none"/>
      <path d="M 11 1 C 5.485979080200195 1 1 5.485979080200195 1 11 C 1 16.51401901245117 5.485979080200195 21 11 21 C 16.51401901245117 21 21 16.51401901245117 21 11 C 21 5.485979080200195 16.51401901245117 1 11 1 M 11 0 C 17.07513046264648 0 22 4.924869537353516 22 11 C 22 17.07513046264648 17.07513046264648 22 11 22 C 4.924869537353516 22 0 17.07513046264648 0 11 C 0 4.924869537353516 4.924869537353516 0 11 0 Z" stroke="none" fill="#12263f"/>
    </g>
    <g id="Trazado_705059" data-name="Trazado 705059" transform="translate(-6150 -9175.379)" fill="#ece3ff">
      <path d="M 11 21.5 C 5.210279941558838 21.5 0.5 16.78972053527832 0.5 11 C 0.5 5.210279941558838 5.210279941558838 0.5 11 0.5 C 16.78972053527832 0.5 21.5 5.210279941558838 21.5 11 C 21.5 16.78972053527832 16.78972053527832 21.5 11 21.5 Z" stroke="none"/>
      <path d="M 11 1 C 5.485979080200195 1 1 5.485979080200195 1 11 C 1 16.51401901245117 5.485979080200195 21 11 21 C 16.51401901245117 21 21 16.51401901245117 21 11 C 21 5.485979080200195 16.51401901245117 1 11 1 M 11 0 C 17.07513046264648 0 22 4.924869537353516 22 11 C 22 17.07513046264648 17.07513046264648 22 11 22 C 4.924869537353516 22 0 17.07513046264648 0 11 C 0 4.924869537353516 4.924869537353516 0 11 0 Z" stroke="none" fill="#12263f"/>
    </g>
    <g id="Trazado_705060" data-name="Trazado 705060" transform="translate(-6058 -9175.379)" fill="#ece3ff">
      <path d="M 11 21.5 C 5.210279941558838 21.5 0.5 16.78972053527832 0.5 11 C 0.5 5.210279941558838 5.210279941558838 0.5 11 0.5 C 16.78972053527832 0.5 21.5 5.210279941558838 21.5 11 C 21.5 16.78972053527832 16.78972053527832 21.5 11 21.5 Z" stroke="none"/>
      <path d="M 11 1 C 5.485979080200195 1 1 5.485979080200195 1 11 C 1 16.51401901245117 5.485979080200195 21 11 21 C 16.51401901245117 21 21 16.51401901245117 21 11 C 21 5.485979080200195 16.51401901245117 1 11 1 M 11 0 C 17.07513046264648 0 22 4.924869537353516 22 11 C 22 17.07513046264648 17.07513046264648 22 11 22 C 4.924869537353516 22 0 17.07513046264648 0 11 C 0 4.924869537353516 4.924869537353516 0 11 0 Z" stroke="none" fill="#12263f"/>
    </g>
    <g id="Trazado_705061" data-name="Trazado 705061" transform="translate(-5965 -9175.379)" fill="#ece3ff">
      <path d="M 11 21.5 C 5.210279941558838 21.5 0.5 16.78972053527832 0.5 11 C 0.5 5.210279941558838 5.210279941558838 0.5 11 0.5 C 16.78972053527832 0.5 21.5 5.210279941558838 21.5 11 C 21.5 16.78972053527832 16.78972053527832 21.5 11 21.5 Z" stroke="none"/>
      <path d="M 11 1 C 5.485979080200195 1 1 5.485979080200195 1 11 C 1 16.51401901245117 5.485979080200195 21 11 21 C 16.51401901245117 21 21 16.51401901245117 21 11 C 21 5.485979080200195 16.51401901245117 1 11 1 M 11 0 C 17.07513046264648 0 22 4.924869537353516 22 11 C 22 17.07513046264648 17.07513046264648 22 11 22 C 4.924869537353516 22 0 17.07513046264648 0 11 C 0 4.924869537353516 4.924869537353516 0 11 0 Z" stroke="none" fill="#12263f"/>
    </g>
    <g id="Trazado_705062" data-name="Trazado 705062" transform="translate(-6101 -9175.379)" fill="#ece3ff">
      <path d="M 11 21.5 C 5.210279941558838 21.5 0.5 16.78972053527832 0.5 11 C 0.5 5.210279941558838 5.210279941558838 0.5 11 0.5 C 16.78972053527832 0.5 21.5 5.210279941558838 21.5 11 C 21.5 16.78972053527832 16.78972053527832 21.5 11 21.5 Z" stroke="none"/>
      <path d="M 11 1 C 5.485979080200195 1 1 5.485979080200195 1 11 C 1 16.51401901245117 5.485979080200195 21 11 21 C 16.51401901245117 21 21 16.51401901245117 21 11 C 21 5.485979080200195 16.51401901245117 1 11 1 M 11 0 C 17.07513046264648 0 22 4.924869537353516 22 11 C 22 17.07513046264648 17.07513046264648 22 11 22 C 4.924869537353516 22 0 17.07513046264648 0 11 C 0 4.924869537353516 4.924869537353516 0 11 0 Z" stroke="none" fill="#12263f"/>
    </g>
    <g id="Trazado_705063" data-name="Trazado 705063" transform="translate(-6028 -9175.379)" fill="#ece3ff">
      <path d="M 11 21.5 C 5.210279941558838 21.5 0.5 16.78972053527832 0.5 11 C 0.5 5.210279941558838 5.210279941558838 0.5 11 0.5 C 16.78972053527832 0.5 21.5 5.210279941558838 21.5 11 C 21.5 16.78972053527832 16.78972053527832 21.5 11 21.5 Z" stroke="none"/>
      <path d="M 11 1 C 5.485979080200195 1 1 5.485979080200195 1 11 C 1 16.51401901245117 5.485979080200195 21 11 21 C 16.51401901245117 21 21 16.51401901245117 21 11 C 21 5.485979080200195 16.51401901245117 1 11 1 M 11 0 C 17.07513046264648 0 22 4.924869537353516 22 11 C 22 17.07513046264648 17.07513046264648 22 11 22 C 4.924869537353516 22 0 17.07513046264648 0 11 C 0 4.924869537353516 4.924869537353516 0 11 0 Z" stroke="none" fill="#12263f"/>
    </g>
    <g id="Trazado_705064" data-name="Trazado 705064" transform="translate(-5927 -9175.379)" fill="#ece3ff">
      <path d="M 11 21.5 C 5.210279941558838 21.5 0.5 16.78972053527832 0.5 11 C 0.5 5.210279941558838 5.210279941558838 0.5 11 0.5 C 16.78972053527832 0.5 21.5 5.210279941558838 21.5 11 C 21.5 16.78972053527832 16.78972053527832 21.5 11 21.5 Z" stroke="none"/>
      <path d="M 11 1 C 5.485979080200195 1 1 5.485979080200195 1 11 C 1 16.51401901245117 5.485979080200195 21 11 21 C 16.51401901245117 21 21 16.51401901245117 21 11 C 21 5.485979080200195 16.51401901245117 1 11 1 M 11 0 C 17.07513046264648 0 22 4.924869537353516 22 11 C 22 17.07513046264648 17.07513046264648 22 11 22 C 4.924869537353516 22 0 17.07513046264648 0 11 C 0 4.924869537353516 4.924869537353516 0 11 0 Z" stroke="none" fill="#12263f"/>
    </g>
    <g id="Trazado_705065" data-name="Trazado 705065" transform="translate(-5897 -9175.379)" fill="#ece3ff">
      <path d="M 11 21.5 C 5.210279941558838 21.5 0.5 16.78972053527832 0.5 11 C 0.5 5.210279941558838 5.210279941558838 0.5 11 0.5 C 16.78972053527832 0.5 21.5 5.210279941558838 21.5 11 C 21.5 16.78972053527832 16.78972053527832 21.5 11 21.5 Z" stroke="none"/>
      <path d="M 11 1 C 5.485979080200195 1 1 5.485979080200195 1 11 C 1 16.51401901245117 5.485979080200195 21 11 21 C 16.51401901245117 21 21 16.51401901245117 21 11 C 21 5.485979080200195 16.51401901245117 1 11 1 M 11 0 C 17.07513046264648 0 22 4.924869537353516 22 11 C 22 17.07513046264648 17.07513046264648 22 11 22 C 4.924869537353516 22 0 17.07513046264648 0 11 C 0 4.924869537353516 4.924869537353516 0 11 0 Z" stroke="none" fill="#12263f"/>
    </g>
    <g id="Trazado_705066" data-name="Trazado 705066" transform="translate(-6150 -9197.379)" fill="#ece3ff">
      <path d="M 11 21.5 C 5.210279941558838 21.5 0.5 16.78972053527832 0.5 11 C 0.5 5.210279941558838 5.210279941558838 0.5 11 0.5 C 16.78972053527832 0.5 21.5 5.210279941558838 21.5 11 C 21.5 16.78972053527832 16.78972053527832 21.5 11 21.5 Z" stroke="none"/>
      <path d="M 11 1 C 5.485979080200195 1 1 5.485979080200195 1 11 C 1 16.51401901245117 5.485979080200195 21 11 21 C 16.51401901245117 21 21 16.51401901245117 21 11 C 21 5.485979080200195 16.51401901245117 1 11 1 M 11 0 C 17.07513046264648 0 22 4.924869537353516 22 11 C 22 17.07513046264648 17.07513046264648 22 11 22 C 4.924869537353516 22 0 17.07513046264648 0 11 C 0 4.924869537353516 4.924869537353516 0 11 0 Z" stroke="none" fill="#12263f"/>
    </g>
    <g id="Trazado_705067" data-name="Trazado 705067" transform="translate(-6058 -9197.379)" fill="#ece3ff">
      <path d="M 11 21.5 C 5.210279941558838 21.5 0.5 16.78972053527832 0.5 11 C 0.5 5.210279941558838 5.210279941558838 0.5 11 0.5 C 16.78972053527832 0.5 21.5 5.210279941558838 21.5 11 C 21.5 16.78972053527832 16.78972053527832 21.5 11 21.5 Z" stroke="none"/>
      <path d="M 11 1 C 5.485979080200195 1 1 5.485979080200195 1 11 C 1 16.51401901245117 5.485979080200195 21 11 21 C 16.51401901245117 21 21 16.51401901245117 21 11 C 21 5.485979080200195 16.51401901245117 1 11 1 M 11 0 C 17.07513046264648 0 22 4.924869537353516 22 11 C 22 17.07513046264648 17.07513046264648 22 11 22 C 4.924869537353516 22 0 17.07513046264648 0 11 C 0 4.924869537353516 4.924869537353516 0 11 0 Z" stroke="none" fill="#12263f"/>
    </g>
    <g id="Trazado_705068" data-name="Trazado 705068" transform="translate(-5965 -9197.379)" fill="#ece3ff">
      <path d="M 11 21.5 C 5.210279941558838 21.5 0.5 16.78972053527832 0.5 11 C 0.5 5.210279941558838 5.210279941558838 0.5 11 0.5 C 16.78972053527832 0.5 21.5 5.210279941558838 21.5 11 C 21.5 16.78972053527832 16.78972053527832 21.5 11 21.5 Z" stroke="none"/>
      <path d="M 11 1 C 5.485979080200195 1 1 5.485979080200195 1 11 C 1 16.51401901245117 5.485979080200195 21 11 21 C 16.51401901245117 21 21 16.51401901245117 21 11 C 21 5.485979080200195 16.51401901245117 1 11 1 M 11 0 C 17.07513046264648 0 22 4.924869537353516 22 11 C 22 17.07513046264648 17.07513046264648 22 11 22 C 4.924869537353516 22 0 17.07513046264648 0 11 C 0 4.924869537353516 4.924869537353516 0 11 0 Z" stroke="none" fill="#12263f"/>
    </g>
    <g id="Trazado_705069" data-name="Trazado 705069" transform="translate(-6150 -9219.379)" fill="#ece3ff">
      <path d="M 11 21.5 C 5.210279941558838 21.5 0.5 16.78972053527832 0.5 11 C 0.5 5.210279941558838 5.210279941558838 0.5 11 0.5 C 16.78972053527832 0.5 21.5 5.210279941558838 21.5 11 C 21.5 16.78972053527832 16.78972053527832 21.5 11 21.5 Z" stroke="none"/>
      <path d="M 11 1 C 5.485979080200195 1 1 5.485979080200195 1 11 C 1 16.51401901245117 5.485979080200195 21 11 21 C 16.51401901245117 21 21 16.51401901245117 21 11 C 21 5.485979080200195 16.51401901245117 1 11 1 M 11 0 C 17.07513046264648 0 22 4.924869537353516 22 11 C 22 17.07513046264648 17.07513046264648 22 11 22 C 4.924869537353516 22 0 17.07513046264648 0 11 C 0 4.924869537353516 4.924869537353516 0 11 0 Z" stroke="none" fill="#12263f"/>
    </g>
    <g id="Trazado_705070" data-name="Trazado 705070" transform="translate(-6124 -9118.379)" fill="#25ffff">
      <path d="M 117.5 33.5 L 0.5 33.5 L 0.5 0.5 L 117.5 0.5 L 117.5 33.5 Z" stroke="none"/>
      <path d="M 1 1 L 1 33 L 117 33 L 117 1 L 1 1 M 0 0 L 118 0 L 118 34 L 0 34 L 0 0 Z" stroke="none" fill="#12263f"/>
    </g>
    <g id="Trazado_705071" data-name="Trazado 705071" transform="translate(-6130 -8984.379)" fill="#25ffff">
      <path d="M 117.5 33.5 L 0.5 33.5 L 0.5 0.5 L 117.5 0.5 L 117.5 33.5 Z" stroke="none"/>
      <path d="M 1 1 L 1 33 L 117 33 L 117 1 L 1 1 M 0 0 L 118 0 L 118 34 L 0 34 L 0 0 Z" stroke="none" fill="#12263f"/>
    </g>
    <path id="Trazado_705072" data-name="Trazado 705072" d="M3.568-9.953,6.125-2.734,8.668-9.953h2.693V0H9.3V-2.721l.205-4.7L6.822,0H5.414L2.734-7.41l.205,4.689V0H.889V-9.953Zm17.76,5.2a6.008,6.008,0,0,1-.52,2.577A3.913,3.913,0,0,1,19.322-.465a4.113,4.113,0,0,1-2.218.6A4.141,4.141,0,0,1,14.9-.458a3.951,3.951,0,0,1-1.5-1.7,5.837,5.837,0,0,1-.54-2.54v-.492a5.977,5.977,0,0,1,.53-2.587,3.945,3.945,0,0,1,1.5-1.716,4.118,4.118,0,0,1,2.211-.6,4.118,4.118,0,0,1,2.211.6,3.945,3.945,0,0,1,1.5,1.716,5.96,5.96,0,0,1,.53,2.581ZM19.25-5.2a4.188,4.188,0,0,0-.561-2.379,1.827,1.827,0,0,0-1.6-.813,1.827,1.827,0,0,0-1.593.8,4.141,4.141,0,0,0-.567,2.355v.485a4.241,4.241,0,0,0,.561,2.365,1.822,1.822,0,0,0,1.613.841,1.806,1.806,0,0,0,1.586-.81,4.216,4.216,0,0,0,.561-2.362ZM22.818,0V-9.953h3.063a4.651,4.651,0,0,1,2.348.591A4.123,4.123,0,0,1,29.846-7.68,5.187,5.187,0,0,1,30.427-5.2v.458a5.2,5.2,0,0,1-.571,2.468A4.088,4.088,0,0,1,28.246-.6,4.686,4.686,0,0,1,25.9,0Zm2.051-8.292v6.645h.991A2.227,2.227,0,0,0,27.7-2.434a3.552,3.552,0,0,0,.649-2.249v-.526a3.609,3.609,0,0,0-.629-2.3,2.219,2.219,0,0,0-1.839-.783ZM37.393-2.051H33.8L33.113,0H30.933l3.705-9.953h1.9L40.264,0H38.083ZM34.351-3.712h2.488L35.588-7.437Zm13-1.388H41.234V-6.713h6.111Zm0,2.96H41.234V-3.753h6.111Zm1.941-2.755.574-5.059h5.578v1.647H51.481l-.246,2.14a3.132,3.132,0,0,1,1.5-.376,2.869,2.869,0,0,1,2.229.882,3.522,3.522,0,0,1,.807,2.468,3.609,3.609,0,0,1-.407,1.726A2.871,2.871,0,0,1,54.2-.284,3.639,3.639,0,0,1,52.4.137a3.864,3.864,0,0,1-1.675-.366,2.971,2.971,0,0,1-1.22-1.029,2.8,2.8,0,0,1-.475-1.511h1.955a1.46,1.46,0,0,0,.434.967,1.376,1.376,0,0,0,.974.345,1.215,1.215,0,0,0,1.032-.482A2.233,2.233,0,0,0,53.792-3.3a1.846,1.846,0,0,0-.417-1.3,1.53,1.53,0,0,0-1.183-.451,1.71,1.71,0,0,0-1.142.369l-.191.178Z" transform="translate(-6093 -9096.379)" fill="#12263f"/>
    <path id="Trazado_705073" data-name="Trazado 705073" d="M6.05-2.611A1.052,1.052,0,0,0,5.64-3.5,5.38,5.38,0,0,0,4.163-4.16a10.467,10.467,0,0,1-1.688-.68,2.759,2.759,0,0,1-1.7-2.468,2.4,2.4,0,0,1,.455-1.439A2.965,2.965,0,0,1,2.54-9.734,4.914,4.914,0,0,1,4.45-10.09a4.473,4.473,0,0,1,1.9.386,3.026,3.026,0,0,1,1.3,1.09,2.853,2.853,0,0,1,.461,1.6H6.057a1.342,1.342,0,0,0-.431-1.063,1.77,1.77,0,0,0-1.21-.379,1.891,1.891,0,0,0-1.169.318A1,1,0,0,0,2.83-7.3a.96.96,0,0,0,.489.813,5.522,5.522,0,0,0,1.439.615,6.217,6.217,0,0,1,2.55,1.306,2.6,2.6,0,0,1,.8,1.941A2.4,2.4,0,0,1,7.13-.6,4.279,4.279,0,0,1,4.5.137a5.082,5.082,0,0,1-2.092-.42A3.31,3.31,0,0,1,.967-1.436a2.95,2.95,0,0,1-.5-1.7H2.529q0,1.647,1.969,1.647a1.915,1.915,0,0,0,1.142-.3A.967.967,0,0,0,6.05-2.611ZM11.676,0H9.625V-9.953h2.051ZM21.67,0H19.619L15.627-6.549V0H13.576V-9.953h2.051l4,6.563V-9.953H21.67Zm7.957-9.953,2.557,7.219,2.543-7.219H37.42V0H35.362V-2.721l.205-4.7L32.881,0H31.473l-2.68-7.41L29-2.721V0H26.947V-9.953Zm17.76,5.2a6.008,6.008,0,0,1-.52,2.577A3.913,3.913,0,0,1,45.38-.465a4.113,4.113,0,0,1-2.218.6,4.141,4.141,0,0,1-2.208-.595,3.951,3.951,0,0,1-1.5-1.7,5.837,5.837,0,0,1-.54-2.54v-.492a5.977,5.977,0,0,1,.53-2.587,3.945,3.945,0,0,1,1.5-1.716,4.118,4.118,0,0,1,2.211-.6,4.118,4.118,0,0,1,2.211.6,3.945,3.945,0,0,1,1.5,1.716,5.96,5.96,0,0,1,.53,2.581ZM45.309-5.2a4.188,4.188,0,0,0-.561-2.379,1.827,1.827,0,0,0-1.6-.813,1.827,1.827,0,0,0-1.593.8,4.141,4.141,0,0,0-.567,2.355v.485a4.241,4.241,0,0,0,.561,2.365,1.822,1.822,0,0,0,1.613.841,1.806,1.806,0,0,0,1.586-.81,4.216,4.216,0,0,0,.561-2.362ZM48.877,0V-9.953h3.063a4.651,4.651,0,0,1,2.348.591A4.123,4.123,0,0,1,55.9-7.68,5.187,5.187,0,0,1,56.485-5.2v.458a5.2,5.2,0,0,1-.571,2.468A4.088,4.088,0,0,1,54.3-.6,4.686,4.686,0,0,1,51.96,0Zm2.051-8.292v6.645h.991a2.227,2.227,0,0,0,1.839-.786,3.552,3.552,0,0,0,.649-2.249v-.526a3.609,3.609,0,0,0-.629-2.3,2.219,2.219,0,0,0-1.839-.783ZM63.451-2.051h-3.6L59.172,0H56.991L60.7-9.953h1.9L66.322,0H64.142ZM60.409-3.712H62.9L61.646-7.437Z" transform="translate(-6103 -8962.379)" fill="#12263f"/>
    <g id="Grupo_169194" data-name="Grupo 169194" transform="translate(615 813.621)">
      <path id="Polígono_45" data-name="Polígono 45" d="M11,0,22,12H0Z" transform="translate(-6765 -9944)" fill="#0b428a"/>
      <rect id="Rectángulo_51219" data-name="Rectángulo 51219" width="13" height="33" transform="translate(-6761 -9934)" fill="#0b428a"/>
    </g>
    <path id="Trazado_204656" data-name="Trazado 204656" d="M-6868.172-9967.387h368.707" transform="translate(615 813.621)" fill="none" stroke="#12263f" stroke-width="4"/>
    <path id="Trazado_204657" data-name="Trazado 204657" d="M-6868.172-9967.387H-6692.5" transform="translate(711.516 945.621)" fill="none" stroke="#12263f" stroke-width="4"/>
  </g>
</svg>
