<svg xmlns="http://www.w3.org/2000/svg" width="376" height="223" viewBox="0 0 376 223">
  <g id="Grupo_974131" data-name="Grupo 974131" transform="translate(-7321 5057)">
    <g id="Grupo_974118" data-name="Grupo 974118">
      <rect id="Rectángulo_339947" data-name="Rectángulo 339947" width="376" height="223" rx="16" transform="translate(7321 -5057)" fill="#fff"/>
      <g id="Grupo_974117" data-name="Grupo 974117" transform="translate(-500 1467.82)">
        <path id="Trazado_704795" data-name="Trazado 704795" d="M7860.667-6340.667H8178" transform="translate(0 2)" fill="none" stroke="#707070" stroke-width="5"/>
        <path id="Trazado_704796" data-name="Trazado 704796" d="M7868.667-6386.5H8184" fill="none" stroke="#707070" stroke-width="1" stroke-dasharray="1"/>
        <path id="Trazado_704797" data-name="Trazado 704797" d="M7868.667-6386.5H8184" transform="translate(0 -33)" fill="none" stroke="#707070" stroke-width="1" stroke-dasharray="1"/>
        <path id="Trazado_704798" data-name="Trazado 704798" d="M7868.667-6386.5H8184" transform="translate(0 -70)" fill="none" stroke="#707070" stroke-width="1" stroke-dasharray="1"/>
        <path id="Trazado_704799" data-name="Trazado 704799" d="M7868.667-6386.5H8184" transform="translate(0 -104)" fill="none" stroke="#707070" stroke-width="1" stroke-dasharray="1"/>
        <path id="Trazado_704905" data-name="Trazado 704905" d="M8.43-4.7a5.762,5.762,0,0,1-.977,3.609A3.409,3.409,0,0,1,4.594.156,3.433,3.433,0,0,1,1.75-1.07,5.594,5.594,0,0,1,.742-4.586V-6.68A5.687,5.687,0,0,1,1.73-10.3a3.434,3.434,0,0,1,2.848-1.234,3.437,3.437,0,0,1,2.844,1.223A5.576,5.576,0,0,1,8.43-6.8Zm-2.258-2.3a4.165,4.165,0,0,0-.387-2.061,1.307,1.307,0,0,0-1.207-.645A1.284,1.284,0,0,0,3.4-9.1,3.9,3.9,0,0,0,3-7.177v2.768a4.372,4.372,0,0,0,.379,2.068,1.29,1.29,0,0,0,1.215.676,1.268,1.268,0,0,0,1.2-.649A4.268,4.268,0,0,0,6.172-4.3Z" transform="translate(7855 -6349)" fill="#707070"/>
        <path id="Trazado_704906" data-name="Trazado 704906" d="M7.438-2.344H3.328L2.547,0H.055L4.289-11.375H6.461L10.719,0H8.227Zm-3.477-1.9H6.8L5.375-8.5Z" transform="translate(7894 -6319)" fill="#707070"/>
        <path id="Trazado_704907" data-name="Trazado 704907" d="M1.016,0V-11.375H5a5.232,5.232,0,0,1,3.141.793,2.712,2.712,0,0,1,1.07,2.324,2.57,2.57,0,0,1-.43,1.473,2.482,2.482,0,0,1-1.2.934,2.4,2.4,0,0,1,1.379.883,2.61,2.61,0,0,1,.5,1.625A3,3,0,0,1,8.422-.859,4.713,4.713,0,0,1,5.438,0ZM3.359-4.953v3.07H5.367A1.938,1.938,0,0,0,6.66-2.277a1.353,1.353,0,0,0,.465-1.09A1.428,1.428,0,0,0,5.508-4.953Zm0-1.656H5.094q1.773-.031,1.773-1.414a1.307,1.307,0,0,0-.449-1.113A2.363,2.363,0,0,0,5-9.477H3.359Z" transform="translate(7954 -6319)" fill="#707070"/>
        <path id="Trazado_704908" data-name="Trazado 704908" d="M9.945-3.789A4.025,4.025,0,0,1,8.59-.9,4.76,4.76,0,0,1,5.367.156,4.28,4.28,0,0,1,1.926-1.316,6.038,6.038,0,0,1,.672-5.359v-.7A6.819,6.819,0,0,1,1.25-8.945,4.332,4.332,0,0,1,2.9-10.863a4.629,4.629,0,0,1,2.5-.668A4.637,4.637,0,0,1,8.57-10.477,4.326,4.326,0,0,1,9.961-7.516H7.617A2.376,2.376,0,0,0,7-9.113a2.271,2.271,0,0,0-1.605-.5,1.991,1.991,0,0,0-1.754.84,4.707,4.707,0,0,0-.6,2.605V-5.3a5.038,5.038,0,0,0,.559,2.7,1.954,1.954,0,0,0,1.762.852,2.314,2.314,0,0,0,1.621-.5A2.241,2.241,0,0,0,7.6-3.789Z" transform="translate(8021.333 -6319)" fill="#707070"/>
        <path id="Trazado_704909" data-name="Trazado 704909" d="M1.016,0V-11.375h3.5A5.315,5.315,0,0,1,7.2-10.7,4.712,4.712,0,0,1,9.047-8.777a5.928,5.928,0,0,1,.664,2.832v.523A5.945,5.945,0,0,1,9.059-2.6,4.672,4.672,0,0,1,7.219-.687,5.355,5.355,0,0,1,4.539,0ZM3.359-9.477v7.594H4.492a2.545,2.545,0,0,0,2.1-.9,4.06,4.06,0,0,0,.742-2.57v-.6a4.124,4.124,0,0,0-.719-2.629,2.537,2.537,0,0,0-2.1-.895Z" transform="translate(8088.666 -6319)" fill="#707070"/>
        <path id="Trazado_704910" data-name="Trazado 704910" d="M7.859-4.93h-4.5v3.047H8.641V0H1.016V-11.375H8.625v1.9H3.359v2.711h4.5Z" transform="translate(8147.666 -6319)" fill="#707070"/>
        <path id="Trazado_704911" data-name="Trazado 704911" d="M6.258,0H4V-8.7l-2.7.836V-9.7l4.711-1.687h.242ZM17.609-4.7a5.763,5.763,0,0,1-.977,3.609A3.409,3.409,0,0,1,13.773.156,3.433,3.433,0,0,1,10.93-1.07,5.594,5.594,0,0,1,9.922-4.586V-6.68A5.687,5.687,0,0,1,10.91-10.3a3.434,3.434,0,0,1,2.848-1.234A3.437,3.437,0,0,1,16.6-10.309,5.576,5.576,0,0,1,17.609-6.8Zm-2.258-2.3a4.165,4.165,0,0,0-.387-2.061,1.307,1.307,0,0,0-1.207-.645,1.284,1.284,0,0,0-1.176.614,3.9,3.9,0,0,0-.4,1.92v2.768a4.372,4.372,0,0,0,.379,2.068,1.29,1.29,0,0,0,1.215.676,1.268,1.268,0,0,0,1.2-.649A4.268,4.268,0,0,0,15.352-4.3Z" transform="translate(7849 -6381)" fill="#707070"/>
        <path id="Trazado_704912" data-name="Trazado 704912" d="M8.57,0H.773V-1.547l3.68-3.922A9.078,9.078,0,0,0,5.574-6.914a2.322,2.322,0,0,0,.363-1.172,1.738,1.738,0,0,0-.383-1.191,1.382,1.382,0,0,0-1.094-.434,1.49,1.49,0,0,0-1.207.527A2.089,2.089,0,0,0,2.813-7.8H.547a3.729,3.729,0,0,1,.5-1.9,3.5,3.5,0,0,1,1.4-1.348A4.262,4.262,0,0,1,4.5-11.531a4.036,4.036,0,0,1,2.73.844A2.985,2.985,0,0,1,8.2-8.3a3.825,3.825,0,0,1-.437,1.719,9.551,9.551,0,0,1-1.5,2.039L3.68-1.82H8.57Zm9.039-4.7a5.763,5.763,0,0,1-.977,3.609A3.409,3.409,0,0,1,13.773.156,3.433,3.433,0,0,1,10.93-1.07,5.594,5.594,0,0,1,9.922-4.586V-6.68A5.687,5.687,0,0,1,10.91-10.3a3.434,3.434,0,0,1,2.848-1.234A3.437,3.437,0,0,1,16.6-10.309,5.576,5.576,0,0,1,17.609-6.8Zm-2.258-2.3a4.165,4.165,0,0,0-.387-2.061,1.307,1.307,0,0,0-1.207-.645,1.284,1.284,0,0,0-1.176.614,3.9,3.9,0,0,0-.4,1.92v2.768a4.372,4.372,0,0,0,.379,2.068,1.29,1.29,0,0,0,1.215.676,1.268,1.268,0,0,0,1.2-.649A4.268,4.268,0,0,0,15.352-4.3Z" transform="translate(7849 -6413)" fill="#707070"/>
        <path id="Trazado_704913" data-name="Trazado 704913" d="M3.07-6.687h1.2a1.7,1.7,0,0,0,1.273-.43,1.574,1.574,0,0,0,.414-1.141,1.392,1.392,0,0,0-.41-1.07,1.59,1.59,0,0,0-1.129-.383,1.666,1.666,0,0,0-1.086.355A1.137,1.137,0,0,0,2.9-8.43H.641a2.777,2.777,0,0,1,.48-1.6,3.2,3.2,0,0,1,1.344-1.105,4.485,4.485,0,0,1,1.9-.4,4.253,4.253,0,0,1,2.828.863A2.945,2.945,0,0,1,8.219-8.289a2.394,2.394,0,0,1-.477,1.438,3.1,3.1,0,0,1-1.25,1.008A2.826,2.826,0,0,1,7.926-4.812,2.8,2.8,0,0,1,8.4-3.187,2.994,2.994,0,0,1,7.293-.758,4.445,4.445,0,0,1,4.367.156a4.214,4.214,0,0,1-2.785-.9A2.934,2.934,0,0,1,.5-3.117H2.758a1.308,1.308,0,0,0,.48,1.047,1.771,1.771,0,0,0,1.184.406A1.779,1.779,0,0,0,5.684-2.09a1.47,1.47,0,0,0,.457-1.129q0-1.7-1.875-1.7H3.07ZM17.609-4.7a5.763,5.763,0,0,1-.977,3.609A3.409,3.409,0,0,1,13.773.156,3.433,3.433,0,0,1,10.93-1.07,5.594,5.594,0,0,1,9.922-4.586V-6.68A5.687,5.687,0,0,1,10.91-10.3a3.434,3.434,0,0,1,2.848-1.234A3.437,3.437,0,0,1,16.6-10.309,5.576,5.576,0,0,1,17.609-6.8Zm-2.258-2.3a4.165,4.165,0,0,0-.387-2.061,1.307,1.307,0,0,0-1.207-.645,1.284,1.284,0,0,0-1.176.614,3.9,3.9,0,0,0-.4,1.92v2.768a4.372,4.372,0,0,0,.379,2.068,1.29,1.29,0,0,0,1.215.676,1.268,1.268,0,0,0,1.2-.649A4.268,4.268,0,0,0,15.352-4.3Z" transform="translate(7847 -6451)" fill="#707070"/>
        <path id="Trazado_704914" data-name="Trazado 704914" d="M7.453-4.281H8.742v1.82H7.453V0H5.2V-2.461H.531L.43-3.883l4.742-7.492H7.453Zm-4.773,0H5.2V-8.3l-.148.258ZM17.609-4.7a5.763,5.763,0,0,1-.977,3.609A3.409,3.409,0,0,1,13.773.156,3.433,3.433,0,0,1,10.93-1.07,5.594,5.594,0,0,1,9.922-4.586V-6.68A5.687,5.687,0,0,1,10.91-10.3a3.434,3.434,0,0,1,2.848-1.234A3.437,3.437,0,0,1,16.6-10.309,5.576,5.576,0,0,1,17.609-6.8Zm-2.258-2.3a4.165,4.165,0,0,0-.387-2.061,1.307,1.307,0,0,0-1.207-.645,1.284,1.284,0,0,0-1.176.614,3.9,3.9,0,0,0-.4,1.92v2.768a4.372,4.372,0,0,0,.379,2.068,1.29,1.29,0,0,0,1.215.676,1.268,1.268,0,0,0,1.2-.649A4.268,4.268,0,0,0,15.352-4.3Z" transform="translate(7847 -6485)" fill="#707070"/>
        <path id="Trazado_704802" data-name="Trazado 704802" d="M7884-6386.5l72,37.68,70-70,63-39,67,71.32" fill="none" stroke="#7125c8" stroke-width="3"/>
        <path id="Trazado_704915" data-name="Trazado 704915" d="M5,0A5,5,0,1,1,0,5,5,5,0,0,1,5,0Z" transform="translate(7881 -6390.82)" fill="#ad84ff"/>
        <path id="Trazado_704916" data-name="Trazado 704916" d="M5,0A5,5,0,1,1,0,5,5,5,0,0,1,5,0Z" transform="translate(7952 -6353.82)" fill="#ad84ff"/>
        <path id="Trazado_704917" data-name="Trazado 704917" d="M5,0A5,5,0,1,1,0,5,5,5,0,0,1,5,0Z" transform="translate(8021 -6422.82)" fill="#ad84ff"/>
        <path id="Trazado_704918" data-name="Trazado 704918" d="M5,0A5,5,0,1,1,0,5,5,5,0,0,1,5,0Z" transform="translate(8084 -6462.82)" fill="#ad84ff"/>
        <path id="Trazado_704919" data-name="Trazado 704919" d="M5,0A5,5,0,1,1,0,5,5,5,0,0,1,5,0Z" transform="translate(8151 -6391.82)" fill="#ad84ff"/>
      </g>
      <path id="Trazado_704804" data-name="Trazado 704804" d="M7928-4951l70-38,74,69,60-31,69-72" transform="translate(-546)" fill="none" stroke="#25ffff" stroke-width="3"/>
      <circle id="Elipse_6200" data-name="Elipse 6200" cx="5" cy="5" r="5" transform="translate(7378 -4957)" fill="#178e8e"/>
      <circle id="Elipse_6199" data-name="Elipse 6199" cx="5" cy="5" r="5" transform="translate(7446 -4994)" fill="#178e8e"/>
      <circle id="Elipse_6197" data-name="Elipse 6197" cx="5" cy="5" r="5" transform="translate(7519 -4925)" fill="#178e8e"/>
      <circle id="Elipse_6198" data-name="Elipse 6198" cx="5" cy="5" r="5" transform="translate(7581 -4955)" fill="#178e8e"/>
      <circle id="Elipse_6201" data-name="Elipse 6201" cx="5" cy="5" r="5" transform="translate(7645 -5028)" fill="#178e8e"/>
    </g>
  </g>
</svg>
