<svg xmlns="http://www.w3.org/2000/svg" width="608" height="99.189" viewBox="0 0 608 99.189">
  <g id="Grupo_973857" data-name="Grupo 973857" transform="translate(-791.5 -18968.911)">
    <path id="Trazado_705217" data-name="Trazado 705217" d="M10,0H598a10,10,0,0,1,10,10V89.19a10,10,0,0,1-10,10H10a10,10,0,0,1-10-10V10A10,10,0,0,1,10,0Z" transform="translate(791.5 18968.91)" fill="#25ffff"/>
    <path id="Trazado_705218" data-name="Trazado 705218" d="M10.121-6.327H4.112V0H1.518V-14.93H11v2.092H4.112V-8.4h6.009Zm7.957.256a15.625,15.625,0,0,1,.636-4.5,12.341,12.341,0,0,1,1.866-3.8,7.41,7.41,0,0,1,2.6-2.353l.492,1.456a7.612,7.612,0,0,0-2.343,3.348,14.994,14.994,0,0,0-.979,5.153l-.01.882A16.3,16.3,0,0,0,21.22-.344a8.168,8.168,0,0,0,2.456,3.707l-.492,1.384a7.423,7.423,0,0,1-2.61-2.364,12.34,12.34,0,0,1-1.866-3.8A16.241,16.241,0,0,1,18.078-6.07Zm16.5-1.374,2.112-3.65h2.769L36.063-5.629,39.57,0H36.822L34.607-3.794,32.4,0H29.634l3.507-5.629-3.384-5.465H32.5ZM67.8-9.146h-1.63v6.009a1.364,1.364,0,0,0,.251.918,1.165,1.165,0,0,0,.9.282,4.226,4.226,0,0,0,.872-.1V-.113a5.5,5.5,0,0,1-1.641.236q-2.871,0-2.871-3.168v-6.1h-3.4V0H57.781V-9.146H56.027v-1.948H67.8Zm12.069,3.24a15.428,15.428,0,0,1-.625,4.394,12.449,12.449,0,0,1-1.9,3.855,7.429,7.429,0,0,1-2.656,2.4L74.2,3.363A7.88,7.88,0,0,0,76.633-.272a16.147,16.147,0,0,0,.9-5.583v-.236a16.385,16.385,0,0,0-.779-5.194,9.161,9.161,0,0,0-2.235-3.758L74.2-15.33l.492-1.395a7.351,7.351,0,0,1,2.543,2.256,12.24,12.24,0,0,1,1.887,3.625,15.1,15.1,0,0,1,.738,4.137ZM96.746-8H87.907v-2.071h8.839Zm0,4.348H87.907V-5.711h8.839Zm18.888-5.5H114v6.009a1.364,1.364,0,0,0,.251.918,1.165,1.165,0,0,0,.9.282,4.226,4.226,0,0,0,.872-.1V-.113a5.5,5.5,0,0,1-1.641.236q-2.871,0-2.871-3.168v-6.1h-3.4V0h-2.492V-9.146h-1.753v-1.948h11.771Zm17.76,3.076a15.625,15.625,0,0,1,.636-4.5,12.341,12.341,0,0,1,1.866-3.8,7.41,7.41,0,0,1,2.6-2.353l.492,1.456a7.612,7.612,0,0,0-2.343,3.348,14.994,14.994,0,0,0-.979,5.153l-.01.882a16.3,16.3,0,0,0,.877,5.542,8.168,8.168,0,0,0,2.456,3.707L138.5,4.748a7.423,7.423,0,0,1-2.61-2.364,12.34,12.34,0,0,1-1.866-3.8A16.241,16.241,0,0,1,133.393-6.07ZM152.5,0h-2.481V-11.994l-3.661,1.248v-2.092l5.824-2.143h.318Zm15.412-5.342h-5.383v-2.01h5.383Zm18.242-3.8h-1.63v6.009a1.364,1.364,0,0,0,.251.918,1.165,1.165,0,0,0,.9.282,4.226,4.226,0,0,0,.872-.1V-.113A5.5,5.5,0,0,1,184.9.123q-2.871,0-2.871-3.168v-6.1h-3.4V0h-2.492V-9.146h-1.753v-1.948h11.771Zm12.069,3.24a15.428,15.428,0,0,1-.625,4.394,12.449,12.449,0,0,1-1.9,3.855,7.429,7.429,0,0,1-2.656,2.4l-.492-1.384a7.88,7.88,0,0,0,2.435-3.635,16.147,16.147,0,0,0,.9-5.583v-.236a16.385,16.385,0,0,0-.779-5.194,9.161,9.161,0,0,0-2.235-3.758l-.318-.287.492-1.395a7.351,7.351,0,0,1,2.543,2.256,12.24,12.24,0,0,1,1.887,3.625,15.1,15.1,0,0,1,.738,4.137ZM233.071,0V-9.249h-1.692v-1.846h1.692V-12.11A3.811,3.811,0,0,1,234.1-14.96a3.928,3.928,0,0,1,2.871-1,5.759,5.759,0,0,1,1.395.185l-.062,1.948a4.908,4.908,0,0,0-.954-.082,1.6,1.6,0,0,0-1.784,1.835v.984h2.256v1.846h-2.256V0Zm6.1-5.65a6.542,6.542,0,0,1,.646-2.938,4.718,4.718,0,0,1,1.815-2.01,5.114,5.114,0,0,1,2.687-.7,4.846,4.846,0,0,1,3.645,1.446,5.687,5.687,0,0,1,1.512,3.835l.01.584a6.6,6.6,0,0,1-.631,2.933,4.661,4.661,0,0,1-1.8,2,5.151,5.151,0,0,1-2.712.708,4.813,4.813,0,0,1-3.758-1.564,5.989,5.989,0,0,1-1.41-4.168Zm2.492.215a4.471,4.471,0,0,0,.708,2.681,2.3,2.3,0,0,0,1.969.969,2.275,2.275,0,0,0,1.964-.984,4.938,4.938,0,0,0,.7-2.881,4.413,4.413,0,0,0-.723-2.666A2.308,2.308,0,0,0,244.32-9.3a2.287,2.287,0,0,0-1.938.969A4.844,4.844,0,0,0,241.664-5.435ZM257.4-8.818a6.166,6.166,0,0,0-1.015-.082,2.286,2.286,0,0,0-2.307,1.313V0H251.59V-11.095h2.379l.062,1.241a2.807,2.807,0,0,1,2.5-1.446,2.333,2.333,0,0,1,.882.144Zm42,.82h-8.839v-2.071H299.4Zm0,4.348h-8.839V-5.711H299.4Zm17.5-2.635a8.142,8.142,0,0,1-1.2,4.855A4.255,4.255,0,0,1,312.037.205a4.311,4.311,0,0,1-3.645-1.594,7.8,7.8,0,0,1-1.256-4.722V-8.7a8.02,8.02,0,0,1,1.2-4.83,4.3,4.3,0,0,1,3.676-1.61,4.319,4.319,0,0,1,3.656,1.569,7.775,7.775,0,0,1,1.236,4.7Zm-2.492-2.789a6.317,6.317,0,0,0-.574-3.081,1.96,1.96,0,0,0-1.825-.979,1.958,1.958,0,0,0-1.794.928,5.838,5.838,0,0,0-.6,2.9v3.384A6.48,6.48,0,0,0,310.2-2.81a1.963,1.963,0,0,0,1.835,1.025,1.929,1.929,0,0,0,1.774-.948,6.1,6.1,0,0,0,.6-2.969Zm5.209,12.438-1.343-.8A7.246,7.246,0,0,0,319.1.938a4.85,4.85,0,0,0,.231-1.41V-2.41h2.246l-.01,1.794a5,5,0,0,1-.549,2.179A5.413,5.413,0,0,1,319.625,3.363ZM330.473,0h-2.481V-11.994l-3.661,1.248v-2.092l5.824-2.143h.318Zm17.206,0a3.845,3.845,0,0,1-.287-1.036A3.879,3.879,0,0,1,344.48.205a3.914,3.914,0,0,1-2.728-.954A3.051,3.051,0,0,1,340.7-3.107a3.15,3.15,0,0,1,1.318-2.722,6.385,6.385,0,0,1,3.768-.948h1.528v-.728a1.943,1.943,0,0,0-.482-1.379,1.91,1.91,0,0,0-1.466-.518,2.195,2.195,0,0,0-1.395.426,1.317,1.317,0,0,0-.543,1.082h-2.492a2.765,2.765,0,0,1,.6-1.707,4.03,4.03,0,0,1,1.646-1.246,5.781,5.781,0,0,1,2.323-.451,4.655,4.655,0,0,1,3.107.979A3.492,3.492,0,0,1,349.8-7.567v5a5.671,5.671,0,0,0,.42,2.389V0Zm-2.738-1.794a2.834,2.834,0,0,0,1.389-.359,2.4,2.4,0,0,0,.979-.964V-5.209h-1.343a3.673,3.673,0,0,0-2.082.482,1.561,1.561,0,0,0-.7,1.364,1.456,1.456,0,0,0,.477,1.143A1.846,1.846,0,0,0,344.941-1.794Zm9.782-9.3.072,1.282a3.989,3.989,0,0,1,3.23-1.487q3.466,0,3.527,3.968V0h-2.492V-7.188a2.285,2.285,0,0,0-.456-1.564,1.919,1.919,0,0,0-1.492-.508A2.4,2.4,0,0,0,354.867-7.9V0h-2.492V-11.095Zm8.9,5.465a6.6,6.6,0,0,1,1.189-4.117A3.811,3.811,0,0,1,368-11.3a3.621,3.621,0,0,1,2.851,1.23V-15.75h2.492V0h-2.256l-.123-1.148A3.673,3.673,0,0,1,367.982.205a3.79,3.79,0,0,1-3.153-1.569A6.838,6.838,0,0,1,363.624-5.629Zm2.492.215a4.618,4.618,0,0,0,.651,2.64,2.113,2.113,0,0,0,1.851.948,2.353,2.353,0,0,0,2.235-1.364V-7.926a2.317,2.317,0,0,0-2.215-1.333,2.128,2.128,0,0,0-1.866.959A5.143,5.143,0,0,0,366.116-5.414Zm24.63-.872a8.142,8.142,0,0,1-1.2,4.855A4.255,4.255,0,0,1,385.875.205a4.311,4.311,0,0,1-3.645-1.594,7.8,7.8,0,0,1-1.256-4.722V-8.7a8.02,8.02,0,0,1,1.2-4.83,4.3,4.3,0,0,1,3.676-1.61,4.319,4.319,0,0,1,3.656,1.569,7.775,7.775,0,0,1,1.236,4.7Zm-2.492-2.789a6.317,6.317,0,0,0-.574-3.081,1.96,1.96,0,0,0-1.825-.979,1.958,1.958,0,0,0-1.794.928,5.838,5.838,0,0,0-.6,2.9v3.384a6.48,6.48,0,0,0,.584,3.117,1.963,1.963,0,0,0,1.835,1.025,1.929,1.929,0,0,0,1.774-.948,6.1,6.1,0,0,0,.6-2.969ZM405.47-7.249l6.05,2.067v2.243l-8.583-3.442V-8.162L411.52-11.6v2.243Zm6.142,7.044h-8.706v-2.01h8.706Zm24.045-8.941h-1.63v6.009a1.364,1.364,0,0,0,.251.918,1.165,1.165,0,0,0,.9.282,4.226,4.226,0,0,0,.872-.1V-.113a5.5,5.5,0,0,1-1.641.236q-2.871,0-2.871-3.168v-6.1h-3.4V0H425.64V-9.146h-1.753v-1.948h11.771Zm19.626,1.9,6.05,2.067v2.243l-8.583-3.442V-8.162l8.583-3.433v2.243Zm6.142,7.044H452.72v-2.01h8.706ZM481.1,0h-2.481V-11.994l-3.661,1.248v-2.092l5.824-2.143h.318Z" transform="translate(832.433 19025.646)" fill="#12263f"/>
    <path id="Trazado_705219" data-name="Trazado 705219" d="M.776,0H-.781V-5.812H.776ZM-.873-7.315A.764.764,0,0,1-.639-7.89.878.878,0,0,1,0-8.116a.88.88,0,0,1,.634.226.76.76,0,0,1,.236.575.762.762,0,0,1-.239.58A.882.882,0,0,1,0-6.51a.882.882,0,0,1-.631-.226A.762.762,0,0,1-.873-7.315Z" transform="translate(960.777 19014.533)" fill="#12263f"/>
    <path id="Trazado_705220" data-name="Trazado 705220" d="M.776,0H-.781V-5.812H.776ZM-.873-7.315A.764.764,0,0,1-.639-7.89.878.878,0,0,1,0-8.116a.88.88,0,0,1,.634.226.76.76,0,0,1,.236.575.762.762,0,0,1-.239.58A.882.882,0,0,1,0-6.51a.882.882,0,0,1-.631-.226A.762.762,0,0,1-.873-7.315Z" transform="translate(876.5 19030.83)" fill="#12263f"/>
    <path id="Trazado_705221" data-name="Trazado 705221" d="M0-6.521,1.87-9.953H4.228L1.33-5.018,4.3,0H1.917L0-3.486-1.911,0H-4.3l2.974-5.018-2.9-4.936h2.358Z" transform="translate(952.756 19011.41)" fill="#12263f"/>
    <path id="Trazado_205128" data-name="Trazado 205128" d="M-7754.615,4328.688v32.2" transform="translate(8637.817 14673.014)" fill="none" stroke="#12263f" stroke-width="1"/>
    <path id="Trazado_705222" data-name="Trazado 705222" d="M.776,0H-.781V-5.812H.776ZM-.873-7.315A.764.764,0,0,1-.639-7.89.878.878,0,0,1,0-8.116a.88.88,0,0,1,.634.226.76.76,0,0,1,.236.575.762.762,0,0,1-.239.58A.882.882,0,0,1,0-6.51a.882.882,0,0,1-.631-.226A.762.762,0,0,1-.873-7.315Z" transform="translate(1055.474 19008.033)" fill="#12263f"/>
    <path id="Trazado_705223" data-name="Trazado 705223" d="M0-6.521,1.87-9.953H4.228L1.33-5.018,4.3,0H1.917L0-3.486-1.911,0H-4.3l2.974-5.018-2.9-4.936h2.358Z" transform="translate(1049.474 19005.91)" fill="#12263f"/>
    <path id="Trazado_705224" data-name="Trazado 705224" d="M-1.523,0h-2.4V-9.247l-2.864.888V-10.31L-1.781-12.1h.257ZM7.168-4.208H2.494V-6.143H7.168Z" transform="translate(1033.33 19005.91)" fill="#12263f"/>
    <path id="Trazado_705225" data-name="Trazado 705225" d="M.776,0H-.781V-5.812H.776ZM-.873-7.315A.764.764,0,0,1-.639-7.89.878.878,0,0,1,0-8.116a.88.88,0,0,1,.634.226.76.76,0,0,1,.236.575.762.762,0,0,1-.239.58A.882.882,0,0,1,0-6.51a.882.882,0,0,1-.631-.226A.762.762,0,0,1-.873-7.315Z" transform="translate(1118.5 19026.758)" fill="#12263f"/>
    <path id="Trazado_705226" data-name="Trazado 705226" d="M0-9.316l2.666-4.9H6.04L1.9-7.168,6.147,0H2.739L0-4.98-2.729,0H-6.138L-1.89-7.168-6.03-14.219h3.369Z" transform="translate(1111.5 19024.758)" fill="#12263f"/>
  </g>
</svg>
