<svg xmlns="http://www.w3.org/2000/svg" width="505" height="328" viewBox="0 0 505 328">
  <g id="Grupo_973855" data-name="Grupo 973855" transform="translate(-286 -17488.957)">
    <path id="Trazado_197235" data-name="Trazado 197235" d="M-8277.575,758.5H-8258" transform="translate(8586.828 16744.957)" fill="none" stroke="#000" stroke-width="2"/>
    <g id="Grupo_166703" data-name="Grupo 166703" transform="translate(1 4842.958)">
      <rect id="Rect치ngulo_49819" data-name="Rect치ngulo 49819" width="505" height="328" transform="translate(285 12646)" fill="#ebf7ff"/>
      <rect id="Rect치ngulo_49820" data-name="Rect치ngulo 49820" width="505" height="5" transform="translate(285 12969)" fill="#2e0877"/>
      <path id="Trazado_177315" data-name="Trazado 177315" d="M-7869.546,806.484H-8259V611.859h2V804.484h387.454Z" transform="translate(8631.656 12086.606)"/>
      <path id="Trazado_177397" data-name="Trazado 177397" d="M8.43-4.7a5.762,5.762,0,0,1-.977,3.609A3.409,3.409,0,0,1,4.594.156,3.433,3.433,0,0,1,1.75-1.07,5.594,5.594,0,0,1,.742-4.586V-6.68A5.687,5.687,0,0,1,1.73-10.3a3.434,3.434,0,0,1,2.848-1.234,3.437,3.437,0,0,1,2.844,1.223A5.576,5.576,0,0,1,8.43-6.8ZM6.172-7a4.158,4.158,0,0,0-.387-2.059A1.307,1.307,0,0,0,4.578-9.7,1.284,1.284,0,0,0,3.4-9.09,3.891,3.891,0,0,0,3-7.172v2.766A4.365,4.365,0,0,0,3.379-2.34a1.29,1.29,0,0,0,1.215.676,1.268,1.268,0,0,0,1.2-.648A4.26,4.26,0,0,0,6.172-4.3Z" transform="translate(330.656 12897.606)" fill="#005acf"/>
      <path id="Trazado_177392" data-name="Trazado 177392" d="M1.109-5.594l.656-5.781H8.141v1.883H3.617L3.336-7.047a3.58,3.58,0,0,1,1.711-.43A3.279,3.279,0,0,1,7.594-6.469a4.026,4.026,0,0,1,.922,2.82,4.124,4.124,0,0,1-.465,1.973A3.281,3.281,0,0,1,6.719-.324a4.158,4.158,0,0,1-2.047.48A4.416,4.416,0,0,1,2.758-.262,3.4,3.4,0,0,1,1.363-1.437,3.2,3.2,0,0,1,.82-3.164H3.055a1.669,1.669,0,0,0,.5,1.105,1.573,1.573,0,0,0,1.113.395,1.388,1.388,0,0,0,1.18-.551,2.551,2.551,0,0,0,.414-1.559,2.11,2.11,0,0,0-.477-1.484A1.749,1.749,0,0,0,4.43-5.773a1.954,1.954,0,0,0-1.3.422l-.219.2Z" transform="translate(330.656 12850.606)" fill="#005acf"/>
      <path id="Trazado_177378" data-name="Trazado 177378" d="M6.258,0H4V-8.7l-2.7.836V-9.7l4.711-1.687h.242ZM17.609-4.7a5.763,5.763,0,0,1-.977,3.609A3.409,3.409,0,0,1,13.773.156,3.433,3.433,0,0,1,10.93-1.07,5.594,5.594,0,0,1,9.922-4.586V-6.68A5.687,5.687,0,0,1,10.91-10.3a3.434,3.434,0,0,1,2.848-1.234A3.437,3.437,0,0,1,16.6-10.309,5.576,5.576,0,0,1,17.609-6.8ZM15.352-7a4.158,4.158,0,0,0-.387-2.059A1.307,1.307,0,0,0,13.758-9.7a1.284,1.284,0,0,0-1.176.613,3.891,3.891,0,0,0-.4,1.918v2.766a4.365,4.365,0,0,0,.379,2.066,1.29,1.29,0,0,0,1.215.676,1.268,1.268,0,0,0,1.2-.648A4.26,4.26,0,0,0,15.352-4.3Z" transform="translate(325.656 12803.606)" fill="#005acf"/>
      <path id="Trazado_177373" data-name="Trazado 177373" d="M6.258,0H4V-8.7l-2.7.836V-9.7l4.711-1.687h.242Zm4.031-5.594.656-5.781H17.32v1.883H12.8l-.281,2.445a3.58,3.58,0,0,1,1.711-.43,3.279,3.279,0,0,1,2.547,1.008,4.026,4.026,0,0,1,.922,2.82,4.124,4.124,0,0,1-.465,1.973A3.281,3.281,0,0,1,15.9-.324a4.158,4.158,0,0,1-2.047.48,4.416,4.416,0,0,1-1.914-.418,3.4,3.4,0,0,1-1.395-1.176A3.2,3.2,0,0,1,10-3.164h2.234a1.669,1.669,0,0,0,.5,1.105,1.573,1.573,0,0,0,1.113.395,1.388,1.388,0,0,0,1.18-.551,2.551,2.551,0,0,0,.414-1.559,2.11,2.11,0,0,0-.477-1.484,1.749,1.749,0,0,0-1.352-.516,1.954,1.954,0,0,0-1.3.422l-.219.2Z" transform="translate(325.656 12756.606)" fill="#005acf"/>
      <path id="Trazado_177371" data-name="Trazado 177371" d="M8.57,0H.773V-1.547l3.68-3.922A9.078,9.078,0,0,0,5.574-6.914a2.322,2.322,0,0,0,.363-1.172,1.738,1.738,0,0,0-.383-1.191,1.382,1.382,0,0,0-1.094-.434,1.49,1.49,0,0,0-1.207.527A2.089,2.089,0,0,0,2.813-7.8H.547a3.729,3.729,0,0,1,.5-1.9,3.5,3.5,0,0,1,1.4-1.348A4.262,4.262,0,0,1,4.5-11.531a4.036,4.036,0,0,1,2.73.844A2.985,2.985,0,0,1,8.2-8.3a3.825,3.825,0,0,1-.437,1.719,9.551,9.551,0,0,1-1.5,2.039L3.68-1.82H8.57Zm9.039-4.7a5.763,5.763,0,0,1-.977,3.609A3.409,3.409,0,0,1,13.773.156,3.433,3.433,0,0,1,10.93-1.07,5.594,5.594,0,0,1,9.922-4.586V-6.68A5.687,5.687,0,0,1,10.91-10.3a3.434,3.434,0,0,1,2.848-1.234A3.437,3.437,0,0,1,16.6-10.309,5.576,5.576,0,0,1,17.609-6.8ZM15.352-7a4.158,4.158,0,0,0-.387-2.059A1.307,1.307,0,0,0,13.758-9.7a1.284,1.284,0,0,0-1.176.613,3.891,3.891,0,0,0-.4,1.918v2.766a4.365,4.365,0,0,0,.379,2.066,1.29,1.29,0,0,0,1.215.676,1.268,1.268,0,0,0,1.2-.648A4.26,4.26,0,0,0,15.352-4.3Z" transform="translate(325.656 12709.606)" fill="#005acf"/>
      <path id="Trazado_177403" data-name="Trazado 177403" d="M1.109-5.594l.656-5.781H8.141v1.883H3.617L3.336-7.047a3.58,3.58,0,0,1,1.711-.43A3.279,3.279,0,0,1,7.594-6.469a4.026,4.026,0,0,1,.922,2.82,4.124,4.124,0,0,1-.465,1.973A3.281,3.281,0,0,1,6.719-.324a4.158,4.158,0,0,1-2.047.48A4.416,4.416,0,0,1,2.758-.262,3.4,3.4,0,0,1,1.363-1.437,3.2,3.2,0,0,1,.82-3.164H3.055a1.669,1.669,0,0,0,.5,1.105,1.573,1.573,0,0,0,1.113.395,1.388,1.388,0,0,0,1.18-.551,2.551,2.551,0,0,0,.414-1.559,2.11,2.11,0,0,0-.477-1.484A1.749,1.749,0,0,0,4.43-5.773a1.954,1.954,0,0,0-1.3.422l-.219.2Z" transform="translate(422.656 12933.606)" fill="#005acf"/>
      <path id="Trazado_177404" data-name="Trazado 177404" d="M6.258,0H4V-8.7l-2.7.836V-9.7l4.711-1.687h.242ZM17.609-4.7a5.763,5.763,0,0,1-.977,3.609A3.409,3.409,0,0,1,13.773.156,3.433,3.433,0,0,1,10.93-1.07,5.594,5.594,0,0,1,9.922-4.586V-6.68A5.687,5.687,0,0,1,10.91-10.3a3.434,3.434,0,0,1,2.848-1.234A3.437,3.437,0,0,1,16.6-10.309,5.576,5.576,0,0,1,17.609-6.8ZM15.352-7a4.158,4.158,0,0,0-.387-2.059A1.307,1.307,0,0,0,13.758-9.7a1.284,1.284,0,0,0-1.176.613,3.891,3.891,0,0,0-.4,1.918v2.766a4.365,4.365,0,0,0,.379,2.066,1.29,1.29,0,0,0,1.215.676,1.268,1.268,0,0,0,1.2-.648A4.26,4.26,0,0,0,15.352-4.3Z" transform="translate(544.656 12933.606)" fill="#005acf"/>
      <path id="Trazado_177405" data-name="Trazado 177405" d="M6.258,0H4V-8.7l-2.7.836V-9.7l4.711-1.687h.242Zm4.031-5.594.656-5.781H17.32v1.883H12.8l-.281,2.445a3.58,3.58,0,0,1,1.711-.43,3.279,3.279,0,0,1,2.547,1.008,4.026,4.026,0,0,1,.922,2.82,4.124,4.124,0,0,1-.465,1.973A3.281,3.281,0,0,1,15.9-.324a4.158,4.158,0,0,1-2.047.48,4.416,4.416,0,0,1-1.914-.418,3.4,3.4,0,0,1-1.395-1.176A3.2,3.2,0,0,1,10-3.164h2.234a1.669,1.669,0,0,0,.5,1.105,1.573,1.573,0,0,0,1.113.395,1.388,1.388,0,0,0,1.18-.551,2.551,2.551,0,0,0,.414-1.559,2.11,2.11,0,0,0-.477-1.484,1.749,1.749,0,0,0-1.352-.516,1.954,1.954,0,0,0-1.3.422l-.219.2Z" transform="translate(652.656 12933.606)" fill="#005acf"/>
      <path id="Trazado_177406" data-name="Trazado 177406" d="M8.57,0H.773V-1.547l3.68-3.922A9.078,9.078,0,0,0,5.574-6.914a2.322,2.322,0,0,0,.363-1.172,1.738,1.738,0,0,0-.383-1.191,1.382,1.382,0,0,0-1.094-.434,1.49,1.49,0,0,0-1.207.527A2.089,2.089,0,0,0,2.813-7.8H.547a3.729,3.729,0,0,1,.5-1.9,3.5,3.5,0,0,1,1.4-1.348A4.262,4.262,0,0,1,4.5-11.531a4.036,4.036,0,0,1,2.73.844A2.985,2.985,0,0,1,8.2-8.3a3.825,3.825,0,0,1-.437,1.719,9.551,9.551,0,0,1-1.5,2.039L3.68-1.82H8.57Zm9.039-4.7a5.763,5.763,0,0,1-.977,3.609A3.409,3.409,0,0,1,13.773.156,3.433,3.433,0,0,1,10.93-1.07,5.594,5.594,0,0,1,9.922-4.586V-6.68A5.687,5.687,0,0,1,10.91-10.3a3.434,3.434,0,0,1,2.848-1.234A3.437,3.437,0,0,1,16.6-10.309,5.576,5.576,0,0,1,17.609-6.8ZM15.352-7a4.158,4.158,0,0,0-.387-2.059A1.307,1.307,0,0,0,13.758-9.7a1.284,1.284,0,0,0-1.176.613,3.891,3.891,0,0,0-.4,1.918v2.766a4.365,4.365,0,0,0,.379,2.066,1.29,1.29,0,0,0,1.215.676,1.268,1.268,0,0,0,1.2-.648A4.26,4.26,0,0,0,15.352-4.3Z" transform="translate(756.109 12933.606)" fill="#005acf"/>
      <path id="Trazado_177317" data-name="Trazado 177317" d="M-8258,759.5h-19.575v-2H-8258Z" transform="translate(8631.656 12086.606)"/>
      <path id="Trazado_177318" data-name="Trazado 177318" d="M-8258,759.5h-19.575v-2H-8258Z" transform="translate(8631.656 12039.606)"/>
      <path id="Trazado_177319" data-name="Trazado 177319" d="M-8258,759.5h-19.575v-2H-8258Z" transform="translate(8631.656 11992.606)"/>
      <path id="Trazado_177321" data-name="Trazado 177321" d="M-8258,759.5h-19.575v-2H-8258Z" transform="translate(-331.344 4634.091) rotate(-90)"/>
      <path id="Trazado_177322" data-name="Trazado 177322" d="M-8258,759.5h-19.575v-2H-8258Z" transform="translate(-204.844 4634.091) rotate(-90)"/>
      <path id="Trazado_177323" data-name="Trazado 177323" d="M-8258,759.5h-19.575v-2H-8258Z" transform="translate(-96.844 4634.091) rotate(-90)"/>
      <path id="Trazado_177324" data-name="Trazado 177324" d="M-8258,759.5h-19.575v-2H-8258Z" transform="translate(3.609 4634.091) rotate(-90)"/>
      <path id="Trazado_177325" data-name="Trazado 177325" d="M-8220.59,1012.661l-.3-1.978,135.114-20.287,108.665-19.562.187.037,97.492,19.531-.393,1.961-97.306-19.494-108.334,19.5Z" transform="translate(8631.656 11783.606)" fill="#7125c8"/>
      <path id="Trazado_177379" data-name="Trazado 177379" d="M4.5,0A4.5,4.5,0,1,1,0,4.5,4.5,4.5,0,0,1,4.5,0Z" transform="translate(409.656 12790.606)" fill="#7125c8"/>
      <path id="Trazado_177377" data-name="Trazado 177377" d="M4.5,0A4.5,4.5,0,1,1,0,4.5,4.5,4.5,0,0,1,4.5,0Z" transform="translate(494.656 12777.606)" fill="#7125c8"/>
      <path id="Trazado_177375" data-name="Trazado 177375" d="M4.5,0A4.5,4.5,0,1,1,0,4.5,4.5,4.5,0,0,1,4.5,0Z" transform="translate(648.656 12751.606)" fill="#7125c8"/>
      <path id="Trazado_177376" data-name="Trazado 177376" d="M4.5,0A4.5,4.5,0,1,1,0,4.5,4.5,4.5,0,0,1,4.5,0Z" transform="translate(747.656 12770.606)" fill="#7125c8"/>
      <path id="Trazado_177380" data-name="Trazado 177380" d="M5.086-7.453l2.133-3.922h2.7L6.6-5.734,10,0H7.273L5.086-3.984,2.9,0H.172l3.4-5.734L.258-11.375h2.7Z" transform="translate(300.828 12803.606)" fill="#005acf"/>
    </g>
  </g>
</svg>
