<svg xmlns="http://www.w3.org/2000/svg" width="496" height="155" viewBox="0 0 496 155">
  <g id="Grupo_974111" data-name="Grupo 974111" transform="translate(-311 -6937)">
    <rect id="Rectángulo_50148" data-name="Rectángulo 50148" width="496" height="155" rx="10" transform="translate(311 6937)" fill="#a4a3ff"/>
    <g id="Grupo_166722" data-name="Grupo 166722" transform="translate(9627 14237)">
      <path id="Trazado_705085" data-name="Trazado 705085" d="M20.221,6.061q0,9.176-4.645,13.934T1.982,24.752a19.886,19.886,0,0,1-6.514-1.133l1.02-8.213a16.869,16.869,0,0,0,4.475.736q8.779,0,8.779-10.025V-67.8q0-9.629,5.013-15.01t14.132-5.381A34.466,34.466,0,0,1,37.043-87l-1.359,8.043a18.321,18.321,0,0,0-5.154-.623q-10.309,0-10.309,12.4Z" transform="translate(-9276.066 -7183.569)" fill="#fff"/>
      <path id="Trazado_705086" data-name="Trazado 705086" d="M4.871-5.038H.343v-1.4H4.871Zm18.879.148a5.7,5.7,0,0,1-.584,2.551,4.571,4.571,0,0,1-1.619,1.86,4.139,4.139,0,0,1-2.305.673,3.909,3.909,0,0,1-2.449-.854,6.408,6.408,0,0,1-1.846-2.5A6.427,6.427,0,0,1,13.1-.649a3.886,3.886,0,0,1-2.431.844,4.159,4.159,0,0,1-2.3-.663A4.582,4.582,0,0,1,6.745-2.319a5.706,5.706,0,0,1-.594-2.588V-5.13a5.7,5.7,0,0,1,.584-2.551A4.6,4.6,0,0,1,8.354-9.546a4.1,4.1,0,0,1,2.3-.677,3.9,3.9,0,0,1,2.445.849,6.445,6.445,0,0,1,1.851,2.51,6.426,6.426,0,0,1,1.851-2.5,3.928,3.928,0,0,1,2.463-.858,4.076,4.076,0,0,1,3.2,1.48A5.478,5.478,0,0,1,23.75-5.01Zm-15.883,0a4.305,4.305,0,0,0,.77,2.663,2.424,2.424,0,0,0,2.032,1.021,2.633,2.633,0,0,0,1.916-.872,5.888,5.888,0,0,0,1.341-2.384l.1-.362v-.39a6.573,6.573,0,0,0-.751-1.809A4.049,4.049,0,0,0,12.07-8.364a2.526,2.526,0,0,0-1.419-.45A2.406,2.406,0,0,0,8.637-7.793a4.436,4.436,0,0,0-.77,2.737ZM22.034-5.13a4.318,4.318,0,0,0-.77-2.649,2.388,2.388,0,0,0-2-1.034,2.681,2.681,0,0,0-1.939.877A5.91,5.91,0,0,0,15.957-5.5l-.083.288v.39A6.28,6.28,0,0,0,16.62-3.01a4.118,4.118,0,0,0,1.211,1.359,2.5,2.5,0,0,0,1.41.445,2.4,2.4,0,0,0,2.027-1.03,4.481,4.481,0,0,0,.765-2.737Z" transform="translate(-9237.969 -7153.168)" fill="#fff"/>
      <path id="Trazado_705087" data-name="Trazado 705087" d="M6.216-7.246H9.982v1.624H6.216v4.268H4.49V-5.622H.724V-7.246H4.49v-3.943H6.216ZM29.279-4.889a5.7,5.7,0,0,1-.584,2.551,4.571,4.571,0,0,1-1.619,1.86,4.139,4.139,0,0,1-2.305.673,3.909,3.909,0,0,1-2.449-.854,6.408,6.408,0,0,1-1.846-2.5,6.427,6.427,0,0,1-1.846,2.5A3.886,3.886,0,0,1,16.2.195a4.159,4.159,0,0,1-2.3-.663,4.582,4.582,0,0,1-1.624-1.851,5.706,5.706,0,0,1-.594-2.588V-5.13a5.7,5.7,0,0,1,.584-2.551,4.6,4.6,0,0,1,1.619-1.865,4.1,4.1,0,0,1,2.3-.677,3.9,3.9,0,0,1,2.445.849,6.445,6.445,0,0,1,1.851,2.51,6.426,6.426,0,0,1,1.851-2.5,3.928,3.928,0,0,1,2.463-.858,4.076,4.076,0,0,1,3.2,1.48,5.478,5.478,0,0,1,1.29,3.734Zm-15.883,0a4.305,4.305,0,0,0,.77,2.663A2.424,2.424,0,0,0,16.2-1.206a2.633,2.633,0,0,0,1.916-.872,5.888,5.888,0,0,0,1.341-2.384l.1-.362v-.39a6.573,6.573,0,0,0-.751-1.809A4.049,4.049,0,0,0,17.6-8.364a2.526,2.526,0,0,0-1.419-.45,2.406,2.406,0,0,0-2.013,1.021,4.436,4.436,0,0,0-.77,2.737ZM27.563-5.13a4.318,4.318,0,0,0-.77-2.649,2.388,2.388,0,0,0-2-1.034,2.681,2.681,0,0,0-1.939.877A5.91,5.91,0,0,0,21.486-5.5l-.083.288v.39A6.28,6.28,0,0,0,22.15-3.01,4.118,4.118,0,0,0,23.36-1.651a2.5,2.5,0,0,0,1.41.445A2.4,2.4,0,0,0,26.8-2.236a4.481,4.481,0,0,0,.765-2.737Z" transform="translate(-9237.969 -7262.623)" fill="#fff"/>
      <path id="Trazado_705088" data-name="Trazado 705088" d="M5.91-26.26A68.7,68.7,0,0,1,8.6-45.544a56.019,56.019,0,0,1,8.02-16.8Q21.95-69.894,27.682-73l1.688,5.421q-6.487,4.977-10.642,15.2A65.878,65.878,0,0,0,14.174-29.5l-.044,3.777q0,17.151,6.265,29.771a35.556,35.556,0,0,0,8.976,11.819l-1.688,5.021Q21.772,17.6,16.4,9.864,5.91-5.243,5.91-26.26Z" transform="translate(-9194.186 -7184.836)" fill="#fff"/>
      <path id="Trazado_705089" data-name="Trazado 705089" d="M4.156-18.469A48.315,48.315,0,0,1,6.047-32.031a39.4,39.4,0,0,1,5.641-11.812,24,24,0,0,1,7.781-7.5l1.188,3.813q-4.563,3.5-7.484,10.688a46.332,46.332,0,0,0-3.2,16.094l-.031,2.656q0,12.063,4.406,20.938a25.006,25.006,0,0,0,6.313,8.313l-1.187,3.531a24.767,24.767,0,0,1-7.937-7.75Q4.156-3.688,4.156-18.469Z" transform="translate(-8995.482 -7230.266)" fill="#fff"/>
      <path id="Trazado_705090" data-name="Trazado 705090" d="M24.917-25.532A67.975,67.975,0,0,1,22.346-6.746,55.552,55.552,0,0,1,14.48,9.844q-5.3,7.6-11.1,10.811L1.67,15.688Q8.437,10.5,12.546-.417a69.677,69.677,0,0,0,4.2-24.236V-26.06A72.344,72.344,0,0,0,14.81-43.22,57.917,57.917,0,0,0,9.426-57.437a32.836,32.836,0,0,0-7.756-9.8L3.384-72.2q5.8,3.208,11.052,10.723A55.67,55.67,0,0,1,22.3-44.912,69.545,69.545,0,0,1,24.917-25.532Z" transform="translate(-9025.793 -7185.836)" fill="#fff"/>
      <path id="Trazado_705091" data-name="Trazado 705091" d="M17.719-18.156A48.338,48.338,0,0,1,15.891-4.8,39.5,39.5,0,0,1,10.3,7a24.508,24.508,0,0,1-7.891,7.688L1.188,11.156Q6,7.469,8.922-.3a49.548,49.548,0,0,0,2.984-17.234v-1a51.444,51.444,0,0,0-1.375-12.2A41.185,41.185,0,0,0,6.7-40.844a23.35,23.35,0,0,0-5.516-6.969l1.219-3.531a24.413,24.413,0,0,1,7.859,7.625,39.588,39.588,0,0,1,5.594,11.781A49.454,49.454,0,0,1,17.719-18.156Z" transform="translate(-8861.934 -7230.266)" fill="#fff"/>
      <path id="Trazado_705092" data-name="Trazado 705092" d="M3.182-14.14A36.991,36.991,0,0,1,4.63-24.524a30.164,30.164,0,0,1,4.319-9.044,18.372,18.372,0,0,1,5.958-5.742l.909,2.919a19.056,19.056,0,0,0-5.73,8.183A35.473,35.473,0,0,0,7.632-15.887l-.024,2.034a35.658,35.658,0,0,0,3.374,16.03,19.146,19.146,0,0,0,4.833,6.364l-.909,2.7A18.962,18.962,0,0,1,8.829,5.312Q3.182-2.823,3.182-14.14Z" transform="translate(-8940.756 -7240.675)" fill="#fff"/>
      <path id="Trazado_705093" data-name="Trazado 705093" d="M13.566-13.9a37.009,37.009,0,0,1-1.4,10.228A30.245,30.245,0,0,1,7.884,5.359a18.764,18.764,0,0,1-6.041,5.886l-.933-2.7Q4.594,5.718,6.831-.227a37.935,37.935,0,0,0,2.285-13.2v-.766a39.387,39.387,0,0,0-1.053-9.343,31.532,31.532,0,0,0-2.931-7.74A17.878,17.878,0,0,0,.909-36.606l.933-2.7A18.691,18.691,0,0,1,7.86-33.472a30.309,30.309,0,0,1,4.283,9.02A37.863,37.863,0,0,1,13.566-13.9Z" transform="translate(-8880.133 -7240.675)" fill="#fff"/>
      <path id="Trazado_197248" data-name="Trazado 197248" d="M-9212.887-7619.241l7.146-4.342,5.095,14.156,7.732-29.538h73.451" transform="translate(70.799 442.115)" fill="none" stroke="#fff" stroke-width="4"/>
      <path id="Trazado_705094" data-name="Trazado 705094" d="M10.323,0H7.689V-17.459L2.407-15.52V-17.9l7.5-2.818h.411Z" transform="translate(-9103.795 -7221.366)" fill="#fff"/>
      <path id="Trazado_705095" data-name="Trazado 705095" d="M7.119,0H5.3V-12.041L1.66-10.7v-1.641l5.176-1.943h.283Z" transform="translate(-8964.195 -7255.259)" fill="#fff"/>
      <path id="Trazado_705096" data-name="Trazado 705096" d="M10.5,0H1.182V-1.3L6.1-6.768A11.693,11.693,0,0,0,7.612-8.784a3.366,3.366,0,0,0,.415-1.606,2.551,2.551,0,0,0-.674-1.826,2.356,2.356,0,0,0-1.8-.713,2.79,2.79,0,0,0-2.095.767,2.928,2.928,0,0,0-.747,2.134H.908A4.194,4.194,0,0,1,2.173-13.2a4.688,4.688,0,0,1,3.384-1.211,4.5,4.5,0,0,1,3.135,1.04,3.548,3.548,0,0,1,1.152,2.769q0,2.1-2.676,5L3.359-1.475H10.5Z" transform="translate(-8964.195 -7221.429)" fill="#fff"/>
      <path id="Trazado_705097" data-name="Trazado 705097" d="M10.5,0H1.182V-1.3L6.1-6.768A11.693,11.693,0,0,0,7.612-8.784a3.366,3.366,0,0,0,.415-1.606,2.551,2.551,0,0,0-.674-1.826,2.356,2.356,0,0,0-1.8-.713,2.79,2.79,0,0,0-2.095.767,2.928,2.928,0,0,0-.747,2.134H.908A4.194,4.194,0,0,1,2.173-13.2a4.688,4.688,0,0,1,3.384-1.211,4.5,4.5,0,0,1,3.135,1.04,3.548,3.548,0,0,1,1.152,2.769q0,2.1-2.676,5L3.359-1.475H10.5Z" transform="translate(-8908.23 -7221.429)" fill="#fff"/>
      <path id="Trazado_705098" data-name="Trazado 705098" d="M11.023,0H1.241V-1.364L6.409-7.106A12.278,12.278,0,0,0,7.993-9.223a3.534,3.534,0,0,0,.436-1.687,2.679,2.679,0,0,0-.708-1.917,2.474,2.474,0,0,0-1.887-.749,2.93,2.93,0,0,0-2.2.8,3.075,3.075,0,0,0-.784,2.24H.954a4.4,4.4,0,0,1,1.328-3.333,4.923,4.923,0,0,1,3.553-1.271,4.73,4.73,0,0,1,3.292,1.092,3.725,3.725,0,0,1,1.21,2.907q0,2.2-2.81,5.25l-4,4.337h7.5Z" transform="translate(-9047.684 -7178.269)" fill="#fff"/>
      <path id="Trazado_705099" data-name="Trazado 705099" d="M11.023,0H1.241V-1.364L6.409-7.106A12.278,12.278,0,0,0,7.993-9.223a3.534,3.534,0,0,0,.436-1.687,2.679,2.679,0,0,0-.708-1.917,2.474,2.474,0,0,0-1.887-.749,2.93,2.93,0,0,0-2.2.8,3.075,3.075,0,0,0-.784,2.24H.954a4.4,4.4,0,0,1,1.328-3.333,4.923,4.923,0,0,1,3.553-1.271,4.73,4.73,0,0,1,3.292,1.092,3.725,3.725,0,0,1,1.21,2.907q0,2.2-2.81,5.25l-4,4.337h7.5Z" transform="translate(-8873.398 -7275.095)" fill="#fff"/>
      <path id="Trazado_197249" data-name="Trazado 197249" d="M-9613.244-9288.434h121.528" transform="translate(452.731 2079.797)" fill="#fff" stroke="#fff" stroke-width="3"/>
      <path id="Trazado_197251" data-name="Trazado 197251" d="M-9613.244-9288.434h18.354" transform="translate(645.765 2043.298)" fill="#fff" stroke="#fff" stroke-width="3"/>
      <path id="Trazado_197253" data-name="Trazado 197253" d="M-9613.244-9288.434h44.405" transform="translate(688.705 2043.298)" fill="#fff" stroke="#fff" stroke-width="3"/>
      <path id="Trazado_197252" data-name="Trazado 197252" d="M-9613.244-9288.434h10.161" transform="translate(632.909 2043.298)" fill="#fff" stroke="#fff" stroke-width="3"/>
      <path id="Trazado_705100" data-name="Trazado 705100" d="M15.747,0H1.772V-1.948l7.383-8.2a17.54,17.54,0,0,0,2.263-3.025,5.049,5.049,0,0,0,.623-2.41,3.827,3.827,0,0,0-1.011-2.739,3.534,3.534,0,0,0-2.7-1.069,4.185,4.185,0,0,0-3.142,1.15,4.392,4.392,0,0,0-1.121,3.2H1.362a6.291,6.291,0,0,1,1.9-4.761,7.032,7.032,0,0,1,5.076-1.816,6.757,6.757,0,0,1,4.7,1.56,5.321,5.321,0,0,1,1.729,4.153q0,3.149-4.014,7.5l-5.713,6.2H15.747ZM33.5-13.608H31.216v9.592a2.174,2.174,0,0,0,.4,1.416,1.665,1.665,0,0,0,1.348.477A4.323,4.323,0,0,0,34.233-2.3l.015,2.2a8.011,8.011,0,0,1-2.095.276q-3.647,0-3.647-4.307v-9.478H22.632V0h-2.71V-13.608H17.446V-15.85H33.5Z" transform="translate(-9119.424 -7163.707)" fill="#fff"/>
      <path id="Trazado_705101" data-name="Trazado 705101" d="M10.7-6.091a7.459,7.459,0,0,0,5.944-2.547,11.35,11.35,0,0,0,2.4-7.136l.018-1.192a10.689,10.689,0,0,0-2.023-6.865,6.641,6.641,0,0,0-5.474-2.529,7.211,7.211,0,0,0-5.583,2.24v-9.395H2.62v17.994A11.429,11.429,0,0,0,3.64-10.535,7.674,7.674,0,0,0,6.513-7.247,7.733,7.733,0,0,0,10.7-6.091ZM5.98-20.978a4.928,4.928,0,0,1,4.589-2.656,4.513,4.513,0,0,1,3.794,1.761,8.6,8.6,0,0,1,1.355,5.284,10.525,10.525,0,0,1-1.31,5.727A4.174,4.174,0,0,1,10.7-8.837a3.946,3.946,0,0,1-3.415-1.951,8.852,8.852,0,0,1-1.3-5Z" transform="translate(-9083.941 -7183.09) rotate(97)" fill="#fff"/>
      <path id="Trazado_705102" data-name="Trazado 705102" d="M6.6-9.208l3.579-5.722H12.5l-4.717,7.4L12.612,0H10.274L6.6-5.824,2.912,0H.584l4.84-7.526L.7-14.93H3Zm11.474,3.64h-5V-7.116h5Z" transform="translate(-8921.256 -7255.259)" fill="#fff"/>
      <g id="X_" data-name="X " transform="translate(-8899.498 -7279.781)" style="isolation: isolate">
        <text id="_" data-name="µ" transform="translate(0 22)" fill="#fff" font-size="24" font-family="Roboto-Medium, Roboto" font-weight="500" style="isolation: isolate"><tspan x="0" y="0">µ</tspan></text>
      </g>
    </g>
  </g>
</svg>
