<svg xmlns="http://www.w3.org/2000/svg" width="665" height="81" viewBox="0 0 665 81">
  <g id="Grupo_973860" data-name="Grupo 973860" transform="translate(-285 -19287.207)">
    <g id="Grupo_974122" data-name="Grupo 974122">
      <rect id="Rectángulo_50167" data-name="Rectángulo 50167" width="665" height="81" rx="10" transform="translate(285 19287.207)" fill="#25ffff"/>
      <path id="Trazado_705228" data-name="Trazado 705228" d="M8.675-5.423H3.524V0H1.3V-12.8h8.13V-11H3.524V-7.2h5.15Zm6.82.22a13.393,13.393,0,0,1,.545-3.854,10.578,10.578,0,0,1,1.6-3.261,6.351,6.351,0,0,1,2.232-2.017l.422,1.248a6.524,6.524,0,0,0-2.008,2.87A12.852,12.852,0,0,0,17.446-5.8l-.009.756a13.972,13.972,0,0,0,.751,4.75,7,7,0,0,0,2.1,3.177l-.422,1.187a6.362,6.362,0,0,1-2.237-2.026,10.577,10.577,0,0,1-1.6-3.261A13.921,13.921,0,0,1,15.5-5.2Zm9.659-1.178L26.965-9.51h2.373L26.429-4.825,29.435,0H27.079l-1.9-3.252L23.291,0H20.918l3.006-4.825-2.9-4.685h2.355ZM34.91-5.062A13.224,13.224,0,0,1,34.374-1.3a10.671,10.671,0,0,1-1.626,3.3,6.367,6.367,0,0,1-2.276,2.061L30.05,2.883A6.754,6.754,0,0,0,32.137-.233a13.84,13.84,0,0,0,.769-4.786v-.2a14.044,14.044,0,0,0-.668-4.452,7.852,7.852,0,0,0-1.916-3.221l-.272-.246.422-1.2a6.3,6.3,0,0,1,2.18,1.934,10.491,10.491,0,0,1,1.617,3.107A12.941,12.941,0,0,1,34.9-5.748ZM49.377-6.855H41.8V-8.631h7.576Zm0,3.727H41.8V-4.9h7.576Z" transform="translate(354 19335.207)" fill="#12263f"/>
      <path id="Trazado_705229" data-name="Trazado 705229" d="M10.485-7.84h-1.4v5.15A1.169,1.169,0,0,0,9.3-1.9a1,1,0,0,0,.769.242,3.622,3.622,0,0,0,.747-.088V-.1a4.715,4.715,0,0,1-1.406.2Q6.952.105,6.952-2.61V-7.84H4.034V0H1.9V-7.84H.4V-9.51h10.09ZM21.226-5.2a13.393,13.393,0,0,1,.545-3.854,10.578,10.578,0,0,1,1.6-3.261A6.351,6.351,0,0,1,25.6-14.335l.422,1.248a6.524,6.524,0,0,0-2.008,2.87A12.852,12.852,0,0,0,23.177-5.8l-.009.756a13.972,13.972,0,0,0,.751,4.75,7,7,0,0,0,2.1,3.177L25.6,4.069a6.362,6.362,0,0,1-2.237-2.026,10.577,10.577,0,0,1-1.6-3.261A13.921,13.921,0,0,1,21.226-5.2ZM37.6,0H35.473V-10.281l-3.138,1.07V-11l4.992-1.837H37.6ZM50.81-4.579H46.2V-6.3H50.81ZM66.445-7.84h-1.4v5.15a1.169,1.169,0,0,0,.215.787,1,1,0,0,0,.769.242,3.622,3.622,0,0,0,.747-.088V-.1a4.715,4.715,0,0,1-1.406.2q-2.461,0-2.461-2.716V-7.84H59.994V0H57.858V-7.84h-1.5V-9.51h10.09ZM76.79-5.062A13.224,13.224,0,0,1,76.254-1.3a10.671,10.671,0,0,1-1.626,3.3,6.367,6.367,0,0,1-2.276,2.061L71.93,2.883A6.754,6.754,0,0,0,74.017-.233a13.84,13.84,0,0,0,.769-4.786v-.2a14.044,14.044,0,0,0-.668-4.452A7.852,7.852,0,0,0,72.2-12.894l-.272-.246.422-1.2a6.3,6.3,0,0,1,2.18,1.934,10.491,10.491,0,0,1,1.617,3.107,12.941,12.941,0,0,1,.633,3.546ZM84.2-11.547l.036.641a1.994,1.994,0,0,1,1.615-.743q1.733,0,1.764,1.984V-6H86.369V-9.594a1.142,1.142,0,0,0-.228-.782.96.96,0,0,0-.746-.254,1.2,1.2,0,0,0-1.123.682V-6H83.027v-5.547Zm9.715,2.876H91.224v-1h2.691ZM99.55-9.722l1.056-1.825h1.384l-1.7,2.733L102.046-6h-1.374L99.565-7.9,98.463-6H97.079l1.753-2.815L97.14-11.547h1.374Z" transform="translate(500 19335.207)" fill="#12263f"/>
      <path id="Trazado_705230" data-name="Trazado 705230" d="M1.846,0V-7.928H.4V-9.51h1.45v-.87a3.266,3.266,0,0,1,.879-2.443,3.367,3.367,0,0,1,2.461-.861,4.936,4.936,0,0,1,1.2.158l-.053,1.67a4.207,4.207,0,0,0-.817-.07,1.371,1.371,0,0,0-1.529,1.573v.844H5.915v1.582H3.981V0ZM7.075-4.843a5.607,5.607,0,0,1,.554-2.518A4.044,4.044,0,0,1,9.185-9.083a4.383,4.383,0,0,1,2.3-.6,4.154,4.154,0,0,1,3.125,1.239,4.874,4.874,0,0,1,1.3,3.287l.009.5a5.658,5.658,0,0,1-.541,2.514A4,4,0,0,1,13.83-.431,4.415,4.415,0,0,1,11.5.176a4.125,4.125,0,0,1-3.221-1.34A5.133,5.133,0,0,1,7.075-4.737Zm2.136.185a3.832,3.832,0,0,0,.606,2.3,1.971,1.971,0,0,0,1.688.831,1.95,1.95,0,0,0,1.683-.844,4.232,4.232,0,0,0,.6-2.47,3.782,3.782,0,0,0-.62-2.285,1.979,1.979,0,0,0-1.683-.844,1.96,1.96,0,0,0-1.661.831A4.152,4.152,0,0,0,9.211-4.658ZM22.7-7.559a5.285,5.285,0,0,0-.87-.07A1.959,1.959,0,0,0,19.854-6.5V0H17.719V-9.51h2.039l.053,1.063a2.406,2.406,0,0,1,2.145-1.239,2,2,0,0,1,.756.123Zm36,.7H51.126V-8.631H58.7Zm0,3.727H51.126V-4.9H58.7Zm15-2.259a6.979,6.979,0,0,1-1.033,4.162A3.647,3.647,0,0,1,69.53.176a3.7,3.7,0,0,1-3.125-1.367,6.683,6.683,0,0,1-1.077-4.047V-7.453a6.874,6.874,0,0,1,1.033-4.14,3.681,3.681,0,0,1,3.151-1.38,3.7,3.7,0,0,1,3.133,1.345A6.664,6.664,0,0,1,73.705-7.6ZM71.569-7.778a5.415,5.415,0,0,0-.492-2.641,1.68,1.68,0,0,0-1.564-.839,1.679,1.679,0,0,0-1.538.8,5,5,0,0,0-.519,2.483v2.9a5.555,5.555,0,0,0,.5,2.672,1.683,1.683,0,0,0,1.573.879,1.653,1.653,0,0,0,1.521-.813,5.226,5.226,0,0,0,.519-2.544ZM76.034,2.883,74.883,2.2A6.21,6.21,0,0,0,75.582.8a4.157,4.157,0,0,0,.2-1.208V-2.065H77.7L77.7-.527a4.287,4.287,0,0,1-.47,1.868A4.64,4.64,0,0,1,76.034,2.883ZM85.333,0H83.206V-10.281l-3.138,1.07V-11l4.992-1.837h.272ZM90.22,2.883,89.068,2.2A6.21,6.21,0,0,0,89.767.8a4.157,4.157,0,0,0,.2-1.208V-2.065H91.89L91.881-.527a4.287,4.287,0,0,1-.47,1.868A4.64,4.64,0,0,1,90.22,2.883ZM102.34,0h-8.6V-1.468L98-6.117a10.615,10.615,0,0,0,1.314-1.718A2.784,2.784,0,0,0,99.7-9.22a2.1,2.1,0,0,0-.514-1.477,1.783,1.783,0,0,0-1.384-.562,2.056,2.056,0,0,0-1.608.633,2.489,2.489,0,0,0-.571,1.731H93.489a4.186,4.186,0,0,1,.532-2.1,3.662,3.662,0,0,1,1.521-1.455,4.84,4.84,0,0,1,2.281-.519,4.329,4.329,0,0,1,2.94.936,3.249,3.249,0,0,1,1.077,2.588A4.392,4.392,0,0,1,101.3-7.44a11.42,11.42,0,0,1-1.771,2.386L96.4-1.705h5.941Zm7.6-2.25a1.22,1.22,0,0,1,.923.338,1.175,1.175,0,0,1,.325.848,1.134,1.134,0,0,1-.325.831,1.238,1.238,0,0,1-.923.33,1.242,1.242,0,0,1-.905-.325,1.115,1.115,0,0,1-.334-.835,1.175,1.175,0,0,1,.325-.848A1.208,1.208,0,0,1,109.942-2.25Zm4.025,0a1.22,1.22,0,0,1,.923.338,1.175,1.175,0,0,1,.325.848,1.134,1.134,0,0,1-.325.831,1.238,1.238,0,0,1-.923.33,1.242,1.242,0,0,1-.905-.325,1.115,1.115,0,0,1-.334-.835,1.175,1.175,0,0,1,.325-.848A1.208,1.208,0,0,1,113.968-2.25Zm3.876,0a1.22,1.22,0,0,1,.923.338,1.175,1.175,0,0,1,.325.848,1.134,1.134,0,0,1-.325.831,1.238,1.238,0,0,1-.923.33,1.242,1.242,0,0,1-.905-.325,1.115,1.115,0,0,1-.334-.835,1.175,1.175,0,0,1,.325-.848A1.208,1.208,0,0,1,117.844-2.25Zm9.914-7.26.062,1.1a3.419,3.419,0,0,1,2.769-1.274q2.971,0,3.023,3.4V0h-2.136V-6.161a1.958,1.958,0,0,0-.391-1.34,1.645,1.645,0,0,0-1.279-.435,2.058,2.058,0,0,0-1.925,1.169V0h-2.136V-9.51ZM136.09,2.883,134.938,2.2a6.21,6.21,0,0,0,.7-1.393,4.157,4.157,0,0,0,.2-1.208V-2.065h1.925l-.009,1.538a4.287,4.287,0,0,1-.47,1.868A4.64,4.64,0,0,1,136.09,2.883ZM149.906,0a3.3,3.3,0,0,1-.246-.888,3.325,3.325,0,0,1-2.5,1.063,3.355,3.355,0,0,1-2.338-.817,2.615,2.615,0,0,1-.905-2.021A2.7,2.7,0,0,1,145.05-5a5.473,5.473,0,0,1,3.23-.813h1.31v-.624a1.666,1.666,0,0,0-.413-1.182,1.638,1.638,0,0,0-1.257-.444,1.881,1.881,0,0,0-1.2.365,1.129,1.129,0,0,0-.466.927h-2.136a2.37,2.37,0,0,1,.519-1.463A3.455,3.455,0,0,1,146.052-9.3a4.955,4.955,0,0,1,1.991-.387,3.99,3.99,0,0,1,2.663.839,2.993,2.993,0,0,1,1.02,2.36V-2.2a4.861,4.861,0,0,0,.36,2.048V0ZM147.56-1.538a2.429,2.429,0,0,0,1.191-.308,2.055,2.055,0,0,0,.839-.826V-4.465h-1.151a3.148,3.148,0,0,0-1.784.413,1.338,1.338,0,0,0-.6,1.169,1.248,1.248,0,0,0,.409.98A1.583,1.583,0,0,0,147.56-1.538Zm8.385-7.972.062,1.1a3.419,3.419,0,0,1,2.769-1.274q2.971,0,3.023,3.4V0h-2.136V-6.161a1.958,1.958,0,0,0-.391-1.34,1.645,1.645,0,0,0-1.279-.435,2.058,2.058,0,0,0-1.925,1.169V0h-2.136V-9.51Zm7.629,4.685a5.654,5.654,0,0,1,1.02-3.529,3.267,3.267,0,0,1,2.733-1.332,3.1,3.1,0,0,1,2.443,1.055V-13.5h2.136V0h-1.934l-.105-.984a3.148,3.148,0,0,1-2.558,1.16,3.248,3.248,0,0,1-2.7-1.345A5.861,5.861,0,0,1,163.573-4.825Zm2.136.185a3.958,3.958,0,0,0,.558,2.263,1.811,1.811,0,0,0,1.586.813,2.017,2.017,0,0,0,1.916-1.169V-6.794a1.986,1.986,0,0,0-1.9-1.143,1.824,1.824,0,0,0-1.6.822A4.408,4.408,0,0,0,165.709-4.641Zm21.111-.747a6.979,6.979,0,0,1-1.033,4.162,3.647,3.647,0,0,1-3.142,1.4,3.7,3.7,0,0,1-3.125-1.367,6.683,6.683,0,0,1-1.077-4.047V-7.453a6.874,6.874,0,0,1,1.033-4.14,3.681,3.681,0,0,1,3.151-1.38,3.7,3.7,0,0,1,3.133,1.345A6.664,6.664,0,0,1,186.82-7.6Zm-2.136-2.391a5.415,5.415,0,0,0-.492-2.641,1.68,1.68,0,0,0-1.564-.839,1.679,1.679,0,0,0-1.538.8,5,5,0,0,0-.519,2.483v2.9a5.555,5.555,0,0,0,.5,2.672,1.683,1.683,0,0,0,1.573.879,1.653,1.653,0,0,0,1.521-.813,5.226,5.226,0,0,0,.519-2.544Zm10.274,1.565,5.186,1.772v1.922L192.788-5.47V-7l7.356-2.943v1.922Zm5.265,6.037h-7.462V-1.9h7.462Zm20.61-7.664h-1.4v5.15a1.169,1.169,0,0,0,.215.787,1,1,0,0,0,.769.242,3.622,3.622,0,0,0,.747-.088V-.1a4.715,4.715,0,0,1-1.406.2Q217.3.105,217.3-2.61V-7.84h-2.918V0h-2.136V-7.84h-1.5V-9.51h10.09Zm12.34,1.627,5.186,1.772v1.922L231-5.47V-7l7.356-2.943v1.922Zm5.265,6.037h-7.462V-1.9h7.462ZM250.822,0H248.7V-10.281l-3.138,1.07V-11l4.992-1.837h.272Z" transform="translate(619 19335.207)" fill="#12263f"/>
      <path id="Trazado_705231" data-name="Trazado 705231" d="M4.509-6.381,6.319-9.51H8.692L5.783-4.825,8.789,0H6.434l-1.9-3.252L2.646,0H.272L3.278-4.825.378-9.51H2.733Zm7.9,2.619H10.573l-.2-9.035h2.25Zm-2.1,2.755a1.128,1.128,0,0,1,.325-.827,1.193,1.193,0,0,1,.888-.328,1.193,1.193,0,0,1,.888.328,1.128,1.128,0,0,1,.325.827,1.107,1.107,0,0,1-.316.805,1.2,1.2,0,0,1-.9.324,1.2,1.2,0,0,1-.9-.324A1.107,1.107,0,0,1,10.31-1.006Zm9.176-4.2a13.393,13.393,0,0,1,.545-3.854,10.578,10.578,0,0,1,1.6-3.261,6.351,6.351,0,0,1,2.232-2.017l.422,1.248a6.524,6.524,0,0,0-2.008,2.87A12.852,12.852,0,0,0,21.437-5.8l-.009.756a13.972,13.972,0,0,0,.751,4.75,7,7,0,0,0,2.1,3.177l-.422,1.187a6.362,6.362,0,0,1-2.237-2.026,10.577,10.577,0,0,1-1.6-3.261A13.921,13.921,0,0,1,19.485-5.2ZM32.194-9.51l.062,1.1a3.419,3.419,0,0,1,2.769-1.274q2.971,0,3.023,3.4V0H35.912V-6.161a1.958,1.958,0,0,0-.391-1.34,1.645,1.645,0,0,0-1.279-.435,2.058,2.058,0,0,0-1.925,1.169V0H30.182V-9.51ZM48.85-4.579H44.235V-6.3H48.85Zm9.659-1.8L60.319-9.51h2.373L59.783-4.825,62.789,0H60.434l-1.9-3.252L56.646,0H54.272l3.006-4.825-2.9-4.685h2.355Zm9.756,1.318A13.224,13.224,0,0,1,67.729-1.3a10.671,10.671,0,0,1-1.626,3.3,6.367,6.367,0,0,1-2.276,2.061L63.4,2.883A6.754,6.754,0,0,0,65.492-.233a13.84,13.84,0,0,0,.769-4.786v-.2a14.044,14.044,0,0,0-.668-4.452,7.852,7.852,0,0,0-1.916-3.221L63.4-13.14l.422-1.2a6.3,6.3,0,0,1,2.18,1.934,10.491,10.491,0,0,1,1.617,3.107,12.941,12.941,0,0,1,.633,3.546Zm8.974,1.3H75.4L75.2-12.8h2.25Zm-2.1,2.755a1.128,1.128,0,0,1,.325-.827,1.193,1.193,0,0,1,.888-.328,1.193,1.193,0,0,1,.888.328,1.128,1.128,0,0,1,.325.827,1.107,1.107,0,0,1-.316.805,1.2,1.2,0,0,1-.9.324,1.2,1.2,0,0,1-.9-.324A1.107,1.107,0,0,1,75.138-1.006Z" transform="translate(413.5 19348.707)" fill="#12263f"/>
      <path id="Trazado_205130" data-name="Trazado 205130" d="M-8271,4832.375h86.3" transform="translate(8680 14496.332)" fill="#12263f" stroke="#12263f" stroke-width="2"/>
      <path id="Trazado_705232" data-name="Trazado 705232" d="M.865-3.056H-.776l-.232-6.9H1.1Zm-.82,1.08a1.107,1.107,0,0,1,.8.294,1,1,0,0,1,.3.752.992.992,0,0,1-.3.745,1.107,1.107,0,0,1-.8.294,1.1,1.1,0,0,1-.8-.294.992.992,0,0,1-.3-.745,1,1,0,0,1,.3-.749A1.091,1.091,0,0,1,.044-1.976Z" transform="translate(451 19322.207)" fill="#12263f"/>
      <path id="Trazado_705233" data-name="Trazado 705233" d="M-1.343-7.4l.062.854A2.582,2.582,0,0,1,.844-7.533a2.146,2.146,0,0,1,1.75.69,3.221,3.221,0,0,1,.588,2.064V0H1.207V-4.73a1.282,1.282,0,0,0-.273-.913,1.224,1.224,0,0,0-.909-.284,1.359,1.359,0,0,0-1.251.711V0H-3.2V-7.4Z" transform="translate(445 19321.734)" fill="#12263f"/>
      <path id="Trazado_705234" data-name="Trazado 705234" d="M.014-5.188,1.258-7.4H3.37L1.265-3.773,3.459,0H1.34L.021-2.324-1.292,0H-3.418l2.194-3.773L-3.322-7.4H-1.2Z" transform="translate(515 19325.332)" fill="#12263f"/>
      <path id="Trazado_705235" data-name="Trazado 705235" d="M.776,0H-.781V-5.812H.776ZM-.873-7.315A.764.764,0,0,1-.639-7.89.878.878,0,0,1,0-8.116a.88.88,0,0,1,.634.226.76.76,0,0,1,.236.575.762.762,0,0,1-.239.58A.882.882,0,0,1,0-6.51a.882.882,0,0,1-.631-.226A.762.762,0,0,1-.873-7.315Z" transform="translate(659 19337.207)" fill="#12263f"/>
      <path id="Trazado_705236" data-name="Trazado 705236" d="M0-6.521,1.87-9.953H4.228L1.33-5.018,4.3,0H1.917L0-3.486-1.911,0H-4.3l2.974-5.018-2.9-4.936h2.358Z" transform="translate(653 19335.207)" fill="#12263f"/>
    </g>
  </g>
</svg>
