<svg id="Grupo_142440" data-name="Grupo 142440" xmlns="http://www.w3.org/2000/svg" xmlns:xlink="http://www.w3.org/1999/xlink" width="90.99" height="92.506" viewBox="0 0 90.99 92.506">
  <defs>
    <clipPath id="clip-path">
      <rect id="Rectángulo_37093" data-name="Rectángulo 37093" width="75.862" height="75.862" fill="#fff"/>
    </clipPath>
  </defs>
  <path id="Trazado_704706" data-name="Trazado 704706" d="M45.495,0C70.621,0,90.99,20.708,90.99,46.253S70.621,92.506,45.495,92.506,0,71.8,0,46.253,20.369,0,45.495,0Z" transform="translate(0 0)" fill="#0b428a"/>
  <g id="Grupo_142369" data-name="Grupo 142369" transform="translate(7.441 8.57)">
    <g id="Grupo_141632" data-name="Grupo 141632" clip-path="url(#clip-path)">
      <path id="Trazado_183474" data-name="Trazado 183474" d="M52.162,85.929A33.768,33.768,0,1,1,85.929,52.161,33.806,33.806,0,0,1,52.162,85.929m0-65.159A31.391,31.391,0,1,0,83.553,52.161,31.427,31.427,0,0,0,52.162,20.77" transform="translate(-14.231 -14.23)" fill="#fff"/>
      <path id="Trazado_183475" data-name="Trazado 183475" d="M163.523,201.774a1.188,1.188,0,0,1,0-2.377A22.142,22.142,0,0,0,185.4,180.99a1.188,1.188,0,0,1,2.342.4,24.588,24.588,0,0,1-24.223,20.38" transform="translate(-125.592 -139.262)" fill="#fff"/>
      <path id="Trazado_183476" data-name="Trazado 183476" d="M200.058,85.825a1.188,1.188,0,0,1-1.188-1.188,22.211,22.211,0,0,0-18.553-21.906,1.188,1.188,0,0,1,.388-2.345,24.588,24.588,0,0,1,20.542,24.251,1.189,1.189,0,0,1-1.188,1.188" transform="translate(-138.734 -46.706)" fill="#fff"/>
      <path id="Trazado_183477" data-name="Trazado 183477" d="M61.359,81.191a1.2,1.2,0,0,1-.181-.014,1.188,1.188,0,0,1-1-1.354,24.587,24.587,0,0,1,24.3-20.842,1.188,1.188,0,1,1,0,2.377A22.211,22.211,0,0,0,62.532,80.182a1.189,1.189,0,0,1-1.173,1.009" transform="translate(-46.55 -45.631)" fill="#fff"/>
      <path id="Trazado_183478" data-name="Trazado 183478" d="M79.994,187.833a1.17,1.17,0,0,1-.181-.014,24.587,24.587,0,0,1-20.832-24.3,1.188,1.188,0,0,1,2.377,0A22.211,22.211,0,0,0,80.172,185.47a1.188,1.188,0,0,1-.178,2.363" transform="translate(-45.631 -125.591)" fill="#fff"/>
      <path id="Trazado_183479" data-name="Trazado 183479" d="M163.523,18.918a1.188,1.188,0,0,1-1.188-1.188V1.188a1.188,1.188,0,0,1,2.377,0V17.73a1.189,1.189,0,0,1-1.188,1.188" transform="translate(-125.592)" fill="#fff"/>
      <path id="Trazado_183480" data-name="Trazado 183480" d="M17.729,164.711H1.187a1.188,1.188,0,1,1,0-2.377H17.729a1.188,1.188,0,1,1,0,2.377" transform="translate(0.001 -125.591)" fill="#fff"/>
      <path id="Trazado_183481" data-name="Trazado 183481" d="M163.523,270.5a1.188,1.188,0,0,1-1.188-1.188V252.774a1.188,1.188,0,1,1,2.377,0v16.541a1.189,1.189,0,0,1-1.188,1.188" transform="translate(-125.592 -194.642)" fill="#fff"/>
      <path id="Trazado_183482" data-name="Trazado 183482" d="M255.966,164.711h-3.192a1.188,1.188,0,1,1,0-2.377h3.192a1.188,1.188,0,1,1,0,2.377" transform="translate(-194.642 -125.591)" fill="#fff"/>
      <path id="Trazado_183483" data-name="Trazado 183483" d="M280.225,164.711h-13.35a1.188,1.188,0,0,1,0-2.377h13.35a1.188,1.188,0,1,1,0,2.377" transform="translate(-205.552 -125.591)" fill="#fff"/>
      <path id="Trazado_183484" data-name="Trazado 183484" d="M137.545,192.046a1.188,1.188,0,0,1-1.122-.8,10.191,10.191,0,0,0-19.241,0,1.188,1.188,0,0,1-2.244-.783,12.568,12.568,0,0,1,23.729,0,1.189,1.189,0,0,1-1.122,1.58" transform="translate(-88.872 -140.84)" fill="#fff"/>
      <path id="Trazado_183485" data-name="Trazado 183485" d="M137.112,114.965a8.914,8.914,0,1,1,8.915-8.915,8.924,8.924,0,0,1-8.915,8.915m0-15.452a6.538,6.538,0,1,0,6.538,6.538,6.545,6.545,0,0,0-6.538-6.538" transform="translate(-99.182 -75.15)" fill="#fff"/>
    </g>
  </g>
</svg>
