<svg xmlns="http://www.w3.org/2000/svg" width="298" height="90" viewBox="0 0 298 90">
  <g id="Grupo_974115" data-name="Grupo 974115" transform="translate(8857 2059)">
    <rect id="Rectángulo_50155" data-name="Rectángulo 50155" width="298" height="90" rx="10" transform="translate(-8857 -2059)" fill="#a4a3ff"/>
    <g id="Grupo_166758" data-name="Grupo 166758" transform="translate(-8841.418 -2053.577)">
      <g id="Grupo_166748" data-name="Grupo 166748" transform="translate(0)">
        <path id="Trazado_197267" data-name="Trazado 197267" d="M-9212.887-7617.636l7.366-4.475,5.252,14.591,12.678-63.9h159.1" transform="translate(9283.442 7677.584)" fill="none" stroke="#fff" stroke-width="4"/>
        <path id="Trazado_705165" data-name="Trazado 705165" d="M23.109-19.078H3.563v-3.773H23.109Zm0,9.727H3.563V-13.1H23.109Z" transform="translate(36.511 50)" fill="#fff"/>
        <path id="Trazado_705166" data-name="Trazado 705166" d="M11.1-12.042a16.752,16.752,0,0,1-6.67-3.238,6.186,6.186,0,0,1-2.087-4.741A6.535,6.535,0,0,1,4.889-25.3a10.139,10.139,0,0,1,6.633-2.087,11.068,11.068,0,0,1,4.963,1.076,8.161,8.161,0,0,1,3.377,2.969,7.591,7.591,0,0,1,1.2,4.138H17.479a4.94,4.94,0,0,0-1.559-3.864,6.338,6.338,0,0,0-4.4-1.406,6.489,6.489,0,0,0-4.11,1.162,3.875,3.875,0,0,0-1.475,3.225,3.487,3.487,0,0,0,1.4,2.8A13.741,13.741,0,0,0,12.107-15.2a22.126,22.126,0,0,1,5.27,2.089,8,8,0,0,1,2.82,2.663,6.8,6.8,0,0,1,.918,3.581A6.312,6.312,0,0,1,18.555-1.6,10.917,10.917,0,0,1,11.708.371,12.7,12.7,0,0,1,6.513-.7a8.743,8.743,0,0,1-3.72-2.922A7.132,7.132,0,0,1,1.484-7.83H5.065A4.653,4.653,0,0,0,6.875-3.961a7.617,7.617,0,0,0,4.833,1.419,7,7,0,0,0,4.323-1.15,3.737,3.737,0,0,0,1.5-3.136A3.668,3.668,0,0,0,16.143-9.9,16.044,16.044,0,0,0,11.1-12.042Z" transform="translate(0 49.475)" fill="#fff"/>
        <path id="Trazado_705167" data-name="Trazado 705167" d="M6.3,0H.709V-.779L3.662-4.061a7.016,7.016,0,0,0,.905-1.21,2.019,2.019,0,0,0,.249-.964,1.531,1.531,0,0,0-.4-1.1,1.414,1.414,0,0,0-1.078-.428,1.674,1.674,0,0,0-1.257.46,1.757,1.757,0,0,0-.448,1.28H.545a2.516,2.516,0,0,1,.759-1.9,2.813,2.813,0,0,1,2.03-.727,2.7,2.7,0,0,1,1.881.624,2.129,2.129,0,0,1,.691,1.661,4.88,4.88,0,0,1-1.605,3L2.016-.885H6.3Z" transform="translate(249.565 24.51)" fill="#fff"/>
        <path id="Trazado_705168" data-name="Trazado 705168" d="M9.255,0H6.894V-15.653L2.158-13.914v-2.133l6.729-2.526h.368Z" transform="translate(112.418 37.577)" fill="#fff"/>
        <path id="Trazado_705169" data-name="Trazado 705169" d="M16.352,0H13.9L4.6-14.244V0H2.146V-18.484H4.6L13.927-4.177V-18.484h2.425ZM25.2-6.894H19V-8.811h6.2ZM34.963,0H32.6V-15.653l-4.735,1.739v-2.133l6.729-2.526h.368Z" transform="translate(97.418 70.577)" fill="#fff"/>
        <path id="Trazado_705170" data-name="Trazado 705170" d="M2.013-8.946a23.4,23.4,0,0,1,.916-6.569,19.084,19.084,0,0,1,2.732-5.722A11.623,11.623,0,0,1,9.43-24.87l.575,1.847A12.056,12.056,0,0,0,6.38-17.846a22.442,22.442,0,0,0-1.552,7.8L4.813-8.764A22.559,22.559,0,0,0,6.948,1.377,12.112,12.112,0,0,0,10.005,5.4L9.43,7.114A12,12,0,0,1,5.585,3.36,21.04,21.04,0,0,1,2.013-8.946Z" transform="translate(187.671 52.36)" fill="#fff"/>
        <path id="Trazado_705171" data-name="Trazado 705171" d="M8.306-8.511a22.658,22.658,0,0,1-.857,6.262,18.517,18.517,0,0,1-2.622,5.53,11.488,11.488,0,0,1-3.7,3.6L.557,5.229A11.776,11.776,0,0,0,4.182-.139a23.226,23.226,0,0,0,1.4-8.079v-.469a24.115,24.115,0,0,0-.645-5.72,19.306,19.306,0,0,0-1.794-4.739A10.945,10.945,0,0,0,.557-22.412l.571-1.655a11.443,11.443,0,0,1,3.684,3.574,18.557,18.557,0,0,1,2.622,5.522A23.182,23.182,0,0,1,8.306-8.511Z" transform="translate(246.764 51.977)" fill="#fff"/>
        <path id="Trazado_705172" data-name="Trazado 705172" d="M3.93-5.367,5.8-8.453H7.492L4.727-4.273,7.578,0H5.906L3.953-3.164,2,0H.32L3.172-4.273.406-8.453H2.078Z" transform="translate(203.557 52.295)" fill="#fff"/>
        <path id="Trazado_705173" data-name="Trazado 705173" d="M4.614-4.772H.325V-6.1H4.614Z" transform="translate(218.809 54.295)" fill="#fff"/>
        <path id="Trazado_705174" data-name="Trazado 705174" d="M8.535,1.4H.037V0h8.5Z" transform="translate(235.983 35.643)" fill="#fff"/>
        <path id="Trazado_705175" data-name="Trazado 705175" d="M3.93-5.367,5.8-8.453H7.492L4.727-4.273,7.578,0H5.906L3.953-3.164,2,0H.32L3.172-4.273.406-8.453H2.078Z" transform="translate(234.793 52.295)" fill="#fff"/>
        <path id="Trazado_705176" data-name="Trazado 705176" d="M16.235-10.706,5.455,2.171H22.173v2.82H1.28V2.338l11.3-13.285-11.3-13.4v-2.672H20.744v2.82H5.437l10.8,13.025Z" transform="translate(157.698 56.057)" fill="#fff"/>
        <path id="Trazado_705177" data-name="Trazado 705177" d="M2.5,0H1.143V-7.925H2.5ZM1.033-10.027a.809.809,0,0,1,.2-.557.756.756,0,0,1,.6-.227.768.768,0,0,1,.6.227.8.8,0,0,1,.205.557.774.774,0,0,1-.205.549.782.782,0,0,1-.6.22.77.77,0,0,1-.6-.22A.782.782,0,0,1,1.033-10.027Zm9.829,4.065H4.753V-7.141h6.108Zm0,3.04H4.753V-4.094h6.108ZM17.212,0H15.85V-9.031l-2.732,1v-1.23L17-10.715h.212Z" transform="translate(159.396 76.411)" fill="#fff"/>
        <path id="Trazado_705178" data-name="Trazado 705178" d="M2.165,0H.99V-6.868H2.165ZM.9-8.69a.7.7,0,0,1,.175-.482.655.655,0,0,1,.517-.2.666.666,0,0,1,.521.2.694.694,0,0,1,.178.482.671.671,0,0,1-.178.476.678.678,0,0,1-.521.19.667.667,0,0,1-.517-.19A.678.678,0,0,1,.9-8.69Z" transform="translate(213.702 60.233)" fill="#fff"/>
        <path id="Trazado_705179" data-name="Trazado 705179" d="M7.547,0H6.416L2.121-6.574V0H.99V-8.531H2.121l4.307,6.6v-6.6H7.547Z" transform="translate(168.643 24.928)" fill="#fff"/>
      </g>
      <path id="Trazado_197273" data-name="Trazado 197273" d="M-9613.244-9288.434h54.409" transform="translate(9709.414 9335.074)" fill="#fff" stroke="#fff" stroke-width="3"/>
    </g>
  </g>
</svg>
