<svg xmlns="http://www.w3.org/2000/svg" xmlns:xlink="http://www.w3.org/1999/xlink" width="409.2" height="487.075" viewBox="0 0 409.2 487.075">
  <defs>
    <linearGradient id="linear-gradient" x1="0.5" x2="0.5" y2="1" gradientUnits="objectBoundingBox">
      <stop offset="0" stop-color="#005acf"/>
      <stop offset="1" stop-color="#005acf"/>
    </linearGradient>
  </defs>
  <g id="Grupo_89172" data-name="Grupo 89172" transform="translate(-1145.218 -6038.302)">
    <g id="Grupo_87686" data-name="Grupo 87686" transform="matrix(0.883, -0.469, 0.469, 0.883, 1403.734, 6227.468)">
      <g id="Grupo_77157" data-name="Grupo 77157" transform="translate(10.134)">
        <g id="Grupo_77156" data-name="Grupo 77156">
          <g id="Grupo_77155" data-name="Grupo 77155">
            <g id="Grupo_77154" data-name="Grupo 77154">
              <g id="Grupo_77153" data-name="Grupo 77153">
                <g id="Grupo_77152" data-name="Grupo 77152">
                  <g id="Grupo_77151" data-name="Grupo 77151">
                    <g id="Grupo_77146" data-name="Grupo 77146" transform="translate(0.726 0.26)">
                      <g id="Trazado_124127" data-name="Trazado 124127" transform="translate(-99.516 -191.181)" fill="url(#linear-gradient)">
                        <path d="M 149.9483489990234 294.1419067382812 L 146.4510345458984 284.7862854003906 L 146.3450927734375 284.5028686523438 L 146.0448455810547 284.4652404785156 C 142.3772277832031 284.0057678222656 138.7753753662109 283.0540161132812 135.3393402099609 281.636474609375 L 135.0595092773438 281.5210571289062 L 134.8274841308594 281.7154846191406 L 127.1702651977539 288.1329650878906 L 114.1281051635742 278.2063903808594 L 118.2724533081055 269.1160888671875 L 118.3979949951172 268.8407287597656 L 118.2122344970703 268.601806640625 C 115.9361343383789 265.6742553710938 114.0593872070312 262.4555053710938 112.634147644043 259.0349426269531 L 112.5178146362305 258.7557373046875 L 112.2164916992188 258.7291870117188 L 102.2708206176758 257.8529663085938 L 100.0651931762695 241.6107788085938 L 109.4206924438477 238.1161499023438 L 109.7044906616211 238.0101623535156 L 109.7419052124023 237.7095184326172 C 110.1989593505859 234.0371856689453 111.1505737304688 230.4346771240234 112.5703277587891 227.0020751953125 L 112.6861419677734 226.7220458984375 L 112.4915084838867 226.4897918701172 L 106.0739898681641 218.8326873779297 L 115.9981079101562 205.79052734375 L 125.0910263061523 209.9347229003906 L 125.3663864135742 210.0602416992188 L 125.6052932739258 209.8744812011719 C 128.5356292724609 207.5961456298828 131.7543487548828 205.7194519042969 135.1720428466797 204.2965240478516 L 135.4514617919922 204.1801910400391 L 135.4779510498047 203.8786926269531 L 136.3515472412109 193.9334106445312 L 152.5936584472656 191.7301025390625 L 156.0909729003906 201.0832672119141 L 156.1969451904297 201.3666687011719 L 156.4971771240234 201.4042663574219 C 160.1645355224609 201.8634948730469 163.7664642333984 202.8142700195312 167.2029113769531 204.2301940917969 L 167.4826049804688 204.3454284667969 L 167.7144927978516 204.1511840820312 L 175.3716735839844 197.7363586425781 L 188.4139862060547 207.6630401611328 L 184.2695922851562 216.7531890869141 L 184.1439666748047 217.0287475585938 L 184.3299865722656 217.2677307128906 C 186.6099548339844 220.1968994140625 188.486572265625 223.4146423339844 189.9076843261719 226.8315124511719 L 190.0239105224609 227.1109313964844 L 190.3253631591797 227.1375732421875 L 200.2738342285156 228.0163879394531 L 202.4768981933594 244.2558746337891 L 193.1239471435547 247.7533416748047 L 192.8405303955078 247.8593292236328 L 192.8029479980469 248.1595611572266 C 192.3435668945312 251.8289489746094 191.3918609619141 255.4308013916016 189.9742736816406 258.8650512695312 L 189.8587951660156 259.1448364257812 L 190.0531311035156 259.3768615722656 L 196.4681396484375 267.0365295410156 L 186.5439147949219 280.0764465332031 L 177.4536895751953 275.9346618652344 L 177.1783599853516 275.8092041015625 L 176.9394989013672 275.9949035644531 C 174.0093841552734 278.2730102539062 170.7907104492188 280.1487426757812 167.3728790283203 281.5700073242188 L 167.0933532714844 281.6862487792969 L 167.0668029785156 281.9878234863281 L 166.1906127929688 291.9361267089844 L 149.9483489990234 294.1419067382812 Z M 152.0694580078125 223.8871917724609 C 151.2158050537109 223.8871917724609 150.3509674072266 223.9458160400391 149.4990386962891 224.0614624023438 C 144.4859313964844 224.7417755126953 140.037841796875 227.3334045410156 136.9741516113281 231.3589477539062 C 133.910400390625 235.3845672607422 132.5978240966797 240.3623504638672 133.2782135009766 245.3753356933594 C 134.5442810058594 254.7220153808594 142.6022186279297 261.7704467773438 152.0216827392578 261.7704467773438 C 152.8754119873047 261.7704467773438 153.7402801513672 261.7118225097656 154.5922698974609 261.5961608886719 C 159.6050415039062 260.9172058105469 164.0531921386719 258.325927734375 167.1171569824219 254.2996673583984 C 170.1809387207031 250.2736663818359 171.4935302734375 245.2955169677734 170.8131561279297 240.2822723388672 C 169.5445404052734 230.935546875 161.4865112304688 223.8871917724609 152.0694580078125 223.8871917724609 Z" stroke="none"/>
                        <path d="M 152.2652130126953 192.2792358398438 L 136.8146667480469 194.3751525878906 L 135.9230499267578 204.5254821777344 L 135.3641967773438 204.7581481933594 C 131.9876251220703 206.1639099121094 128.8075103759766 208.0180969238281 125.9121856689453 210.2691955566406 L 125.4343872070312 210.6406860351562 L 116.1541748046875 206.4111328125 L 106.7137451171875 218.817626953125 L 113.2639923095703 226.6331481933594 L 113.0323486328125 227.1931762695312 C 111.6297607421875 230.5843505859375 110.6896057128906 234.1433410644531 110.2380676269531 237.7712707519531 L 110.1632385253906 238.3725280761719 L 100.6143951416016 241.9393920898438 L 102.7125091552734 257.3899536132812 L 112.8630065917969 258.2842407226562 L 113.0956878662109 258.8426513671875 C 114.5038604736328 262.2222290039062 116.3581085205078 265.4024047851562 118.6069641113281 268.2948913574219 L 118.9785003662109 268.7727661132812 L 114.7487182617188 278.0504150390625 L 127.1552276611328 287.4931945800781 L 134.9703521728516 280.943359375 L 135.5300445556641 281.1742553710938 C 138.9249420166016 282.5748291015625 142.4835357666016 283.5151672363281 146.1070098876953 283.9691162109375 L 146.7074890136719 284.0443420410156 L 150.2768402099609 293.5927124023438 L 165.7275695800781 291.4944458007812 L 166.6218414306641 281.3408203125 L 167.1808929443359 281.1083374023438 C 170.5576171875 279.7041625976562 173.7376251220703 277.8509521484375 176.6325988769531 275.6001586914062 L 177.1103210449219 275.228759765625 L 186.3878784179688 279.4558715820312 L 195.8284301757812 267.0514526367188 L 189.2811279296875 259.2338256835938 L 189.5121002197266 258.6742553710938 C 190.9126892089844 255.28125 191.8529663085938 251.7226867675781 192.3068084716797 248.0974426269531 L 192.3819885253906 247.4969787597656 L 201.927734375 243.9274139404297 L 199.8320617675781 228.4793090820312 L 189.6784515380859 227.5823364257812 L 189.4460144042969 227.0235290527344 C 188.0420227050781 223.6478271484375 186.18798828125 220.4688110351562 183.9354095458984 217.5748291015625 L 183.5633850097656 217.0968627929688 L 187.7933502197266 207.8190307617188 L 175.3866271972656 198.3760986328125 L 167.5718078613281 204.9229431152344 L 167.0124359130859 204.6924743652344 C 163.6171569824219 203.2935180664062 160.0584106445312 202.3541259765625 156.43505859375 201.900390625 L 155.8345947265625 201.8251953125 L 152.2652130126953 192.2792358398438 M 152.0216522216797 262.2704467773438 C 142.3531646728516 262.2704467773438 134.0822296142578 255.0359191894531 132.7827606201172 245.4425964355469 C 132.0843963623047 240.2972564697266 133.4316253662109 235.1880493164062 136.5762634277344 231.05615234375 C 139.7208404541016 226.9243469238281 144.2863616943359 224.2642822265625 149.4317779541016 223.5660095214844 C 150.3058929443359 223.4473571777344 151.1933288574219 223.38720703125 152.0694580078125 223.38720703125 C 161.7354888916016 223.3872680664062 170.0065307617188 230.6216583251953 171.3086090087891 240.2150421142578 C 172.0069427490234 245.3606262207031 170.6596984863281 250.4701690673828 167.5150451660156 254.6024475097656 C 164.3701629638672 258.7350158691406 159.8045349121094 261.3947448730469 154.6595153808594 262.0916137695312 C 153.7853546142578 262.2102661132812 152.8978576660156 262.2704467773438 152.0216522216797 262.2704467773438 M 152.9221496582031 191.1809692382812 L 156.5593109130859 200.9081420898438 C 160.3253173828125 201.3797302246094 163.9651641845703 202.3553466796875 167.3934020996094 203.7678833007812 L 175.356689453125 197.0966186523438 L 189.0346069335938 207.507080078125 L 184.7245483398438 216.9606018066406 C 187.0028381347656 219.8876342773438 188.9111938476562 223.1335754394531 190.3693542480469 226.6394958496094 L 200.7156219482422 227.553466796875 L 203.0260314941406 244.5843505859375 L 193.299072265625 248.2216796875 C 192.8272705078125 251.9902954101562 191.8516082763672 255.6274719238281 190.4364318847656 259.0558166503906 L 197.1078186035156 267.0216064453125 L 186.6999664306641 280.6969909667969 L 177.2463836669922 276.3896484375 C 174.3193969726562 278.6653137207031 171.0708160400391 280.5737609863281 167.5648651123047 282.0316772460938 L 166.6536407470703 292.3778381347656 L 149.6198577880859 294.6911010742188 L 145.9826965332031 284.9613647460938 C 142.2168579101562 284.4895629882812 138.5795288085938 283.5140991210938 135.1486663818359 282.0986938476562 L 127.1852874755859 288.7727661132812 L 113.5074615478516 278.3623657226562 L 117.8174896240234 268.90869140625 C 115.5418853759766 265.9817810058594 113.6334533691406 262.7332458496094 112.172607421875 259.2272644042969 L 101.8291015625 258.3159790039062 L 99.51597595214844 241.2821960449219 L 109.2457275390625 237.6477661132812 C 109.7147827148438 233.8791198730469 110.6903991699219 230.2390747070312 112.1082763671875 226.8109741210938 L 105.4342346191406 218.8477478027344 L 115.8420562744141 205.169921875 L 125.2983856201172 209.479736328125 C 128.2252502441406 207.2041015625 131.4712066650391 205.2957153320312 134.9798583984375 203.8349609375 L 135.888427734375 193.4916381835938 L 152.9221496582031 191.1809692382812 Z M 152.0216674804688 261.2704467773438 C 152.848388671875 261.2704467773438 153.6830139160156 261.2149963378906 154.5250091552734 261.1007080078125 C 164.6165466308594 259.7338562011719 171.6872711181641 250.4410400390625 170.3177032470703 240.3495178222656 C 168.9479827880859 230.2579040527344 159.6577453613281 223.1873168945312 149.5662841796875 224.5569152832031 C 139.4747467041016 225.9264221191406 132.4039916992188 235.2166137695312 133.7736663818359 245.30810546875 C 135.0265960693359 254.5578002929688 142.9397125244141 261.2704467773438 152.0216674804688 261.2704467773438 Z" stroke="none" fill="#707070"/>
                      </g>
                    </g>
                    <g id="Grupo_77148" data-name="Grupo 77148" transform="translate(34.21 33.25)">
                      <g id="Grupo_77147" data-name="Grupo 77147">
                        <path id="Trazado_124128" data-name="Trazado 124128" d="M128.575,203.875a3.573,3.573,0,0,1,1.161-.249,14.361,14.361,0,0,1,3.409-.072,18.351,18.351,0,0,1,11.306,5.2,18.965,18.965,0,0,1-.094,27.171,19.009,19.009,0,0,1-22.453,3.047,18.971,18.971,0,0,1-7.331-26.168,18.343,18.343,0,0,1,9.51-8.017,14.336,14.336,0,0,1,3.3-.839,3.643,3.643,0,0,1,1.187-.07c.03.158-1.614.319-4.275,1.447a18.388,18.388,0,0,0-8.813,8,17.944,17.944,0,0,0-.142,17.061,17.588,17.588,0,0,0,7.256,7.306,17.673,17.673,0,0,0,20.743-2.814,17.566,17.566,0,0,0,5.045-8.974,17.941,17.941,0,0,0-4.683-16.406,18.393,18.393,0,0,0-10.625-5.363C130.215,203.751,128.588,204.035,128.575,203.875Z" transform="translate(-112.008 -203.489)" fill="#344154"/>
                      </g>
                    </g>
                    <g id="Grupo_77150" data-name="Grupo 77150">
                      <g id="Grupo_77149" data-name="Grupo 77149">
                        <path id="Trazado_124129" data-name="Trazado 124129" d="M157.015,201.071a2.741,2.741,0,0,1-.273-.579L156,198.675l-2.844-7.248.255.153-17.015,2.447.327-.34c-.26,3.141-.547,6.623-.852,10.351l-.021.26-.247.1a41.889,41.889,0,0,0-9.548,5.626l-.233.183-.271-.124-9.472-4.27.641-.163q-4.9,6.481-10.362,13.71l-.019-.729c2.075,2.461,4.356,5.168,6.7,7.944l.241.284-.142.346a41.571,41.571,0,0,0-2.8,10.678l-.046.386-.367.136-9.719,3.656.426-.71c.734,5.35,1.528,11.118,2.34,17.028l-.625-.6c3.222.281,6.76.587,10.344.9l.426.037.166.4a41.782,41.782,0,0,0,5.559,9.51l.268.343-.18.4c-1.348,2.965-2.82,6.194-4.3,9.459l-.22-.882,13.683,10.4-.922.024c2.514-2.109,5.227-4.385,7.961-6.677l.346-.29.415.171a41.544,41.544,0,0,0,10.633,2.809h.008c.271.215-.6-.477.609.48l0,.008.008.022.013.037.029.075.056.153.115.308.228.611.456,1.225.914,2.439,1.809,4.849-.8-.474q8.636-1.17,17.036-2.305l-.635.665q.462-5.223.917-10.346l.04-.44.407-.169a41.518,41.518,0,0,0,9.521-5.541l.346-.268.394.182q4.8,2.191,9.451,4.318l-.86.217q5.343-7,10.429-13.662l.019.855q-3.389-4.061-6.658-7.977l-.26-.311.155-.373a41.52,41.52,0,0,0,2.838-10.66l.051-.389.365-.134,9.735-3.613-.4.662c-.8-5.993-1.547-11.652-2.26-17.039l.512.49c-3.635-.332-7.049-.643-10.341-.946l-.324-.03-.123-.3a41.667,41.667,0,0,0-5.538-9.585l-.182-.238.123-.266c1.581-3.426,3.007-6.513,4.353-9.432l.134.531c-5.267-4.058-9.759-7.521-13.613-10.494l.418-.011c-3.2,2.629-5.824,4.793-8.025,6.6l-.113.094-.131-.056a44.536,44.536,0,0,0-8.022-2.525c-.855-.169-1.525-.3-2.045-.4a2.909,2.909,0,0,1-.675-.153,3.862,3.862,0,0,1,.694.029c.458.048,1.153.129,2.072.287a40.147,40.147,0,0,1,8.159,2.324l-.244.037L175.6,197l.2-.171.214.164c3.892,2.922,8.427,6.331,13.742,10.325l.279.209-.145.324c-1.319,2.932-2.715,6.033-4.264,9.472l-.059-.5a42.569,42.569,0,0,1,5.752,9.775l-.445-.327,10.349.876.453.038.062.453c.745,5.385,1.528,11.038,2.359,17.026l.067.491-.464.174c-3.157,1.187-6.387,2.4-9.719,3.659l.413-.522a42.715,42.715,0,0,1-2.884,11.008l-.1-.681q3.281,3.9,6.685,7.95l.354.418-.332.437q-5.066,6.678-10.389,13.691l-.343.453-.517-.236-9.459-4.3.742-.086a42.853,42.853,0,0,1-9.845,5.749l.448-.611q-.446,5.122-.9,10.346l-.051.587-.584.08-17.034,2.316-.587.081-.209-.555q-.9-2.416-1.812-4.851l-.914-2.439L146.2,286.6l-.231-.614-.113-.305-.059-.153-.027-.078-.016-.038-.005-.019-.005-.011c1.209.954.335.265.6.477h-.008a42.931,42.931,0,0,1-11.014-2.911l.758-.118c-2.734,2.289-5.449,4.565-7.966,6.671l-.453.378-.469-.357c-4.7-3.584-9.344-7.122-13.672-10.419l-.464-.354.241-.531c1.49-3.262,2.967-6.489,4.321-9.448l.086.74a43.067,43.067,0,0,1-5.728-9.851l.59.432c-3.584-.322-7.122-.638-10.344-.925l-.552-.051-.072-.547c-.793-5.916-1.565-11.686-2.284-17.039l-.07-.525.5-.185,9.735-3.613-.413.52A42.683,42.683,0,0,1,112,226.741l.1.63c-2.326-2.79-4.594-5.511-6.653-7.982l-.3-.362.284-.37q5.5-7.18,10.453-13.643l.257-.34.383.177c3.313,1.525,6.495,2.994,9.438,4.348l-.5.059a42.685,42.685,0,0,1,9.813-5.661l-.268.365c.351-3.723.676-7.2.97-10.338l.029-.3.3-.04c6.923-.882,12.659-1.611,17.05-2.171l.193-.024.062.177q1.66,4.668,2.576,7.245c.265.78.477,1.4.646,1.892A3.845,3.845,0,0,1,157.015,201.071Z" transform="translate(-99.245 -191.084)" fill="#344154"/>
                      </g>
                    </g>
                  </g>
                </g>
              </g>
            </g>
          </g>
        </g>
      </g>
      <g id="Grupo_77169" data-name="Grupo 77169" transform="translate(0 118.651)">
        <g id="Grupo_77168" data-name="Grupo 77168">
          <g id="Grupo_77167" data-name="Grupo 77167">
            <g id="Grupo_77166" data-name="Grupo 77166">
              <g id="Grupo_77165" data-name="Grupo 77165">
                <g id="Grupo_77164" data-name="Grupo 77164">
                  <g id="Grupo_77163" data-name="Grupo 77163">
                    <g id="Grupo_77158" data-name="Grupo 77158" transform="translate(0.456 0.164)">
                      <path id="Trazado_124130" data-name="Trazado 124130" d="M131.46,241.52a26.556,26.556,0,0,1,6.8,1.8l5-4.189,8.588,6.537-2.7,5.937a26.55,26.55,0,0,1,3.546,6.079l6.5.573,1.45,10.7-6.109,2.284a26.471,26.471,0,0,1-1.8,6.806l4.192,5-6.537,8.588-5.937-2.707a26.479,26.479,0,0,1-6.082,3.546l-.571,6.5-10.7,1.453-2.281-6.111a26.481,26.481,0,0,1-6.805-1.8l-5,4.189-8.59-6.537,2.707-5.937a26.657,26.657,0,0,1-3.546-6.079l-6.494-.574-1.453-10.7,6.108-2.284a26.5,26.5,0,0,1,1.8-6.806l-4.192-5,6.537-8.588,5.94,2.707a26.344,26.344,0,0,1,6.079-3.546l.573-6.5,10.695-1.45,2.286,6.108Zm-4.393,14.852a11.581,11.581,0,1,0,13.032,9.92A11.585,11.585,0,0,0,127.066,256.372Z" transform="translate(-95.634 -235.412)" fill="none"/>
                    </g>
                    <g id="Grupo_77160" data-name="Grupo 77160" transform="translate(21.484 20.882)">
                      <g id="Grupo_77159" data-name="Grupo 77159">
                        <path id="Trazado_124131" data-name="Trazado 124131" d="M113.884,243.384a2.254,2.254,0,0,1,.729-.155,8.936,8.936,0,0,1,2.142-.046,11.526,11.526,0,0,1,7.1,3.262,11.914,11.914,0,0,1-.059,17.066,11.933,11.933,0,0,1-14.1,1.914,11.911,11.911,0,0,1-4.6-16.433,11.524,11.524,0,0,1,5.975-5.037,8.855,8.855,0,0,1,2.075-.525,2.223,2.223,0,0,1,.745-.046c.019.1-1.013.2-2.686.909a11.537,11.537,0,0,0-5.532,5.026,11.266,11.266,0,0,0-.091,10.713,11.049,11.049,0,0,0,4.557,4.589,11.1,11.1,0,0,0,13.029-1.769,11.061,11.061,0,0,0,3.168-5.637,11.268,11.268,0,0,0-2.943-10.3,11.541,11.541,0,0,0-6.672-3.369C114.916,243.306,113.892,243.486,113.884,243.384Z" transform="translate(-103.479 -243.142)" fill="#263238"/>
                      </g>
                    </g>
                    <g id="Grupo_77162" data-name="Grupo 77162">
                      <g id="Grupo_77161" data-name="Grupo 77161">
                        <path id="Trazado_124132" data-name="Trazado 124132" d="M131.745,241.623a1.673,1.673,0,0,1-.174-.364l-.464-1.139q-.639-1.62-1.788-4.554l.161.1L118.794,237.2l.206-.214c-.164,1.973-.343,4.16-.536,6.5l-.013.164-.155.067a26.332,26.332,0,0,0-6,3.533l-.145.115-.172-.077-5.948-2.683.4-.1c-2.05,2.713-4.224,5.591-6.508,8.609l-.011-.459c1.3,1.547,2.734,3.246,4.205,4.991l.15.177-.091.22a26.09,26.09,0,0,0-1.753,6.706l-.03.241-.231.086c-1.892.713-3.978,1.5-6.1,2.3l.265-.448c.464,3.359.96,6.983,1.472,10.695l-.394-.375,6.5.566.268.021.1.249a26.254,26.254,0,0,0,3.492,5.972l.169.217-.113.249c-.847,1.86-1.769,3.889-2.7,5.94l-.139-.555c2.721,2.069,5.637,4.286,8.593,6.532l-.579.013,5-4.192.217-.182.263.11a26.069,26.069,0,0,0,6.677,1.764h.005c.169.134-.378-.3.381.3l0,.005.005.014.008.024.019.048.035.1.072.193.142.383.287.769.574,1.53c.38,1.019.761,2.037,1.136,3.048l-.5-.3q5.424-.736,10.7-1.447l-.4.418q.29-3.281.574-6.5l.027-.279.255-.1a26.006,26.006,0,0,0,5.98-3.479l.217-.169.249.115,5.934,2.713-.541.134q3.357-4.391,6.551-8.58l.011.539-4.181-5.01-.164-.2.1-.233a26.058,26.058,0,0,0,1.785-6.7l.029-.244.231-.086,6.114-2.267-.249.415c-.5-3.763-.97-7.317-1.421-10.7l.324.308-6.494-.595-.2-.019-.078-.188a26.243,26.243,0,0,0-3.479-6.02l-.113-.147.075-.169c.994-2.15,1.89-4.09,2.737-5.924l.083.335c-3.308-2.549-6.127-4.725-8.55-6.591l.263-.005-5.039,4.144-.072.059-.083-.035a27.749,27.749,0,0,0-5.036-1.584l-1.284-.255a1.678,1.678,0,0,1-.423-.1,2.418,2.418,0,0,1,.434.019c.289.03.724.081,1.3.18a25.292,25.292,0,0,1,5.122,1.458l-.153.024c1.362-1.16,2.986-2.549,4.961-4.235l.129-.107.134.1,8.631,6.484.174.131-.091.2c-.828,1.841-1.7,3.787-2.678,5.948l-.038-.314a26.737,26.737,0,0,1,3.613,6.138l-.279-.2,6.5.549.284.024.04.284c.469,3.38.96,6.931,1.482,10.692l.04.308-.29.11-6.106,2.3.26-.327a26.721,26.721,0,0,1-1.812,6.913l-.064-.429q2.063,2.453,4.2,4.994l.22.263-.209.276q-3.18,4.193-6.524,8.6l-.214.281-.324-.148q-2.931-1.331-5.94-2.7l.464-.053a26.933,26.933,0,0,1-6.181,3.61l.279-.383q-.277,3.216-.566,6.5l-.032.367-.367.051q-5.275.715-10.7,1.456l-.37.051-.131-.348c-.378-1.013-.758-2.026-1.139-3.048l-.571-1.531-.287-.769-.145-.386-.072-.19-.035-.1-.019-.048-.008-.024-.005-.011,0-.008c.759.6.209.166.378.3h0a26.942,26.942,0,0,1-6.918-1.828l.477-.075c-1.718,1.44-3.423,2.866-5,4.19l-.284.239-.295-.225-8.585-6.543-.292-.223.15-.332c.938-2.048,1.866-4.077,2.715-5.934l.054.464a26.9,26.9,0,0,1-3.6-6.186l.37.273c-2.251-.2-4.473-.4-6.494-.582l-.349-.032-.046-.343c-.5-3.715-.984-7.339-1.434-10.7l-.043-.332.311-.115,6.114-2.27-.26.33a26.9,26.9,0,0,1,1.841-6.9l.062.4c-1.461-1.753-2.884-3.46-4.179-5.012l-.188-.228.177-.233q3.453-4.507,6.564-8.566l.163-.215.241.112,5.926,2.729-.316.037a26.727,26.727,0,0,1,6.165-3.554l-.169.228.608-6.492.019-.193.188-.024,10.708-1.362.121-.016.038.11q1.045,2.935,1.619,4.551l.4,1.188A2.53,2.53,0,0,1,131.745,241.623Z" transform="translate(-95.464 -235.351)" fill="#263238"/>
                      </g>
                    </g>
                  </g>
                </g>
              </g>
            </g>
          </g>
        </g>
      </g>
    </g>
    <g id="Grupo_87683" data-name="Grupo 87683" transform="translate(1096.321 6038.302)">
      <g id="Grupo_87626" data-name="Grupo 87626" transform="translate(129.263 0)">
        <g id="Grupo_87557" data-name="Grupo 87557" transform="translate(0)">
          <g id="Grupo_87552" data-name="Grupo 87552" transform="translate(69.922)">
            <path id="Trazado_141874" data-name="Trazado 141874" d="M560.977,55.395H535.465a25.922,25.922,0,1,0-51.844,0H458.11a7.522,7.522,0,0,0-7.523,7.523V84.226A3.413,3.413,0,0,0,454,87.64H565.087a3.413,3.413,0,0,0,3.413-3.413V62.918A7.522,7.522,0,0,0,560.977,55.395Zm-51.433-5.005a6.138,6.138,0,1,1,6.138-6.138A6.138,6.138,0,0,1,509.543,50.389Z" transform="translate(-450.587 -29.473)" fill="#344154"/>
          </g>
          <g id="Grupo_87553" data-name="Grupo 87553" transform="translate(0 34.769)">
            <path id="Rectángulo_31691" data-name="Rectángulo 31691" d="M8.453,0H249.3a8.453,8.453,0,0,1,8.453,8.453V359.934a8.453,8.453,0,0,1-8.453,8.453H8.452A8.452,8.452,0,0,1,0,359.935V8.453A8.453,8.453,0,0,1,8.453,0Z" fill="#12263f"/>
          </g>
          <g id="Grupo_87554" data-name="Grupo 87554" transform="translate(11.426 51.645)">
            <rect id="Rectángulo_31692" data-name="Rectángulo 31692" width="231.763" height="339.964" rx="6.091" fill="#fff"/>
          </g>
          <g id="Grupo_87555" data-name="Grupo 87555" transform="translate(70.998 33.392)">
            <path id="Trazado_141875" data-name="Trazado 141875" d="M564.172,62.195V80.858a6.3,6.3,0,0,1-6.3,6.3h-96.7a6.3,6.3,0,0,1-6.3-6.3V62.195h-3.231V81.457a8.934,8.934,0,0,0,8.933,8.934h97.894a8.934,8.934,0,0,0,8.934-8.934V62.195Z" transform="translate(-451.641 -62.195)" fill="#344154"/>
          </g>
          <g id="Grupo_87556" data-name="Grupo 87556" transform="translate(47.711 30.794)">
            <rect id="Rectángulo_31693" data-name="Rectángulo 31693" width="162.334" height="12.165" rx="4.24" fill="#344154"/>
          </g>
        </g>
        <g id="Grupo_87565" data-name="Grupo 87565" transform="translate(30.447 119.772)">
          <g id="Grupo_87562" data-name="Grupo 87562" transform="translate(10.503 44.575)">
            <g id="Grupo_87558" data-name="Grupo 87558" transform="translate(0 31.529)">
              <rect id="Rectángulo_31694" data-name="Rectángulo 31694" width="10.021" height="11.053" fill="#e8c7aa"/>
            </g>
            <g id="Grupo_87559" data-name="Grupo 87559" transform="translate(17.881 9.315)">
              <rect id="Rectángulo_31695" data-name="Rectángulo 31695" width="10.021" height="33.267" fill="#e8c7aa"/>
            </g>
            <g id="Grupo_87560" data-name="Grupo 87560" transform="translate(35.761 21.793)">
              <rect id="Rectángulo_31696" data-name="Rectángulo 31696" width="10.021" height="20.789" fill="#e8c7aa"/>
            </g>
            <g id="Grupo_87561" data-name="Grupo 87561" transform="translate(53.642)">
              <rect id="Rectángulo_31697" data-name="Rectángulo 31697" width="10.021" height="42.581" fill="#e8c7aa"/>
            </g>
          </g>
          <g id="Grupo_87563" data-name="Grupo 87563">
            <path id="Trazado_141876" data-name="Trazado 141876" d="M414.365,237.889V146.843H411.9V240.35h87.523v-2.46Z" transform="translate(-411.904 -146.843)" fill="#12263f"/>
          </g>
          <g id="Grupo_87564" data-name="Grupo 87564" transform="translate(8.598 24.485)">
            <path id="Trazado_141877" data-name="Trazado 141877" d="M484.273,172.5l-5.349-.829-5.348-.829c-.312-.048-.471.312-.287.649l2.213,4.019-10.873,5.85-3.37-3.174-1.009-.949-1.241.618-15.524,7.739-3.871-2.118-.8-.437-.713.273-17.481,6.7a.452.452,0,0,0,.255.864l3.563-.733,13.9-2.858,4.15,2.272.912.5.932-.463L459.543,182l3.4,3.206,1.043.982,1.263-.68,12.156-6.54.753,1.368,1.473,2.677c.16.29.474.376.638.207a.332.332,0,0,0,.065-.1l2.176-4.935,2.06-4.673.116-.262A.592.592,0,0,0,484.273,172.5Z" transform="translate(-420.33 -170.837)" fill="#7125c8"/>
          </g>
        </g>
        <g id="Grupo_87571" data-name="Grupo 87571" transform="translate(143.496 132.61)">
          <g id="Grupo_87566" data-name="Grupo 87566">
            <rect id="Rectángulo_31698" data-name="Rectángulo 31698" width="12.393" height="12.393" rx="2.73" fill="#12263f"/>
          </g>
          <g id="Grupo_87570" data-name="Grupo 87570" transform="translate(17.534 2.18)">
            <g id="Grupo_87567" data-name="Grupo 87567">
              <path id="Trazado_141878" data-name="Trazado 141878" d="M600.254,163.156H540.666a.8.8,0,0,1-.8-.8h0a.8.8,0,0,1,.8-.8h59.588a.8.8,0,0,1,.8.8h0A.8.8,0,0,1,600.254,163.156Z" transform="translate(-539.868 -161.56)" fill="#b0c0d2"/>
            </g>
            <g id="Grupo_87568" data-name="Grupo 87568" transform="translate(0 6.437)">
              <path id="Trazado_141879" data-name="Trazado 141879" d="M556.361,169.464H540.666a.8.8,0,0,1-.8-.8h0a.8.8,0,0,1,.8-.8h15.695a.8.8,0,0,1,.8.8h0A.8.8,0,0,1,556.361,169.464Z" transform="translate(-539.868 -167.868)" fill="#b0c0d2"/>
            </g>
            <g id="Grupo_87569" data-name="Grupo 87569" transform="translate(22.239 6.437)">
              <path id="Trazado_141880" data-name="Trazado 141880" d="M591.4,169.464H562.459a.8.8,0,0,1-.8-.8h0a.8.8,0,0,1,.8-.8H591.4a.8.8,0,0,1,.8.8h0A.8.8,0,0,1,591.4,169.464Z" transform="translate(-561.661 -167.868)" fill="#b0c0d2"/>
            </g>
          </g>
        </g>
        <g id="Grupo_87577" data-name="Grupo 87577" transform="translate(143.496 160.329)">
          <g id="Grupo_87572" data-name="Grupo 87572">
            <rect id="Rectángulo_31699" data-name="Rectángulo 31699" width="12.393" height="12.393" rx="2.73" fill="#12263f"/>
          </g>
          <g id="Grupo_87576" data-name="Grupo 87576" transform="translate(17.534 2.179)">
            <g id="Grupo_87573" data-name="Grupo 87573">
              <path id="Trazado_141881" data-name="Trazado 141881" d="M600.254,190.318H540.666a.8.8,0,0,1-.8-.8h0a.8.8,0,0,1,.8-.8h59.588a.8.8,0,0,1,.8.8h0A.8.8,0,0,1,600.254,190.318Z" transform="translate(-539.868 -188.722)" fill="#b0c0d2"/>
            </g>
            <g id="Grupo_87574" data-name="Grupo 87574" transform="translate(0 6.438)">
              <path id="Trazado_141882" data-name="Trazado 141882" d="M556.361,196.627H540.666a.8.8,0,0,1-.8-.8h0a.8.8,0,0,1,.8-.8h15.695a.8.8,0,0,1,.8.8h0A.8.8,0,0,1,556.361,196.627Z" transform="translate(-539.868 -195.031)" fill="#b0c0d2"/>
            </g>
            <g id="Grupo_87575" data-name="Grupo 87575" transform="translate(22.239 6.438)">
              <path id="Trazado_141883" data-name="Trazado 141883" d="M591.4,196.627H562.459a.8.8,0,0,1-.8-.8h0a.8.8,0,0,1,.8-.8H591.4a.8.8,0,0,1,.8.8h0A.8.8,0,0,1,591.4,196.627Z" transform="translate(-561.661 -195.031)" fill="#b0c0d2"/>
            </g>
          </g>
        </g>
        <g id="Grupo_87583" data-name="Grupo 87583" transform="translate(143.496 188.047)">
          <g id="Grupo_87578" data-name="Grupo 87578">
            <rect id="Rectángulo_31700" data-name="Rectángulo 31700" width="12.393" height="12.393" rx="2.73" fill="#12263f"/>
          </g>
          <g id="Grupo_87582" data-name="Grupo 87582" transform="translate(17.534 2.18)">
            <g id="Grupo_87579" data-name="Grupo 87579">
              <path id="Trazado_141884" data-name="Trazado 141884" d="M600.254,217.481H540.666a.8.8,0,0,1-.8-.8h0a.8.8,0,0,1,.8-.8h59.588a.8.8,0,0,1,.8.8h0A.8.8,0,0,1,600.254,217.481Z" transform="translate(-539.868 -215.885)" fill="#b0c0d2"/>
            </g>
            <g id="Grupo_87580" data-name="Grupo 87580" transform="translate(0 6.437)">
              <path id="Trazado_141885" data-name="Trazado 141885" d="M556.361,223.789H540.666a.8.8,0,0,1-.8-.8h0a.8.8,0,0,1,.8-.8h15.695a.8.8,0,0,1,.8.8h0A.8.8,0,0,1,556.361,223.789Z" transform="translate(-539.868 -222.193)" fill="#b0c0d2"/>
            </g>
            <g id="Grupo_87581" data-name="Grupo 87581" transform="translate(22.239 6.437)">
              <path id="Trazado_141886" data-name="Trazado 141886" d="M591.4,223.789H562.459a.8.8,0,0,1-.8-.8h0a.8.8,0,0,1,.8-.8H591.4a.8.8,0,0,1,.8.8h0A.8.8,0,0,1,591.4,223.789Z" transform="translate(-561.661 -222.193)" fill="#b0c0d2"/>
            </g>
          </g>
        </g>
        <g id="Grupo_87588" data-name="Grupo 87588" transform="translate(35.791 230.05)">
          <g id="Grupo_87584" data-name="Grupo 87584">
            <rect id="Rectángulo_31701" data-name="Rectángulo 31701" width="48.362" height="7.866" rx="2.661" fill="#acfcff"/>
          </g>
          <g id="Grupo_87585" data-name="Grupo 87585" transform="translate(100.483)">
            <rect id="Rectángulo_31702" data-name="Rectángulo 31702" width="33.891" height="7.866" rx="2.661" fill="#acfcff"/>
          </g>
          <g id="Grupo_87586" data-name="Grupo 87586" transform="translate(146.494)">
            <rect id="Rectángulo_31703" data-name="Rectángulo 31703" width="33.891" height="7.866" rx="2.661" fill="#acfcff"/>
          </g>
          <g id="Grupo_87587" data-name="Grupo 87587" transform="translate(59.221)">
            <rect id="Rectángulo_31704" data-name="Rectángulo 31704" width="24.912" height="7.866" rx="2.661" fill="#acfcff"/>
          </g>
        </g>
        <g id="Grupo_87593" data-name="Grupo 87593" transform="translate(35.791 245.783)">
          <g id="Grupo_87589" data-name="Grupo 87589">
            <rect id="Rectángulo_31705" data-name="Rectángulo 31705" width="48.362" height="7.866" rx="2.661" fill="#acfcff"/>
          </g>
          <g id="Grupo_87590" data-name="Grupo 87590" transform="translate(100.483)">
            <rect id="Rectángulo_31706" data-name="Rectángulo 31706" width="33.891" height="7.866" rx="2.661" fill="#acfcff"/>
          </g>
          <g id="Grupo_87591" data-name="Grupo 87591" transform="translate(146.494)">
            <rect id="Rectángulo_31707" data-name="Rectángulo 31707" width="33.891" height="7.866" rx="2.661" fill="#a4a3ff"/>
          </g>
          <g id="Grupo_87592" data-name="Grupo 87592" transform="translate(59.221)">
            <rect id="Rectángulo_31708" data-name="Rectángulo 31708" width="24.912" height="7.866" rx="2.661" fill="#acfcff"/>
          </g>
        </g>
        <g id="Grupo_87598" data-name="Grupo 87598" transform="translate(35.791 261.516)">
          <g id="Grupo_87594" data-name="Grupo 87594">
            <rect id="Rectángulo_31709" data-name="Rectángulo 31709" width="48.362" height="7.866" rx="2.661" fill="#acfcff"/>
          </g>
          <g id="Grupo_87595" data-name="Grupo 87595" transform="translate(100.483)">
            <rect id="Rectángulo_31710" data-name="Rectángulo 31710" width="33.891" height="7.866" rx="2.661" fill="#acfcff"/>
          </g>
          <g id="Grupo_87596" data-name="Grupo 87596" transform="translate(146.494)">
            <rect id="Rectángulo_31711" data-name="Rectángulo 31711" width="33.891" height="7.866" rx="2.661" fill="#a4a3ff"/>
          </g>
          <g id="Grupo_87597" data-name="Grupo 87597" transform="translate(59.221)">
            <rect id="Rectángulo_31712" data-name="Rectángulo 31712" width="24.912" height="7.866" rx="2.661" fill="#a4a3ff"/>
          </g>
        </g>
        <g id="Grupo_87603" data-name="Grupo 87603" transform="translate(35.791 277.249)">
          <g id="Grupo_87599" data-name="Grupo 87599">
            <rect id="Rectángulo_31713" data-name="Rectángulo 31713" width="48.362" height="7.866" rx="2.661" fill="#acfcff"/>
          </g>
          <g id="Grupo_87600" data-name="Grupo 87600" transform="translate(100.483)">
            <rect id="Rectángulo_31714" data-name="Rectángulo 31714" width="33.891" height="7.866" rx="2.661" fill="#acfcff"/>
          </g>
          <g id="Grupo_87601" data-name="Grupo 87601" transform="translate(146.494)">
            <rect id="Rectángulo_31715" data-name="Rectángulo 31715" width="33.891" height="7.866" rx="2.661" fill="#a4a3ff"/>
          </g>
          <g id="Grupo_87602" data-name="Grupo 87602" transform="translate(59.221)">
            <rect id="Rectángulo_31716" data-name="Rectángulo 31716" width="24.912" height="7.866" rx="2.661" fill="#acfcff"/>
          </g>
        </g>
        <g id="Grupo_87608" data-name="Grupo 87608" transform="translate(35.791 292.982)">
          <g id="Grupo_87604" data-name="Grupo 87604">
            <rect id="Rectángulo_31717" data-name="Rectángulo 31717" width="48.362" height="7.866" rx="2.661" fill="#a4a3ff"/>
          </g>
          <g id="Grupo_87605" data-name="Grupo 87605" transform="translate(100.483)">
            <rect id="Rectángulo_31718" data-name="Rectángulo 31718" width="33.891" height="7.866" rx="2.661" fill="#acfcff"/>
          </g>
          <g id="Grupo_87606" data-name="Grupo 87606" transform="translate(146.494)">
            <rect id="Rectángulo_31719" data-name="Rectángulo 31719" width="33.891" height="7.866" rx="2.661" fill="#acfcff"/>
          </g>
          <g id="Grupo_87607" data-name="Grupo 87607" transform="translate(59.221)">
            <rect id="Rectángulo_31720" data-name="Rectángulo 31720" width="24.912" height="7.866" rx="2.661" fill="#a4a3ff"/>
          </g>
        </g>
        <g id="Grupo_87623" data-name="Grupo 87623" transform="translate(35.791 318.808)">
          <g id="Grupo_87609" data-name="Grupo 87609">
            <rect id="Rectángulo_31721" data-name="Rectángulo 31721" width="24.267" height="21.967" rx="3.361" fill="#aed3f2"/>
          </g>
          <g id="Grupo_87610" data-name="Grupo 87610" transform="translate(0 31.466)">
            <rect id="Rectángulo_31722" data-name="Rectángulo 31722" width="24.267" height="21.967" rx="3.361" fill="#aed3f2"/>
          </g>
          <g id="Grupo_87616" data-name="Grupo 87616" transform="translate(33.863 6.901)">
            <g id="Grupo_87611" data-name="Grupo 87611">
              <path id="Trazado_141887" data-name="Trazado 141887" d="M536.95,351.1H451.374a1.147,1.147,0,0,1-1.05-1.225h0a1.148,1.148,0,0,1,1.05-1.224H536.95A1.148,1.148,0,0,1,538,349.874h0A1.148,1.148,0,0,1,536.95,351.1Z" transform="translate(-450.324 -348.65)" fill="#12263f"/>
            </g>
            <g id="Grupo_87612" data-name="Grupo 87612" transform="translate(0 9.203)">
              <path id="Trazado_141888" data-name="Trazado 141888" d="M501.4,360.117H451.374a1.147,1.147,0,0,1-1.05-1.225h0a1.147,1.147,0,0,1,1.05-1.224H501.4a1.147,1.147,0,0,1,1.051,1.224h0A1.148,1.148,0,0,1,501.4,360.117Z" transform="translate(-450.324 -357.668)" fill="#12263f"/>
            </g>
            <g id="Grupo_87613" data-name="Grupo 87613" transform="translate(58.664 9.203)">
              <path id="Trazado_141889" data-name="Trazado 141889" d="M571,360.117H508.862a1.147,1.147,0,0,1-1.05-1.225h0a1.147,1.147,0,0,1,1.05-1.224H571a1.147,1.147,0,0,1,1.051,1.224h0A1.148,1.148,0,0,1,571,360.117Z" transform="translate(-507.812 -357.668)" fill="#12263f"/>
            </g>
            <g id="Grupo_87614" data-name="Grupo 87614" transform="translate(128.594 9.203)">
              <path id="Trazado_141890" data-name="Trazado 141890" d="M593.216,360.117H577.389a1.148,1.148,0,0,1-1.05-1.225h0a1.147,1.147,0,0,1,1.05-1.224h15.827a1.148,1.148,0,0,1,1.051,1.224h0A1.148,1.148,0,0,1,593.216,360.117Z" transform="translate(-576.339 -357.668)" fill="#12263f"/>
            </g>
            <g id="Grupo_87615" data-name="Grupo 87615" transform="translate(93.841)">
              <path id="Trazado_141891" data-name="Trazado 141891" d="M593.913,351.1H543.334a1.148,1.148,0,0,1-1.051-1.225h0a1.148,1.148,0,0,1,1.051-1.224h50.579a1.148,1.148,0,0,1,1.051,1.224h0A1.148,1.148,0,0,1,593.913,351.1Z" transform="translate(-542.283 -348.65)" fill="#12263f"/>
            </g>
          </g>
          <g id="Grupo_87622" data-name="Grupo 87622" transform="translate(33.863 36.623)">
            <g id="Grupo_87617" data-name="Grupo 87617">
              <path id="Trazado_141892" data-name="Trazado 141892" d="M536.95,380.225H451.374a1.147,1.147,0,0,1-1.05-1.224h0a1.147,1.147,0,0,1,1.05-1.225H536.95A1.148,1.148,0,0,1,538,379h0A1.148,1.148,0,0,1,536.95,380.225Z" transform="translate(-450.324 -377.776)" fill="#12263f"/>
            </g>
            <g id="Grupo_87618" data-name="Grupo 87618" transform="translate(0 9.203)">
              <path id="Trazado_141893" data-name="Trazado 141893" d="M501.4,389.243H451.374a1.147,1.147,0,0,1-1.05-1.225h0a1.147,1.147,0,0,1,1.05-1.224H501.4a1.147,1.147,0,0,1,1.051,1.224h0A1.147,1.147,0,0,1,501.4,389.243Z" transform="translate(-450.324 -386.794)" fill="#12263f"/>
            </g>
            <g id="Grupo_87619" data-name="Grupo 87619" transform="translate(58.664 9.203)">
              <path id="Trazado_141894" data-name="Trazado 141894" d="M571,389.243H508.862a1.147,1.147,0,0,1-1.05-1.225h0a1.147,1.147,0,0,1,1.05-1.224H571a1.147,1.147,0,0,1,1.051,1.224h0A1.148,1.148,0,0,1,571,389.243Z" transform="translate(-507.812 -386.794)" fill="#12263f"/>
            </g>
            <g id="Grupo_87620" data-name="Grupo 87620" transform="translate(128.594 9.203)">
              <path id="Trazado_141895" data-name="Trazado 141895" d="M593.216,389.243H577.389a1.147,1.147,0,0,1-1.05-1.225h0a1.147,1.147,0,0,1,1.05-1.224h15.827a1.148,1.148,0,0,1,1.051,1.224h0A1.148,1.148,0,0,1,593.216,389.243Z" transform="translate(-576.339 -386.794)" fill="#12263f"/>
            </g>
            <g id="Grupo_87621" data-name="Grupo 87621" transform="translate(93.841)">
              <path id="Trazado_141896" data-name="Trazado 141896" d="M593.913,380.225H543.334A1.147,1.147,0,0,1,542.283,379h0a1.148,1.148,0,0,1,1.051-1.225h50.579A1.148,1.148,0,0,1,594.965,379h0A1.148,1.148,0,0,1,593.913,380.225Z" transform="translate(-542.283 -377.776)" fill="#12263f"/>
            </g>
          </g>
        </g>
        <g id="Grupo_87624" data-name="Grupo 87624" transform="translate(41.407 324.953)">
          <path id="Trazado_141897" data-name="Trazado 141897" d="M432.913,347.909l-4.865,6.755-3.365-3.176-2.039,2.581,5.71,3.8,7.324-7.827Z" transform="translate(-422.644 -347.909)" fill="#fff"/>
        </g>
        <g id="Grupo_87625" data-name="Grupo 87625" transform="translate(41.927 356.277)">
          <path id="Trazado_141898" data-name="Trazado 141898" d="M433.423,378.6l-4.866,6.756q-1.682-1.589-3.365-3.176l-2.039,2.581q2.856,1.9,5.71,3.8l7.324-7.828Z" transform="translate(-423.153 -378.605)" fill="#fff"/>
        </g>
      </g>
      <g id="Grupo_87682" data-name="Grupo 87682" transform="translate(48.897 161.852)">
        <g id="Grupo_87681" data-name="Grupo 87681">
          <g id="Grupo_87628" data-name="Grupo 87628" transform="translate(38.678 129.851)">
            <g id="Grupo_87627" data-name="Grupo 87627">
              <path id="Trazado_141899" data-name="Trazado 141899" d="M200.844,348.494a189.162,189.162,0,0,0,10.709,66.239q2.077,5.974,4.6,11.951L214.225,439.5h37.033L227.352,425.24c-.546-3.405-.995-6.927-1.385-10.507-2.515-24.229-1.443-51-.721-63.064a30.937,30.937,0,0,0-1.99-12.817c-6.437-16.78-23.739-63.333-29.318-92.122h-40.65C146.324,292.8,165.088,312.661,200.844,348.494Z" transform="translate(-151.852 -246.73)" fill="#ffbf9d"/>
            </g>
          </g>
          <g id="Grupo_87630" data-name="Grupo 87630" transform="translate(38.678 129.851)">
            <g id="Grupo_87629" data-name="Grupo 87629">
              <path id="Trazado_141900" data-name="Trazado 141900" d="M171.292,316.683c7.783,9.873,17.731,19.976,29.552,31.811-.253,23.651,1.37,50.5,8.821,71.711l18.516-.963c-2.516-24.229,1.735-64.7-2.052-80.021-4.312-17.448-26.612-63.7-32.191-92.491h-40.65C148.625,277.579,155.492,296.688,171.292,316.683Z" transform="translate(-151.851 -246.73)" fill="#12263f"/>
            </g>
          </g>
          <g id="Grupo_87632" data-name="Grupo 87632" transform="translate(58.099 161.668)">
            <g id="Grupo_87631" data-name="Grupo 87631">
              <path id="Trazado_141901" data-name="Trazado 141901" d="M170.883,315.968l.019.077c7.783,9.873,17.731,19.976,29.552,31.811-.253,23.651,1.37,50.5,8.821,71.711l5.491-.286c-7.727-19.971-9.877-46.133-9-72.8-40.379-32.889-13.575-44.736-26.13-68.57Z" transform="translate(-170.883 -277.909)" fill="#334b60"/>
            </g>
          </g>
          <g id="Grupo_87634" data-name="Grupo 87634" transform="translate(100.861 308.361)">
            <g id="Grupo_87633" data-name="Grupo 87633">
              <path id="Trazado_141902" data-name="Trazado 141902" d="M226.105,421.66c8.91,4.564,24.453,3.3,25.369,14.261h-38.5c-.435-5.159-.182-10,1.33-14.261A35.706,35.706,0,0,0,226.105,421.66Z" transform="translate(-212.787 -421.66)" fill="#a4a3ff"/>
            </g>
          </g>
          <g id="Grupo_87643" data-name="Grupo 87643" transform="translate(0 128.41)">
            <g id="Grupo_87636" data-name="Grupo 87636" transform="translate(0.588 0.005)">
              <g id="Grupo_87635" data-name="Grupo 87635">
                <path id="Trazado_141903" data-name="Trazado 141903" d="M119.194,423.584c-1.6,3.473-3.111,6.693-4.669,10.073q15.511,3.7,31.016,7.423c-6.256-5.2-12.555-10.29-18.782-15.552,2.384-4.835,5.287-11.655,7.874-16.033,10.362-17.535,22.082-33.065,33.944-49.434a28.8,28.8,0,0,0,5.514-12.734c5.53-32.239,4.832-65.491,10.642-97.792-9.178-1.429-18.335-2.809-27.506-4.211-25.559,39.923-20.151,61.213-9.435,104.06-12.721,17.218-19.735,36.669-24.837,57.47C121.9,411.137,120.116,418.807,119.194,423.584Z" transform="translate(-114.525 -245.323)" fill="#ffbf9d"/>
              </g>
            </g>
            <g id="Grupo_87638" data-name="Grupo 87638" transform="translate(3.525)">
              <g id="Grupo_87637" data-name="Grupo 87637">
                <path id="Trazado_141904" data-name="Trazado 141904" d="M174,347.368a28.183,28.183,0,0,1-5.569,12.84c-13.446,18.817-23.98,40.232-35.811,60.194-5.11-1.162-10.141-2.377-15.22-3.56,5.876-23.289,15.736-47.945,30.325-67.441-10.7-42.874-16.121-64.123,9.423-104.052a.081.081,0,0,1,.017-.032l31.274,4.777c-.146.791-.288,1.583-.435,2.375,0,.016,0,.053,0,.07C182.45,284.015,179.553,315.918,174,347.368Z" transform="translate(-117.403 -245.318)" fill="#1b2f48"/>
              </g>
            </g>
            <g id="Grupo_87640" data-name="Grupo 87640" transform="translate(3.517 0.033)">
              <g id="Grupo_87639" data-name="Grupo 87639">
                <path id="Trazado_141905" data-name="Trazado 141905" d="M182.113,253.774c-3.347,4.713-.194,14.148-3.867,19.283-9.507,13.293-22.294,3.44-30.523,8.8-14,9.112,1.551,50.653,4.631,61.9.093.34,2.253,7.828,3.675,7.67-6.458.777-4.169-3.776-12.422,10.223-3.723,6.316-22.988,43.188-23.713,54.886-1.649,1.6-1.545,0-2.5.327,5.9-23.328,15.738-47.949,30.334-67.459-10.7-42.87-16.127-64.123,9.425-104.049,10.162,2.328,22.858.766,32.781,3.07C191.105,248.691,184.293,250.706,182.113,253.774Z" transform="translate(-117.395 -245.35)" fill="#12263f"/>
              </g>
            </g>
            <g id="Grupo_87642" data-name="Grupo 87642" transform="translate(0 175.07)">
              <g id="Grupo_87641" data-name="Grupo 87641">
                <path id="Trazado_141906" data-name="Trazado 141906" d="M128.388,418.894c8.7,6.09,20.762,7.91,21.56,19.726q-18-4.309-36-8.617a37.387,37.387,0,0,1,5.873-13.126C122.465,419.155,124.972,419.643,128.388,418.894Z" transform="translate(-113.949 -416.877)" fill="#a4a3ff"/>
              </g>
            </g>
          </g>
          <g id="Grupo_87653" data-name="Grupo 87653" transform="translate(74.415 40.535)">
            <g id="Grupo_87645" data-name="Grupo 87645" transform="translate(77.004 2.629)">
              <g id="Grupo_87644" data-name="Grupo 87644">
                <path id="Trazado_141907" data-name="Trazado 141907" d="M269.1,178.933s-2.7,1.414-3.537,1.976c-1.548-2.723-1.775-5.311-3.229-7.886,0,0,3.807-1.018,4.172-1.773,1.2-2.486,2.286-7.076,4.8-7.686,2.553-.618.486,5.525.486,5.525s5.977-1.7,9.523-5C290.736,155.327,287.668,173.991,269.1,178.933Z" transform="translate(-262.332 -161.781)" fill="#ffbf9d"/>
              </g>
            </g>
            <g id="Grupo_87647" data-name="Grupo 87647" transform="translate(0 0)">
              <g id="Grupo_87646" data-name="Grupo 87646">
                <path id="Trazado_141908" data-name="Trazado 141908" d="M269.677,180.566c-6.14,4.118-32.56,20.542-42.433,21.312-11.227.883-40.372-10.958-40.372-10.958l1.215-31.7c5.4-.812,38.811,26.177,38.811,26.177L265.1,170.852C266.559,173.427,268.129,177.844,269.677,180.566Z" transform="translate(-186.872 -159.205)" fill="#a4a3ff"/>
              </g>
            </g>
            <g id="Grupo_87652" data-name="Grupo 87652">
              <g id="Grupo_87649" data-name="Grupo 87649" transform="translate(1.212)">
                <g id="Grupo_87648" data-name="Grupo 87648">
                  <path id="Trazado_141909" data-name="Trazado 141909" d="M204.9,168.681c-7.509-5.332-14.59-9.8-16.835-9.458l0,.059C191.878,160.666,198.374,164.5,204.9,168.681Z" transform="translate(-188.06 -159.205)" fill="#384c78"/>
                </g>
              </g>
              <g id="Grupo_87651" data-name="Grupo 87651" transform="translate(0 18.197)">
                <g id="Grupo_87650" data-name="Grupo 87650">
                  <path id="Trazado_141910" data-name="Trazado 141910" d="M268.123,177.037c-6.783,5.05-31.74,20.455-41.274,21.745-9.974,1.354-34.808-6.628-39.974-8.34l0,.114s29.144,11.84,40.372,10.958c9.873-.77,36.293-17.195,42.433-21.312A32.528,32.528,0,0,1,268.123,177.037Z" transform="translate(-186.872 -177.037)" fill="#8684f0"/>
                </g>
              </g>
            </g>
          </g>
          <g id="Grupo_87655" data-name="Grupo 87655" transform="translate(37.958 40.545)">
            <g id="Grupo_87654" data-name="Grupo 87654">
              <path id="Trazado_141911" data-name="Trazado 141911" d="M205.228,198.819l-11.273,49.744H153.3s-6.728-47.819,3.589-72.869c4.644-11.286,19.895-16.158,20.851-16.46l.043-.018,11.336.653Z" transform="translate(-151.146 -159.215)" fill="#ffbf9d"/>
            </g>
          </g>
          <g id="Grupo_87657" data-name="Grupo 87657" transform="translate(37.959 40.546)">
            <g id="Grupo_87656" data-name="Grupo 87656">
              <path id="Trazado_141912" data-name="Trazado 141912" d="M204.758,200.859l-9.5,41.934a7.356,7.356,0,0,1-7.144,5.775c-5.9,2.713-14.278,1.783-23.245,0a12.94,12.94,0,0,1-12.822-11.989c-1.289-15.832-2.224-43.711,4.856-60.892,3.637-8.825,13.768-13.736,18.452-15.6a12.537,12.537,0,0,1,4.631-.875l8.767.02c1.346,0,16.282,37.508,16.282,37.508A13.242,13.242,0,0,1,204.758,200.859Z" transform="translate(-151.147 -159.216)" fill="#fff"/>
            </g>
          </g>
          <g id="Grupo_87659" data-name="Grupo 87659" transform="translate(47.187 126.095)">
            <g id="Grupo_87658" data-name="Grupo 87658">
              <rect id="Rectángulo_31723" data-name="Rectángulo 31723" width="43.138" height="6.401" fill="#182f57"/>
            </g>
          </g>
          <g id="Grupo_87661" data-name="Grupo 87661" transform="translate(72.272 40.532)">
            <g id="Grupo_87660" data-name="Grupo 87660">
              <path id="Trazado_141913" data-name="Trazado 141913" d="M185.833,273.216a5.986,5.986,0,0,0,4.174,4.139,18.5,18.5,0,0,0,7.9.415c.117-.019.214-.04.332-.059a34.328,34.328,0,0,0,6.281-1.684l.019-62.02s.265-11.4,0-15.188c-1.174-16.717.492-36.381-15.4-39.519a3.211,3.211,0,0,0-1.1-.086C200.166,210.548,180.078,251.909,185.833,273.216Z" transform="translate(-184.771 -159.202)" fill="#8684f0"/>
            </g>
          </g>
          <g id="Grupo_87663" data-name="Grupo 87663" transform="translate(25.098 40.546)">
            <g id="Grupo_87662" data-name="Grupo 87662">
              <path id="Trazado_141914" data-name="Trazado 141914" d="M141.521,279.341c8.531,1.857,18.076,1.009,25.414-.03a11.916,11.916,0,0,0,10.1-12.768c-2.554-35.291,7.6-69.861,1.009-107.327l-.039.019c-.956.3-16.28,5.14-20.852,16.456-8.6,21.277-11.959,68.4-18.517,99.029A3.88,3.88,0,0,0,141.521,279.341Z" transform="translate(-138.544 -159.216)" fill="#a4a3ff"/>
            </g>
          </g>
          <g id="Grupo_87665" data-name="Grupo 87665" transform="translate(34.701 128.636)">
            <g id="Grupo_87664" data-name="Grupo 87664">
              <path id="Trazado_141915" data-name="Trazado 141915" d="M147.954,248.484a51.089,51.089,0,0,0,19.263,0v-2.945a70.447,70.447,0,0,1-19.263,0Z" transform="translate(-147.954 -245.539)" fill="#8684f0"/>
            </g>
          </g>
          <g id="Grupo_87672" data-name="Grupo 87672" transform="translate(44.64 48.032)">
            <g id="Grupo_87667" data-name="Grupo 87667" transform="translate(95.169 58.605)">
              <g id="Grupo_87666" data-name="Grupo 87666">
                <path id="Trazado_141916" data-name="Trazado 141916" d="M257.011,238.954a34.675,34.675,0,0,0-6.057,0l.267-10.03s4.589,1.155,5.79.343c1.972-1.333,5.1-4.778,8.477-5.257s-1.807,5.5-1.807,5.5,7.285,1.788,13.319,0S281.752,242.576,257.011,238.954Z" transform="translate(-250.954 -223.982)" fill="#ffbf9d"/>
              </g>
            </g>
            <g id="Grupo_87669" data-name="Grupo 87669">
              <g id="Grupo_87668" data-name="Grupo 87668">
                <path id="Trazado_141917" data-name="Trazado 141917" d="M255.674,229.635v12.352c-12.139,1.139-44.313,1.866-55.295-1.854-13.879-4.708-42.685-47.064-42.685-47.064l15.277-26.517c11.846,13.864,36.8,55.307,36.8,55.307Z" transform="translate(-157.694 -166.552)" fill="#a4a3ff"/>
              </g>
            </g>
            <g id="Grupo_87671" data-name="Grupo 87671" transform="translate(0 26.517)">
              <g id="Grupo_87670" data-name="Grupo 87670">
                <path id="Trazado_141918" data-name="Trazado 141918" d="M202.155,233.568c-12.612-3.836-44.461-41.031-44.461-41.031S186.5,234.892,200.379,239.6c10.982,3.721,43.155,2.993,55.295,1.854v-4.438C243.057,238.518,213.031,236.872,202.155,233.568Z" transform="translate(-157.694 -192.537)" fill="#8684f0"/>
              </g>
            </g>
          </g>
          <g id="Grupo_87674" data-name="Grupo 87674" transform="translate(56.544)">
            <g id="Grupo_87673" data-name="Grupo 87673">
              <path id="Trazado_141919" data-name="Trazado 141919" d="M181.763,152.117s-9.708-.032-12.036-11.326,6.929-15.309,13.009-15.23a16.017,16.017,0,0,0,12.786-6.078s5.4,7.352,2.291,13.806C195.123,138.882,181.763,152.117,181.763,152.117Z" transform="translate(-169.359 -119.483)" fill="#344154"/>
            </g>
          </g>
          <g id="Grupo_87676" data-name="Grupo 87676" transform="translate(64.595 23.793)">
            <g id="Grupo_87675" data-name="Grupo 87675">
              <path id="Trazado_141920" data-name="Trazado 141920" d="M189.09,146.3l-.216,3.259-.572,8.745-.088,1.332c-.175,6.94-10.433,4.066-10.965-.088l1.688-6.9,1.239-5.059.433-1.776.736-3.014Z" transform="translate(-177.249 -142.799)" fill="#ffbf9d"/>
            </g>
          </g>
          <g id="Grupo_87678" data-name="Grupo 87678" transform="translate(66.283 26.808)">
            <g id="Grupo_87677" data-name="Grupo 87677">
              <path id="Trazado_141921" data-name="Trazado 141921" d="M188.84,149.5l-.572,8.745c-2.582-.532-6.5-1.735-8.482-4.428-.309-.415-.6-.824-.883-1.233l1.239-5.059.433-1.776Z" transform="translate(-178.903 -145.753)" fill="#f0b4b4"/>
            </g>
          </g>
          <g id="Grupo_87680" data-name="Grupo 87680" transform="translate(62.634 12.084)">
            <g id="Grupo_87679" data-name="Grupo 87679">
              <path id="Trazado_141922" data-name="Trazado 141922" d="M192.835,131.7a2.606,2.606,0,0,1,3.921,2.163c.352,7.12.028,18.68-5.546,20.566-8.149,2.758-13.971-8.012-13.971-8.012s-3.493-4.986-1.035-6.693,4.786,2.491,4.786,2.491C181.394,134.3,187.96,134.715,192.835,131.7Z" transform="translate(-175.327 -131.324)" fill="#ffbf9d"/>
            </g>
          </g>
        </g>
        <path id="Trazado_141923" data-name="Trazado 141923" d="M192.068,145.316a3.421,3.421,0,0,0,2.829-.523,22.219,22.219,0,0,1-3.028-5.153Z" transform="translate(-112.354 -119.07)" fill="#ff9a6c"/>
        <path id="Trazado_141924" data-name="Trazado 141924" d="M187.808,138.818c.393,0,.734.558.744,1.1s-.322,1.02-.684,1.036-.679-.495-.747-1.094S187.407,138.813,187.808,138.818Z" transform="translate(-112.452 -119.087)" fill="#344154"/>
        <path id="Trazado_141925" data-name="Trazado 141925" d="M194.425,138.51c.4.005.727.488.74,1.092s-.287,1.1-.679,1.09-.724-.495-.738-1.1S194.034,138.5,194.425,138.51Z" transform="translate(-112.316 -119.094)" fill="#344154"/>
        <path id="Trazado_141926" data-name="Trazado 141926" d="M193.385,136.062a.361.361,0,0,0,.306.135,2.979,2.979,0,0,1,2.49.788.34.34,0,0,0,.479.049l.009-.008h0a.361.361,0,0,0,.029-.5h0a3.653,3.653,0,0,0-3.1-.983.363.363,0,0,0-.314.394A.474.474,0,0,0,193.385,136.062Z" transform="translate(-112.326 -119.155)" fill="#344154"/>
        <path id="Trazado_141927" data-name="Trazado 141927" d="M194.013,148.53a.361.361,0,0,0-.334-.021,2.981,2.981,0,0,1-2.608.115.34.34,0,0,0-.466.118l-.006.01h0a.363.363,0,0,0,.144.48h0a3.654,3.654,0,0,0,3.252-.144.362.362,0,0,0,.16-.478A.465.465,0,0,0,194.013,148.53Z" transform="translate(-112.381 -118.89)" fill="#344154"/>
        <path id="Trazado_141928" data-name="Trazado 141928" d="M185.948,137.656a.36.36,0,0,0,.32-.081,2.99,2.99,0,0,1,2.439-.92.34.34,0,0,0,.408-.254l0-.01h0a.363.363,0,0,0-.288-.41h0a3.617,3.617,0,0,0-3.06,1.111.355.355,0,0,0,0,.5A.338.338,0,0,0,185.948,137.656Z" transform="translate(-112.481 -119.146)" fill="#344154"/>
      </g>
      <g id="freepik--speech-bubble--inject-3" transform="translate(95.026 55.941)">
        <path id="Trazado_105190" data-name="Trazado 105190" d="M905.881,3119.42l13.573-2.079a41.581,41.581,0,1,0-10.77-10.289h0Z" transform="translate(-900.606 -3040.948)" fill="#43a99b"/>
        <path id="Trazado_105191" data-name="Trazado 105191" d="M905.841,3119.4l.163-.779.513-2.337c.46-2.1,1.145-5.21,2.025-9.244a.085.085,0,0,1,.1-.07h0l-.124.116a42.064,42.064,0,0,1-4.556-7.936,42.438,42.438,0,0,1-3.389-17.421,46.937,46.937,0,0,1,.779-6.9,41.537,41.537,0,0,1,52.691-32.155,43.049,43.049,0,0,1,9.213,3.894l2.126,1.386,1.075.7c.35.241.67.522,1,.779l2.017,1.635c.662.545,1.246,1.177,1.877,1.768a38.954,38.954,0,0,1,3.418,3.747l.413.475.366.514.716,1.035c.475.693,1,1.355,1.417,2.072s.818,1.45,1.231,2.173c.2.359.413.716.607,1.083l.5,1.136,1,2.251c.312.779.53,1.558.779,2.337a41.648,41.648,0,0,1-26.621,52.54q-1.611.527-3.26.923l-1.728.389-.857.187-.865.1c-1.145.133-2.266.289-3.372.4a57.1,57.1,0,0,1-6.448-.063,41.39,41.39,0,0,1-19.306-6.729h.062l-10.124,1.489-2.586.381-.865.117.9-.156,2.6-.412,10.07-1.558h.054a41.792,41.792,0,0,0,8.2,4.167,41.158,41.158,0,0,0,11.035,2.461,54.478,54.478,0,0,0,6.4.047c1.1-.117,2.219-.265,3.356-.4l.857-.1.841-.2,1.721-.389a41.275,41.275,0,0,0,30.524-49.754q-.4-1.659-.931-3.281c-.265-.779-.491-1.558-.779-2.336l-1-2.236-.5-1.12c-.187-.359-.4-.709-.6-1.075q-.607-1.057-1.214-2.148c-.421-.709-.935-1.364-1.4-2.05l-.716-1.02-.358-.513-.413-.475a39.03,39.03,0,0,0-3.45-3.716c-.623-.584-1.207-1.207-1.861-1.752l-1.986-1.558c-.335-.256-.654-.538-1-.778l-1.067-.694-2.111-1.37a42.951,42.951,0,0,0-9.111-3.9,40.9,40.9,0,0,0-35.457,5.8,41.461,41.461,0,0,0-11.386,12.032,41.017,41.017,0,0,0-5.451,14.017,46.235,46.235,0,0,0-.779,6.855,41.03,41.03,0,0,0,.343,6.416,41.559,41.559,0,0,0,7.562,18.777.093.093,0,0,1,0,.124.086.086,0,0,1-.1,0h0l.132-.047c-.919,4-1.628,7.079-2.11,9.174-.241,1.035-.428,1.829-.553,2.375A3.315,3.315,0,0,1,905.841,3119.4Z" transform="translate(-900.567 -3040.924)" fill="#5e6178"/>
      </g>
      <g id="Grupo_166807" data-name="Grupo 166807" transform="translate(-133 -2441.925)">
        <path id="Trazado_197297" data-name="Trazado 197297" d="M-2804.574,2063.146a33.392,33.392,0,0,1-5.925-6.629A34.362,34.362,0,0,1-2804.574,2063.146Z" transform="translate(3054.196 473.355)" fill="#fff" stroke="#5e6178" stroke-miterlimit="10" stroke-width="0"/>
        <path id="Trazado_197298" data-name="Trazado 197298" d="M-2806.579,2072.6a10.664,10.664,0,0,1,.526-2.594c.413-1.588,1.062-3.758,1.9-6.105s1.71-4.471,2.392-5.925a10.249,10.249,0,0,1,1.24-2.348,14.247,14.247,0,0,1-.861,2.505c-.581,1.52-1.386,3.622-2.235,5.959s-1.543,4.471-2.057,6.026A13.9,13.9,0,0,1-2806.579,2072.6Z" transform="translate(3054.893 473.194)" fill="#fff" stroke="#5e6178" stroke-miterlimit="10" stroke-width="0"/>
        <path id="Trazado_197299" data-name="Trazado 197299" d="M-2787.422,2059.732a36.52,36.52,0,0,1-9.2,0A35.181,35.181,0,0,1-2787.422,2059.732Z" transform="translate(3056.664 473.873)" fill="#fff" stroke="#5e6178" stroke-miterlimit="10" stroke-width="0"/>
        <path id="Trazado_197300" data-name="Trazado 197300" d="M-2786.325,2066.109a48.605,48.605,0,0,1-10.621,0A48.666,48.666,0,0,1-2786.325,2066.109Z" transform="translate(3056.606 475.01)" fill="#fff" stroke="#5e6178" stroke-miterlimit="10" stroke-width="0"/>
        <path id="Trazado_197301" data-name="Trazado 197301" d="M-2767.8,2058.522c0,.134-2.739-.391-6.787-.212h-.491l.269-.415c.972-1.542,2.079-3.275,3.242-5.13.906-1.5,2.158-2.9,1.822-4.316a1.553,1.553,0,0,0-1.263-1.24,2.661,2.661,0,0,0-1.71.245,5.394,5.394,0,0,0-1.824,1.9,3.948,3.948,0,0,1-.581.838,3.17,3.17,0,0,1,.38-.95,5.224,5.224,0,0,1,1.833-2.146,3,3,0,0,1,1.991-.37,2.078,2.078,0,0,1,1.7,1.609,3.586,3.586,0,0,1-.468,2.517c-.426.759-.906,1.464-1.387,2.235l-3.354,5.1-.223-.391a28.572,28.572,0,0,1,4.964.291A6.727,6.727,0,0,1-2767.8,2058.522Z" transform="translate(3060.488 471.606)" fill="#fff" stroke="#5e6178" stroke-miterlimit="10" stroke-width="0"/>
        <path id="Trazado_197302" data-name="Trazado 197302" d="M-2765.324,2076.1c0,.157-8.664,1.173-19.4,2.236s-19.486,1.889-19.486,1.732,8.664-1.185,19.4-2.235S-2765.335,2075.944-2765.324,2076.1Z" transform="translate(3055.316 476.833)" fill="#fff" stroke="#5e6178" stroke-miterlimit="10" stroke-width="0"/>
        <path id="Trazado_197303" data-name="Trazado 197303" d="M-2763.863,2080.209c0,.157-8.127,1.219-18.178,2.358s-18.222,1.934-18.245,1.777,8.117-1.218,18.178-2.358S-2763.886,2080.108-2763.863,2080.209Z" transform="translate(3056.013 477.568)" fill="#fff" stroke="#5e6178" stroke-miterlimit="10" stroke-width="0"/>
        <path id="Trazado_197304" data-name="Trazado 197304" d="M-2774.9,2059.355a12.215,12.215,0,0,1-1.229,2.3l-3.2,5.389-3.174,5.411a14.118,14.118,0,0,1-1.421,2.235,10.316,10.316,0,0,1,1.051-2.392c.739-1.431,1.8-3.354,3.042-5.511s2.448-3.992,3.354-5.322A10.857,10.857,0,0,1-2774.9,2059.355Z" transform="translate(3058.922 473.858)" fill="#fff" stroke="#5e6178" stroke-miterlimit="10" stroke-width="0"/>
        <path id="Trazado_197305" data-name="Trazado 197305" d="M-2774.9,2059.355a12.215,12.215,0,0,1-1.229,2.3l-3.2,5.389-3.174,5.411a14.118,14.118,0,0,1-1.421,2.235,10.316,10.316,0,0,1,1.051-2.392c.739-1.431,1.8-3.354,3.042-5.511s2.448-3.992,3.354-5.322A10.857,10.857,0,0,1-2774.9,2059.355Z" transform="matrix(0.259, -0.966, 0.966, 0.259, -997.717, -678.809)" fill="#fff" stroke="#5e6178" stroke-miterlimit="10" stroke-width="0"/>
      </g>
    </g>
  </g>
</svg>
