<svg xmlns="http://www.w3.org/2000/svg" width="190" height="81" viewBox="0 0 190 81">
  <g id="Grupo_974144" data-name="Grupo 974144" transform="translate(-1111.074 -2985.344)">
    <path id="Trazado_704728" data-name="Trazado 704728" d="M6.441,0H183.559C187.116,0,190,4.477,190,10V71c0,5.523-2.884,10-6.441,10H6.441C2.884,81,0,76.523,0,71V10C0,4.477,2.884,0,6.441,0Z" transform="translate(1111.074 2985.344)" fill="#7125c8"/>
    <g id="Grupo_974143" data-name="Grupo 974143" transform="translate(-2)">
      <path id="Trazado_704729" data-name="Trazado 704729" d="M9.3-5.388A6.979,6.979,0,0,1,8.266-1.226,3.647,3.647,0,0,1,5.124.176,3.7,3.7,0,0,1,2-1.191,6.683,6.683,0,0,1,.923-5.238V-7.453a6.874,6.874,0,0,1,1.033-4.14,3.681,3.681,0,0,1,3.151-1.38A3.7,3.7,0,0,1,8.24-11.628,6.664,6.664,0,0,1,9.3-7.6ZM7.163-7.778a5.415,5.415,0,0,0-.492-2.641,1.68,1.68,0,0,0-1.564-.839,1.679,1.679,0,0,0-1.538.8A5,5,0,0,0,3.05-7.98v2.9a5.555,5.555,0,0,0,.5,2.672,1.683,1.683,0,0,0,1.573.879,1.653,1.653,0,0,0,1.521-.813,5.226,5.226,0,0,0,.519-2.544ZM26.4-5.546l5.186,1.969v2.136L24.231-4.72v-1.7l7.356-3.27V-7.55Zm18.914.791V0H43.093V-12.8h4.9a4.954,4.954,0,0,1,3.406,1.116,3.751,3.751,0,0,1,1.261,2.953A3.627,3.627,0,0,1,51.42-5.8a5.194,5.194,0,0,1-3.458,1.046Zm0-1.784h2.672A2.632,2.632,0,0,0,49.8-7.1a2.051,2.051,0,0,0,.624-1.613,2.213,2.213,0,0,0-.633-1.657A2.439,2.439,0,0,0,48.05-11H45.316ZM58.9-5.2a13.393,13.393,0,0,1,.545-3.854,10.578,10.578,0,0,1,1.6-3.261,6.351,6.351,0,0,1,2.232-2.017l.422,1.248a6.524,6.524,0,0,0-2.008,2.87A12.852,12.852,0,0,0,60.855-5.8l-.009.756A13.972,13.972,0,0,0,61.6-.294a7,7,0,0,0,2.1,3.177l-.422,1.187a6.362,6.362,0,0,1-2.237-2.026,10.577,10.577,0,0,1-1.6-3.261A13.921,13.921,0,0,1,58.9-5.2ZM72.519-2.979H67.562L66.524,0H64.213l4.834-12.8h2L75.885,0h-2.32ZM68.186-4.772h3.709L70.04-10.081Zm13.061-.29A13.224,13.224,0,0,1,80.71-1.3a10.671,10.671,0,0,1-1.626,3.3,6.367,6.367,0,0,1-2.276,2.061l-.422-1.187A6.754,6.754,0,0,0,78.473-.233a13.84,13.84,0,0,0,.769-4.786v-.2a14.044,14.044,0,0,0-.668-4.452,7.852,7.852,0,0,0-1.916-3.221l-.272-.246.422-1.2a6.3,6.3,0,0,1,2.18,1.934A10.491,10.491,0,0,1,80.6-9.294a12.941,12.941,0,0,1,.633,3.546Zm8.341-.483,5.186,1.969v2.136L87.416-4.72v-1.7l7.356-3.27V-7.55ZM107.235,0h-2.127V-10.274L101.971-9.2V-11l4.992-1.837h.272Z" transform="translate(1151.995 3030.762)" fill="#fff"/>
      <path id="Trazado_177753" data-name="Trazado 177753" d="M-7650.33,20817.5h-16.914v-1h16.914Z" transform="translate(8839.995 -17782.238)" fill="#fff"/>
      <path id="Trazado_177754" data-name="Trazado 177754" d="M-7650.33,20817.5h-16.914v-1h16.914Z" transform="translate(8903.995 -17782.238)" fill="#fff"/>
    </g>
  </g>
</svg>
