<svg xmlns="http://www.w3.org/2000/svg" width="175" height="81" viewBox="0 0 175 81">
  <g id="Grupo_974134" data-name="Grupo 974134" transform="translate(-370 -5852.936)">
    <path id="Trazado_178025" data-name="Trazado 178025" d="M10,0H165a10,10,0,0,1,10,10V71a10,10,0,0,1-10,10H10A10,10,0,0,1,0,71V10A10,10,0,0,1,10,0Z" transform="translate(370 5852.936)" fill="#0b428a"/>
    <g id="Grupo_165663" data-name="Grupo 165663" transform="translate(155 -17006.064)">
      <path id="Trazado_177689" data-name="Trazado 177689" d="M3.375-1.705H8.438V0H.721V-1.4l4.825-6.39H.809V-9.51H8.253v1.354Zm19.011-5.15H14.81V-8.631h7.576Zm0,3.727H14.81V-4.9h7.576Z" transform="translate(249 22897)" fill="#fff"/>
      <path id="Trazado_177690" data-name="Trazado 177690" d="M5.7-8.174,8.394-12.8H10.96L7.093-6.451,11.048,0H8.455L5.7-4.693,2.944,0H.36L4.324-6.451.448-12.8H3.015ZM21.111-4.579H16.5V-6.3h4.614ZM33.117-.932A3.312,3.312,0,0,1,30.445.176,2.952,2.952,0,0,1,28.1-.729a3.851,3.851,0,0,1-.8-2.619V-9.51h2.136v6.135q0,1.811,1.5,1.811a2.111,2.111,0,0,0,2.1-1.116V-9.51h2.136V0H33.17Z" transform="translate(293 22887)" fill="#fff"/>
      <path id="Trazado_177683" data-name="Trazado 177683" d="M-8348.7,11207.138h67.909" transform="translate(8628 11685)" fill="none" stroke="#fff" stroke-width="1"/>
      <path id="Trazado_177691" data-name="Trazado 177691" d="M11.514-6.064a7.851,7.851,0,0,1-.65,3.3A4.918,4.918,0,0,1,9-.584a5.113,5.113,0,0,1-2.782.76A5.125,5.125,0,0,1,3.45-.584,4.993,4.993,0,0,1,1.569-2.751,7.606,7.606,0,0,1,.9-5.994v-.721a7.784,7.784,0,0,1,.664-3.3,4.987,4.987,0,0,1,1.872-2.193,5.1,5.1,0,0,1,2.773-.76,5.142,5.142,0,0,1,2.773.751,4.924,4.924,0,0,1,1.868,2.162,7.767,7.767,0,0,1,.668,3.283ZM9.29-6.732a5.594,5.594,0,0,0-.8-3.261,2.631,2.631,0,0,0-2.281-1.134A2.623,2.623,0,0,0,3.951-10,5.486,5.486,0,0,0,3.12-6.8v.738A5.552,5.552,0,0,0,3.942-2.8,2.646,2.646,0,0,0,6.223-1.652,2.615,2.615,0,0,0,8.495-2.777a5.671,5.671,0,0,0,.8-3.287Z" transform="translate(306.262 22909.275)" fill="#fff"/>
      <path id="Trazado_177684" data-name="Trazado 177684" d="M-8315.884,8036h24.243" transform="translate(8617.262 14876.275)" fill="none" stroke="#fff" stroke-width="1"/>
      <path id="Trazado_177685" data-name="Trazado 177685" d="M-8312.862,8041l5.111,9.084,3.25-12.42h15.659" transform="translate(8613.24 14878.611)" fill="none" stroke="#fff" stroke-linecap="round" stroke-width="1"/>
      <path id="Trazado_177692" data-name="Trazado 177692" d="M3.076-9.51l.062,1.1A3.419,3.419,0,0,1,5.906-9.686q2.971,0,3.023,3.4V0H6.794V-6.161A1.958,1.958,0,0,0,6.4-7.5a1.645,1.645,0,0,0-1.279-.435A2.058,2.058,0,0,0,3.2-6.768V0H1.063V-9.51Z" transform="translate(312.262 22929.275)" fill="#fff"/>
      <path id="Trazado_177686" data-name="Trazado 177686" d="M-8335,11170h11.466" transform="translate(8628 11700)" fill="none" stroke="#fff" stroke-width="1"/>
      <path id="Trazado_177687" data-name="Trazado 177687" d="M-8337.422,11199.5s-10.856,13.522,0,26.837" transform="translate(8632.834 11699.357)" fill="none" stroke="#fff" stroke-width="1"/>
      <path id="Trazado_177688" data-name="Trazado 177688" d="M-8342.246,11199.5s10.856,13.522,0,26.837" transform="translate(8671.833 11699.357)" fill="none" stroke="#fff" stroke-width="1"/>
    </g>
  </g>
</svg>
