<svg xmlns="http://www.w3.org/2000/svg" width="280" height="95" viewBox="0 0 280 95">
  <g id="Grupo_974114" data-name="Grupo 974114" transform="translate(8877 2415)">
    <rect id="Rectángulo_50152" data-name="Rectángulo 50152" width="280" height="95" rx="10" transform="translate(-8877 -2415)" fill="#a4a3ff"/>
    <g id="Grupo_166749" data-name="Grupo 166749" transform="translate(-8886.004 -2409.904)">
      <g id="Grupo_166748" data-name="Grupo 166748">
        <path id="Trazado_197267" data-name="Trazado 197267" d="M-9212.887-7620.879l6.922-4.205,4.936,13.712,11.913-60.047h149.509" transform="translate(9311.209 7677.212)" fill="none" stroke="#fff" stroke-width="4"/>
        <path id="Trazado_705152" data-name="Trazado 705152" d="M21.184-17.488H3.266v-3.459H21.184Zm0,8.916H3.266V-12.01H21.184Z" transform="translate(66.331 46)" fill="#fff"/>
        <path id="Trazado_705153" data-name="Trazado 705153" d="M13.008-7.786a9.071,9.071,0,0,0,7.229-3.1q2.681-3.1,2.922-8.679l.022-1.45q0-5.273-2.461-8.35a8.077,8.077,0,0,0-6.658-3.076,8.77,8.77,0,0,0-6.79,2.725V-41.141H3.186v21.885a13.9,13.9,0,0,0,1.241,6.064,9.333,9.333,0,0,0,3.494,4A9.4,9.4,0,0,0,13.008-7.786ZM7.273-25.892a5.994,5.994,0,0,1,5.581-3.23,5.488,5.488,0,0,1,4.614,2.142q1.648,2.142,1.648,6.427a12.8,12.8,0,0,1-1.593,6.965,5.077,5.077,0,0,1-4.515,2.461A4.8,4.8,0,0,1,8.855-13.5a10.765,10.765,0,0,1-1.582-6.086Z" transform="translate(15.625 21.774) rotate(97)" fill="#fff"/>
        <path id="Trazado_705154" data-name="Trazado 705154" d="M15.381-10.143,5.168,2.057H21.006V4.729H1.213V2.215L11.918-10.371,1.213-23.062v-2.531H19.652v2.672H5.15l10.23,12.34Z" transform="translate(128.196 46.904)" fill="#fff"/>
        <path id="Trazado_705155" data-name="Trazado 705155" d="M2.331,0H1.066V-7.4H2.331ZM.964-9.358a.755.755,0,0,1,.188-.52.706.706,0,0,1,.557-.212.717.717,0,0,1,.561.212.747.747,0,0,1,.191.52.722.722,0,0,1-.191.513.73.73,0,0,1-.561.205.718.718,0,0,1-.557-.205A.73.73,0,0,1,.964-9.358Zm9.174,3.794h-5.7v-1.1h5.7Zm0,2.837h-5.7V-3.821h5.7ZM16.064,0H14.793V-8.429l-2.55.937V-8.641L15.866-10h.2Z" transform="translate(149.946 52.288)" fill="#fff"/>
        <path id="Trazado_705156" data-name="Trazado 705156" d="M7.547,0H6.416L2.121-6.574V0H.99V-8.531H2.121l4.307,6.6v-6.6H7.547Z" transform="translate(149.946 18.024)" fill="#fff"/>
        <path id="Trazado_705157" data-name="Trazado 705157" d="M5.774,0H.65V-.714L3.357-3.722a6.431,6.431,0,0,0,.83-1.109,1.851,1.851,0,0,0,.228-.884,1.4,1.4,0,0,0-.371-1,1.3,1.3,0,0,0-.988-.392A1.535,1.535,0,0,0,1.9-6.69a1.611,1.611,0,0,0-.411,1.174H.5a2.307,2.307,0,0,1,.7-1.746,2.579,2.579,0,0,1,1.861-.666,2.478,2.478,0,0,1,1.724.572,1.951,1.951,0,0,1,.634,1.523,4.474,4.474,0,0,1-1.472,2.75L1.848-.811H5.774Z" transform="translate(253.794 17.024)" fill="#fff"/>
        <g id="Grupo_166738" data-name="Grupo 166738" transform="translate(199.194 29.691)">
          <text id="x" transform="translate(1 17)" fill="#fff" font-size="16" font-family="Roboto-Regular, Roboto"><tspan x="0" y="0">x</tspan></text>
        </g>
        <path id="Trazado_705158" data-name="Trazado 705158" d="M1.5,0H.686V-4.755H1.5ZM.62-6.016A.485.485,0,0,1,.74-6.35.454.454,0,0,1,1.1-6.486a.461.461,0,0,1,.36.136.48.48,0,0,1,.123.334.464.464,0,0,1-.123.33.469.469,0,0,1-.36.132A.462.462,0,0,1,.74-5.687.469.469,0,0,1,.62-6.016Z" transform="translate(211.491 56.039)" fill="#fff"/>
        <path id="Trazado_705159" data-name="Trazado 705159" d="M2.857-12.7a33.216,33.216,0,0,1,1.3-9.324,27.086,27.086,0,0,1,3.878-8.121,16.5,16.5,0,0,1,5.35-5.156l.816,2.621A17.111,17.111,0,0,0,9.056-25.33a31.853,31.853,0,0,0-2.2,11.064l-.021,1.826A32.019,32.019,0,0,0,9.861,1.955,17.192,17.192,0,0,0,14.2,7.67L13.385,10.1A17.027,17.027,0,0,1,7.928,4.77,29.863,29.863,0,0,1,2.857-12.7Z" transform="translate(179.412 51.619)" fill="#fff"/>
        <path id="Trazado_705160" data-name="Trazado 705160" d="M12.182-12.482A33.232,33.232,0,0,1,10.925-3.3a27.159,27.159,0,0,1-3.846,8.11A16.849,16.849,0,0,1,1.654,10.1L.816,7.67A17.272,17.272,0,0,0,6.134-.2,34.065,34.065,0,0,0,8.186-12.053v-.687a35.368,35.368,0,0,0-.945-8.39,28.315,28.315,0,0,0-2.632-6.95A16.053,16.053,0,0,0,.816-32.871L1.654-35.3a16.784,16.784,0,0,1,5.4,5.242,27.217,27.217,0,0,1,3.846,8.1A34,34,0,0,1,12.182-12.482Z" transform="translate(240.855 51.619)" fill="#fff"/>
        <path id="Trazado_705161" data-name="Trazado 705161" d="M3.93-5.367,5.8-8.453H7.492L4.727-4.273,7.578,0H5.906L3.953-3.164,2,0H.32L3.172-4.273.406-8.453H2.078Z" transform="translate(200.194 46.691)" fill="#fff"/>
        <path id="Trazado_705162" data-name="Trazado 705162" d="M4.1-4.242H.289v-1.18H4.1Z" transform="translate(214.465 46.691)" fill="#fff"/>
        <path id="Trazado_705163" data-name="Trazado 705163" d="M8.086,1.327H.035V0H8.086Z" transform="translate(230.664 30.224)" fill="#fff"/>
        <path id="Trazado_705164" data-name="Trazado 705164" d="M3.93-5.367,5.8-8.453H7.492L4.727-4.273,7.578,0H5.906L3.953-3.164,2,0H.32L3.172-4.273.406-8.453H2.078Z" transform="translate(229.546 46.691)" fill="#fff"/>
      </g>
      <path id="Trazado_705151" data-name="Trazado 705151" d="M2.461-8.453l.047,1.063A3.08,3.08,0,0,1,5.039-8.609q2.68,0,2.7,3.023V0H6.3V-5.594a1.946,1.946,0,0,0-.418-1.352A1.675,1.675,0,0,0,4.6-7.383a2.086,2.086,0,0,0-1.234.375,2.546,2.546,0,0,0-.828.984V0H1.094V-8.453ZM12.93-4.242H9.117v-1.18H12.93ZM18.938,0H17.484V-9.633L14.57-8.562V-9.875l4.141-1.555h.227Z" transform="translate(184.004 80.903)" fill="#fff"/>
      <path id="Trazado_197273" data-name="Trazado 197273" d="M-9613.244-9288.434h149.209" transform="translate(9735.636 9354.273)" fill="#fff" stroke="#fff" stroke-width="3"/>
    </g>
  </g>
</svg>
